<svg xmlns="http://www.w3.org/2000/svg" width="87.435" height="87.434" viewBox="0 0 87.435 87.434">
  <g id="Grupo_1188983" data-name="Grupo 1188983" transform="translate(0)">
    <g id="Grupo_1188789" data-name="Grupo 1188789" transform="translate(0)">
      <rect id="Rectángulo_400898" data-name="Rectángulo 400898" width="72.382" height="72.381" rx="36.191" transform="translate(7.527 7.526)" fill="#26dbd2"/>
      <rect id="Rectángulo_400907" data-name="Rectángulo 400907" width="78.382" height="78.381" rx="39.191" transform="translate(4.527 4.526)" fill="none"/>
      <g id="Grupo_1098742" data-name="Grupo 1098742">
        <g id="Rectángulo_400898-2" data-name="Rectángulo 400898" transform="translate(0)" fill="none" stroke="#fff" stroke-width="2" opacity="0.859">
          <rect width="87.435" height="87.434" rx="43.717" stroke="none"/>
          <rect x="1" y="1" width="85.435" height="85.434" rx="42.717" fill="none"/>
        </g>
        <g id="Rectángulo_400907-2" data-name="Rectángulo 400907" transform="translate(0)" fill="none" stroke="#0f1f33" stroke-linecap="round" stroke-width="2">
          <rect width="87.435" height="87.434" rx="43.717" stroke="none"/>
          <rect x="1" y="1" width="85.435" height="85.434" rx="42.717" fill="none"/>
        </g>
      </g>
      <g id="Grupo_1189704" data-name="Grupo 1189704" transform="translate(-340.425 -265.221)">
        <g id="FLAT-LINE">
          <path id="Trazado_879308" data-name="Trazado 879308" d="M373.94,315.553a20,20,0,0,1-2.1-3.388c-3.789-7.417-3.789-14.834,0-18.543A10.4,10.4,0,0,1,387,295.074a10.4,10.4,0,0,1,15.158-1.452c3.79,3.709,3.79,11.126,0,18.543C399.5,317.728,392.684,323.291,387,327c-1.124-.733-2.293-1.54-3.465-2.4-3.177,3.005-4.766,1.416-4.766,1.416s-1.454-1.454,1.052-4.363c-.942-.809-1.857-1.648-2.72-2.508-1.807,1.98-3.19,1.182-3.19,1.182S372.033,319.239,373.94,315.553Z" fill="#ff405c" fill-rule="evenodd"/>
          <g id="Grupo_1189704-2" data-name="Grupo 1189704" transform="matrix(-0.866, -0.5, 0.5, -0.866, 480.308, 363.933)">
            <path id="Trazado_879309" data-name="Trazado 879309" d="M113.93-18.988c2.986,0,8.012-1.4,6.984-5.875-.716-3.116-3.876-2.35-6.984-2.35s-6.269-.767-6.984,2.35C105.918-20.392,110.944-18.988,113.93-18.988Z" fill="#ffd321" fill-rule="evenodd"/>
          </g>
          <g id="Grupo_1189705" data-name="Grupo 1189705" transform="matrix(-0.866, -0.5, 0.5, -0.866, 478.621, 401.442)">
            <path id="Trazado_879310" data-name="Trazado 879310" d="M131.249,17.9s-2.374,0-2.374,4.75a2.374,2.374,0,0,0,4.748,0C133.623,17.9,131.249,17.9,131.249,17.9Z" fill="#ffd321" fill-rule="evenodd"/>
          </g>
          <g id="Grupo_1189706" data-name="Grupo 1189706" transform="translate(458.916 431.468) rotate(-135)">
            <path id="Trazado_879311" data-name="Trazado 879311" d="M131.215,17.9s-2.373,0-2.373,4.751a2.373,2.373,0,1,0,4.747,0C133.589,17.9,131.215,17.9,131.215,17.9Z" fill="#ffd321" fill-rule="evenodd"/>
          </g>
          <g id="Grupo_1189707" data-name="Grupo 1189707" transform="matrix(-0.966, -0.259, 0.259, -0.966, 488.692, 370.214)">
            <path id="Trazado_879312" data-name="Trazado 879312" d="M131.213,17.9s-2.373,0-2.373,4.75a2.373,2.373,0,1,0,4.747,0C133.587,17.9,131.213,17.9,131.213,17.9Z" fill="#ffd321" fill-rule="evenodd"/>
          </g>
          <g id="Grupo_1189708" data-name="Grupo 1189708" transform="translate(-285 141)">
            <path id="Trazado_879313" data-name="Trazado 879313" d="M669,166a1,1,0,0,0,1-1v-2.5a1.5,1.5,0,0,1,1.5-1.5h1a1.5,1.5,0,0,1,1.5,1.5V165a1,1,0,0,0,1,1h2.5a1.5,1.5,0,0,1,1.5,1.5v1a1.5,1.5,0,0,1-1.5,1.5H675a1,1,0,0,0-1,1v2.5a1.5,1.5,0,0,1-1.5,1.5h-1a1.5,1.5,0,0,1-1.5-1.5V171a1,1,0,0,0-1-1h-2.5a1.5,1.5,0,0,1-1.5-1.5v-1a1.5,1.5,0,0,1,1.5-1.5Z" fill="#ebf1fd" fill-rule="evenodd"/>
          </g>
          <g id="Grupo_1189709" data-name="Grupo 1189709" transform="matrix(-0.866, -0.5, 0.5, -0.866, 480.308, 363.933)">
            <path id="Trazado_879314" data-name="Trazado 879314" d="M117.243-11.958a20.3,20.3,0,0,1,3.113,1.727,23.362,23.362,0,0,1,9,9.946,10.908,10.908,0,0,1,.675,7.212C128.56,12.2,122.117,16.208,116,14.334c-1.435,6.233-8.129,9.808-13.431,8.447-2.942-.754-5.485-3.011-7.275-6.33a1,1,0,1,1,1.76-.949c1.493,2.769,3.558,4.714,6.012,5.343a9.367,9.367,0,0,0,11.157-7.976,1,1,0,0,1,1.4-.806,9.367,9.367,0,0,0,12.486-5.674,8.929,8.929,0,0,0-.592-5.9,21.362,21.362,0,0,0-8.259-9.053.254.254,0,0,1-.023-.015,17.38,17.38,0,0,0-2.054-1.2,3.376,3.376,0,0,1-3.249,2.466,3.374,3.374,0,0,1-3.373-3.373,12.581,12.581,0,0,1,.071-1.386c-.568-.139-1.144-.267-1.723-.387a3.374,3.374,0,0,1-4.128,2.372,3.377,3.377,0,0,1-2.5-3.354c-.825-.08-1.634-.144-2.421-.193C96.963-7.794,94.09-.113,94.547,5.679c0,.008,0,.018,0,.027A26.315,26.315,0,0,0,95.6,11.953a1,1,0,1,1-1.913.58,28.2,28.2,0,0,1-1.136-6.712c-.49-6.3,2.671-14.737,5.815-20.939a1,1,0,0,1,.946-.546c1.11.061,2.269.148,3.456.268a5.667,5.667,0,0,1,2.311-3.13,2.716,2.716,0,0,1,2.059-.366,2.714,2.714,0,0,1,1.6,1.346,5.165,5.165,0,0,1,.533,3.125q.911.187,1.809.406a4.329,4.329,0,0,1,.957-1.527,2.712,2.712,0,0,1,1.894-.885,2.712,2.712,0,0,1,1.894.885,5.644,5.644,0,0,1,1.418,3.584Zm-4.685,1.277a1.374,1.374,0,0,0,1.373,1.374,1.375,1.375,0,0,0,1.374-1.374c0-2.9-1.135-3.613-1.374-3.729C113.691-14.294,112.557-13.585,112.557-10.681Zm-8.138-3.35c-.032.108-.064.22-.095.336a1.373,1.373,0,0,0,.971,1.682,1.374,1.374,0,0,0,1.683-.971c.751-2.806-.161-3.783-.362-3.958C106.366-16.894,105.179-16.533,104.42-14.031Zm7.212-14.252a1,1,0,0,1,.968,1.029,1,1,0,0,1-1.029.97c-1.7-.052-3.242-.131-3.651,1.646a3.048,3.048,0,0,0,1.531,3.534,9.136,9.136,0,0,0,4.479,1.117,9.136,9.136,0,0,0,4.479-1.117,3.048,3.048,0,0,0,1.531-3.534,1.848,1.848,0,0,0-1.545-1.538,1,1,0,0,1-.769-1.186,1,1,0,0,1,1.186-.77,3.666,3.666,0,0,1,3.077,3.046,4.9,4.9,0,0,1-2.444,5.692,11.28,11.28,0,0,1-5.515,1.405,11.28,11.28,0,0,1-5.515-1.405,4.9,4.9,0,0,1-2.444-5.692c.662-2.884,2.908-3.281,5.66-3.2Zm3.957,1.907a1,1,0,0,1-1.365-.367,1,1,0,0,1,.366-1.366,1,1,0,0,1,1.366.367,1,1,0,0,1-.367,1.366Zm5.134,7.485a2.716,2.716,0,0,1,2.059.366c.854.494,1.964,1.615,2.687,4.313a3.375,3.375,0,0,1-2.385,4.131,3.375,3.375,0,0,1-4.131-2.385c-.723-2.7-.323-4.224.171-5.078a2.714,2.714,0,0,1,1.6-1.346Zm.522,1.949c-.2.174-1.113,1.152-.362,3.958a1.374,1.374,0,0,0,1.683.971,1.373,1.373,0,0,0,.971-1.682C122.785-16.5,121.506-16.891,121.244-16.942Zm-8.889,18.96,1.25,2.165A2.5,2.5,0,0,1,112.69,7.6l-.866.5a2.5,2.5,0,0,1-3.414-.915l-1.25-2.165L105,6.267a2.5,2.5,0,0,1-3.414-.915l-.5-.866a2.5,2.5,0,0,1,.915-3.414l2.165-1.25-1.25-2.165a2.5,2.5,0,0,1-.249-1.9,2.493,2.493,0,0,1,1.164-1.518l.866-.5a2.5,2.5,0,0,1,1.9-.249,2.5,2.5,0,0,1,1.518,1.164l1.25,2.165,2.165-1.25a2.5,2.5,0,0,1,1.9-.249,2.5,2.5,0,0,1,1.518,1.164l.5.866a2.5,2.5,0,0,1,.249,1.9A2.5,2.5,0,0,1,114.52.768Zm-1-1.732,2.165-1.25a.5.5,0,0,0,.233-.3.5.5,0,0,0-.05-.38l-.5-.865a.5.5,0,0,0-.3-.233.5.5,0,0,0-.379.05l-2.165,1.25a2,2,0,0,1-1.518.2,2,2,0,0,1-1.214-.932l-1.25-2.165a.5.5,0,0,0-.3-.233.5.5,0,0,0-.38.05l-.865.5a.5.5,0,0,0-.234.3.5.5,0,0,0,.051.379l1.25,2.165a2,2,0,0,1,.2,1.518,2,2,0,0,1-.932,1.214L103,2.8a.5.5,0,0,0-.183.684l.5.865a.5.5,0,0,0,.682.184l2.165-1.251a2,2,0,0,1,2.732.732l1.25,2.165a.5.5,0,0,0,.684.183l.865-.5a.5.5,0,0,0,.183-.682l-1.25-2.165a2,2,0,0,1,.732-2.732Z" fill-rule="evenodd"/>
          </g>
        </g>
      </g>
    </g>
  </g>
</svg>
