<svg xmlns="http://www.w3.org/2000/svg" width="295" height="112" viewBox="0 0 295 112">
  <g id="Grupo_1189712" data-name="Grupo 1189712" transform="translate(-1125.051 -3700)">
    <rect id="Rectángulo_402759" data-name="Rectángulo 402759" width="295" height="112" rx="10" transform="translate(1125.051 3700)" fill="#12263f"/>
    <g id="Page-1" transform="translate(1281.641 3706)">
      <g id="_036---Dog-Cone" data-name="036---Dog-Cone" transform="translate(0 0)">
        <path id="Shape" d="M28.264,25.347c-.95,2.065-4.624,4.258-5.592,7.256L2.239,23.172a1.815,1.815,0,0,1-.128-3.235L5,18.274h.018c.932.64,7.457-.64,8.626-.238a63.975,63.975,0,0,1,9.138,1.828c2.029.512,5.3,1.773,5.483,1.828C29.233,22.075,28.7,24.414,28.264,25.347Z" transform="translate(0.977 14.86)" fill="#9fc9d3"/>
        <path id="Shape-2" data-name="Shape" d="M94.241,66.69c0,7.31-7.31,18.276-23.759,18.276,0,1.005-3.655,3.655-7.31,3.655H12.11c0-5.483,7.2-7.31,7.2-7.31V59.379A27.962,27.962,0,0,1,12,41.1a35.484,35.484,0,0,1,1.718-11.02l.11.055L30.276,21l14.566,2.248a26.454,26.454,0,0,1,3.82,3.235C53.742,31.545,66.627,53.823,68.527,68.7a3.611,3.611,0,0,0,4.2,3.07c6.287-1.078,17.856-5.062,17.856-19.7A37.807,37.807,0,0,1,94.241,66.69Z" transform="translate(9.931 17.379)" fill="#f3d55b"/>
        <path id="Shape-3" data-name="Shape" d="M50.019,7.987,32.895,27.414l-26.9,5.72H5.975C1.7,30.283-.184,25.276.017,19.647a1.811,1.811,0,0,1,1.371-1.7c8.827-2.211,3.436-.841,10.6-2.632A7.4,7.4,0,0,0,16.3,12.263C18.786,8.535,17.817,10,20.6,5.83a7.281,7.281,0,0,1,4.021-2.961A64.331,64.331,0,0,1,40.315,0c3.984,0,7.42,3.253,9.7,7.987Z" transform="translate(0.002 0)" fill="#f3d55b"/>
        <path id="Shape-4" data-name="Shape" d="M43.409,3.079,36.793,39.43l-1.882.42C31.219,37.328,26.1,39.5,25.828,37.6A49.415,49.415,0,0,0,24,28.464c2.76-1.261,1.828-2.632,1.828-7.31,0-4.989,6.287-9.979,4.331-13.944L40.7,1.178a1.828,1.828,0,0,1,2.7,1.9Z" transform="translate(19.862 0.777)" fill="#9fc9d3"/>
        <path id="Shape-5" data-name="Shape" d="M52.058,37.011,21.044,43.9l-.11-.055a63.322,63.322,0,0,1,3.107-7.457,1.782,1.782,0,0,0-.987-2.412,35.489,35.489,0,0,0-3.838-1.243A64.839,64.839,0,0,0,6.423,31.071,12.93,12.93,0,0,1,3.28,29.518L32.339,12.923,35.171,11.3,47.307,4.37A32.286,32.286,0,0,1,50.4,18.314c0,4.679-2.01,7.365-4.77,8.626v.037l.53,3.673c.11.768.238,1.7.4,2.814.274,1.9,1.809,1.023,5.5,3.546Z" transform="translate(2.715 3.617)" fill="#84b5cb"/>
        <path id="Shape-6" data-name="Shape" d="M46.269,41.795a1.848,1.848,0,0,1-2.321,1.151A11.061,11.061,0,0,0,33.6,44.171a14.467,14.467,0,0,0-5.516,11.66c0,7.621,5.867,9.174,5.921,9.193a1.828,1.828,0,0,1-.439,3.6c-7.877,0-10.2,4.094-10.764,5.483H19.06a1.771,1.771,0,0,1,.055-.42,11.89,11.89,0,0,1,9.065-8.078,13.354,13.354,0,0,1-3.747-9.778A18.153,18.153,0,0,1,31.469,41.21a14.78,14.78,0,0,1,13.652-1.736A1.848,1.848,0,0,1,46.269,41.795Z" transform="translate(15.774 31.893)" fill="#f0c419"/>
        <path id="Shape-7" data-name="Shape" d="M42.31,56.828a7.29,7.29,0,0,1-.987,3.655H35a3.666,3.666,0,0,0,3.655-3.655,1.828,1.828,0,0,1,3.655,0Z" transform="translate(28.966 45.517)" fill="#f0c419"/>
        <path id="Shape-8" data-name="Shape" d="M7.31,9.02v5.446a1.828,1.828,0,0,1-1.828,1.828H.27a20.681,20.681,0,0,1-.256-4.112,1.811,1.811,0,0,1,1.371-1.7Z" transform="translate(0 7.465)" fill="#3f5c6c"/>
        <path id="Shape-9" data-name="Shape" d="M33,27.514a12.329,12.329,0,0,1-4.532.822,16.117,16.117,0,0,1-5.83-1.133,5.528,5.528,0,0,1-3.454-5.1V9.787L22.013,8.16A1.846,1.846,0,0,1,22.835,9.7V22.1a1.828,1.828,0,0,0,1.151,1.7,10.679,10.679,0,0,0,8.041.164,1.738,1.738,0,0,1,.439-.128Z" transform="translate(15.873 6.753)" fill="#3b97d3"/>
      </g>
    </g>
    <g id="Page-1-2" data-name="Page-1" transform="translate(1166.56 3706)">
      <g id="_022---Fleas" data-name="022---Fleas" transform="translate(0 0)">
        <path id="Shape-10" data-name="Shape" d="M53.832,24.707l-7.579-7.579L40.953,17l.128,5.3,7.579,7.579Z" transform="translate(-22.682 14.069)" fill="#7f8c8d"/>
        <path id="Shape-11" data-name="Shape" d="M0,84.069c0,7.31,7.31,18.276,23.759,18.276,0,1.005,3.655,3.655,7.31,3.655H82.134c0-5.483-7.2-7.31-7.2-7.31V76.759a27.962,27.962,0,0,0,7.31-18.276,40.178,40.178,0,0,0-4.825-18.477,1.782,1.782,0,0,1,.987-2.412,52.311,52.311,0,0,1,16.521-2.869c8.754-2.924,9.357-11.678,9.229-15.078a1.811,1.811,0,0,0-1.371-1.7l-10.6-2.632a7.356,7.356,0,0,1-4.313-3.052L83.578,5.83a7.281,7.281,0,0,0-4.021-2.961A64.331,64.331,0,0,0,63.858,0c-7.31,0-12.793,10.966-12.793,21.931,0,4.679,2.01,7.365,4.77,8.626v.037l-.53,3.673-.4,2.814a1.8,1.8,0,0,1-1.334,1.5,18.908,18.908,0,0,0-7.987,5.282C40.5,48.924,27.617,71.2,25.717,86.079a3.611,3.611,0,0,1-4.2,3.07c-6.287-1.078-17.855-5.062-17.855-19.7A37.808,37.808,0,0,0,0,84.069Z" transform="translate(1.82 0)" fill="#f3d55b"/>
        <path id="Shape-12" data-name="Shape" d="M19.18,27.647a12.329,12.329,0,0,0,4.532.822,16.117,16.117,0,0,0,5.83-1.133A5.528,5.528,0,0,0,33,22.237V9.828a1.828,1.828,0,1,0-3.655,0V22.237a1.828,1.828,0,0,1-1.151,1.7,10.678,10.678,0,0,1-8.041.164,1.738,1.738,0,0,0-.439-.128Z" transform="translate(37.945 6.621)" fill="#f0c419"/>
        <path id="Shape-13" data-name="Shape" d="M19.152,41.795a1.848,1.848,0,0,0,2.321,1.151,11.06,11.06,0,0,1,10.344,1.224,14.467,14.467,0,0,1,5.519,11.66c0,7.621-5.867,9.174-5.921,9.193a1.828,1.828,0,0,0,.439,3.6c7.877,0,10.2,4.094,10.764,5.483h3.747a1.771,1.771,0,0,0-.055-.42,11.89,11.89,0,0,0-9.065-8.078,13.354,13.354,0,0,0,3.747-9.778A18.153,18.153,0,0,0,33.956,41.21,14.78,14.78,0,0,0,20.3,39.474a1.848,1.848,0,0,0-1.151,2.321Z" transform="translate(24.796 31.893)" fill="#f0c419"/>
        <path id="Shape-14" data-name="Shape" d="M35,56.828a7.29,7.29,0,0,0,.987,3.655H42.31a3.666,3.666,0,0,1-3.655-3.655,1.828,1.828,0,1,0-3.655,0Z" transform="translate(-0.281 45.517)" fill="#f0c419"/>
        <path id="Shape-15" data-name="Shape" d="M0,9.02v5.446A1.828,1.828,0,0,0,1.83,16.294H7.038a20.681,20.681,0,0,0,.256-4.112,1.811,1.811,0,0,0-1.371-1.7Z" transform="translate(98.683 7.465)" fill="#3f5c6c"/>
        <ellipse id="Oval" cx="21.931" cy="21.931" rx="21.931" ry="21.931" transform="translate(21.926 34.724)" fill="#95a5a5"/>
        <ellipse id="Oval-2" data-name="Oval" cx="18.276" cy="18.276" rx="18.276" ry="18.276" transform="translate(25.581 38.379)" fill="#7f8c8d"/>
        <path id="Shape-16" data-name="Shape" d="M45.7,18.95,58.624,31.871a1.828,1.828,0,0,0,2.577,0L68.968,24.1a1.828,1.828,0,0,0,0-2.577l-9.047-9.047L57.344,9.9h-.018l-1.279-1.3a5.5,5.5,0,0,0-7.767,0L45.7,11.183A5.5,5.5,0,0,0,45.7,18.95Z" transform="translate(-44.099 5.795)" fill="#3b97d3"/>
        <path id="Shape-17" data-name="Shape" d="M53.35,15.606v.018L55.926,18.2l2.577-2.6a1.828,1.828,0,0,0-2.577-2.577Z" transform="translate(-50.448 10.419)" fill="#2980ba"/>
        <path id="Shape-18" data-name="Shape" d="M49.871,13.744a1.787,1.787,0,0,0,2.577,0l2.6-2.577L52.467,8.59h-.018l-2.577,2.577A1.828,1.828,0,0,0,49.871,13.744Z" transform="translate(-39.221 7.109)" fill="#2980ba"/>
        <ellipse id="Oval-3" data-name="Oval" cx="14.621" cy="14.621" rx="14.621" ry="14.621" transform="translate(29.237 42.034)" fill="#9fc9d3"/>
        <g id="Grupo_1189711" data-name="Grupo 1189711" transform="translate(34.719 49.367)">
          <path id="Shape-19" data-name="Shape" d="M31.84,32.8a1.815,1.815,0,0,0,1.292-.535l2.157-2.157A1.828,1.828,0,0,0,32.7,27.525l-2.157,2.157A1.828,1.828,0,0,0,31.84,32.8Z" transform="translate(-19.375 -27.012)" fill="#35495e"/>
          <path id="Shape-20" data-name="Shape" d="M38.782,32.8a1.828,1.828,0,0,0,1.292-3.12l-2.157-2.157a1.828,1.828,0,0,0-2.584,2.584l2.157,2.157a1.815,1.815,0,0,0,1.292.535Z" transform="translate(-32.97 -27.012)" fill="#35495e"/>
          <path id="Shape-21" data-name="Shape" d="M30.828,33.655h3.655a1.828,1.828,0,0,0,0-3.655H30.828a1.828,1.828,0,0,0,0,3.655Z" transform="translate(-18.035 -24.54)" fill="#35495e"/>
          <path id="Shape-22" data-name="Shape" d="M36.828,33.655h3.655a1.828,1.828,0,0,0,0-3.655H36.828a1.828,1.828,0,0,0,0,3.655Z" transform="translate(-35 -24.54)" fill="#35495e"/>
          <path id="Shape-23" data-name="Shape" d="M33.962,37.622a1.828,1.828,0,0,0,1.292-3.12L33.1,32.345a1.828,1.828,0,0,0-2.584,2.584l2.157,2.157A1.828,1.828,0,0,0,33.962,37.622Z" transform="translate(-19.341 -23.023)" fill="#35495e"/>
          <path id="Shape-24" data-name="Shape" d="M36.66,37.622a1.828,1.828,0,0,0,1.292-.535l2.157-2.157a1.828,1.828,0,0,0-2.584-2.584L35.367,34.5a1.828,1.828,0,0,0,1.292,3.12Z" transform="translate(-33.004 -23.023)" fill="#35495e"/>
        </g>
        <rect id="Rectangle-path" width="7.31" height="10.966" rx="2" transform="translate(40.202 51.172)" fill="#e64c3c"/>
      </g>
    </g>
  </g>
</svg>
