<svg id="Grupo_1188985" data-name="Grupo 1188985" xmlns="http://www.w3.org/2000/svg" width="87.435" height="87.434" viewBox="0 0 87.435 87.434">
  <g id="Grupo_1188789" data-name="Grupo 1188789">
    <rect id="Rectángulo_400898" data-name="Rectángulo 400898" width="72.382" height="72.381" rx="36.191" transform="translate(7.527 7.526)" fill="#361969"/>
    <rect id="Rectángulo_400907" data-name="Rectángulo 400907" width="78.382" height="78.381" rx="39.191" transform="translate(4.357 5)" fill="none"/>
    <g id="Grupo_1098742" data-name="Grupo 1098742">
      <g id="Rectángulo_400898-2" data-name="Rectángulo 400898" transform="translate(0)" fill="none" stroke="#fff" stroke-width="2" opacity="0.859">
        <rect width="87.435" height="87.434" rx="43.717" stroke="none"/>
        <rect x="1" y="1" width="85.435" height="85.434" rx="42.717" fill="none"/>
      </g>
      <g id="Rectángulo_400907-2" data-name="Rectángulo 400907" transform="translate(0)" fill="none" stroke="#0f1f33" stroke-linecap="round" stroke-width="2">
        <rect width="87.435" height="87.434" rx="43.717" stroke="none"/>
        <rect x="1" y="1" width="85.435" height="85.434" rx="42.717" fill="none"/>
      </g>
    </g>
    <g id="Grupo_1189713" data-name="Grupo 1189713" transform="translate(4.278 18)">
      <g id="Grupo_1189713-2" data-name="Grupo 1189713" transform="translate(25.282 0.756)">
        <path id="Trazado_879333" data-name="Trazado 879333" d="M148.917,7.5h-32.1a.5.5,0,0,0-.5.5V21.977h3.305a2.47,2.47,0,0,1,.172,4.934v3.064h0a1.007,1.007,0,0,1,.855,1v6.257a1.007,1.007,0,0,1-.855,1h0v3.064a2.47,2.47,0,0,1-.172,4.934h-3.305v4.136h6.956a1.008,1.008,0,0,1,1.008,1.008v2.008h.768a1.008,1.008,0,0,1,1.008,1.008v3.215h23.366V8A.5.5,0,0,0,148.917,7.5Z" transform="translate(-116.315 -7.5)" fill="#fff3de"/>
      </g>
      <g id="Grupo_1189714" data-name="Grupo 1189714" transform="translate(25.282 0.756)">
        <path id="Trazado_879334" data-name="Trazado 879334" d="M119.62,21.977l.09,0V8a.5.5,0,0,1,.5-.5h-3.4a.5.5,0,0,0-.5.5V21.977Z" transform="translate(-116.315 -7.5)" fill="#ffe5c2"/>
        <path id="Trazado_879335" data-name="Trazado 879335" d="M119.62,391.629h-3.305v4.136h3.4v-4.139Z" transform="translate(-116.315 -352.909)" fill="#ffe5c2"/>
      </g>
      <g id="Grupo_1189732" data-name="Grupo 1189732" transform="translate(15.834 15.233)">
        <g id="Grupo_1189715" data-name="Grupo 1189715" transform="translate(13.78 10.398)">
          <path id="Trazado_879336" data-name="Trazado 879336" d="M159.3,254.29h4.666v3.447H159.3Z" transform="translate(-159.296 -254.29)" fill="#883f2e"/>
          <path id="Trazado_879337" data-name="Trazado 879337" d="M237.5,254.29h6.664v3.447H237.5Z" transform="translate(-229.619 -254.29)" fill="#883f2e"/>
        </g>
        <g id="Grupo_1189716" data-name="Grupo 1189716" transform="translate(13.78 12.183)">
          <path id="Trazado_879338" data-name="Trazado 879338" d="M159.3,272h4.666v1.662H159.3Z" transform="translate(-159.296 -272)" fill="#6d3326"/>
          <path id="Trazado_879339" data-name="Trazado 879339" d="M237.5,272h6.664v1.662H237.5Z" transform="translate(-229.619 -272)" fill="#6d3326"/>
        </g>
        <g id="Grupo_1189717" data-name="Grupo 1189717" transform="translate(28.327 9.594)">
          <path id="Trazado_879340" data-name="Trazado 879340" d="M322.344,248.838a2.528,2.528,0,0,1-2.528,2.528H304.19a.575.575,0,0,1-.575-.575v-3.906a.575.575,0,0,1,.575-.575h15.626A2.528,2.528,0,0,1,322.344,248.838Z" transform="translate(-303.616 -246.31)" fill="#ca6e59"/>
        </g>
        <g id="Grupo_1189718" data-name="Grupo 1189718" transform="translate(28.327 9.594)">
          <path id="Trazado_879341" data-name="Trazado 879341" d="M307.051,249.2a.574.574,0,0,1-.574-.575V246.31h-2.286a.575.575,0,0,0-.575.575v3.906a.575.575,0,0,0,.575.575h15.626a2.528,2.528,0,0,0,2.5-2.164Z" transform="translate(-303.616 -246.31)" fill="#bb5d4c"/>
        </g>
        <g id="Grupo_1189719" data-name="Grupo 1189719" transform="translate(18.446 9.594)">
          <path id="Trazado_879342" data-name="Trazado 879342" d="M208.8,246.815v4.047a.5.5,0,0,1-.5.5h-2.209a.5.5,0,0,1-.5-.5v-4.047a.5.5,0,0,1,.5-.5H208.3A.5.5,0,0,1,208.8,246.815Z" transform="translate(-205.585 -246.311)" fill="#ca6e59"/>
        </g>
        <g id="Grupo_1189720" data-name="Grupo 1189720" transform="translate(18.446 9.594)">
          <path id="Trazado_879343" data-name="Trazado 879343" d="M207.046,250.862v-4.047a.5.5,0,0,1,.5-.5h-1.461a.5.5,0,0,0-.5.5v4.047a.5.5,0,0,0,.5.5h1.461A.5.5,0,0,1,207.046,250.862Z" transform="translate(-205.585 -246.311)" fill="#bb5d4c"/>
        </g>
        <g id="Grupo_1189721" data-name="Grupo 1189721" transform="translate(6.262 4.934)">
          <path id="Trazado_879344" data-name="Trazado 879344" d="M91.214,312.31H84.856a1.009,1.009,0,0,1-.153-.013v3.064c.057,0,.114-.007.172-.007h6.319c.058,0,.115,0,.172.007V312.3A1,1,0,0,1,91.214,312.31Z" transform="translate(-84.703 -300.986)" fill="#883f2e"/>
          <path id="Trazado_879345" data-name="Trazado 879345" d="M84.856,312.31a1.009,1.009,0,0,1-.153-.013v3.064c.057,0,.114-.007.172-.007h2.366V312.31H84.856Z" transform="translate(-84.703 -300.986)" fill="#6d3326"/>
          <path id="Trazado_879346" data-name="Trazado 879346" d="M84.856,203.13h6.357a1.011,1.011,0,0,1,.153.013v-3.064c-.057,0-.114.007-.172.007H84.875c-.058,0-.115,0-.172-.007v3.064A1.011,1.011,0,0,1,84.856,203.13Z" transform="translate(-84.703 -200.079)" fill="#883f2e"/>
          <path id="Trazado_879347" data-name="Trazado 879347" d="M84.856,203.129h2.385v-3.045H84.875c-.058,0-.115,0-.172-.007v3.064A1.027,1.027,0,0,1,84.856,203.129Z" transform="translate(-84.703 -200.078)" fill="#6d3326"/>
        </g>
        <g id="Grupo_1189722" data-name="Grupo 1189722" transform="translate(5.407 7.985)">
          <path id="Trazado_879348" data-name="Trazado 879348" d="M84.6,231.36v6.257a1.008,1.008,0,0,1-1.008,1.008H77.233a1.008,1.008,0,0,1-1.008-1.008V231.36a1.008,1.008,0,0,1,1.008-1.008H83.59A1.008,1.008,0,0,1,84.6,231.36Z" transform="translate(-76.225 -230.352)" fill="#ca6e59"/>
        </g>
        <g id="Grupo_1189723" data-name="Grupo 1189723" transform="translate(5.407 7.985)">
          <path id="Trazado_879349" data-name="Trazado 879349" d="M79.629,237.617V231.36a1.008,1.008,0,0,1,1.008-1.008h-3.4a1.008,1.008,0,0,0-1.008,1.008v6.257a1.008,1.008,0,0,0,1.008,1.008h3.4A1.008,1.008,0,0,1,79.629,237.617Z" transform="translate(-76.225 -230.352)" fill="#bb5d4c"/>
        </g>
        <g id="Grupo_1189726" data-name="Grupo 1189726" transform="translate(0 28.379)">
          <path id="Trazado_879350" data-name="Trazado 879350" d="M55.826,435.8a1.031,1.031,0,0,0,.005-.1v-2.005a1.008,1.008,0,0,0-1.008-1.008H41.2a1.008,1.008,0,0,0-1.008,1.008V435.7a1.03,1.03,0,0,0,.005.1Z" transform="translate(-38.419 -432.685)" fill="#ca6e59"/>
          <path id="Trazado_879351" data-name="Trazado 879351" d="M43.608,435.8a1.03,1.03,0,0,1-.005-.1v-2.005a1.008,1.008,0,0,1,1.008-1.008H41.2a1.008,1.008,0,0,0-1.008,1.008V435.7a1.031,1.031,0,0,0,.005.1Z" transform="translate(-38.419 -432.685)" fill="#bb5d4c"/>
          <g id="Grupo_1189724" data-name="Grupo 1189724" transform="translate(0 3.016)">
            <path id="Trazado_879352" data-name="Trazado 879352" d="M41.766,466.83H23.082a.5.5,0,0,1-.5-.5v-2.711a1.008,1.008,0,0,1,1.008-1.008H40.758a1.008,1.008,0,0,1,1.008,1.008Z" transform="translate(-22.578 -462.608)" fill="#883f2e"/>
          </g>
          <g id="Grupo_1189725" data-name="Grupo 1189725" transform="translate(0 3.016)">
            <path id="Trazado_879353" data-name="Trazado 879353" d="M25.947,466.327v-2.711a1.008,1.008,0,0,1,1.008-1.008H23.586a1.008,1.008,0,0,0-1.008,1.008v2.711a.5.5,0,0,0,.5.5h3.369A.5.5,0,0,1,25.947,466.327Z" transform="translate(-22.578 -462.608)" fill="#6d3326"/>
          </g>
        </g>
        <g id="Grupo_1189731" data-name="Grupo 1189731" transform="translate(3.964)">
          <g id="Grupo_1189727" data-name="Grupo 1189727" transform="translate(0 19.303)">
            <path id="Trazado_879354" data-name="Trazado 879354" d="M73.165,345.1a2.47,2.47,0,0,1-2.47,2.47H64.375a2.47,2.47,0,1,1,0-4.94h6.319A2.47,2.47,0,0,1,73.165,345.1Z" transform="translate(-61.905 -342.633)" fill="#ca6e59"/>
          </g>
          <g id="Grupo_1189728" data-name="Grupo 1189728" transform="translate(0 19.303)">
            <path id="Trazado_879355" data-name="Trazado 879355" d="M65.27,345.1a2.47,2.47,0,0,1,2.47-2.47H64.375a2.47,2.47,0,1,0,0,4.94H67.74A2.47,2.47,0,0,1,65.27,345.1Z" transform="translate(-61.905 -342.633)" fill="#bb5d4c"/>
          </g>
          <g id="Grupo_1189729" data-name="Grupo 1189729" transform="translate(0)">
            <path id="Trazado_879356" data-name="Trazado 879356" d="M73.165,153.6a2.47,2.47,0,0,1-2.47,2.47H64.375a2.47,2.47,0,0,1,0-4.941h6.319A2.47,2.47,0,0,1,73.165,153.6Z" transform="translate(-61.905 -151.128)" fill="#ca6e59"/>
          </g>
          <g id="Grupo_1189730" data-name="Grupo 1189730">
            <path id="Trazado_879357" data-name="Trazado 879357" d="M65.27,153.6a2.47,2.47,0,0,1,2.47-2.47H64.375a2.47,2.47,0,0,0,0,4.941H67.74A2.47,2.47,0,0,1,65.27,153.6Z" transform="translate(-61.905 -151.128)" fill="#bb5d4c"/>
          </g>
        </g>
      </g>
      <g id="Grupo_1189735" data-name="Grupo 1189735" transform="translate(34.762 5.454)">
        <g id="Grupo_1189733" data-name="Grupo 1189733">
          <circle id="Elipse_11604" data-name="Elipse 11604" cx="7.073" cy="7.073" r="7.073" fill="#4fc123"/>
        </g>
        <g id="Grupo_1189734" data-name="Grupo 1189734" transform="translate(0)">
          <path id="Trazado_879358" data-name="Trazado 879358" d="M213.762,61.18a7.074,7.074,0,0,1,5.378-6.867,7.073,7.073,0,1,0,0,13.734A7.075,7.075,0,0,1,213.762,61.18Z" transform="translate(-210.372 -54.107)" fill="#47a920"/>
        </g>
      </g>
      <g id="Grupo_1189736" data-name="Grupo 1189736" transform="translate(15.078 0)">
        <path id="Trazado_879359" data-name="Trazado 879359" d="M60.361,24.071H59.144V10.987a.756.756,0,0,0-.779-.756.777.777,0,0,0-.733.787V24.071H52.565a.756.756,0,1,0,0,1.512h7.8a1.772,1.772,0,1,1,0,3.544H44.917V25.582h4.121a.756.756,0,1,0,0-1.512h-4.3a1.332,1.332,0,0,0-1.221.8H38.166a1.261,1.261,0,0,0-1.173-.8H34.784a1.261,1.261,0,0,0-1.173.8H30.37v-.649a1.763,1.763,0,0,0-.855-1.509V20.792a3.226,3.226,0,0,0-.928-6.316H26.038V1.512H57.632V7.459a.756.756,0,0,0,.779.756.777.777,0,0,0,.733-.787V1.26A1.26,1.26,0,0,0,57.884,0h-32.1a1.26,1.26,0,0,0-1.26,1.26V14.477H22.268a3.226,3.226,0,0,0-.928,6.316v1.925a1.763,1.763,0,0,0-.855,1.509v6.257a1.763,1.763,0,0,0,.855,1.509v1.925a3.226,3.226,0,0,0,.928,6.316h2.258v2.624H18.618a1.766,1.766,0,0,0-1.764,1.764v1.252h-.012a1.766,1.766,0,0,0-1.764,1.764v2.711a1.261,1.261,0,0,0,1.26,1.26H57.884a1.26,1.26,0,0,0,1.26-1.26V30.638h1.217a3.284,3.284,0,0,0,0-6.567ZM38.253,26.387H43.4v1.935H38.253Zm-3.217-.8h1.705v3.544H35.036Zm-4.666.8h3.154v1.935H30.37ZM20.554,17.7a1.716,1.716,0,0,1,1.714-1.714h6.319a1.714,1.714,0,0,1,0,3.429H22.268A1.716,1.716,0,0,1,20.554,17.7Zm1.7,13.032A.252.252,0,0,1,22,30.483V24.226a.252.252,0,0,1,.252-.252h6.357a.252.252,0,0,1,.252.252v6.257a.252.252,0,0,1-.252.252ZM28,32.246v1.533H22.852V32.246Zm-5.152-9.784V20.929H28v1.533ZM22.268,38.72a1.714,1.714,0,1,1,0-3.429h6.319a1.714,1.714,0,1,1,0,3.429Zm12,11.375H16.59V47.636a.252.252,0,0,1,.252-.252h4.679a.756.756,0,1,0,0-1.512H18.366V44.62a.252.252,0,0,1,.252-.252h13.62a.252.252,0,0,1,.252.252v1.252H25.049a.756.756,0,1,0,0,1.512h8.965a.252.252,0,0,1,.252.252Zm23.367,0H35.778V47.636a1.766,1.766,0,0,0-1.764-1.764H34V44.62a1.766,1.766,0,0,0-1.764-1.764h-6.2V40.232h2.549a3.226,3.226,0,0,0,.928-6.316V31.991a1.763,1.763,0,0,0,.855-1.509v-.649h3.24a1.261,1.261,0,0,0,1.173.8h2.209a1.261,1.261,0,0,0,1.173-.8h5.348a1.332,1.332,0,0,0,1.221.8h12.9V50.094Z" transform="translate(-15.078 0)"/>
        <path id="Trazado_879360" data-name="Trazado 879360" d="M202.872,54.436a7.829,7.829,0,1,0,7.829-7.829A7.837,7.837,0,0,0,202.872,54.436Zm14.145,0a6.317,6.317,0,1,1-6.317-6.317A6.324,6.324,0,0,1,217.017,54.436Z" transform="translate(-183.944 -41.909)"/>
        <path id="Trazado_879361" data-name="Trazado 879361" d="M247.634,102.66a.756.756,0,0,0-1.069,1.069l2.325,2.325a.756.756,0,0,0,1.069,0l3.6-3.6a.756.756,0,0,0-1.069-1.069l-3.07,3.07Z" transform="translate(-223.033 -90.963)"/>
        <path id="Trazado_879362" data-name="Trazado 879362" d="M243.681,327.825a.756.756,0,0,0,.756.756h13.9a.756.756,0,0,0,0-1.512h-13.9A.756.756,0,0,0,243.681,327.825Z" transform="translate(-220.639 -294.102)"/>
        <path id="Trazado_879363" data-name="Trazado 879363" d="M318.423,363.546h-7.167a.756.756,0,1,0,0,1.512h7.167a.756.756,0,0,0,0-1.512Z" transform="translate(-280.723 -326.903)"/>
        <path id="Trazado_879364" data-name="Trazado 879364" d="M244.437,365.058h4.114a.756.756,0,0,0,0-1.512h-4.114a.756.756,0,0,0,0,1.512Z" transform="translate(-220.639 -326.903)"/>
        <path id="Trazado_879365" data-name="Trazado 879365" d="M258.338,400.023h-13.9a.756.756,0,0,0,0,1.512h13.9a.756.756,0,1,0,0-1.512Z" transform="translate(-220.638 -359.703)"/>
        <path id="Trazado_879366" data-name="Trazado 879366" d="M349.9,436.5h-3.64a.756.756,0,0,0,0,1.512h3.64a.756.756,0,0,0,0-1.512Z" transform="translate(-312.196 -392.504)"/>
        <path id="Trazado_879367" data-name="Trazado 879367" d="M252.381,436.5h-7.944a.756.756,0,1,0,0,1.512h7.944a.756.756,0,1,0,0-1.512Z" transform="translate(-220.639 -392.504)"/>
      </g>
    </g>
  </g>
</svg>
