<svg id="Grupo_1188797" data-name="Grupo 1188797" xmlns="http://www.w3.org/2000/svg" width="87.436" height="87.434" viewBox="0 0 87.436 87.434">
  <g id="Grupo_1188789" data-name="Grupo 1188789" transform="translate(0)">
    <rect id="Rectángulo_400898" data-name="Rectángulo 400898" width="72.383" height="72.381" rx="36.191" transform="translate(7.696 8)" fill="#ffd907"/>
    <rect id="Rectángulo_400907" data-name="Rectángulo 400907" width="78.383" height="78.381" rx="39.191" transform="translate(4.525 4.526)" fill="none"/>
    <g id="Grupo_1098742" data-name="Grupo 1098742" transform="translate(0)">
      <g id="Rectángulo_400898-2" data-name="Rectángulo 400898" transform="translate(0)" fill="none" stroke="#fff" stroke-width="2" opacity="0.859">
        <rect width="87.435" height="87.434" rx="43.717" stroke="none"/>
        <rect x="1" y="1" width="85.435" height="85.434" rx="42.717" fill="none"/>
      </g>
      <g id="Rectángulo_400907-2" data-name="Rectángulo 400907" transform="translate(0)" fill="none" stroke="#0f1f33" stroke-linecap="round" stroke-width="2">
        <rect width="87.435" height="87.434" rx="43.717" stroke="none"/>
        <rect x="1" y="1" width="85.435" height="85.434" rx="42.717" fill="none"/>
      </g>
    </g>
    <g id="Page-1" transform="translate(17.88 21)">
      <g id="_029---Pet-Health" data-name="029---Pet-Health">
        <g id="Icons" transform="translate(0.853 0.853)">
          <path id="Shape" d="M36.97,16.462a26.7,26.7,0,0,0,5.76,16.17c2.219-5.308,5.41-10.436,6.989-12.006a8.828,8.828,0,0,1,3.729-2.466.841.841,0,0,0,.623-.7l.435-3.046c-1.289-.589-2.227-1.843-2.227-4.028a13.776,13.776,0,0,1,2.637-8.414A16.246,16.246,0,0,0,49.343,1C42.022,1,36.97,8.185,36.97,16.462Z" transform="translate(-36.97 -0.147)" fill="#ef314c"/>
          <path id="Shape-2" data-name="Shape" d="M54.155,1c.5,0,.991.026,1.466.067C48.9,1.745,44.342,8.606,44.342,16.462a26.162,26.162,0,0,0,4.2,13.919c-.349.741-.688,1.493-1,2.252a26.7,26.7,0,0,1-5.76-16.17C41.782,8.185,46.834,1,54.155,1Z" transform="translate(-41.782 -0.147)" fill="#bb193b"/>
          <path id="Shape-3" data-name="Shape" d="M0,35.986v8.8C15.59,39.1,23.04,27.265,23.04,16.462,23.04,8.185,17.988,1,10.667,1a16.3,16.3,0,0,0-6.9,1.519,3.514,3.514,0,0,1,.273.35l2.005,3A3.435,3.435,0,0,0,8.055,7.3l2.185.546L13,8.526a.846.846,0,0,1,.64.794,9.656,9.656,0,0,1-.119,1.92,6.144,6.144,0,0,1-4.19,5.12A24.425,24.425,0,0,0,1.621,17.7a.832.832,0,0,0-.461,1.126,18.759,18.759,0,0,1,2.253,8.627A13.056,13.056,0,0,1,0,35.986Z" transform="translate(26.453 -0.147)" fill="#ef314c"/>
          <path id="Shape-4" data-name="Shape" d="M11.415,27.453a18.759,18.759,0,0,0-2.253-8.627A.832.832,0,0,1,9.623,17.7a24.425,24.425,0,0,1,7.714-1.34,6.144,6.144,0,0,0,4.19-5.12,9.656,9.656,0,0,0,.119-1.92.846.846,0,0,0-.64-.794l-2.765-.683L16.057,7.3a3.435,3.435,0,0,1-2.014-1.425l-2.005-3a3.514,3.514,0,0,0-.273-.35A16.3,16.3,0,0,1,18.669,1a10.729,10.729,0,0,1,1.12.069A16.3,16.3,0,0,0,14.327,2.52a3.514,3.514,0,0,1,.273.35l2.005,3A3.435,3.435,0,0,0,18.619,7.3l2.183.545,2.765.683a.846.846,0,0,1,.64.794,9.656,9.656,0,0,1-.119,1.92,6.144,6.144,0,0,1-4.19,5.12,24.425,24.425,0,0,0-7.714,1.34.832.832,0,0,0-.461,1.126,18.759,18.759,0,0,1,2.253,8.627,13.056,13.056,0,0,1-3.413,8.533v7.765c-.83.359-1.678.707-2.56,1.028V35.986A13.056,13.056,0,0,0,11.415,27.453Z" transform="translate(18.451 -0.147)" fill="#bb193b"/>
          <path id="Shape-5" data-name="Shape" d="M11.15,32.486A36.476,36.476,0,0,0,25.409,43.408a46.547,46.547,0,0,0,4.727,1.818c.58-.188,1.152-.384,1.707-.589v-8.8a13.056,13.056,0,0,0,3.413-8.533A18.759,18.759,0,0,0,33,18.679a.832.832,0,0,1,.461-1.126,24.425,24.425,0,0,1,7.714-1.34,6.144,6.144,0,0,0,4.19-5.12H42.936a.853.853,0,0,1-.853-.853V7.7L39.9,7.151a3.435,3.435,0,0,1-2.014-1.425l-2.005-3a3.513,3.513,0,0,0-.273-.35A3.356,3.356,0,0,0,34,1.34,30.037,30.037,0,0,0,26.672,0a4.408,4.408,0,0,0-3.337,1.826A13.776,13.776,0,0,0,20.7,10.24c0,2.184.939,3.439,2.227,4.028l-.435,3.046a.841.841,0,0,1-.623.7,8.828,8.828,0,0,0-3.729,2.466c-1.579,1.57-4.77,6.7-6.989,12.006Z" transform="translate(-5.39 0)" fill="sienna"/>
          <path id="Shape-6" data-name="Shape" d="M34.469,20.48A8.828,8.828,0,0,1,38.2,18.014a.841.841,0,0,0,.623-.7l.435-3.046c-1.289-.589-2.227-1.843-2.227-4.028a13.776,13.776,0,0,1,2.637-8.414A4.408,4.408,0,0,1,43,0a14.694,14.694,0,0,1,1.69.115,4.9,4.9,0,0,0-2.467,1.711,13.776,13.776,0,0,0-2.637,8.414c0,2.184.939,3.439,2.227,4.028l-.435,3.046a.841.841,0,0,1-.623.7,8.828,8.828,0,0,0-3.729,2.466c-1.579,1.57-4.77,6.7-6.989,12.006A36.476,36.476,0,0,0,44.3,43.408c1.1.492,2.266.944,3.465,1.37-.427.152-.853.3-1.3.447a46.546,46.546,0,0,1-4.727-1.818A36.476,36.476,0,0,1,27.48,32.486C29.7,27.178,32.89,22.05,34.469,20.48Z" transform="translate(-21.72 0)" fill="#783e22"/>
          <path id="Shape-7" data-name="Shape" d="M11,9.02v2.543a.853.853,0,0,0,.853.853h2.432a9.656,9.656,0,0,0,.119-1.92.846.846,0,0,0-.64-.794Z" transform="translate(25.691 -1.323)" fill="#37474f"/>
        </g>
        <g id="Layer_2">
          <path id="Shape-8" data-name="Shape" d="M13.227.853a17.134,17.134,0,0,1,5.305.848,5,5,0,0,1,3.6-1.7A30.765,30.765,0,0,1,29.7,1.373a4.237,4.237,0,0,1,1.558.841A17.152,17.152,0,0,1,37.973.853C45.389.853,51.2,8.021,51.2,17.169c0,9.6-6.21,22.776-23.542,29.1-.016.008-.033.013-.049.019q-.853.312-1.746.6a.863.863,0,0,1-.263.044.843.843,0,0,1-.264-.042,49.05,49.05,0,0,1-4.743-1.814c-.021-.008-.044,0-.065-.014s-.035-.027-.055-.038C5.472,38.314,0,26.17,0,17.169,0,8.021,5.81.853,13.227.853ZM49.493,17.169c0-8.192-5.06-14.609-11.52-14.609a15.433,15.433,0,0,0-5.578,1.054L34.06,6.108a2.576,2.576,0,0,0,1.509,1.068l4.955,1.23A1.7,1.7,0,0,1,41.8,9.995c.055,1.451-.139,6.293-4.891,7.88a.853.853,0,0,1-.271.044,24.013,24.013,0,0,0-7.4,1.258l.208.449a18.792,18.792,0,0,1,2.121,8.533,13.855,13.855,0,0,1-3.413,8.868v7.223c15.674-6.168,21.333-18.238,21.333-27.082Zm-9.387-7.107L38.4,9.635v1.458h1.679A8.91,8.91,0,0,0,40.106,10.061ZM20.347,43.085a6.015,6.015,0,0,0,.133-1.272,6.736,6.736,0,0,0-2.58-5.443A5.165,5.165,0,0,0,13.07,35.8a.854.854,0,1,1-.539-1.621,6.889,6.889,0,0,1,6.368.812,8.464,8.464,0,0,1,3.289,6.827,7.489,7.489,0,0,1-.256,1.979c1.167.5,2.389.964,3.674,1.39.29-.1.568-.2.853-.3V36.693a.853.853,0,0,1,.248-.6,12.3,12.3,0,0,0,3.161-7.931A17.066,17.066,0,0,0,27.9,20.347L27.7,19.9a1.678,1.678,0,0,1-.043-1.326,1.713,1.713,0,0,1,.958-.957,24.8,24.8,0,0,1,7.884-1.4A5.113,5.113,0,0,0,39.749,12.8H38.4a1.707,1.707,0,0,1-1.707-1.707V9.216l-1.544-.383a4.286,4.286,0,0,1-2.511-1.777L30.644,4.069a2.578,2.578,0,0,0-.221-.283,2.516,2.516,0,0,0-1.195-.768,29.921,29.921,0,0,0-7.093-1.311,3.669,3.669,0,0,0-2.679,1.517,13.041,13.041,0,0,0-2.441,7.869,3.214,3.214,0,0,0,1.731,3.253,4.992,4.992,0,0,0,3.755-.079.853.853,0,0,0,.538-.794V7.68a.853.853,0,0,1,1.707,0v5.794a2.576,2.576,0,0,1-1.615,2.381,7.061,7.061,0,0,1-4.04.387L18.8,18.29a1.692,1.692,0,0,1-1.243,1.4,8,8,0,0,0-3.35,2.248C12.879,23.252,9.9,27.852,7.6,33.2a34.928,34.928,0,0,0,12.744,9.883ZM6.437,31.617c2.211-4.908,5.035-9.36,6.564-10.884a9.557,9.557,0,0,1,4.11-2.684l.352-2.465a5.035,5.035,0,0,1-2.155-4.491,15.438,15.438,0,0,1,2.119-7.951,15.483,15.483,0,0,0-4.2-.582c-6.46,0-11.52,6.417-11.52,14.609A25.972,25.972,0,0,0,6.435,31.614Z"/>
        </g>
      </g>
    </g>
  </g>
</svg>
