<svg xmlns="http://www.w3.org/2000/svg" xmlns:xlink="http://www.w3.org/1999/xlink" width="189.949" height="235" viewBox="0 0 189.949 235">
  <defs>
    <clipPath id="clip-path">
      <rect id="Rectángulo_402641" data-name="Rectángulo 402641" width="149.573" height="96.757" fill="none"/>
    </clipPath>
    <clipPath id="clip-path-2">
      <rect id="Rectángulo_402645" data-name="Rectángulo 402645" width="64.638" height="71.139" fill="#361969"/>
    </clipPath>
    <clipPath id="clip-path-3">
      <rect id="Rectángulo_402646" data-name="Rectángulo 402646" width="37.318" height="37.311" fill="none"/>
    </clipPath>
  </defs>
  <g id="Grupo_1189796" data-name="Grupo 1189796" transform="translate(-179.921 -4832)">
    <rect id="Rectángulo_403012" data-name="Rectángulo 403012" width="189.949" height="235" rx="10" transform="translate(179.921 4832)" fill="#ffd907"/>
    <g id="Grupo_1189794" data-name="Grupo 1189794" transform="translate(214.685 4970.243)">
      <g id="Grupo_1188598" data-name="Grupo 1188598" transform="translate(0 0)" clip-path="url(#clip-path)">
        <path id="Trazado_875964" data-name="Trazado 875964" d="M.148,33.717A28.041,28.041,0,0,0,2.5,42.288c1.8,14.648,11.8,28.113,24.858,34.835a52.1,52.1,0,0,0,22.983,5.615c8.7.2,17.669-1.825,26.217.447,16.495,4.385,31.237,13.491,48.344,5.273,14.4-6.919,23.39-24.6,22.705-40.269-.406-9.291-4.81-19.036-14.12-22.327a22.672,22.672,0,0,0-13.875-.311,36.562,36.562,0,0,0-4.671,1.548,20.361,20.361,0,0,0-.469-5.537,29.1,29.1,0,0,0-5.887-10.977A30.239,30.239,0,0,0,84.3.031,31.613,31.613,0,0,0,71.9,3.19C63.277,2.436,54.65,1.675,46.017,1.032c-11.1-.827-22.858-.393-32.43,6C4.637,13-1,22.85.148,33.717" transform="translate(1.924 4.983)" fill="#dff0f2"/>
        <path id="Trazado_875965" data-name="Trazado 875965" d="M13.092,69.283c9.12,7.994,21.787,14.073,34.124,12.693C54.139,81.2,60.747,78.729,67.793,79c8.21.319,16.019,3.471,23.748,5.944,11.134,3.56,22.312,5.579,33.43.875A40.673,40.673,0,0,0,146.7,63.889c4.276-10.671,3.535-25.547-6.271-33.078-7.392-5.677-18.247-4.722-23.631,2.96a.537.537,0,0,0-.03-.244,1.512,1.512,0,0,0,.468-.557c5.367-10.622,1.816-24.746-8.96-30.555-10.49-5.655-23.84-.849-29.793,8.922C72.028,3.6,60.064,2.292,50.531,1.968c-12.65-.429-25.89,2.487-35.93,10.54C-4.2,27.589-5,53.421,13.092,69.283m126.423,1.2a37.366,37.366,0,0,1-22.47,14.6c8.529-6.057,16.96-12.387,25.153-18.931a35.569,35.569,0,0,1-2.683,4.334m3.6-6.21c-9.4,6.529-18.651,13.415-27.613,20.5a.48.48,0,0,0-.127.6c-.512.074-1.025.145-1.54.193a34.344,34.344,0,0,1-6.065.01c13-9.214,25.837-18.805,37.861-29.278a34,34,0,0,1-2.517,7.979m2.727-9.257C132.638,65.347,119.49,75.7,105.77,85.354a52.628,52.628,0,0,1-5.2-.975c.017-.01.034-.01.051-.022,15.55-10.745,30.944-22.545,45.472-34.674a29.579,29.579,0,0,1-.25,5.331m-3.23-16.907a18.047,18.047,0,0,1,1.965,3.764c-16.694,13.1-33.351,26.169-50.408,38.8-.83.614-.036,2.021.82,1.405,17.156-12.311,34.023-25.315,49.923-39.221a26.418,26.418,0,0,1,1.124,5.8c-15.784,10.766-31.506,22.5-46.228,34.658a.608.608,0,0,0-.039.876c-3.826-.951-7.6-2.225-11.333-3.463a374.621,374.621,0,0,0,54.175-42.611m-.577-.8c-17.981,14.514-36.076,28.539-54.682,42.25a.8.8,0,0,0-.329.706c-.894-.294-1.789-.59-2.676-.87-.635-.2-1.269-.39-1.9-.577,18.544-15.254,38.2-29.193,56.431-44.833a20.5,20.5,0,0,1,3.159,3.323M138.2,33.43c-9.683,7-19,14.537-28.4,21.9q-7.452,5.842-14.9,11.683c-4.513,3.538-9.97,6.856-13.885,11.049a.823.823,0,0,0-.178.285,67.23,67.23,0,0,0-8.1-1.748c19.741-15.359,39.738-30.491,59.018-46.431A18.612,18.612,0,0,1,138.2,33.43m-20.544,1.6a12.613,12.613,0,0,1,12.953-5.113C110.4,44.741,90.79,60.45,71.015,75.845a.666.666,0,0,0-.283.518,42.552,42.552,0,0,0-10.28.113C79.046,62.219,97.642,48.1,116.5,34.179c-.029.043-.062.08-.089.123-.511.8.7,1.441,1.239.725m-3.133-3.643a1.64,1.64,0,0,0,.986,2.289A457.479,457.479,0,0,0,57.275,76.979c-.009.008-.01.018-.018.025-4.087.82-8.138,1.9-12.289,2.168,24.35-17.9,48.764-36.15,71.542-56.042a19.588,19.588,0,0,1-1.988,8.252m1.986-9.619c-24.274,18.821-48.094,38.141-72.884,56.3a.9.9,0,0,0-.246,1.167c-.57.005-1.141,0-1.716-.034a32.924,32.924,0,0,1-7.914-1.539c27.593-20.441,55-41.637,80.243-64.953a20.61,20.61,0,0,1,2.517,9.053m-10.5-16.7a17.308,17.308,0,0,1,3.006,1.847C80.891,28.09,53.494,50.243,25.394,71.466c-.874.658-.019,2.154.87,1.487,28.223-21.2,56.7-42.466,83.542-65.4a18.454,18.454,0,0,1,3.813,4.5C86.783,33.882,60.265,55.95,32.436,76.54a.859.859,0,0,0-.347.568,54.236,54.236,0,0,1-7.98-3.694A47.65,47.65,0,0,1,16.7,68.288C45.784,48.377,74.207,26.98,100.508,3.479a17.383,17.383,0,0,1,5.5,1.588m-28.77,10.3a1.7,1.7,0,0,0,2.916,0A20.473,20.473,0,0,1,99.192,3.389c-27.26,22.2-54.834,43.778-83.77,63.786a42.762,42.762,0,0,1-5.271-5.728A592.493,592.493,0,0,0,75.013,12.543a15.085,15.085,0,0,1,2.228,2.819m-3-3.589C52.848,28.4,31.345,44.549,9.212,60.165a37.164,37.164,0,0,1-2.761-4.626.743.743,0,0,0,.6-.168c19.77-16.209,39.6-32.136,59.85-47.753a22.137,22.137,0,0,1,7.337,4.155M34.154,6.8C24.63,14.2,15.24,21.876,6.133,29.751c-.837.725.363,1.861,1.2,1.2C17.349,23.014,27.215,14.733,36.776,6.24a56.739,56.739,0,0,1,6.148-.828c6.46-.5,15.436-.533,22.881,1.833a600.847,600.847,0,0,0-59.8,47.083.683.683,0,0,0-.082.109A32.649,32.649,0,0,1,3.446,46.72c8.25-6.891,16.409-13.852,24.892-20.462,8.613-6.711,18.151-12.576,26.377-19.73.394-.342-.108-.927-.538-.7-9.9,5.256-19,12.972-27.842,19.833C18.43,31.8,10.594,38.128,3.153,44.834c-.885-7.267.875-14.924,6.12-22.187C15.32,14.275,24.349,9.165,34.154,6.8" transform="translate(0 0)" fill="#1d1d1b"/>
      </g>
    </g>
    <g id="Grupo_1189795" data-name="Grupo 1189795" transform="translate(289.472 4846.979)">
      <g id="Grupo_1188607" data-name="Grupo 1188607" transform="translate(0 7.486)">
        <g id="Grupo_1188606" data-name="Grupo 1188606" clip-path="url(#clip-path-2)">
          <path id="Trazado_875973" data-name="Trazado 875973" d="M37.464,59.474a23.231,23.231,0,0,1-5.219.095c-.087,1.473-.154,2.947-.183,4.421-.046,2.324-3.886,3.07-4.242.574-.235-1.644-.56-3.655-.727-5.733-2.2-.416-4.354-.913-6.361-1.318-1.982-.4-1.291-3.1.444-3.278,1.892-.2,3.936-.48,6.013-.692a8.813,8.813,0,0,1,2.19-4.949,1.616,1.616,0,0,1,2.517.325,8.444,8.444,0,0,1,.789,4.331,21.378,21.378,0,0,1,4.779.544c2.656.65,2.955,5.249,0,5.679" transform="translate(-1.355 -39.774)" fill="#361969"/>
          <path id="Trazado_875974" data-name="Trazado 875974" d="M63.25,71.089c-2.144-.332-4.255-.7-6.367-1.018-.071,1.1-.136,2.207-.227,3.308-.171,2.042-3.273,2.772-3.792.514a33.612,33.612,0,0,1-.706-4.434c-1.213-.12-2.434-.208-3.672-.246-2.655-.083-2.558-3.8,0-4.057,1.217-.122,2.449-.222,3.687-.3a13.536,13.536,0,0,1,.946-3.894c1.061-2.46,4.394-.9,4.572,1.239a10.757,10.757,0,0,1-.152,2.551,40.432,40.432,0,0,1,7.242.784c3.682.769,2.054,6.108-1.531,5.552" transform="translate(-3.229 -59.71)" fill="#361969"/>
          <path id="Trazado_875975" data-name="Trazado 875975" d="M66.154,35.857a17.3,17.3,0,0,1-6.657.279c-.232,1.746-.323,3.5-.52,5.255-.186,1.656-2.719,2.34-3.149.426a28.787,28.787,0,0,1-.65-6.275,10.956,10.956,0,0,1-5.159-2.055,1.549,1.549,0,0,1,.678-2.57,14.977,14.977,0,0,1,4.993-.2,13.676,13.676,0,0,1,.965-2.89c.98-2.032,4.408-1.065,4.268,1.156a12.449,12.449,0,0,1-.239,1.694,26.6,26.6,0,0,1,4.757-.092c2.872.3,3.805,4.385.713,5.27" transform="translate(-3.438 3.301)" fill="#361969"/>
          <path id="Trazado_875976" data-name="Trazado 875976" d="M38.282,28.746c-.633.065-1.287.11-1.949.145a43.91,43.91,0,0,0-.661,5.251c-.2,3-4.685,3.064-4.711,0a50.083,50.083,0,0,1,.229-5.262,46.433,46.433,0,0,1-5.171-.556c-1.866-.315-1.686-3.161,0-3.6a45.133,45.133,0,0,1,5.923-1.079,6.6,6.6,0,0,1,1.521-2.993,2.4,2.4,0,0,1,3.991,1.054,6.247,6.247,0,0,1,.092,1.6c.245,0,.5,0,.735,0,3.562.067,3.414,5.078,0,5.431" transform="translate(-1.713 16.133)" fill="#361969"/>
          <path id="Trazado_875977" data-name="Trazado 875977" d="M51.7,11.457c-.221.024-.444.027-.665.041q-.061,1.445-.09,2.889c-.049,2.475-4.043,3.244-4.5.609-.2-1.159-.4-2.41-.557-3.7a17.775,17.775,0,0,1-5.283-.866c-1.588-.667-2.062-3.245,0-3.722a25.135,25.135,0,0,1,5.06-.3,13.662,13.662,0,0,1,1.143-5.156c.906-1.931,4.463-1.576,4.784.625a15.308,15.308,0,0,1-.12,4.212c.075,0,.152-.006.227,0,3.529.048,3.36,5,0,5.366" transform="translate(-2.722 54.497)" fill="#361969"/>
          <path id="Trazado_875978" data-name="Trazado 875978" d="M15.475,43.284c-1.418-.185-2.837-.312-4.255-.411-.244,1.071-.509,2.086-.735,2.971-.5,1.948-3.8,1.612-3.6-.487q.13-1.323.185-2.649c-1.747-.02-3.5.007-5.25.118-2.086.133-2.553-3.221-.5-3.663,1.873-.4,3.757-.712,5.646-.968a13.428,13.428,0,0,1-.006-4.022c.506-2.469,3.812-1.994,4.543,0a9.538,9.538,0,0,1,.469,3.5q1.744-.116,3.5-.148c3.8-.069,3.588,6.226,0,5.758" transform="translate(0 -6.237)" fill="#361969"/>
        </g>
      </g>
      <g id="Grupo_1188609" data-name="Grupo 1188609" transform="translate(5.687 0)">
        <g id="Grupo_1188608" data-name="Grupo 1188608" clip-path="url(#clip-path-3)">
          <path id="Trazado_875979" data-name="Trazado 875979" d="M27.424,18.743c-2.757,6.655-8.389,13.874-14.98,17.084C6.323,38.808,1.746,34.231.8,28.409c-.072-.165-.137-.326-.187-.479C-1.514,21.335,2.246,14.322,6.678,9.594,10.914,5.072,17.47,1.06,23.7,4.02c5.783,2.746,5.88,9.506,3.721,14.722" transform="translate(0 -3.005)" fill="#f09c26"/>
          <path id="Trazado_875980" data-name="Trazado 875980" d="M35.567,22.935c-3.618,9.574-13.805,13.8-23.44,12.115a1.038,1.038,0,0,1-.678-.4C3.7,34.057,1.972,20.6,3.756,14.948,6.475,6.343,16.405-2.085,25.9.462c9.534,2.559,12.878,13.979,9.667,22.473M26.7,3.415C19.1.349,10.659,6.1,7.122,12.794a16.763,16.763,0,0,0-1.8,11.18c.65,3.154,2.659,8.07,6.141,9.265a1.3,1.3,0,0,1,1.334-.6c7.134,1.157,15.076-1.222,19.02-7.659,4.247-6.93,3.312-18.163-5.112-21.56" transform="translate(0.565 1.898)" fill="#1d1d1b"/>
        </g>
      </g>
    </g>
    <g id="Grupo_1189792" data-name="Grupo 1189792" transform="translate(195.21 4875.214)">
      <g id="Grupo_1189790" data-name="Grupo 1189790" transform="translate(2.231 1.757)">
        <path id="Trazado_879449" data-name="Trazado 879449" d="M91.166,65.224c-.765,2.024-1.764,4.46-2.718,6.719C65.531,62.353,54,35.8,62.893,9.942A3.626,3.626,0,1,1,69.75,12.3C62.514,33.338,71.058,56.9,91.166,65.224Z" transform="translate(-47.711 -7.495)" fill="#6dc847"/>
        <path id="Trazado_879450" data-name="Trazado 879450" d="M308.63,370.1v27.02a4.51,4.51,0,0,0,4.51,4.51h10.4a4.51,4.51,0,0,0,4.51-4.51v-.787a3.532,3.532,0,0,0-3.532-3.532,3.531,3.531,0,0,1-3.532-3.532V369.99Z" transform="translate(-238.12 -284.98)" fill="#d97c41"/>
        <path id="Trazado_879451" data-name="Trazado 879451" d="M120.394,370.1v27.02a4.51,4.51,0,0,0,4.51,4.51h10.4a4.51,4.51,0,0,0,4.51-4.51v-.787a3.532,3.532,0,0,0-3.532-3.532,3.531,3.531,0,0,1-3.532-3.532V369.99Z" transform="translate(-94.028 -284.98)" fill="#c76d33"/>
        <path id="Trazado_879452" data-name="Trazado 879452" d="M32.748,256.069l-5.621,8.208-.007,0c-6.667-2.874-14.416-9.819-18.733-17.6a3.124,3.124,0,0,1,5.1-3.572C18.659,249.316,24.6,254.725,32.748,256.069Z" transform="translate(-7.965 -186.997)" fill="#c76d33"/>
        <path id="Trazado_879453" data-name="Trazado 879453" d="M211.513,240.907V260.6c0,8.629-5.226,17.387-13.855,17.387a5.568,5.568,0,0,0-5.567,5.567v6.792a3.563,3.563,0,0,0,3.574,3.532,3.534,3.534,0,0,1,3.487,3.532v.607a4.689,4.689,0,0,1-4.69,4.69H184.42a4.689,4.689,0,0,1-4.69-4.69V282.146a4.159,4.159,0,0,0-4.158-4.158h-9.235s-21.768-12.661-.91-30.219h13.468l7.9-6.609Z" transform="translate(-121.58 -186.169)" fill="#e4996d"/>
        <path id="Trazado_879454" data-name="Trazado 879454" d="M80.045,304.544v8.2a3.531,3.531,0,0,0,3.532,3.532,3.532,3.532,0,0,1,3.532,3.532v.607a4.691,4.691,0,0,1-4.69,4.69H72.374a4.691,4.691,0,0,1-4.69-4.69V287.162a17.061,17.061,0,0,1,17.429-17H97.526c-3.476,6.06-7.059,17.035.91,30.219H84.2A4.159,4.159,0,0,0,80.045,304.544Z" transform="translate(-53.679 -208.567)" fill="#d97c41"/>
        <path id="Trazado_879455" data-name="Trazado 879455" d="M288.677,262.135a52.535,52.535,0,0,1-30.192,0,3.594,3.594,0,0,1-2.562-3.443v-7.92h35.315v7.92A3.613,3.613,0,0,1,288.677,262.135Z" transform="translate(-197.773 -193.72)" fill="#9cda82"/>
        <path id="Trazado_879456" data-name="Trazado 879456" d="M258.943,30.087a25.559,25.559,0,0,0-5.631.617s-38.352,24,1.85,53.934C272.687,86.6,285.34,76,285.34,58.123c0-12.919-9.859-28.036-26.4-28.036Zm1.048,54.724c.983-.227,1.808-3.321,2.5-3.562C261.853,81.5,261.03,84.6,259.991,84.811Z" transform="translate(-183.137 -24.789)" fill="#e4996d"/>
        <path id="Trazado_879457" data-name="Trazado 879457" d="M242.233,86.742c-15.007-1.2-23.569-12.031-23.569-26.606a29.7,29.7,0,0,1,3.8-14.2,26.122,26.122,0,0,1,16.965-13.215C233.3,40.217,217.4,64.179,242.233,86.742Z" transform="translate(-169.252 -26.802)" fill="#d97c41"/>
        <path id="Trazado_879458" data-name="Trazado 879458" d="M405.176,165.274c-14.533-12.115.916-25.506,2.041-39.542a5.911,5.911,0,0,1,2.415-4.212c6.315.947,8.362,9.347,12.8,22.711,2.342,7.046,1.73,14.126-4.3,20.4A9.761,9.761,0,0,1,405.176,165.274Z" transform="translate(-307.283 -94.78)" fill="#d97c41"/>
        <path id="Trazado_879459" data-name="Trazado 879459" d="M163.606,164.629c-6.026-6.273-6.638-13.353-4.3-20.4,4.442-13.364,6.488-21.764,12.8-22.711a5.911,5.911,0,0,1,2.415,4.212c1.125,14.036,16.574,27.427,2.041,39.542A9.761,9.761,0,0,1,163.606,164.629Z" transform="translate(-122.846 -94.779)" fill="#c76d33"/>
        <path id="Trazado_879460" data-name="Trazado 879460" d="M290.26,190.542a3.385,3.385,0,0,0-2.512-.349c-13.283-2.514-12.221-14.889-12.221-14.889a29.1,29.1,0,0,1,5.9-6.848v0c5.326-4.344,11.543-4.352,18.245,4.095C311.277,187.315,299.282,195.72,290.26,190.542Z" transform="translate(-212.765 -128.51)" fill="#d97c41"/>
        <path id="Trazado_879461" data-name="Trazado 879461" d="M278.524,221.916a3.343,3.343,0,0,0-.865.347c-8.468,4.859-19.483-2.226-11.355-15.236A45.754,45.754,0,0,0,278.524,221.916Z" transform="translate(-203.541 -160.234)" fill="#c76d33"/>
        <path id="Trazado_879462" data-name="Trazado 879462" d="M308.63,207.875a5.639,5.639,0,0,0,5.3,5.3c5.088,0,8.8-8.829,0-8.829C311,204.343,308.63,205.437,308.63,207.875Z" transform="translate(-238.12 -158.179)" fill="#495560"/>
      </g>
      <g id="Grupo_1189791" data-name="Grupo 1189791" transform="translate(0.475 -0.001)">
        <path id="Trazado_879463" data-name="Trazado 879463" d="M119.052,50.654c-4.023-12.1-6.992-21.024-13.814-22.924a31.665,31.665,0,0,0-8.774-15.094,1.759,1.759,0,0,0-2.416,2.557A28.109,28.109,0,0,1,101.83,28.6a5.71,5.71,0,0,0-1.419,3.968c-.483,6.027-3.895,12.191-6.149,18.222-2.715-6.21-14.785-23.624-28.709-6.079a28.24,28.24,0,0,0-3.74,6.076c-2.258-6.04-5.665-12.194-6.148-18.22a5.718,5.718,0,0,0-1.418-3.97C58.511,11.867,74.866,4.838,87.9,10.976a1.759,1.759,0,1,0,1.5-3.183C74.319.692,55.638,8.909,50.84,27.727c-6.822,1.9-9.791,10.821-13.815,22.926-.136.41-.259.817-.375,1.223C25.1,41.889,20.065,24.2,25.933,7.136a5.385,5.385,0,1,0-10.183-3.5C8.532,24.618,14.319,48.361,31.674,61.7a19.749,19.749,0,0,0-11.224,4.952c-5.09-2.737-8.08-5.99-11.35-9.914a4.883,4.883,0,0,0-7.978,5.566,46.887,46.887,0,0,0,13.609,14.94,20.227,20.227,0,0,0-.254,3.107V91.867a1.759,1.759,0,0,0,3.518,0V80.353c0-8.745,7.128-15.236,15.67-15.236H36.8a21.828,21.828,0,0,0,4.924,7.709C45.982,77.259,53.951,78.1,60.19,70.5c2.916,2.91,17.573,5.149,30.215,2.207V76.19c0,7.682-4.524,15.628-12.1,15.628a7.334,7.334,0,0,0-7.326,7.326v6.792a5.351,5.351,0,0,0,5.305,5.29A1.787,1.787,0,0,1,78.044,113v.607a2.925,2.925,0,0,1-2.481,2.9c-.292.059-1.239.035-10.492.035a2.935,2.935,0,0,1-2.931-2.931V97.735a5.923,5.923,0,0,0-5.917-5.917H32.755a5.923,5.923,0,0,0-5.917,5.917v8.2a5.268,5.268,0,0,0,5.13,5.283c1.685.157,1.937,1,1.934,2.268v.119a2.935,2.935,0,0,1-2.931,2.931H20.926a2.935,2.935,0,0,1-2.931-2.931V98.974a1.759,1.759,0,0,0-3.518,0v14.633a6.456,6.456,0,0,0,6.449,6.449c22.528,0,.238.108,22.584.108a6.276,6.276,0,0,0,6.269-6.269v-.786a5.3,5.3,0,0,0-5.288-5.291,1.772,1.772,0,0,1-1.773-1.773V95.336H56.223a2.4,2.4,0,0,1,2.4,2.4v15.872a6.456,6.456,0,0,0,6.449,6.449c22.323.013.543.108,22.584.108a6.276,6.276,0,0,0,6.269-6.269v-.786a5.3,5.3,0,0,0-5.291-5.291,1.775,1.775,0,0,1-1.773-1.773V92.338c4.527-3.6,7.064-9.946,7.064-16.148V71.758a5.394,5.394,0,0,0,1.965-1.253c6.3,7.675,14.287,6.671,18.467,2.321,5.949-6.192,7.529-13.652,4.7-22.172ZM4.191,60.586l-.016-.028A1.365,1.365,0,0,1,6.4,58.994c3.6,4.322,6.577,7.431,11.632,10.341a19.492,19.492,0,0,0-2.3,4.292A43.168,43.168,0,0,1,4.191,60.586Zm40.3,50.751a1.774,1.774,0,0,1,1.771,1.773v.786a2.754,2.754,0,0,1-2.751,2.751l-6.858.008a6.409,6.409,0,0,0,.767-3.048V113.5c.008-3.611-2.108-5.5-5.126-5.779-1.391-.129-1.938-.886-1.938-1.781v-8.2a2.4,2.4,0,0,1,2.4-2.4H39.2v10.71a5.289,5.289,0,0,0,5.291,5.291Zm44.143,0a1.775,1.775,0,0,1,1.773,1.773v.786a2.754,2.754,0,0,1-2.751,2.751l-6.862.008A6.875,6.875,0,0,0,81.562,113a5.321,5.321,0,0,0-5.225-5.291,1.8,1.8,0,0,1-1.836-1.773V99.144a3.813,3.813,0,0,1,3.809-3.808,13.545,13.545,0,0,0,5.033-.946v11.656a5.3,5.3,0,0,0,5.291,5.291ZM68.314,46.893c6.666-8.4,12.781-8.4,19.446,0,4.587,5.837,5.681,11.225,2.925,14.413-2.259,2.613-6.5,3.016-10.082.959a5.17,5.17,0,0,0-5.128,0c-3.586,2.057-7.825,1.655-10.081-.955C62.635,58.114,63.728,52.723,68.314,46.893ZM19.076,4.777a1.867,1.867,0,1,1,3.531,1.214c-6.564,19.084-.5,39,13.235,49.773a21.261,21.261,0,0,0-.1,4.544C18.246,48.358,12.031,25.261,19.076,4.777ZM54.827,70.9a7.985,7.985,0,0,1-10.568-.512c-5.07-5.278-6.294-11.409-3.9-18.626C44.4,39.632,47,32.473,51.789,31.113c.258.337.29.733.37,1.738C53.331,47.478,68.227,59.731,54.827,70.9Zm7.414-3.5a15.017,15.017,0,0,0,1.174-3.081c3.454,3.247,9.092,3.7,13.809.995a1.618,1.618,0,0,1,1.627,0c4.77,2.738,10.39,2.215,13.81-1A15.021,15.021,0,0,0,93.837,67.4C92.1,71.351,64.17,71.742,62.241,67.4Zm49.577,2.989a7.984,7.984,0,0,1-10.568.512c-13.4-11.171,1.5-23.425,2.668-38.051.08-1,.112-1.4.37-1.735,4.793,1.361,7.394,8.519,11.425,20.649C118.135,59.048,116.861,65.14,111.818,70.389Z" transform="translate(-0.475 0.001)"/>
        <path id="Trazado_879464" data-name="Trazado 879464" d="M308.186,209.189a7.439,7.439,0,0,0,7.056-7.056c0-3.214-2.77-5.29-7.056-5.29s-7.056,2.077-7.056,5.29A7.439,7.439,0,0,0,308.186,209.189Zm0-8.829c.83,0,3.538.128,3.538,1.773a3.538,3.538,0,1,1-7.077,0C304.648,200.489,307.356,200.361,308.186,200.361Z" transform="translate(-230.622 -150.68)"/>
        <path id="Trazado_879465" data-name="Trazado 879465" d="M248.424,135.359a1.759,1.759,0,0,0,3.518,0,1.469,1.469,0,1,1,2.938,0,1.759,1.759,0,0,0,1.759,1.759c3.307,0,1.755-6.746-3.228-6.746a4.993,4.993,0,0,0-4.987,4.987Z" transform="translate(-190.276 -99.798)"/>
        <path id="Trazado_879466" data-name="Trazado 879466" d="M371.469,135.359a1.759,1.759,0,0,0,3.518,0,1.469,1.469,0,0,1,2.938,0,1.759,1.759,0,0,0,1.759,1.759c3.307,0,1.755-6.746-3.228-6.746A4.993,4.993,0,0,0,371.469,135.359Z" transform="translate(-284.466 -99.798)"/>
      </g>
    </g>
  </g>
</svg>
