<svg xmlns="http://www.w3.org/2000/svg" xmlns:xlink="http://www.w3.org/1999/xlink" width="295" height="184" viewBox="0 0 295 184">
  <defs>
    <clipPath id="clip-path">
      <rect id="Rectángulo_403005" data-name="Rectángulo 403005" width="295" height="184" rx="10" transform="translate(1125.051 849)" fill="#c6ac97"/>
    </clipPath>
  </defs>
  <g id="Grupo_1189681" data-name="Grupo 1189681" transform="translate(-1125.051 -849)">
    <rect id="Rectángulo_402750" data-name="Rectángulo 402750" width="238" height="165" rx="10" transform="translate(1182.051 849)" fill="#c6ac97"/>
    <g id="Enmascarar_grupo_1099217" data-name="Enmascarar grupo 1099217" clip-path="url(#clip-path)">
      <g id="Grupo_1189680" data-name="Grupo 1189680" transform="translate(800.352 505.147)">
        <g id="Grupo_1189673" data-name="Grupo 1189673" transform="translate(388.375 526.339)">
          <g id="Grupo_1189672" data-name="Grupo 1189672">
            <g id="Grupo_1189671" data-name="Grupo 1189671">
              <path id="Trazado_879152" data-name="Trazado 879152" d="M390.473,600.46s41.453-62.633,64.276-38.8c7.984,9.319-62.236,43.5-62.236,43.5Z" transform="translate(-383.448 -511.095)" fill="#336d4c"/>
              <path id="Trazado_879153" data-name="Trazado 879153" d="M444.179,562.366S406.106,583.792,395,595.183" transform="translate(-383.202 -510.763)" fill="none" stroke="#204800" stroke-miterlimit="10" stroke-width="0.574"/>
              <path id="Trazado_879154" data-name="Trazado 879154" d="M415.719,578.633s3.11-3.621,4.378-11.629" transform="translate(-382.078 -510.511)" fill="none" stroke="#204800" stroke-miterlimit="10" stroke-width="0.574"/>
              <path id="Trazado_879155" data-name="Trazado 879155" d="M401.817,600.382l32.445-42.493c-21.063,8.152-43.789,42.482-43.789,42.482l1.8,4.139,2.9-.754C396.79,602.947,399.074,601.8,401.817,600.382Z" transform="translate(-383.448 -511.006)" fill="#204800" opacity="0.65" style="mix-blend-mode: multiply;isolation: isolate"/>
              <path id="Trazado_879156" data-name="Trazado 879156" d="M383.81,605.846s21.738-108.539,64.837-90.376c15.6,7.665-59.613,95.434-59.613,95.434Z" transform="translate(-383.81 -513.42)" fill="#569171"/>
              <path id="Trazado_879157" data-name="Trazado 879157" d="M437.121,520.164s-37.637,49.309-48.7,82.249" transform="translate(-383.56 -513.054)" fill="none" stroke="#316007" stroke-miterlimit="10" stroke-width="0.443"/>
              <path id="Trazado_879158" data-name="Trazado 879158" d="M441.278,530.633s-12.252,2.1-17.429,4.655" transform="translate(-381.636 -512.486)" fill="none" stroke="#316007" stroke-miterlimit="10" stroke-width="0.443"/>
              <path id="Trazado_879159" data-name="Trazado 879159" d="M410.574,535.578s1.667,11.368.771,19.3" transform="translate(-382.357 -512.217)" fill="none" stroke="#316007" stroke-miterlimit="10" stroke-width="0.443"/>
              <path id="Trazado_879160" data-name="Trazado 879160" d="M414.5,567.252s-7.6.044-12.86,2.883" transform="translate(-382.842 -510.497)" fill="none" stroke="#316007" stroke-miterlimit="10" stroke-width="0.443"/>
            </g>
            <path id="Trazado_879161" data-name="Trazado 879161" d="M426.954,571.018a41.9,41.9,0,0,1,15.9,1.163" transform="translate(-381.468 -510.309)" fill="none" stroke="#204800" stroke-miterlimit="10" stroke-width="0.574"/>
          </g>
        </g>
        <g id="Grupo_1189678" data-name="Grupo 1189678" transform="translate(582.488 530.994)">
          <g id="Grupo_1189674" data-name="Grupo 1189674" transform="translate(30.36 4.443)">
            <path id="Trazado_879162" data-name="Trazado 879162" d="M645.24,536.742s8.04-10.387,2.538-13.942S639.223,529.057,645.24,536.742Z" transform="translate(-594.269 -522.049)" fill="#7dbb77"/>
            <path id="Trazado_879163" data-name="Trazado 879163" d="M623.077,552.044s12.5-4.161,9.932-10.167S622.4,542.326,623.077,552.044Z" transform="translate(-595.295 -521.099)" fill="#7dbb77"/>
            <path id="Trazado_879164" data-name="Trazado 879164" d="M650.044,545.406s12.5-4.162,9.932-10.167S649.37,535.687,650.044,545.406Z" transform="translate(-593.831 -521.459)" fill="#7dbb77"/>
            <path id="Trazado_879165" data-name="Trazado 879165" d="M617.626,565.167s9.561,9.008,13.687,3.927S625.938,560,617.626,565.167Z" transform="translate(-595.589 -519.839)" fill="#7dbb77"/>
            <path id="Trazado_879166" data-name="Trazado 879166" d="M596.724,575.7s4.029-14.476,25.927-15.951,24.946-23.057,25.332-27.721" transform="translate(-596.724 -521.507)" fill="none" stroke="#651d13" stroke-linecap="round" stroke-miterlimit="10" stroke-width="0.982"/>
            <path id="Trazado_879167" data-name="Trazado 879167" d="M639.494,549.4s9.245-2.026,13.865-8.257" transform="translate(-594.402 -521.013)" fill="none" stroke="#651d13" stroke-linecap="round" stroke-miterlimit="10" stroke-width="0.982"/>
            <path id="Trazado_879168" data-name="Trazado 879168" d="M621.316,558.963s-.232-7.754,5.684-12.482" transform="translate(-595.389 -520.723)" fill="none" stroke="#651d13" stroke-linecap="round" stroke-miterlimit="10" stroke-width="0.982"/>
            <path id="Trazado_879169" data-name="Trazado 879169" d="M608.608,561.322s6.242,5.409,16.824,4.293" transform="translate(-596.079 -519.917)" fill="none" stroke="#651d13" stroke-linecap="round" stroke-miterlimit="10" stroke-width="0.982"/>
          </g>
          <g id="Grupo_1189677" data-name="Grupo 1189677" transform="translate(0)">
            <g id="Grupo_1189676" data-name="Grupo 1189676">
              <g id="Grupo_1189675" data-name="Grupo 1189675">
                <path id="Trazado_879170" data-name="Trazado 879170" d="M574.59,604.875s41.453-62.633,64.277-38.8c7.984,9.318-62.237,43.5-62.237,43.5Z" transform="translate(-567.565 -515.509)" fill="#569171"/>
                <path id="Trazado_879171" data-name="Trazado 879171" d="M628.3,566.78s-38.074,21.426-49.174,32.818" transform="translate(-567.319 -515.177)" fill="none" stroke="#204800" stroke-miterlimit="10" stroke-width="0.574"/>
                <path id="Trazado_879172" data-name="Trazado 879172" d="M599.837,583.047s3.11-3.621,4.378-11.628" transform="translate(-566.194 -514.926)" fill="none" stroke="#204800" stroke-miterlimit="10" stroke-width="0.574"/>
                <path id="Trazado_879173" data-name="Trazado 879173" d="M585.935,604.8,618.379,562.3c-21.063,8.151-43.789,42.482-43.789,42.482l1.8,4.138,2.9-.753C580.908,607.362,583.191,606.211,585.935,604.8Z" transform="translate(-567.565 -515.42)" fill="#204800" opacity="0.65" style="mix-blend-mode: multiply;isolation: isolate"/>
                <path id="Trazado_879174" data-name="Trazado 879174" d="M567.927,610.26s21.739-108.539,64.837-90.375c15.6,7.664-59.613,95.434-59.613,95.434Z" transform="translate(-567.927 -517.835)" fill="#336d4c"/>
                <path id="Trazado_879175" data-name="Trazado 879175" d="M621.238,524.579s-37.637,49.309-48.7,82.248" transform="translate(-567.677 -517.469)" fill="none" stroke="#204800" stroke-miterlimit="10" stroke-width="0.574"/>
                <path id="Trazado_879176" data-name="Trazado 879176" d="M625.4,535.048s-12.252,2.1-17.429,4.654" transform="translate(-565.753 -516.9)" fill="none" stroke="#204800" stroke-miterlimit="10" stroke-width="0.574"/>
                <path id="Trazado_879177" data-name="Trazado 879177" d="M594.692,539.992s1.667,11.37.771,19.3" transform="translate(-566.474 -516.632)" fill="none" stroke="#204800" stroke-miterlimit="10" stroke-width="0.574"/>
                <path id="Trazado_879178" data-name="Trazado 879178" d="M598.615,571.667s-7.6.043-12.861,2.883" transform="translate(-566.959 -514.912)" fill="none" stroke="#204800" stroke-miterlimit="10" stroke-width="0.574"/>
              </g>
              <path id="Trazado_879179" data-name="Trazado 879179" d="M611.071,575.432a41.921,41.921,0,0,1,15.9,1.163" transform="translate(-565.585 -514.724)" fill="none" stroke="#204800" stroke-miterlimit="10" stroke-width="0.574"/>
            </g>
          </g>
        </g>
        <g id="Grupo_1189679" data-name="Grupo 1189679" transform="translate(299.735 275.467)">
          <path id="Trazado_879180" data-name="Trazado 879180" d="M493.911,364a4.913,4.913,0,0,1,5.8,1.122c2.619,2.805-4.034,4.3-4.034,4.3Z" transform="translate(-289.192 -270.687)" fill="#a1d9e2"/>
          <path id="Trazado_879181" data-name="Trazado 879181" d="M490.605,357.743s3.95-4.88,6.739-5.345-.464,7.9-3.37,9.994C490.605,359.37,490.605,357.743,490.605,357.743Z" transform="translate(-289.372 -271.291)" fill="#a1d9e2"/>
          <path id="Trazado_879182" data-name="Trazado 879182" d="M486.2,351.365s3.718-6.451,6.043-5.55-1.163,7.177-3.022,9.732S486.2,351.365,486.2,351.365Z" transform="translate(-289.611 -271.652)" fill="#a1d9e2"/>
          <path id="Trazado_879183" data-name="Trazado 879183" d="M360.438,288.509a7.447,7.447,0,1,0-12.054-7.712,7.457,7.457,0,0,0-12.637,5.378c0,.207.044.4.061.6a7.441,7.441,0,0,0-11.9,5.985,7.5,7.5,0,0,0,.143,1.429,7.219,7.219,0,0,0-8.389,7.379,7.4,7.4,0,0,0,1.776,4.783,7.422,7.422,0,0,0-5.082,12.469,7.408,7.408,0,0,0-1.246,12.553,7.419,7.419,0,0,0,2.686,13.092,7.414,7.414,0,0,0,2.785,12.984,7.381,7.381,0,0,0-.92,3.52,7.471,7.471,0,0,0,7.471,7.471c.078,0,.15-.02.227-.022a7.453,7.453,0,0,0,14.049,4.8,160.891,160.891,0,0,0,16.224,5.9C366.958,367.946,368.716,308.847,360.438,288.509Z" transform="translate(-299.276 -275.467)" fill="#3f0d0b"/>
          <path id="Trazado_879184" data-name="Trazado 879184" d="M580.483,572.9s30.445-2.324,27.191-23.008-9.3-29.98,3.254-32.769c-5.577-3.254-16.036-1.627-13.712,18.359s-4.415,25.8-18.359,23.7S580.483,572.9,580.483,572.9Z" transform="translate(-284.895 -262.418)" fill="#d25937"/>
          <path id="Trazado_879185" data-name="Trazado 879185" d="M586.919,557.145a27.194,27.194,0,0,1-8.063-.177c-13.944-2.092,1.627,13.712,1.627,13.712a49.427,49.427,0,0,0,6.058-.967C585.659,566.073,586.224,561,586.919,557.145Z" transform="translate(-284.895 -260.194)" fill="#872a21"/>
          <path id="Trazado_879186" data-name="Trazado 879186" d="M529.267,505.54s-9.529,45.783-9.3,68.326H497.661s-2.292-9.773,10.113-8.6c.811-33-1.275-67.168-1.275-67.168S521.366,505.307,529.267,505.54Z" transform="translate(-288.998 -263.38)" fill="#872a21"/>
          <path id="Trazado_879187" data-name="Trazado 879187" d="M500.744,570.275s-1.394-4.648,5.113-6.042" transform="translate(-288.828 -259.789)" fill="none" stroke="#3f0d0b" stroke-miterlimit="10" stroke-width="0.806"/>
          <path id="Trazado_879188" data-name="Trazado 879188" d="M542.624,421.393S553.78,443.58,564.7,459.329s36.952,42.474,19.986,118.7H533.794s-3.719-8.134,15.571-8.367c-9.064-16.733-6.507-24.633-3.487-31.606-25.1-12.085-53.685-37.649-49.966-61.818s10.459-36.952,10.459-36.952Z" transform="translate(-289.101 -267.544)" fill="#d25937"/>
          <path id="Trazado_879189" data-name="Trazado 879189" d="M519.151,519.763c-4.154-40.264,9.3-83.307,9.3-83.307l-14.936-1.434-7.142,3.526s-6.74,12.782-10.459,36.952C493.529,490.988,504.42,507.044,519.151,519.763Z" transform="translate(-289.101 -266.804)" fill="#d1d0aa"/>
          <path id="Trazado_879190" data-name="Trazado 879190" d="M540.357,415.221s8.315,5.295.878,14.732-25.67,19.431-38.4,12.69,18.413-22.31,18.413-22.31Z" transform="translate(-288.874 -267.879)" fill="#e5b14a"/>
          <path id="Trazado_879191" data-name="Trazado 879191" d="M494.466,394.122s-23.7-21.685-11.62-46.98c6.74-8.1,13.479,23.114,24.635,30.631l11.155,7.285Z" transform="translate(-289.979 -271.648)" fill="#872a21"/>
          <path id="Trazado_879192" data-name="Trazado 879192" d="M500.884,388.129c-10.646-6.359-15.725-20.573-15.572-27.306s-1.462-7.668-1.462-7.668l-4.181,4.414c-2.453,20.354,14.8,36.154,14.8,36.154l9.055-3.4A9.768,9.768,0,0,0,500.884,388.129Z" transform="translate(-289.978 -271.249)" fill="#3f0d0b"/>
          <path id="Trazado_879193" data-name="Trazado 879193" d="M387.6,369.958s20.3,17.973,33.31,36.1l13.014,18.128s26.493-32.537,31.142-43.692l19.521,13.015s-22.775,51.592-33,68.789-35.325,3.367-53.917-19.7C385.582,405.128,387.6,369.958,387.6,369.958Z" transform="translate(-294.971 -270.337)" fill="#893929"/>
          <line id="Línea_642" data-name="Línea 642" x1="9.761" y2="12.55" transform="translate(129.189 153.848)" fill="none" stroke="#3f0d0b" stroke-miterlimit="10" stroke-width="0.667"/>
          <path id="Trazado_879194" data-name="Trazado 879194" d="M438.376,449.909a16.735,16.735,0,0,0-15.943,11.657c11.236,5.916,21.554,5.975,27.252-3.609.415-.7.858-1.472,1.313-2.278A16.68,16.68,0,0,0,438.376,449.909Z" transform="translate(-293.073 -265.996)" fill="#3f0d0b" opacity="0.33"/>
          <path id="Trazado_879195" data-name="Trazado 879195" d="M426.518,413.872l-5.611-7.814c-13.014-18.128-33.31-36.1-33.31-36.1s-2.015,35.17,10.071,72.643q1.7,2.116,3.477,4.119A100.177,100.177,0,0,1,426.518,413.872Z" transform="translate(-294.971 -270.337)" fill="#fff"/>
          <path id="Trazado_879196" data-name="Trazado 879196" d="M397.292,440.855q1.7,2.116,3.477,4.119a100.177,100.177,0,0,1,25.374-32.848l-5.611-7.814c-.525-.732-1.067-1.463-1.614-2.193a107.545,107.545,0,0,0-24.534,28.771Q395.681,435.822,397.292,440.855Z" transform="translate(-294.596 -268.591)" fill="#e9e9e8"/>
          <path id="Trazado_879197" data-name="Trazado 879197" d="M370.938,360.847l20.929,9.606s17.043,44,18.281,56.706-1.859,30.367-2.479,40.282,25.1,111.243,22.93,156.482H327.414s-20.142-44.621-9.607-84.283,15.184-101.016-8.986-156.482c19.521-16.424,37.164-20.606,37.164-20.606Z" transform="translate(-299.241 -270.831)" fill="#fff"/>
          <path id="Trazado_879198" data-name="Trazado 879198" d="M414.265,502.661l-50.287-6.233-38.382-28.8a270.513,270.513,0,0,1-2.5,35.621c5.4,7.87,13.51,16.634,23.626,18.355,16.323,2.778,58.807-.883,70.872-2.012C416.459,513.7,415.335,508.023,414.265,502.661Z" transform="translate(-298.466 -265.034)" fill="#e9e9e8" opacity="0.43" style="mix-blend-mode: multiply;isolation: isolate"/>
          <path id="Trazado_879199" data-name="Trazado 879199" d="M448.282,491.35s2.324-6.352,4.338-8.366,6.352,5.732,6.507,8.986S450.451,498.477,448.282,491.35Z" transform="translate(-291.67 -264.218)" fill="#7f2b0e"/>
          <path id="Trazado_879200" data-name="Trazado 879200" d="M451.368,501.064s2.324-12.859,8.522-11.774,1.239,7.437,1.239,7.437,10.071-2.48,8.212,5.887C468.411,505.557,457.384,507.261,451.368,501.064Z" transform="translate(-291.502 -263.861)" fill="#bf8826"/>
          <path id="Trazado_879201" data-name="Trazado 879201" d="M439.906,492.358s0-5.733,5.732-5.423,8.521,4.8,9.916,8.367-4.338,7.282-7.282,5.732S439.906,492.358,439.906,492.358Z" transform="translate(-292.124 -263.986)" fill="#599775"/>
          <path id="Trazado_879202" data-name="Trazado 879202" d="M467.185,510.463s12.085-7.9,8.367-10.691-11.465.775-17.353,2.48S467.185,510.463,467.185,510.463Z" transform="translate(-291.206 -263.345)" fill="#6ba6bf"/>
          <path id="Trazado_879203" data-name="Trazado 879203" d="M384.023,288.618s-7.979-11.7-25.487-11.387c-16.268,16.733-15.494,45.086-14.874,48.494l6.042-.465S361.791,293.5,384.023,288.618Z" transform="translate(-297.363 -275.372)" fill="#fff"/>
          <path id="Trazado_879204" data-name="Trazado 879204" d="M346.973,329.17s.021,23.55-2.9,35.17a327.661,327.661,0,0,1,32.712,32.845l-7.76-34.55s-1.1-12.859,0-20.3S349.546,324.213,346.973,329.17Z" transform="translate(-297.327 -272.62)" fill="#893929"/>
          <path id="Trazado_879205" data-name="Trazado 879205" d="M368.357,343.245l-15.288-5.668s4.887,13.444,15.174,20.023A102.809,102.809,0,0,1,368.357,343.245Z" transform="translate(-296.839 -272.095)" fill="#3f0d0b"/>
          <path id="Trazado_879206" data-name="Trazado 879206" d="M357.62,307.635c-11.3,9.064-1.02-7.9-1.716-11.154s-4.416,6.274-8.105,12.317.668-4.881,3.689-13.247c2.119-5.867.868-8.185-.071-9.05-8.869,16.214-8.264,35.915-7.753,38.72l6.042-.465a90.2,90.2,0,0,1,10.41-18.737A10.446,10.446,0,0,0,357.62,307.635Z" transform="translate(-297.363 -274.868)" fill="#e9e9e8"/>
          <path id="Trazado_879207" data-name="Trazado 879207" d="M383.838,288.031s8.134,11.155,6.972,31.374-2.324,31.375-6.507,33.233-26.493-1.394-33-16.036c-5.345-10.922-4.415-16.031-4.415-16.031S356.182,291.518,383.838,288.031Z" transform="translate(-297.178 -274.785)" fill="#893929"/>
          <path id="Trazado_879208" data-name="Trazado 879208" d="M385.9,320.692a92.693,92.693,0,0,1,0,10.11l-5-.581" transform="translate(-295.328 -273.012)" fill="none" stroke="#3f0d0b" stroke-miterlimit="10" stroke-width="0.667"/>
          <path id="Trazado_879209" data-name="Trazado 879209" d="M384.539,334.689a40.715,40.715,0,0,1-11.155-2.673C374.546,334.921,381.751,340.266,384.539,334.689Z" transform="translate(-295.736 -272.397)" fill="#fff"/>
          <path id="Trazado_879210" data-name="Trazado 879210" d="M379.037,310.037s-8.947-5.694-18.707-1.046c3.6-4.764,13.943-5.81,18.242-3.37C379.967,308.526,379.037,310.037,379.037,310.037Z" transform="translate(-296.445 -273.899)" fill="#3f0d0b"/>
          <path id="Trazado_879211" data-name="Trazado 879211" d="M372.262,326.639c0,2.057-2.617,3.724-5.845,3.724s-5.845-1.667-5.845-3.724,2.617-3.724,5.845-3.724S372.262,324.582,372.262,326.639Z" transform="translate(-296.432 -272.891)" fill="#c7240c" opacity="0.38"/>
          <ellipse id="Elipse_11599" data-name="Elipse 11599" cx="7.96" cy="8.747" rx="7.96" ry="8.747" transform="matrix(0.923, -0.384, 0.384, 0.923, 37.549, 48.512)" fill="#893929"/>
          <path id="Trazado_879212" data-name="Trazado 879212" d="M350.249,327.673c-1.853-4.462-6.647-6.711-10.706-5.025a7.277,7.277,0,0,0-1.332.729,9.2,9.2,0,0,0,.361,6.149c1.853,4.462,6.646,6.711,10.706,5.024a7.34,7.34,0,0,0,1.332-.727A9.207,9.207,0,0,0,350.249,327.673Z" transform="translate(-297.666 -272.936)" fill="#6b291e"/>
          <path id="Trazado_879213" data-name="Trazado 879213" d="M377.4,315.31s-7.391-.7-12.982,2.048c9.925,1.957,12.642,2.349,12.642,2.349S377.793,318.78,377.4,315.31Z" transform="translate(-296.223 -273.308)" fill="#fff"/>
          <path id="Trazado_879214" data-name="Trazado 879214" d="M364.414,317.362s3.711-2.614,15.912-2.125" transform="translate(-296.223 -273.311)" fill="none" stroke="#3f0d0b" stroke-miterlimit="10" stroke-width="1.001"/>
          <path id="Trazado_879215" data-name="Trazado 879215" d="M309.315,382.009s-15.8,4.957-6.817,45.241,33.734,83.663,43.981,84.9,73.769,3.409,73.769,3.409l-2.79-22-55.465-13.014s-20.761-47.719-26.029-67.241S314.273,381.7,309.315,382.009Z" transform="translate(-299.735 -269.683)" fill="#893929"/>
          <path id="Trazado_879216" data-name="Trazado 879216" d="M335.964,413.306c-5.267-19.522-21.691-31.607-26.648-31.3,0,0-15.8,4.957-6.817,45.241a227.512,227.512,0,0,0,13.633,40.82c9.094-9.476,27.051-14.215,34.038-15.757C344.533,438.392,338.48,422.632,335.964,413.306Z" transform="translate(-299.735 -269.683)" fill="#fff"/>
          <path id="Trazado_879217" data-name="Trazado 879217" d="M315.528,464.983c9.094-9.476,27.051-14.215,34.038-15.758-1.371-3.386-2.765-6.88-4.129-10.366-8.971,2.026-24.543,6.5-34.582,14.667C312.343,457.437,313.9,461.277,315.528,464.983Z" transform="translate(-299.131 -266.596)" fill="#e9e9e8"/>
          <line id="Línea_643" data-name="Línea 643" x1="10.845" y1="1.859" transform="translate(51.413 209.005)" fill="none" stroke="#3f0d0b" stroke-miterlimit="10" stroke-width="0.667"/>
          <path id="Trazado_879218" data-name="Trazado 879218" d="M355.671,507.1a19.532,19.532,0,0,0-27.129-17.983c6.448,10.221,12.466,16.834,16.373,17.307,1.939.234,5.787.5,10.751.782C355.666,507.168,355.671,507.133,355.671,507.1Z" transform="translate(-298.171 -263.951)" fill="#3f0d0b" opacity="0.33"/>
          <path id="Trazado_879219" data-name="Trazado 879219" d="M410.277,484.929s-4.648,24.79,5.267,30.057a16.344,16.344,0,0,0,11.155-3.719s31.917,4.062,38.734,3.735,15.183-7.144,13.634-9-6.817-2.479-17.663.62l-30.677-11.155-14.564-7.69S417.714,481.521,410.277,484.929Z" transform="translate(-293.792 -264.15)" fill="#a1d9e2"/>
          <path id="Trazado_879220" data-name="Trazado 879220" d="M415.8,487.589s17.043-1.451,23.783,2.732,19.753,11.852,23.007,12.782,11.155,8.134-3.95,6.74-19.754-6.275-19.754-6.275S416.192,499.265,415.8,487.589Z" transform="translate(-293.433 -263.964)" fill="#a1d9e2"/>
          <path id="Trazado_879221" data-name="Trazado 879221" d="M348.5,421.728l28.043-6.507,1.835,5.578L350.4,427.77Z" transform="translate(-297.087 -267.879)" fill="#e9e9e8"/>
          <path id="Trazado_879222" data-name="Trazado 879222" d="M336.21,365.23l48.2,47.646-7.2-48.651" transform="translate(-297.754 -270.648)" fill="none" stroke="#d8d6cb" stroke-miterlimit="10" stroke-width="0.502"/>
          <path id="Trazado_879223" data-name="Trazado 879223" d="M352.242,368.044s-22.114,7.126-37.725,17.045" transform="translate(-298.932 -270.441)" fill="none" stroke="#d8d6cb" stroke-miterlimit="10" stroke-width="0.502"/>
          <line id="Línea_644" data-name="Línea 644" x2="20.687" y2="7.566" transform="translate(73.059 96.084)" fill="none" stroke="#d8d6cb" stroke-miterlimit="10" stroke-width="0.502"/>
          <path id="Trazado_879224" data-name="Trazado 879224" d="M398.875,438.86s-25.912,23.881-32.71,32.713S391.041,457.348,398.875,438.86Z" transform="translate(-296.18 -266.596)" fill="#e9e9e8"/>
          <path id="Trazado_879225" data-name="Trazado 879225" d="M455.979,388.789s9.217,13.719,22.935,14.576c3.858-.643,3-2.572,2.786-4.287s2.785-12.432,2.785-12.432,6.645-13.931-3-20.148c7.288-13.289,6.43-13.57,3.43-15.251s-8.788,9.464-11.789,11.393-6.189,8.359-7.381,12.218-5.479,7.5-7.837,8.788S454.6,386.974,455.979,388.789Z" transform="translate(-291.286 -271.362)" fill="#a1d9e2"/>
          <path id="Trazado_879226" data-name="Trazado 879226" d="M531.564,378.811s-13.015-5.345-21.381-2.906-14.956,11.5-16.658,17.315-4.026,18.823-8.442,24.17-9.528,12.084-8.134,16.965,4.491,11.155,13.168,11.62c16.579.7,27.5-5.578,30.291-10.226,17.663-10.226,26.493-20.916,25.1-35.558S533.013,379.358,531.564,378.811Z" transform="translate(-290.126 -270.049)" fill="#d25937"/>
          <circle id="Elipse_11600" data-name="Elipse 11600" cx="3.37" cy="3.37" r="3.37" transform="translate(216.804 138.003)" fill="#3f0d0b"/>
          <path id="Trazado_879227" data-name="Trazado 879227" d="M488.417,410.283a3.047,3.047,0,0,0,1.159-5.865c-.588,1.988-1.24,3.947-1.969,5.743A3.033,3.033,0,0,0,488.417,410.283Z" transform="translate(-289.535 -268.466)" fill="#3f0d0b"/>
          <path id="Trazado_879228" data-name="Trazado 879228" d="M511.184,419.077c-5.507-1.688-10.994-7.608-10.064-12.3s1.627-11.577-1.958-6-1.064,12.317-7.106,11.852a16.917,16.917,0,0,0-4.969.292,17.324,17.324,0,0,1-2,3.193c-4.415,5.345-9.528,12.085-8.134,16.966s4.491,11.155,13.168,11.62c16.579.7,27.5-5.578,30.291-10.226C521.339,425.646,516.691,420.765,511.184,419.077Z" transform="translate(-290.126 -268.776)" fill="#d1d0aa"/>
          <path id="Trazado_879229" data-name="Trazado 879229" d="M480.138,428.2c.965,1.945,2.752,4.9,4.769,5.054,2.095-1.764,3.614-3.213,4.633-4.25a1.761,1.761,0,0,0-.705-2.915,14.338,14.338,0,0,0-7.684-.077A1.544,1.544,0,0,0,480.138,428.2Z" transform="translate(-289.949 -267.319)" fill="#3f0d0b"/>
          <path id="Trazado_879230" data-name="Trazado 879230" d="M484.653,432.855s2.167,9.529,5.034,9.994" transform="translate(-289.695 -266.922)" fill="none" stroke="#3f0d0b" stroke-miterlimit="10" stroke-width="0.537"/>
          <path id="Trazado_879231" data-name="Trazado 879231" d="M542.672,399.758a28.622,28.622,0,0,0-1.25-6.046L528.96,383.258s0,15.832,4.183,19.885c2.448,2.371,5.048,7.7,6.79,11.724A26.974,26.974,0,0,0,542.672,399.758Z" transform="translate(-287.289 -269.615)" fill="#3f0d0b"/>
          <path id="Trazado_879232" data-name="Trazado 879232" d="M528.976,383.591s3.95,14.406,8.832,18.359,6.739,12.549,9.3,16.5,8.831,2.324,9.064-14.409.7-28.585-18.824-26.726C526.187,379.408,528.976,383.591,528.976,383.591Z" transform="translate(-287.305 -269.948)" fill="#872a21"/>
          <path id="Trazado_879233" data-name="Trazado 879233" d="M624.187,472.533" transform="translate(-282.119 -264.768)" fill="none" stroke="#0f4259" stroke-miterlimit="10" stroke-width="0.616"/>
          <path id="Trazado_879234" data-name="Trazado 879234" d="M543.288,532.546s10.69-16.036,22.311-6.74" transform="translate(-286.511 -262.033)" fill="none" stroke="#3f0d0b" stroke-miterlimit="10" stroke-width="0.806"/>
          <path id="Trazado_879235" data-name="Trazado 879235" d="M536.235,570.2s-.7-4.183,8.6-4.648" transform="translate(-286.895 -259.717)" fill="none" stroke="#3f0d0b" stroke-miterlimit="10" stroke-width="0.806"/>
          <path id="Trazado_879236" data-name="Trazado 879236" d="M540.3,505.157s-9.529,45.783-9.3,68.326H508.689s-2.292-9.773,10.113-8.6c.811-33-.353-48.929-.353-48.929S532.393,504.924,540.3,505.157Z" transform="translate(-288.399 -262.997)" fill="#d25937"/>
          <path id="Trazado_879237" data-name="Trazado 879237" d="M511.772,570.275s-1.394-4.648,5.113-6.042" transform="translate(-288.229 -259.789)" fill="none" stroke="#3f0d0b" stroke-miterlimit="10" stroke-width="0.806"/>
          <path id="Trazado_879238" data-name="Trazado 879238" d="M517.559,447.878a5.986,5.986,0,1,1-5.985-5.985A5.986,5.986,0,0,1,517.559,447.878Z" transform="translate(-288.558 -266.431)" fill="#fff"/>
          <path id="Trazado_879239" data-name="Trazado 879239" d="M562.525,458.463c-4.587-6.615-9.214-14.362-13.039-21.127-6.55,5.344-17.886,17.04-12.293,30.6,7.132,17.29,15.08,19.3,41.578,16.322C573.358,472.46,566.792,464.615,562.525,458.463Z" transform="translate(-286.924 -266.679)" fill="#872a21"/>
          <path id="Trazado_879240" data-name="Trazado 879240" d="M586.306,524.486a123.565,123.565,0,0,0-2.75-23.976c-5.746-.628-14.64.182-15.576,10.95C566.91,523.756,578.324,526.208,586.306,524.486Z" transform="translate(-285.175 -263.257)" fill="#872a21"/>
          <circle id="Elipse_11601" data-name="Elipse 11601" cx="4.299" cy="4.299" r="4.299" transform="translate(267.932 230.173)" fill="#872a21"/>
          <rect id="Rectángulo_403002" data-name="Rectángulo 403002" width="217.065" height="11.93" transform="translate(115.396 310.486)" fill="#78a4da"/>
          <rect id="Rectángulo_403003" data-name="Rectángulo 403003" width="197.075" height="30.677" transform="translate(125.471 322.416)" fill="#b5cfea"/>
          <path id="Trazado_879241" data-name="Trazado 879241" d="M376.273,319.837a12.661,12.661,0,0,0-.513-7.448" transform="translate(-295.607 -273.462)" fill="none" stroke="#3f0d0b" stroke-miterlimit="10" stroke-width="0.667"/>
          <path id="Trazado_879242" data-name="Trazado 879242" d="M376.869,319.707s.594-.778.416-3.487a5.53,5.53,0,0,0-1.036-.967,32.243,32.243,0,0,0-6.917.485,5.511,5.511,0,0,0-1.479,2.327C374.826,319.412,376.869,319.707,376.869,319.707Z" transform="translate(-296.036 -273.308)" fill="#3f0d0b"/>
          <path id="Trazado_879243" data-name="Trazado 879243" d="M383.223,288.031A40.977,40.977,0,0,0,358.3,300.97c-.516,11.87-.145,35.227,9.147,49.613,7.132,2.608,14.088,3.012,16.242,2.055,4.183-1.859,5.345-13.014,6.507-33.233S383.223,288.031,383.223,288.031Z" transform="translate(-296.563 -274.785)" fill="#fff" opacity="0.17" style="mix-blend-mode: overlay;isolation: isolate"/>
          <rect id="Rectángulo_403004" data-name="Rectángulo 403004" width="197.075" height="8.982" transform="translate(125.471 322.416)" fill="#97b6d3"/>
          <path id="Trazado_879244" data-name="Trazado 879244" d="M308.822,382.009s19.26,4.493,26.123,29.491c8.275,24.425,10.6,30.447,10.6,30.447" transform="translate(-299.241 -269.683)" fill="none" stroke="#d8d6cb" stroke-miterlimit="10" stroke-width="0.502"/>
          <path id="Trazado_879245" data-name="Trazado 879245" d="M404.3,418.865s-10.792-36.053-16.711-48.907" transform="translate(-294.965 -270.337)" fill="none" stroke="#d8d6cb" stroke-miterlimit="10" stroke-width="0.502"/>
          <path id="Trazado_879246" data-name="Trazado 879246" d="M470.473,376.127s.566,11.108,5.517,16.349S464.963,392.492,470.473,376.127Z" transform="translate(-290.528 -270.002)" fill="#6ba6bf"/>
          <path id="Trazado_879247" data-name="Trazado 879247" d="M464.684,504.486s4.937,3.47-1.448,4.473-20.018-5.343-20.018-5.343" transform="translate(-291.945 -263.08)" fill="none" stroke="#6ba6bf" stroke-miterlimit="10" stroke-width="1.074"/>
          <path id="Trazado_879248" data-name="Trazado 879248" d="M508.073,409.225a.842.842,0,1,1-.842-.842A.842.842,0,0,1,508.073,409.225Z" transform="translate(-288.515 -268.251)" fill="#fff"/>
          <path id="Trazado_879249" data-name="Trazado 879249" d="M531.4,423.289a14.94,14.94,0,0,1,4.359,10.218" transform="translate(-287.157 -267.441)" fill="none" stroke="#3f0d0b" stroke-linecap="round" stroke-miterlimit="10" stroke-width="2.148"/>
          <path id="Trazado_879250" data-name="Trazado 879250" d="M511.766,438.381s4.554-5.255,2.122-8.06" transform="translate(-288.223 -267.059)" fill="none" stroke="#3f0d0b" stroke-miterlimit="10" stroke-width="0.537"/>
          <path id="Trazado_879251" data-name="Trazado 879251" d="M512.183,431.285a4.337,4.337,0,0,1,3.366-1.5" transform="translate(-288.2 -267.088)" fill="none" stroke="#3f0d0b" stroke-miterlimit="10" stroke-width="0.537"/>
        </g>
        <path id="Trazado_879252" data-name="Trazado 879252" d="M350.3,532.027s26.758,53.91,54.125,64.8S367.342,551.526,350.3,532.027Z" transform="translate(2.745 13.929)" fill="#e9e9e8"/>
        <path id="Trazado_879253" data-name="Trazado 879253" d="M339.081,502.37s-15.727,87.362,14.966,113.87" transform="translate(1.918 12.319)" fill="none" stroke="#d8d6cb" stroke-miterlimit="10" stroke-width="0.502"/>
      </g>
    </g>
  </g>
</svg>
