<svg xmlns="http://www.w3.org/2000/svg" xmlns:xlink="http://www.w3.org/1999/xlink" width="295" height="184" viewBox="0 0 295 184">
  <defs>
    <clipPath id="clip-path">
      <rect id="Rectángulo_403010" data-name="Rectángulo 403010" width="295" height="184" rx="10" transform="translate(1125.051 1314)" fill="#aea2c3"/>
    </clipPath>
  </defs>
  <g id="Grupo_1189700" data-name="Grupo 1189700" transform="translate(-1125.051 -1314)">
    <g id="Grupo_1189699" data-name="Grupo 1189699">
      <g id="Grupo_1189697" data-name="Grupo 1189697">
        <rect id="Rectángulo_402752" data-name="Rectángulo 402752" width="282" height="176" rx="10" transform="translate(1125.051 1314)" fill="#aea2c3"/>
        <g id="Enmascarar_grupo_1099218" data-name="Enmascarar grupo 1099218" clip-path="url(#clip-path)">
          <g id="Grupo_1189698" data-name="Grupo 1189698" transform="translate(1083.277 875.83)">
            <g id="Grupo_1189730" data-name="Grupo 1189730" transform="translate(49.774 457.714)">
              <g id="Grupo_1189698-2" data-name="Grupo 1189698" transform="translate(67.806 150.774)">
                <path id="Trazado_879343" data-name="Trazado 879343" d="M105.392,521.6s-2.645,6.6-4.705,12.286c1.857.063,3.674.117,5.408.167,7.678.234,13.685-.312,15.315-1.44,3.068-2.128,1.6-7.033-.1-8.694C116.122,520.3,105.392,521.6,105.392,521.6Z" transform="translate(-100.687 -521.374)" fill="#f8e9e4"/>
              </g>
              <g id="Grupo_1189699-2" data-name="Grupo 1189699" transform="translate(105.122 96.241)">
                <path id="Trazado_879344" data-name="Trazado 879344" d="M128.707,517.22s.51,26.554,5.54,31.411c2.959,2.858,10.829,3.58,14.809,3.265s5.972-1.513,6.608-4.3-1.446-5.215-3.656-7.1-4.579-3.281-4.956-4.479c-.443-1.4-.639-12.551.791-21.548,1.911-12.022,7.961-25.877,8.883-34.047C138.99,494.768,128.707,517.22,128.707,517.22Z" transform="translate(-128.707 -480.427)" fill="#f8e9e4"/>
              </g>
              <g id="Grupo_1189700-2" data-name="Grupo 1189700" transform="translate(4.476)">
                <path id="Trazado_879345" data-name="Trazado 879345" d="M186.252,454.893a31.738,31.738,0,0,1-5.78,18.488c4.488,12.829,5.415,28.555-3.982,43.833s-26,26.512-26,26.512c-.076,3.672.924,17.563,1.464,18.693s2.349,2.08,4.557,3.955,4.223,4.557,3.58,7.344-2.568,4.275-6.51,4.892c-3.852.6-11.439.1-14.455-2.684s-8.088-16.818-8.088-16.818a69.756,69.756,0,0,1-11.08,7.484c1.707,1.642,3.171,6.5.1,8.6-1.631,1.116-7.639,1.655-15.317,1.425-9.257-.27-20.808-.6-28.476-2.144-4.569-.923-12.72-4.114-16.784-9.576-4.091-5.491-9.052-17.129-4.593-34.118,5.484-20.9,27.242-37.594,40.16-44.831,17.089-9.553,22.956-16.82,22.956-16.82-5.034-6.486-5.484-14.892-4.15-21.286a36.955,36.955,0,0,1,5.318-11.965s-7.394-23.648-.838-27.231c6.574-3.58,21.3,13.725,21.3,13.725,8.051-1.67,20.748.629,20.748.629s8.049-8.95,13.406-12.111c4.814-2.837,9.693-3.44,10.476,3.519.847,7.575-3.275,21.632-3.275,21.632A40.217,40.217,0,0,1,186.252,454.893Z" transform="translate(-53.135 -408.162)" fill="#f8e9e4"/>
              </g>
              <g id="Grupo_1189701" data-name="Grupo 1189701" transform="translate(46.412 107.273)">
                <path id="Trazado_879346" data-name="Trazado 879346" d="M95.687,536.8a.482.482,0,0,1-.237-.9c10.474-5.962,12.061-21.86,6.971-32.966-5.082-11.088-17.273-13.241-17.4-13.261a.481.481,0,0,1-.4-.554.474.474,0,0,1,.538-.4l.016,0c.127.021,12.814,2.245,18.114,13.809,5.267,11.493,3.563,27.981-7.37,34.2A.475.475,0,0,1,95.687,536.8Z" transform="translate(-84.623 -488.71)" fill="#453c3e"/>
              </g>
              <g id="Grupo_1189702" data-name="Grupo 1189702" transform="translate(73.8 117.307)">
                <path id="Trazado_879347" data-name="Trazado 879347" d="M119.558,543.827a.478.478,0,0,1-.431-.269c-8.417-17.2-13.876-46.45-13.93-46.744a.482.482,0,0,1,.948-.174c.055.292,5.484,29.414,13.847,46.5a.481.481,0,0,1-.221.645A.5.5,0,0,1,119.558,543.827Z" transform="translate(-105.188 -496.245)" fill="#453c3e"/>
              </g>
              <g id="Grupo_1189703" data-name="Grupo 1189703" transform="translate(101.114 111.894)">
                <path id="Trazado_879348" data-name="Trazado 879348" d="M126.407,518.707a.481.481,0,0,1-.481-.468c-.22-8.5-.229-25.408-.229-25.578a.482.482,0,0,1,.482-.481h0a.481.481,0,0,1,.481.481h0c0,.169.013,17.061.229,25.553a.483.483,0,0,1-.469.493Z" transform="translate(-125.697 -492.18)" fill="#453c3e"/>
              </g>
              <g id="Grupo_1189704" data-name="Grupo 1189704" transform="translate(66.278 159.963)">
                <path id="Trazado_879349" data-name="Trazado 879349" d="M101.625,535.861a.5.5,0,0,1-.109-.012.48.48,0,0,1-.36-.578c.934-4.009-1.366-6.078-1.466-6.165a.483.483,0,0,1,.631-.729c.116.1,2.843,2.513,1.773,7.11A.481.481,0,0,1,101.625,535.861Z" transform="translate(-99.54 -528.274)" fill="#453c3e"/>
              </g>
              <g id="Grupo_1189705" data-name="Grupo 1189705" transform="translate(100.076 163.057)">
                <path id="Trazado_879350" data-name="Trazado 879350" d="M126.921,537.974a.4.4,0,0,1-.112-.013.478.478,0,0,1-.357-.574v-.005a6.019,6.019,0,0,0-1.372-5.941.482.482,0,1,1,.637-.723h0a6.96,6.96,0,0,1,1.671,6.888A.48.48,0,0,1,126.921,537.974Z" transform="translate(-124.918 -530.597)" fill="#453c3e"/>
              </g>
              <g id="Grupo_1189706" data-name="Grupo 1189706" transform="translate(105.587 162.152)">
                <path id="Trazado_879351" data-name="Trazado 879351" d="M131.059,537.295a.446.446,0,0,1-.112-.013.481.481,0,0,1-.357-.577v0a6.075,6.075,0,0,0-1.372-5.941.481.481,0,0,1,.634-.724,6.953,6.953,0,0,1,1.671,6.888A.479.479,0,0,1,131.059,537.295Z" transform="translate(-129.056 -529.918)" fill="#453c3e"/>
              </g>
              <g id="Grupo_1189707" data-name="Grupo 1189707" transform="translate(120.696 160.217)">
                <path id="Trazado_879352" data-name="Trazado 879352" d="M142.424,535.838a.524.524,0,0,1-.111-.012.483.483,0,0,1-.358-.581,6.007,6.007,0,0,0-1.389-5.936.481.481,0,1,1,.633-.726h0a6.957,6.957,0,0,1,1.694,6.883A.483.483,0,0,1,142.424,535.838Z" transform="translate(-140.401 -528.465)" fill="#453c3e"/>
              </g>
              <g id="Grupo_1189708" data-name="Grupo 1189708" transform="translate(126.532 159.592)">
                <path id="Trazado_879353" data-name="Trazado 879353" d="M146.807,535.368a.507.507,0,0,1-.111-.012.483.483,0,0,1-.358-.579,6.019,6.019,0,0,0-1.39-5.937.481.481,0,0,1,.633-.726h0a6.965,6.965,0,0,1,1.7,6.884A.481.481,0,0,1,146.807,535.368Z" transform="translate(-144.783 -527.995)" fill="#453c3e"/>
              </g>
              <g id="Grupo_1189709" data-name="Grupo 1189709" transform="translate(70.625 150.299)">
                <path id="Trazado_879354" data-name="Trazado 879354" d="M103.285,529.307a.481.481,0,0,1-.21-.914,66.267,66.267,0,0,0,11.539-7.276.481.481,0,0,1,.61.744,67.282,67.282,0,0,1-11.73,7.4A.467.467,0,0,1,103.285,529.307Z" transform="translate(-102.804 -521.017)" fill="#453c3e"/>
              </g>
              <g id="Grupo_1189710" data-name="Grupo 1189710" transform="translate(107.346 157.629)">
                <path id="Trazado_879355" data-name="Trazado 879355" d="M134.506,534.47h-.045a.479.479,0,0,1-.434-.519v-.005a6.812,6.812,0,0,0-3.389-6.515.481.481,0,1,1,.442-.855h0a7.817,7.817,0,0,1,3.9,7.465A.48.48,0,0,1,134.506,534.47Z" transform="translate(-130.377 -526.521)" fill="#453c3e"/>
              </g>
              <g id="Grupo_1189711" data-name="Grupo 1189711" transform="translate(44.573 154.302)">
                <path id="Trazado_879356" data-name="Trazado 879356" d="M111.906,535.106a.444.444,0,0,1-.084-.008.482.482,0,0,1-.392-.557,6.843,6.843,0,0,0-3.172-6.805c-3.885-2.378-15.262-3.1-24.507-2.6a.473.473,0,0,1-.506-.438v-.019a.48.48,0,0,1,.451-.506H83.7c9.393-.522,21.012.254,25.064,2.735a7.939,7.939,0,0,1,3.616,7.792A.481.481,0,0,1,111.906,535.106Z" transform="translate(-83.242 -524.023)" fill="#453c3e"/>
              </g>
              <g id="Grupo_1189712" data-name="Grupo 1189712" transform="translate(88.725 65.853)">
                <path id="Trazado_879357" data-name="Trazado 879357" d="M127.581,461.1a25.206,25.206,0,0,1-10.9-2.564.482.482,0,1,1,.389-.882l.024.012c11.1,5.275,19.384.481,19.465.43a.484.484,0,0,1,.659.166.478.478,0,0,1-.164.658h0A20.073,20.073,0,0,1,127.581,461.1Z" transform="translate(-116.395 -457.609)" fill="#453c3e"/>
              </g>
              <g id="Grupo_1189713" data-name="Grupo 1189713" transform="translate(71.849 7.002)">
                <path id="Trazado_879358" data-name="Trazado 879358" d="M115.335,421.937c-1.051,1.389-5.669,5.7-8.522,7.034a.839.839,0,0,1-1.072-.506.727.727,0,0,1-.033-.12c-1.116-3.829-3.155-13.689-1.111-14.824,1.739-.966,8.931,5.215,10.542,7.149A1.22,1.22,0,0,1,115.335,421.937Z" transform="translate(-103.723 -413.42)" fill="#e7b49e"/>
              </g>
              <g id="Grupo_1189714" data-name="Grupo 1189714" transform="translate(118.692 7.874)">
                <path id="Trazado_879359" data-name="Trazado 879359" d="M139.014,423.025c1.109,1.342,5.909,5.45,8.815,6.663a.838.838,0,0,0,1.049-.551.891.891,0,0,0,.028-.121c.951-3.873,2.565-13.811.474-14.857-1.779-.891-8.7,5.592-10.225,7.592A1.218,1.218,0,0,0,139.014,423.025Z" transform="translate(-138.896 -414.074)" fill="#e7b49e"/>
              </g>
              <g id="Grupo_1189718" data-name="Grupo 1189718" transform="translate(90.317 43.695)">
                <g id="Grupo_1189715" data-name="Grupo 1189715" transform="translate(4.25)">
                  <path id="Trazado_879360" data-name="Trazado 879360" d="M128.879,442.817c-.272-1.108-2.047-1.791-4.006-1.846-1.959.005-3.75.642-4.05,1.743-.313,1.149,1.167,3.084,3.059,3.858a2.53,2.53,0,0,0,1.841.024C127.634,445.871,129.162,443.973,128.879,442.817Z" transform="translate(-120.782 -440.971)" fill="#453c3e"/>
                </g>
                <g id="Grupo_1189716" data-name="Grupo 1189716" transform="translate(0 4.461)">
                  <path id="Trazado_879361" data-name="Trazado 879361" d="M122.242,450.4a5.777,5.777,0,0,1-1.005-.088,4.707,4.707,0,0,1-3.592-2.361.642.642,0,0,1,1.169-.529,3.494,3.494,0,0,0,2.645,1.626,4.214,4.214,0,0,0,3.091-.61,1.491,1.491,0,0,0,.669-.819l.035-2.665a.659.659,0,0,1,.653-.633.641.641,0,0,1,.631.651h0l-.047,2.771a2.684,2.684,0,0,1-1.205,1.751A5.356,5.356,0,0,1,122.242,450.4Z" transform="translate(-117.59 -444.321)" fill="#453c3e"/>
                </g>
                <g id="Grupo_1189717" data-name="Grupo 1189717" transform="translate(7.662 4.461)">
                  <path id="Trazado_879362" data-name="Trazado 879362" d="M128.268,450.61c-2.634,0-4.669-1.417-4.894-2.773l-.029-2.869a.641.641,0,0,1,.635-.647h0a.634.634,0,0,1,.646.619v.017l.021,2.769c.1.559,1.653,1.706,3.921,1.593a4.225,4.225,0,0,0,3.047-1.766.642.642,0,1,1,1.079.7h0a5.463,5.463,0,0,1-4.059,2.352Q128.447,450.61,128.268,450.61Z" transform="translate(-123.344 -444.321)" fill="#453c3e"/>
                </g>
              </g>
              <g id="Grupo_1189721" data-name="Grupo 1189721" transform="translate(57.307 44.319)">
                <g id="Grupo_1189719" data-name="Grupo 1189719">
                  <path id="Trazado_879363" data-name="Trazado 879363" d="M105.7,445.473a.684.684,0,0,1-.1-.008c-.053-.009-5.384-.884-12.339-2.77a.642.642,0,0,1,.336-1.239c6.889,1.867,12.159,2.734,12.212,2.742a.643.643,0,0,1-.1,1.276Z" transform="translate(-92.804 -441.44)" fill="#453c3e"/>
                </g>
                <g id="Grupo_1189720" data-name="Grupo 1189720" transform="translate(2.406 7.269)">
                  <path id="Trazado_879364" data-name="Trazado 879364" d="M95.241,449.06a.642.642,0,0,1-.031-1.282c5.518-.258,9.606-.867,9.647-.874a.655.655,0,0,1,.73.539.643.643,0,0,1-.539.73c-.04.007-4.19.627-9.777.887A.233.233,0,0,1,95.241,449.06Z" transform="translate(-94.611 -446.898)" fill="#453c3e"/>
                </g>
              </g>
              <g id="Grupo_1189724" data-name="Grupo 1189724" transform="translate(127.278 46.089)">
                <g id="Grupo_1189722" data-name="Grupo 1189722">
                  <path id="Trazado_879365" data-name="Trazado 879365" d="M145.984,446.408a.642.642,0,0,1-.081-1.279c.052-.005,5.348-.7,12.3-2.341a.633.633,0,0,1,.768.462l0,.013a.643.643,0,0,1-.475.772h0c-7.014,1.657-12.372,2.361-12.426,2.367A.6.6,0,0,1,145.984,446.408Z" transform="translate(-145.343 -442.769)" fill="#453c3e"/>
                </g>
                <g id="Grupo_1189723" data-name="Grupo 1189723" transform="translate(0.018 6.883)">
                  <path id="Trazado_879366" data-name="Trazado 879366" d="M155.656,450.41H155.6c-5.576-.442-9.7-1.2-9.743-1.2a.643.643,0,0,1,.233-1.264c.04.008,4.106.751,9.611,1.188a.642.642,0,0,1-.049,1.281Z" transform="translate(-145.356 -447.937)" fill="#453c3e"/>
                </g>
              </g>
              <g id="Grupo_1189725" data-name="Grupo 1189725" transform="translate(0 147.266)">
                <path id="Trazado_879367" data-name="Trazado 879367" d="M55.939,518.74A16.711,16.711,0,0,0,50.3,535.873c2.911,11.99,17.9,19.967,38.429,20.331s45.825-2.064,44.884-12.375-26.17-6.614-35.516-6.514C81.692,537.49,62.543,533.44,55.939,518.74Z" transform="translate(-49.774 -518.74)" fill="#f8e9e4"/>
              </g>
              <g id="Grupo_1189726" data-name="Grupo 1189726" transform="translate(7.817 151.252)">
                <path id="Trazado_879368" data-name="Trazado 879368" d="M126.045,537.565a.474.474,0,0,1-.237-.063c-3.393-1.918-12.122-1.529-18.494-1.242-.8.036-1.568.071-2.292.1-.8.032-1.689.076-2.665.133-7.232.394-19.339,1.057-31.29-3.223-11.214-4.015-15.192-10.532-15.355-10.807a.482.482,0,0,1,.828-.493c.039.065,3.989,6.5,14.852,10.392,11.768,4.215,23.752,3.563,30.913,3.17.986-.055,1.884-.1,2.684-.135.722-.027,1.49-.063,2.285-.1,6.855-.3,15.377-.686,19.01,1.366a.479.479,0,0,1,.181.655.485.485,0,0,1-.418.245Z" transform="translate(-55.643 -521.733)" fill="#453c3e"/>
              </g>
              <g id="Grupo_1189727" data-name="Grupo 1189727" transform="translate(77.032 35.978)">
                <path id="Trazado_879369" data-name="Trazado 879369" d="M112.862,435.272a6.81,6.81,0,0,0-5.19,4.308c-.322,1.039.782,1.669,1.775.735a6.779,6.779,0,0,1,8.988-.747c.884.6,2.142-.238,1.494-1.241A7.117,7.117,0,0,0,112.862,435.272Z" transform="translate(-107.615 -435.176)" fill="#453c3e"/>
              </g>
              <g id="Grupo_1189728" data-name="Grupo 1189728" transform="translate(107.717 35.978)">
                <path id="Trazado_879370" data-name="Trazado 879370" d="M137.9,435.272a6.81,6.81,0,0,1,5.191,4.308c.322,1.039-.782,1.669-1.777.735a6.778,6.778,0,0,0-8.987-.747c-.884.6-2.141-.238-1.494-1.241A7.115,7.115,0,0,1,137.9,435.272Z" transform="translate(-130.655 -435.176)" fill="#453c3e"/>
              </g>
              <g id="Grupo_1189729" data-name="Grupo 1189729" transform="translate(105.014 113.659)">
                <path id="Trazado_879371" data-name="Trazado 879371" d="M129.108,513.191a.482.482,0,0,1-.286-.87,111.93,111.93,0,0,0,18.773-18.649.482.482,0,0,1,.755.6A112.993,112.993,0,0,1,129.393,513.1.478.478,0,0,1,129.108,513.191Z" transform="translate(-128.626 -493.506)" fill="#453c3e"/>
              </g>
            </g>
            <path id="Trazado_879254" data-name="Trazado 879254" d="M142.5,459.587a22.032,22.032,0,0,0-22.032,21.946l9.376-1.326a34.519,34.519,0,0,0,23.63-14.65l1.457-2.124A21.921,21.921,0,0,0,142.5,459.587Z" transform="translate(23.454 66.615)" fill="#e9e9e8"/>
            <path id="Trazado_879255" data-name="Trazado 879255" d="M294.609,517.768l5.161,125.861H229.891L226.4,588.837h-6.038l-1.984,54.792H160.409L174.443,513.4S267.213,507.445,294.609,517.768Z" transform="translate(36.707 83.902)" fill="#19657c"/>
            <path id="Trazado_879256" data-name="Trazado 879256" d="M177.7,575.943s42.681,5.956,71.169,0c21.34-222.738,13.25-233.607,13.25-233.607l-47.3,8.35L185.111,474.7Z" transform="translate(42.444 27.713)" fill="#78a4da"/>
            <path id="Trazado_879257" data-name="Trazado 879257" d="M191.564,531.065s27.99,2.68,38.711,0,0-18.463,0-18.463l-37.52,1.191Z" transform="translate(47.044 84.204)" fill="#104551"/>
            <path id="Trazado_879258" data-name="Trazado 879258" d="M206.7,583.706s-5.688-33-5.077-56.551" transform="translate(50.367 89.032)" fill="none" stroke="#093f51" stroke-miterlimit="10" stroke-width="0.735"/>
            <path id="Trazado_879259" data-name="Trazado 879259" d="M209.96,583.706s.513-42.827,1.406-56.551" transform="translate(53.147 89.032)" fill="none" stroke="#093f51" stroke-miterlimit="10" stroke-width="0.735"/>
            <path id="Trazado_879260" data-name="Trazado 879260" d="M235.01,342.336l-50.027,19.355S150.44,479.462,152.228,662.3l57.173-1.787S210.443,420.191,235.01,342.336Z" transform="translate(33.97 27.713)" fill="#fff"/>
            <path id="Trazado_879261" data-name="Trazado 879261" d="M250.252,342.336s51.964,26.949,60.3,44.219-13.1,121.493-13.1,166.757-2.978,110.772-2.978,110.772l-80.931-4.168S210.2,419.609,250.252,342.336Z" transform="translate(54.313 27.713)" fill="#fff"/>
            <path id="Trazado_879262" data-name="Trazado 879262" d="M261.233,347.884v34.449l-13.369,6.551,4.334,14.889L220.67,456.118" transform="translate(56.7 29.553)" fill="none" stroke="#d8d6cb" stroke-miterlimit="10" stroke-width="0.633"/>
            <path id="Trazado_879263" data-name="Trazado 879263" d="M203.107,348.606l-19.842,40.237,12.044,2.382-11.117,11.911,22.926,54.386" transform="translate(44.29 29.793)" fill="none" stroke="#d8d6cb" stroke-miterlimit="10" stroke-width="0.633"/>
            <rect id="Rectángulo_403011" data-name="Rectángulo 403011" width="58.544" height="19.058" transform="translate(283.094 583.406)" fill="#e9e9e8"/>
            <path id="Trazado_879264" data-name="Trazado 879264" d="M224.968,516.85v30.417A14.781,14.781,0,0,0,240.2,562.04l28.58-.882a14.781,14.781,0,0,0,14.325-14.572l.4-29.736" transform="translate(58.126 85.613)" fill="none" stroke="#d8d6cb" stroke-miterlimit="10" stroke-width="0.633"/>
            <line id="Línea_645" data-name="Línea 645" x1="50.993" y2="17.754" transform="translate(217.376 377.437)" fill="none" stroke="#d8d6cb" stroke-miterlimit="10" stroke-width="0.633"/>
            <path id="Trazado_879265" data-name="Trazado 879265" d="M201.883,332.721s-9.132,34.79,20.447,46.7" transform="translate(50.026 24.523)" fill="none" stroke="#17577a" stroke-miterlimit="10" stroke-width="2.708"/>
            <path id="Trazado_879266" data-name="Trazado 879266" d="M252.26,303.877s3.424,23.377-12.208,38.414c-3.548-33.056-4.805-37.367-4.805-37.367Z" transform="translate(61.536 14.953)" fill="#9e701e"/>
            <path id="Trazado_879267" data-name="Trazado 879267" d="M248.584,307.7,251,353.828s-18.164,18.61-35.584,19.355c-7.594,0-2.53-12.8-2.53-12.8l.446-17.718Z" transform="translate(53.568 16.22)" fill="#f4b7a6"/>
            <path id="Trazado_879268" data-name="Trazado 879268" d="M237.319,323.406l-19.974,9.637L212.9,337.45l-.386,15.321C229.592,345,237.319,323.406,237.319,323.406Z" transform="translate(53.995 21.432)" fill="#b75d46"/>
            <path id="Trazado_879269" data-name="Trazado 879269" d="M195.454,295.215s0,33.351.6,41.292c12.11,7.543,36.727,3.573,36.727,3.573l12.507-20.647.6-33.747L237.341,270l-41.887,7.146S191.285,288.267,195.454,295.215Z" transform="translate(47.719 3.714)" fill="#f4b7a6"/>
            <path id="Trazado_879270" data-name="Trazado 879270" d="M203.776,291.331a16.286,16.286,0,0,1,6.516-3.818c5.977-1.918,20.379-6.086,26.9-4.069,8.337,2.581,12.307,18.661,7.94,37.322-1.986,11.116-15.286,15.086-15.286,15.086s-4.962-7.345-19.058-1.984a66.813,66.813,0,0,0-10.124,6.353s-.2,23.623,3.573,27.793,29.779-8.735,37.719-15.485,17.272-21.639,17.867-34.146l9.529-12.705s-2.978-20.844-9.132-26.2c8.735-.2,8.139-4.567-2.184-4.368,1.589-9.727-3.176-7.94-4.565-2.183-8.338-13.1-18.661-14.294-27.793-14.1s3.573,5.36,3.573,5.36S194.9,261.805,181.8,279.673c-6.948,8.934,6.948,7.543,6.948,7.543s-6.67,4.765-8.894,10.124,20.21,1.589,20.21,1.589S199.811,295.244,203.776,291.331Z" transform="translate(43.108 0)" fill="#9e701e"/>
            <path id="Trazado_879271" data-name="Trazado 879271" d="M201.344,306.225A24.351,24.351,0,0,0,200.4,320.2l7.1-4.248" transform="translate(49.769 15.732)" fill="none" stroke="#5b3d0c" stroke-miterlimit="10" stroke-width="0.677"/>
            <path id="Trazado_879272" data-name="Trazado 879272" d="M207.886,304.213s4.764-6.3,14.293-3.971" transform="translate(52.459 13.575)" fill="none" stroke="#5b3d0c" stroke-miterlimit="10" stroke-width="1.354"/>
            <path id="Trazado_879273" data-name="Trazado 879273" d="M198.793,321.805l14.507-4.8S208.62,325.676,198.793,321.805Z" transform="translate(49.442 19.309)" fill="#fff"/>
            <path id="Trazado_879274" data-name="Trazado 879274" d="M199.785,303.587s-.824-1.041-4.73-.446" transform="translate(48.202 14.647)" fill="none" stroke="#5b3d0c" stroke-miterlimit="10" stroke-width="1.015"/>
            <path id="Trazado_879275" data-name="Trazado 879275" d="M206.908,296.231s5.508-4.019,15.335-3.872c5.807.3.529-5.508-6.883-4.318S206.311,293.552,206.908,296.231Z" transform="translate(52.097 9.645)" fill="#9e701e"/>
            <path id="Trazado_879276" data-name="Trazado 879276" d="M194.993,289.822c0,1.147,0,3.058.012,5.476a24.3,24.3,0,0,1,6.885.289A9.208,9.208,0,0,0,194.993,289.822Z" transform="translate(48.181 10.289)" fill="#9e701e"/>
            <path id="Trazado_879277" data-name="Trazado 879277" d="M254.907,308.25c-3.022,7.065-9.549,11.051-14.576,8.9s-6.652-9.622-3.63-16.689,9.549-11.051,14.576-8.9S257.931,301.183,254.907,308.25Z" transform="translate(61.515 10.673)" fill="#f4b7a6"/>
            <path id="Trazado_879278" data-name="Trazado 879278" d="M254.118,306.723a17.392,17.392,0,0,0,1.332-9.44,7.178,7.178,0,0,0-1.8-1.12c-5.027-2.151-11.553,1.834-14.575,8.9a17.38,17.38,0,0,0-1.332,9.44,7.2,7.2,0,0,0,1.8,1.12C244.569,317.774,251.1,313.788,254.118,306.723Z" transform="translate(62.304 12.2)" fill="#d89282"/>
            <path id="Trazado_879279" data-name="Trazado 879279" d="M226.691,309.189c.185,1.936-3,3.828-7.12,4.222s-7.606-.856-7.791-2.794,3-3.828,7.12-4.222S226.5,307.251,226.691,309.189Z" transform="translate(53.748 15.764)" fill="#c7240c" opacity="0.44" style="mix-blend-mode: multiply;isolation: isolate"/>
            <path id="Trazado_879280" data-name="Trazado 879280" d="M165.466,517.744s3.008,15.088,8.85,18.264c31.252-.4,83.263-3.525,100.732-12.483s47.987-93.137,47.987-93.137l-47.3,37.33-87.633,40.1Z" transform="translate(38.385 56.927)" fill="#e9e9e8" opacity="0.43" style="mix-blend-mode: multiply;isolation: isolate"/>
            <path id="Trazado_879281" data-name="Trazado 879281" d="M195.1,307.823c.028,2.195.061,4.34.1,6.335,2.57-.8,4.288-2.2,4.151-3.636C199.23,309.184,197.506,308.189,195.1,307.823Z" transform="translate(48.218 16.262)" fill="#c7240c" opacity="0.44" style="mix-blend-mode: multiply;isolation: isolate"/>
            <path id="Trazado_879282" data-name="Trazado 879282" d="M238.985,346.709s32.005,17.65,47.993,34.425" transform="translate(62.777 29.164)" fill="none" stroke="#d8d6cb" stroke-miterlimit="10" stroke-width="0.633"/>
            <path id="Trazado_879283" data-name="Trazado 879283" d="M251.993,302.648s17.47,82.981-33.747,87.348" transform="translate(55.896 14.545)" fill="none" stroke="#17577a" stroke-miterlimit="10" stroke-width="2.708"/>
            <path id="Trazado_879284" data-name="Trazado 879284" d="M235.447,370.822s-9.607,50.308,25.123,71.771,13.976,87.723,13.976,87.723.506,54.636-53.689,45.7-61.937-36.636-61.937-36.636" transform="translate(36.213 37.164)" fill="none" stroke="#17577a" stroke-miterlimit="10" stroke-width="1.015"/>
            <path id="Trazado_879285" data-name="Trazado 879285" d="M227.063,271.633a42.788,42.788,0,0,1,21.119-5.27c-7.188-6.947-15.225-7.694-22.508-7.535-9.132.2,3.573,5.36,3.573,5.36S194.9,261.805,181.8,279.673c-6.948,8.934,6.948,7.543,6.948,7.543s-6.67,4.765-8.894,10.124,20.21,1.589,20.21,1.589,0,33.351.6,41.292c0,0-.2,23.623,3.573,27.793,2.293,2.534,12.806-1.245,22.48-6.113.316-.346.629-.675.946-1.035,22.631-25.707,8.144-77.74,8.144-77.74S216.047,277.588,227.063,271.633Z" transform="translate(43.108 0)" fill="#fff" opacity="0.17" style="mix-blend-mode: overlay;isolation: isolate"/>
            <path id="Trazado_879286" data-name="Trazado 879286" d="M218.183,375.773h0a4.971,4.971,0,0,1-4.956-4.956v-2.993a4.97,4.97,0,0,1,4.956-4.956h0a4.971,4.971,0,0,1,4.957,4.956v2.993A4.971,4.971,0,0,1,218.183,375.773Z" transform="translate(54.231 34.525)" fill="#fff"/>
            <path id="Trazado_879287" data-name="Trazado 879287" d="M243.6,297.778s7.178,1.125,2.829,10.059c-1.966,2.978-8.362-1.12-8.362-1.12A15.75,15.75,0,0,1,243.6,297.778Z" transform="translate(62.471 12.929)" fill="#584569"/>
            <circle id="Elipse_11602" data-name="Elipse 11602" cx="12.656" cy="12.656" r="12.656" transform="translate(124.856 525.339)" fill="#a5a39a"/>
            <circle id="Elipse_11603" data-name="Elipse 11603" cx="7.551" cy="7.551" r="7.551" transform="translate(130.066 531.007)" fill="none" stroke="#fff" stroke-miterlimit="10" stroke-width="1.251"/>
            <path id="Trazado_879288" data-name="Trazado 879288" d="M182.681,474.112s-7.594,3.653-25.685-2.9-25.236-9.678-29.4-8.71-4.168,5.435-4.168,5.435-6.551-3.276-8.637,0,2.086,6.551,5.36,11.91,2.68,11.615,5.062,16.974S144.565,509,158.561,509.017s32.755,0,32.755,0Z" transform="translate(21.384 67.525)" fill="#f4b7a6"/>
            <path id="Trazado_879289" data-name="Trazado 879289" d="M323.408,370.822s-29.029,2.709-53.074,50.949S236,486.09,236,486.09l-73.684,11.316s-3.573,25.014,2.383,45.262c53,2.383,92.757-2.383,105.637-9.529s54.3-84.6,54.3-84.6S343.949,378.239,323.408,370.822Z" transform="translate(36.986 37.164)" fill="#fff"/>
            <path id="Trazado_879290" data-name="Trazado 879290" d="M249.193,471.177a24.183,24.183,0,0,0-21.719,34.9c9.95-1.686,17.37-3.825,21.719-6.238,3.852-2.138,10.259-10.568,17.346-21.333A24.137,24.137,0,0,0,249.193,471.177Z" transform="translate(58.126 70.46)" fill="#e9e9e8"/>
            <path id="Trazado_879291" data-name="Trazado 879291" d="M187.078,512.57a166.741,166.741,0,0,1-2.829-49.229l-21.936,3.369s-3.573,25.014,2.383,45.262Q176.339,512.5,187.078,512.57Z" transform="translate(36.986 67.86)" fill="#e9e9e8"/>
            <path id="Trazado_879292" data-name="Trazado 879292" d="M239.974,466.7c-5.557-8.337-22.6-9.33-22.6-9.33" transform="translate(55.608 65.88)" fill="none" stroke="#d8d6cb" stroke-miterlimit="10" stroke-width="0.633"/>
            <path id="Trazado_879293" data-name="Trazado 879293" d="M243.345,456.454a47.876,47.876,0,0,0-25.358,0" transform="translate(55.81 65.015)" fill="none" stroke="#d8d6cb" stroke-miterlimit="10" stroke-width="0.633"/>
            <path id="Trazado_879294" data-name="Trazado 879294" d="M178.52,494.048l51.748-7.947s37.211-68.819,46.969-85.33,28.838-30.86,40.441-29.939" transform="translate(42.716 37.153)" fill="none" stroke="#d8d6cb" stroke-miterlimit="10" stroke-width="0.633"/>
            <path id="Trazado_879295" data-name="Trazado 879295" d="M160.563,469.911s7.951-78.945,21.632-113.042" transform="translate(36.758 32.535)" fill="none" stroke="#d8d6cb" stroke-miterlimit="10" stroke-width="0.633"/>
          </g>
        </g>
      </g>
    </g>
  </g>
</svg>
