<svg xmlns="http://www.w3.org/2000/svg" width="84.208" height="84.207" viewBox="0 0 84.208 84.207">
  <g id="Grupo_1188949" data-name="Grupo 1188949" transform="translate(-872.726 -278.777)">
    <g id="Grupo_1188789" data-name="Grupo 1188789" transform="translate(583.726 -5835.222)">
      <rect id="Rectángulo_400898" data-name="Rectángulo 400898" width="75.49" height="75.489" rx="37.744" transform="translate(292.999 6118.358)" fill="#ffd907"/>
      <rect id="Rectángulo_400907" data-name="Rectángulo 400907" width="75.49" height="75.489" rx="37.744" transform="translate(293.36 6118.358)" fill="none"/>
      <g id="Grupo_1098742" data-name="Grupo 1098742" transform="translate(289 6114)">
        <g id="Rectángulo_400898-2" data-name="Rectángulo 400898" transform="translate(0)" fill="none" stroke="#fff" stroke-width="1" opacity="0.859">
          <rect width="84.208" height="84.207" rx="42.104" stroke="none"/>
          <rect x="0.5" y="0.5" width="83.208" height="83.207" rx="41.604" fill="none"/>
        </g>
        <g id="Rectángulo_400907-2" data-name="Rectángulo 400907" transform="translate(0)" fill="none" stroke="#0f1f33" stroke-linecap="round" stroke-width="1">
          <rect width="84.208" height="84.207" rx="42.104" stroke="none"/>
          <rect x="0.5" y="0.5" width="83.208" height="83.207" rx="41.604" fill="none"/>
        </g>
      </g>
      <g id="Grupo_1189139" data-name="Grupo 1189139" transform="translate(300.525 6130.799)">
        <g id="Grupo_1189139-2" data-name="Grupo 1189139" transform="translate(34.753 10.788)">
          <path id="Trazado_877871" data-name="Trazado 877871" d="M319.706,109.137H301.682l1.78,3.916v23.8l.13-.044a2.726,2.726,0,0,1,2.629.5l.064.054.064-.054a2.724,2.724,0,0,1,4.362,2.9l-.04.128h1.221a.885.885,0,0,1,.85.627l.349,1.132h6.615a1.483,1.483,0,0,0,1.483-1.483v-30A1.483,1.483,0,0,0,319.706,109.137Z" transform="translate(-301.682 -109.137)" fill="#60b7ff"/>
        </g>
        <g id="Grupo_1189140" data-name="Grupo 1189140" transform="translate(48.636 10.788)">
          <path id="Trazado_877872" data-name="Trazado 877872" d="M446.271,109.137H442.13a1.483,1.483,0,0,1,1.483,1.483v30a1.483,1.483,0,0,1-1.483,1.483h4.141a1.483,1.483,0,0,0,1.483-1.483v-30A1.483,1.483,0,0,0,446.271,109.137Z" transform="translate(-442.13 -109.137)" fill="#26a6fe"/>
        </g>
        <g id="Grupo_1189141" data-name="Grupo 1189141" transform="translate(9.096 0.741)">
          <path id="Trazado_877873" data-name="Trazado 877873" d="M66.77,15.2V10.83a3.33,3.33,0,0,0-3.33-3.33h-18a3.33,3.33,0,0,0-3.33,3.33V15.2Z" transform="translate(-42.114 -7.5)" fill="#ffe177"/>
        </g>
        <g id="Grupo_1189142" data-name="Grupo 1189142" transform="translate(26.258 0.741)">
          <path id="Trazado_877874" data-name="Trazado 877874" d="M219.073,10.83V15.1h4.163V10.83a3.33,3.33,0,0,0-3.33-3.33h-4.163A3.33,3.33,0,0,1,219.073,10.83Z" transform="translate(-215.743 -7.5)" fill="#ffd15b"/>
        </g>
        <g id="Grupo_1189143" data-name="Grupo 1189143" transform="translate(36.533 30.953)">
          <path id="Trazado_877875" data-name="Trazado 877875" d="M319.688,313.141h17.727v4.039H319.688Z" transform="translate(-319.688 -313.141)" fill="#bbec6c"/>
        </g>
        <g id="Grupo_1189144" data-name="Grupo 1189144" transform="translate(50.119 30.953)">
          <path id="Trazado_877876" data-name="Trazado 877876" d="M457.131,313.141h4.141v4.039h-4.141Z" transform="translate(-457.131 -313.141)" fill="#a2e62e"/>
        </g>
        <g id="Grupo_1189156" data-name="Grupo 1189156" transform="translate(39.123 15.717)">
          <g id="Grupo_1189155" data-name="Grupo 1189155" transform="translate(0)">
            <g id="Grupo_1189145" data-name="Grupo 1189145" transform="translate(1.864 4.774)">
              <path id="Trazado_877877" data-name="Trazado 877877" d="M372,209.614a1.652,1.652,0,0,1-.873-.916,2.235,2.235,0,0,0-4.145,0,1.651,1.651,0,0,1-.873.916,2.235,2.235,0,1,0,2.038,3.964,1.726,1.726,0,0,1,1.814,0A2.234,2.234,0,1,0,372,209.614Z" transform="translate(-364.749 -207.299)" fill="#fff"/>
            </g>
            <g id="Grupo_1189147" data-name="Grupo 1189147" transform="translate(4.602 4.774)">
              <g id="Grupo_1189146" data-name="Grupo 1189146">
                <path id="Trazado_877878" data-name="Trazado 877878" d="M396.962,209.614a1.652,1.652,0,0,1-.873-.916,2.232,2.232,0,0,0-3.641-.753,2.236,2.236,0,0,1,.5.752,1.651,1.651,0,0,0,.873.916,2.229,2.229,0,0,1,.578,3.751,1.749,1.749,0,0,1,.522.213,2.234,2.234,0,1,0,2.038-3.963Z" transform="translate(-392.448 -207.299)" fill="#f2fbff"/>
              </g>
            </g>
            <g id="Grupo_1189154" data-name="Grupo 1189154">
              <g id="Grupo_1189150" data-name="Grupo 1189150" transform="translate(0 2.481)">
                <g id="Grupo_1189148" data-name="Grupo 1189148">
                  <ellipse id="Elipse_11532" data-name="Elipse 11532" cx="1.215" cy="1.529" rx="1.215" ry="1.529" fill="#fff"/>
                </g>
                <g id="Grupo_1189149" data-name="Grupo 1189149" transform="translate(9.911)">
                  <ellipse id="Elipse_11533" data-name="Elipse 11533" cx="1.215" cy="1.529" rx="1.215" ry="1.529" fill="#fff"/>
                </g>
              </g>
              <g id="Grupo_1189153" data-name="Grupo 1189153" transform="translate(3.078)">
                <g id="Grupo_1189151" data-name="Grupo 1189151">
                  <ellipse id="Elipse_11534" data-name="Elipse 11534" cx="1.215" cy="1.529" rx="1.215" ry="1.529" fill="#fff"/>
                </g>
                <g id="Grupo_1189152" data-name="Grupo 1189152" transform="translate(3.755)">
                  <ellipse id="Elipse_11535" data-name="Elipse 11535" cx="1.215" cy="1.529" rx="1.215" ry="1.529" fill="#fff"/>
                </g>
              </g>
            </g>
          </g>
        </g>
        <g id="Grupo_1189157" data-name="Grupo 1189157" transform="translate(6.215 14.682)">
          <path id="Trazado_877879" data-name="Trazado 877879" d="M30.474,182.476l1.805-6a.884.884,0,0,1,.852-.633h1.3l-.04-.128a2.726,2.726,0,0,1,4.362-2.9l.064.054.064-.054a2.725,2.725,0,0,1,3.523,0l.064.054.064-.054a2.725,2.725,0,0,1,.863-.492V148.535H12.975v32.736a1.483,1.483,0,0,0,1.483,1.483H30.437a.894.894,0,0,1,.037-.277Z" transform="translate(-12.975 -148.535)" fill="#ffe177"/>
        </g>
        <g id="Grupo_1189158" data-name="Grupo 1189158" transform="translate(32.215 14.682)">
          <path id="Trazado_877880" data-name="Trazado 877880" d="M277.664,172.17a2.728,2.728,0,0,1,1.762.646l.064.054.064-.054a2.724,2.724,0,0,1,.863-.492V148.535H276V172.74A2.728,2.728,0,0,1,277.664,172.17Z" transform="translate(-276 -148.535)" fill="#ffd15b"/>
        </g>
        <g id="Grupo_1189159" data-name="Grupo 1189159" transform="translate(6.215 14.682)">
          <path id="Trazado_877881" data-name="Trazado 877881" d="M24.038,148.535H12.975v5.006h6.057A5.006,5.006,0,0,0,24.038,148.535Z" transform="translate(-12.975 -148.535)" fill="#fe646f"/>
        </g>
        <g id="Grupo_1189160" data-name="Grupo 1189160" transform="translate(8.914 14.682)">
          <path id="Trazado_877882" data-name="Trazado 877882" d="M45.284,148.535a5.006,5.006,0,0,1-5.006,5.006h3.358a5.006,5.006,0,0,0,5.006-5.006Z" transform="translate(-40.278 -148.535)" fill="#fd4755"/>
        </g>
        <g id="Grupo_1189161" data-name="Grupo 1189161" transform="translate(10.742 39.637)">
          <path id="Trazado_877883" data-name="Trazado 877883" d="M73.545,403.987a.884.884,0,0,1,.852-.633h1.3l-.04-.128A2.707,2.707,0,0,1,75.918,401H59.756a.988.988,0,0,0-.988.988v2.224a.988.988,0,0,0,.988.988H73.18Z" transform="translate(-58.768 -401)" fill="#0593fc"/>
        </g>
        <g id="Grupo_1189162" data-name="Grupo 1189162" transform="translate(23.232 39.637)">
          <path id="Trazado_877884" data-name="Trazado 877884" d="M185.127,405.2h1.922l.365-1.214a.884.884,0,0,1,.852-.633h1.3l-.04-.128a2.707,2.707,0,0,1,.264-2.225h-4.66a.988.988,0,0,1,.988.988v2.224A.988.988,0,0,1,185.127,405.2Z" transform="translate(-185.127 -401)" fill="#0182fc"/>
        </g>
        <g id="Grupo_1189171" data-name="Grupo 1189171" transform="translate(11.539 18.089)">
          <g id="Grupo_1189165" data-name="Grupo 1189165" transform="translate(0 4.353)">
            <g id="Grupo_1189163" data-name="Grupo 1189163" transform="translate(11.998)">
              <path id="Trazado_877885" data-name="Trazado 877885" d="M193.84,228.445l-2.445-1.181a2.252,2.252,0,0,0-3.184,1.562,8.4,8.4,0,0,1,2.844,1.343,4.5,4.5,0,0,1,1.745,4.658l.375.1a2.254,2.254,0,0,0,2.807-2.185v-.877a3.792,3.792,0,0,0-2.143-3.415Z" transform="translate(-188.212 -227.04)" fill="#ea9b58"/>
            </g>
            <g id="Grupo_1189164" data-name="Grupo 1189164">
              <path id="Trazado_877886" data-name="Trazado 877886" d="M71.759,230.169a8.4,8.4,0,0,1,2.844-1.343,2.252,2.252,0,0,0-3.184-1.562l-2.445,1.181a3.792,3.792,0,0,0-2.143,3.415v.877a2.254,2.254,0,0,0,2.807,2.185l.375-.1A4.5,4.5,0,0,1,71.759,230.169Z" transform="translate(-66.832 -227.04)" fill="#ea9b58"/>
            </g>
          </g>
          <g id="Grupo_1189166" data-name="Grupo 1189166" transform="translate(2.969 5.772)">
            <path id="Trazado_877887" data-name="Trazado 877887" d="M98.764,243.027a4.61,4.61,0,0,0-1.675,5.154L98.331,252a3,3,0,0,0,2.857,2.076h5.183A3,3,0,0,0,109.229,252l1.241-3.82a4.61,4.61,0,0,0-1.675-5.154A8.533,8.533,0,0,0,98.764,243.027Z" transform="translate(-96.864 -241.398)" fill="#d88a55"/>
          </g>
          <g id="Grupo_1189167" data-name="Grupo 1189167" transform="translate(8.313 5.773)">
            <path id="Trazado_877888" data-name="Trazado 877888" d="M157.519,243.036a8.529,8.529,0,0,0-6.587-1.483,8.515,8.515,0,0,1,3.444,1.483,4.61,4.61,0,0,1,1.675,5.154l-1.241,3.82a3,3,0,0,1-2.857,2.076H155.1a3,3,0,0,0,2.857-2.076l1.241-3.82A4.61,4.61,0,0,0,157.519,243.036Z" transform="translate(-150.932 -241.408)" fill="#c57a44"/>
          </g>
          <g id="Grupo_1189168" data-name="Grupo 1189168" transform="translate(8.244 13.176)">
            <path id="Trazado_877889" data-name="Trazado 877889" d="M151.875,319.012l1.524-1.875a.515.515,0,0,0-.4-.839h-2.25a.515.515,0,0,0-.4.839Z" transform="translate(-150.234 -316.298)" fill="#7a6d79"/>
          </g>
          <g id="Grupo_1189169" data-name="Grupo 1189169" transform="translate(17.7)">
            <circle id="Elipse_11536" data-name="Elipse 11536" cx="1.977" cy="1.977" r="1.977" transform="translate(0)" fill="#fff"/>
          </g>
          <g id="Grupo_1189170" data-name="Grupo 1189170" transform="translate(18.792)">
            <path id="Trazado_877890" data-name="Trazado 877890" d="M257.831,183a1.965,1.965,0,0,0-.884.211,1.974,1.974,0,0,1,0,3.532,1.976,1.976,0,1,0,.884-3.743Z" transform="translate(-256.947 -183)" fill="#f2fbff"/>
          </g>
        </g>
        <g id="Grupo_1189172" data-name="Grupo 1189172" transform="translate(6.215 8.345)">
          <path id="Trazado_877891" data-name="Trazado 877891" d="M40.511,84.428H15.855l-2.88,6.337H43.391Z" transform="translate(-12.975 -84.428)" fill="#fff0ad"/>
        </g>
        <g id="Grupo_1189173" data-name="Grupo 1189173" transform="translate(29.334 8.345)">
          <path id="Trazado_877892" data-name="Trazado 877892" d="M251.278,84.428h-4.417l2.88,6.337h4.417Z" transform="translate(-246.861 -84.428)" fill="#ffe177"/>
        </g>
        <path id="Trazado_877893" data-name="Trazado 877893" d="M125.48,35.935h-7.413a1.236,1.236,0,1,1,0-2.471h7.413a1.236,1.236,0,0,1,0,2.471Z" transform="translate(-100.35 -30.156)" fill="#fff"/>
        <g id="Grupo_1189178" data-name="Grupo 1189178" transform="translate(23.577 38.218)">
          <g id="Grupo_1189174" data-name="Grupo 1189174" transform="translate(3.824)">
            <path id="Trazado_877894" data-name="Trazado 877894" d="M243.745,390.414a2.826,2.826,0,0,0-4.49-3.1,2.824,2.824,0,0,0-3.651,0,2.824,2.824,0,0,0-3.651,0,2.827,2.827,0,0,0-4.49,3.1Z" transform="translate(-227.301 -386.641)" fill="#d88a55"/>
          </g>
          <g id="Grupo_1189175" data-name="Grupo 1189175" transform="translate(16.057)">
            <path id="Trazado_877895" data-name="Trazado 877895" d="M352.34,389.468a2.815,2.815,0,0,1-.164.946h3.1a2.826,2.826,0,0,0-4.211-3.311A2.823,2.823,0,0,1,352.34,389.468Z" transform="translate(-351.061 -386.641)" fill="#c57a44"/>
          </g>
          <g id="Grupo_1189176" data-name="Grupo 1189176" transform="translate(0 3.674)">
            <path id="Trazado_877896" data-name="Trazado 877896" d="M212.8,430.5l-1.851-6a.988.988,0,0,0-.944-.7H191.409a.989.989,0,0,0-.947.7l-1.805,6a.988.988,0,0,0,.947,1.273h22.248A.988.988,0,0,0,212.8,430.5Z" transform="translate(-188.614 -423.807)" fill="#fe646f"/>
          </g>
          <g id="Grupo_1189177" data-name="Grupo 1189177" transform="translate(17.264 3.674)">
            <path id="Trazado_877897" data-name="Trazado 877897" d="M370.183,430.5l-1.851-6a.988.988,0,0,0-.944-.7h-4.122a.988.988,0,0,1,.944.7l1.851,6a.988.988,0,0,1-.944,1.28h4.122A.988.988,0,0,0,370.183,430.5Z" transform="translate(-363.265 -423.807)" fill="#fd4755"/>
          </g>
        </g>
        <g id="Grupo_1189180" data-name="Grupo 1189180" transform="translate(11.545 3.308)">
          <circle id="Elipse_11537" data-name="Elipse 11537" cx="1.236" cy="1.236" r="1.236" transform="translate(0)" fill="#fff"/>
          <g id="Grupo_1189179" data-name="Grupo 1189179" transform="translate(17.298)">
            <circle id="Elipse_11538" data-name="Elipse 11538" cx="1.236" cy="1.236" r="1.236" fill="#fff"/>
          </g>
        </g>
        <g id="Grupo_1189181" data-name="Grupo 1189181" transform="translate(5.474)">
          <path id="Trazado_877898" data-name="Trazado 877898" d="M52.777,10.046H35.339l-.846-1.862V4.072A4.076,4.076,0,0,0,30.421,0h-18A4.076,4.076,0,0,0,8.354,4.072V8.185L5.54,14.375v0a.737.737,0,0,0-.065.3V47.418A2.227,2.227,0,0,0,7.7,49.642h3.907a.741.741,0,1,0,0-1.483H7.7a.742.742,0,0,1-.741-.741V20.429h5.316a5.755,5.755,0,0,0,5.7-5.006H35.89V37.877c-.063.033-.125.066-.186.1a3.565,3.565,0,0,0-3.651,0,3.564,3.564,0,0,0-4.672.916H11.73A1.732,1.732,0,0,0,10,40.626V42.85a1.732,1.732,0,0,0,1.73,1.73H24.053l-1.077,3.579H15.065a.741.741,0,1,0,0,1.483h7.948a1.76,1.76,0,0,0,.165.27,1.714,1.714,0,0,0,1.388.7H46.814a1.73,1.73,0,0,0,1.653-2.24l-1.2-3.878h5.507A2.227,2.227,0,0,0,55,42.268v-30a2.227,2.227,0,0,0-2.224-2.224Zm-40.5,8.9H6.957V15.424h9.514A4.271,4.271,0,0,1,12.273,18.947ZM7.367,13.941,9.573,9.087H25.3a.741.741,0,1,0,0-1.483H9.837V4.072a2.592,2.592,0,0,1,2.589-2.589h18A2.592,2.592,0,0,1,33.01,4.072V7.6H28.755a.741.741,0,0,0,0,1.483h4.519l2.206,4.854ZM30.228,38.96a2.085,2.085,0,0,1,1.346.494.741.741,0,0,0,.958,0,2.083,2.083,0,0,1,2.693,0,.741.741,0,0,0,.958,0,2.083,2.083,0,0,1,2.693,0,.741.741,0,0,0,.958,0,2.085,2.085,0,0,1,3.432,1.592c0,.035,0,.071,0,.106H28.145c0-.035,0-.07,0-.106a2.088,2.088,0,0,1,2.085-2.085ZM11.73,43.1a.247.247,0,0,1-.247-.247V40.626a.247.247,0,0,1,.247-.247H26.723a3.573,3.573,0,0,0-.063.666c0,.035,0,.07,0,.106h-.292a1.719,1.719,0,0,0-1.656,1.231L24.5,43.1Zm35.282,5.929a.243.243,0,0,1-.2.1H24.566a.247.247,0,0,1-.237-.318l1.805-6a.246.246,0,0,1,.237-.176H44.962a.246.246,0,0,1,.236.174l1.851,6A.242.242,0,0,1,47.013,49.026Zm6.506-6.759a.742.742,0,0,1-.741.741H46.812l-.2-.639a1.721,1.721,0,0,0-1.653-1.22h-.216c0-.035,0-.07,0-.106a3.567,3.567,0,0,0-5.394-3.065,3.571,3.571,0,0,0-1.826-.5c-.052,0-.1,0-.157.005V35.733H53.518v6.535Zm0-12.056H49.167a.741.741,0,1,0,0,1.483h4.352V34.25H37.373V31.694h8.334a.741.741,0,0,0,0-1.483H37.373V14.682a.736.736,0,0,0-.066-.3v0l-1.294-2.846H52.777a.742.742,0,0,1,.741.741V30.212Z" transform="translate(-5.474)"/>
          <path id="Trazado_877899" data-name="Trazado 877899" d="M365.532,202.173a.909.909,0,0,1-.475-.511,2.976,2.976,0,0,0-5.52,0,.909.909,0,0,1-.475.511,2.976,2.976,0,0,0,1.019,5.712q.072,0,.143,0a2.962,2.962,0,0,0,1.553-.437.99.99,0,0,1,1.039,0,2.966,2.966,0,0,0,1.7.434,2.976,2.976,0,0,0,1.02-5.712Zm.329,2.814a1.493,1.493,0,0,1-2.269,1.2,2.466,2.466,0,0,0-2.589,0,1.493,1.493,0,1,1-1.361-2.649,2.38,2.38,0,0,0,1.271-1.321,1.493,1.493,0,0,1,2.77,0,2.379,2.379,0,0,0,1.271,1.321A1.5,1.5,0,0,1,365.861,204.986Z" transform="translate(-322.477 -180.05)"/>
          <path id="Trazado_877900" data-name="Trazado 877900" d="M350.261,153.981a1.787,1.787,0,0,0-1.219.5,2.594,2.594,0,0,0,.1-.707,2.134,2.134,0,0,0-1.957-2.27,2.025,2.025,0,0,0-1.878,1.633,2.025,2.025,0,0,0-1.878-1.633,2.134,2.134,0,0,0-1.957,2.27,2.594,2.594,0,0,0,.1.707,1.787,1.787,0,0,0-1.218-.5,2.3,2.3,0,1,0,1.957,2.27,2.6,2.6,0,0,0-.1-.707,1.788,1.788,0,0,0,1.218.5,2.025,2.025,0,0,0,1.878-1.633,2.025,2.025,0,0,0,1.878,1.633,1.787,1.787,0,0,0,1.218-.5,2.6,2.6,0,0,0-.1.707,1.978,1.978,0,1,0,1.957-2.27Zm-9.911,3.058c-.224,0-.474-.337-.474-.788s.25-.788.474-.788.474.337.474.788S340.574,157.039,340.35,157.039Zm3.078-2.481c-.224,0-.474-.337-.474-.788s.25-.788.474-.788.474.337.474.788S343.651,154.558,343.428,154.558Zm3.755,0c-.224,0-.474-.337-.474-.788s.25-.788.474-.788.474.337.474.788S347.407,154.558,347.183,154.558Zm3.078,2.481c-.224,0-.474-.337-.474-.788s.25-.788.474-.788.474.337.474.788S350.484,157.039,350.26,157.039Z" transform="translate(-305.485 -136.525)"/>
          <path id="Trazado_877901" data-name="Trazado 877901" d="M78.023,221.022l-2.445-1.181a2.988,2.988,0,0,0-3.935,1.272,9.241,9.241,0,0,0-3.369,0,2.987,2.987,0,0,0-3.935-1.272l-2.445,1.181a4.558,4.558,0,0,0-2.562,4.082v.877a2.979,2.979,0,0,0,3.31,2.978l1.162,3.577a3.736,3.736,0,0,0,3.562,2.588h5.183a3.736,3.736,0,0,0,3.562-2.588l1.162-3.577a2.994,2.994,0,0,0,3.31-2.978V225.1A4.559,4.559,0,0,0,78.023,221.022Zm-15.7,6.471a1.511,1.511,0,0,1-1.5-1.512V225.1a3.068,3.068,0,0,1,1.724-2.747l2.445-1.181a1.514,1.514,0,0,1,1.727.293c.019.019.036.038.054.058a9.312,9.312,0,0,0-2.258,1.207A5.336,5.336,0,0,0,62.318,227.493Zm7.641,3.154-.648-.8h1.3Zm5.985-2.388-1.241,3.82a2.257,2.257,0,0,1-2.152,1.564H70.7v-1.557l1.358-1.671a1.256,1.256,0,0,0-.975-2.048h-2.25a1.256,1.256,0,0,0-.975,2.048l1.358,1.671v1.557h-1.85a2.257,2.257,0,0,1-2.152-1.564l-1.241-3.82a3.859,3.859,0,0,1,1.405-4.325,7.8,7.8,0,0,1,2.566-1.226c.021,0,.042-.008.063-.013s.043-.012.063-.02a7.763,7.763,0,0,1,3.774,0c.021.007.041.014.063.02s.042.009.064.013a7.8,7.8,0,0,1,2.566,1.226,3.859,3.859,0,0,1,1.406,4.325Zm3.158-2.277a1.511,1.511,0,0,1-1.5,1.512,5.336,5.336,0,0,0-2.19-4.759,9.312,9.312,0,0,0-2.258-1.207c.018-.02.035-.039.054-.058a1.514,1.514,0,0,1,1.727-.292l2.445,1.181A3.068,3.068,0,0,1,79.1,225.1Z" transform="translate(-54.009 -197.842)"/>
          <path id="Trazado_877902" data-name="Trazado 877902" d="M131.027,283.147a.741.741,0,0,0-.741.741v.821a.741.741,0,1,0,1.483,0v-.821A.741.741,0,0,0,131.027,283.147Z" transform="translate(-117.949 -255.159)"/>
          <path id="Trazado_877903" data-name="Trazado 877903" d="M189.118,283.147a.741.741,0,0,0-.741.741v.821a.741.741,0,1,0,1.483,0v-.821A.741.741,0,0,0,189.118,283.147Z" transform="translate(-170.298 -255.159)"/>
          <path id="Trazado_877904" data-name="Trazado 877904" d="M243.832,178.218a2.718,2.718,0,1,0-2.718,2.718A2.721,2.721,0,0,0,243.832,178.218Zm-3.954,0a1.236,1.236,0,1,1,1.236,1.236A1.237,1.237,0,0,1,239.878,178.218Z" transform="translate(-215.372 -158.152)"/>
          <path id="Trazado_877905" data-name="Trazado 877905" d="M118.721,25.964h-7.414a1.977,1.977,0,0,0,0,3.954h7.414a1.977,1.977,0,0,0,0-3.954Zm0,2.471h-7.414a.494.494,0,0,1,0-.988h7.414a.494.494,0,0,1,0,.988Z" transform="translate(-99.065 -23.398)"/>
          <path id="Trazado_877906" data-name="Trazado 877906" d="M270.851,456.817h-8.3a.741.741,0,1,0,0,1.483h8.3a.741.741,0,0,0,0-1.483Z" transform="translate(-236.468 -411.662)"/>
          <path id="Trazado_877907" data-name="Trazado 877907" d="M61.372,25.964a1.977,1.977,0,1,0,1.977,1.977A1.979,1.979,0,0,0,61.372,25.964Zm0,2.471a.494.494,0,1,1,.494-.494A.495.495,0,0,1,61.372,28.435Z" transform="translate(-54.065 -23.398)"/>
          <path id="Trazado_877908" data-name="Trazado 877908" d="M236.372,29.918a1.977,1.977,0,1,0-1.977-1.977A1.979,1.979,0,0,0,236.372,29.918Zm0-2.471a.494.494,0,1,1-.494.494A.495.495,0,0,1,236.372,27.447Z" transform="translate(-211.767 -23.398)"/>
        </g>
      </g>
    </g>
  </g>
</svg>
