<svg xmlns="http://www.w3.org/2000/svg" width="84.208" height="84.207" viewBox="0 0 84.208 84.207">
  <g id="Grupo_1188950" data-name="Grupo 1188950" transform="translate(-872.726 -278.777)">
    <g id="Grupo_1188789" data-name="Grupo 1188789" transform="translate(583.726 -5835.222)">
      <rect id="Rectángulo_400898" data-name="Rectángulo 400898" width="75.49" height="75.489" rx="37.744" transform="translate(293.36 6118.358)" fill="#ffd907"/>
      <rect id="Rectángulo_400907" data-name="Rectángulo 400907" width="75.49" height="75.489" rx="37.744" transform="translate(293.36 6118.358)" fill="none"/>
      <g id="Grupo_1098742" data-name="Grupo 1098742" transform="translate(289 6114)">
        <g id="Rectángulo_400898-2" data-name="Rectángulo 400898" transform="translate(0)" fill="none" stroke="#fff" stroke-width="1" opacity="0.859">
          <rect width="84.208" height="84.207" rx="42.104" stroke="none"/>
          <rect x="0.5" y="0.5" width="83.208" height="83.207" rx="41.604" fill="none"/>
        </g>
        <g id="Rectángulo_400907-2" data-name="Rectángulo 400907" transform="translate(0)" fill="none" stroke="#0f1f33" stroke-linecap="round" stroke-width="1">
          <rect width="84.208" height="84.207" rx="42.104" stroke="none"/>
          <rect x="0.5" y="0.5" width="83.208" height="83.207" rx="41.604" fill="none"/>
        </g>
      </g>
      <g id="Grupo_1189182" data-name="Grupo 1189182" transform="translate(306.343 6121.723)">
        <g id="Grupo_1189183" data-name="Grupo 1189183" transform="translate(0.737 10.967)">
          <path id="Trazado_877909" data-name="Trazado 877909" d="M114.078,55.613H101.33A9.787,9.787,0,0,0,91.543,65.4V76.963a9.787,9.787,0,0,0,9.787,9.787h12.748a9.787,9.787,0,0,0,9.787-9.787V65.4A9.787,9.787,0,0,0,114.078,55.613Z" transform="translate(-83.284 -51.89)" fill="#d09080"/>
          <path id="Trazado_877910" data-name="Trazado 877910" d="M111.8,86.748H101.331a9.787,9.787,0,0,1-9.787-9.787V65.4a9.787,9.787,0,0,1,9.787-9.787H111.8a9.787,9.787,0,0,0-9.787,9.787V76.961a9.786,9.786,0,0,0,9.787,9.787Z" transform="translate(-83.285 -51.888)" fill="#c67d66"/>
          <path id="Trazado_877911" data-name="Trazado 877911" d="M54.18,297.23a5.711,5.711,0,1,0-9.261-4.635h-26a5.711,5.711,0,1,0-9.261,4.635,5.711,5.711,0,1,0,9.261,4.636h26a5.711,5.711,0,1,0,9.261-4.636Z" transform="translate(-7.5 -260.583)" fill="#ffe07d"/>
          <g id="Grupo_1189182-2" data-name="Grupo 1189182" transform="translate(0 26.465)">
            <path id="Trazado_877912" data-name="Trazado 877912" d="M396.062,287.433A5.71,5.71,0,0,0,388.3,292.6h4.119A5.713,5.713,0,0,1,396.062,287.433Z" transform="translate(-350.875 -287.049)" fill="#ffd064"/>
            <path id="Trazado_877913" data-name="Trazado 877913" d="M11.618,301.7a5.7,5.7,0,0,1,2.158-4.47,5.71,5.71,0,0,1,1.494-9.8,5.711,5.711,0,0,0-5.613,9.8,5.711,5.711,0,0,0,5.613,9.8A5.712,5.712,0,0,1,11.618,301.7Z" transform="translate(-7.499 -287.049)" fill="#ffd064"/>
            <path id="Trazado_877914" data-name="Trazado 877914" d="M392.414,437.834H388.3A5.71,5.71,0,0,0,396.062,443,5.713,5.713,0,0,1,392.414,437.834Z" transform="translate(-350.875 -423.017)" fill="#ffd064"/>
          </g>
          <path id="Trazado_877915" data-name="Trazado 877915" d="M158.172,232.986H152.8a5.292,5.292,0,0,0-5.292,5.292V243.9a5.33,5.33,0,1,0,10.661,0,5.33,5.33,0,0,0,10.661,0v-5.623a5.292,5.292,0,0,0-5.292-5.292h-5.369Z" transform="translate(-133.753 -211.833)" fill="#f9f6f6"/>
          <path id="Trazado_877916" data-name="Trazado 877916" d="M155.607,248.454a5.331,5.331,0,0,1-8.095-4.558v-5.624a5.292,5.292,0,0,1,5.292-5.291h5.528a5.291,5.291,0,0,0-5.291,5.291V243.9A5.324,5.324,0,0,0,155.607,248.454Z" transform="translate(-133.753 -211.828)" fill="#dddaec"/>
          <path id="Trazado_877917" data-name="Trazado 877917" d="M232.046,55.606h4.708v17.43h-4.708Z" transform="translate(-209.98 -51.884)" fill="#f9f6f6"/>
          <path id="Trazado_877918" data-name="Trazado 877918" d="M236.755,55.606v.154a9.761,9.761,0,0,0-4.708,2.27V55.606Z" transform="translate(-209.981 -51.884)" fill="#dddaec"/>
          <path id="Trazado_877919" data-name="Trazado 877919" d="M209.71,212.322h-5.246a2.708,2.708,0,0,0,0,5.415h.846v1.608a1.777,1.777,0,1,0,3.554,0v-1.608h.846a2.708,2.708,0,0,0,0-5.415Z" transform="translate(-182.668 -193.2)" fill="#30579d"/>
          <path id="Trazado_877920" data-name="Trazado 877920" d="M207.909,220.91a1.778,1.778,0,0,1-2.6-1.576v-1.607h-.846a2.708,2.708,0,0,1,0-5.416h2.491a2.708,2.708,0,1,0,0,5.416v1.607A1.778,1.778,0,0,0,207.909,220.91Z" transform="translate(-182.668 -193.19)" fill="#26457d"/>
          <path id="Trazado_877921" data-name="Trazado 877921" d="M32.489,18.857l-6.4,6.4a3.849,3.849,0,0,0,0,5.444l3.041,3.041a3.849,3.849,0,0,0,6.348-1.431l3.361-9.444a3.849,3.849,0,0,0-6.348-4.013Z" transform="translate(-23.244 -17.729)" fill="#f9f6f6"/>
          <path id="Trazado_877922" data-name="Trazado 877922" d="M30.963,25.148a3.848,3.848,0,0,0,0,5.444L34,33.633a3.684,3.684,0,0,0,.354.313,3.852,3.852,0,0,1-5.233-.2L26.085,30.7a3.848,3.848,0,0,1,0-5.444l6.4-6.4a3.847,3.847,0,0,1,5.094-.308c-.074.061-.145.127-.215.2Z" transform="translate(-23.241 -17.729)" fill="#dddaec"/>
          <path id="Trazado_877923" data-name="Trazado 877923" d="M350.116,18.857l6.4,6.4a3.849,3.849,0,0,1,0,5.444l-3.041,3.041a3.849,3.849,0,0,1-6.348-1.431l-3.361-9.444a3.849,3.849,0,0,1,6.348-4.013Z" transform="translate(-310.523 -17.729)" fill="#f9f6f6"/>
          <path id="Trazado_877924" data-name="Trazado 877924" d="M352.713,34.343a3.851,3.851,0,0,1-5.586-2.024l-3.361-9.445a3.85,3.85,0,0,1,5.586-4.6,3.769,3.769,0,0,0-.761.592,3.852,3.852,0,0,0-.906,4.013l3.362,9.445A3.8,3.8,0,0,0,352.713,34.343Z" transform="translate(-310.52 -17.734)" fill="#dddaec"/>
        </g>
        <g id="Grupo_1189184" data-name="Grupo 1189184" transform="translate(0 10.23)">
          <path id="Trazado_877925" data-name="Trazado 877925" d="M165.094,164.754c0-1.36-.689-2.466-1.535-2.466s-1.535,1.106-1.535,2.466.689,2.466,1.535,2.466S165.094,166.114,165.094,164.754Z" transform="translate(-146.102 -147.346)"/>
          <path id="Trazado_877926" data-name="Trazado 877926" d="M320.267,162.288c-.847,0-1.535,1.106-1.535,2.466s.689,2.466,1.535,2.466,1.535-1.106,1.535-2.466S321.114,162.288,320.267,162.288Z" transform="translate(-287.411 -147.346)"/>
          <path id="Trazado_877927" data-name="Trazado 877927" d="M50.312,43.143a6.455,6.455,0,0,0-8.3-6.18q.04-.46.041-.924V28.719A4.574,4.574,0,0,0,44.213,27.5l3.041-3.041a4.586,4.586,0,0,0,0-6.486l-6.4-6.4a4.581,4.581,0,0,0-7.763,2.495,10.607,10.607,0,0,0-1.557-.116H18.782a10.607,10.607,0,0,0-1.557.116,4.583,4.583,0,0,0-7.763-2.495l-6.4,6.4a4.592,4.592,0,0,0,0,6.486L6.1,27.5a4.574,4.574,0,0,0,2.158,1.216v2.34a.737.737,0,0,0,1.474,0v-2.23a4.64,4.64,0,0,0,.619-.095A4.563,4.563,0,0,0,13.664,25.8l3.361-9.444a4.532,4.532,0,0,0,.2-.795,9.138,9.138,0,0,1,1.553-.133h3.283V29.385A3.453,3.453,0,0,0,19.387,31.4a6.035,6.035,0,0,0-5.629,6.014v4.83h-.926a6.411,6.411,0,0,0-1.887-3.718,6.488,6.488,0,0,0-1.063-.837,9.09,9.09,0,0,1-.15-1.646V34a.737.737,0,0,0-1.474,0V36.04q0,.464.041.924A6.449,6.449,0,0,0,1.8,47.614a6.448,6.448,0,0,0,9.144,9.09,6.41,6.41,0,0,0,1.887-3.718H37.48a6.409,6.409,0,0,0,1.092,2.782.737.737,0,0,0,1.209-.843,4.947,4.947,0,0,1-.888-2.7.737.737,0,0,0-.737-.716h-26a.737.737,0,0,0-.737.716A4.973,4.973,0,1,1,3.354,48.19a.737.737,0,0,0,0-1.153A4.974,4.974,0,1,1,11.419,43a.737.737,0,0,0,.737.716H13.8a6.071,6.071,0,0,0,11.361,2.22,6.066,6.066,0,0,0,11.357-2.22h1.642A.737.737,0,0,0,38.894,43a4.973,4.973,0,1,1,8.065,4.038.737.737,0,0,0,0,1.153,4.974,4.974,0,0,1-5.217,8.393.737.737,0,0,0-.632,1.332,6.375,6.375,0,0,0,2.755.618,6.448,6.448,0,0,0,4.647-10.918,6.41,6.41,0,0,0,1.8-4.47ZM15.637,15.86,12.275,25.3a3.112,3.112,0,0,1-5.133,1.157L4.1,23.42a3.113,3.113,0,0,1,0-4.4l6.4-6.4a3.113,3.113,0,0,1,4.4,0A3.127,3.127,0,0,1,15.637,15.86Zm19.771-3.244a3.113,3.113,0,0,1,4.4,0l6.4,6.4a3.112,3.112,0,0,1,0,4.4L43.17,26.461A3.112,3.112,0,0,1,38.038,25.3L34.676,15.86a3.127,3.127,0,0,1,.731-3.244Zm-8.634,2.811V29.352H23.539V15.426Zm-4.24,15.4h5.246a1.971,1.971,0,0,1,0,3.941h-.846a.737.737,0,0,0-.737.737v1.608a1.04,1.04,0,1,1-2.08,0V35.5a.737.737,0,0,0-.737-.737h-.846a1.971,1.971,0,0,1,0-3.941ZM35.08,43.034a4.593,4.593,0,1,1-9.187,0,.737.737,0,1,0-1.474,0,4.593,4.593,0,1,1-9.187,0V37.412a4.562,4.562,0,0,1,3.86-4.5,3.448,3.448,0,0,0,3.442,3.331h.109v.871a2.514,2.514,0,0,0,5.028,0v-.871h.109a3.448,3.448,0,0,0,3.442-3.331,4.562,4.562,0,0,1,3.859,4.5v5.623Zm2.4-.793h-.926v-4.83A6.035,6.035,0,0,0,30.926,31.4a3.453,3.453,0,0,0-2.679-2.013V15.426h3.283a9.146,9.146,0,0,1,1.553.133,4.525,4.525,0,0,0,.2.8L36.649,25.8a4.563,4.563,0,0,0,3.312,2.936,4.653,4.653,0,0,0,.62.095V36.04a9.1,9.1,0,0,1-.15,1.646,6.486,6.486,0,0,0-1.064.838,6.409,6.409,0,0,0-1.887,3.718Z" transform="translate(0 -10.23)"/>
        </g>
      </g>
    </g>
  </g>
</svg>
