<svg xmlns="http://www.w3.org/2000/svg" width="84.208" height="84.207" viewBox="0 0 84.208 84.207">
  <g id="Grupo_1188969" data-name="Grupo 1188969" transform="translate(-872.762 -278.583)">
    <g id="Grupo_1188789" data-name="Grupo 1188789" transform="translate(583.726 -5835.222)">
      <rect id="Rectángulo_400898" data-name="Rectángulo 400898" width="75.49" height="75.489" rx="37.744" transform="translate(293.36 6118.358)" fill="#ffd907"/>
      <rect id="Rectángulo_400907" data-name="Rectángulo 400907" width="75.49" height="75.489" rx="37.744" transform="translate(293.034 6118.805)" fill="none"/>
      <g id="Grupo_1098742" data-name="Grupo 1098742" transform="translate(289.035 6113.805)">
        <g id="Rectángulo_400898-2" data-name="Rectángulo 400898" transform="translate(0)" fill="none" stroke="#fff" stroke-width="1" opacity="0.859">
          <rect width="84.208" height="84.207" rx="42.104" stroke="none"/>
          <rect x="0.5" y="0.5" width="83.208" height="83.207" rx="41.604" fill="none"/>
        </g>
        <g id="Rectángulo_400907-2" data-name="Rectángulo 400907" transform="translate(0)" fill="none" stroke="#0f1f33" stroke-linecap="round" stroke-width="1">
          <rect width="84.208" height="84.207" rx="42.104" stroke="none"/>
          <rect x="0.5" y="0.5" width="83.208" height="83.207" rx="41.604" fill="none"/>
        </g>
      </g>
      <g id="Filled_outline" data-name="Filled outline" transform="translate(299.035 6123.807)">
        <path id="Trazado_877928" data-name="Trazado 877928" d="M55,48V34H31l-6,1L15,39H11v9h0a3,3,0,0,0-3,3H8a3,3,0,0,0,3,3H55a3,3,0,0,0,3-3h0A3,3,0,0,0,55,48Z" fill="#2d75bb"/>
        <path id="Trazado_877929" data-name="Trazado 877929" d="M25,20V40a3,3,0,0,0,3,3h0a3,3,0,0,0,3-3V34H41a2,2,0,0,0-1.973,2.336A2.075,2.075,0,0,0,41.107,38H51V28c0-3.658-2.353-5.719-6-6Z" fill="#f9bb4b"/>
        <path id="Trazado_877930" data-name="Trazado 877930" d="M59,40V34a4,4,0,0,0-4-4H51v4h4v6a4,4,0,0,0,4,4h2Z" fill="#66342e"/>
        <path id="Trazado_877931" data-name="Trazado 877931" d="M25,20H15a4,4,0,0,0-4,4v5H6v6a4,4,0,0,0,4,4h5l10-4Z" fill="#f9bb4b"/>
        <circle id="Elipse_11539" data-name="Elipse 11539" cx="3" cy="3" r="3" transform="translate(3 26)" fill="#394d5c"/>
        <path id="Trazado_877932" data-name="Trazado 877932" d="M25.039,36h0c-2.123,0-3.262-1.893-3-4l1-12H25l2.055.2L28.037,32C28.3,34.107,27.162,36,25.039,36Z" fill="#66342e"/>
        <path id="Trazado_877933" data-name="Trazado 877933" d="M43,24V21.8L31,20.6V28a2,2,0,0,0,4,0V24a2,2,0,0,1,4,0,2,2,0,0,0,4,0Z" fill="#66342e"/>
        <path id="Trazado_877934" data-name="Trazado 877934" d="M5,32.858V35a5.006,5.006,0,0,0,5,5v7.125A4,4,0,0,0,11,55H55a4,4,0,0,0,1-7.875V43.974A4.948,4.948,0,0,0,59,45h2a1,1,0,0,0,.9-1.447L60,39.764V34a5.006,5.006,0,0,0-5-5H52V28c0-4.049-2.588-6.665-6.9-7L25,19H15a5.006,5.006,0,0,0-5,5v4H9.858A3.992,3.992,0,1,0,5,32.858ZM52,31h3a3,3,0,0,1,3,3v6a1,1,0,0,0,.1.447L59.382,43H59a3,3,0,0,1-3-3V34a1,1,0,0,0-1-1H52Zm-1,8a1,1,0,0,0,1-1V35h2V47H40v2H55a2,2,0,0,1,0,4H11a2,2,0,0,1,0-4H28V47H12V40h3a1,1,0,0,0,.371-.071l8.1-3.241a3.91,3.91,0,0,0,.528.168V40a4,4,0,0,0,8,0V35h6.173a3.013,3.013,0,0,0-.13,1.5A3.083,3.083,0,0,0,41.11,39ZM42,22.7V24a1,1,0,0,1-2,0,2.969,2.969,0,0,0-.438-1.539Zm-10-1,2.793.279A2.978,2.978,0,0,0,34,24v4a1,1,0,0,1-2,0ZM29.033,31.917l-.882-10.6L30,21.5V28a3,3,0,1,0,6,0V24a1,1,0,0,1,2,0,3,3,0,0,0,6,0V22.905l.924.092c1.9.146,5.076.988,5.076,5v9H41.11a1.083,1.083,0,0,1-1.093-.825A1,1,0,0,1,41,35h6V33H43.444c-.573-.678-1.309-1.846-1.008-2.565C42.576,30.1,43.392,29,48,29V27c-4.243,0-6.668.874-7.413,2.671A3.831,3.831,0,0,0,41.014,33H31a1,1,0,0,0-1,1v6a2,2,0,0,1-4,0V36.879a3.76,3.76,0,0,0,1.978-1.167,4.823,4.823,0,0,0,1.055-3.8Zm-6,.166L23.957,21h.992l1.178.118.918,11.006a2.879,2.879,0,0,1-.566,2.265,1.837,1.837,0,0,1-1.44.611h0a1.834,1.834,0,0,1-1.439-.611,2.916,2.916,0,0,1-.567-2.306ZM9.858,30H11a1,1,0,0,0,1-1V24a3,3,0,0,1,3-3h6.951l-.906,10.876a5,5,0,0,0,.713,3.344L14.808,38H12.091c.225-1.461,1.029-4,3.909-4V32c-4.151,0-5.63,3.5-5.936,6H10a3,3,0,0,1-3-3V32.858A4,4,0,0,0,9.858,30ZM6,27a2,2,0,1,1-2,2,2,2,0,0,1,2-2Z"/>
        <path id="Trazado_877935" data-name="Trazado 877935" d="M19,28V26a5.443,5.443,0,0,1-4.168-2.555l-1.664,1.11A7.442,7.442,0,0,0,19,28Z"/>
        <rect id="Rectángulo_402928" data-name="Rectángulo 402928" width="2" height="2" transform="translate(15 28)"/>
        <rect id="Rectángulo_402929" data-name="Rectángulo 402929" width="2" height="2" transform="translate(36 47)"/>
        <path id="Trazado_877936" data-name="Trazado 877936" d="M38,11a4.128,4.128,0,0,1-1.938-.419,6.69,6.69,0,0,0-5.454,0,4.7,4.7,0,0,1-3.88,0A6.067,6.067,0,0,0,24,10v2a4.134,4.134,0,0,1,1.94.419,6.7,6.7,0,0,0,5.456,0,4.694,4.694,0,0,1,3.877,0A6.069,6.069,0,0,0,38,13Z"/>
        <path id="Trazado_877937" data-name="Trazado 877937" d="M31.336,14a6.067,6.067,0,0,0-2.728.581,4.7,4.7,0,0,1-3.88,0A6.067,6.067,0,0,0,22,14v2a4.134,4.134,0,0,1,1.94.419A6.067,6.067,0,0,0,26.668,17a6.067,6.067,0,0,0,2.728-.581,4.694,4.694,0,0,1,3.877,0A6.069,6.069,0,0,0,36,17V15a4.128,4.128,0,0,1-1.938-.419A6.061,6.061,0,0,0,31.336,14Z"/>
      </g>
    </g>
  </g>
</svg>
