<svg xmlns="http://www.w3.org/2000/svg" width="84.208" height="84.207" viewBox="0 0 84.208 84.207">
  <g id="Grupo_1188971" data-name="Grupo 1188971" transform="translate(-872.762 -278.583)">
    <g id="Grupo_1188789" data-name="Grupo 1188789" transform="translate(583.726 -5835.222)">
      <rect id="Rectángulo_400898" data-name="Rectángulo 400898" width="75.49" height="75.489" rx="37.744" transform="translate(293.034 6118.805)" fill="#ffd907"/>
      <rect id="Rectángulo_400907" data-name="Rectángulo 400907" width="75.49" height="75.489" rx="37.744" transform="translate(293.034 6118.805)" fill="none"/>
      <g id="Grupo_1098742" data-name="Grupo 1098742" transform="translate(289.035 6113.805)">
        <g id="Rectángulo_400898-2" data-name="Rectángulo 400898" transform="translate(0)" fill="none" stroke="#fff" stroke-width="1" opacity="0.859">
          <rect width="84.208" height="84.207" rx="42.104" stroke="none"/>
          <rect x="0.5" y="0.5" width="83.208" height="83.207" rx="41.604" fill="none"/>
        </g>
        <g id="Rectángulo_400907-2" data-name="Rectángulo 400907" transform="translate(0)" fill="none" stroke="#0f1f33" stroke-linecap="round" stroke-width="1">
          <rect width="84.208" height="84.207" rx="42.104" stroke="none"/>
          <rect x="0.5" y="0.5" width="83.208" height="83.207" rx="41.604" fill="none"/>
        </g>
      </g>
      <g id="Grupo_1189186" data-name="Grupo 1189186" transform="translate(305.029 6129.804)">
        <path id="Trazado_877948" data-name="Trazado 877948" d="M57.862,39.463a33.556,33.556,0,0,1-1.379-3.724c1.571-1.065,2.345-4.549,2.254-8.1-.1-3.707-1.4-14.842-3.436-16.659C51.668,7.738,46.272,13,41.308,21.463a48.442,48.442,0,0,0-6.453-.612,48.442,48.442,0,0,0-6.453.612C23.435,13,18.179,7.738,14.545,10.977c-2.04,1.817-3.34,12.952-3.431,16.659-.092,3.555.644,6.909,2.138,8.027a33.932,33.932,0,0,1-1.4,3.8c-1.413,3.028-4.083,8.982,1.97,14.8,5.729,5.512,21.033,5.4,21.033,5.4s15.3.115,21.037-5.4C61.943,48.444,59.275,42.494,57.862,39.463Z" transform="translate(-9.011 -9)" fill="#fff4e9"/>
        <path id="Trazado_877949" data-name="Trazado 877949" d="M57.856,39.463a33.556,33.556,0,0,1-1.379-3.724c1.571-1.065,2.345-4.549,2.254-8.1-.1-3.707-1.4-14.842-3.436-16.659C51.661,7.738,46.266,13,41.3,21.463a48.442,48.442,0,0,0-6.453-.612,48.442,48.442,0,0,0-6.453.612C23.428,13,18.173,7.738,14.539,10.977c-2.04,1.817-3.34,12.952-3.431,16.659-.092,3.555.644,6.909,2.138,8.027a33.932,33.932,0,0,1-1.4,3.8c-1.1,2.365-2.971,6.507-.863,10.977.065-5.625,3.965-8.64,7.315-10.2a17.551,17.551,0,0,1,6.324-1.557,12.027,12.027,0,0,0,5.265-1.349c3.777-2.205,1.171-11.884,4.882-11.884s1.1,9.676,4.885,11.881a11.967,11.967,0,0,0,5.264,1.349,17.561,17.561,0,0,1,6.325,1.557c3.347,1.555,7.247,4.574,7.316,10.2,0,.108.005.21.011.3C60.909,46.159,58.982,41.882,57.856,39.463Z" transform="translate(-9.004 -9)" fill="#ffb850"/>
        <path id="Trazado_877950" data-name="Trazado 877950" d="M360.11,58.5s4.162-8.982,7.232-8.34c1.786.375,2.725,9.413,2.786,11.68a9.161,9.161,0,0,1-.706,4.16S366.848,58.9,360.11,58.5Z" transform="translate(-323.761 -45.065)" fill="#fff4e9"/>
        <path id="Trazado_877951" data-name="Trazado 877951" d="M380.855,107.012c-1.413-.223-3.105,1.362-4.355,2.86a11.124,11.124,0,0,1,6.706,5.349,6.331,6.331,0,0,0,.017-.748C383.174,113.021,382.373,107.251,380.855,107.012Z" transform="translate(-338.497 -96.192)" fill="#ffd7b6"/>
        <path id="Trazado_877952" data-name="Trazado 877952" d="M63.979,58.5s-4.166-8.985-7.233-8.34c-1.785.375-2.725,9.413-2.786,11.68a9.176,9.176,0,0,0,.706,4.16S57.241,58.9,63.979,58.5Z" transform="translate(-48.505 -45.062)" fill="#fff4e9"/>
        <path id="Trazado_877953" data-name="Trazado 877953" d="M75.589,109.9c-1.251-1.506-2.953-3.11-4.378-2.888-1.514.239-2.321,6.009-2.369,7.456a6.432,6.432,0,0,0,.036.953A11.289,11.289,0,0,1,75.589,109.9Z" transform="translate(-61.886 -96.196)" fill="#ffd7b6"/>
        <g id="Grupo_1189186-2" data-name="Grupo 1189186" transform="translate(1.013 18.901)">
          <path id="Trazado_877954" data-name="Trazado 877954" d="M55.852,357.808c-5.733,5.512-21.037,5.4-21.037,5.4s-15.3.115-21.037-5.4a11.5,11.5,0,0,1-3.655-6.438c-.45,2.9.087,6.372,3.655,9.8,5.733,5.512,21.037,5.4,21.037,5.4s15.3.115,21.037-5.4c3.569-3.431,4.106-6.906,3.655-9.8A11.506,11.506,0,0,1,55.852,357.808Z" transform="translate(-9.986 -334.809)" fill="#ffe1c5"/>
          <path id="Trazado_877955" data-name="Trazado 877955" d="M140.123,190.384c-.41.713-1.691.135-2.767-.114s-1.851-.944-1.615-1.9c.26-1.066,1.2-1.234,2.282-1C139.55,187.7,140.689,189.4,140.123,190.384Z" transform="translate(-123.011 -187.275)" fill="#ffe1c5"/>
          <path id="Trazado_877956" data-name="Trazado 877956" d="M329.545,190.384c.41.713,1.69.135,2.767-.114s1.851-.944,1.615-1.9c-.26-1.066-1.2-1.234-2.281-1C330.118,187.7,328.978,189.4,329.545,190.384Z" transform="translate(-297.161 -187.275)" fill="#ffe1c5"/>
        </g>
        <path id="Trazado_877957" data-name="Trazado 877957" d="M170.085,358.43a6.813,6.813,0,0,1-.993-1.83,6.838,6.838,0,0,1-.992,1.83c-1.951,2.578-5.6,3.711-8.85,3.478,0,0,3.564,5.267,9.764,5.267,6.055,0,9.6-5.028,9.758-5.258C175.56,362.1,172,360.964,170.085,358.43Z" transform="translate(-143.173 -320.61)" fill="#aa0c18"/>
        <path id="Trazado_877958" data-name="Trazado 877958" d="M148.291,285.4a1.009,1.009,0,1,0,1.552,1.291,12.3,12.3,0,0,1,18.368,0,1.009,1.009,0,0,0,1.55-1.293,14.317,14.317,0,0,0-21.47,0Z" transform="translate(-133.111 -252.244)"/>
        <path id="Trazado_877959" data-name="Trazado 877959" d="M95.45,317.36a1.009,1.009,0,0,0-1.4-.285c-.045.03-4.576,3-9,3.313a10.652,10.652,0,0,1-5.366-1,7.1,7.1,0,0,1-2.863-2.451c2.031-.409,3.629-1.595,3.629-2.867,0-1.75-2.594-2.533-5.165-2.533a9.972,9.972,0,0,0-3.286.5c-1.635.6-1.879,1.526-1.879,2.026,0,1.273,1.594,2.453,3.624,2.867a7.1,7.1,0,0,1-2.863,2.451,10.653,10.653,0,0,1-5.366,1c-4.422-.317-8.953-3.283-9-3.313a1.009,1.009,0,1,0-1.11,1.682,24.426,24.426,0,0,0,9.5,3.6c1.01,1.309,4.6,5.315,10.3,5.315,5.627,0,9.254-3.992,10.288-5.294a24.257,24.257,0,0,0,9.673-3.619A1.009,1.009,0,0,0,95.45,317.36Zm-27.814,5.006h-.005a12.351,12.351,0,0,0,4.138-1.16,9.087,9.087,0,0,0,3.517-2.927,8.984,8.984,0,0,0,3.517,2.927,12.306,12.306,0,0,0,4,1.146,10.377,10.377,0,0,1-15.171.013Z" transform="translate(-49.364 -280.097)"/>
        <path id="Trazado_877960" data-name="Trazado 877960" d="M320.9,237.461a1.009,1.009,0,0,0,1.009-1.009,1.7,1.7,0,0,1,3.407,0,1.009,1.009,0,0,0,2.018,0,3.722,3.722,0,1,0-7.444,0A1.009,1.009,0,0,0,320.9,237.461Z" transform="translate(-287.601 -209.241)"/>
        <path id="Trazado_877961" data-name="Trazado 877961" d="M120.9,237.461a1.009,1.009,0,0,0,1.009-1.009,1.7,1.7,0,1,1,3.406,0,1.009,1.009,0,0,0,2.018,0,3.722,3.722,0,1,0-7.444,0A1.009,1.009,0,0,0,120.9,237.461Z" transform="translate(-107.79 -209.241)"/>
        <path id="Trazado_877962" data-name="Trazado 877962" d="M75.246,48.388a6.923,6.923,0,0,1,1.782.574,6.274,6.274,0,0,0-.781.336,1.013,1.013,0,0,0,.96,1.783,6.11,6.11,0,0,1,2.583-.589,1.06,1.06,0,0,0,.866-.416,1.023,1.023,0,0,0,.1-1.02,39.416,39.416,0,0,0-2.537-4.542c-2.173-3.307-4.076-4.736-5.822-4.368a1.011,1.011,0,1,0,.416,1.978c.916-.192,2.569,1.754,3.7,3.478.284.43.552.865.8,1.284a8.341,8.341,0,0,0-1.758-.5,1.011,1.011,0,0,0-.312,2Z" transform="translate(-64.363 -36.043)"/>
        <path id="Trazado_877963" data-name="Trazado 877963" d="M349.781,50.487a6.134,6.134,0,0,1,2.583.588,1.011,1.011,0,1,0,.96-1.779,6.211,6.211,0,0,0-.777-.335,7.013,7.013,0,0,1,1.778-.573,1.011,1.011,0,0,0-.312-2,8.34,8.34,0,0,0-1.758.5c.244-.414.5-.842.788-1.267a14.576,14.576,0,0,1,2.18-2.707c.627-.574,1.187-.861,1.534-.788a1.011,1.011,0,0,0,.416-1.978c-1.745-.368-3.648,1.061-5.82,4.362a39.42,39.42,0,0,0-2.537,4.542,1.023,1.023,0,0,0,.1,1.02A1.06,1.06,0,0,0,349.781,50.487Z" transform="translate(-313.524 -36.043)"/>
        <path id="Trazado_877964" data-name="Trazado 877964" d="M49.765,30.036a28.6,28.6,0,0,1-1.127-2.975c1.649-1.752,2.176-5.4,2.1-8.45a75.542,75.542,0,0,0-1-9.184c-1.153-6.762-2.371-7.85-2.771-8.206A4.58,4.58,0,0,0,43.1.062c-4.117.648-8.377,6.368-11.329,11.3a45.569,45.569,0,0,0-5.931-.519,45.586,45.586,0,0,0-5.931.519C15.731,4.375,11.958.574,8.692.061a4.54,4.54,0,0,0-3.83,1.162c-.4.356-1.615,1.442-2.77,8.206a75.254,75.254,0,0,0-1,9.184c-.077,2.976.422,6.57,1.99,8.349a30.428,30.428,0,0,1-1.156,3.074C.581,32.9-2.547,39.6,4.1,45.994c5.939,5.71,20.993,5.685,21.739,5.68h.122c1.622,0,15.876-.16,21.617-5.68C54.23,39.6,51.1,32.9,49.765,30.036Zm-3.588,14.5c-2.187,2.1-6.366,3.655-12.086,4.49a61.168,61.168,0,0,1-8.243.629h-.015a61.238,61.238,0,0,1-8.215-.621C11.885,48.2,7.7,46.647,5.507,44.54a9.906,9.906,0,0,1-3.477-7.684A15.532,15.532,0,0,1,3.752,30.9a34.717,34.717,0,0,0,1.427-3.85c.175-.541.344-1.084.515-1.627a40.417,40.417,0,0,1,2.17-5.942,7.3,7.3,0,0,1,1.844-2.237,1.013,1.013,0,1,0-1.289-1.564,9.312,9.312,0,0,0-2.347,2.857A38.553,38.553,0,0,0,3.891,24.4a15.6,15.6,0,0,1-.781-5.736,73.188,73.188,0,0,1,.975-8.894C5.068,3.995,6.026,2.893,6.2,2.731a2.509,2.509,0,0,1,1.724-.706,2.856,2.856,0,0,1,.446.036c2.652.417,6.257,4.294,10.139,10.917a1.009,1.009,0,0,0,1.037.485,47.926,47.926,0,0,1,6.288-.6,47.927,47.927,0,0,1,6.288.6,1.009,1.009,0,0,0,1.037-.485C36.988,6.46,40.724,2.483,43.416,2.059a2.514,2.514,0,0,1,2.2.672c.182.162,1.139,1.264,2.119,7.037a72.984,72.984,0,0,1,.975,8.894,14.683,14.683,0,0,1-.87,5.9,39.977,39.977,0,0,0-2.231-6.028,9.312,9.312,0,0,0-2.347-2.857,1.011,1.011,0,0,0-1.287,1.56,7.3,7.3,0,0,1,1.844,2.237,40.2,40.2,0,0,1,2.17,5.942q.255.817.517,1.635a34.739,34.739,0,0,0,1.425,3.842,15.508,15.508,0,0,1,1.722,5.961A9.893,9.893,0,0,1,46.177,44.536Z" transform="translate(0 0)"/>
      </g>
    </g>
  </g>
</svg>
