<svg xmlns="http://www.w3.org/2000/svg" width="84.208" height="84.207" viewBox="0 0 84.208 84.207">
  <g id="Grupo_1188726" data-name="Grupo 1188726" transform="translate(-872.306 -278.578)">
    <g id="Grupo_1188789" data-name="Grupo 1188789" transform="translate(583.726 -5835.222)">
      <rect id="Rectángulo_400898" data-name="Rectángulo 400898" width="75.49" height="75.489" rx="37.744" transform="translate(293.579 6118.8)" fill="#ffd907"/>
      <rect id="Rectángulo_400907" data-name="Rectángulo 400907" width="75.49" height="75.489" rx="37.744" transform="translate(293.36 6118.358)" fill="none"/>
      <g id="Grupo_1098742" data-name="Grupo 1098742" transform="translate(288.58 6113.8)">
        <g id="Rectángulo_400898-2" data-name="Rectángulo 400898" transform="translate(0)" fill="none" stroke="#fff" stroke-width="1" opacity="0.859">
          <rect width="84.208" height="84.207" rx="42.104" stroke="none"/>
          <rect x="0.5" y="0.5" width="83.208" height="83.207" rx="41.604" fill="none"/>
        </g>
        <g id="Rectángulo_400907-2" data-name="Rectángulo 400907" transform="translate(0)" fill="none" stroke="#0f1f33" stroke-linecap="round" stroke-width="1">
          <rect width="84.208" height="84.207" rx="42.104" stroke="none"/>
          <rect x="0.5" y="0.5" width="83.208" height="83.207" rx="41.604" fill="none"/>
        </g>
      </g>
      <g id="Grupo_1189125" data-name="Grupo 1189125" transform="translate(304.58 6129.8)">
        <g id="Grupo_1189131" data-name="Grupo 1189131" transform="translate(0.782 0.782)">
          <path id="Trazado_877773" data-name="Trazado 877773" d="M102,11.411A3.911,3.911,0,0,1,105.911,7.5h24.3a3.911,3.911,0,0,1,3.911,3.911V55.42a3.911,3.911,0,0,1-3.911,3.911h-24.3A3.911,3.911,0,0,1,102,55.42Z" transform="translate(-92.145 -7.5)" fill="#dff8ff"/>
          <path id="Trazado_877774" data-name="Trazado 877774" d="M340.582,11.411V55.42a3.911,3.911,0,0,1-3.911,3.911H332.5a3.911,3.911,0,0,0,3.911-3.911V11.411A3.911,3.911,0,0,0,332.5,7.5h4.172A3.911,3.911,0,0,1,340.582,11.411Z" transform="translate(-298.607 -7.5)" fill="#c0ecfc"/>
          <path id="Trazado_877775" data-name="Trazado 877775" d="M34.5,90.187l-1.919-.357H9.614A2.114,2.114,0,0,0,7.5,91.944V117.4a2.114,2.114,0,0,0,2.114,2.114h2.149a.7.7,0,0,1,.7.7v2.452a.655.655,0,0,0,1.05.523l4.305-3.252a2.114,2.114,0,0,1,1.274-.427H35.356A2.114,2.114,0,0,0,37.47,117.4L36.619,92.3A2.114,2.114,0,0,0,34.5,90.187Z" transform="translate(-7.5 -81.244)" fill="#ffda8f"/>
          <path id="Trazado_877776" data-name="Trazado 877776" d="M248.061,91.945V117.4a2.114,2.114,0,0,1-2.114,2.114H242.61a2.114,2.114,0,0,0,2.114-2.114V91.945a2.115,2.115,0,0,0-2.114-2.115h3.337A2.115,2.115,0,0,1,248.061,91.945Z" transform="translate(-218.091 -81.244)" fill="#fbc96d"/>
          <g id="Grupo_1189127" data-name="Grupo 1189127" transform="translate(8.264 14.248)">
            <g id="Grupo_1189126" data-name="Grupo 1189126">
              <g id="Grupo_1189125-2" data-name="Grupo 1189125">
                <path id="Trazado_877777" data-name="Trazado 877777" d="M91.907,157.6a1.383,1.383,0,0,1-1.292-1.394v-2.973a1.352,1.352,0,0,1,1.347-1.358,2.519,2.519,0,0,0,2.525-2.654,2.518,2.518,0,0,0-5.007-.217,2.557,2.557,0,0,0-.024.32,1.389,1.389,0,0,1-1.341,1.391,1.358,1.358,0,0,1-1.375-1.358,5.234,5.234,0,0,1,10.461-.277,5.192,5.192,0,0,1-1.431,3.88,5.256,5.256,0,0,1-2.286,1.407.21.21,0,0,0-.151.2v1.676a1.358,1.358,0,0,1-1.424,1.357Z" transform="translate(-86.739 -144.127)" fill="#fcbc55"/>
              </g>
            </g>
            <circle id="Elipse_11527" data-name="Elipse 11527" cx="1.358" cy="1.358" r="1.358" transform="translate(3.876 16.204)" fill="#fcbc55"/>
          </g>
          <path id="Trazado_877778" data-name="Trazado 877778" d="M219.233,149.83h22.91l2.224.371a2.114,2.114,0,0,1,2.114,2.114l.171,24.858a2.114,2.114,0,0,1-2.114,2.114l-1.712.221c-.389,0-.859.195-.859.584l-.1,2.14a.655.655,0,0,1-1.05.523l-1.923-1.21-2.129-1.609a2.114,2.114,0,0,0-1.275-.427H219.233a2.114,2.114,0,0,1-2.114-2.114V151.944A2.114,2.114,0,0,1,219.233,149.83Z" transform="translate(-195.258 -134.987)" fill="#52d8a4"/>
          <path id="Trazado_877779" data-name="Trazado 877779" d="M434.133,151.945V177.4a2.114,2.114,0,0,1-2.115,2.114H429.87a.705.705,0,0,0-.7.705v2.452a.654.654,0,0,1-1.049.522l-2.175-1.644v-1.331a.7.7,0,0,1,.7-.705h2.791a1.47,1.47,0,0,0,1.472-1.47V151.945a2.115,2.115,0,0,0-2.114-2.115h3.225A2.115,2.115,0,0,1,434.133,151.945Z" transform="translate(-382.302 -134.987)" fill="#1fc091"/>
          <g id="Grupo_1189130" data-name="Grupo 1189130" transform="translate(25.086 17.906)">
            <g id="Grupo_1189128" data-name="Grupo 1189128" transform="translate(0 10.342)">
              <path id="Trazado_877780" data-name="Trazado 877780" d="M248.046,278.371h5.329l2.387.07v1.192a2.949,2.949,0,0,1-3.1,3.138l-1.1.05a5.068,5.068,0,0,1-.815.054,3.382,3.382,0,0,1-2.7-3.312Z" transform="translate(-248.046 -278.371)" fill="#9b8f96"/>
              <path id="Trazado_877781" data-name="Trazado 877781" d="M278.925,278.374v1.192a3.381,3.381,0,0,1-3.381,3.381h-1.232a3.4,3.4,0,0,1-.717-.076,3.381,3.381,0,0,0,2.665-3.3v-1.192h2.665Z" transform="translate(-270.931 -278.374)" fill="#8c7f8a"/>
            </g>
            <path id="Trazado_877782" data-name="Trazado 877782" d="M350.724,199.835h-2.678v-19.3a1.331,1.331,0,0,1,1.331-1.331h.016a1.331,1.331,0,0,1,1.331,1.331Z" transform="translate(-337.617 -179.202)" fill="#8c7f8a"/>
            <path id="Trazado_877783" data-name="Trazado 877783" d="M320.246,373.475l-1.763.113H310.5a.355.355,0,0,1-.355-.355v-1.287a1.65,1.65,0,0,1,1.65-1.65h5.334l1.752.166a1.746,1.746,0,0,1,1.693,1.718l.025.94A.355.355,0,0,1,320.246,373.475Z" transform="translate(-303.671 -350.367)" fill="#9b8f96"/>
            <path id="Trazado_877784" data-name="Trazado 877784" d="M378.15,371.946v1.287a.355.355,0,0,1-.355.355H375.9v-1.642a1.651,1.651,0,0,0-1.65-1.65H376.5A1.651,1.651,0,0,1,378.15,371.946Z" transform="translate(-361.09 -350.367)" fill="#8c7f8a"/>
            <g id="Grupo_1189129" data-name="Grupo 1189129" transform="translate(15.526 10.342)">
              <path id="Trazado_877785" data-name="Trazado 877785" d="M396.919,278.371h5.329l2.387.07v1.192a2.949,2.949,0,0,1-3.1,3.138l-1.1.05a5.068,5.068,0,0,1-.815.054,3.382,3.382,0,0,1-2.7-3.312Z" transform="translate(-396.919 -278.371)" fill="#9b8f96"/>
              <path id="Trazado_877786" data-name="Trazado 877786" d="M427.8,278.374v1.192a3.381,3.381,0,0,1-3.381,3.381h-1.232a3.4,3.4,0,0,1-.717-.076,3.381,3.381,0,0,0,2.665-3.3v-1.192H427.8Z" transform="translate(-419.804 -278.374)" fill="#8c7f8a"/>
            </g>
            <path id="Trazado_877787" data-name="Trazado 877787" d="M286.145,212.21h0a1.339,1.339,0,0,1-1.339,1.339h-17.02a1.339,1.339,0,0,1-1.339-1.339h0a1.339,1.339,0,0,1,1.339-1.339h17.02A1.339,1.339,0,0,1,286.145,212.21Z" transform="translate(-264.528 -207.568)" fill="#9b8f96"/>
          </g>
        </g>
        <g id="Grupo_1189132" data-name="Grupo 1189132" transform="translate(0)">
          <path id="Trazado_877788" data-name="Trazado 877788" d="M211.532,30a.782.782,0,0,0,0,1.564h5.214a.782.782,0,1,0,0-1.564Z" transform="translate(-188.771 -26.871)"/>
          <path id="Trazado_877789" data-name="Trazado 877789" d="M91.262,142.318a6.016,6.016,0,0,0-12.024.317,2.14,2.14,0,0,0,2.167,2.14,2.18,2.18,0,0,0,2.114-2.163,1.735,1.735,0,1,1,1.718,1.758,2.1,2.1,0,0,0-1.49.618,2.134,2.134,0,0,0-.632,1.523v2.972a2.157,2.157,0,0,0,2.038,2.176l.1,0a2.121,2.121,0,0,0,1.475-.592,2.15,2.15,0,0,0,.663-1.549v-1.266a6.032,6.032,0,0,0,2.222-1.479,5.969,5.969,0,0,0,1.645-4.459ZM86.536,146.9a.987.987,0,0,0-.706.949v1.676a.576.576,0,0,1-.6.575.6.6,0,0,1-.547-.613v-2.973a.58.58,0,0,1,.172-.414.546.546,0,0,1,.387-.162,3.3,3.3,0,0,0,3.312-3.476,3.3,3.3,0,0,0-6.595.134.607.607,0,0,1-.569.618.576.576,0,0,1-.584-.576,4.452,4.452,0,0,1,8.9-.236,4.417,4.417,0,0,1-1.217,3.3A4.472,4.472,0,0,1,86.536,146.9Z" transform="translate(-70.974 -122.37)"/>
          <path id="Trazado_877790" data-name="Trazado 877790" d="M118.546,292a2.14,2.14,0,1,0,2.14,2.14A2.143,2.143,0,0,0,118.546,292Zm0,2.716a.576.576,0,1,1,.576-.576A.577.577,0,0,1,118.546,294.717Z" transform="translate(-104.266 -261.549)"/>
          <path id="Trazado_877791" data-name="Trazado 877791" d="M50.5,14.843H43.54V4.693A4.7,4.7,0,0,0,38.847,0H37.628a.782.782,0,1,0,0,1.564h1.219a3.132,3.132,0,0,1,3.129,3.129v10.15H31.534v-3.36a2.9,2.9,0,0,0-2.9-2.9H11.419V4.693a3.132,3.132,0,0,1,3.129-3.129h19.43a.782.782,0,1,0,0-1.564H14.548A4.7,4.7,0,0,0,9.855,4.693V8.586H7.384a.782.782,0,1,0,0,1.564H28.638a1.334,1.334,0,0,1,1.332,1.333v3.36H24.757a2.9,2.9,0,0,0-2.9,2.9V30.767a.782.782,0,0,0,1.564,0V17.74a1.334,1.334,0,0,1,1.332-1.333H50.5a1.334,1.334,0,0,1,1.333,1.333v25.45A1.334,1.334,0,0,1,50.5,44.522H48.35a1.489,1.489,0,0,0-1.487,1.487v2.2l-4.1-3.1a2.913,2.913,0,0,0-1.746-.586H24.757a1.333,1.333,0,0,1-1.332-1.332V34.417a.782.782,0,0,0-1.564,0v3.848H12.379a2.914,2.914,0,0,0-1.746.586l-4.1,3.1v-2.2a1.489,1.489,0,0,0-1.487-1.487H2.9a1.334,1.334,0,0,1-1.333-1.332V11.483A1.334,1.334,0,0,1,2.9,10.15h.836a.782.782,0,0,0,0-1.564H2.9a2.9,2.9,0,0,0-2.9,2.9v25.45a2.9,2.9,0,0,0,2.9,2.9H4.968V42.2a1.435,1.435,0,0,0,2.3,1.147L9.855,41.4v7.3A4.7,4.7,0,0,0,14.548,53.4H32.336a.782.782,0,0,0,0-1.564H14.548A3.132,3.132,0,0,1,11.419,48.7V40.217a1.467,1.467,0,0,1,.959-.388h9.482v3.361a2.9,2.9,0,0,0,2.9,2.9H41.016a1.339,1.339,0,0,1,.8.27l.157.118V48.7a3.132,3.132,0,0,1-3.129,3.129H35.986a.782.782,0,0,0,0,1.564h2.861A4.7,4.7,0,0,0,43.54,48.7V47.656l2.584,1.952a1.436,1.436,0,0,0,2.3-1.147V46.087H50.5a2.9,2.9,0,0,0,2.9-2.9V17.74a2.9,2.9,0,0,0-2.9-2.9Z" transform="translate(0)"/>
          <path id="Trazado_877792" data-name="Trazado 877792" d="M244,182.229c-.219.241-.151.711-.16,1.007a4.487,4.487,0,1,0,8.973,0c-.008-.311.059-.784-.179-1.032l-2.67-3.3h3.985v12.5h-1.268a2.723,2.723,0,0,0-2.72,2.72v.7a1.2,1.2,0,0,0,1.2,1.2h9.748a1.2,1.2,0,0,0,1.2-1.2v-.7a2.723,2.723,0,0,0-2.72-2.72h-1.268V178.9h3.985l-2.67,3.3c-.238.246-.171.722-.179,1.031a4.487,4.487,0,1,0,8.973,0c-.008-.311.059-.785-.179-1.032l-2.714-3.358a2.026,2.026,0,0,0,1.567-1.969v-.125a2.026,2.026,0,0,0-2.023-2.023h-6.76v-1.6a2.026,2.026,0,0,0-2.023-2.023h-.125a2.026,2.026,0,0,0-2.023,2.023v1.6h-6.761a2.026,2.026,0,0,0-2.023,2.023v.125a2.026,2.026,0,0,0,1.567,1.969l-2.719,3.364-.014.019Zm15.389,10.736a1.157,1.157,0,0,1,1.155,1.156v.332h-9.018v-.332a1.157,1.157,0,0,1,1.156-1.156Zm-3.875-1.564V178.9h1.043v12.5Zm8.23-5.242a2.927,2.927,0,0,1-2.912-2.674h5.824A2.926,2.926,0,0,1,263.747,186.158Zm2.067-4.239H261.68l2.067-2.558Zm-10.3-8.79a.46.46,0,0,1,.459-.459h.125a.46.46,0,0,1,.459.459v1.6h-1.043v-1.6Zm-8.784,3.747v-.125a.46.46,0,0,1,.459-.459h17.693a.46.46,0,0,1,.459.459v.125a.46.46,0,0,1-.459.459H247.191A.46.46,0,0,1,246.732,176.876Zm1.6,2.485,2.067,2.558h-4.134Zm2.912,4.122a2.923,2.923,0,0,1-5.824,0Z" transform="translate(-218.41 -153.262)"/>
          <circle id="Elipse_11528" data-name="Elipse 11528" cx="0.782" cy="0.782" r="0.782" transform="translate(29.852 3.129)"/>
        </g>
      </g>
    </g>
  </g>
</svg>
