<svg xmlns="http://www.w3.org/2000/svg" xmlns:xlink="http://www.w3.org/1999/xlink" width="295" height="196" viewBox="0 0 295 196">
  <defs>
    <clipPath id="clip-path">
      <rect id="Rect치ngulo_402930" data-name="Rect치ngulo 402930" width="295" height="196" rx="10" transform="translate(285 6266.555)" fill="#c6ac97"/>
    </clipPath>
    <clipPath id="clip-path-2">
      <path id="Trazado_878015" data-name="Trazado 878015" d="M777.411,308.5c4.611-1.069,10.893-10.759,19.915-22.788q.339-.451.684-.883a34.889,34.889,0,0,1,22.921-12.649c1.025-5.769,7.5-10.908,7.5-10.908-1.316,1.23-1.9,5.264-2.165,8.363,3.537-5.569,12.029-8.527,12.029-8.527-2.568,1.135-5.629,8.332-6.774,11.228a34.822,34.822,0,0,1,21.784,12.494q.346.432.685.883c9.022,12.029,15.3,21.719,19.914,22.788a22.8,22.8,0,0,1-10.692-2.205,28.611,28.611,0,0,0,10.692,5.547s-5.079,14.3-48.249,14.3-48.25-14.3-48.25-14.3A28.611,28.611,0,0,0,788.1,306.3,22.8,22.8,0,0,1,777.411,308.5Z" transform="translate(-777.411 -261.112)" fill="none"/>
    </clipPath>
  </defs>
  <g id="Grupo_1189798" data-name="Grupo 1189798" transform="translate(-285 -6266.555)">
    <rect id="Rect치ngulo_402729" data-name="Rect치ngulo 402729" width="295" height="196" rx="10" transform="translate(285 6266.555)" fill="#c6ac97"/>
    <g id="Enmascarar_grupo_1099208" data-name="Enmascarar grupo 1099208" clip-path="url(#clip-path)">
      <g id="Grupo_1189213" data-name="Grupo 1189213" transform="translate(294.039 6266.555)">
        <g id="Grupo_1189203" data-name="Grupo 1189203" transform="translate(0 0)">
          <path id="Trazado_877965" data-name="Trazado 877965" d="M1048.8,288.758s-55.439-31.079-104.217-35.406c0,0,11.718,21.465,43.2,33.6S1048.8,288.758,1048.8,288.758Z" transform="translate(-884.131 -155.277)" fill="#a3261f"/>
          <g id="Grupo_1189196" data-name="Grupo 1189196" transform="translate(153.135 19.076)">
            <g id="Grupo_1189195" data-name="Grupo 1189195">
              <g id="Grupo_1189189" data-name="Grupo 1189189" transform="translate(0.772 0.698)">
                <path id="Trazado_877966" data-name="Trazado 877966" d="M898.207,108.623s-19.1-22.7-26.158-7.612,10.242,42.766,9.273,53.285,34.324-.277,36.538-23.943S898.207,108.623,898.207,108.623Z" transform="translate(-870.351 -95.836)" fill="#52301a"/>
              </g>
              <g id="Grupo_1189190" data-name="Grupo 1189190" transform="translate(39.419 19.36)">
                <path id="Trazado_877967" data-name="Trazado 877967" d="M887.442,134.618c-.345-.414-.686-.828-1.041-1.242A10.211,10.211,0,0,1,887.442,134.618Z" transform="translate(-886.401 -133.376)" fill="#78472a"/>
              </g>
              <g id="Grupo_1189191" data-name="Grupo 1189191" transform="translate(29.638 13.448)">
                <path id="Trazado_877968" data-name="Trazado 877968" d="M880.164,127.395c.354.414.7.828,1.041,1.242,1.6,2.2,2.283,4.867,2.95,7.537-5.059-4.427-9.127-9.847-13.771-14.69,4.04-.032,18.852,1.065,18.783,18.659a66.274,66.274,0,0,0-7.962-11.506A10.222,10.222,0,0,0,880.164,127.395Z" transform="translate(-870.384 -121.483)" fill="#78472a"/>
              </g>
              <g id="Grupo_1189192" data-name="Grupo 1189192" transform="translate(3.087 0.701)">
                <path id="Trazado_877969" data-name="Trazado 877969" d="M912.576,99.845c5.755-9.733,17.742.672,22.988,6.017a30.916,30.916,0,0,1,1.373,5.446C931.916,104.4,921.469,98,912.576,99.845Z" transform="translate(-912.576 -95.842)" fill="#78472a"/>
              </g>
              <g id="Grupo_1189193" data-name="Grupo 1189193" transform="translate(28.627 13.303)">
                <path id="Trazado_877970" data-name="Trazado 877970" d="M882.509,157.37a25.182,25.182,0,0,0,6.092-10.949,23.137,23.137,0,0,0,.588-3.146c.054-.529.09-1.056.136-1.585.019-.264.049-.528.06-.794l.017-.8a24.468,24.468,0,0,0-.644-6.383,16.75,16.75,0,0,0-2.711-5.9,14.971,14.971,0,0,0-4.874-4.264,16.485,16.485,0,0,0-2.944-1.294,20.038,20.038,0,0,0-3.093-.767,21.137,21.137,0,0,0-6.281-.118,26.531,26.531,0,0,1,6.117.884,19.7,19.7,0,0,1,2.889.98c.47.189.92.419,1.375.633.437.249.89.469,1.3.753a16.38,16.38,0,0,1,2.359,1.822,13.34,13.34,0,0,1,1.019,1.077c.157.19.323.373.474.568l.427.6c.3.391.524.836.788,1.252.244.429.44.885.665,1.325.175.465.365.923.528,1.391.136.479.289.953.412,1.436a23.887,23.887,0,0,1,.684,5.987l.012.762c0,.254-.02.509-.03.763l-.076,1.527a29.647,29.647,0,0,1-.41,3.007A30.724,30.724,0,0,1,882.509,157.37Z" transform="translate(-868.854 -121.193)" fill="#311e0f"/>
              </g>
              <g id="Grupo_1189194" data-name="Grupo 1189194" transform="translate(0)">
                <path id="Trazado_877971" data-name="Trazado 877971" d="M925.016,143.911a40.028,40.028,0,0,1-14.907,10.76,29.716,29.716,0,0,1-8.824,2.371,10.117,10.117,0,0,1-4.355-.435,2.708,2.708,0,0,1-1.84-3.083,18.3,18.3,0,0,0-.383-4.81c-.308-1.555-.727-3.07-1.164-4.575-.9-3-1.918-5.943-2.928-8.881a144.17,144.17,0,0,1-5.317-17.744,41.953,41.953,0,0,1-1-9.072,22.3,22.3,0,0,1,.5-4.468,15.237,15.237,0,0,1,1.521-4.152,8.026,8.026,0,0,1,2.815-3.13,6.437,6.437,0,0,1,4.042-.8,13.437,13.437,0,0,1,4.218,1.288,27.686,27.686,0,0,1,3.926,2.3,53.236,53.236,0,0,1,7.038,5.94q.823.813,1.614,1.656l.781.85.191.214a2.233,2.233,0,0,1,.159.2c.11.154.224.3.331.462a31.984,31.984,0,0,1,2.324,3.962,30.189,30.189,0,0,1,2.908,8.722,23.784,23.784,0,0,1-.227,9.219l.523-2.275c.092-.772.211-1.545.281-2.322l.031-1.171a10.852,10.852,0,0,0,0-1.172l-.072-1.171-.037-.587-.082-.581a30.815,30.815,0,0,0-2.622-9,31.52,31.52,0,0,0-2.286-4.128c-.106-.167-.224-.329-.336-.494-.059-.084-.129-.18-.2-.26l-.192-.225-.776-.885q-.783-.875-1.6-1.719a54.388,54.388,0,0,0-7.047-6.235,29,29,0,0,0-4.054-2.5,14.6,14.6,0,0,0-4.641-1.472,7.871,7.871,0,0,0-4.936.939,9.488,9.488,0,0,0-3.4,3.649,16.191,16.191,0,0,0-1.705,4.553,23.825,23.825,0,0,0-.555,4.775,43.283,43.283,0,0,0,1,9.424,141.722,141.722,0,0,0,5.457,17.92c1.045,2.926,2.1,5.843,3.015,8.787.45,1.472.866,2.952,1.2,4.44a17.1,17.1,0,0,1,.468,4.443,4.294,4.294,0,0,0,.559,2.6,4.218,4.218,0,0,0,2.1,1.62,11.094,11.094,0,0,0,4.85.4,25.307,25.307,0,0,0,4.642-.981,34.089,34.089,0,0,0,4.4-1.677,44.163,44.163,0,0,0,4.143-2.215,45.351,45.351,0,0,0,3.858-2.662,41.508,41.508,0,0,0,3.519-3.083A38.478,38.478,0,0,0,925.016,143.911Z" transform="translate(-882.734 -94.431)" fill="#311e0f"/>
              </g>
            </g>
          </g>
          <path id="Trazado_877972" data-name="Trazado 877972" d="M1018.83,120.651s6.542-46.936-16.072-49.5c0,0,6.779-2.181,5.737-4.362s-9.482,0-9.482,0,7.681-5.689,2.086-8.344-40.808.981-51.144,17.859-38.746,84.168-38.746,84.168S959,195.56,1010.2,188.542l-2.892-2.465s5.974-.925,6.471-4.2-6.756-4.409-7.325-4.978c0,0,7.4-.782,7.823-3.911s-4.267-3.7-13.8-13.228c0,0,13.512,2.276,21.477-9.387,0,0,8.961,1.565,8.961-9.245S1029.26,123.543,1018.83,120.651Z" transform="translate(-849.657 -56.865)" fill="#52301a"/>
          <path id="Trazado_877973" data-name="Trazado 877973" d="M971.018,68.966c-2.395-1.6,6.8-6.961,5.2-7.76-9.387-3.539-13.992-1.619-20.117-1.272,10.6-2.569,20.532-2.791,23.286-1.484,5.594,2.655-2.086,8.344-2.086,8.344s8.439-2.181,9.482,0c.4.836-.35,1.671-1.427,2.384C981.775,64.676,974.7,71.911,971.018,68.966Z" transform="translate(-827.945 -56.867)" fill="#78472a"/>
          <path id="Trazado_877974" data-name="Trazado 877974" d="M970.012,188.342l1.035-1.215-1.683-1.434a14.991,14.991,0,0,0,1.625-.557,8.782,8.782,0,0,0,2.421-1.424,4.148,4.148,0,0,0,1.487-2.518,2.873,2.873,0,0,0-.59-2.221,5.635,5.635,0,0,0-1.739-1.448,16.016,16.016,0,0,0-2.728-1.188c.3-.077.616-.164.93-.261,2.848-.878,4.4-2.151,4.627-3.784a3.365,3.365,0,0,0-.973-2.851,22.113,22.113,0,0,0-3.115-2.564,82.426,82.426,0,0,1-8.361-6.951,25.9,25.9,0,0,0,5.772-.509,23.043,23.043,0,0,0,7.26-2.777,22.142,22.142,0,0,0,6.688-6.225,8.833,8.833,0,0,0,6.286-1.83c2.051-1.724,3.091-4.5,3.091-8.263a52.374,52.374,0,0,0-.431-7.468,19.662,19.662,0,0,0-1.789-6.1,12.956,12.956,0,0,0-3.9-4.651,18.818,18.818,0,0,0-5.889-2.837c.1-.816.266-2.322.423-4.336.22-2.816.458-7.187.348-12.011a76.629,76.629,0,0,0-1.587-14.552c-1.172-5.328-2.985-9.6-5.387-12.7a15.47,15.47,0,0,0-7.945-5.577l.112-.052c1.984-.93,3.148-1.846,3.56-2.8a1.888,1.888,0,0,0-.017-1.6,2.13,2.13,0,0,0-1.1-1.009,4.792,4.792,0,0,0-1.456-.36,15.352,15.352,0,0,0-3.394.1c-.533.065-1.057.144-1.547.228l.038-.042c1.57-1.7,2.3-3.263,2.165-4.632a3.131,3.131,0,0,0-.709-1.7,5.024,5.024,0,0,0-1.772-1.312,11.123,11.123,0,0,0-3.658-.762,42.728,42.728,0,0,0-5.625-.017,83.088,83.088,0,0,0-15.046,2.33,77.026,77.026,0,0,0-8.186,2.513,57.929,57.929,0,0,0-7.792,3.533c-5.4,2.982-9.392,6.537-11.86,10.566l1.361.834c2.321-3.79,6.113-7.156,11.27-10a56.337,56.337,0,0,1,7.577-3.434,75.446,75.446,0,0,1,8.016-2.46,81.446,81.446,0,0,1,14.747-2.285,41.754,41.754,0,0,1,5.411.015,10.026,10.026,0,0,1,3.1.613c.994.472,1.51,1.035,1.577,1.722.085.872-.537,2.078-1.751,3.4a16.589,16.589,0,0,1-2.046,1.864l-3.294,2.439,3.968-1.025a37.75,37.75,0,0,1,4.26-.8,13.764,13.764,0,0,1,3.019-.1c.823.09,1.2.3,1.283.47a.3.3,0,0,1-.009.283c-.112.259-.605.972-2.771,1.987a23.873,23.873,0,0,1-2.481.988l-3.53,1.136,3.685.417a13.586,13.586,0,0,1,5.463,1.8,14.863,14.863,0,0,1,4.113,3.71c2.256,2.908,3.968,6.965,5.089,12.06a75.048,75.048,0,0,1,1.55,14.245,117.454,117.454,0,0,1-.843,16.776l-.1.692.674.187a17.909,17.909,0,0,1,6.025,2.771,11.4,11.4,0,0,1,3.432,4.091,18.116,18.116,0,0,1,1.634,5.611,50.87,50.87,0,0,1,.414,7.239c0,3.258-.845,5.624-2.511,7.031a6.515,6.515,0,0,1-3.589,1.446,7.852,7.852,0,0,1-1.928-.019l-.506-.088-.288.425a20.644,20.644,0,0,1-6.466,6.152,21.45,21.45,0,0,1-6.759,2.583,22.721,22.721,0,0,1-7.46.315l-2.463-.415,1.766,1.766a83.346,83.346,0,0,0,10.113,8.639c2.753,2.042,3.617,2.744,3.457,3.916-.127.932-1.369,1.809-3.5,2.468a21.768,21.768,0,0,1-3.621.758l-1.661.177,1.182,1.181a4.686,4.686,0,0,0,1.8.76,19.744,19.744,0,0,1,3.755,1.488c1.711.987,1.589,1.784,1.549,2.046-.2,1.321-1.708,2.2-2.937,2.707a14.3,14.3,0,0,1-2.867.821l-1.721.266Z" transform="translate(-809.985 -56.057)" fill="#311e0f"/>
          <path id="Trazado_877975" data-name="Trazado 877975" d="M961.1,231.247a21.267,21.267,0,0,0,9.72-2.072,11.334,11.334,0,0,0,4.268-3.969,17.691,17.691,0,0,0,2.14-4.879,24.167,24.167,0,0,0,.893-5.9l-1.6,0a22.985,22.985,0,0,1-.844,5.507,16.051,16.051,0,0,1-1.942,4.42,9.755,9.755,0,0,1-3.655,3.406,17.115,17.115,0,0,1-5.557,1.665,27.635,27.635,0,0,1-7.113,0,40.1,40.1,0,0,1-16.565-6.214l-.862,1.343A41.7,41.7,0,0,0,957.221,231,31.911,31.911,0,0,0,961.1,231.247Z" transform="translate(-811.165 -135.7)" fill="#311e0f"/>
          <path id="Trazado_877976" data-name="Trazado 877976" d="M937.987,239.471l.077-1.594-.039.8.039-.8c-.07,0-6.978-.39-9.526-4.165l-1.323.893a8.929,8.929,0,0,0,3.036,2.707,15.583,15.583,0,0,0,3.538,1.433A21.047,21.047,0,0,0,937.987,239.471Z" transform="translate(-764.76 -145.399)" fill="#311e0f"/>
          <path id="Trazado_877977" data-name="Trazado 877977" d="M925.343,201.9s-4.058-4.248-4.865-6.878c0,0,2.091-.632,2.233-1.794.034-.275.261-1.375-2.915,1.237,0,0-8.151-3.475-4.312-7.288,3.339-3.316,13.47-4.069,19.694-.9,1.947.992,4.256,3.175,3.712,5.291-.28,1.091-3.917,4.14-5.44,4.476,0,0-.673-3.511-1.944-2.537C929.188,195.288,939.356,196.807,925.343,201.9Z" transform="translate(-759.322 -120.528)" fill="#311e0f"/>
          <ellipse id="Elipse_11542" data-name="Elipse 11542" cx="3.16" cy="6.79" rx="3.16" ry="6.79" transform="translate(126.093 50.155)" fill="#311e0f"/>
          <ellipse id="Elipse_11543" data-name="Elipse 11543" cx="2.82" cy="6.059" rx="2.82" ry="6.059" transform="translate(160.297 50.539)" fill="#311e0f"/>
          <path id="Trazado_877978" data-name="Trazado 877978" d="M1006.785,133.439c.7,2.522-1.958,5.468-5.943,6.578s-7.786-.033-8.489-2.556,1.958-5.468,5.943-6.578S1006.082,130.917,1006.785,133.439Z" transform="translate(-865.916 -93.474)" fill="#452a13"/>
          <ellipse id="Elipse_11544" data-name="Elipse 11544" cx="7.491" cy="4.741" rx="7.491" ry="4.741" transform="matrix(-0.963, -0.268, 0.268, -0.963, 167.95, 48.555)" fill="#452a13"/>
          <path id="Trazado_877979" data-name="Trazado 877979" d="M990.245,365.2s11.13,81.65-2.525,136.973H953.491l-9.578-134.739Z" transform="translate(-829.516 -211.525)" fill="#52301a"/>
          <path id="Trazado_877980" data-name="Trazado 877980" d="M950.17,502.863h35.6l.15-.607a204.619,204.619,0,0,0,4.045-21.855c.953-7.155,1.67-14.9,2.132-23.032.777-13.681.854-28.676.229-44.568-.556-14.136-1.577-26.381-2.335-34.164-.822-8.437-1.522-13.6-1.529-13.653l-1.582.216c.007.051.7,5.2,1.524,13.608.756,7.763,1.774,19.976,2.328,34.073.623,15.839.546,30.78-.228,44.407-.952,16.743-2.964,31.535-5.984,43.979h-32.86L943.9,392.146l-1.592.113Z" transform="translate(-826.938 -211.416)" fill="#311e0f"/>
          <path id="Trazado_877981" data-name="Trazado 877981" d="M1091.454,302.414s22.973,25.317,5.986,49.259c0,0,5.013,8.276-1.056,18.48,0,0-10.243,54.779-49.5,81.372H943.154s-38.4-26.886,52.72-187.039l98.993,28.067Z" transform="translate(-934.323 -160.876)" fill="#52301a"/>
          <path id="Trazado_877982" data-name="Trazado 877982" d="M985.183,118.785c8.637-2.944,17.328,4.271,20.494,12.5,4.788,15.164,2.394,30.327,0,43.894-2.394,11.971-18.356-1.6-27.933,0-3.99.8-3.192,7.981,0,11.971a130.624,130.624,0,0,0,31.923,23.144,83.254,83.254,0,0,0,41.4,7.953l.814.693c-51.2,7.017-98.993-28.067-98.993-28.067S972.626,144.124,985.183,118.785Z" transform="translate(-891.335 -87.266)" fill="#452a13"/>
          <path id="Trazado_877983" data-name="Trazado 877983" d="M1190.466,477.12l1.5-.535a52.112,52.112,0,0,1-2.608-15.932,122.13,122.13,0,0,1,2.891-27.5c5.531-26.762,18.748-60.519,39.284-100.334l-1.419-.732c-20.6,39.944-33.868,73.838-39.428,100.743a123.717,123.717,0,0,0-2.923,27.862A53.68,53.68,0,0,0,1190.466,477.12Z" transform="translate(-1187.737 -194.874)" fill="#311e0f"/>
          <path id="Trazado_877984" data-name="Trazado 877984" d="M934.41,480.316a92.533,92.533,0,0,0,13.515-11.228A110.541,110.541,0,0,0,958.9,456.193a143.1,143.1,0,0,0,15.262-26.875c1.711-3.9,3.306-7.95,4.74-12.035,1.147-3.269,2.194-6.568,3.112-9.807,1.39-4.9,2.065-8.2,2.2-8.905a21.9,21.9,0,0,0,2.754-7.343,19.284,19.284,0,0,0,.082-6.127,17.59,17.59,0,0,0-1.6-5.242,35.1,35.1,0,0,0,4.441-8.792,32.675,32.675,0,0,0,1.651-9.027,40.03,40.03,0,0,0-2.908-16.132,54.212,54.212,0,0,0-3.035-6.474c-.939-1.708-1.979-3.394-3.09-5.011a49.768,49.768,0,0,0-3.076-4.054l3.262-9.424-1.508-.522-3.568,10.309.318.35a44.776,44.776,0,0,1,3.285,4.286,55.831,55.831,0,0,1,5.943,11.163A38.412,38.412,0,0,1,989.95,362a31.076,31.076,0,0,1-1.574,8.573,33.668,33.668,0,0,1-4.509,8.768l-.3.427.271.448a15.261,15.261,0,0,1,1.651,5.189,17.7,17.7,0,0,1-.094,5.6,20.376,20.376,0,0,1-2.616,6.873L982.7,398l-.026.139c-.006.034-.656,3.474-2.207,8.94-.911,3.209-1.949,6.478-3.086,9.717-1.421,4.047-3,8.057-4.7,11.919A141.465,141.465,0,0,1,957.6,455.27a108.939,108.939,0,0,1-10.813,12.7,90.937,90.937,0,0,1-13.272,11.026Z" transform="translate(-821.4 -189.006)" fill="#311e0f"/>
          <path id="Trazado_877985" data-name="Trazado 877985" d="M1100.111,365.2s11.13,81.65-2.525,136.973h-34.229l-9.578-134.739Z" transform="translate(-993.996 -211.525)" fill="#52301a"/>
          <path id="Trazado_877986" data-name="Trazado 877986" d="M1060.036,530.342h35.6l.15-.607a200.664,200.664,0,0,0,3.763-19.8c.922-6.505,1.645-13.525,2.15-20.866.868-12.615,1.117-26.463.741-41.158l-1.6.041c.375,14.645.126,28.443-.738,41.008a241.05,241.05,0,0,1-5.721,39.785h-32.86l-7.757-109.121-1.592.113Z" transform="translate(-991.419 -238.894)" fill="#311e0f"/>
          <path id="Trazado_877987" data-name="Trazado 877987" d="M956.744,253.352s43.5,37.868,104.217,35.406c0,0,5.754,12.14-19.807,20.635s-28.252,41-28.252,41S907.045,292.419,956.744,253.352Z" transform="translate(-896.291 -155.277)" fill="#cd5749"/>
          <path id="Trazado_877988" data-name="Trazado 877988" d="M977.546,288.683c-14.685-6.883-25.931-19.049-33-33.454q1.068-.945,2.252-1.877s43.5,37.868,104.217,35.406l.018.04C1030.305,304.145,1000.319,299.31,977.546,288.683Z" transform="translate(-886.347 -155.277)" fill="#e5908b"/>
          <path id="Trazado_877989" data-name="Trazado 877989" d="M1045.7,329.647c14.869,12.01,35.885,19.1,55.12,15.693-8.541,12.2-9.755,26.866-9.755,26.866s-72.416-39.663-69.331-75.484C1026.713,309.5,1034.442,320.984,1045.7,329.647Z" transform="translate(-974.458 -177.087)" fill="#b53d36"/>
          <path id="Trazado_877990" data-name="Trazado 877990" d="M1014.129,356.75l.1-1.224a48.89,48.89,0,0,1,.815-5.162,65.075,65.075,0,0,1,3.683-11.952,47.129,47.129,0,0,1,8.369-13.447,36.025,36.025,0,0,1,6.494-5.653,34.2,34.2,0,0,1,8.347-4.1c6.2-2.06,11.113-4.521,14.6-7.314a16.975,16.975,0,0,0,5.641-7.32l-1.5-.54a15.424,15.424,0,0,1-5.137,6.614c-3.34,2.674-8.086,5.044-14.107,7.045a35.794,35.794,0,0,0-8.748,4.3,37.625,37.625,0,0,0-6.79,5.915,48.761,48.761,0,0,0-8.658,13.923,66.348,66.348,0,0,0-3.767,12.253c-.361,1.759-.575,3.166-.7,4.088-1.552-.881-4.739-2.728-8.886-5.329-5.465-3.427-13.763-8.9-22.263-15.521a156.325,156.325,0,0,1-23.309-21.77A75.156,75.156,0,0,1,949.8,299.41a40.545,40.545,0,0,1-4.571-12.367,27.651,27.651,0,0,1-.413-5.774,24.609,24.609,0,0,1,.883-5.7,25.709,25.709,0,0,1,2.324-5.6,31.691,31.691,0,0,1,3.927-5.491l-1.2-1.056a33.283,33.283,0,0,0-4.125,5.77,27.3,27.3,0,0,0-2.467,5.952,26.181,26.181,0,0,0-.941,6.066,29.234,29.234,0,0,0,.436,6.109,42.121,42.121,0,0,0,4.747,12.864,76.758,76.758,0,0,0,8.7,12.411,157.974,157.974,0,0,0,23.558,22,273.009,273.009,0,0,0,22.4,15.612c5.957,3.735,9.95,5.927,9.99,5.949Z" transform="translate(-896.824 -160.341)" fill="#a3261f"/>
          <path id="Trazado_877991" data-name="Trazado 877991" d="M1040.874,289.292a79.292,79.292,0,0,0,8.352-.357l-.184-1.585h0a83.778,83.778,0,0,1-9.311.341c-3.42-.032-6.978-.21-10.574-.529-4.494-.4-9.061-1.018-13.574-1.842a150.942,150.942,0,0,1-33.315-10.163,148.919,148.919,0,0,1-18.329-9.588,151.244,151.244,0,0,1-18.506-13.441l-1.033,1.217a152.841,152.841,0,0,0,18.721,13.595,150.527,150.527,0,0,0,18.544,9.7,152.54,152.54,0,0,0,33.692,10.265c4.562.832,9.179,1.456,13.722,1.856,3.636.32,7.233.5,10.692.53Q1040.337,289.292,1040.874,289.292Z" transform="translate(-884.462 -154.661)" fill="#a3261f"/>
          <g id="Grupo_1189202" data-name="Grupo 1189202" transform="translate(65.987 19.076)">
            <g id="Grupo_1189201" data-name="Grupo 1189201">
              <g id="Grupo_1189197" data-name="Grupo 1189197" transform="translate(0.744 0.698)">
                <path id="Trazado_877992" data-name="Trazado 877992" d="M1065.529,108.623s19.1-22.7,26.158-7.612-10.242,42.766-9.273,53.285-34.324-.277-36.539-23.943S1065.529,108.623,1065.529,108.623Z" transform="translate(-1045.718 -95.836)" fill="#52301a"/>
              </g>
              <g id="Grupo_1189198" data-name="Grupo 1189198" transform="translate(24.061 0.698)">
                <path id="Trazado_877993" data-name="Trazado 877993" d="M1062.833,104.92c3.192,1.6,3.192,3.991,3.192,6.385-4.188-7.18-12.414-7.631-20.3-6.4,5.854-5.725,17.482-14.945,22.652-3.9,2,4.28,2.042,9.574,1.1,15.2C1069.494,111.643,1067.981,106.207,1062.833,104.92Z" transform="translate(-1045.721 -95.835)" fill="#78472a"/>
              </g>
              <g id="Grupo_1189199" data-name="Grupo 1189199" transform="translate(0 13.303)">
                <path id="Trazado_877994" data-name="Trazado 877994" d="M1108.654,157.37a30.72,30.72,0,0,1-4.883-11.224,29.893,29.893,0,0,1-.41-3.007l-.075-1.527c-.01-.255-.029-.509-.03-.763l.012-.762a23.887,23.887,0,0,1,.685-5.987c.123-.483.276-.956.411-1.436.164-.469.354-.927.528-1.391.224-.44.422-.9.665-1.325.264-.416.488-.86.788-1.252l.427-.6c.151-.195.317-.378.474-.568a13.483,13.483,0,0,1,1.019-1.077,16.413,16.413,0,0,1,2.36-1.822c.412-.284.865-.5,1.3-.753.456-.215.9-.444,1.375-.633a19.693,19.693,0,0,1,2.889-.98,26.536,26.536,0,0,1,6.117-.884,21.138,21.138,0,0,0-6.281.118,20.032,20.032,0,0,0-3.092.767,16.468,16.468,0,0,0-2.945,1.294,14.968,14.968,0,0,0-4.874,4.264,16.754,16.754,0,0,0-2.711,5.9,24.468,24.468,0,0,0-.644,6.383l.017.8c.011.265.04.529.06.794.045.529.082,1.056.136,1.585a23.156,23.156,0,0,0,.588,3.146A25.175,25.175,0,0,0,1108.654,157.37Z" transform="translate(-1101.754 -121.193)" fill="#311e0f"/>
              </g>
              <g id="Grupo_1189200" data-name="Grupo 1189200" transform="translate(6.9)">
                <path id="Trazado_877995" data-name="Trazado 877995" d="M1044.167,143.911a38.5,38.5,0,0,0,3.073,3.513,41.6,41.6,0,0,0,3.519,3.083,45.374,45.374,0,0,0,3.858,2.662,44.174,44.174,0,0,0,4.144,2.215,34.075,34.075,0,0,0,4.4,1.677,25.294,25.294,0,0,0,4.642.981,11.094,11.094,0,0,0,4.85-.4,4.217,4.217,0,0,0,2.1-1.62,4.3,4.3,0,0,0,.559-2.6,17.1,17.1,0,0,1,.468-4.443c.329-1.487.745-2.967,1.2-4.44.918-2.943,1.969-5.86,3.015-8.787a141.722,141.722,0,0,0,5.457-17.92,43.306,43.306,0,0,0,1-9.424,23.8,23.8,0,0,0-.555-4.775,16.21,16.21,0,0,0-1.705-4.553,9.486,9.486,0,0,0-3.4-3.649,7.873,7.873,0,0,0-4.937-.939,14.605,14.605,0,0,0-4.64,1.472,28.978,28.978,0,0,0-4.054,2.5,54.316,54.316,0,0,0-7.047,6.235q-.815.844-1.6,1.719l-.776.885-.191.225a3.153,3.153,0,0,0-.2.26c-.112.165-.23.327-.336.494a31.546,31.546,0,0,0-2.285,4.128,30.8,30.8,0,0,0-2.622,9l-.082.581-.037.587-.072,1.171a10.852,10.852,0,0,0,0,1.172l.031,1.171c.07.777.189,1.55.281,2.322l.523,2.275a23.781,23.781,0,0,1-.227-9.219,30.189,30.189,0,0,1,2.908-8.722,32.032,32.032,0,0,1,2.323-3.962c.106-.16.221-.309.331-.462a2.322,2.322,0,0,1,.159-.2l.191-.214.781-.85q.79-.843,1.614-1.656a53.236,53.236,0,0,1,7.038-5.94,27.692,27.692,0,0,1,3.925-2.3,13.448,13.448,0,0,1,4.219-1.288,6.437,6.437,0,0,1,4.042.8,8.03,8.03,0,0,1,2.815,3.13,15.232,15.232,0,0,1,1.521,4.152,22.271,22.271,0,0,1,.5,4.468,41.967,41.967,0,0,1-1,9.072,144.3,144.3,0,0,1-5.317,17.744c-1.01,2.938-2.031,5.881-2.928,8.881-.437,1.505-.855,3.02-1.164,4.575a18.266,18.266,0,0,0-.383,4.81,2.708,2.708,0,0,1-1.841,3.083,10.117,10.117,0,0,1-4.355.435,29.707,29.707,0,0,1-8.824-2.371A40.029,40.029,0,0,1,1044.167,143.911Z" transform="translate(-1044.167 -94.431)" fill="#311e0f"/>
              </g>
            </g>
          </g>
          <path id="Trazado_877996" data-name="Trazado 877996" d="M1125.594,229.959c.454-1.645,8.525-19.925,11.6-26.83l-1.458-.649c-.028.062-2.8,6.3-5.607,12.7-5.7,13.008-5.979,14.02-6.07,14.352Z" transform="translate(-1061.735 -129.693)" fill="#311e0f"/>
          <path id="Trazado_877997" data-name="Trazado 877997" d="M1026.065,182.113c0,.628-.732,1.138-1.636,1.138s-1.635-.51-1.635-1.138.732-1.138,1.635-1.138S1026.065,181.484,1026.065,182.113Z" transform="translate(-900.272 -118.878)" fill="#78472a"/>
          <ellipse id="Elipse_11545" data-name="Elipse 11545" cx="3.725" cy="1.633" rx="3.725" ry="1.633" transform="matrix(-0.995, -0.099, 0.099, -0.995, 172.239, 68.231)" fill="#a76a49"/>
          <ellipse id="Elipse_11546" data-name="Elipse 11546" cx="1.636" cy="1.138" rx="1.636" ry="1.138" transform="translate(165.203 60.959)" fill="#78472a"/>
        </g>
        <g id="Grupo_1189212" data-name="Grupo 1189212" transform="translate(105.167 88.311)">
          <g id="Grupo_1189204" data-name="Grupo 1189204" transform="translate(111.602 10.496)">
            <path id="Trazado_877998" data-name="Trazado 877998" d="M795.833,273.091s11.493-8.992,15.366-18.267c0,0,14.577,21.022,0,33.7C811.2,288.526,795.553,280.35,795.833,273.091Z" transform="translate(-795.829 -254.824)" fill="#bcb4bb"/>
            <path id="Trazado_877999" data-name="Trazado 877999" d="M822.919,260.694c-1.285,5.665-5.659,10.3-11.11,12.972C814.9,270.89,819.855,266,822.919,260.694Z" transform="translate(-809.014 -257.776)" fill="#cfcbcf"/>
            <path id="Trazado_878000" data-name="Trazado 878000" d="M802.632,255.087c.038-.088.08-.175.117-.263,0,0,14.577,21.022,0,33.7a62.272,62.272,0,0,1-6.92-4.35C803.473,276.76,807.035,264.97,802.632,255.087Z" transform="translate(-787.379 -254.824)" fill="#827682"/>
            <path id="Trazado_878001" data-name="Trazado 878001" d="M808.965,255.3l.023-.053c.014.07.028.139.042.209C809.008,255.405,808.988,255.352,808.965,255.3Z" transform="translate(-793.712 -255.037)" fill="#716771"/>
            <path id="Trazado_878002" data-name="Trazado 878002" d="M809.492,269.764c1.925,7.055,3.779,14.282.368,21.1a16.136,16.136,0,0,1-3.078,4.621,63.583,63.583,0,0,1-5.919-3.8C806.719,286.007,810.175,277.757,809.492,269.764Z" transform="translate(-792.412 -262.337)" fill="#716771"/>
          </g>
          <g id="Grupo_1189205" data-name="Grupo 1189205" transform="translate(58.209 10.496)">
            <path id="Trazado_878003" data-name="Trazado 878003" d="M925.083,273.091s-11.493-8.992-15.367-18.267c0,0-14.577,21.022,0,33.7C909.716,288.526,925.363,280.35,925.083,273.091Z" transform="translate(-903.237 -254.824)" fill="#bcb4bb"/>
            <path id="Trazado_878004" data-name="Trazado 878004" d="M908.861,260.694c1.285,5.665,5.659,10.3,11.11,12.972C916.877,270.89,911.925,266,908.861,260.694Z" transform="translate(-900.917 -257.776)" fill="#cfcbcf"/>
            <path id="Trazado_878005" data-name="Trazado 878005" d="M926.833,255.087c-.038-.088-.08-.175-.117-.263,0,0-14.576,21.022,0,33.7a62.213,62.213,0,0,0,6.92-4.35C925.992,276.76,922.43,264.97,926.833,255.087Z" transform="translate(-920.238 -254.824)" fill="#827682"/>
            <path id="Trazado_878006" data-name="Trazado 878006" d="M933.988,255.3c-.007-.018-.015-.035-.023-.053-.013.07-.028.139-.042.209C933.945,255.405,933.965,255.352,933.988,255.3Z" transform="translate(-927.393 -255.037)" fill="#716771"/>
            <path id="Trazado_878007" data-name="Trazado 878007" d="M922.5,269.764c-1.925,7.055-3.779,14.282-.368,21.1a16.144,16.144,0,0,0,3.078,4.621,63.524,63.524,0,0,0,5.919-3.8C925.277,286.007,921.822,277.757,922.5,269.764Z" transform="translate(-917.735 -262.337)" fill="#716771"/>
          </g>
          <path id="Trazado_878008" data-name="Trazado 878008" d="M979.138,254.458a4.69,4.69,0,0,1-2.218-6.5c2.752-5.113,8.728-12.645,20.04-12.645,17.125,0,29.9,19.3,19.164,42.813s-36.7,71.219-3.126,102.343l-3.534,7.2s-29.7-14.95-23.989-56.132c0,0,4.472-27.2,19.956-53.019,2.838-4.731,5.868-9.706,6.325-15.2.51-6.142-1.613-13.223-8.544-16.282-9.532-4.2-15.5,1.707-18.3,5.811a4.675,4.675,0,0,1-5.779,1.611Z" transform="translate(-976.361 -234.517)" fill="#bcb4bb"/>
          <path id="Trazado_878009" data-name="Trazado 878009" d="M998.436,380.249l1.085-1.17a52.187,52.187,0,0,1-9.271-11.29,48.013,48.013,0,0,1-5.2-12.22,55.458,55.458,0,0,1-1.844-12.814,73.8,73.8,0,0,1,.833-13.049c2.6-17.429,10.541-34.387,16.338-46.769.875-1.87,1.7-3.635,2.455-5.284a45.906,45.906,0,0,0,3.19-9.536,36.836,36.836,0,0,0,.808-8.858,30.938,30.938,0,0,0-1.292-7.935,27.062,27.062,0,0,0-3.106-6.763,24.669,24.669,0,0,0-3.738-4.536,23.21,23.21,0,0,0-4.612-3.415,22.523,22.523,0,0,0-5.311-2.151,23.509,23.509,0,0,0-14.012.7l.568,1.492A21.915,21.915,0,0,1,988.362,236a20.926,20.926,0,0,1,4.934,2,21.6,21.6,0,0,1,4.294,3.181,23.069,23.069,0,0,1,3.5,4.242,25.457,25.457,0,0,1,2.922,6.364,29.336,29.336,0,0,1,1.224,7.526,35.234,35.234,0,0,1-.774,8.473,44.309,44.309,0,0,1-3.08,9.2c-.75,1.642-1.575,3.4-2.449,5.27-5.839,12.471-13.837,29.551-16.472,47.21a75.4,75.4,0,0,0-.85,13.332,57.057,57.057,0,0,0,1.9,13.184,49.606,49.606,0,0,0,5.376,12.626A53.783,53.783,0,0,0,998.436,380.249Z" transform="translate(-962.341 -233.71)" fill="#827682"/>
          <path id="Trazado_878010" data-name="Trazado 878010" d="M885.2,375.8s1.835,22.222-23.241,43.424-67.889,72.782-8.359,87.461h46.279s28.542-50.764,19.775-85.626-8.154-46.89-8.154-46.89Z" transform="translate(-801.616 -304.346)" fill="#bcb4bb"/>
          <path id="Trazado_878011" data-name="Trazado 878011" d="M861.343,401.64c-8.453,3.252-17.436-5.683-23.063-14.717a36.234,36.234,0,0,0,1.439-11.124l26.3-1.631s-.292,5.814,2.465,21.042C866.585,398.2,864.207,400.566,861.343,401.64Z" transform="translate(-756.136 -304.346)" fill="#827682"/>
          <path id="Trazado_878012" data-name="Trazado 878012" d="M852.6,506.6l.382-1.55a69.869,69.869,0,0,1-12-4.035,39.754,39.754,0,0,1-8.559-5.136,25.464,25.464,0,0,1-5.5-6.017,21.5,21.5,0,0,1-2.849-6.732,25.594,25.594,0,0,1-.5-8.093,38.5,38.5,0,0,1,1.857-8.614,73.452,73.452,0,0,1,9.108-17.708,137.546,137.546,0,0,1,13.3-16.523,163.869,163.869,0,0,1,13.825-13.219,75.841,75.841,0,0,0,14.36-15.9,58.532,58.532,0,0,0,6.907-14.127,46.749,46.749,0,0,0,2.148-10.133,30.5,30.5,0,0,0,.137-3.128l24.667-1.53a85.43,85.43,0,0,0,.8,9.624c.55,4.293,1.357,9.184,2.4,14.536,1.3,6.683,2.979,14.11,4.982,22.076a58.566,58.566,0,0,1,1.643,13.5,89.747,89.747,0,0,1-1.05,14.27,150.3,150.3,0,0,1-7.172,27.651A220.191,220.191,0,0,1,902.673,497c-2.5,5.22-4.281,8.4-4.3,8.43l1.391.782c.018-.032,1.826-3.257,4.347-8.523A223.012,223.012,0,0,0,913,476.35a151.881,151.881,0,0,0,7.246-27.948,91.383,91.383,0,0,0,1.068-14.526A60.165,60.165,0,0,0,919.62,420c-1.987-7.9-3.652-15.273-4.946-21.905-1.036-5.307-1.839-10.157-2.387-14.414a68.985,68.985,0,0,1-.8-10.337l.043-.891-.89.054-27.113,1.681.067.812a24.3,24.3,0,0,1-.112,3.742,45.28,45.28,0,0,1-2.1,9.793,57.012,57.012,0,0,1-6.728,13.707,74.287,74.287,0,0,1-14.024,15.507,165.507,165.507,0,0,0-13.962,13.35,139.141,139.141,0,0,0-13.456,16.716,75.029,75.029,0,0,0-9.3,18.1,40.088,40.088,0,0,0-1.931,8.973,27.185,27.185,0,0,0,.54,8.6,23.087,23.087,0,0,0,3.06,7.23,27.057,27.057,0,0,0,5.842,6.4,41.337,41.337,0,0,0,8.9,5.347A71.455,71.455,0,0,0,852.6,506.6Z" transform="translate(-800.808 -303.485)" fill="#827682"/>
          <g id="Grupo_1189207" data-name="Grupo 1189207" transform="translate(46.108 13.622)">
            <g id="Grupo_1189206" data-name="Grupo 1189206" clip-path="url(#clip-path-2)">
              <path id="Trazado_878013" data-name="Trazado 878013" d="M777.411,308.5c4.611-1.069,10.893-10.759,19.915-22.788q.339-.451.684-.883a34.889,34.889,0,0,1,22.921-12.649c1.025-5.769,7.5-10.908,7.5-10.908-1.316,1.23-1.9,5.264-2.165,8.363,3.537-5.569,12.029-8.527,12.029-8.527-2.568,1.135-5.629,8.332-6.774,11.228a34.822,34.822,0,0,1,21.784,12.494q.346.432.685.883c9.022,12.029,15.3,21.719,19.914,22.788a22.8,22.8,0,0,1-10.692-2.205,28.611,28.611,0,0,0,10.692,5.547s-5.079,14.3-48.249,14.3-48.25-14.3-48.25-14.3A28.611,28.611,0,0,0,788.1,306.3,22.8,22.8,0,0,1,777.411,308.5Z" transform="translate(-777.411 -261.112)" fill="#bcb4bb"/>
              <path id="Trazado_878014" data-name="Trazado 878014" d="M870.358,286.869s-16.322-15.456-30.776-11.568c0,0,1.663-2.025,6.053-2.94a44.341,44.341,0,0,0-34.326,10.351s5.285-21.066,23.111-24.195S856.746,253.315,870.358,286.869Z" transform="translate(-790.711 -258.991)" fill="#cfcbcf"/>
            </g>
          </g>
          <path id="Trazado_878016" data-name="Trazado 878016" d="M795.747,340.088a131.247,131.247,0,0,0,25.911-2.251,54.773,54.773,0,0,0,14.779-4.995c6.859-3.679,8.255-7.429,8.311-7.587l.3-.844-.873-.2a22.625,22.625,0,0,1-5.569-2.177c.619.117,1.249.211,1.885.282a21.36,21.36,0,0,0,3.562.128l5.266-.381-5.143-1.193a7.226,7.226,0,0,1-2.734-1.533,28.9,28.9,0,0,1-3.435-3.445c-2.505-2.88-5.366-6.773-8.678-11.281-1.468-2-2.986-4.064-4.61-6.23-.23-.307-.466-.61-.7-.9a34.574,34.574,0,0,0-6.145-5.968,35.631,35.631,0,0,0-7.325-4.262l-.634,1.465a34.036,34.036,0,0,1,7,4.071,32.977,32.977,0,0,1,5.861,5.693c.224.28.449.57.669.863,1.619,2.159,3.135,4.222,4.6,6.217,3.333,4.536,6.211,8.454,8.76,11.384a30.42,30.42,0,0,0,3.632,3.637l.185.148a20.9,20.9,0,0,1-6.957-1.993l-5.828-2.952,4.946,4.268a28.932,28.932,0,0,0,3.264,2.344,27.473,27.473,0,0,0,6.772,3.117,10.748,10.748,0,0,1-1.016,1.333,22.063,22.063,0,0,1-6.355,4.72,54.052,54.052,0,0,1-14.343,4.76,130.3,130.3,0,0,1-25.358,2.171c-11.24,0-20.882-.98-28.66-2.912l-.385,1.549C774.606,339.093,784.378,340.088,795.747,340.088Z" transform="translate(-701.39 -260.634)" fill="#827682"/>
          <path id="Trazado_878017" data-name="Trazado 878017" d="M894.527,320.778a8.62,8.62,0,0,0,3.38-1.849,30.427,30.427,0,0,0,3.632-3.637c2.549-2.93,5.427-6.848,8.76-11.385,1.466-1.995,2.981-4.057,4.6-6.216.22-.293.445-.583.669-.863a33.034,33.034,0,0,1,7.761-7.027,34.458,34.458,0,0,1,9.476-4.293l-.433-1.536a36.047,36.047,0,0,0-9.914,4.492,34.626,34.626,0,0,0-8.135,7.366c-.234.293-.47.6-.7.9-1.624,2.165-3.142,4.231-4.609,6.228-3.312,4.508-6.173,8.4-8.679,11.282a28.908,28.908,0,0,1-3.435,3.446,7.222,7.222,0,0,1-2.734,1.533Z" transform="translate(-848.239 -258.987)" fill="#827682"/>
          <g id="Grupo_1189208" data-name="Grupo 1189208" transform="translate(59.762 114.821)">
            <path id="Trazado_878018" data-name="Trazado 878018" d="M912.482,464.8s-5.3,74.821-2.854,87.461H892.707s-12.436-44.036-9.378-62.18" transform="translate(-882.049 -464.748)" fill="#bcb4bb"/>
            <path id="Trazado_878019" data-name="Trazado 878019" d="M891.3,553.005H909.79l-.184-.95c-.988-5.106-.807-21.8.523-48.278,1.007-20.045,2.33-38.787,2.344-38.974l-1.592-.113c-.013.187-1.337,18.945-2.345,39.007-.592,11.786-.961,21.711-1.1,29.5-.154,8.834,0,14.949.446,18.214H892.508c-.673-2.443-3.324-12.269-5.663-23.658-1.578-7.683-2.706-14.562-3.354-20.446-.805-7.312-.866-13.08-.181-17.146l-1.574-.265c-.71,4.211-.653,10.13.169,17.591.654,5.934,1.79,12.864,3.379,20.6,2.7,13.153,5.818,24.232,5.849,24.342Z" transform="translate(-881.243 -464.691)" fill="#827682"/>
          </g>
          <path id="Trazado_878020" data-name="Trazado 878020" d="M834.03,488.439a4.213,4.213,0,0,0,1.668-.329,5.04,5.04,0,0,0,1.828-1.416,6.726,6.726,0,0,0,4.2,1.434h.012a6.4,6.4,0,0,0,3.592-1.06,5.9,5.9,0,0,0,1.415-1.352,8.077,8.077,0,0,0,2.86.837,5.535,5.535,0,0,0,3.128-.573,4.978,4.978,0,0,0,1.408-7.67l-1.035.912a3.582,3.582,0,0,1-1.017,5.537,4.182,4.182,0,0,1-2.361.42,6.651,6.651,0,0,1-2.28-.654q.1-.228.188-.464a5.789,5.789,0,0,0,.082-3.787,3.309,3.309,0,0,0-1.322-1.827,2.1,2.1,0,0,0-2.537.167,2.3,2.3,0,0,0-.6,1.084,4.09,4.09,0,0,0-.053,1.909,4.966,4.966,0,0,0,.716,1.729A6.36,6.36,0,0,0,845.552,485a4.488,4.488,0,0,1-.994.922,5.4,5.4,0,0,1-5.715.012,5.343,5.343,0,0,1-.495-.35,6.582,6.582,0,0,0,.953-2.358,4.436,4.436,0,0,0-.8-3.537,2.712,2.712,0,0,0-1.613-1.031,1.909,1.909,0,0,0-1.981.864,2.39,2.39,0,0,0-.259,1.25,7.837,7.837,0,0,0,.939,3.6,7.607,7.607,0,0,0,.942,1.37,3.792,3.792,0,0,1-1.372,1.1,3.61,3.61,0,0,1-2.717-.114,12.2,12.2,0,0,1-2.661-1.674l-.831,1.1a13.229,13.229,0,0,0,2.976,1.852A5.66,5.66,0,0,0,834.03,488.439Zm2.509-8.432a.615.615,0,0,1,.108.009,1.351,1.351,0,0,1,.773.531,3.1,3.1,0,0,1,.523,2.44,4.984,4.984,0,0,1-.591,1.578,6.469,6.469,0,0,1-1.325-3.81,1.237,1.237,0,0,1,.078-.548A.512.512,0,0,1,836.539,480.007Zm8.655-.524a.9.9,0,0,1,.469.134,2.078,2.078,0,0,1,.746,1.1,4.4,4.4,0,0,1-.074,2.879q-.038.107-.082.212a4.917,4.917,0,0,1-1.185-1.227,3.16,3.16,0,0,1-.486-2.513,1,1,0,0,1,.228-.455A.554.554,0,0,1,845.194,479.483Z" transform="translate(-738.387 -356.614)" fill="#827682"/>
          <g id="Grupo_1189209" data-name="Grupo 1189209" transform="translate(75.887 36.482)">
            <ellipse id="Elipse_11547" data-name="Elipse 11547" cx="2.2" cy="4.727" rx="2.2" ry="4.727" transform="translate(31.861 10.569)" fill="#311e0f"/>
            <ellipse id="Elipse_11548" data-name="Elipse 11548" cx="2.2" cy="4.727" rx="2.2" ry="4.727" transform="translate(4.171 10.569)" fill="#311e0f"/>
            <path id="Trazado_878021" data-name="Trazado 878021" d="M898.656,308.709c.559,1.685-1.8,3.986-5.276,5.139s-6.743.722-7.3-.963,1.8-3.985,5.277-5.139S898.1,307.024,898.656,308.709Z" transform="translate(-885.996 -307.099)" fill="#827682"/>
            <path id="Trazado_878022" data-name="Trazado 878022" d="M830.375,308.709c-.559,1.685,1.8,3.986,5.277,5.139s6.742.722,7.3-.963-1.8-3.985-5.276-5.139S830.934,307.024,830.375,308.709Z" transform="translate(-802.603 -307.099)" fill="#827682"/>
            <path id="Trazado_878023" data-name="Trazado 878023" d="M866.232,346.995s5.076-2.219,5.076-3.91-10.339-1.5-10.264,0S866.232,346.995,866.232,346.995Z" transform="translate(-846.161 -324.593)" fill="#311e0f"/>
            <path id="Trazado_878024" data-name="Trazado 878024" d="M874.674,361.6c3.507,0,4.779-1.883,4.849-1.992l.056-.087.026-.1a30.2,30.2,0,0,0,1.006-7.975,12.933,12.933,0,0,0-.333-2.88l-1.219.341.609-.171-.61.169a12.22,12.22,0,0,1,.289,2.637,28.12,28.12,0,0,1-.938,7.442,3.613,3.613,0,0,1-1.616,1.023,6.776,6.776,0,0,1-2.47.318,13.789,13.789,0,0,1-3.958-.832l-.418,1.195A14.394,14.394,0,0,0,874.674,361.6Z" transform="translate(-859.899 -327.954)" fill="#311e0f"/>
            <path id="Trazado_878025" data-name="Trazado 878025" d="M859.806,371.726a8.891,8.891,0,0,0,1.47-.123,8.065,8.065,0,0,0,2.884-1.035l-.7-1.058.348.529-.346-.53a6.967,6.967,0,0,1-2.455.855,7.628,7.628,0,0,1-2.61-.034,8.9,8.9,0,0,1-3.193-1.311l-.687,1.063a10.141,10.141,0,0,0,3.691,1.5A8.921,8.921,0,0,0,859.806,371.726Z" transform="translate(-835.771 -338.238)" fill="#311e0f"/>
          </g>
          <g id="Grupo_1189210" data-name="Grupo 1189210" transform="translate(116.464 65.48)">
            <path id="Trazado_878026" data-name="Trazado 878026" d="M803.914,402.123l1.354-.845c-2.818-4.514-5.8-8.852-8.863-12.894-2.452-3.235-4.962-6.288-7.46-9.075a79.547,79.547,0,0,0-7.1-7.159l-1.029,1.22.514-.61-.515.61a79.927,79.927,0,0,1,6.967,7.037c2.466,2.753,4.944,5.77,7.366,8.966C798.18,393.37,801.128,397.659,803.914,402.123Z" transform="translate(-780.82 -368.812)" fill="#827682"/>
            <path id="Trazado_878027" data-name="Trazado 878027" d="M792.4,382.444l.836-1.36c-4.533-2.787-9.135-5.343-13.677-7.6-3.636-1.8-7.243-3.42-10.721-4.8a79.577,79.577,0,0,0-9.543-3.249l-.377,1.551a79.962,79.962,0,0,1,9.372,3.2c3.433,1.367,7,2.964,10.588,4.748C783.364,377.16,787.913,379.687,792.4,382.444Z" transform="translate(-757.895 -365.434)" fill="#827682"/>
          </g>
          <g id="Grupo_1189211" data-name="Grupo 1189211" transform="translate(35.959 65.48)">
            <path id="Trazado_878028" data-name="Trazado 878028" d="M922.216,402.123c2.786-4.464,5.734-8.754,8.761-12.749,2.422-3.2,4.9-6.213,7.366-8.966a79.955,79.955,0,0,1,6.967-7.037l-1.029-1.22a79.589,79.589,0,0,0-7.1,7.159c-2.5,2.787-5.008,5.84-7.46,9.075-3.063,4.041-6.045,8.379-8.862,12.893Z" transform="translate(-909.972 -368.812)" fill="#827682"/>
            <path id="Trazado_878029" data-name="Trazado 878029" d="M923.749,382.444c4.483-2.756,9.032-5.284,13.523-7.513,3.592-1.783,7.155-3.381,10.588-4.748a79.919,79.919,0,0,1,9.372-3.2l-.378-1.551a79.567,79.567,0,0,0-9.543,3.249c-3.478,1.383-7.085,3-10.721,4.8-4.542,2.254-9.144,4.81-13.677,7.6Z" transform="translate(-922.913 -365.434)" fill="#827682"/>
          </g>
          <path id="Trazado_878030" data-name="Trazado 878030" d="M907.508,346.991c0,.5-.867.9-1.938.9s-1.938-.4-1.938-.9.868-.9,1.938-.9S907.508,346.493,907.508,346.991Z" transform="translate(-827.646 -290.225)" fill="#cfcbcf"/>
          <path id="Trazado_878031" data-name="Trazado 878031" d="M871.2,344.639c0,.436-.868.789-1.938.789s-1.938-.353-1.938-.789.868-.789,1.938-.789S871.2,344.2,871.2,344.639Z" transform="translate(-773.286 -289.099)" fill="#bcb4bb"/>
          <path id="Trazado_878032" data-name="Trazado 878032" d="M833.307,346.991c0,.5-.868.9-1.938.9s-1.938-.4-1.938-.9.867-.9,1.938-.9S833.307,346.493,833.307,346.991Z" transform="translate(-716.559 -290.225)" fill="#cfcbcf"/>
          <path id="Trazado_878033" data-name="Trazado 878033" d="M923.323,475.369c0,3.337-1.51,6.041-3.372,6.041s-3.372-2.7-3.372-6.041,1.51-6.042,3.372-6.042S923.323,472.032,923.323,475.369Z" transform="translate(-849.896 -352.201)" fill="#827682"/>
          <path id="Trazado_878034" data-name="Trazado 878034" d="M934.977,486.683c0,1.668-.755,3.02-1.686,3.02s-1.686-1.352-1.686-3.02.755-3.021,1.686-3.021S934.977,485.014,934.977,486.683Z" transform="translate(-869.021 -359.41)" fill="#827682"/>
        </g>
      </g>
    </g>
  </g>
</svg>
