<svg xmlns="http://www.w3.org/2000/svg" xmlns:xlink="http://www.w3.org/1999/xlink" width="74" height="74" viewBox="0 0 74 74">
  <defs>
    <clipPath id="clip-path">
      <rect id="Rect치ngulo_402706" data-name="Rect치ngulo 402706" width="74" height="74" transform="translate(307.051 1299)" fill="#fff" stroke="#707070" stroke-width="1"/>
    </clipPath>
    <clipPath id="clip-path-2">
      <rect id="Rect치ngulo_402652" data-name="Rect치ngulo 402652" width="84.91" height="31.622" fill="none"/>
    </clipPath>
  </defs>
  <g id="Enmascarar_grupo_1099201" data-name="Enmascarar grupo 1099201" transform="translate(-307.051 -1299)" clip-path="url(#clip-path)">
    <g id="Grupo_1188945" data-name="Grupo 1188945" transform="matrix(0.891, -0.454, 0.454, 0.891, 297.439, 1343.623)">
      <g id="Grupo_1188622" data-name="Grupo 1188622" transform="translate(0 0)" clip-path="url(#clip-path-2)">
        <path id="Trazado_875995" data-name="Trazado 875995" d="M75.312,2.519c-1.686,2.99-3.233,6.044-4.668,9.152L62.987,3.118C60.653.511,56.66,1.566,54.923,4.157l-6.139,9.154a76.451,76.451,0,0,1-6.546-7.89c-1.764-2.453-5.72-3.764-8.043-1.036L25.163,14.993,20.833,9.97c-2.6-3.015-6.059-5.925-10.2-3.531-3.01,1.741-4.674,5.988-6.189,8.946C2.64,18.912.647,22.84.041,26.783c-.489,3.186,3.545,6.79,6.175,3.6a72.448,72.448,0,0,0,5.39-8.351c.834-1.355,1.651-2.722,2.5-4.068.055-.087.112-.173.168-.26.679.888,1.314,1.8,1.866,2.44l5.428,6.307a5.135,5.135,0,0,0,7.232,0l8.829-10.352a89.237,89.237,0,0,0,8.332,8.834,5.21,5.21,0,0,0,8.054-1.038l5.915-8.806,8.612,9.634c2.821,3.155,7.29,1.061,8.594-2.269A116.129,116.129,0,0,1,84.2,7.716c3.262-5.778-5.634-10.976-8.891-5.2" transform="translate(0 0)" fill="#f7be29"/>
        <path id="Trazado_875996" data-name="Trazado 875996" d="M81.928,10.733a49.368,49.368,0,0,0-8.491,13.9A121.91,121.91,0,0,0,64.143,12.45a.735.735,0,0,0-1.033,0L52.288,24.956c-3.067-4.256-6.3-8.381-9.654-12.415a.678.678,0,0,0-.953,0Q35.26,19.747,28.852,26.964A50.533,50.533,0,0,0,16.478,14.79a.472.472,0,0,0-.641.168c-2.554,5.266-5.315,10.437-7.921,15.678-.143.287.278.54.434.253,2.711-4.974,5.287-10.026,8.035-14.979a59.068,59.068,0,0,1,11.865,12.4.654.654,0,0,0,1.015.13q6.447-7.183,12.869-14.388c3.314,4.028,6.453,8.184,9.479,12.433a.736.736,0,0,0,1.142.147L63.618,14.089a119.26,119.26,0,0,1,9.355,12.474.744.744,0,0,0,1.34-.176,47.324,47.324,0,0,1,8.656-14.613c.617-.713-.419-1.758-1.041-1.041" transform="translate(-3.357 -4.467)" fill="#1d1d1b"/>
      </g>
    </g>
  </g>
</svg>
