<svg xmlns="http://www.w3.org/2000/svg" width="73.054" height="73.053" viewBox="0 0 73.054 73.053">
  <g id="Grupo_1189225" data-name="Grupo 1189225" transform="translate(-871.113 -277.164)">
    <g id="Grupo_1188789" data-name="Grupo 1188789" transform="translate(871.113 277.164)">
      <rect id="Rectángulo_400898" data-name="Rectángulo 400898" width="60.477" height="60.477" rx="30.238" transform="translate(6.289 6.288)" fill="#c6ac97"/>
      <rect id="Rectángulo_400907" data-name="Rectángulo 400907" width="65.491" height="65.49" rx="32.745" transform="translate(3.783 3.781)" fill="none"/>
      <g id="Grupo_1098742" data-name="Grupo 1098742" transform="translate(0)">
        <g id="Rectángulo_400898-2" data-name="Rectángulo 400898" transform="translate(0)" fill="none" stroke="#fff" stroke-width="2" opacity="0.859">
          <rect width="73.054" height="73.053" rx="36.527" stroke="none"/>
          <rect x="1" y="1" width="71.054" height="71.053" rx="35.527" fill="none"/>
        </g>
        <g id="Rectángulo_400907-2" data-name="Rectángulo 400907" transform="translate(0)" fill="none" stroke="#0f1f33" stroke-linecap="round" stroke-width="2">
          <rect width="73.054" height="73.053" rx="36.527" stroke="none"/>
          <rect x="1" y="1" width="71.054" height="71.053" rx="35.527" fill="none"/>
        </g>
      </g>
      <g id="Grupo_1189230" data-name="Grupo 1189230" transform="translate(17.16 16.869)">
        <ellipse id="Elipse_11557" data-name="Elipse 11557" cx="13.035" cy="13.035" rx="13.035" ry="13.035" transform="translate(10.162 9.234)" fill="#eaeaea"/>
        <g id="Grupo_1189230-2" data-name="Grupo 1189230" transform="translate(4.089 7.996)">
          <path id="Trazado_878241" data-name="Trazado 878241" d="M62.388,103.991c6.664,0,4,7.33,4,7.33a2.665,2.665,0,0,1,2.665,2.665H57.057a16.57,16.57,0,0,1-1.333-8.663C57.3,99,64.63,98.095,66.793,97.992a1.884,1.884,0,0,0,1.423-3.014A6.052,6.052,0,0,1,66.9,92.264l-.281-4.495A3.548,3.548,0,0,1,70.163,84h2.4a4.4,4.4,0,0,1,3.109,1.288l1.377,1.378h1.339a2.659,2.659,0,0,1,.73,5.216l-2.736.782s3.778,7.556.162,12.468a5.657,5.657,0,0,0-1.12,4.149l.292,2.041h.666a2.665,2.665,0,0,1,2.665,2.665H73.716l-2-6s-3.332,3.332-5.331,3.332" transform="translate(-49.061 -83.334)" fill="#edebdc"/>
          <path id="Trazado_878242" data-name="Trazado 878242" d="M46.393,111.319H65.717a.666.666,0,0,0,.666-.666,3.327,3.327,0,0,0-1.288-2.63,16.385,16.385,0,0,0,2.984-2.169l1.67,5.01a.665.665,0,0,0,.632.455h5.331a.666.666,0,0,0,.666-.666,3.336,3.336,0,0,0-3.332-3.332h-.088l-.21-1.469a4.988,4.988,0,0,1,1-3.659c3.178-4.318,1.1-10.355.226-12.434l1.995-.57a3.325,3.325,0,0,0-.914-6.522H73.99l-1.182-1.182A5.031,5.031,0,0,0,69.227,80h-2.4a4.215,4.215,0,0,0-4.206,4.477l.281,4.494a6.292,6.292,0,0,0,1.445,3.07,1.217,1.217,0,0,1-.921,1.95c-1.643.078-9.931.824-11.683,7.836a.653.653,0,0,0-.014.067,17.564,17.564,0,0,0,.965,8.091h-6.3a.666.666,0,0,0,0,1.333Zm18.544-1.333H54.144a16.212,16.212,0,0,1-1.1-7.871c1.545-6.063,8.97-6.721,10.445-6.791a2.55,2.55,0,0,0,1.925-4.079,5.311,5.311,0,0,1-1.182-2.356l-.281-4.494a2.881,2.881,0,0,1,2.876-3.061h2.4a3.708,3.708,0,0,1,2.638,1.093L73.243,83.8a.666.666,0,0,0,.471.2h1.339a1.993,1.993,0,0,1,.548,3.908l-2.736.782a.666.666,0,0,0-.413.938c.036.072,3.55,7.254.221,11.775a6.312,6.312,0,0,0-1.243,4.638l.292,2.041a.666.666,0,0,0,.66.572h.666a2,2,0,0,1,1.885,1.333h-4.07l-1.847-5.542a.666.666,0,0,0-1.1-.261A15.4,15.4,0,0,1,64,107.08c.3-1.344.541-3.6-.6-5.228a4.948,4.948,0,0,0-4.344-1.861.666.666,0,0,0,0,1.333,3.72,3.72,0,0,1,3.25,1.29c1.257,1.79.195,4.936.125,5.136a.666.666,0,0,0,.62.9h0A2,2,0,0,1,64.937,109.986Z" transform="translate(-45.727 -80)" fill="#4c241d"/>
        </g>
        <g id="Grupo_1189231" data-name="Grupo 1189231" transform="translate(23.413 0)">
          <path id="Trazado_878243" data-name="Trazado 878243" d="M50.393,34.665A.666.666,0,0,0,51.06,34V32.666a.666.666,0,1,0-1.333,0V34A.666.666,0,0,0,50.393,34.665Z" transform="translate(-38.399 -32)" fill="#4c241d"/>
          <path id="Trazado_878244" data-name="Trazado 878244" d="M50.393,58.665A.666.666,0,0,0,51.06,58V56.666a.666.666,0,1,0-1.333,0V58A.666.666,0,0,0,50.393,58.665Z" transform="translate(-38.399 -52.002)" fill="#4c241d"/>
          <path id="Trazado_878245" data-name="Trazado 878245" d="M34.393,49.333h1.333a.666.666,0,1,0,0-1.333H34.393a.666.666,0,1,0,0,1.333Z" transform="translate(-21.066 -45.335)" fill="#4c241d"/>
          <path id="Trazado_878246" data-name="Trazado 878246" d="M58.393,49.333h1.333a.666.666,0,1,0,0-1.333H58.393a.666.666,0,1,0,0,1.333Z" transform="translate(-49.064 -45.335)" fill="#4c241d"/>
          <ellipse id="Elipse_11558" data-name="Elipse 11558" cx="0.712" cy="0.712" rx="0.712" ry="0.712" transform="translate(2.238 4.259)" fill="#4c241d"/>
          <path id="Trazado_878247" data-name="Trazado 878247" d="M96.867,109.33a.651.651,0,0,0,.074,0,4.388,4.388,0,0,0,3.587-2.08c1.5-2.636-.31-6.683-.388-6.854a.666.666,0,0,0-1.214.551c.016.036,1.606,3.6.442,5.647A3.1,3.1,0,0,1,96.794,108a.666.666,0,0,0,.073,1.328Z" transform="translate(-96.201 -88.673)" fill="#4c241d"/>
        </g>
        <g id="Grupo_1189232" data-name="Grupo 1189232" transform="translate(24.746 27.321)">
          <path id="Trazado_878248" data-name="Trazado 878248" d="M105.727,200l1.333,4.664" transform="translate(-105.061 -199.334)" fill="#bf7e68"/>
          <path id="Trazado_878249" data-name="Trazado 878249" d="M103.722,202a.668.668,0,0,0,.642-.85l-1.333-4.664a.667.667,0,0,0-1.282.366l1.333,4.664A.667.667,0,0,0,103.722,202Z" transform="translate(-101.724 -196.002)" fill="#4c241d"/>
        </g>
        <path id="Trazado_878250" data-name="Trazado 878250" d="M169.21,69.1a.664.664,0,0,0,.471-.2l4.4-4.4a.666.666,0,0,0,0-.942L164.06,53.545a.666.666,0,0,0-.942,0l-4.4,4.4a.666.666,0,0,0,0,.942L168.739,68.9A.664.664,0,0,0,169.21,69.1Zm3.457-5.065-3.457,3.456-9.077-9.077,3.457-3.456Z" transform="translate(-156.325 -49.793)" fill="#4c241d"/>
        <path id="Trazado_878251" data-name="Trazado 878251" d="M167.5,67.5a.666.666,0,0,0,.472-1.136l-16.2-16.308a.666.666,0,1,0-.945.939l16.2,16.308A.664.664,0,0,0,167.5,67.5Z" transform="translate(-148.898 -46.886)" fill="#4c241d"/>
        <g id="Grupo_1189233" data-name="Grupo 1189233" transform="translate(5.864 7.222)">
          <path id="Trazado_878252" data-name="Trazado 878252" d="M0,8.984H6.22V0H0Z" transform="translate(0.666 5.071) rotate(-45)" fill="#c1dbdc"/>
          <path id="Trazado_878253" data-name="Trazado 878253" d="M165.544,87.439a.664.664,0,0,0,.471-.2l4.4-4.4a.666.666,0,0,0,0-.942l-6.354-6.354a.666.666,0,0,0-.942,0l-4.4,4.4a.666.666,0,0,0,0,.942l6.354,6.354A.664.664,0,0,0,165.544,87.439ZM169,82.374l-3.457,3.456-5.411-5.411,3.457-3.456Z" transform="translate(-158.524 -75.354)" fill="#4c241d"/>
        </g>
        <g id="Grupo_1189234" data-name="Grupo 1189234" transform="translate(13.44 14.798)">
          <path id="Trazado_878254" data-name="Trazado 878254" d="M0,1.728H2.764V0H0Z" transform="translate(0.666 2.627) rotate(-45)" fill="#fff"/>
          <path id="Trazado_878255" data-name="Trazado 878255" d="M160.413,125.338a.664.664,0,0,0,.471-.2l1.955-1.955a.666.666,0,0,0,0-.942l-1.222-1.222a.666.666,0,0,0-.942,0l-1.955,1.955a.666.666,0,0,0,0,.942l1.222,1.222A.664.664,0,0,0,160.413,125.338Zm1.013-2.621-1.013,1.013-.28-.28,1.013-1.013Z" transform="translate(-158.525 -120.828)" fill="#4c241d"/>
        </g>
        <path id="Trazado_878256" data-name="Trazado 878256" d="M241.338,44.412a.664.664,0,0,0,.471-.2l2.932-2.933a.666.666,0,1,0-.942-.942l-2.932,2.933a.666.666,0,0,0,.471,1.137Z" transform="translate(-240.671 -38.789)" fill="#4c241d"/>
      </g>
    </g>
  </g>
</svg>
