<svg xmlns="http://www.w3.org/2000/svg" width="73.054" height="73.053" viewBox="0 0 73.054 73.053">
  <g id="Grupo_1189221" data-name="Grupo 1189221" transform="translate(-871.113 -277.164)">
    <g id="Grupo_1188789" data-name="Grupo 1188789" transform="translate(871.113 277.164)">
      <rect id="Rectángulo_400898" data-name="Rectángulo 400898" width="60.477" height="60.477" rx="30.238" transform="translate(6.492 6.5)" fill="#c6ac97"/>
      <rect id="Rectángulo_400907" data-name="Rectángulo 400907" width="65.491" height="65.49" rx="32.745" transform="translate(3.783 3.781)" fill="none"/>
      <g id="Grupo_1098742" data-name="Grupo 1098742" transform="translate(0)">
        <g id="Rectángulo_400898-2" data-name="Rectángulo 400898" transform="translate(0)" fill="none" stroke="#fff" stroke-width="2" opacity="0.859">
          <rect width="73.054" height="73.053" rx="36.527" stroke="none"/>
          <rect x="1" y="1" width="71.054" height="71.053" rx="35.527" fill="none"/>
        </g>
        <g id="Rectángulo_400907-2" data-name="Rectángulo 400907" transform="translate(0)" fill="none" stroke="#0f1f33" stroke-linecap="round" stroke-width="2">
          <rect width="73.054" height="73.053" rx="36.527" stroke="none"/>
          <rect x="1" y="1" width="71.054" height="71.053" rx="35.527" fill="none"/>
        </g>
      </g>
      <g id="Grupo_1189236" data-name="Grupo 1189236" transform="translate(14.492 -23.219)">
        <g id="Grupo_1189237" data-name="Grupo 1189237" transform="translate(0.653 41.376)">
          <path id="Trazado_878264" data-name="Trazado 878264" d="M17.091,76.688C-4.863,57.885,15.95,39.694,29.135,52.58c13.185-12.885,34,5.3,12.044,24.108H17.091Z" transform="translate(-7.5 -48.249)" fill="#ff8997"/>
          <path id="Trazado_878265" data-name="Trazado 878265" d="M13.168,63.713a22.25,22.25,0,0,1,3.3-11.7c-9.194,2.187-14.68,15,.628,28.111h3.267A22.183,22.183,0,0,1,13.168,63.713Z" transform="translate(-7.501 -51.687)" fill="#ff6f7f"/>
          <path id="Trazado_878266" data-name="Trazado 878266" d="M141.749,141.387v17.582a63.187,63.187,0,0,1-11.31,7.552,1.558,1.558,0,0,1-1.47,0,63.187,63.187,0,0,1-11.31-7.552V141.387a3.011,3.011,0,0,1,6.022,0,3.011,3.011,0,0,1,6.022,0,3.011,3.011,0,0,1,6.022,0,3.011,3.011,0,0,1,6.022,0Z" transform="translate(-108.069 -130.529)" fill="#c7c5cb"/>
          <g id="Grupo_1189236-2" data-name="Grupo 1189236" transform="translate(11.96 13.492)">
            <path id="Trazado_878267" data-name="Trazado 878267" d="M176.72,276.957c-2.432,0-2.311-2.386-5.122-2.386s-2.689,2.386-5.122,2.386c-1.894,0-4.017,2.85-2.289,5.721s4.519.89,7.41.89,5.681,1.981,7.41-.89S178.614,276.957,176.72,276.957Z" transform="translate(-161.923 -268.358)" fill="#ffdcef"/>
            <ellipse id="Elipse_11559" data-name="Elipse 11559" cx="1.541" cy="1.955" rx="1.541" ry="1.955" transform="translate(5.222)" fill="#ffdcef"/>
            <ellipse id="Elipse_11560" data-name="Elipse 11560" cx="1.541" cy="1.955" rx="1.541" ry="1.955" transform="translate(0 3.035) rotate(-13.939)" fill="#ffdcef"/>
            <ellipse id="Elipse_11561" data-name="Elipse 11561" cx="1.541" cy="1.955" rx="1.541" ry="1.955" transform="translate(11.047)" fill="#ffdcef"/>
            <ellipse id="Elipse_11562" data-name="Elipse 11562" cx="1.955" cy="1.541" rx="1.955" ry="1.541" transform="translate(15.453 6.086) rotate(-76.061)" fill="#ffdcef"/>
          </g>
          <path id="Trazado_878268" data-name="Trazado 878268" d="M117.66,331.815v3.751a63.187,63.187,0,0,0,11.31,7.552,1.558,1.558,0,0,0,1.47,0q1.814-.972,3.445-1.955A21.578,21.578,0,0,1,117.66,331.815Z" transform="translate(-108.069 -307.127)" fill="#b2b0bc"/>
        </g>
        <g id="Grupo_1189238" data-name="Grupo 1189238" transform="translate(0 40.72)">
          <path id="Trazado_878269" data-name="Trazado 878269" d="M160.031,278.035a11.47,11.47,0,0,0,2.3-.321,8.864,8.864,0,0,1,4.862,0c1.918.4,4.093.856,5.539-1.546,1.96-3.255-.389-6.712-2.848-6.712a2.461,2.461,0,0,1-1.9-.947,4.327,4.327,0,0,0-6.444,0,2.46,2.46,0,0,1-1.9.947c-2.446,0-4.817,3.442-2.848,6.712A3.5,3.5,0,0,0,160.031,278.035Zm-.387-7.273a3.7,3.7,0,0,0,2.8-1.31,3.036,3.036,0,0,1,4.638,0,3.705,3.705,0,0,0,2.8,1.31c1.439,0,3.166,2.345,1.729,4.732-.925,1.536-2.06,1.379-4.153.941a10.072,10.072,0,0,0-5.4,0c-2.093.438-3.228.595-4.153-.941C156.469,273.093,158.224,270.762,159.644,270.762Z" transform="translate(-142.478 -247.363)"/>
          <path id="Trazado_878270" data-name="Trazado 878270" d="M201.731,198.309a2.227,2.227,0,1,0-2.195,2.608A2.431,2.431,0,0,0,201.731,198.309Zm-3.083,0c0-.706.407-1.3.889-1.3s.889.6.889,1.3-.407,1.3-.889,1.3S198.648,199.015,198.648,198.309Z" transform="translate(-180.161 -182.208)"/>
          <path id="Trazado_878271" data-name="Trazado 878271" d="M146.126,227.937a2.227,2.227,0,1,0-4.26,1.056,2.545,2.545,0,0,0,2.309,2.059C145.557,231.051,146.532,229.576,146.126,227.937Zm-2.993.742c-.252-1.017.417-1.9,1.187-1.3.837.65.73,2.168-.012,2.352-.468.116-1.006-.365-1.176-1.05Z" transform="translate(-129.431 -209.758)"/>
          <path id="Trazado_878272" data-name="Trazado 878272" d="M268.638,198.309a2.227,2.227,0,1,0-2.195,2.608A2.431,2.431,0,0,0,268.638,198.309Zm-3.083,0c0-.706.407-1.3.889-1.3s.888.6.888,1.3-.407,1.3-.888,1.3S265.555,199.015,265.555,198.309Z" transform="translate(-241.243 -182.208)"/>
          <path id="Trazado_878273" data-name="Trazado 878273" d="M323.393,227.114a2.055,2.055,0,0,0-1.358-1.183,2.431,2.431,0,0,0-2.758,2c-.408,1.646.575,3.114,1.951,3.114C322.971,231.049,324.162,228.813,323.393,227.114Zm-1.123,1.563c-.252,1.016-1.256,1.485-1.658.6-.429-.949.346-2.263,1.109-2.075a.773.773,0,0,1,.482.453A1.6,1.6,0,0,1,322.27,228.677Z" transform="translate(-291.395 -209.756)"/>
          <path id="Trazado_878274" data-name="Trazado 878274" d="M22.289,44.806a14.629,14.629,0,0,0-9.562-4.082,12.448,12.448,0,0,0-8.855,3.329.653.653,0,0,0,.891.955c4.036-3.767,11.2-4.577,17.07,1.164a.653.653,0,0,0,.913,0C33,36.153,47.886,45.722,41.889,59.283a27.97,27.97,0,0,1-6.9,9.082v-3.4a.653.653,0,0,0-1.306,0v4.549a63.38,63.38,0,0,1-10.966,7.279.9.9,0,0,1-.853,0A63.383,63.383,0,0,1,10.9,69.514V52.232a2.358,2.358,0,0,1,4.717,0,.653.653,0,0,0,1.306,0,2.358,2.358,0,0,1,4.717,0,.653.653,0,0,0,1.306,0,2.358,2.358,0,0,1,4.717,0,.653.653,0,0,0,1.306,0,2.358,2.358,0,0,1,4.717,0V62.353a.653.653,0,1,0,1.306,0V52.232a3.665,3.665,0,0,0-6.677-2.088,3.666,3.666,0,0,0-6.023,0,3.666,3.666,0,0,0-6.023,0A3.664,3.664,0,0,0,9.59,52.232V68.365C5.467,64.583,2.771,60.55,1.76,56.637a11.924,11.924,0,0,1,1.4-9.748.653.653,0,0,0-1.085-.727C-.779,50.427-1.049,56.729,3.559,63.491c4.173,6.125,11.163,10.958,17.687,14.453a2.206,2.206,0,0,0,2.086,0c7.628-4.087,16.25-10.213,19.752-18.133A15.366,15.366,0,0,0,44.3,50.462C42.372,41.245,30.845,36.976,22.289,44.806Z" transform="translate(0 -40.72)"/>
        </g>
      </g>
    </g>
  </g>
</svg>
