<svg xmlns="http://www.w3.org/2000/svg" xmlns:xlink="http://www.w3.org/1999/xlink" width="295.057" height="190.812" viewBox="0 0 295.057 190.812">
  <defs>
    <clipPath id="clip-path">
      <rect id="Rectángulo_402933" data-name="Rectángulo 402933" width="295.057" height="190.812" rx="10" transform="translate(285 5746)" fill="#c6ac97"/>
    </clipPath>
    <clipPath id="clip-path-2">
      <path id="Trazado_878434" data-name="Trazado 878434" d="M136.525,398.825a153.46,153.46,0,0,1-17.329.807,1.28,1.28,0,0,1-1.261-1.168,8.041,8.041,0,0,1,.186-2.719,1.291,1.291,0,0,1,1.051-.968,70.533,70.533,0,0,1,17.276-.53,1.259,1.259,0,0,1,1.121,1.047,9.8,9.8,0,0,1,.094,2.347A1.29,1.29,0,0,1,136.525,398.825Z" transform="translate(-117.896 -393.941)" fill="none"/>
    </clipPath>
    <clipPath id="clip-path-3">
      <path id="Trazado_878460" data-name="Trazado 878460" d="M86.8,398.825a153.46,153.46,0,0,1-17.329.807,1.28,1.28,0,0,1-1.261-1.168,8.041,8.041,0,0,1,.186-2.719,1.291,1.291,0,0,1,1.051-.968,70.533,70.533,0,0,1,17.276-.53,1.259,1.259,0,0,1,1.121,1.047,9.8,9.8,0,0,1,.094,2.347A1.29,1.29,0,0,1,86.8,398.825Z" transform="translate(-68.175 -393.941)" fill="none"/>
    </clipPath>
    <clipPath id="clip-path-4">
      <path id="Trazado_878348" data-name="Trazado 878348" d="M337.648,213.729l6.96-3.537-10.531-20.746a1.616,1.616,0,0,0-2.169-.71l-4.529,2.291a1.614,1.614,0,0,0-.7,2.2Z" transform="translate(-326.494 -188.562)" fill="none"/>
    </clipPath>
  </defs>
  <g id="Grupo_1189799" data-name="Grupo 1189799" transform="translate(-285 -5746)">
    <path id="Trazado_878405" data-name="Trazado 878405" d="M10,0H285.057a10,10,0,0,1,10,10V180.812a10,10,0,0,1-10,10H10a10,10,0,0,1-10-10V10A10,10,0,0,1,10,0Z" transform="translate(285 5746)" fill="#1a0b34"/>
    <g id="Enmascarar_grupo_1099211" data-name="Enmascarar grupo 1099211" clip-path="url(#clip-path)">
      <g id="Grupo_1189357" data-name="Grupo 1189357" transform="translate(250.805 5589.765)">
        <g id="Grupo_1189330" data-name="Grupo 1189330" transform="translate(38.684 262.962)">
          <path id="Trazado_878406" data-name="Trazado 878406" d="M133.6,359.82l-3.755,39.995-23.763.141a302.615,302.615,0,0,1-4.063-40.009A42.964,42.964,0,0,1,133.6,359.82Z" transform="translate(-74.028 -315.375)" fill="#371276"/>
          <path id="Trazado_878407" data-name="Trazado 878407" d="M119.939,279.473a21.033,21.033,0,0,0-5.477-9.229c-4.49-4.578-10.665-7.467-16.51-7.273,2.2,2.767,2.277,6.662,1.683,10.145s-1.757,6.909-1.686,10.442a13.472,13.472,0,0,0,3.525,8.952,11,11,0,0,0,8.857,3.456c.086-.008.171-.024.257-.034a65.194,65.194,0,0,0,1.579,11.435,1.71,1.71,0,0,1,1.542-.562,34.761,34.761,0,0,1-1.792-11.135,11.516,11.516,0,0,0,6.975-5.648A14.637,14.637,0,0,0,119.939,279.473Z" transform="translate(-71.757 -262.962)" fill="#371276"/>
          <path id="Trazado_878408" data-name="Trazado 878408" d="M73.147,324.538a11.24,11.24,0,0,0-3.763-3,11.384,11.384,0,0,0-2.275-10,16.557,16.557,0,0,0-11.086-5.523,22.518,22.518,0,0,0-17.339,5.646c6.036,3.451,7.586,12.257,13.628,15.873a12.235,12.235,0,0,0,10.508.718,11.072,11.072,0,0,0,5.813-4.841c.1-.184.188-.373.275-.562a9.384,9.384,0,0,1,4.99,8.61,4.306,4.306,0,0,0,1.72-.18A11.261,11.261,0,0,0,73.147,324.538Z" transform="translate(-38.684 -286.921)" fill="#371276"/>
        </g>
        <g id="Grupo_1189343" data-name="Grupo 1189343" transform="translate(73.69 320.845)">
          <path id="Trazado_878409" data-name="Trazado 878409" d="M122.137,403.154c-.064,5.924.159,11.852.689,17.956a3.6,3.6,0,0,0,3.368,3.287c3.016.17,6.043.215,9.079.171a3.585,3.585,0,0,0,3.527-3.447,121.771,121.771,0,0,0-.68-18.018Z" transform="translate(-120.257 -399.055)" fill="none" stroke="#0b2147" stroke-linecap="round" stroke-linejoin="round" stroke-width="1"/>
          <g id="Grupo_1189331" data-name="Grupo 1189331" transform="translate(4.939 6.494)">
            <path id="Trazado_878410" data-name="Trazado 878410" d="M129.147,411.451h0a1.651,1.651,0,0,1,1.086-2.067l2.161-.673a1.651,1.651,0,0,1,.982,3.154l-2.161.673A1.652,1.652,0,0,1,129.147,411.451Z" transform="translate(-129.072 -408.636)" fill="#fff"/>
            <path id="Trazado_878411" data-name="Trazado 878411" d="M129.147,411.986a1.652,1.652,0,0,0,2.067,1.086l1.138-.354q-.477-1.583-1.078-3.124l-1.041.324A1.651,1.651,0,0,0,129.147,411.986Z" transform="translate(-129.072 -409.171)" fill="#40dbff"/>
          </g>
          <g id="Grupo_1189332" data-name="Grupo 1189332" transform="translate(6.925 17.261)">
            <path id="Trazado_878412" data-name="Trazado 878412" d="M139.007,435.638h0a1.651,1.651,0,0,1-2.014,1.182l-2.19-.57a1.651,1.651,0,0,1,.833-3.2l2.19.57A1.651,1.651,0,0,1,139.007,435.638Z" transform="translate(-133.567 -433)" fill="#fff"/>
            <path id="Trazado_878413" data-name="Trazado 878413" d="M142,436.047a1.652,1.652,0,0,0-1.182-2.014l-1.153-.3q-.432,1.6-.735,3.222l1.055.275A1.651,1.651,0,0,0,142,436.047Z" transform="translate(-136.56 -433.408)" fill="#40dbff"/>
          </g>
          <g id="Grupo_1189333" data-name="Grupo 1189333" transform="translate(11.486 7.537)">
            <path id="Trazado_878414" data-name="Trazado 878414" d="M146.86,411.093h0a1.651,1.651,0,0,1,1,2.112l-.764,2.13a1.651,1.651,0,0,1-3.109-1.115l.764-2.13A1.651,1.651,0,0,1,146.86,411.093Z" transform="translate(-143.888 -410.996)" fill="#fff"/>
            <path id="Trazado_878415" data-name="Trazado 878415" d="M147.44,411.093a1.651,1.651,0,0,0-2.112,1l-.4,1.122q1.55.572,3.143,1.02l.368-1.027A1.651,1.651,0,0,0,147.44,411.093Z" transform="translate(-144.467 -410.996)" fill="#40dbff"/>
          </g>
          <g id="Grupo_1189334" data-name="Grupo 1189334" transform="translate(3.836 20.814)">
            <path id="Trazado_878416" data-name="Trazado 878416" d="M126.635,442.257h0a1.652,1.652,0,0,1,2.029-1.157l2.182.6a1.651,1.651,0,1,1-.871,3.186l-2.183-.6A1.652,1.652,0,0,1,126.635,442.257Z" transform="translate(-126.576 -441.041)" fill="#fff"/>
            <path id="Trazado_878417" data-name="Trazado 878417" d="M126.635,442.257a1.652,1.652,0,0,0,1.157,2.029l1.149.314q.451-1.59.774-3.212l-1.052-.288A1.652,1.652,0,0,0,126.635,442.257Z" transform="translate(-126.576 -441.041)" fill="#40dbff"/>
          </g>
          <g id="Grupo_1189335" data-name="Grupo 1189335" transform="translate(3.047 11.746)">
            <path id="Trazado_878418" data-name="Trazado 878418" d="M126.093,420.558h0a1.652,1.652,0,0,1,1.964,1.264l.479,2.211a1.651,1.651,0,0,1-3.227.7l-.48-2.211A1.652,1.652,0,0,1,126.093,420.558Z" transform="translate(-124.791 -420.52)" fill="#fff"/>
            <path id="Trazado_878419" data-name="Trazado 878419" d="M126.093,420.558a1.652,1.652,0,0,0-1.264,1.964l.253,1.164q1.618-.335,3.206-.8l-.231-1.065A1.652,1.652,0,0,0,126.093,420.558Z" transform="translate(-124.791 -420.52)" fill="#40dbff"/>
          </g>
          <g id="Grupo_1189336" data-name="Grupo 1189336" transform="translate(11.743 19.935)">
            <path id="Trazado_878420" data-name="Trazado 878420" d="M149.577,439.928h0a1.651,1.651,0,0,1-.684,2.233l-2,1.061a1.651,1.651,0,0,1-1.548-2.917l2-1.062A1.652,1.652,0,0,1,149.577,439.928Z" transform="translate(-144.469 -439.05)" fill="#fff"/>
            <path id="Trazado_878421" data-name="Trazado 878421" d="M151.88,439.928a1.652,1.652,0,0,0-2.233-.685l-1.052.559q.761,1.466,1.638,2.869l.963-.511A1.651,1.651,0,0,0,151.88,439.928Z" transform="translate(-146.772 -439.05)" fill="#40dbff"/>
          </g>
          <g id="Grupo_1189337" data-name="Grupo 1189337" transform="translate(7.142 10.772)">
            <path id="Trazado_878422" data-name="Trazado 878422" d="M137.536,423.431h0a1.651,1.651,0,0,1-2.231-.691l-1.055-2a1.651,1.651,0,1,1,2.922-1.54l1.055,2A1.651,1.651,0,0,1,137.536,423.431Z" transform="translate(-134.059 -418.317)" fill="#fff"/>
            <path id="Trazado_878423" data-name="Trazado 878423" d="M138.467,425.741a1.651,1.651,0,0,0,.69-2.231l-.555-1.054q-1.469.757-2.874,1.629l.509.965A1.651,1.651,0,0,0,138.467,425.741Z" transform="translate(-134.99 -420.627)" fill="#40dbff"/>
          </g>
          <g id="Grupo_1189338" data-name="Grupo 1189338" transform="translate(12.212 14.504)">
            <path id="Trazado_878424" data-name="Trazado 878424" d="M151.06,428.939h0a1.652,1.652,0,0,1-1.859,1.414l-2.242-.3a1.651,1.651,0,0,1,.445-3.272l2.242.3A1.651,1.651,0,0,1,151.06,428.939Z" transform="translate(-145.53 -426.76)" fill="#fff"/>
            <path id="Trazado_878425" data-name="Trazado 878425" d="M154.331,429.14a1.651,1.651,0,0,0-1.414-1.858l-1.18-.16q-.238,1.635-.345,3.286l1.081.147A1.652,1.652,0,0,0,154.331,429.14Z" transform="translate(-148.801 -426.962)" fill="#40dbff"/>
          </g>
          <g id="Grupo_1189342" data-name="Grupo 1189342" transform="translate(0 0)">
            <path id="Trazado_878426" data-name="Trazado 878426" d="M136.525,398.825a153.46,153.46,0,0,1-17.329.807,1.28,1.28,0,0,1-1.261-1.168,8.041,8.041,0,0,1,.186-2.719,1.291,1.291,0,0,1,1.051-.968,70.533,70.533,0,0,1,17.276-.53,1.259,1.259,0,0,1,1.121,1.047,9.8,9.8,0,0,1,.094,2.347A1.29,1.29,0,0,1,136.525,398.825Z" transform="translate(-117.896 -393.941)" fill="#ff3b57"/>
            <g id="Grupo_1189341" data-name="Grupo 1189341">
              <g id="Grupo_1189340" data-name="Grupo 1189340" clip-path="url(#clip-path-2)">
                <g id="Grupo_1189339" data-name="Grupo 1189339" transform="translate(1.193 -0.425)">
                  <path id="Trazado_878427" data-name="Trazado 878427" d="M127.148,394.376a57.953,57.953,0,0,0,.445,6.1" transform="translate(-124.253 -393.759)" fill="none" stroke="#c9263e" stroke-linecap="round" stroke-linejoin="round" stroke-width="1"/>
                  <path id="Trazado_878428" data-name="Trazado 878428" d="M145.029,393.068a44.716,44.716,0,0,1,.4,6.468" transform="translate(-134.232 -393.029)" fill="none" stroke="#c9263e" stroke-linecap="round" stroke-linejoin="round" stroke-width="1"/>
                  <path id="Trazado_878429" data-name="Trazado 878429" d="M132.545,393.328a44.653,44.653,0,0,1,.4,6.468" transform="translate(-127.265 -393.174)" fill="none" stroke="#c9263e" stroke-linecap="round" stroke-linejoin="round" stroke-width="1"/>
                  <path id="Trazado_878430" data-name="Trazado 878430" d="M153.145,392.98q.2,3.141.4,6.281" transform="translate(-138.761 -392.98)" fill="none" stroke="#c9263e" stroke-linecap="round" stroke-linejoin="round" stroke-width="1"/>
                  <path id="Trazado_878431" data-name="Trazado 878431" d="M158.653,393.692a27.146,27.146,0,0,1,.235,5.867" transform="translate(-141.835 -393.377)" fill="none" stroke="#c9263e" stroke-linecap="round" stroke-linejoin="round" stroke-width="1"/>
                  <path id="Trazado_878432" data-name="Trazado 878432" d="M120.6,394.735q.108,3,.215,6" transform="translate(-120.597 -393.959)" fill="none" stroke="#c9263e" stroke-linecap="round" stroke-linejoin="round" stroke-width="1"/>
                  <path id="Trazado_878433" data-name="Trazado 878433" d="M139.435,393.6q.107,3,.214,6" transform="translate(-131.11 -393.326)" fill="none" stroke="#c9263e" stroke-linecap="round" stroke-linejoin="round" stroke-width="1"/>
                </g>
              </g>
            </g>
          </g>
        </g>
        <g id="Grupo_1189356" data-name="Grupo 1189356" transform="translate(51.717 320.845)">
          <path id="Trazado_878435" data-name="Trazado 878435" d="M72.415,403.154c-.064,5.924.159,11.852.689,17.956a3.6,3.6,0,0,0,3.368,3.287c3.016.17,6.043.215,9.079.171a3.585,3.585,0,0,0,3.527-3.447A121.776,121.776,0,0,0,88.4,403.1Z" transform="translate(-70.535 -399.055)" fill="none" stroke="#0b2147" stroke-linecap="round" stroke-linejoin="round" stroke-width="1"/>
          <g id="Grupo_1189344" data-name="Grupo 1189344" transform="translate(4.939 6.494)">
            <path id="Trazado_878436" data-name="Trazado 878436" d="M79.425,411.451h0a1.651,1.651,0,0,1,1.086-2.067l2.161-.673a1.651,1.651,0,0,1,.982,3.154l-2.161.673A1.652,1.652,0,0,1,79.425,411.451Z" transform="translate(-79.35 -408.636)" fill="#fff"/>
            <path id="Trazado_878437" data-name="Trazado 878437" d="M79.425,411.986a1.652,1.652,0,0,0,2.067,1.086l1.138-.354q-.476-1.583-1.078-3.124l-1.041.324A1.651,1.651,0,0,0,79.425,411.986Z" transform="translate(-79.35 -409.171)" fill="#40dbff"/>
          </g>
          <g id="Grupo_1189345" data-name="Grupo 1189345" transform="translate(6.925 17.261)">
            <path id="Trazado_878438" data-name="Trazado 878438" d="M89.285,435.638h0a1.651,1.651,0,0,1-2.014,1.182l-2.19-.57a1.651,1.651,0,0,1,.833-3.2l2.19.57A1.651,1.651,0,0,1,89.285,435.638Z" transform="translate(-83.845 -433)" fill="#fff"/>
            <path id="Trazado_878439" data-name="Trazado 878439" d="M92.278,436.047a1.652,1.652,0,0,0-1.182-2.014l-1.153-.3q-.432,1.6-.735,3.222l1.055.275A1.651,1.651,0,0,0,92.278,436.047Z" transform="translate(-86.838 -433.408)" fill="#40dbff"/>
          </g>
          <g id="Grupo_1189346" data-name="Grupo 1189346" transform="translate(11.486 7.537)">
            <path id="Trazado_878440" data-name="Trazado 878440" d="M97.138,411.093h0a1.651,1.651,0,0,1,1,2.112l-.764,2.13a1.651,1.651,0,0,1-3.109-1.115l.764-2.13A1.651,1.651,0,0,1,97.138,411.093Z" transform="translate(-94.166 -410.996)" fill="#fff"/>
            <path id="Trazado_878441" data-name="Trazado 878441" d="M97.718,411.093a1.651,1.651,0,0,0-2.112,1l-.4,1.122q1.55.572,3.143,1.02l.368-1.027A1.651,1.651,0,0,0,97.718,411.093Z" transform="translate(-94.745 -410.996)" fill="#40dbff"/>
          </g>
          <g id="Grupo_1189347" data-name="Grupo 1189347" transform="translate(3.836 20.814)">
            <path id="Trazado_878442" data-name="Trazado 878442" d="M76.913,442.257h0a1.652,1.652,0,0,1,2.029-1.157l2.182.6a1.651,1.651,0,1,1-.871,3.186l-2.183-.6A1.652,1.652,0,0,1,76.913,442.257Z" transform="translate(-76.854 -441.041)" fill="#fff"/>
            <path id="Trazado_878443" data-name="Trazado 878443" d="M76.913,442.257a1.652,1.652,0,0,0,1.157,2.029l1.149.314q.451-1.59.774-3.212l-1.052-.288A1.652,1.652,0,0,0,76.913,442.257Z" transform="translate(-76.854 -441.041)" fill="#40dbff"/>
          </g>
          <g id="Grupo_1189348" data-name="Grupo 1189348" transform="translate(3.047 11.746)">
            <path id="Trazado_878444" data-name="Trazado 878444" d="M76.371,420.558h0a1.652,1.652,0,0,1,1.964,1.264l.479,2.211a1.651,1.651,0,0,1-3.227.7l-.48-2.211A1.652,1.652,0,0,1,76.371,420.558Z" transform="translate(-75.069 -420.52)" fill="#fff"/>
            <path id="Trazado_878445" data-name="Trazado 878445" d="M76.371,420.558a1.652,1.652,0,0,0-1.264,1.964l.253,1.164q1.618-.335,3.206-.8l-.231-1.065A1.652,1.652,0,0,0,76.371,420.558Z" transform="translate(-75.069 -420.52)" fill="#40dbff"/>
          </g>
          <g id="Grupo_1189349" data-name="Grupo 1189349" transform="translate(11.743 19.935)">
            <path id="Trazado_878446" data-name="Trazado 878446" d="M99.855,439.928h0a1.651,1.651,0,0,1-.684,2.233l-2,1.061a1.651,1.651,0,0,1-1.549-2.917l2-1.062A1.652,1.652,0,0,1,99.855,439.928Z" transform="translate(-94.747 -439.05)" fill="#fff"/>
            <path id="Trazado_878447" data-name="Trazado 878447" d="M102.158,439.928a1.652,1.652,0,0,0-2.233-.685l-1.052.559q.762,1.466,1.638,2.869l.963-.511A1.651,1.651,0,0,0,102.158,439.928Z" transform="translate(-97.05 -439.05)" fill="#40dbff"/>
          </g>
          <g id="Grupo_1189350" data-name="Grupo 1189350" transform="translate(7.142 10.772)">
            <path id="Trazado_878448" data-name="Trazado 878448" d="M87.814,423.431h0a1.651,1.651,0,0,1-2.231-.691l-1.055-2a1.651,1.651,0,1,1,2.922-1.54l1.055,2A1.652,1.652,0,0,1,87.814,423.431Z" transform="translate(-84.337 -418.317)" fill="#fff"/>
            <path id="Trazado_878449" data-name="Trazado 878449" d="M88.745,425.741a1.651,1.651,0,0,0,.69-2.231l-.555-1.054q-1.469.757-2.874,1.629l.509.965A1.651,1.651,0,0,0,88.745,425.741Z" transform="translate(-85.268 -420.627)" fill="#40dbff"/>
          </g>
          <g id="Grupo_1189351" data-name="Grupo 1189351" transform="translate(12.212 14.504)">
            <path id="Trazado_878450" data-name="Trazado 878450" d="M95.823,428.189h0a1.651,1.651,0,0,1,1.858-1.414l2.242.3a1.651,1.651,0,1,1-.445,3.272l-2.242-.3A1.652,1.652,0,0,1,95.823,428.189Z" transform="translate(-95.808 -426.76)" fill="#fff"/>
            <path id="Trazado_878451" data-name="Trazado 878451" d="M95.823,428.189a1.652,1.652,0,0,0,1.414,1.859l1.181.16q.237-1.635.344-3.286l-1.08-.147A1.651,1.651,0,0,0,95.823,428.189Z" transform="translate(-95.808 -426.76)" fill="#40dbff"/>
          </g>
          <g id="Grupo_1189355" data-name="Grupo 1189355" transform="translate(0 0)">
            <path id="Trazado_878452" data-name="Trazado 878452" d="M86.8,398.825a153.46,153.46,0,0,1-17.329.807,1.28,1.28,0,0,1-1.261-1.168,8.041,8.041,0,0,1,.186-2.719,1.291,1.291,0,0,1,1.051-.968,70.533,70.533,0,0,1,17.276-.53,1.259,1.259,0,0,1,1.121,1.047,9.8,9.8,0,0,1,.094,2.347A1.29,1.29,0,0,1,86.8,398.825Z" transform="translate(-68.175 -393.941)" fill="#ff3b57"/>
            <g id="Grupo_1189354" data-name="Grupo 1189354">
              <g id="Grupo_1189353" data-name="Grupo 1189353" clip-path="url(#clip-path-3)">
                <g id="Grupo_1189352" data-name="Grupo 1189352" transform="translate(1.193 -0.425)">
                  <path id="Trazado_878453" data-name="Trazado 878453" d="M77.426,394.376a57.953,57.953,0,0,0,.445,6.1" transform="translate(-74.531 -393.759)" fill="none" stroke="#c9263e" stroke-linecap="round" stroke-linejoin="round" stroke-width="1"/>
                  <path id="Trazado_878454" data-name="Trazado 878454" d="M95.307,393.068a44.717,44.717,0,0,1,.4,6.468" transform="translate(-84.51 -393.029)" fill="none" stroke="#c9263e" stroke-linecap="round" stroke-linejoin="round" stroke-width="1"/>
                  <path id="Trazado_878455" data-name="Trazado 878455" d="M82.823,393.328a44.653,44.653,0,0,1,.4,6.468" transform="translate(-77.543 -393.174)" fill="none" stroke="#c9263e" stroke-linecap="round" stroke-linejoin="round" stroke-width="1"/>
                  <path id="Trazado_878456" data-name="Trazado 878456" d="M103.423,392.98q.2,3.141.4,6.281" transform="translate(-89.039 -392.98)" fill="none" stroke="#c9263e" stroke-linecap="round" stroke-linejoin="round" stroke-width="1"/>
                  <path id="Trazado_878457" data-name="Trazado 878457" d="M108.932,393.692a27.174,27.174,0,0,1,.235,5.867" transform="translate(-92.114 -393.377)" fill="none" stroke="#c9263e" stroke-linecap="round" stroke-linejoin="round" stroke-width="1"/>
                  <path id="Trazado_878458" data-name="Trazado 878458" d="M70.875,394.735q.108,3,.215,6" transform="translate(-70.875 -393.959)" fill="none" stroke="#c9263e" stroke-linecap="round" stroke-linejoin="round" stroke-width="1"/>
                  <path id="Trazado_878459" data-name="Trazado 878459" d="M89.713,393.6q.107,3,.214,6" transform="translate(-81.388 -393.326)" fill="none" stroke="#c9263e" stroke-linecap="round" stroke-linejoin="round" stroke-width="1"/>
                </g>
              </g>
            </g>
          </g>
        </g>
      </g>
      <g id="Grupo_1189329" data-name="Grupo 1189329" transform="translate(187.169 5609.903)">
        <rect id="Rectángulo_402934" data-name="Rectángulo 402934" width="73.184" height="64.677" transform="translate(217.114 148.749)" fill="#533881"/>
        <rect id="Rectángulo_402935" data-name="Rectángulo 402935" width="73.184" height="64.677" transform="translate(297.64 148.749)" fill="#533881"/>
        <rect id="Rectángulo_402936" data-name="Rectángulo 402936" width="73.184" height="64.677" transform="translate(297.64 220.768)" fill="#533881"/>
        <rect id="Rectángulo_402937" data-name="Rectángulo 402937" width="73.184" height="64.677" transform="translate(217.114 220.768)" fill="#533881"/>
        <rect id="Rectángulo_402938" data-name="Rectángulo 402938" width="169.31" height="10.34" transform="translate(209.42 291.68)" fill="#533881"/>
      </g>
      <g id="Grupo_1189328" data-name="Grupo 1189328" transform="translate(236.726 5658.118)">
        <g id="Grupo_1189295" data-name="Grupo 1189295" transform="translate(106.212 100.534)">
          <path id="Trazado_878316" data-name="Trazado 878316" d="M194.109,169.829a19,19,0,0,0-7.771-11.6c-.029-3.816-1.13-8.558-3.952-11.93-.446-.683-.324-11.308-.324-11.308a14.668,14.668,0,0,0,.831-17.5s2.285-10.761-4.106-13.407c-7.794-3.227-15.929,1.9-15.929,1.9a12.049,12.049,0,0,1,.028-3.682.96.96,0,0,0-.228-.814c-.317-.257-.787-.037-1.111.213a14.413,14.413,0,0,0-3.273,4.187c-.67-1.6-1.148-3.112-1.865-4.5-.2-.387-.481-.808-.914-.854-.541-.058-.934.5-1.143,1a7.622,7.622,0,0,0-.572,3.288c-6.1-1.986-12.609.277-16.79,4.558s-6.265,10.264-6.871,16.217.143,11.952.939,17.882c-1.839.561-3.883,3.374-4.682,6.522a12.971,12.971,0,0,0,1.244,9.428,19.177,19.177,0,0,0-16.162,8.346,30.058,30.058,0,0,0-5.243,17.321,27.29,27.29,0,0,0,4.1,15.387c2.989,4.484,7.975,7.8,13.359,7.989l68.053-24.887A19,19,0,0,0,194.109,169.829Z" transform="translate(-106.212 -100.534)" fill="#4d38af"/>
          <g id="Grupo_1189285" data-name="Grupo 1189285" transform="translate(48.418 56.55)">
            <path id="Trazado_878317" data-name="Trazado 878317" d="M199.257,209.407a98.3,98.3,0,0,0,.277,11.9l9.674.036-1.121-12.215Z" transform="translate(-199.189 -209.126)" fill="#e48a77"/>
            <path id="Trazado_878318" data-name="Trazado 878318" d="M208.518,213.744l-.424-4.618-8.829.281c-.061,1.634-.071,3.268-.051,4.9A18.629,18.629,0,0,0,208.518,213.744Z" transform="translate(-199.196 -209.126)" fill="#002977" opacity="0.12" style="mix-blend-mode: multiply;isolation: isolate"/>
          </g>
          <g id="Grupo_1189294" data-name="Grupo 1189294" transform="translate(17.268 19.036)">
            <g id="Grupo_1189287" data-name="Grupo 1189287" transform="translate(52.362 13.542)">
              <g id="Grupo_1189286" data-name="Grupo 1189286">
                <path id="Trazado_878319" data-name="Trazado 878319" d="M242.561,163.966a3.9,3.9,0,0,1,4.325-.41,6.278,6.278,0,0,1,2.853,3.5,9.112,9.112,0,0,1-9.816,12.157Z" transform="translate(-239.923 -163.092)" fill="#e48a77"/>
                <path id="Trazado_878320" data-name="Trazado 878320" d="M244.879,163.112a3.475,3.475,0,0,0-2.318.863l-2.638,15.25a8.914,8.914,0,0,0,2.909-.083A31.144,31.144,0,0,0,244.879,163.112Z" transform="translate(-239.923 -163.101)" fill="#002977" opacity="0.12" style="mix-blend-mode: multiply;isolation: isolate"/>
              </g>
              <path id="Trazado_878321" data-name="Trazado 878321" d="M244.648,190.391a2.1,2.1,0,1,0,.873,3.071A2.107,2.107,0,0,0,244.648,190.391Z" transform="translate(-240.769 -176.091)" fill="#fff"/>
            </g>
            <g id="Grupo_1189293" data-name="Grupo 1189293">
              <g id="Grupo_1189289" data-name="Grupo 1189289">
                <path id="Trazado_878322" data-name="Trazado 878322" d="M155.206,163.075a11.832,11.832,0,0,1-6.969,2.591c-2.129.069-4.4-.126-6.066-1.454a7.755,7.755,0,0,1-2.538-4.436,10.4,10.4,0,0,1,1.155-7.6,8.546,8.546,0,0,1,6.406-4.085,7.272,7.272,0,0,1,6.722,3.293c.42.691.713,1.457,1.18,2.116a2.623,2.623,0,0,0,1.981,1.238c1.314.017,2.181-1.347,2.639-2.579,1.777-4.785,1.461-10.057,1.012-15.068a16.789,16.789,0,0,0,11.329,5.213,17.885,17.885,0,0,0,11.708-3.832,10.947,10.947,0,0,0,3.9,5.566,16.539,16.539,0,0,0,6.512,2.65,24.8,24.8,0,0,1-1.11,18.616,21.609,21.609,0,0,1-14.479,11.506,20.07,20.07,0,0,1-9.851-.369,20.195,20.195,0,0,1-13.532-13.363Z" transform="translate(-139.372 -137.088)" fill="#e48a77"/>
                <g id="Grupo_1189288" data-name="Grupo 1189288" transform="translate(18.409 20.772)">
                  <path id="Trazado_878323" data-name="Trazado 878323" d="M234.666,178.878a4.941,4.941,0,0,0,.875,6.526,4.452,4.452,0,0,0,1.763.839c.369-.592.714-1.2,1.024-1.824a23.251,23.251,0,0,0,2.157-7.057A4.971,4.971,0,0,0,234.666,178.878Z" transform="translate(-203.041 -176.979)" fill="#faa391"/>
                  <path id="Trazado_878324" data-name="Trazado 878324" d="M182.058,177.713a4.762,4.762,0,1,0,.952,7.1A4.8,4.8,0,0,0,182.058,177.713Z" transform="translate(-174.723 -176.975)" fill="#faa391"/>
                </g>
              </g>
              <path id="Trazado_878325" data-name="Trazado 878325" d="M149.362,170.865a24.945,24.945,0,0,1,4.617-1.4,8.124,8.124,0,0,0-1.76,2.477,3.847,3.847,0,0,0-.079,2.973,2.55,2.55,0,0,0,2.4,1.571" transform="translate(-144.16 -152.604)" fill="none" stroke="#d1705c" stroke-linecap="round" stroke-linejoin="round" stroke-width="1"/>
              <path id="Trazado_878326" data-name="Trazado 878326" d="M153.654,189.564a2.1,2.1,0,1,0,.872,3.071A2.106,2.106,0,0,0,153.654,189.564Z" transform="translate(-144.798 -162.153)" fill="#fff"/>
              <path id="Trazado_878327" data-name="Trazado 878327" d="M200.82,180.452a18.219,18.219,0,0,0,9.869,2.131" transform="translate(-168.821 -157.87)" fill="none" stroke="#0b2147" stroke-linecap="round" stroke-linejoin="round" stroke-width="1"/>
              <g id="Grupo_1189292" data-name="Grupo 1189292" transform="translate(23.53 9.553)">
                <path id="Trazado_878328" data-name="Trazado 878328" d="M219.928,168.738a10.634,10.634,0,0,1,.3,2.665" transform="translate(-201.508 -161.809)" fill="none" stroke="#d1705c" stroke-linecap="round" stroke-linejoin="round" stroke-width="1"/>
                <g id="Grupo_1189290" data-name="Grupo 1189290">
                  <path id="Trazado_878329" data-name="Trazado 878329" d="M193.24,167.895c0-.809.392-1.464.876-1.464s.875.655.875,1.464-.392,1.463-.875,1.463S193.24,168.7,193.24,167.895Z" transform="translate(-188.718 -160.703)" fill="#0b2147" stroke="#0b2147" stroke-linecap="round" stroke-linejoin="round" stroke-width="1"/>
                  <path id="Trazado_878330" data-name="Trazado 878330" d="M189.265,158.337a7.1,7.1,0,0,1-3.407.555,1.451,1.451,0,0,1-1.2-.56,1.053,1.053,0,0,1,.136-1.12,2.6,2.6,0,0,1,.951-.7,10.467,10.467,0,0,1,3.665-1.057,1.614,1.614,0,0,1,1.356.315,1.179,1.179,0,0,1,.02,1.408A3.1,3.1,0,0,1,189.265,158.337Z" transform="translate(-184.556 -155.432)" fill="#4d38af"/>
                </g>
                <g id="Grupo_1189291" data-name="Grupo 1189291" transform="translate(24.28)">
                  <path id="Trazado_878331" data-name="Trazado 878331" d="M234.35,168.661c0-.808.392-1.464.875-1.464s.876.656.876,1.464-.392,1.464-.876,1.464S234.35,169.47,234.35,168.661Z" transform="translate(-232.699 -161.07)" fill="#0b2147" stroke="#0b2147" stroke-linecap="round" stroke-linejoin="round" stroke-width="1"/>
                  <path id="Trazado_878332" data-name="Trazado 878332" d="M232.928,158.337a7.1,7.1,0,0,0,3.407.555,1.453,1.453,0,0,0,1.2-.56,1.054,1.054,0,0,0-.137-1.12,2.6,2.6,0,0,0-.951-.7,10.464,10.464,0,0,0-3.665-1.057,1.612,1.612,0,0,0-1.355.315,1.177,1.177,0,0,0-.021,1.408A3.1,3.1,0,0,0,232.928,158.337Z" transform="translate(-231.18 -155.432)" fill="#4d38af"/>
                </g>
              </g>
            </g>
          </g>
        </g>
        <g id="Grupo_1189307" data-name="Grupo 1189307" transform="translate(186.249 130.088)">
          <path id="Trazado_878333" data-name="Trazado 878333" d="M376.73,293.086a13.745,13.745,0,0,1,5.492,1.329c.662.317,1.371.784,1.474,1.511a1.249,1.249,0,0,1,.01.256s-.015,2.381-1.238,3.24-6.355-.07-6.355-.07Z" transform="translate(-315.597 -222.367)" fill="#042d75"/>
          <g id="Grupo_1189305" data-name="Grupo 1189305" transform="translate(27.759)">
            <path id="Trazado_878334" data-name="Trazado 878334" d="M363.917,277.044a94.1,94.1,0,0,0-2.195-29.848s-1.7-4.865-4.02-4.33a27.383,27.383,0,0,0-8.819,4.783,11.24,11.24,0,0,0-3.144,4.83,54.654,54.654,0,0,0-.805,8.875c-.121,3.38-.159,6.671-.181,9.977,0,0,4.552,3.638,9.335,4.651A57.208,57.208,0,0,0,363.917,277.044Z" transform="translate(-328.327 -198.28)" fill="#e48a77"/>
            <path id="Trazado_878335" data-name="Trazado 878335" d="M361.88,234.543a87.581,87.581,0,0,1-3.468-11.656s3.581-1.038,4-.708l3.453,11.186Z" transform="translate(-334.873 -188.355)" fill="#e48a77"/>
            <path id="Trazado_878336" data-name="Trazado 878336" d="M344.827,245.046,339.452,234.9s3.166-1.9,3.281-1.976a83.727,83.727,0,0,1,7.093,8.955Z" transform="translate(-325.786 -193.534)" fill="#e48a77"/>
            <g id="Grupo_1189299" data-name="Grupo 1189299">
              <path id="Trazado_878337" data-name="Trazado 878337" d="M337.648,213.729l6.96-3.537-10.531-20.746a1.616,1.616,0,0,0-2.169-.71l-4.529,2.291a1.614,1.614,0,0,0-.7,2.2Z" transform="translate(-319.576 -172.275)" fill="#fff"/>
              <path id="Trazado_878338" data-name="Trazado 878338" d="M313.21,157.286l7.181,12.571" transform="translate(-313.21 -157.286)" fill="none" stroke="#0b2147" stroke-linecap="round" stroke-linejoin="round" stroke-width="1"/>
              <path id="Trazado_878339" data-name="Trazado 878339" d="M326.668,187.541l-2.326-6.372a.852.852,0,0,1,.436-1.059l1.373-.667a.886.886,0,0,1,1.082.247l4.294,5.5Z" transform="translate(-318.52 -167.862)" fill="#fff"/>
              <path id="Trazado_878340" data-name="Trazado 878340" d="M337.841,206.968c1.594,0,2.532-.3,3.21-1.625l-7.178-14.434a1.863,1.863,0,1,0-3.329,1.675Z" transform="translate(-321.421 -172.904)" fill="#40dbff"/>
              <path id="Trazado_878341" data-name="Trazado 878341" d="M344.742,221.2c2.8,5.552,6.175,12,8.978,17.55l3.348-1.524-9.116-17.651Z" transform="translate(-328.322 -187.139)" fill="#4d38af"/>
              <path id="Trazado_878342" data-name="Trazado 878342" d="M360.779,254.628q1.908-.943,3.867-1.776a.82.82,0,0,1,.672,1.5l-3.8,1.8a.818.818,0,0,1-1.089-.386l-.023-.048A.821.821,0,0,1,360.779,254.628Z" transform="translate(-335.79 -203.054)" fill="#ff3b57"/>
              <g id="Grupo_1189298" data-name="Grupo 1189298" transform="translate(6.917 16.287)">
                <g id="Grupo_1189297" data-name="Grupo 1189297" clip-path="url(#clip-path-4)">
                  <g id="Grupo_1189296" data-name="Grupo 1189296" transform="translate(0.858 4.811)">
                    <line id="Línea_598" data-name="Línea 598" y1="1.812" x2="3.427" fill="none" stroke="#0b2147" stroke-linecap="round" stroke-linejoin="round" stroke-width="1"/>
                    <path id="Trazado_878343" data-name="Trazado 878343" d="M330.622,204.679l3.432-1.7" transform="translate(-329.33 -200.281)" fill="none" stroke="#0b2147" stroke-linecap="round" stroke-linejoin="round" stroke-width="1"/>
                    <path id="Trazado_878344" data-name="Trazado 878344" d="M333.58,210.114l3.306-1.8" transform="translate(-330.748 -202.839)" fill="none" stroke="#0b2147" stroke-linecap="round" stroke-linejoin="round" stroke-width="1"/>
                    <path id="Trazado_878345" data-name="Trazado 878345" d="M336.653,215.836q1.6-.982,3.263-1.84" transform="translate(-332.22 -205.562)" fill="none" stroke="#0b2147" stroke-linecap="round" stroke-linejoin="round" stroke-width="1"/>
                    <path id="Trazado_878346" data-name="Trazado 878346" d="M340.375,221.891q1.447-.974,2.985-1.8" transform="translate(-334.004 -208.481)" fill="none" stroke="#0b2147" stroke-linecap="round" stroke-linejoin="round" stroke-width="1"/>
                    <path id="Trazado_878347" data-name="Trazado 878347" d="M343.505,227.759l3.077-1.7" transform="translate(-335.504 -211.343)" fill="none" stroke="#0b2147" stroke-linecap="round" stroke-linejoin="round" stroke-width="1"/>
                  </g>
                </g>
              </g>
              <path id="Trazado_878349" data-name="Trazado 878349" d="M343.547,232.067a81.2,81.2,0,0,1,10.193-5.689,1.05,1.05,0,0,1,.935,1.877l-10.014,5.631a1.047,1.047,0,0,1-1.4-.363l-.019-.029A1.05,1.05,0,0,1,343.547,232.067Z" transform="translate(-327.527 -190.354)" fill="#ff3b57"/>
            </g>
            <g id="Grupo_1189300" data-name="Grupo 1189300" transform="translate(30.471 43.487)">
              <path id="Trazado_878350" data-name="Trazado 878350" d="M371.971,244.662a6.762,6.762,0,0,1-.241-1.883,2.275,2.275,0,0,1,.784-1.674,1.392,1.392,0,0,1,1.75,0,2.1,2.1,0,0,1,.516,1.16,14.726,14.726,0,0,1,.261,3.807,1.816,1.816,0,0,1-.647,1.523,1.312,1.312,0,0,1-1.661-.531A7.249,7.249,0,0,1,371.971,244.662Z" transform="translate(-371.724 -240.794)" fill="#e48a77"/>
              <path id="Trazado_878351" data-name="Trazado 878351" d="M371.971,244.662a6.762,6.762,0,0,1-.241-1.883,2.275,2.275,0,0,1,.784-1.674,1.392,1.392,0,0,1,1.75,0,2.1,2.1,0,0,1,.516,1.16,14.726,14.726,0,0,1,.261,3.807,1.816,1.816,0,0,1-.647,1.523,1.312,1.312,0,0,1-1.661-.531A7.249,7.249,0,0,1,371.971,244.662Z" transform="translate(-371.724 -240.794)" fill="none" stroke="#d1705c" stroke-linecap="round" stroke-linejoin="round" stroke-width="1"/>
            </g>
            <g id="Grupo_1189301" data-name="Grupo 1189301" transform="translate(27.105 39.624)">
              <path id="Trazado_878352" data-name="Trazado 878352" d="M369.645,237.152c-.242,1.719-.542,3.561-1.746,4.812a2.308,2.308,0,0,1-.976.645,1.231,1.231,0,0,1-1.122-.183,1.839,1.839,0,0,1-.5-1.314,12.192,12.192,0,0,1,1.2-6.322c.3-.62.744-1.274,1.425-1.4a1.673,1.673,0,0,1,1.713,1.174A5.341,5.341,0,0,1,369.645,237.152Z" transform="translate(-365.26 -233.376)" fill="#e48a77"/>
              <path id="Trazado_878353" data-name="Trazado 878353" d="M369.645,237.152c-.242,1.719-.542,3.561-1.746,4.812a2.308,2.308,0,0,1-.976.645,1.231,1.231,0,0,1-1.122-.183,1.839,1.839,0,0,1-.5-1.314,12.192,12.192,0,0,1,1.2-6.322c.3-.62.744-1.274,1.425-1.4a1.673,1.673,0,0,1,1.713,1.174A5.341,5.341,0,0,1,369.645,237.152Z" transform="translate(-365.26 -233.376)" fill="none" stroke="#d1705c" stroke-linecap="round" stroke-linejoin="round" stroke-width="1"/>
            </g>
            <g id="Grupo_1189302" data-name="Grupo 1189302" transform="translate(17.413 43.03)">
              <path id="Trazado_878354" data-name="Trazado 878354" d="M346.647,251.085c.139-.686.3-1.366.5-2.04a14.847,14.847,0,0,1,6.251-8.763c.509-.3,1.189-.549,1.653-.184.5.392.361,1.17.154,1.768-.619,1.8-1.432,3.531-2,5.5a8.174,8.174,0,0,1,6.178,8.227" transform="translate(-346.647 -239.916)" fill="#e48a77"/>
              <path id="Trazado_878355" data-name="Trazado 878355" d="M346.647,251.085c.139-.686.3-1.366.5-2.04a14.847,14.847,0,0,1,6.251-8.763c.509-.3,1.189-.549,1.653-.184.5.392.361,1.17.154,1.768-.619,1.8-1.432,3.531-2,5.5a8.174,8.174,0,0,1,6.178,8.227" transform="translate(-346.647 -239.916)" fill="none" stroke="#d1705c" stroke-linecap="round" stroke-linejoin="round" stroke-width="1"/>
            </g>
            <g id="Grupo_1189303" data-name="Grupo 1189303" transform="translate(23.77 32.686)">
              <path id="Trazado_878356" data-name="Trazado 878356" d="M359.411,220.7a1.854,1.854,0,0,1,1.666-.626,2.22,2.22,0,0,1,1.495.93,1.417,1.417,0,0,1,.3.992,1.91,1.91,0,0,1-1.144,1.263,3.276,3.276,0,0,1-1.131.373,1.688,1.688,0,0,1-1.132-.244,1.543,1.543,0,0,1-.6-1.323A2.321,2.321,0,0,1,359.411,220.7Z" transform="translate(-358.856 -220.053)" fill="#e48a77"/>
              <path id="Trazado_878357" data-name="Trazado 878357" d="M359.411,220.7a1.854,1.854,0,0,1,1.666-.626,2.22,2.22,0,0,1,1.495.93,1.417,1.417,0,0,1,.3.992,1.91,1.91,0,0,1-1.144,1.263,3.276,3.276,0,0,1-1.131.373,1.688,1.688,0,0,1-1.132-.244,1.543,1.543,0,0,1-.6-1.323A2.321,2.321,0,0,1,359.411,220.7Z" transform="translate(-358.856 -220.053)" fill="none" stroke="#d1705c" stroke-linecap="round" stroke-linejoin="round" stroke-width="1"/>
            </g>
            <g id="Grupo_1189304" data-name="Grupo 1189304" transform="translate(13.363 38.129)">
              <path id="Trazado_878358" data-name="Trazado 878358" d="M342.077,230.7a2.277,2.277,0,0,0-3.189,2.368,1.694,1.694,0,0,0,.56,1.1,1.812,1.812,0,0,0,1.274.347,2.376,2.376,0,0,0,2.016-1.338A1.922,1.922,0,0,0,342.077,230.7Z" transform="translate(-338.871 -230.504)" fill="#e48a77"/>
              <path id="Trazado_878359" data-name="Trazado 878359" d="M342.077,230.7a2.277,2.277,0,0,0-3.189,2.368,1.694,1.694,0,0,0,.56,1.1,1.812,1.812,0,0,0,1.274.347,2.376,2.376,0,0,0,2.016-1.338A1.922,1.922,0,0,0,342.077,230.7Z" transform="translate(-338.871 -230.504)" fill="none" stroke="#d1705c" stroke-linecap="round" stroke-linejoin="round" stroke-width="1"/>
            </g>
          </g>
          <g id="Grupo_1189306" data-name="Grupo 1189306" transform="translate(0 40.135)">
            <path id="Trazado_878360" data-name="Trazado 878360" d="M262.394,293.291c2.382,6.772,5.222,13.739,10.678,18.4,4.447,3.8,10.267,5.706,16.081,6.378,10.059,1.162,20.908-1.445,28.076-8.6,5.138-5.129,8.027-12.164,9.35-19.3a112.882,112.882,0,0,0,1.436-22.136c-.05.8-.863,1.424-1.639,1.749a13.675,13.675,0,0,1-5.358.807,45.915,45.915,0,0,1-16.927-3.32c-.017,2.46-.025,4.927-.053,7.444-.036,3.186-.409,6.915-1.985,9.825s-5.206,4.994-8.252,3.7c-2.052-.871-3.283-2.963-4.217-4.988-5.546-12.035-5.746-26.477-13.627-37.129A35.524,35.524,0,0,0,259.9,234.357Z" transform="translate(-259.905 -234.357)" fill="#fff"/>
            <path id="Trazado_878361" data-name="Trazado 878361" d="M324.759,322.018c-4.52-3.4-10.224-4.238-15.586-5.035-6.657-.991-13.878-2.488-18.16-7.681-2.471-3-3.616-6.865-4.349-10.68a63.93,63.93,0,0,1,.3-25.546,20.527,20.527,0,0,0,1.646-4.089,42.647,42.647,0,0,0-3.886-8.142c-6.615,7.065-9.146,17.2-9.386,26.921-.23,9.278,1.426,18.75,5.912,26.874,4.06,7.354,10.6,13.5,18.455,16.357,9.115.33,18.489-2.42,24.91-8.828C324.664,322.12,324.71,322.068,324.759,322.018Z" transform="translate(-267.292 -247.051)" fill="#002977" opacity="0.12" style="mix-blend-mode: multiply;isolation: isolate"/>
          </g>
        </g>
        <g id="Grupo_1189314" data-name="Grupo 1189314" transform="translate(129.134 167.101)">
          <g id="Grupo_1189311" data-name="Grupo 1189311" transform="translate(21.427 0.001)">
            <g id="Grupo_1189308" data-name="Grupo 1189308">
              <path id="Trazado_878362" data-name="Trazado 878362" d="M220.034,284.34c-1.07-25.511-10.925-55.976-10.925-55.976-9.068,9.488-17.188.757-17.188.757s-1.419,21.729.311,57.524a336.982,336.982,0,0,0,8.966,63.121c5.745.021,11.665.043,17.087.065C218.287,349.831,221.1,309.85,220.034,284.34Z" transform="translate(-191.374 -228.364)" fill="#40dbff"/>
              <path id="Trazado_878363" data-name="Trazado 878363" d="M220.034,289.059c-.776-18.509-6.176-39.621-9.082-49.819l-1.109-1.029s1.111,23.933,2.716,53.288c-.4.064-.8.12-1.2.157a11.4,11.4,0,0,1-7.055-1.394,12.481,12.481,0,0,1-4.134-4.72c-3.342-28.619-7.284-46.444-7.284-46.444l-1.23.6c-.306,8.719-.624,26.789.578,51.661a336.98,336.98,0,0,0,8.966,63.121l3.5.013c-.133-9.5-.473-18.652-.955-27.36q5.428-.326,10.8-1.194c.607,9.9,1.242,19.637,1.884,28.6l1.854,0S221.1,314.569,220.034,289.059Zm-17.916,15.489q-.381-4.309-.8-8.4a13.158,13.158,0,0,0,1.74.874,17.579,17.579,0,0,0,9.836.619q.2,3.528.4,7.121A56.621,56.621,0,0,1,202.118,304.547Z" transform="translate(-191.374 -233.083)" fill="#002977" opacity="0.12" style="mix-blend-mode: multiply;isolation: isolate"/>
            </g>
            <g id="Grupo_1189309" data-name="Grupo 1189309" transform="translate(0.107)">
              <path id="Trazado_878364" data-name="Trazado 878364" d="M209.208,228.364c-9.068,9.488-17.188.757-17.188.757s-.282,4.334-.441,12.3a14.9,14.9,0,0,0,2.5,1.62,16.734,16.734,0,0,0,18.611-2.541C210.754,233.145,209.208,228.364,209.208,228.364Z" transform="translate(-191.579 -228.364)" fill="#31c5e8"/>
              <path id="Trazado_878365" data-name="Trazado 878365" d="M227.385,246.881c.07-.044.144-.083.213-.129a16.8,16.8,0,0,0,1.988-1.532c-.594-2.259-1.15-4.271-1.637-5.98l-1.109-1.029S227.039,241.4,227.385,246.881Z" transform="translate(-208.478 -233.083)" fill="#002977" opacity="0.12" style="mix-blend-mode: multiply;isolation: isolate"/>
              <path id="Trazado_878366" data-name="Trazado 878366" d="M192.983,239.916l-1.229.6c-.062,1.77-.124,3.922-.175,6.438a14.9,14.9,0,0,0,2.5,1.62c.033.017.067.03.1.047C193.438,243.089,192.983,239.916,192.983,239.916Z" transform="translate(-191.579 -233.9)" fill="#002977" opacity="0.12" style="mix-blend-mode: multiply;isolation: isolate"/>
            </g>
            <g id="Grupo_1189310" data-name="Grupo 1189310" transform="translate(0.199)">
              <path id="Trazado_878367" data-name="Trazado 878367" d="M209.293,228.364a68.312,68.312,0,0,0-8.286.579q-4.564-.123-8.9.178s-.192,2.952-.348,8.454a13.189,13.189,0,0,0,3.615,2.937,13.8,13.8,0,0,0,13.874-.543,13.041,13.041,0,0,0,2.738-2.409C210.435,231.9,209.293,228.364,209.293,228.364Z" transform="translate(-191.757 -228.364)" fill="#e48a77"/>
              <path id="Trazado_878368" data-name="Trazado 878368" d="M193.068,239.916l-1.229.6c-.028.79-.056,1.65-.082,2.591a13.545,13.545,0,0,0,2.015,1.882C193.328,241.724,193.068,239.916,193.068,239.916Z" transform="translate(-191.757 -233.9)" fill="#002977" opacity="0.12" style="mix-blend-mode: multiply;isolation: isolate"/>
              <path id="Trazado_878369" data-name="Trazado 878369" d="M227.193,243.842a13.306,13.306,0,0,0,1.6-1.563q-.45-1.646-.849-3.039l-1.109-1.029S226.967,240.241,227.193,243.842Z" transform="translate(-208.57 -233.083)" fill="#002977" opacity="0.12" style="mix-blend-mode: multiply;isolation: isolate"/>
            </g>
          </g>
          <g id="Grupo_1189312" data-name="Grupo 1189312" transform="translate(39.162 0)">
            <path id="Trazado_878370" data-name="Trazado 878370" d="M243.271,231.334q-1.479-.562-2.994-1.008a51.2,51.2,0,0,0-14.846-1.963,1198.866,1198.866,0,0,1,9.177,121.467c11.95.048,21.477.093,21.368.116q-1.386-45.381-6.748-90.523Z" transform="translate(-225.431 -228.361)" fill="#fff"/>
            <path id="Trazado_878371" data-name="Trazado 878371" d="M277.877,378.531q-1.386-45.381-6.748-90.523" transform="translate(-247.331 -256.947)" fill="none" stroke="#0b2147" stroke-linecap="round" stroke-linejoin="round" stroke-width="1"/>
            <path id="Trazado_878372" data-name="Trazado 878372" d="M233.855,298.52q2.259-22.948,4.519-45.9l-11.3-21.274" transform="translate(-226.217 -229.794)" fill="none" stroke="#0b2147" stroke-linecap="round" stroke-linejoin="round" stroke-width="1"/>
            <path id="Trazado_878373" data-name="Trazado 878373" d="M240.227,337.556c-1.137.362-2.279.724-3.433,1.027q.238,3.059.46,6.119c1.425-.352,2.838-.765,4.216-1.181C241.957,342.921,240.227,337.556,240.227,337.556Z" transform="translate(-230.877 -280.692)" fill="#002977" opacity="0.12" style="mix-blend-mode: multiply;isolation: isolate"/>
          </g>
          <g id="Grupo_1189313" data-name="Grupo 1189313" transform="translate(0 0.759)">
            <path id="Trazado_878374" data-name="Trazado 878374" d="M150.229,264.28q.89,43.041,1.782,86.082s14.111.046,29.47.1A658.137,658.137,0,0,0,172.2,229.818a82.6,82.6,0,0,0-11.47,1.592Z" transform="translate(-150.229 -229.818)" fill="#fff"/>
            <path id="Trazado_878375" data-name="Trazado 878375" d="M186.918,232.864c-1.7,7.27-3.152,14.5-5.2,22.674a342.192,342.192,0,0,0,13.168,46.481" transform="translate(-165.318 -231.278)" fill="none" stroke="#0b2147" stroke-linecap="round" stroke-linejoin="round" stroke-width="1"/>
            <path id="Trazado_878376" data-name="Trazado 878376" d="M180.747,352.464a59.117,59.117,0,0,1-29.633-13.691q.244,11.822.49,23.643c2.755,4.838,6.211,9.148,11.242,11.255a28.683,28.683,0,0,0,9.807,1.758q4.545.209,9.1.039Q181.449,363.958,180.747,352.464Z" transform="translate(-150.653 -282.034)" fill="#002977" opacity="0.12" style="mix-blend-mode: multiply;isolation: isolate"/>
            <path id="Trazado_878377" data-name="Trazado 878377" d="M192.454,294.228c-4.464-9.647-8.973-19.976-12.791-29.853-1.7,12.619,1.816,26.178,8.664,36.764a26.735,26.735,0,0,0,5.255,6.2Q193.087,300.776,192.454,294.228Z" transform="translate(-164.131 -246.379)" fill="#002977" opacity="0.12" style="mix-blend-mode: multiply;isolation: isolate"/>
          </g>
        </g>
        <g id="Grupo_1189323" data-name="Grupo 1189323" transform="translate(174.167 167.57)">
          <g id="Grupo_1189315" data-name="Grupo 1189315" transform="translate(76.723 55.658)">
            <path id="Trazado_878378" data-name="Trazado 878378" d="M384.035,368.283c4.929-2.768,8.064-8.035,9.483-13.508s1.329-11.21,1.183-16.863a2.628,2.628,0,0,1,.156-1.2.9.9,0,0,1,.983-.547c.412.117.6.584.717,1a21.383,21.383,0,0,1,.61,7.648l1.9-2.359c.2-.25.456-.524.776-.5a.669.669,0,0,1,.544.5,1.733,1.733,0,0,1,0,.777c-.335,2-1.293,3.833-1.865,5.994a10.177,10.177,0,0,1,1.9-1.614c.228-.149.528-.291.757-.143.264.171.2.569.1.867a21.992,21.992,0,0,1-1.785,3.677,6.327,6.327,0,0,1,2.8-1.222,1.087,1.087,0,0,1,.931.152c.317.295.216.813.069,1.22-1.052,2.92-3.2,5.292-5.435,7.9a13.011,13.011,0,0,1,2.738-.353,1.276,1.276,0,0,1,.842.19.872.872,0,0,1,.247.871,2.009,2.009,0,0,1-.472.819c-1.292,1.51-3.217,2.293-5.388,3.5a4.379,4.379,0,0,1,1.434.646,1.482,1.482,0,0,1,.614,1.373,2.083,2.083,0,0,1-1.011,1.2,17.316,17.316,0,0,1-11.182,2.952A5.953,5.953,0,0,0,384.035,368.283Z" transform="translate(-384.035 -336.141)" fill="#dc7a52"/>
            <path id="Trazado_878379" data-name="Trazado 878379" d="M386.386,394.753a16.248,16.248,0,0,1-2.351,1.62,5.953,5.953,0,0,1,1.649,2.974,16.2,16.2,0,0,0,2.5.031A11.275,11.275,0,0,0,386.386,394.753Z" transform="translate(-384.035 -364.23)" fill="#002977" opacity="0.12" style="mix-blend-mode: multiply;isolation: isolate"/>
          </g>
          <path id="Trazado_878380" data-name="Trazado 878380" d="M270.8,250.618a4.9,4.9,0,0,0-.916-5.026,6.083,6.083,0,0,0-4.839-1.926,8.017,8.017,0,0,0-4.914,2.181A15.7,15.7,0,0,0,270.8,250.618Z" transform="translate(-247.933 -236.161)" fill="#cc673d"/>
          <g id="Grupo_1189317" data-name="Grupo 1189317" transform="translate(0 0.331)">
            <path id="Trazado_878381" data-name="Trazado 878381" d="M239.629,241.4a6.625,6.625,0,0,0-.35,4.784,17.5,17.5,0,0,0,2.774,5.162,20.358,20.358,0,0,1,2.9,5.1c1.365,4.124.582,8.778-1.3,14.514-3.7,11.254-6.8,22.755-6.688,34.6s2.013,23.6,3.75,35.922a3.928,3.928,0,0,0-4.007,3.844s13.314.2,13.476-.193a94.126,94.126,0,0,0-.162-12.716,45.286,45.286,0,0,0,44.832,4.559l-.022-.08a22.992,22.992,0,0,0,1.96,5,3.959,3.959,0,0,0-3.462,4.2s15.8.364,16.217-.033c3.74-5.079,6.693-10.945,7.227-17.23s-1.671-13.021-6.657-16.884c-7.82-6.061-19.3-3.51-28.466-7.235-8.972-3.647-14.576-13.029-16.327-22.554s-.281-19.313,1.19-28.886a30.042,30.042,0,0,0,.14-4.36,5.852,5.852,0,0,0-5.289-5.172,25.758,25.758,0,0,1-11.654-5.047,65.664,65.664,0,0,1-9.315-8.8,8.378,8.378,0,0,0-2.216,6.7A12.786,12.786,0,0,0,239.629,241.4Z" transform="translate(-236.705 -229.898)" fill="#dc7a52"/>
            <g id="Grupo_1189316" data-name="Grupo 1189316" transform="translate(12.461 95.349)">
              <path id="Trazado_878382" data-name="Trazado 878382" d="M346.925,423.519h0Z" transform="translate(-301.988 -418.039)" fill="#dc7a52"/>
              <path id="Trazado_878383" data-name="Trazado 878383" d="M306.115,424.81c.119-.107.181-.167.181-.167a22.188,22.188,0,0,1-.726-6.166C281.783,426.352,260.633,413,260.633,413q.564,3.566.853,7.168a45.274,45.274,0,0,0,44.629,4.646Z" transform="translate(-260.633 -412.996)" fill="#f78e63"/>
            </g>
            <path id="Trazado_878384" data-name="Trazado 878384" d="M346.112,421.5a20.423,20.423,0,0,1,1.629-15.062s-4.7,6.121-3.946,16.1c.772-.293,1.537-.6,2.291-.937Z" transform="translate(-287.988 -314.504)" fill="#002977" opacity="0.12" style="mix-blend-mode: multiply;isolation: isolate"/>
            <path id="Trazado_878385" data-name="Trazado 878385" d="M258.994,404.079a94.169,94.169,0,0,1,1.706,11.812,44.98,44.98,0,0,0,3.992,2.546C262.162,411.29,258.994,404.079,258.994,404.079Z" transform="translate(-247.387 -313.373)" fill="#002977" opacity="0.12" style="mix-blend-mode: multiply;isolation: isolate"/>
            <path id="Trazado_878386" data-name="Trazado 878386" d="M273.533,356.846a29.837,29.837,0,0,1-4.17-5.854c-10.761,2.188-21.131,6.348-32.024,7.62-.1,1.654-.159,3.314-.143,4.981a157.608,157.608,0,0,0,1.074,16.112,104.257,104.257,0,0,0,18.633-5.13,32.672,32.672,0,0,0,.447-10.986,17.606,17.606,0,0,1,3.552-2.229A22.825,22.825,0,0,0,273.533,356.846Z" transform="translate(-236.939 -287.932)" fill="#002977" opacity="0.12" style="mix-blend-mode: multiply;isolation: isolate"/>
          </g>
          <path id="Trazado_878387" data-name="Trazado 878387" d="M260.7,415.891a94.169,94.169,0,0,0-1.706-11.812" transform="translate(-247.387 -313.042)" fill="none" stroke="#b85c37" stroke-linecap="round" stroke-linejoin="round" stroke-width="1"/>
          <path id="Trazado_878388" data-name="Trazado 878388" d="M349.274,406.438a20.423,20.423,0,0,0-1.629,15.062" transform="translate(-289.521 -314.173)" fill="none" stroke="#b85c37" stroke-linecap="round" stroke-linejoin="round" stroke-width="1"/>
          <path id="Trazado_878389" data-name="Trazado 878389" d="M243.7,231.171a4.113,4.113,0,0,0-1.523-1.615,1.2,1.2,0,0,0-1.174-.209,1.111,1.111,0,0,0-.363,1.289,1.979,1.979,0,0,0,1.083,1.325C242.271,232.189,243.026,231.989,243.7,231.171Z" transform="translate(-238.564 -229.262)" fill="#0b2147"/>
          <g id="Grupo_1189319" data-name="Grupo 1189319" transform="translate(22.417 14.176)">
            <path id="Trazado_878390" data-name="Trazado 878390" d="M284.615,265.829a29.18,29.18,0,0,1-3.4-.8,2.164,2.164,0,0,1-1.318-.8,1.137,1.137,0,0,1,.124-1.3,2,2,0,0,1,1.165-.53,9.467,9.467,0,0,1,4,.115Z" transform="translate(-279.752 -259.238)" fill="#ffa682"/>
            <g id="Grupo_1189318" data-name="Grupo 1189318" transform="translate(2.238)">
              <path id="Trazado_878391" data-name="Trazado 878391" d="M287.253,259.752a36.836,36.836,0,0,0-1.791,7.108,3.959,3.959,0,0,0,.015,1.516,1.506,1.506,0,0,0,.962,1.1,2.125,2.125,0,0,0,1.884-.752,13.279,13.279,0,0,0,3.916-6.793,4.163,4.163,0,0,0-.221-3.049,3.762,3.762,0,0,0-1.96-1.445c-1.9-.719-3.991-.682-6.007-.95Z" transform="translate(-284.05 -256.484)" fill="#dc7a52"/>
              <path id="Trazado_878392" data-name="Trazado 878392" d="M288.491,262.76a36.836,36.836,0,0,0-1.791,7.108,3.96,3.96,0,0,0,.015,1.516,1.506,1.506,0,0,0,.962,1.1,2.125,2.125,0,0,0,1.884-.752q.281-.26.546-.536" transform="translate(-285.288 -259.492)" fill="none" stroke="#b85c37" stroke-linecap="round" stroke-linejoin="round" stroke-width="1"/>
            </g>
          </g>
          <g id="Grupo_1189322" data-name="Grupo 1189322" transform="translate(2.123 11.83)">
            <path id="Trazado_878393" data-name="Trazado 878393" d="M267.145,259.621a2.516,2.516,0,0,1,3.451,2.733" transform="translate(-253.416 -255.552)" fill="none" stroke="#0b2147" stroke-linecap="round" stroke-linejoin="round" stroke-width="1"/>
            <path id="Trazado_878394" data-name="Trazado 878394" d="M265.037,273.756a3.366,3.366,0,1,0-3.077,2.767A3.379,3.379,0,0,0,265.037,273.756Z" transform="translate(-249.212 -260.528)" fill="#f78e63"/>
            <g id="Grupo_1189321" data-name="Grupo 1189321">
              <g id="Grupo_1189320" data-name="Grupo 1189320" transform="translate(0 4.443)">
                <path id="Trazado_878395" data-name="Trazado 878395" d="M242.142,263.866a4.206,4.206,0,0,0-1.248,1.471,2.1,2.1,0,0,0,.847,2.391,2.9,2.9,0,0,0,2.626.208,4.792,4.792,0,0,0,2.085-1.716,14.31,14.31,0,0,0,1.307-2.4c-.984-1.085-2.033-2.167-3.03-3.308A12.386,12.386,0,0,1,242.142,263.866Z" transform="translate(-240.782 -260.511)" fill="#fd929f"/>
                <path id="Trazado_878396" data-name="Trazado 878396" d="M249.046,263.785a18.7,18.7,0,0,1-2.483,3.39" transform="translate(-243.552 -262.08)" fill="none" stroke="#ed6f7f" stroke-linecap="round" stroke-linejoin="round" stroke-width="1"/>
              </g>
              <path id="Trazado_878397" data-name="Trazado 878397" d="M242.321,251.979a18.137,18.137,0,0,0,1.3,2.129,60.893,60.893,0,0,0,4.874,5.622" transform="translate(-241.52 -251.979)" fill="none" stroke="#0b2147" stroke-linecap="round" stroke-linejoin="round" stroke-width="1"/>
            </g>
          </g>
        </g>
        <g id="Grupo_1189327" data-name="Grupo 1189327" transform="translate(115.268 169.601)">
          <g id="Grupo_1189325" data-name="Grupo 1189325" transform="translate(72.293 51.813)">
            <path id="Trazado_878398" data-name="Trazado 878398" d="M265.576,353a38.074,38.074,0,0,0,6.306-3.883,15.132,15.132,0,0,0,9.682-3.867,36.663,36.663,0,0,0,4.151,1.011c.531.1,1.211.115,1.462-.363s-.13-1.007-.512-1.366a8.55,8.55,0,0,0-2.136-1.457,36.878,36.878,0,0,1,4.249.786,3.59,3.59,0,0,0,1.168.161,1.142,1.142,0,0,0,.958-.6,1.117,1.117,0,0,0-.21-1.121,2.946,2.946,0,0,0-.963-.7,21.988,21.988,0,0,0-5.239-1.881l3.2-.654a3.488,3.488,0,0,0,1.27-.436,1.183,1.183,0,0,0,.565-1.143c-.136-.7-1-.94-1.7-1.022a37.511,37.511,0,0,0-4.9-.248q1.842-.541,3.659-1.161c.61-.208,1.337-.589,1.3-1.233s-.82-.953-1.466-1.043a22.658,22.658,0,0,0-5.517.123c-5.465.591-10.933,1.261-16.317,2.369q-.977.2-1.958.42a62.589,62.589,0,0,0,.012,10.292C263.144,350.978,265.576,353,265.576,353Z" transform="translate(-262.424 -332.66)" fill="#e48a77"/>
            <g id="Grupo_1189324" data-name="Grupo 1189324" transform="translate(14.581 3.56)">
              <path id="Trazado_878399" data-name="Trazado 878399" d="M290.425,340.055a37.429,37.429,0,0,1,5.925-.559" transform="translate(-290.425 -339.496)" fill="none" stroke="#d1705c" stroke-linecap="round" stroke-linejoin="round" stroke-width="1"/>
              <path id="Trazado_878400" data-name="Trazado 878400" d="M300.753,351.865a8.709,8.709,0,0,0-4.475-.842" transform="translate(-293.23 -345.007)" fill="none" stroke="#d1705c" stroke-linecap="round" stroke-linejoin="round" stroke-width="1"/>
              <path id="Trazado_878401" data-name="Trazado 878401" d="M294.645,344.6a43.7,43.7,0,0,1,5.287.843" transform="translate(-292.447 -341.944)" fill="none" stroke="#d1705c" stroke-linecap="round" stroke-linejoin="round" stroke-width="1"/>
            </g>
          </g>
          <g id="Grupo_1189326" data-name="Grupo 1189326">
            <path id="Trazado_878402" data-name="Trazado 878402" d="M148.084,233.163a79.132,79.132,0,0,0-9.28,2.567c-5.5,1.888-11.2,4.756-13.72,10-1.938,4.032-1.632,8.753-1.007,13.183a120.628,120.628,0,0,0,15.682,43.855c4,6.8,9.465,13.237,16.915,15.823,5.149,1.787,10.754,1.57,16.191,1.194,9.236-.64,18.654-1.733,26.631-5.439a43.693,43.693,0,0,0-3.391-26.329c-5.675,1.263-11.445,2.907-17.311,4.129-2.412.5-4.973.943-7.291.107a9.463,9.463,0,0,1-4.813-4.434,29.843,29.843,0,0,1-2.336-6.249A322.037,322.037,0,0,0,153,249.417Z" transform="translate(-123.601 -233.163)" fill="#fff"/>
            <path id="Trazado_878403" data-name="Trazado 878403" d="M223.161,302.972c-5.675,1.263-11.445,2.907-17.311,4.129-2.412.5-4.973.943-7.291.107a9.464,9.464,0,0,1-4.813-4.434,29.843,29.843,0,0,1-2.336-6.249,322.032,322.032,0,0,0-11.355-32.149" transform="translate(-150.656 -248.121)" fill="none" stroke="#0b2147" stroke-linecap="round" stroke-linejoin="round" stroke-width="1"/>
            <path id="Trazado_878404" data-name="Trazado 878404" d="M171.7,379.916a24.826,24.826,0,0,0,8.025,4.733c5.149,1.787,10.754,1.57,16.191,1.194,9.236-.639,18.654-1.733,26.631-5.439a42.812,42.812,0,0,0,.686-9.4" transform="translate(-146.652 -299.223)" fill="none" stroke="#0b2147" stroke-linecap="round" stroke-linejoin="round" stroke-width="1"/>
          </g>
        </g>
      </g>
    </g>
  </g>
</svg>
