<svg xmlns="http://www.w3.org/2000/svg" xmlns:xlink="http://www.w3.org/1999/xlink" width="295.057" height="179.812" viewBox="0 0 295.057 179.812">
  <defs>
    <clipPath id="clip-path">
      <rect id="Rectángulo_402942" data-name="Rectángulo 402942" width="295.057" height="179.812" rx="10" transform="translate(284.943 6570.033)" fill="#c6ac97"/>
    </clipPath>
    <clipPath id="clip-path-2">
      <path id="Trazado_878434" data-name="Trazado 878434" d="M134.892,398.4a140.01,140.01,0,0,1-15.81.737,1.168,1.168,0,0,1-1.15-1.066,7.336,7.336,0,0,1,.17-2.481,1.178,1.178,0,0,1,.959-.883,64.352,64.352,0,0,1,15.762-.483,1.149,1.149,0,0,1,1.023.956,8.943,8.943,0,0,1,.085,2.141A1.177,1.177,0,0,1,134.892,398.4Z" transform="translate(-117.896 -393.941)" fill="none"/>
    </clipPath>
    <clipPath id="clip-path-3">
      <path id="Trazado_878460" data-name="Trazado 878460" d="M85.17,398.4a140.011,140.011,0,0,1-15.81.737,1.168,1.168,0,0,1-1.15-1.066,7.336,7.336,0,0,1,.17-2.481,1.178,1.178,0,0,1,.959-.883A64.352,64.352,0,0,1,85.1,394.22a1.149,1.149,0,0,1,1.023.956,8.943,8.943,0,0,1,.085,2.141A1.177,1.177,0,0,1,85.17,398.4Z" transform="translate(-68.175 -393.941)" fill="none"/>
    </clipPath>
  </defs>
  <g id="Grupo_1189800" data-name="Grupo 1189800" transform="translate(-284.943 -6570.033)">
    <rect id="Rectángulo_402795" data-name="Rectángulo 402795" width="295.057" height="179.812" rx="10" transform="translate(284.943 6570.033)" fill="#1a0b34"/>
    <g id="Enmascarar_grupo_1099212" data-name="Enmascarar grupo 1099212" clip-path="url(#clip-path)">
      <g id="Grupo_1189480" data-name="Grupo 1189480" transform="translate(298.277 6672.675)">
        <g id="Grupo_1189330" data-name="Grupo 1189330" transform="translate(0 0)">
          <path id="Trazado_878406" data-name="Trazado 878406" d="M130.828,359.563l-3.426,36.49-21.681.129a276.1,276.1,0,0,1-3.707-36.5A39.2,39.2,0,0,1,130.828,359.563Z" transform="translate(-76.48 -319.012)" fill="#371276"/>
          <path id="Trazado_878407" data-name="Trazado 878407" d="M118.012,278.026a19.19,19.19,0,0,0-5-8.42c-4.1-4.177-9.73-6.812-15.063-6.635,2.005,2.524,2.077,6.079,1.535,9.256s-1.6,6.3-1.538,9.527a12.292,12.292,0,0,0,3.216,8.167,10.039,10.039,0,0,0,8.081,3.153c.079-.008.156-.022.235-.031a59.481,59.481,0,0,0,1.441,10.433,1.56,1.56,0,0,1,1.407-.513,31.715,31.715,0,0,1-1.635-10.159,10.507,10.507,0,0,0,6.364-5.153A13.354,13.354,0,0,0,118.012,278.026Z" transform="translate(-74.052 -262.962)" fill="#371276"/>
          <path id="Trazado_878408" data-name="Trazado 878408" d="M70.128,322.9a10.255,10.255,0,0,0-3.434-2.735,10.387,10.387,0,0,0-2.076-9.125A15.107,15.107,0,0,0,54.5,306.006a20.545,20.545,0,0,0-15.82,5.151c5.507,3.149,6.922,11.183,12.433,14.482a11.163,11.163,0,0,0,9.587.655,10.1,10.1,0,0,0,5.3-4.417c.092-.168.172-.34.251-.513a8.561,8.561,0,0,1,4.553,7.855,3.93,3.93,0,0,0,1.569-.164A10.274,10.274,0,0,0,70.128,322.9Z" transform="translate(-38.684 -288.583)" fill="#371276"/>
        </g>
        <g id="Grupo_1189343" data-name="Grupo 1189343" transform="translate(31.938 52.811)">
          <path id="Trazado_878409" data-name="Trazado 878409" d="M122.136,403.15c-.058,5.405.145,10.813.629,16.383a3.284,3.284,0,0,0,3.073,3c2.752.155,5.514.2,8.283.156a3.271,3.271,0,0,0,3.218-3.145,111.1,111.1,0,0,0-.621-16.439Z" transform="translate(-120.421 -399.41)" fill="none" stroke="#0b2147" stroke-linecap="round" stroke-linejoin="round" stroke-width="1"/>
          <g id="Grupo_1189331" data-name="Grupo 1189331" transform="translate(4.506 5.925)">
            <path id="Trazado_878410" data-name="Trazado 878410" d="M129.141,411.2h0a1.506,1.506,0,0,1,.991-1.886l1.971-.614a1.507,1.507,0,0,1,.9,2.877l-1.971.614A1.507,1.507,0,0,1,129.141,411.2Z" transform="translate(-129.072 -408.636)" fill="#fff"/>
            <path id="Trazado_878411" data-name="Trazado 878411" d="M129.141,411.777a1.507,1.507,0,0,0,1.886.991l1.038-.323q-.435-1.444-.983-2.85l-.95.3A1.506,1.506,0,0,0,129.141,411.777Z" transform="translate(-129.072 -409.208)" fill="#40dbff"/>
          </g>
          <g id="Grupo_1189332" data-name="Grupo 1189332" transform="translate(6.319 15.748)">
            <path id="Trazado_878412" data-name="Trazado 878412" d="M138.53,435.407h0a1.507,1.507,0,0,1-1.838,1.078l-2-.521a1.507,1.507,0,1,1,.76-2.916l2,.521A1.507,1.507,0,0,1,138.53,435.407Z" transform="translate(-133.567 -433)" fill="#fff"/>
            <path id="Trazado_878413" data-name="Trazado 878413" d="M141.731,435.844a1.507,1.507,0,0,0-1.078-1.838l-1.052-.274q-.394,1.456-.671,2.939l.963.251A1.507,1.507,0,0,0,141.731,435.844Z" transform="translate(-136.768 -433.437)" fill="#40dbff"/>
          </g>
          <g id="Grupo_1189333" data-name="Grupo 1189333" transform="translate(10.48 6.876)">
            <path id="Trazado_878414" data-name="Trazado 878414" d="M146.6,411.084h0a1.507,1.507,0,0,1,.91,1.926l-.7,1.943a1.507,1.507,0,0,1-2.837-1.017l.7-1.943A1.506,1.506,0,0,1,146.6,411.084Z" transform="translate(-143.888 -410.996)" fill="#fff"/>
            <path id="Trazado_878415" data-name="Trazado 878415" d="M147.219,411.084a1.506,1.506,0,0,0-1.926.91l-.367,1.023q1.415.522,2.868.93l.336-.937A1.507,1.507,0,0,0,147.219,411.084Z" transform="translate(-144.507 -410.996)" fill="#40dbff"/>
          </g>
          <g id="Grupo_1189334" data-name="Grupo 1189334" transform="translate(3.499 18.991)">
            <path id="Trazado_878416" data-name="Trazado 878416" d="M126.63,442.15h0a1.507,1.507,0,0,1,1.851-1.056l1.991.545a1.507,1.507,0,1,1-.8,2.907L127.685,444A1.507,1.507,0,0,1,126.63,442.15Z" transform="translate(-126.576 -441.041)" fill="#fff"/>
            <path id="Trazado_878417" data-name="Trazado 878417" d="M126.63,442.15A1.507,1.507,0,0,0,127.685,444l1.049.287q.411-1.45.706-2.931l-.96-.263A1.507,1.507,0,0,0,126.63,442.15Z" transform="translate(-126.576 -441.041)" fill="#40dbff"/>
          </g>
          <g id="Grupo_1189335" data-name="Grupo 1189335" transform="translate(2.78 10.717)">
            <path id="Trazado_878418" data-name="Trazado 878418" d="M125.979,420.555h0a1.507,1.507,0,0,1,1.792,1.153l.437,2.018a1.507,1.507,0,0,1-2.945.639l-.438-2.018A1.507,1.507,0,0,1,125.979,420.555Z" transform="translate(-124.791 -420.52)" fill="#fff"/>
            <path id="Trazado_878419" data-name="Trazado 878419" d="M125.979,420.555a1.507,1.507,0,0,0-1.153,1.792l.231,1.062q1.476-.306,2.925-.729l-.211-.972A1.507,1.507,0,0,0,125.979,420.555Z" transform="translate(-124.791 -420.52)" fill="#40dbff"/>
          </g>
          <g id="Grupo_1189336" data-name="Grupo 1189336" transform="translate(10.714 18.188)">
            <path id="Trazado_878420" data-name="Trazado 878420" d="M149.13,439.851h0a1.506,1.506,0,0,1-.624,2.037l-1.824.968a1.506,1.506,0,0,1-1.413-2.661l1.823-.969A1.507,1.507,0,0,1,149.13,439.851Z" transform="translate(-144.469 -439.05)" fill="#fff"/>
            <path id="Trazado_878421" data-name="Trazado 878421" d="M151.592,439.851a1.507,1.507,0,0,0-2.037-.625l-.96.51q.694,1.338,1.494,2.618l.879-.466A1.506,1.506,0,0,0,151.592,439.851Z" transform="translate(-146.931 -439.05)" fill="#40dbff"/>
          </g>
          <g id="Grupo_1189337" data-name="Grupo 1189337" transform="translate(6.517 9.828)">
            <path id="Trazado_878422" data-name="Trazado 878422" d="M137.231,422.983h0a1.507,1.507,0,0,1-2.035-.63l-.963-1.826a1.507,1.507,0,1,1,2.666-1.405l.962,1.826A1.506,1.506,0,0,1,137.231,422.983Z" transform="translate(-134.059 -418.317)" fill="#fff"/>
            <path id="Trazado_878423" data-name="Trazado 878423" d="M138.227,425.453a1.506,1.506,0,0,0,.63-2.035l-.507-.962q-1.34.691-2.622,1.487l.464.88A1.507,1.507,0,0,0,138.227,425.453Z" transform="translate(-135.055 -420.787)" fill="#40dbff"/>
          </g>
          <g id="Grupo_1189338" data-name="Grupo 1189338" transform="translate(11.142 13.233)">
            <path id="Trazado_878424" data-name="Trazado 878424" d="M150.575,428.748h0a1.507,1.507,0,0,1-1.7,1.29l-2.046-.278a1.507,1.507,0,0,1,.406-2.986l2.046.278A1.507,1.507,0,0,1,150.575,428.748Z" transform="translate(-145.53 -426.76)" fill="#fff"/>
            <path id="Trazado_878425" data-name="Trazado 878425" d="M154.074,428.963a1.507,1.507,0,0,0-1.29-1.7l-1.077-.146q-.217,1.492-.314,3l.986.134A1.507,1.507,0,0,0,154.074,428.963Z" transform="translate(-149.028 -426.976)" fill="#40dbff"/>
          </g>
          <g id="Grupo_1189342" data-name="Grupo 1189342" transform="translate(0 0)">
            <path id="Trazado_878426" data-name="Trazado 878426" d="M134.892,398.4a140.01,140.01,0,0,1-15.81.737,1.168,1.168,0,0,1-1.15-1.066,7.336,7.336,0,0,1,.17-2.481,1.178,1.178,0,0,1,.959-.883,64.352,64.352,0,0,1,15.762-.483,1.149,1.149,0,0,1,1.023.956,8.943,8.943,0,0,1,.085,2.141A1.177,1.177,0,0,1,134.892,398.4Z" transform="translate(-117.896 -393.941)" fill="#ff3b57"/>
            <g id="Grupo_1189341" data-name="Grupo 1189341">
              <g id="Grupo_1189340" data-name="Grupo 1189340" clip-path="url(#clip-path-2)">
                <g id="Grupo_1189339" data-name="Grupo 1189339" transform="translate(1.089 -0.388)">
                  <path id="Trazado_878427" data-name="Trazado 878427" d="M127.148,394.376a52.875,52.875,0,0,0,.406,5.566" transform="translate(-124.507 -393.813)" fill="none" stroke="#c9263e" stroke-linecap="round" stroke-linejoin="round" stroke-width="1"/>
                  <path id="Trazado_878428" data-name="Trazado 878428" d="M145.029,393.068a40.794,40.794,0,0,1,.369,5.9" transform="translate(-135.178 -393.033)" fill="none" stroke="#c9263e" stroke-linecap="round" stroke-linejoin="round" stroke-width="1"/>
                  <path id="Trazado_878429" data-name="Trazado 878429" d="M132.545,393.328a40.741,40.741,0,0,1,.368,5.9" transform="translate(-127.728 -393.188)" fill="none" stroke="#c9263e" stroke-linecap="round" stroke-linejoin="round" stroke-width="1"/>
                  <path id="Trazado_878430" data-name="Trazado 878430" d="M153.145,392.98q.183,2.866.365,5.731" transform="translate(-140.022 -392.98)" fill="none" stroke="#c9263e" stroke-linecap="round" stroke-linejoin="round" stroke-width="1"/>
                  <path id="Trazado_878431" data-name="Trazado 878431" d="M158.653,393.692a24.768,24.768,0,0,1,.214,5.353" transform="translate(-143.309 -393.405)" fill="none" stroke="#c9263e" stroke-linecap="round" stroke-linejoin="round" stroke-width="1"/>
                  <path id="Trazado_878432" data-name="Trazado 878432" d="M120.6,394.735q.1,2.737.2,5.472" transform="translate(-120.597 -394.027)" fill="none" stroke="#c9263e" stroke-linecap="round" stroke-linejoin="round" stroke-width="1"/>
                  <path id="Trazado_878433" data-name="Trazado 878433" d="M139.435,393.6q.1,2.737.2,5.472" transform="translate(-131.84 -393.35)" fill="none" stroke="#c9263e" stroke-linecap="round" stroke-linejoin="round" stroke-width="1"/>
                </g>
              </g>
            </g>
          </g>
        </g>
        <g id="Grupo_1189356" data-name="Grupo 1189356" transform="translate(11.891 52.811)">
          <path id="Trazado_878435" data-name="Trazado 878435" d="M72.414,403.15c-.058,5.405.145,10.813.629,16.383a3.284,3.284,0,0,0,3.073,3c2.752.155,5.514.2,8.283.156a3.271,3.271,0,0,0,3.218-3.145A111.1,111.1,0,0,0,87,403.1Z" transform="translate(-70.699 -399.41)" fill="none" stroke="#0b2147" stroke-linecap="round" stroke-linejoin="round" stroke-width="1"/>
          <g id="Grupo_1189344" data-name="Grupo 1189344" transform="translate(4.506 5.925)">
            <path id="Trazado_878436" data-name="Trazado 878436" d="M79.418,411.2h0a1.506,1.506,0,0,1,.991-1.886l1.971-.614a1.507,1.507,0,0,1,.9,2.877L81.3,412.2A1.507,1.507,0,0,1,79.418,411.2Z" transform="translate(-79.35 -408.636)" fill="#fff"/>
            <path id="Trazado_878437" data-name="Trazado 878437" d="M79.418,411.777a1.507,1.507,0,0,0,1.886.991l1.038-.323q-.434-1.444-.983-2.85l-.95.3A1.506,1.506,0,0,0,79.418,411.777Z" transform="translate(-79.35 -409.208)" fill="#40dbff"/>
          </g>
          <g id="Grupo_1189345" data-name="Grupo 1189345" transform="translate(6.319 15.748)">
            <path id="Trazado_878438" data-name="Trazado 878438" d="M88.808,435.407h0a1.507,1.507,0,0,1-1.838,1.078l-2-.521a1.507,1.507,0,1,1,.76-2.916l2,.521A1.507,1.507,0,0,1,88.808,435.407Z" transform="translate(-83.845 -433)" fill="#fff"/>
            <path id="Trazado_878439" data-name="Trazado 878439" d="M92.009,435.844a1.507,1.507,0,0,0-1.078-1.838l-1.052-.274q-.394,1.456-.671,2.939l.963.251A1.507,1.507,0,0,0,92.009,435.844Z" transform="translate(-87.046 -433.437)" fill="#40dbff"/>
          </g>
          <g id="Grupo_1189346" data-name="Grupo 1189346" transform="translate(10.48 6.876)">
            <path id="Trazado_878440" data-name="Trazado 878440" d="M96.878,411.084h0a1.507,1.507,0,0,1,.91,1.926l-.7,1.943a1.507,1.507,0,0,1-2.837-1.017l.7-1.943A1.506,1.506,0,0,1,96.878,411.084Z" transform="translate(-94.166 -410.996)" fill="#fff"/>
            <path id="Trazado_878441" data-name="Trazado 878441" d="M97.5,411.084a1.506,1.506,0,0,0-1.926.91l-.367,1.023q1.415.522,2.868.93l.336-.937A1.507,1.507,0,0,0,97.5,411.084Z" transform="translate(-94.785 -410.996)" fill="#40dbff"/>
          </g>
          <g id="Grupo_1189347" data-name="Grupo 1189347" transform="translate(3.5 18.991)">
            <path id="Trazado_878442" data-name="Trazado 878442" d="M76.908,442.15h0a1.507,1.507,0,0,1,1.851-1.056l1.991.545a1.507,1.507,0,1,1-.8,2.907L77.963,444A1.507,1.507,0,0,1,76.908,442.15Z" transform="translate(-76.854 -441.041)" fill="#fff"/>
            <path id="Trazado_878443" data-name="Trazado 878443" d="M76.908,442.15A1.507,1.507,0,0,0,77.964,444l1.048.287q.411-1.45.706-2.931l-.96-.263A1.507,1.507,0,0,0,76.908,442.15Z" transform="translate(-76.854 -441.041)" fill="#40dbff"/>
          </g>
          <g id="Grupo_1189348" data-name="Grupo 1189348" transform="translate(2.78 10.717)">
            <path id="Trazado_878444" data-name="Trazado 878444" d="M76.257,420.555h0a1.507,1.507,0,0,1,1.792,1.153l.437,2.018a1.507,1.507,0,0,1-2.945.639l-.438-2.018A1.507,1.507,0,0,1,76.257,420.555Z" transform="translate(-75.069 -420.52)" fill="#fff"/>
            <path id="Trazado_878445" data-name="Trazado 878445" d="M76.257,420.555a1.507,1.507,0,0,0-1.153,1.792l.231,1.062q1.476-.306,2.925-.729l-.211-.972A1.507,1.507,0,0,0,76.257,420.555Z" transform="translate(-75.069 -420.52)" fill="#40dbff"/>
          </g>
          <g id="Grupo_1189349" data-name="Grupo 1189349" transform="translate(10.714 18.188)">
            <path id="Trazado_878446" data-name="Trazado 878446" d="M99.408,439.851h0a1.506,1.506,0,0,1-.624,2.037l-1.824.968a1.506,1.506,0,1,1-1.413-2.661l1.823-.969A1.507,1.507,0,0,1,99.408,439.851Z" transform="translate(-94.747 -439.05)" fill="#fff"/>
            <path id="Trazado_878447" data-name="Trazado 878447" d="M101.87,439.851a1.507,1.507,0,0,0-2.037-.625l-.96.51q.695,1.338,1.494,2.618l.879-.466A1.506,1.506,0,0,0,101.87,439.851Z" transform="translate(-97.209 -439.05)" fill="#40dbff"/>
          </g>
          <g id="Grupo_1189350" data-name="Grupo 1189350" transform="translate(6.517 9.828)">
            <path id="Trazado_878448" data-name="Trazado 878448" d="M87.509,422.983h0a1.507,1.507,0,0,1-2.035-.63l-.963-1.826a1.507,1.507,0,1,1,2.666-1.405l.963,1.826A1.507,1.507,0,0,1,87.509,422.983Z" transform="translate(-84.337 -418.317)" fill="#fff"/>
            <path id="Trazado_878449" data-name="Trazado 878449" d="M88.505,425.453a1.506,1.506,0,0,0,.63-2.035l-.507-.962q-1.34.691-2.622,1.487l.464.88A1.507,1.507,0,0,0,88.505,425.453Z" transform="translate(-85.333 -420.787)" fill="#40dbff"/>
          </g>
          <g id="Grupo_1189351" data-name="Grupo 1189351" transform="translate(11.142 13.233)">
            <path id="Trazado_878450" data-name="Trazado 878450" d="M95.821,428.064h0a1.506,1.506,0,0,1,1.7-1.29l2.046.278a1.507,1.507,0,1,1-.406,2.986l-2.046-.278A1.507,1.507,0,0,1,95.821,428.064Z" transform="translate(-95.808 -426.76)" fill="#fff"/>
            <path id="Trazado_878451" data-name="Trazado 878451" d="M95.821,428.064a1.507,1.507,0,0,0,1.29,1.7l1.077.146q.217-1.492.314-3l-.986-.134A1.506,1.506,0,0,0,95.821,428.064Z" transform="translate(-95.808 -426.76)" fill="#40dbff"/>
          </g>
          <g id="Grupo_1189355" data-name="Grupo 1189355" transform="translate(0 0)">
            <path id="Trazado_878452" data-name="Trazado 878452" d="M85.17,398.4a140.011,140.011,0,0,1-15.81.737,1.168,1.168,0,0,1-1.15-1.066,7.336,7.336,0,0,1,.17-2.481,1.178,1.178,0,0,1,.959-.883A64.352,64.352,0,0,1,85.1,394.22a1.149,1.149,0,0,1,1.023.956,8.943,8.943,0,0,1,.085,2.141A1.177,1.177,0,0,1,85.17,398.4Z" transform="translate(-68.175 -393.941)" fill="#ff3b57"/>
            <g id="Grupo_1189354" data-name="Grupo 1189354">
              <g id="Grupo_1189353" data-name="Grupo 1189353" clip-path="url(#clip-path-3)">
                <g id="Grupo_1189352" data-name="Grupo 1189352" transform="translate(1.089 -0.388)">
                  <path id="Trazado_878453" data-name="Trazado 878453" d="M77.426,394.376a52.873,52.873,0,0,0,.406,5.566" transform="translate(-74.785 -393.813)" fill="none" stroke="#c9263e" stroke-linecap="round" stroke-linejoin="round" stroke-width="1"/>
                  <path id="Trazado_878454" data-name="Trazado 878454" d="M95.307,393.068a40.8,40.8,0,0,1,.369,5.9" transform="translate(-85.456 -393.033)" fill="none" stroke="#c9263e" stroke-linecap="round" stroke-linejoin="round" stroke-width="1"/>
                  <path id="Trazado_878455" data-name="Trazado 878455" d="M82.823,393.328a40.739,40.739,0,0,1,.368,5.9" transform="translate(-78.006 -393.188)" fill="none" stroke="#c9263e" stroke-linecap="round" stroke-linejoin="round" stroke-width="1"/>
                  <path id="Trazado_878456" data-name="Trazado 878456" d="M103.423,392.98q.183,2.866.365,5.731" transform="translate(-90.3 -392.98)" fill="none" stroke="#c9263e" stroke-linecap="round" stroke-linejoin="round" stroke-width="1"/>
                  <path id="Trazado_878457" data-name="Trazado 878457" d="M108.932,393.692a24.794,24.794,0,0,1,.214,5.353" transform="translate(-93.587 -393.405)" fill="none" stroke="#c9263e" stroke-linecap="round" stroke-linejoin="round" stroke-width="1"/>
                  <path id="Trazado_878458" data-name="Trazado 878458" d="M70.875,394.735q.1,2.737.2,5.472" transform="translate(-70.875 -394.027)" fill="none" stroke="#c9263e" stroke-linecap="round" stroke-linejoin="round" stroke-width="1"/>
                  <path id="Trazado_878459" data-name="Trazado 878459" d="M89.713,393.6q.1,2.737.2,5.472" transform="translate(-82.118 -393.35)" fill="none" stroke="#c9263e" stroke-linecap="round" stroke-linejoin="round" stroke-width="1"/>
                </g>
              </g>
            </g>
          </g>
        </g>
      </g>
      <g id="Grupo_1189481" data-name="Grupo 1189481" transform="translate(416.992 6586.843)">
        <rect id="Rectángulo_402934" data-name="Rectángulo 402934" width="66.771" height="59.01" transform="translate(7.02 0)" fill="#533881"/>
        <rect id="Rectángulo_402935" data-name="Rectángulo 402935" width="66.771" height="59.01" transform="translate(80.49 0)" fill="#533881"/>
        <rect id="Rectángulo_402936" data-name="Rectángulo 402936" width="66.771" height="59.01" transform="translate(80.49 65.708)" fill="#533881"/>
        <rect id="Rectángulo_402937" data-name="Rectángulo 402937" width="66.771" height="59.01" transform="translate(7.02 65.708)" fill="#533881"/>
        <rect id="Rectángulo_402938" data-name="Rectángulo 402938" width="154.474" height="9.434" transform="translate(0 130.406)" fill="#533881"/>
      </g>
      <g id="Grupo_1189479" data-name="Grupo 1189479" transform="translate(-680.481 6258.232)">
        <g id="Grupo_1189365" data-name="Grupo 1189365" transform="translate(1058.169 305.71)">
          <g id="Grupo_1189364" data-name="Grupo 1189364" transform="translate(0 0)">
            <g id="Grupo_1189363" data-name="Grupo 1189363">
              <g id="Grupo_1189362" data-name="Grupo 1189362">
                <g id="Grupo_1189361" data-name="Grupo 1189361">
                  <g id="Grupo_1189360" data-name="Grupo 1189360">
                    <g id="Grupo_1189359" data-name="Grupo 1189359">
                      <g id="Grupo_1189358" data-name="Grupo 1189358">
                        <path id="Trazado_878461" data-name="Trazado 878461" d="M1776.622,308.025c-4.246,2.834-10.2-3.29-14.831-.223-3.638,2.411-4.223,5.559-9,4.7s-7.524-.616-9.715,3.389c-1.736,3.174-5.9,2.168-8.465,2.894-2.673.757-4.263,2.346-4.43,6.611a7.133,7.133,0,0,1-4.405,6.423c-3.7,1.827-6.035,4.065-3.958,9.3,2.107,5.311-3.514,5.617-3.68,10.471-.162,4.752,3.169,5.3,3.847,8.431.637,2.935-2.113,5.571-.5,9.166s4.8,2.664,5.018,6.474,1.874,6.748,6.189,7.025,9.489,1.863,9.432,5.12,2.167,6.5,10.035,5.128a16.652,16.652,0,0,1,14.532,4.028c1.874,1.668,7.452,4.017,12.009.73s13.355-1.408,17.546.763,9.452.715,11.508-1.979,6.044.313,8.68-1.3c3.28-2.007,2.2-6.478,6.123-7.694,5.192-1.611,6.306-2.137,6.482-8.447.2-7.058,4.14-6.126,4.809-9.847.822-4.571-2.873-4.325-1.087-10.978,1.456-5.424-2.806-6.339-3.481-8.025-.957-2.393,2.521-6.887-1.4-10.375-5.207-4.635-1.148-6.872-2.891-10.328-1.81-3.589-6.083-2.985-7.7-5.061s.292-5.938-3.482-8.16c-2.911-1.713-5.21.5-8.74-4.61-2.937-4.252-7.641-4.96-13.5-1.448C1791.565,310.2,1786.01,301.759,1776.622,308.025Z" transform="translate(-1718.128 -305.71)" fill="#47393c"/>
                      </g>
                    </g>
                  </g>
                </g>
              </g>
            </g>
          </g>
        </g>
        <g id="Grupo_1189366" data-name="Grupo 1189366" transform="translate(1130.605 419.742)">
          <path id="Trazado_878462" data-name="Trazado 878462" d="M2895.159,2144.874c-2.7.319-6,.374-9.577.9,0,0,1.521,12.412,5.366,19.443s8.61,8.833,16.327,2.923a28.58,28.58,0,0,0,3.24-2.432l-5.152-19.259-.976-2.871S2900.975,2144.187,2895.159,2144.874Z" transform="translate(-2885.582 -2143.58)" fill="#c95c47"/>
        </g>
        <g id="Grupo_1189367" data-name="Grupo 1189367" transform="translate(1170.137 443.18)">
          <path id="Trazado_878463" data-name="Trazado 878463" d="M3522.736,2521.336s9.089,1.832,9.7,9.886c0,0-5.83-.327-8.784-2.839Z" transform="translate(-3522.736 -2521.336)" fill="#c9deeb"/>
        </g>
        <g id="Grupo_1189369" data-name="Grupo 1189369" transform="translate(1100.301 366.626)">
          <g id="Grupo_1189368" data-name="Grupo 1189368" transform="translate(0)">
            <path id="Trazado_878464" data-name="Trazado 878464" d="M2423.128,1299.176a.589.589,0,0,1-.556-.394h0c-.017-.046-1.733-4.693-7.983-7.457-.279-.123-.57-.256-.873-.393-4.239-1.926-10.006-4.521-15.475,1.41a.64.64,0,0,1-.875-.01.59.59,0,0,1-.034-.834c6.049-6.559,12.824-3.48,16.873-1.641.3.136.586.266.862.388,6.743,2.981,8.545,7.935,8.618,8.144a.59.59,0,0,1-.557.786Z" transform="translate(-2397.176 -1287.507)" fill="#47393c"/>
          </g>
        </g>
        <g id="Grupo_1189370" data-name="Grupo 1189370" transform="translate(1100.595 324.489)">
          <path id="Trazado_878465" data-name="Trazado 878465" d="M2426.342,660.985s7.216,1.431,13.656-6.56,8.866-21.19,10.178-27.869-1.789-16.7-12.762-18.01-21.144,4.606-25.2,18.441c0,0-1.51-3.267-4.393-3.068s-5.059,4.2-3.787,8.967,4.691,5.442,4.691,5.442-.375,12.717-6.815,17.607c0,0-.3,3.34,5.367,12.881a74.849,74.849,0,0,0,11.33,14.909s2.207-2.862,5.367-10.019A25.477,25.477,0,0,0,2426.342,660.985Z" transform="translate(-2401.909 -608.369)" fill="#c95c47"/>
        </g>
        <g id="Grupo_1189371" data-name="Grupo 1189371" transform="translate(1105.709 343.37)">
          <path id="Trazado_878466" data-name="Trazado 878466" d="M2487.249,918.27a.332.332,0,0,1-.05,0,.3.3,0,0,1-.241-.341c.692-4.068-2.256-4.639-2.381-4.661a.295.295,0,0,1,.1-.581c.037.006,3.656.679,2.863,5.342A.3.3,0,0,1,2487.249,918.27Z" transform="translate(-2484.332 -912.679)" fill="#a03d30"/>
        </g>
        <g id="Grupo_1189372" data-name="Grupo 1189372" transform="translate(1121.359 350.717)">
          <path id="Trazado_878467" data-name="Trazado 878467" d="M2742.819,1033.294a4.686,4.686,0,0,1-3.529-.479c-1.6-.912-2.066-1.964-2.559-1.671s.19,1.764,1.84,2.675a5.458,5.458,0,0,0,4.365.4c.728-.329.987-.789.845-.978C2743.612,1033.013,2743.156,1033.22,2742.819,1033.294Z" transform="translate(-2736.57 -1031.094)" fill="#47393c"/>
        </g>
        <g id="Grupo_1189373" data-name="Grupo 1189373" transform="translate(1137.46 354.609)">
          <path id="Trazado_878468" data-name="Trazado 878468" d="M2997,1094.257a4.463,4.463,0,0,0,3.261.933c1.747-.181,2.494-.894,2.812-.449s-.863,1.368-2.65,1.531a5,5,0,0,1-3.878-1.255c-.509-.565-.559-1.066-.363-1.177C2996.42,1093.708,2996.738,1094.063,2997,1094.257Z" transform="translate(-2996.078 -1093.811)" fill="#47393c"/>
        </g>
        <g id="Grupo_1189374" data-name="Grupo 1189374" transform="translate(1130.203 351.292)">
          <path id="Trazado_878469" data-name="Trazado 878469" d="M2881.948,1053.612c-.087,0-.175,0-.264-.01a3.284,3.284,0,0,1-2.528-1.4.3.3,0,0,1,.495-.323,2.69,2.69,0,0,0,2.076,1.137,2.094,2.094,0,0,0,1.7-.532c.561-.634.473-1.766.326-3.641-.069-.875-.153-1.963-.187-3.236-.107-4.044,1.427-5.151,1.492-5.2a.3.3,0,0,1,.338.484c-.024.018-1.338,1.031-1.24,4.7.033,1.257.114,2.292.186,3.205.158,2.03.254,3.256-.472,4.077A2.539,2.539,0,0,1,2881.948,1053.612Z" transform="translate(-2879.109 -1040.358)" fill="#a03d30"/>
        </g>
        <g id="Grupo_1189375" data-name="Grupo 1189375" transform="translate(1051.731 372.056)">
          <path id="Trazado_878470" data-name="Trazado 878470" d="M1663.234,1375.019s-5.927.322-16.661,5.049-14.113,9.995-16.419,13.732-8.349,17.97-11.291,23.377a80.642,80.642,0,0,0-4.285,9.442,2.073,2.073,0,0,0,1.343,2.967,184.006,184.006,0,0,0,22.584,6.813s-11.412,32.576-13.022,50.309h71.382s-1.968-21.446.716-35.579,2.982-16.936,2.982-16.936a57.544,57.544,0,0,0,16.056-3.492,1.528,1.528,0,0,0,.916-1.872c-.664-3.5-2.321-13.545-4.271-23.192-1.177-5.828-2.176-8.8-4.156-11.766a30.948,30.948,0,0,0-7.329-7c-5-3.553-14.113-6.806-14.113-6.806s-3.2,15.124-7.852,21.147C1679.812,1401.215,1667.472,1386.154,1663.234,1375.019Z" transform="translate(-1614.368 -1375.019)" fill="#61adba"/>
        </g>
        <g id="Grupo_1189376" data-name="Grupo 1189376" transform="translate(1098.672 380.979)">
          <path id="Trazado_878471" data-name="Trazado 878471" d="M2389.609,1546.4h-.014a.3.3,0,0,1-.243-.15c-.016-.028-1.668-2.914-7.427-9.6a64.978,64.978,0,0,1-10.982-17.4.3.3,0,1,1,.537-.245,64.47,64.47,0,0,0,10.892,17.264,86.221,86.221,0,0,1,7.252,9.3c.882-1.283,3.873-5.689,6.558-10.287a39.864,39.864,0,0,0,4.25-10.447.295.295,0,0,1,.573.141,40.455,40.455,0,0,1-4.313,10.6c-3.188,5.46-6.806,10.649-6.841,10.7A.3.3,0,0,1,2389.609,1546.4Z" transform="translate(-2370.917 -1518.823)" fill="#47393c"/>
        </g>
        <g id="Grupo_1189377" data-name="Grupo 1189377" transform="translate(1052.607 420.963)">
          <path id="Trazado_878472" data-name="Trazado 878472" d="M1656.876,2172.283a.289.289,0,0,1-.141-.036,28.905,28.905,0,0,0-7.239-2.478,57.594,57.594,0,0,1-8.323-2.574,52.114,52.114,0,0,0-12.428-3.346.295.295,0,1,1,.063-.586,52.7,52.7,0,0,1,12.587,3.386,57.114,57.114,0,0,0,8.243,2.548,29.344,29.344,0,0,1,7.38,2.533.295.295,0,0,1-.142.554Z" transform="translate(-1628.481 -2163.259)" fill="#47393c"/>
        </g>
        <g id="Grupo_1189378" data-name="Grupo 1189378" transform="translate(1137.04 397.415)">
          <path id="Trazado_878473" data-name="Trazado 878473" d="M2989.6,1821.636a.3.3,0,0,1-.064-.007.3.3,0,0,1-.224-.352c2.259-10.275,3.762-18.676,3.762-26.279,0-7.165.316-10.96.32-11a.3.3,0,0,1,.318-.269.3.3,0,0,1,.27.319c0,.037-.317,3.811-.317,10.948,0,7.656-1.51,16.093-3.777,26.406A.3.3,0,0,1,2989.6,1821.636Z" transform="translate(-2989.305 -1783.731)" fill="#47393c"/>
        </g>
        <g id="Grupo_1189380" data-name="Grupo 1189380" transform="translate(1094.673 370.429)">
          <g id="Grupo_1189379" data-name="Grupo 1189379" transform="translate(0 0)">
            <path id="Trazado_878474" data-name="Trazado 878474" d="M2307.225,1374.829a.591.591,0,0,1-.587-.537c-.065-.732-1.532-18.008,5.63-25.33a.59.59,0,0,1,.844.825c-6.781,6.932-5.313,24.225-5.3,24.4a.591.591,0,0,1-.535.641Z" transform="translate(-2306.471 -1348.785)" fill="#47393c"/>
          </g>
        </g>
        <g id="Grupo_1189382" data-name="Grupo 1189382" transform="translate(1087.889 408.26)">
          <g id="Grupo_1189381" data-name="Grupo 1189381" transform="translate(0)">
            <path id="Trazado_878475" data-name="Trazado 878475" d="M2211.8,1978.02a7.194,7.194,0,0,1-1.144.08,10.284,10.284,0,0,1-4.368-.989c-2.076-.98-3.789-2.663-5.549-5.453a28.014,28.014,0,0,1-3.61-13.136l1.067.074a27.191,27.191,0,0,0,3.431,12.5c1.65,2.611,3.227,4.174,5.112,5.064a8.929,8.929,0,0,0,4.876.823Z" transform="translate(-2197.128 -1958.522)" fill="#c9deeb"/>
          </g>
        </g>
        <g id="Grupo_1189384" data-name="Grupo 1189384" transform="translate(1091.705 407.629)">
          <g id="Grupo_1189383" data-name="Grupo 1189383" transform="translate(0)">
            <path id="Trazado_878476" data-name="Trazado 878476" d="M2258.635,1969.23a7.215,7.215,0,0,0,1.147-.036,10.281,10.281,0,0,0,4.245-1.424c1.967-1.184,3.5-3.031,4.973-5.984a28.013,28.013,0,0,0,2.269-13.433l-1.054.181a27.189,27.189,0,0,1-2.155,12.783c-1.378,2.764-2.791,4.478-4.576,5.553a8.931,8.931,0,0,1-4.769,1.309Z" transform="translate(-2258.635 -1948.354)" fill="#c9deeb"/>
          </g>
        </g>
        <g id="Grupo_1189385" data-name="Grupo 1189385" transform="translate(1087.875 395.57)">
          <path id="Trazado_878477" data-name="Trazado 878477" d="M2213.367,1766.051a16.786,16.786,0,0,0-2.207-7.954c-1.848-2.8-3.922-4.105-6.523-4.105h-.075c-2.493,0-4.712,1.617-6.25,4.554a16.809,16.809,0,0,0-1.395,8.141,2.448,2.448,0,0,0,.531.086,3.241,3.241,0,0,0,.535-.018,15.558,15.558,0,0,1,1.391-7.653c.935-1.784,2.594-3.911,5.186-3.911,2.22.056,4.051,1.223,5.6,3.567a15.551,15.551,0,0,1,2.154,7.474,2.883,2.883,0,0,0,.573-.03A1.113,1.113,0,0,0,2213.367,1766.051Z" transform="translate(-2196.903 -1753.992)" fill="#47393c"/>
        </g>
        <g id="Grupo_1189386" data-name="Grupo 1189386" transform="translate(1089.68 426.742)">
          <path id="Trazado_878478" data-name="Trazado 878478" d="M2229.49,2257.1a5.089,5.089,0,0,0-2.765-.668,1.118,1.118,0,0,0-.207,2,5.323,5.323,0,0,0,2.972-.387A.61.61,0,0,0,2229.49,2257.1Z" transform="translate(-2225.991 -2256.403)" fill="#47393c"/>
        </g>
        <g id="Grupo_1189387" data-name="Grupo 1189387" transform="translate(1100.715 425.848)">
          <path id="Trazado_878479" data-name="Trazado 878479" d="M2404.031,2242.916a5.093,5.093,0,0,1,2.69-.927,1.119,1.119,0,0,1,.395,1.972,5.324,5.324,0,0,1-2.995-.1A.61.61,0,0,1,2404.031,2242.916Z" transform="translate(-2403.852 -2241.984)" fill="#47393c"/>
        </g>
        <g id="Grupo_1189389" data-name="Grupo 1189389" transform="translate(1125.108 377.13)">
          <g id="Grupo_1189388" data-name="Grupo 1189388" transform="translate(0)">
            <path id="Trazado_878480" data-name="Trazado 878480" d="M2803.94,1489.358a.589.589,0,0,1-.584.507.367.367,0,0,1-.083-.006.591.591,0,0,1-.508-.661c3.086-22.388-5.238-31.686-5.429-31.912a5.432,5.432,0,0,1-.355-.5,12.577,12.577,0,0,0,1.579.071C2800.148,1458.849,2806.791,1468.646,2803.94,1489.358Z" transform="translate(-2796.982 -1456.789)" fill="#47393c"/>
          </g>
        </g>
        <g id="Grupo_1189390" data-name="Grupo 1189390" transform="translate(1126.267 409.097)">
          <ellipse id="Elipse_11563" data-name="Elipse 11563" cx="4.535" cy="4.393" rx="4.535" ry="4.393" transform="translate(0)" fill="#c9deeb"/>
        </g>
        <g id="Grupo_1189391" data-name="Grupo 1189391" transform="translate(1128.174 410.556)">
          <path id="Trazado_878481" data-name="Trazado 878481" d="M2849.144,2000.85a2.661,2.661,0,1,1,2.737-2.66A2.7,2.7,0,0,1,2849.144,2000.85Zm0-4.73a2.071,2.071,0,1,0,2.147,2.07A2.112,2.112,0,0,0,2849.144,1996.12Z" transform="translate(-2846.407 -1995.53)" fill="#47393c"/>
        </g>
        <g id="Grupo_1189392" data-name="Grupo 1189392" transform="translate(1109.029 361.385)">
          <path id="Trazado_878482" data-name="Trazado 878482" d="M2553.842,1219.167a.279.279,0,0,1-.054-.005c-13.364-2.473-15.917-15.649-15.94-15.782a.3.3,0,0,1,.581-.106c.024.129,2.51,12.91,15.467,15.307a.3.3,0,0,1-.053.585Z" transform="translate(-2537.842 -1203.033)" fill="#a03d30"/>
        </g>
        <g id="Grupo_1189393" data-name="Grupo 1189393" transform="translate(1121.45 345.145)">
          <path id="Trazado_878483" data-name="Trazado 878483" d="M2743.285,941.294a11.873,11.873,0,0,0-4.822.832c-.652.232-.583,1.081.3.909a16.98,16.98,0,0,1,4.495-.449,11.765,11.765,0,0,1,4.409,1.089c.836.36,1.149-.333.6-.815A9.238,9.238,0,0,0,2743.285,941.294Z" transform="translate(-2738.029 -941.286)" fill="#47393c"/>
        </g>
        <g id="Grupo_1189394" data-name="Grupo 1189394" transform="translate(1137.888 348.271)">
          <path id="Trazado_878484" data-name="Trazado 878484" d="M3007.4,991.746a9.371,9.371,0,0,0-4.039.4c-.559.145-.559.871.189.792a13.576,13.576,0,0,1,3.686-.035,9.814,9.814,0,0,1,3.589,1.232c.669.362.981-.193.556-.636A7.417,7.417,0,0,0,3007.4,991.746Z" transform="translate(-3002.965 -991.675)" fill="#47393c"/>
        </g>
        <g id="Grupo_1189395" data-name="Grupo 1189395" transform="translate(1122.866 364.983)">
          <path id="Trazado_878485" data-name="Trazado 878485" d="M2767.454,1265.6a7.305,7.305,0,0,1-6.554-4.035.383.383,0,0,1,.689-.335,7.02,7.02,0,0,0,3.911,3.311,5.96,5.96,0,0,0,4.468-.283.384.384,0,0,1,.4.657A5.961,5.961,0,0,1,2767.454,1265.6Z" transform="translate(-2760.861 -1261.019)" fill="#a03d30"/>
        </g>
        <g id="Grupo_1189406" data-name="Grupo 1189406" transform="translate(1116.002 418.519)">
          <g id="Grupo_1189396" data-name="Grupo 1189396" transform="translate(14.718 14.427)">
            <path id="Trazado_878486" data-name="Trazado 878486" d="M2894.812,2363.483a.146.146,0,0,1-.1-.04l-7.232-6.8a.148.148,0,1,1,.2-.215l7.232,6.8a.147.147,0,0,1-.1.255Z" transform="translate(-2887.433 -2356.389)" fill="#cccddd"/>
          </g>
          <g id="Grupo_1189397" data-name="Grupo 1189397" transform="translate(13.935 13.431)">
            <path id="Trazado_878487" data-name="Trazado 878487" d="M2878.2,2342.851l-.728.774a.205.205,0,0,1-.145.065.208.208,0,0,1-.149-.056l-2.36-2.219,1.012-1.077,2.36,2.219a.208.208,0,0,1,.009.294Z" transform="translate(-2874.819 -2340.338)" fill="#cccddd"/>
          </g>
          <g id="Grupo_1189398" data-name="Grupo 1189398" transform="translate(0.794 0.814)">
            <rect id="Rectángulo_402939" data-name="Rectángulo 402939" width="1.483" height="7.933" transform="matrix(0.685, -0.729, 0.729, 0.685, 0, 1.08)" fill="#ffebe6"/>
          </g>
          <g id="Grupo_1189399" data-name="Grupo 1189399" transform="translate(4.457 4.198)">
            <path id="Trazado_878488" data-name="Trazado 878488" d="M2733.61,2200.692l-1.806,1.921a.193.193,0,0,1-.107.059.117.117,0,0,1-.1-.028l-9.5-8.928a.122.122,0,0,1-.031-.115.19.19,0,0,1,.05-.094l1.806-1.921a.187.187,0,0,1,.107-.059.115.115,0,0,1,.1.027l9.5,8.928a.12.12,0,0,1,.031.114A.19.19,0,0,1,2733.61,2200.692Z" transform="translate(-2722.064 -2191.526)" fill="#ffebe6"/>
          </g>
          <g id="Grupo_1189400" data-name="Grupo 1189400" transform="translate(0 0)">
            <path id="Trazado_878489" data-name="Trazado 878489" d="M2652.694,2124.656l-1.653,1.759a.483.483,0,0,1-.3.152.386.386,0,0,1-.307-.1l-.09-.085a.379.379,0,0,1-.117-.251.479.479,0,0,1,.133-.358l1.654-1.759a.472.472,0,0,1,.381-.153.375.375,0,0,1,.226.1l.09.085a.378.378,0,0,1,.115.234A.475.475,0,0,1,2652.694,2124.656Z" transform="translate(-2650.224 -2123.86)" fill="#ffebe6"/>
          </g>
          <g id="Grupo_1189401" data-name="Grupo 1189401" transform="translate(12.796 12.628)">
            <path id="Trazado_878490" data-name="Trazado 878490" d="M2856.467,2328.515l1.184,1.114a.112.112,0,0,0,.079.03.109.109,0,0,0,.077-.035l1.435-1.527a.111.111,0,0,0,0-.156l-.582-.547Z" transform="translate(-2856.467 -2327.394)" fill="#f9b6a0"/>
          </g>
          <g id="Grupo_1189405" data-name="Grupo 1189405" transform="translate(9.513 9.651)">
            <g id="Grupo_1189402" data-name="Grupo 1189402" transform="translate(2.693 2.532)">
              <path id="Trazado_878491" data-name="Trazado 878491" d="M2847.1,2321.517a.146.146,0,0,1-.1-.04.148.148,0,0,1-.007-.209l.948-1.008a.148.148,0,1,1,.215.2l-.948,1.008A.149.149,0,0,1,2847.1,2321.517Z" transform="translate(-2846.957 -2320.214)" fill="#47393c"/>
            </g>
            <g id="Grupo_1189403" data-name="Grupo 1189403" transform="translate(1.347 1.266)">
              <path id="Trazado_878492" data-name="Trazado 878492" d="M2825.4,2301.112a.147.147,0,0,1-.108-.248l.948-1.008a.148.148,0,1,1,.215.2l-.948,1.008A.147.147,0,0,1,2825.4,2301.112Z" transform="translate(-2825.252 -2299.809)" fill="#47393c"/>
            </g>
            <g id="Grupo_1189404" data-name="Grupo 1189404">
              <path id="Trazado_878493" data-name="Trazado 878493" d="M2803.694,2280.7a.147.147,0,0,1-.108-.248l.948-1.008a.148.148,0,1,1,.216.2l-.948,1.008A.147.147,0,0,1,2803.694,2280.7Z" transform="translate(-2803.547 -2279.4)" fill="#47393c"/>
            </g>
          </g>
        </g>
        <g id="Grupo_1189407" data-name="Grupo 1189407" transform="translate(1053.331 414.402)">
          <path id="Trazado_878494" data-name="Trazado 878494" d="M1713.189,2069.664a3.026,3.026,0,0,1,.5,1.758c.071,1.694-2.006,3.3-2.006,3.3,1.847,1.753-1.062,4.19-1.062,4.19.873,1.275-1.109,4.562-6.438,6.7s-12.209,1.257-14.221,1.912c-1.552.507-5.441,3-12.292,5.9-2.024.856-4.307,1.747-6.863,2.632-11.212,3.877-15.555,4.278-15.555,4.278-10.427,2.2-14.38-1.416-15.041-9.406s3.47-19.921,3.47-19.921c3.83,1,7.158,2.307,10.008,3.134,6.143,1.776,9.843,2.632,9.843,2.632l-.33,3.021c3.121-.779,6.768-1.611,10.167-2.366v-.006c5.541-1.233,10.421-2.272,11.259-2.543,1.351-.443,2.862-2.148,4.65-4.532s6.568-8.243,9.553-9.807,4.131-2.909,5.246-3.027,1.623,1.611,1.044,3.263-1.776,2.23-3.594,4.231-1.67,2.95-1.67,2.95,6.29-1.611,9.123-2.354,7.069-1.221,7.547.744S1713.189,2069.664,1713.189,2069.664Z" transform="translate(-1640.142 -2057.508)" fill="#c95c47"/>
        </g>
        <g id="Grupo_1189408" data-name="Grupo 1189408" transform="translate(1064.563 436.392)">
          <path id="Trazado_878495" data-name="Trazado 878495" d="M1821.47,2414.8a.295.295,0,0,1-.067-.582c.359-.084,8.821-2.071,11.579-2.285a.291.291,0,0,1,.317.271.3.3,0,0,1-.271.317c-2.713.212-11.4,2.251-11.491,2.271A.268.268,0,0,1,1821.47,2414.8Z" transform="translate(-1821.176 -2411.933)" fill="#a03d30"/>
        </g>
        <g id="Grupo_1189409" data-name="Grupo 1189409" transform="translate(1075.572 386.403)">
          <path id="Trazado_878496" data-name="Trazado 878496" d="M2001.04,1653.805a11.906,11.906,0,0,1-2.188-.242.3.3,0,0,1-.229-.349.29.29,0,0,1,.349-.228c.676.141,2.583.421,3.27.028.671-.385,1.58-2.062,2.1-7.861a46.455,46.455,0,0,1,1.037-5.869,82.364,82.364,0,0,0,2.143-16.14c.464-11.847-5.233-16.328-5.29-16.372a.3.3,0,0,1,.356-.47c.245.186,6,4.686,5.523,16.865a82.872,82.872,0,0,1-2.156,16.244,46.041,46.041,0,0,0-1.025,5.8c-.441,4.927-1.224,7.649-2.393,8.32A3.18,3.18,0,0,1,2001.04,1653.805Z" transform="translate(-1998.617 -1606.241)" fill="#47393c"/>
        </g>
        <g id="Grupo_1189410" data-name="Grupo 1189410" transform="translate(1086.317 414.402)">
          <path id="Trazado_878497" data-name="Trazado 878497" d="M2211.85,2069.664a3.024,3.024,0,0,1,.5,1.758c.071,1.694-2.006,3.3-2.006,3.3,1.847,1.753-1.062,4.19-1.062,4.19.873,1.275-1.109,4.562-6.438,6.7s-12.209,1.257-14.221,1.912c-1.509.493-5.22,3.376-11.718,6.192a.547.547,0,0,1-.811-.324c-1.091-3.226-2.03-5.163-2.977-8.361a65.752,65.752,0,0,1-1.312-7.372.446.446,0,0,1,.343-.587c2.01-.574,10.405-1.962,11.139-2.2,1.351-.443,2.862-2.148,4.65-4.532s6.568-8.243,9.553-9.807,4.131-2.909,5.246-3.027,1.623,1.611,1.044,3.263-1.776,2.23-3.594,4.231-1.67,2.95-1.67,2.95,6.29-1.611,9.123-2.354,7.069-1.221,7.547.744S2211.85,2069.664,2211.85,2069.664Z" transform="translate(-2171.79 -2057.508)" fill="#c9deeb"/>
        </g>
        <g id="Grupo_1189415" data-name="Grupo 1189415" transform="translate(1109.189 424.559)">
          <g id="Grupo_1189411" data-name="Grupo 1189411" transform="translate(5.814 1.68)">
            <path id="Trazado_878498" data-name="Trazado 878498" d="M2634.429,2252.492a.3.3,0,0,1-.078-.58c5.645-1.558,11.061-3.587,11.115-3.608a.295.295,0,0,1,.208.552c-.054.021-5.494,2.06-11.167,3.625A.307.307,0,0,1,2634.429,2252.492Z" transform="translate(-2634.134 -2248.285)" fill="#47393c"/>
          </g>
          <g id="Grupo_1189412" data-name="Grupo 1189412" transform="translate(6.848 6.767)">
            <path id="Trazado_878499" data-name="Trazado 878499" d="M2651.093,2333.96a.295.295,0,0,1-.069-.582,46.251,46.251,0,0,0,8.476-3.072.295.295,0,1,1,.263.528,46.8,46.8,0,0,1-8.6,3.118A.325.325,0,0,1,2651.093,2333.96Z" transform="translate(-2650.798 -2330.276)" fill="#47393c"/>
          </g>
          <g id="Grupo_1189413" data-name="Grupo 1189413" transform="translate(7.643 10.955)">
            <path id="Trazado_878500" data-name="Trazado 878500" d="M2663.906,2401.4a.3.3,0,0,1-.07-.582,20.253,20.253,0,0,0,6.577-2.981.3.3,0,0,1,.354.472,20.463,20.463,0,0,1-6.791,3.082A.3.3,0,0,1,2663.906,2401.4Z" transform="translate(-2663.611 -2397.78)" fill="#47393c"/>
          </g>
          <g id="Grupo_1189414" data-name="Grupo 1189414" transform="translate(0 0)">
            <path id="Trazado_878501" data-name="Trazado 878501" d="M2540.721,2222.448a.295.295,0,0,1-.065-.583c.015,0,1.525-.344,3.585-.65a.295.295,0,0,1,.086.583c-2.036.3-3.526.639-3.541.642A.273.273,0,0,1,2540.721,2222.448Z" transform="translate(-2540.427 -2221.212)" fill="#47393c"/>
          </g>
        </g>
        <g id="Grupo_1189416" data-name="Grupo 1189416" transform="translate(1087.944 433.975)">
          <path id="Trazado_878502" data-name="Trazado 878502" d="M2202.171,2388.87a.3.3,0,0,1-.286-.226,64.2,64.2,0,0,0-2.226-6.823,28.184,28.184,0,0,1-1.65-8.549.3.3,0,0,1,.292-.3h0a.3.3,0,0,1,.295.292,27.521,27.521,0,0,0,1.612,8.345,64.583,64.583,0,0,1,2.248,6.894.3.3,0,0,1-.217.356A.344.344,0,0,1,2202.171,2388.87Z" transform="translate(-2198.009 -2372.975)" fill="#47393c"/>
        </g>
        <g id="Grupo_1189423" data-name="Grupo 1189423" transform="translate(1014.513 467.138)">
          <g id="Grupo_1189417" data-name="Grupo 1189417" transform="translate(13.309 29.801)">
            <rect id="Rectángulo_402940" data-name="Rectángulo 402940" width="171.611" height="22.857" fill="#c9deeb"/>
          </g>
          <g id="Grupo_1189420" data-name="Grupo 1189420" transform="translate(0.295 0)">
            <g id="Grupo_1189418" data-name="Grupo 1189418">
              <path id="Trazado_878503" data-name="Trazado 878503" d="M1216.8,2937.264H1019.267l27.833-29.8h141.864Z" transform="translate(-1019.267 -2907.463)" fill="#c9deeb"/>
            </g>
            <g id="Grupo_1189419" data-name="Grupo 1189419" transform="translate(0 29.801)">
              <rect id="Rectángulo_402941" data-name="Rectángulo 402941" width="197.529" height="7.057" fill="#c9deeb"/>
            </g>
          </g>
          <g id="Grupo_1189421" data-name="Grupo 1189421" transform="translate(0 29.506)">
            <path id="Trazado_878504" data-name="Trazado 878504" d="M1212.337,3383.605H1014.808a.295.295,0,1,1,0-.59h197.529a.295.295,0,0,1,0,.59Z" transform="translate(-1014.513 -3383.015)" fill="#47393c"/>
          </g>
          <g id="Grupo_1189422" data-name="Grupo 1189422" transform="translate(0 36.577)">
            <path id="Trazado_878505" data-name="Trazado 878505" d="M1212.337,3497.564H1014.808a.3.3,0,1,1,0-.59h197.529a.3.3,0,0,1,0,.59Z" transform="translate(-1014.513 -3496.974)" fill="#47393c"/>
          </g>
        </g>
        <g id="Grupo_1189424" data-name="Grupo 1189424" transform="translate(1110.9 322.775)">
          <path id="Trazado_878506" data-name="Trazado 878506" d="M2595.788,589.791c-.069-.011-.116-.017-.161.086-.238.539-1.685,2.932-6.7,2.212-5.478-.786-1.366,3.652-7.611,4.879-5.464,1.073-2.76,4.51-6.663,5.241a5.791,5.791,0,0,0-4.391,3.332.686.686,0,0,1-1.3-.028,11.545,11.545,0,0,1-.967-4.44c.093-3.647,1.518-12.126,11.491-17.639,10.509-5.809,18.593-.98,22.728,2.837,3.011,2.781,4.739,8.837,4.516,12.629a22.535,22.535,0,0,1-1.913,7.336s.826-5.033-1.579-6.828c-3.052-2.279-3.554-3.157-3.805-6.091C2599.193,590.495,2596.4,589.89,2595.788,589.791Z" transform="translate(-2567.994 -580.738)" fill="#47393c"/>
        </g>
        <g id="Grupo_1189432" data-name="Grupo 1189432" transform="translate(1073.325 314.191)">
          <g id="Grupo_1189425" data-name="Grupo 1189425" transform="translate(59.787)">
            <path id="Trazado_878507" data-name="Trazado 878507" d="M2931.463,457.676a.3.3,0,0,1-.29-.245,51.793,51.793,0,0,0-5.141-14.6.295.295,0,1,1,.514-.289,52.423,52.423,0,0,1,5.21,14.787.3.3,0,0,1-.242.34A.289.289,0,0,1,2931.463,457.676Z" transform="translate(-2925.993 -442.394)" fill="#6b4f5e"/>
          </g>
          <g id="Grupo_1189426" data-name="Grupo 1189426" transform="translate(37.25 18.829)">
            <path id="Trazado_878508" data-name="Trazado 878508" d="M2563.046,755.769a.3.3,0,0,1-.3-.294,7.228,7.228,0,0,1,.241-2.311,2.641,2.641,0,0,1,1.655-1.775,3.817,3.817,0,0,1,.935-.122,2.37,2.37,0,0,0,.984-.178,1.967,1.967,0,0,0,.829-1.6c.018-.134.032-.27.047-.407a4.174,4.174,0,0,1,.474-1.791,2.287,2.287,0,0,1,1.716-1.064,4.274,4.274,0,0,1,1.634.281,3.563,3.563,0,0,0,1.4.242,1.024,1.024,0,0,0,.908-.66.3.3,0,1,1,.573.142,1.6,1.6,0,0,1-1.416,1.105,4.071,4.071,0,0,1-1.643-.266,3.751,3.751,0,0,0-1.405-.257,1.688,1.688,0,0,0-1.266.784,3.692,3.692,0,0,0-.39,1.547c-.016.141-.031.282-.05.421a2.494,2.494,0,0,1-1.14,2.046,2.842,2.842,0,0,1-1.229.245,3.319,3.319,0,0,0-.792.1,2.056,2.056,0,0,0-1.263,1.394,6.774,6.774,0,0,0-.212,2.124.3.3,0,0,1-.294.3Z" transform="translate(-2562.75 -745.866)" fill="#6b4f5e"/>
          </g>
          <g id="Grupo_1189427" data-name="Grupo 1189427" transform="translate(77.15 23.186)">
            <path id="Trazado_878509" data-name="Trazado 878509" d="M3214.386,833.114a2.655,2.655,0,0,1-2.372-3.866,5.406,5.406,0,0,1,.349-.563,1.951,1.951,0,0,0,.454-1.019c0-.759-1.038-1.194-1.356-1.309l-.282-.1a3.292,3.292,0,0,1-1.875-1.182,3.137,3.137,0,0,1,.084-2.717,3.237,3.237,0,0,0,.239-2.149,3.2,3.2,0,0,0-1.748-1.382l-.255-.124c-1.229-.606-1.875-1.461-1.774-2.346a.3.3,0,0,1,.587.067c-.1.884.979,1.518,1.447,1.75l.252.122a2.807,2.807,0,0,1,1.813,4.246c-.27.825-.525,1.6-.142,2.224a2.826,2.826,0,0,0,1.566.935l.29.1c1.107.4,1.743,1.081,1.744,1.863a2.407,2.407,0,0,1-.556,1.351,4.887,4.887,0,0,0-.312.5,2.065,2.065,0,0,0,1.992,3,.295.295,0,1,1,.044.588C3214.512,833.111,3214.449,833.114,3214.386,833.114Z" transform="translate(-3205.839 -816.094)" fill="#6b4f5e"/>
          </g>
          <g id="Grupo_1189428" data-name="Grupo 1189428" transform="translate(0 23.212)">
            <path id="Trazado_878510" data-name="Trazado 878510" d="M1965.74,840.988a.286.286,0,0,1-.066-.008,3.494,3.494,0,0,1-2.442-2.146,3.449,3.449,0,0,1,.463-3.218c.113-.151.24-.3.368-.445a2,2,0,0,0,.648-1.148c.012-.54-.457-.911-1-1.341a3.247,3.247,0,0,1-1.24-1.455,2.268,2.268,0,0,1,1.008-2.4,6.631,6.631,0,0,1,1.72-.786c.187-.065.374-.129.558-.2a2.9,2.9,0,0,0,1.708-1.29,3.671,3.671,0,0,0,0-2.316,4.1,4.1,0,0,1,.058-2.708,3.528,3.528,0,0,1,2.46-1.627c.161-.042.324-.082.487-.121a5.26,5.26,0,0,0,2.012-.78,1.84,1.84,0,0,0,.694-1.221,1.013,1.013,0,0,0-.226-.784.3.3,0,1,1,.443-.391,1.58,1.58,0,0,1,.371,1.233,2.426,2.426,0,0,1-.923,1.632,5.777,5.777,0,0,1-2.231.884c-.16.039-.319.077-.477.119a3,3,0,0,0-2.082,1.321,3.617,3.617,0,0,0-.007,2.327,4.149,4.149,0,0,1-.046,2.69,3.446,3.446,0,0,1-2.029,1.583c-.189.072-.382.139-.575.205a6.1,6.1,0,0,0-1.571.709,1.683,1.683,0,0,0-.787,1.74,2.8,2.8,0,0,0,1.045,1.171c.611.484,1.243.983,1.225,1.817a2.483,2.483,0,0,1-.794,1.522c-.118.135-.236.27-.339.409a2.823,2.823,0,0,0,1.636,4.436.295.295,0,0,1-.065.583Z" transform="translate(-1962.392 -816.508)" fill="#6b4f5e"/>
          </g>
          <g id="Grupo_1189429" data-name="Grupo 1189429" transform="translate(3.227 44.353)">
            <path id="Trazado_878511" data-name="Trazado 878511" d="M2017.316,1159.766a2.8,2.8,0,0,1-.941-.169,3.232,3.232,0,0,1-1.951-1.969.3.3,0,1,1,.558-.193,2.672,2.672,0,0,0,1.591,1.607,1.959,1.959,0,0,0,1.4.005,1.236,1.236,0,0,0,.767-1.005.289.289,0,0,1,.313-.276.3.3,0,0,1,.276.313,1.837,1.837,0,0,1-1.124,1.511A2.262,2.262,0,0,1,2017.316,1159.766Z" transform="translate(-2014.409 -1157.236)" fill="#6b4f5e"/>
          </g>
          <g id="Grupo_1189430" data-name="Grupo 1189430" transform="translate(82.098 52.789)">
            <path id="Trazado_878512" data-name="Trazado 878512" d="M3290.957,1308.68a3.1,3.1,0,0,1-1.76-.522,2.57,2.57,0,0,1-.99-2.99.3.3,0,0,1,.547.221,1.994,1.994,0,0,0,.778,2.283,2.794,2.794,0,0,0,2.593.182,4.446,4.446,0,0,0,2.028-1.883c.172-.29.695-1.291.227-1.968a1.823,1.823,0,0,0-1.522-.566c-.254.008-.507.039-.759.069a6.168,6.168,0,0,1-1.255.063,1.951,1.951,0,0,1-1.793-1.278c-.244-.931.524-1.79.893-2.2.456-.511.9-1.108.751-1.661-.144-.526-.78-.8-1.327-.881-.229-.034-.461-.048-.694-.062a4.89,4.89,0,0,1-1.366-.218,2.611,2.611,0,0,1-1.279-3.927.295.295,0,1,1,.488.332,2.022,2.022,0,0,0,.99,3.04,4.371,4.371,0,0,0,1.2.185c.249.015.5.031.744.067a2.093,2.093,0,0,1,1.81,1.309,2.491,2.491,0,0,1-.88,2.21c-.481.538-.906,1.112-.762,1.661a1.394,1.394,0,0,0,1.272.839,5.637,5.637,0,0,0,1.135-.06c.27-.032.54-.064.811-.073a2.28,2.28,0,0,1,2.025.82,2.522,2.522,0,0,1-.2,2.6,5.029,5.029,0,0,1-2.309,2.127A3.628,3.628,0,0,1,3290.957,1308.68Z" transform="translate(-3285.581 -1293.209)" fill="#6b4f5e"/>
          </g>
          <g id="Grupo_1189431" data-name="Grupo 1189431" transform="translate(41.844 0.251)">
            <path id="Trazado_878513" data-name="Trazado 878513" d="M2637.1,451.511a.309.309,0,0,1-.061-.006.3.3,0,0,1-.229-.349,3.377,3.377,0,0,1,4.914-2.282,6.444,6.444,0,0,1,.788.532c.191.144.383.288.587.411a1.571,1.571,0,0,0,1.312.239c.469-.189.693-.721.928-1.285a7.071,7.071,0,0,1,.355-.759,3.124,3.124,0,0,1,5.659.512.3.3,0,0,1-.557.2,2.533,2.533,0,0,0-4.59-.415,6.429,6.429,0,0,0-.323.695,2.558,2.558,0,0,1-1.253,1.6,2.132,2.132,0,0,1-1.837-.281c-.221-.134-.429-.289-.635-.444a5.921,5.921,0,0,0-.716-.485,2.788,2.788,0,0,0-4.055,1.883A.3.3,0,0,1,2637.1,451.511Z" transform="translate(-2636.804 -446.438)" fill="#6b4f5e"/>
          </g>
        </g>
        <g id="Grupo_1189465" data-name="Grupo 1189465" transform="translate(1112.922 406.29)">
          <g id="Grupo_1189433" data-name="Grupo 1189433" transform="translate(31.164 69.299)">
            <path id="Trazado_878514" data-name="Trazado 878514" d="M3105.038,3043.772s-1.215,3.034-2.162,5.647c.854.029,1.689.053,2.487.077,3.529.107,6.291-.143,7.04-.662,1.41-.978.738-3.233-.048-4C3109.971,3043.174,3105.038,3043.772,3105.038,3043.772Z" transform="translate(-3102.876 -3043.667)" fill="#ffebe6"/>
          </g>
          <g id="Grupo_1189434" data-name="Grupo 1189434" transform="translate(48.316 44.236)">
            <path id="Trazado_878515" data-name="Trazado 878515" d="M3379.307,2656.636s.234,12.2,2.546,14.438c1.36,1.313,4.977,1.647,6.807,1.5s2.744-.7,3.037-1.976-.663-2.4-1.679-3.261-2.1-1.508-2.278-2.058a41.7,41.7,0,0,1,.364-9.9c.878-5.526,3.66-11.893,4.083-15.648C3384.033,2646.317,3379.307,2656.636,3379.307,2656.636Z" transform="translate(-3379.307 -2639.726)" fill="#ffebe6"/>
          </g>
          <g id="Grupo_1189435" data-name="Grupo 1189435" transform="translate(2.058 0)">
            <path id="Trazado_878516" data-name="Trazado 878516" d="M2694.945,1948.25a14.588,14.588,0,0,1-2.657,8.5c2.063,5.9,2.489,13.124-1.83,20.146s-11.949,12.185-11.949,12.185a65.733,65.733,0,0,0,.673,8.592c.248.525,1.08.956,2.095,1.818s1.942,2.095,1.646,3.375-1.18,1.965-2.992,2.248c-1.77.277-5.258.047-6.644-1.233s-3.718-7.73-3.718-7.73a32.024,32.024,0,0,1-5.093,3.44c.785.755,1.458,2.986.047,3.954-.75.513-3.511.761-7.04.655a89.639,89.639,0,0,1-13.088-.985c-2.1-.424-5.845-1.892-7.714-4.4-1.881-2.524-4.161-7.873-2.111-15.681,2.521-9.605,12.521-17.278,18.458-20.6,7.854-4.39,10.551-7.73,10.551-7.73a12.073,12.073,0,0,1-1.908-9.784,16.987,16.987,0,0,1,2.445-5.5s-3.4-10.869-.384-12.516,9.79,6.308,9.79,6.308c3.7-.767,9.536.289,9.536.289s3.7-4.113,6.16-5.564c2.213-1.3,4.455-1.581,4.815,1.617.389,3.481-1.5,9.943-1.5,9.943A18.489,18.489,0,0,1,2694.945,1948.25Z" transform="translate(-2633.763 -1926.771)" fill="#ffebe6"/>
          </g>
          <g id="Grupo_1189436" data-name="Grupo 1189436" transform="translate(21.331 49.307)">
            <path id="Trazado_878517" data-name="Trazado 878517" d="M2949.477,2743.552a.221.221,0,0,1-.11-.413c4.814-2.74,5.544-10.047,3.2-15.152s-7.939-6.085-8-6.095a.222.222,0,0,1-.182-.254.218.218,0,0,1,.255-.182c.058.01,5.889,1.032,8.325,6.347,2.421,5.282,1.638,12.86-3.387,15.721A.221.221,0,0,1,2949.477,2743.552Z" transform="translate(-2944.391 -2721.453)" fill="#47393c"/>
          </g>
          <g id="Grupo_1189437" data-name="Grupo 1189437" transform="translate(33.919 53.917)">
            <path id="Trazado_878518" data-name="Trazado 878518" d="M3153.882,2817.635a.221.221,0,0,1-.2-.124c-3.868-7.906-6.377-21.349-6.4-21.484a.222.222,0,1,1,.436-.081c.025.134,2.522,13.519,6.364,21.37a.222.222,0,0,1-.1.3A.228.228,0,0,1,3153.882,2817.635Z" transform="translate(-3147.277 -2795.766)" fill="#47393c"/>
          </g>
          <g id="Grupo_1189438" data-name="Grupo 1189438" transform="translate(46.471 51.429)">
            <path id="Trazado_878519" data-name="Trazado 878519" d="M3349.912,2767.845a.221.221,0,0,1-.221-.215c-.1-3.907-.106-11.677-.106-11.756a.221.221,0,0,1,.221-.221h0a.221.221,0,0,1,.221.221c0,.078.006,7.842.107,11.744a.222.222,0,0,1-.216.227Z" transform="translate(-3349.584 -2755.653)" fill="#47393c"/>
          </g>
          <g id="Grupo_1189439" data-name="Grupo 1189439" transform="translate(30.455 73.516)">
            <path id="Trazado_878520" data-name="Trazado 878520" d="M3092.415,3115.138a.209.209,0,0,1-.05-.006.221.221,0,0,1-.165-.266,2.871,2.871,0,0,0-.674-2.833.221.221,0,0,1,.29-.335,3.3,3.3,0,0,1,.815,3.268A.222.222,0,0,1,3092.415,3115.138Z" transform="translate(-3091.45 -3111.645)" fill="#47393c"/>
          </g>
          <g id="Grupo_1189440" data-name="Grupo 1189440" transform="translate(45.997 74.944)">
            <path id="Trazado_878521" data-name="Trazado 878521" d="M3342.858,3138.042a.2.2,0,0,1-.051-.006.22.22,0,0,1-.163-.266,2.768,2.768,0,0,0-.631-2.731.221.221,0,0,1,.292-.333,3.2,3.2,0,0,1,.768,3.166A.221.221,0,0,1,3342.858,3138.042Z" transform="translate(-3341.939 -3134.651)" fill="#47393c"/>
          </g>
          <g id="Grupo_1189441" data-name="Grupo 1189441" transform="translate(48.529 74.528)">
            <path id="Trazado_878522" data-name="Trazado 878522" d="M3383.67,3131.346a.2.2,0,0,1-.051-.006.22.22,0,0,1-.164-.266,2.791,2.791,0,0,0-.63-2.73.221.221,0,0,1,.292-.333,3.2,3.2,0,0,1,.768,3.166A.221.221,0,0,1,3383.67,3131.346Z" transform="translate(-3382.75 -3127.955)" fill="#47393c"/>
          </g>
          <g id="Grupo_1189442" data-name="Grupo 1189442" transform="translate(55.474 73.64)">
            <path id="Trazado_878523" data-name="Trazado 878523" d="M3495.613,3117.024a.212.212,0,0,1-.051-.006.221.221,0,0,1-.165-.266,2.767,2.767,0,0,0-.639-2.729.221.221,0,0,1,.291-.333,3.2,3.2,0,0,1,.779,3.164A.222.222,0,0,1,3495.613,3117.024Z" transform="translate(-3494.684 -3113.637)" fill="#47393c"/>
          </g>
          <g id="Grupo_1189443" data-name="Grupo 1189443" transform="translate(58.157 73.352)">
            <path id="Trazado_878524" data-name="Trazado 878524" d="M3538.847,3112.381a.226.226,0,0,1-.051-.006.221.221,0,0,1-.165-.266,2.768,2.768,0,0,0-.639-2.728.221.221,0,0,1,.291-.333,3.2,3.2,0,0,1,.779,3.163A.223.223,0,0,1,3538.847,3112.381Z" transform="translate(-3537.917 -3108.992)" fill="#47393c"/>
          </g>
          <g id="Grupo_1189444" data-name="Grupo 1189444" transform="translate(32.46 69.077)">
            <path id="Trazado_878525" data-name="Trazado 878525" d="M3123.976,3043.907a.221.221,0,0,1-.1-.42,30.432,30.432,0,0,0,5.3-3.344.221.221,0,1,1,.28.343,30.873,30.873,0,0,1-5.39,3.4A.217.217,0,0,1,3123.976,3043.907Z" transform="translate(-3123.755 -3040.093)" fill="#47393c"/>
          </g>
          <g id="Grupo_1189445" data-name="Grupo 1189445" transform="translate(49.337 72.448)">
            <path id="Trazado_878526" data-name="Trazado 878526" d="M3397.672,3098.089h-.021a.221.221,0,0,1-.2-.241,3.131,3.131,0,0,0-1.558-2.995.221.221,0,0,1,.2-.393,3.593,3.593,0,0,1,1.795,3.429A.221.221,0,0,1,3397.672,3098.089Z" transform="translate(-3395.775 -3094.435)" fill="#47393c"/>
          </g>
          <g id="Grupo_1189446" data-name="Grupo 1189446" transform="translate(20.487 70.922)">
            <path id="Trazado_878527" data-name="Trazado 878527" d="M2943.962,3074.92a.263.263,0,0,1-.039,0,.222.222,0,0,1-.179-.256,3.146,3.146,0,0,0-1.458-3.128c-1.784-1.093-7.014-1.427-11.264-1.193a.217.217,0,0,1-.233-.208.22.22,0,0,1,.208-.233c4.317-.24,9.657.117,11.52,1.258a3.65,3.65,0,0,1,1.662,3.581A.222.222,0,0,1,2943.962,3074.92Z" transform="translate(-2930.789 -3069.828)" fill="#47393c"/>
          </g>
          <g id="Grupo_1189447" data-name="Grupo 1189447" transform="translate(40.785 30.271)">
            <path id="Trazado_878528" data-name="Trazado 878528" d="M3263.076,2416.25a11.594,11.594,0,0,1-5.009-1.178.221.221,0,1,1,.19-.4,9.95,9.95,0,0,0,8.946.2.223.223,0,0,1,.3.077.221.221,0,0,1-.076.3A9.227,9.227,0,0,1,3263.076,2416.25Z" transform="translate(-3257.941 -2414.651)" fill="#47393c"/>
          </g>
          <g id="Grupo_1189448" data-name="Grupo 1189448" transform="translate(33.023 3.219)">
            <path id="Trazado_878529" data-name="Trazado 878529" d="M3138.171,1982.573a15.737,15.737,0,0,1-3.917,3.233.385.385,0,0,1-.508-.287c-.513-1.76-1.45-6.292-.51-6.813.8-.444,4.1,2.4,4.846,3.285A.563.563,0,0,1,3138.171,1982.573Z" transform="translate(-3132.835 -1978.659)" fill="#f9b6a0"/>
          </g>
          <g id="Grupo_1189449" data-name="Grupo 1189449" transform="translate(54.55 3.62)">
            <path id="Trazado_878530" data-name="Trazado 878530" d="M3479.846,1989.228a15.722,15.722,0,0,0,4.052,3.062.385.385,0,0,0,.495-.309c.437-1.78,1.179-6.348.218-6.829-.818-.409-4,2.57-4.7,3.49A.561.561,0,0,0,3479.846,1989.228Z" transform="translate(-3479.789 -1985.114)" fill="#f9b6a0"/>
          </g>
          <g id="Grupo_1189453" data-name="Grupo 1189453" transform="translate(41.51 20.083)">
            <g id="Grupo_1189450" data-name="Grupo 1189450" transform="translate(1.955)">
              <path id="Trazado_878531" data-name="Trazado 878531" d="M3304.839,2251.307c-.124-.509-.94-.823-1.841-.848-.9,0-1.724.295-1.862.8-.144.528.536,1.417,1.406,1.773a1.16,1.16,0,0,0,.845.011C3304.267,2252.711,3304.969,2251.839,3304.839,2251.307Z" transform="translate(-3301.117 -2250.459)" fill="#47393c"/>
            </g>
            <g id="Grupo_1189451" data-name="Grupo 1189451" transform="translate(0 2.05)">
              <path id="Trazado_878532" data-name="Trazado 878532" d="M3271.752,2286.3a2.635,2.635,0,0,1-.462-.04,2.166,2.166,0,0,1-1.651-1.085.3.3,0,0,1,.538-.243,1.606,1.606,0,0,0,1.216.748,1.934,1.934,0,0,0,1.421-.28.689.689,0,0,0,.307-.376l.016-1.226a.3.3,0,0,1,.3-.291.3.3,0,0,1,.29.3l-.021,1.272a1.232,1.232,0,0,1-.554.8A2.458,2.458,0,0,1,3271.752,2286.3Z" transform="translate(-3269.613 -2283.507)" fill="#47393c"/>
            </g>
            <g id="Grupo_1189452" data-name="Grupo 1189452" transform="translate(3.523 2.05)">
              <path id="Trazado_878533" data-name="Trazado 878533" d="M3328.656,2286.4c-1.21,0-2.146-.651-2.249-1.275l-.014-1.319a.3.3,0,0,1,.293-.3.291.291,0,0,1,.3.293l.01,1.272a1.871,1.871,0,0,0,1.8.732,1.943,1.943,0,0,0,1.4-.812.3.3,0,0,1,.5.32,2.51,2.51,0,0,1-1.866,1.081C3328.767,2286.4,3328.711,2286.4,3328.656,2286.4Z" transform="translate(-3326.393 -2283.507)" fill="#47393c"/>
            </g>
          </g>
          <g id="Grupo_1189456" data-name="Grupo 1189456" transform="translate(26.327 20.368)">
            <g id="Grupo_1189454" data-name="Grupo 1189454">
              <path id="Trazado_878534" data-name="Trazado 878534" d="M3030.845,2256.9a.269.269,0,0,1-.048,0c-.025,0-2.475-.406-5.672-1.273a.295.295,0,1,1,.154-.569c3.167.858,5.588,1.256,5.613,1.26a.3.3,0,0,1-.047.586Z" transform="translate(-3024.907 -2255.042)" fill="#47393c"/>
            </g>
            <g id="Grupo_1189455" data-name="Grupo 1189455" transform="translate(1.113 3.343)">
              <path id="Trazado_878535" data-name="Trazado 878535" d="M3043.139,2309.921a.295.295,0,0,1-.014-.59c2.536-.119,4.415-.4,4.434-.4a.3.3,0,0,1,.335.248.3.3,0,0,1-.248.335c-.019,0-1.925.288-4.494.407Z" transform="translate(-3042.844 -2308.927)" fill="#47393c"/>
            </g>
          </g>
          <g id="Grupo_1189459" data-name="Grupo 1189459" transform="translate(58.497 21.183)">
            <g id="Grupo_1189457" data-name="Grupo 1189457" transform="translate(0.001)">
              <path id="Trazado_878536" data-name="Trazado 878536" d="M3543.71,2269.857a.295.295,0,0,1-.037-.587c.024,0,2.458-.322,5.651-1.077a.292.292,0,0,1,.355.219.3.3,0,0,1-.219.355c-3.224.762-5.687,1.085-5.711,1.088A.259.259,0,0,1,3543.71,2269.857Z" transform="translate(-3543.416 -2268.184)" fill="#47393c"/>
            </g>
            <g id="Grupo_1189458" data-name="Grupo 1189458" transform="translate(0 3.162)">
              <path id="Trazado_878537" data-name="Trazado 878537" d="M3548.144,2320.286h-.024c-2.562-.2-4.459-.55-4.478-.553a.3.3,0,0,1,.107-.581c.018,0,1.887.345,4.418.546a.295.295,0,0,1-.023.589Z" transform="translate(-3543.4 -2319.146)" fill="#47393c"/>
            </g>
          </g>
          <g id="Grupo_1189460" data-name="Grupo 1189460" transform="translate(0 67.686)">
            <path id="Trazado_878538" data-name="Trazado 878538" d="M2603.429,3017.684a7.68,7.68,0,0,0-2.589,7.875c1.338,5.511,8.228,9.177,17.663,9.344s21.062-.948,20.629-5.687-12.028-3.04-16.323-2.994C2615.267,3026.3,2606.464,3024.44,2603.429,3017.684Z" transform="translate(-2600.595 -3017.684)" fill="#ffebe6"/>
          </g>
          <g id="Grupo_1189461" data-name="Grupo 1189461" transform="translate(3.592 69.519)">
            <path id="Trazado_878539" data-name="Trazado 878539" d="M2690.84,3054.5a.223.223,0,0,1-.109-.029c-1.559-.882-5.571-.7-8.5-.571l-1.054.046c-.365.014-.776.036-1.227.061-3.323.181-8.888.486-14.381-1.481-5.154-1.846-6.982-4.841-7.058-4.967a.221.221,0,0,1,.38-.227c.018.03,1.834,2.989,6.826,4.777,5.409,1.938,10.917,1.637,14.208,1.457.453-.025.866-.047,1.234-.062.332-.013.685-.029,1.051-.045,3.149-.14,7.067-.316,8.738.628a.221.221,0,0,1-.109.414Z" transform="translate(-2658.481 -3047.224)" fill="#47393c"/>
          </g>
          <g id="Grupo_1189462" data-name="Grupo 1189462" transform="translate(35.405 16.532)">
            <path id="Trazado_878540" data-name="Trazado 878540" d="M3173.633,2193.273a3.126,3.126,0,0,0-2.385,1.981c-.148.477.359.767.816.338a3.114,3.114,0,0,1,4.129-.344c.406.277.984-.109.687-.57A3.271,3.271,0,0,0,3173.633,2193.273Z" transform="translate(-3171.222 -2193.224)" fill="#47393c"/>
          </g>
          <g id="Grupo_1189463" data-name="Grupo 1189463" transform="translate(49.509 16.532)">
            <path id="Trazado_878541" data-name="Trazado 878541" d="M3401.875,2193.273a3.127,3.127,0,0,1,2.386,1.981c.148.477-.359.767-.816.338a3.115,3.115,0,0,0-4.13-.344c-.406.277-.984-.109-.687-.57A3.27,3.27,0,0,1,3401.875,2193.273Z" transform="translate(-3398.546 -2193.224)" fill="#47393c"/>
          </g>
          <g id="Grupo_1189464" data-name="Grupo 1189464" transform="translate(48.266 52.233)">
            <path id="Trazado_878542" data-name="Trazado 878542" d="M3378.725,2777.678a.221.221,0,0,1-.131-.4,51.458,51.458,0,0,0,8.628-8.571.221.221,0,0,1,.347.274,51.9,51.9,0,0,1-8.713,8.653A.219.219,0,0,1,3378.725,2777.678Z" transform="translate(-3378.504 -2768.624)" fill="#47393c"/>
          </g>
        </g>
        <g id="Grupo_1189471" data-name="Grupo 1189471" transform="translate(1167.481 449.932)">
          <g id="Grupo_1189466" data-name="Grupo 1189466" transform="translate(0 0)">
            <path id="Trazado_878543" data-name="Trazado 878543" d="M3492.094,2632.145c.465,1.491.111,3.125-.8,3.436a2.876,2.876,0,0,1-1.3,3.533,3.07,3.07,0,0,1-1.887,3.185s-.061,1.787-2.974,1.8c-2.358.011-4.31-1.112-4.642-2.368-.269-1.021.131-1.345.131-1.345a4.35,4.35,0,0,1-.674-2.256,1.583,1.583,0,0,1,.956-1.428,3.1,3.1,0,0,1-.509-2.377,1.758,1.758,0,0,1,1.624-1.384s-.718-2.414,1.488-2.731a9.161,9.161,0,0,1,3.391.47A30.6,30.6,0,0,1,3492.094,2632.145Z" transform="translate(-3479.933 -2630.161)" fill="#c9deeb"/>
          </g>
          <g id="Grupo_1189467" data-name="Grupo 1189467" transform="translate(1.942 2.51)">
            <path id="Trazado_878544" data-name="Trazado 878544" d="M3519.714,2673.694a16.886,16.886,0,0,1-8.38-2.673.221.221,0,0,1,.224-.381c5.333,3.133,8.933,2.566,8.968,2.561a.221.221,0,0,1,.075.436A5.548,5.548,0,0,1,3519.714,2673.694Z" transform="translate(-3511.225 -2670.609)" fill="#47393c"/>
          </g>
          <g id="Grupo_1189468" data-name="Grupo 1189468" transform="translate(0.748 6.32)">
            <path id="Trazado_878545" data-name="Trazado 878545" d="M3500.094,2735.1a14.564,14.564,0,0,1-8.013-2.677.222.222,0,0,1,.246-.369c4.859,3.238,8.841,2.531,8.881,2.523a.221.221,0,1,1,.083.435A6.8,6.8,0,0,1,3500.094,2735.1Z" transform="translate(-3491.982 -2732.017)" fill="#47393c"/>
          </g>
          <g id="Grupo_1189469" data-name="Grupo 1189469" transform="translate(0.447 9.769)">
            <path id="Trazado_878546" data-name="Trazado 878546" d="M3494.38,2790.231a13.305,13.305,0,0,1-7.138-2.21.221.221,0,0,1,.246-.367,12.941,12.941,0,0,0,7.181,2.128.215.215,0,0,1,.234.208.221.221,0,0,1-.208.234C3494.67,2790.225,3494.561,2790.231,3494.38,2790.231Z" transform="translate(-3487.143 -2787.616)" fill="#47393c"/>
          </g>
          <g id="Grupo_1189470" data-name="Grupo 1189470" transform="translate(5.982 0.129)">
            <path id="Trazado_878547" data-name="Trazado 878547" d="M3579.082,2633.167a8.471,8.471,0,0,1-2.589-.5.222.222,0,0,1,.156-.415,7.086,7.086,0,0,0,3.053.419.221.221,0,1,1,.078.436A3.87,3.87,0,0,1,3579.082,2633.167Z" transform="translate(-3576.349 -2632.241)" fill="#47393c"/>
          </g>
        </g>
        <g id="Grupo_1189478" data-name="Grupo 1189478" transform="translate(1036.992 471.376)">
          <g id="Grupo_1189472" data-name="Grupo 1189472" transform="translate(0 0)">
            <path id="Trazado_878548" data-name="Trazado 878548" d="M1376.807,2986.7c0,.384.957.794,5.824,2.167s10.526,2.663,14.978,4.036,10.068,2.871,10.859,2.788,5.978-2.213,11.564-5.028c5.311-2.677,17.9-7.65,17.84-8.363-.089-.983-5.982-2.609-11.567-3.576s-14.519-3.04-15.424-2.946a106.414,106.414,0,0,0-10.765,3.151c-5.741,1.872-15.583,4.582-18.016,5.425S1376.811,2986.332,1376.807,2986.7Z" transform="translate(-1376.807 -2975.778)" fill="#ffebe6"/>
          </g>
          <g id="Grupo_1189477" data-name="Grupo 1189477" transform="translate(13.263 3.11)">
            <g id="Grupo_1189473" data-name="Grupo 1189473" transform="translate(0 5.746)">
              <path id="Trazado_878549" data-name="Trazado 878549" d="M1609.482,3123.643a.222.222,0,0,1-.078-.014,56.134,56.134,0,0,0-6.478-1.629c-2.133-.46-4.148-.894-5.341-1.3-2.516-.859-6.79-1.737-6.833-1.746a.221.221,0,0,1,.089-.434c.043.009,4.344.892,6.887,1.761,1.169.4,3.172.83,5.292,1.287a56.584,56.584,0,0,1,6.541,1.648.222.222,0,0,1-.078.429Z" transform="translate(-1590.575 -3118.513)" fill="#47393c"/>
            </g>
            <g id="Grupo_1189474" data-name="Grupo 1189474" transform="translate(7.365 4.044)">
              <path id="Trazado_878550" data-name="Trazado 878550" d="M1726.355,3096.143a.2.2,0,0,1-.058-.008l-16.852-4.629a.221.221,0,1,1,.117-.427l16.852,4.63a.221.221,0,0,1-.058.434Z" transform="translate(-1709.282 -3091.07)" fill="#47393c"/>
            </g>
            <g id="Grupo_1189475" data-name="Grupo 1189475" transform="translate(13.645 2.195)">
              <path id="Trazado_878551" data-name="Trazado 878551" d="M1827.16,3065.6a.226.226,0,0,1-.051-.006l-16.452-3.887a.222.222,0,0,1,.1-.431l16.451,3.887a.221.221,0,0,1-.05.437Z" transform="translate(-1810.487 -3061.271)" fill="#47393c"/>
            </g>
            <g id="Grupo_1189476" data-name="Grupo 1189476" transform="translate(18.611)">
              <path id="Trazado_878552" data-name="Trazado 878552" d="M1907,3030.153a.2.2,0,0,1-.051-.006l-16.247-3.811a.221.221,0,0,1,.1-.431l16.247,3.811a.222.222,0,0,1-.05.438Z" transform="translate(-1890.535 -3025.899)" fill="#47393c"/>
            </g>
          </g>
        </g>
      </g>
    </g>
  </g>
</svg>
