<svg xmlns="http://www.w3.org/2000/svg" width="73.054" height="73.053" viewBox="0 0 73.054 73.053">
  <g id="Grupo_1189482" data-name="Grupo 1189482" transform="translate(-871.113 -277.164)">
    <g id="Grupo_1188789" data-name="Grupo 1188789" transform="translate(871.113 277.164)">
      <rect id="Rectángulo_400898" data-name="Rectángulo 400898" width="60.477" height="60.477" rx="30.238" transform="translate(6.054 6.312)" fill="#26dbd2"/>
      <rect id="Rectángulo_400907" data-name="Rectángulo 400907" width="65.491" height="65.49" rx="32.745" transform="translate(3.783 3.781)" fill="none"/>
      <g id="Grupo_1098742" data-name="Grupo 1098742" transform="translate(0)">
        <g id="Rectángulo_400898-2" data-name="Rectángulo 400898" transform="translate(0)" fill="none" stroke="#fff" stroke-width="2" opacity="0.859">
          <rect width="73.054" height="73.053" rx="36.527" stroke="none"/>
          <rect x="1" y="1" width="71.054" height="71.053" rx="35.527" fill="none"/>
        </g>
        <g id="Rectángulo_400907-2" data-name="Rectángulo 400907" transform="translate(0)" fill="none" stroke="#0f1f33" stroke-linecap="round" stroke-width="2">
          <rect width="73.054" height="73.053" rx="36.527" stroke="none"/>
          <rect x="1" y="1" width="71.054" height="71.053" rx="35.527" fill="none"/>
        </g>
      </g>
      <g id="Layer2" transform="translate(-12.002 -130.288)">
        <path id="Trazado_878603" data-name="Trazado 878603" d="M314.126,355.9a14.783,14.783,0,0,0,8.461.548,8.14,8.14,0,0,0,.447,2.288,31.243,31.243,0,0,0-9.342,1.065A11.717,11.717,0,0,0,314.126,355.9Z" transform="translate(-260.11 -181.409)" fill="#e7e7e7" fill-rule="evenodd"/>
        <path id="Trazado_878604" data-name="Trazado 878604" d="M118.306,354.71s4.93-4.77,8.461.548a8.137,8.137,0,0,0,.446,2.288,31.243,31.243,0,0,0-9.342,1.065A11.717,11.717,0,0,0,118.306,354.71Z" transform="translate(-83.642 -178.562)" fill="#e7e7e7" fill-rule="evenodd"/>
        <path id="Trazado_878605" data-name="Trazado 878605" d="M318.094,356.948q.015-.514-.008-1.045a14.783,14.783,0,0,0,8.461.548q.047.566.124,1.041h-.124A14.849,14.849,0,0,1,318.094,356.948Z" transform="translate(-264.069 -181.409)" fill="#d5d5d5" fill-rule="evenodd"/>
        <path id="Trazado_878606" data-name="Trazado 878606" d="M122.265,347.06c.01-.343.015-.9,0-1.256,0,0,3.449-2.813,4.6-2.562,1.484.323,1.049,2.5,3.9,1.935.031.377.027,1.9.079,2.216h-.124a6.807,6.807,0,0,1-4.224-1.752S124.631,347.92,122.265,347.06Z" transform="translate(-87.601 -169.985)" fill="#d5d5d5" fill-rule="evenodd"/>
        <path id="Trazado_878607" data-name="Trazado 878607" d="M38.9,155.517c-3.07-1.838-8.952-1.607-12.9,7.28-1.2,2.706-1.12,4.578-.494,5.841.871,1.759,2.881,2.458,4.633,2.583v.523a4.8,4.8,0,0,0,3.567,4.639,11.01,11.01,0,0,1-.033,1.632c-.032.294-.194.868-.264,1.191a.824.824,0,0,0,1.609.351c.08-.369.256-1.028.292-1.364a13,13,0,0,0,.049-1.67,4.8,4.8,0,0,0,3.553-2.092,4.8,4.8,0,0,0,3.554,2.092,5.511,5.511,0,0,0,.331,2.125.824.824,0,1,0,1.59-.431,3.873,3.873,0,0,1-.256-1.827v-.012a4.8,4.8,0,0,0,3.553-4.635v-.524c.232-.017.469-.044.706-.083a11.09,11.09,0,0,0,4.821,3.558,11.008,11.008,0,0,1-.033,1.637c-.032.294-.194.868-.264,1.191a.824.824,0,0,0,1.609.351c.08-.369.256-1.028.292-1.364a11.555,11.555,0,0,0,.055-1.263,15.794,15.794,0,0,0,4.072.525,16.043,16.043,0,0,0,3.031-.286,6.74,6.74,0,0,0,.328,1.478.824.824,0,0,0,1.59-.431,4.265,4.265,0,0,1-.282-1.458,12.221,12.221,0,0,0,4.952-2.863,8.8,8.8,0,0,0,1.352-1.7,4.727,4.727,0,0,1,.892.791.824.824,0,1,0,1.265-1.055,6.733,6.733,0,0,0-1.457-1.24,6.947,6.947,0,0,0,.2-.739,3.976,3.976,0,0,1,.766.3.824.824,0,0,0,.826-1.425,5.741,5.741,0,0,0-1.444-.539,6.792,6.792,0,0,0-.142-1.17,3.762,3.762,0,0,1,.477.1.824.824,0,0,0,.461-1.581,6.483,6.483,0,0,0-1.525-.2,8.158,8.158,0,0,0-1-1.541l.011-.169s-.023-3.367-1.449-5.4a.824.824,0,0,0-.981-.292,6.279,6.279,0,0,0-2.722,2.418,15.586,15.586,0,0,0-5.157-.857,16.118,16.118,0,0,0-2.834.248l-.024,0a14.965,14.965,0,0,0-2.124.544,6.266,6.266,0,0,0-2.683-2.357.824.824,0,0,0-.981.292,7.128,7.128,0,0,0-.925,1.984c-3.656-4.724-7.986-4.592-10.472-3.1Z" fill-rule="evenodd"/>
        <path id="Trazado_878608" data-name="Trazado 878608" d="M54.719,187.377a3.151,3.151,0,0,0,6.244-.605v-1.325a3.828,3.828,0,0,0-1.515-3.207.824.824,0,1,1,.853-1.409,5.267,5.267,0,0,1,2.255,3.774,3.64,3.64,0,0,0,3.192-1.669c.477-.963.394-2.376-.523-4.441-3.477-7.824-8.476-8.108-10.891-6.309a.824.824,0,0,1-1,.009c-2.411-1.808-7.42-1.536-10.9,6.3-.917,2.064-1,3.477-.523,4.441a3.652,3.652,0,0,0,3.211,1.671,7.236,7.236,0,0,1,1.586-3.622.824.824,0,1,1,1.223,1.1,5.462,5.462,0,0,0-1.216,3.36v1.325a3.151,3.151,0,0,0,6.244.605L51.886,186.1a1.082,1.082,0,0,1,.831-1.774h2.238a1.082,1.082,0,0,1,.831,1.774Z" transform="translate(-14.926 -15.028)" fill="#fdad4c" fill-rule="evenodd"/>
        <path id="Trazado_878609" data-name="Trazado 878609" d="M205.458,285.423v1.325a3.02,3.02,0,0,1-2.553,3.141l.251.01a3.151,3.151,0,0,0,3.151-3.151v-1.325a3.828,3.828,0,0,0-1.515-3.207A6,6,0,0,1,205.458,285.423Z" transform="translate(-160.272 -115.004)" fill="#fcbe73" fill-rule="evenodd"/>
        <path id="Trazado_878610" data-name="Trazado 878610" d="M94.341,280.669a5.462,5.462,0,0,0-1.216,3.36v1.325a3.151,3.151,0,0,0,3.151,3.151l.25-.01a3.019,3.019,0,0,1-2.554-3.141v-1.325A14.131,14.131,0,0,1,94.341,280.669Z" transform="translate(-61.341 -113.61)" fill="#e69d44" fill-rule="evenodd"/>
        <path id="Trazado_878611" data-name="Trazado 878611" d="M45.144,184.428a2.7,2.7,0,0,1-1.818-1.493c-.42-.963-.347-2.376.461-4.441,2.061-5.264,4.728-7.115,6.9-7.215-2.537-.1-5.783,1.645-8.258,7.215-.917,2.064-1,3.477-.523,4.441a3.652,3.652,0,0,0,3.211,1.671q.012-.09.026-.178Z" transform="translate(-14.927 -15.028)" fill="#e69d44" fill-rule="evenodd"/>
        <path id="Trazado_878612" data-name="Trazado 878612" d="M196.894,171.281c2.173.1,4.841,1.951,6.9,7.214.808,2.064.881,3.477.461,4.441a2.69,2.69,0,0,1-1.8,1.488q.015.09.026.182a3.64,3.64,0,0,0,3.192-1.669c.477-.963.394-2.376-.523-4.441C202.677,172.925,199.43,171.177,196.894,171.281Z" transform="translate(-154.855 -15.028)" fill="#fcbe73" fill-rule="evenodd"/>
        <path id="Trazado_878613" data-name="Trazado 878613" d="M296.831,197.045a6.926,6.926,0,0,0-.687-.92.824.824,0,0,1-.2-.61s.033-.409.033-.414a9.975,9.975,0,0,0-.777-3.776,4.989,4.989,0,0,0-1.611,1.914.824.824,0,0,1-1.056.4,12.562,12.562,0,0,0-1.383-.477,4.494,4.494,0,0,0-.048,1,.824.824,0,1,1-1.644.1,6.014,6.014,0,0,1,.064-1.454q-.5-.076-1.013-.118l.016,2.052a.824.824,0,1,1-1.647.013l-.016-2.106q-.605.019-1.192.085a9.673,9.673,0,0,1,.069,1.866.824.824,0,0,1-1.646-.075,8.079,8.079,0,0,0-.058-1.508,12.842,12.842,0,0,0-1.769.553.824.824,0,0,1-1.04-.4,4.986,4.986,0,0,0-1.579-1.851,8.378,8.378,0,0,0-.642,2.269,23.249,23.249,0,0,1,1.171,2.3c1.2,2.706,1.12,4.578.494,5.841a4.318,4.318,0,0,1-2.2,2,11.8,11.8,0,0,0,8.841,3.485,12.116,12.116,0,0,0,8.461-3.084,6.338,6.338,0,0,0,1.772-2.988,5.641,5.641,0,0,0-1.174.144.824.824,0,0,1-.37-1.605,7.271,7.271,0,0,1,1.671-.187,5.187,5.187,0,0,0-.166-.93,4.051,4.051,0,0,0-1.351.524.824.824,0,0,1-.867-1.4,5.517,5.517,0,0,1,1.543-.651Z" transform="translate(-228.369 -33.096)" fill="#fafafa" fill-rule="evenodd"/>
        <path id="Trazado_878614" data-name="Trazado 878614" d="M354.878,264.453l-.339-.334a.376.376,0,0,1-.073-.464.549.549,0,0,1,.481-.251h1.1a.549.549,0,0,1,.481.251.375.375,0,0,1-.073.464l-.339.334v.873l.806,1.572a.618.618,0,1,1-1.1.564l-.371-.724-.457.76a.618.618,0,0,1-1.059-.637l.945-1.572Z" transform="translate(-296.294 -98.05)" fill-rule="evenodd"/>
        <circle id="Elipse_11571" data-name="Elipse 11571" cx="1.605" cy="1.605" r="1.605" transform="translate(60.782 164.126)"/>
        <circle id="Elipse_11572" data-name="Elipse 11572" cx="1.605" cy="1.605" r="1.605" transform="translate(54.302 164.126)"/>
        <circle id="Elipse_11573" data-name="Elipse 11573" cx="0.37" cy="0.37" r="0.37" transform="translate(62.017 165.361)" fill="#b3f4fb"/>
        <circle id="Elipse_11574" data-name="Elipse 11574" cx="0.37" cy="0.37" r="0.37" transform="translate(55.537 165.361)" fill="#b3f4fb"/>
        <circle id="Elipse_11575" data-name="Elipse 11575" cx="1.017" cy="1.017" r="1.017" transform="translate(34.482 162.777)"/>
        <circle id="Elipse_11576" data-name="Elipse 11576" cx="1.017" cy="1.017" r="1.017" transform="translate(40.97 162.763)"/>
        <path id="Trazado_878615" data-name="Trazado 878615" d="M382.588,193.751a7.462,7.462,0,0,1,3.508,3.723,7.741,7.741,0,0,1-4.213,9.421,11.007,11.007,0,0,0,5.387-2.757,6.338,6.338,0,0,0,1.772-2.988,5.64,5.64,0,0,0-1.174.144.824.824,0,0,1-.37-1.605,7.271,7.271,0,0,1,1.671-.187,5.187,5.187,0,0,0-.166-.93,4.051,4.051,0,0,0-1.351.524.824.824,0,0,1-.867-1.4,5.517,5.517,0,0,1,1.543-.651,6.924,6.924,0,0,0-.687-.92.824.824,0,0,1-.2-.61s.033-.409.033-.414a9.975,9.975,0,0,0-.777-3.776,4.989,4.989,0,0,0-1.611,1.914.824.824,0,0,1-1.056.4,12.562,12.562,0,0,0-1.383-.477A4.28,4.28,0,0,0,382.588,193.751Zm-2.522-1.049L380,192.7a9.334,9.334,0,0,1,.982.316q.014-.1.032-.2Q380.548,192.743,380.066,192.7Z" transform="translate(-319.866 -33.096)" fill="#fff" fill-rule="evenodd"/>
        <path id="Trazado_878616" data-name="Trazado 878616" d="M431.3,193.239c-.088.182.322,1,.88,1.517.647.6,1.465.878,1.475.759,0,0,.033-.409.033-.414a9.974,9.974,0,0,0-.777-3.776A4.989,4.989,0,0,0,431.3,193.239Z" transform="translate(-366.084 -33.096)" fill="#ffb6c6" fill-rule="evenodd"/>
        <path id="Trazado_878617" data-name="Trazado 878617" d="M444.067,191.606a10.346,10.346,0,0,1,.652,3.495s-.015.191-.025.313c.275.122.472.159.477.1,0,0,.033-.409.033-.414a9.975,9.975,0,0,0-.777-3.776C444.315,191.4,444.194,191.5,444.067,191.606Z" transform="translate(-377.6 -33.096)" fill="#f7c7d2" fill-rule="evenodd"/>
        <path id="Trazado_878618" data-name="Trazado 878618" d="M279.125,216.475l1.289.677a9.525,9.525,0,0,1,1.29,7.255,3.559,3.559,0,0,1-2.521,2.71,8.042,8.042,0,0,1-.713-.716,4.318,4.318,0,0,0,2.2-2c.625-1.263.708-3.135-.494-5.841Q279.668,217.424,279.125,216.475Z" transform="translate(-228.369 -55.76)" fill="#f0f0f0" fill-rule="evenodd"/>
        <path id="Trazado_878619" data-name="Trazado 878619" d="M284.5,191.351l-.022-.016a8.378,8.378,0,0,0-.642,2.269q.415.71.811,1.523c.724.038,1.548-1.662,1.41-1.941A4.986,4.986,0,0,0,284.5,191.351Z" transform="translate(-233.207 -33.105)" fill="#ffb6c6" fill-rule="evenodd"/>
        <path id="Trazado_878620" data-name="Trazado 878620" d="M284.158,194.169c.007-.095.015-.177.022-.224a8.377,8.377,0,0,1,.642-2.269l.029-.051c-.122-.105-.239-.2-.348-.274l-.022-.016a8.376,8.376,0,0,0-.642,2.269Q284,193.879,284.158,194.169Z" transform="translate(-233.207 -33.105)" fill="#f7c7d2" fill-rule="evenodd"/>
      </g>
    </g>
  </g>
</svg>
