<svg xmlns="http://www.w3.org/2000/svg" width="73.054" height="73.053" viewBox="0 0 73.054 73.053">
  <g id="Grupo_1189484" data-name="Grupo 1189484" transform="translate(-871.113 -277.164)">
    <g id="Grupo_1188789" data-name="Grupo 1188789" transform="translate(871.113 277.164)">
      <rect id="Rectángulo_400898" data-name="Rectángulo 400898" width="60.477" height="60.477" rx="30.238" transform="translate(6.492 6.5)" fill="#26dbd2"/>
      <rect id="Rectángulo_400907" data-name="Rectángulo 400907" width="65.491" height="65.49" rx="32.745" transform="translate(3.783 3.781)" fill="none"/>
      <g id="Grupo_1098742" data-name="Grupo 1098742" transform="translate(0)">
        <g id="Rectángulo_400898-2" data-name="Rectángulo 400898" transform="translate(0)" fill="none" stroke="#fff" stroke-width="2" opacity="0.859">
          <rect width="73.054" height="73.053" rx="36.527" stroke="none"/>
          <rect x="1" y="1" width="71.054" height="71.053" rx="35.527" fill="none"/>
        </g>
        <g id="Rectángulo_400907-2" data-name="Rectángulo 400907" transform="translate(0)" fill="none" stroke="#0f1f33" stroke-linecap="round" stroke-width="2">
          <rect width="73.054" height="73.053" rx="36.527" stroke="none"/>
          <rect x="1" y="1" width="71.054" height="71.053" rx="35.527" fill="none"/>
        </g>
      </g>
      <g id="Layer_1" transform="translate(12.006 14.285)">
        <g id="Grupo_1189494" data-name="Grupo 1189494" transform="translate(5.004 2.284)">
          <g id="Grupo_1189488" data-name="Grupo 1189488" transform="translate(0 0)">
            <path id="Trazado_878553" data-name="Trazado 878553" d="M70.7,9.832v14.46a11.621,11.621,0,0,1-1.989,6.5c-.211.317-.5.693-.689.919A1.329,1.329,0,0,0,66.554,32l-3.423,3.423h0l-2.588,1.555L58.03,38.483a1.941,1.941,0,0,1-2,0l-2.512-1.509-2.588-1.555c-2.843-2.84-2.181-2.179-3.424-3.423a1.329,1.329,0,0,0-1.463-.281,10.838,10.838,0,0,1-.689-.92,11.616,11.616,0,0,1-1.989-6.5V9.832a1.923,1.923,0,0,1,1.306-1.8,3.894,3.894,0,0,0,2.346-2.347,1.922,1.922,0,0,1,1.8-1.3H65.244a1.923,1.923,0,0,1,1.8,1.306,3.892,3.892,0,0,0,2.346,2.346,1.923,1.923,0,0,1,1.306,1.8Z" transform="translate(-37.515 -4.38)" fill="#72c2e9"/>
            <path id="Trazado_878554" data-name="Trazado 878554" d="M63.854,172.526l-2.588-1.555c-2.843-2.84-2.181-2.179-3.424-3.423a1.329,1.329,0,0,0-1.463-.281,10.84,10.84,0,0,1-.689-.92,2.464,2.464,0,0,1,2.951.4c1.166,1.167,2.812,2.812,3.9,3.9A6.56,6.56,0,0,1,63.854,172.526Z" transform="translate(-47.846 -139.933)" fill="#4ba5c8"/>
            <path id="Trazado_878555" data-name="Trazado 878555" d="M157.9,166.346c-.211.317-.5.693-.689.919a1.329,1.329,0,0,0-1.463.281l-3.423,3.423h0l-2.588,1.555a6.585,6.585,0,0,1,1.311-1.876l3.9-3.9A2.457,2.457,0,0,1,157.9,166.346Z" transform="translate(-126.712 -139.93)" fill="#4ba5c8"/>
            <path id="Trazado_878556" data-name="Trazado 878556" d="M82.588,25.459a.575.575,0,0,1,.3.507V39.394a8.778,8.778,0,0,1-3.513,6.995c-.469.351-.227.187-6.256,3.808a1.926,1.926,0,0,1-1.974,0l-5.537-3.325a8.623,8.623,0,0,1-.719-.483,8.778,8.778,0,0,1-3.513-6.995V25.966a.575.575,0,0,1,.3-.507,6.825,6.825,0,0,0,2.772-2.772.575.575,0,0,1,.507-.3H79.309a.575.575,0,0,1,.507.3,6.827,6.827,0,0,0,2.772,2.772Z" transform="translate(-52.613 -19.481)" fill="#efefef"/>
            <g id="Grupo_1189486" data-name="Grupo 1189486" transform="translate(0 21.762)">
              <path id="Trazado_878557" data-name="Trazado 878557" d="M22.592,152.973h0v4.359H15.45v-.613a1.427,1.427,0,0,0-.415-1L7.621,148.3a1.6,1.6,0,0,1-.47-1.13L7.1,140.639a1.459,1.459,0,1,1,2.917,0l.05,4.733a1.248,1.248,0,0,0,.368.883l4.549,4.551a1.51,1.51,0,0,0,2.081.052,1.464,1.464,0,0,0,.019-2.084l-1.847-1.845a1.327,1.327,0,1,1,1.858-1.9c1.243,1.243.581.583,3.424,3.423.149.15.308.308.478.478a5.456,5.456,0,0,1,1.593,4.039Z" transform="translate(-7.1 -139.18)" fill="#ffb69f"/>
              <g id="Grupo_1189485" data-name="Grupo 1189485" transform="translate(23.541)">
                <path id="Trazado_878558" data-name="Trazado 878558" d="M166.958,139.18a1.459,1.459,0,0,0-1.459,1.459l-.05,4.733a1.248,1.248,0,0,1-.368.883l-4.549,4.551a1.51,1.51,0,0,1-2.081.052,1.464,1.464,0,0,1-.019-2.084l1.847-1.845a1.327,1.327,0,1,0-1.858-1.9L155,148.456h0c-.149.15-.308.308-.478.478a5.456,5.456,0,0,0-1.593,4.039h0v4.359h7.144v-.613a1.427,1.427,0,0,1,.415-1l7.413-7.413a1.6,1.6,0,0,0,.47-1.13l.052-6.532A1.459,1.459,0,0,0,166.958,139.18Z" transform="translate(-152.921 -139.18)" fill="#ffb69f"/>
              </g>
            </g>
            <g id="Grupo_1189487" data-name="Grupo 1189487" transform="translate(11.684 9.176)">
              <path id="Trazado_878559" data-name="Trazado 878559" d="M95.528,95.625a4.744,4.744,0,0,1-1.839,2A2.67,2.67,0,0,0,95,102.622h6.182a2.669,2.669,0,0,0,1.309-4.995,4.744,4.744,0,0,1-1.838-2.007A2.86,2.86,0,0,0,95.528,95.625Z" transform="translate(-90.258 -88.733)" fill="#fc5d3d"/>
              <ellipse id="Elipse_11564" data-name="Elipse 11564" cx="1.214" cy="1.891" rx="1.214" ry="1.891" transform="translate(0 4.047) rotate(-18.308)" fill="#fc5d3d"/>
              <ellipse id="Elipse_11565" data-name="Elipse 11565" cx="1.891" cy="1.214" rx="1.891" ry="1.214" transform="translate(12.155 6.879) rotate(-71.692)" fill="#fc5d3d"/>
              <ellipse id="Elipse_11566" data-name="Elipse 11566" cx="1.295" cy="1.891" rx="1.295" ry="1.891" transform="translate(3.963 0.543) rotate(-11.771)" fill="#fc5d3d"/>
              <ellipse id="Elipse_11567" data-name="Elipse 11567" cx="1.891" cy="1.295" rx="1.891" ry="1.295" transform="translate(8.39 3.703) rotate(-78.229)" fill="#fc5d3d"/>
            </g>
          </g>
          <g id="Grupo_1189491" data-name="Grupo 1189491" transform="translate(0 11.246)">
            <g id="Grupo_1189489" data-name="Grupo 1189489" transform="translate(34.838)">
              <path id="Trazado_878560" data-name="Trazado 878560" d="M226.8,76.054c-.6-.2-1.072-.326-1.387-1.682a.43.43,0,0,0-.836,0c-.308,1.326-.737,1.468-1.387,1.683a.43.43,0,0,0,0,.815c1.079.357,1.2.884,1.387,1.682a.429.429,0,0,0,.837,0c.308-1.326.76-1.475,1.387-1.682A.43.43,0,0,0,226.8,76.054Z" transform="translate(-222.897 -74.04)"/>
              <path id="Trazado_878561" data-name="Trazado 878561" d="M233.156,85.263a2.128,2.128,0,0,0-.634.717,2.226,2.226,0,0,0-.673-.71,2.12,2.12,0,0,0,.665-.749A2.2,2.2,0,0,0,233.156,85.263Z" transform="translate(-230.403 -82.828)" fill="#f0c020"/>
            </g>
            <g id="Grupo_1189490" data-name="Grupo 1189490">
              <path id="Trazado_878562" data-name="Trazado 878562" d="M11,76.054c-.6-.2-1.072-.326-1.387-1.682a.43.43,0,0,0-.836,0c-.308,1.326-.737,1.468-1.387,1.683a.43.43,0,0,0,0,.815c1.079.357,1.2.884,1.387,1.682a.429.429,0,0,0,.837,0c.308-1.326.76-1.475,1.387-1.682A.43.43,0,0,0,11,76.054Z" transform="translate(-7.101 -74.04)"/>
              <path id="Trazado_878563" data-name="Trazado 878563" d="M17.36,85.263a2.129,2.129,0,0,0-.634.717,2.225,2.225,0,0,0-.673-.71,2.12,2.12,0,0,0,.665-.749A2.2,2.2,0,0,0,17.36,85.263Z" transform="translate(-14.607 -82.828)" fill="#f0c020"/>
            </g>
          </g>
          <g id="Grupo_1189492" data-name="Grupo 1189492" transform="translate(19.114 6.848)">
            <path id="Trazado_878564" data-name="Trazado 878564" d="M125.557,69.2a.4.4,0,0,1,.138-.554l.415-.249a.4.4,0,1,1,.415.692l-.415.249a.4.4,0,0,1-.554-.138Zm1.8-1.079a.4.4,0,0,1,.138-.554c4.136-2.481,3.956-2.368,4.25-2.59a6.422,6.422,0,0,0,2.573-5.118V47.2a.4.4,0,1,1,.807,0V59.864a7.232,7.232,0,0,1-2.936,5.794c-.286.215-.229.177-4.28,2.606a.4.4,0,0,1-.554-.139Z" transform="translate(-125.499 -46.798)" fill="#fff"/>
          </g>
          <g id="Grupo_1189493" data-name="Grupo 1189493" transform="translate(14.97 16.398)">
            <path id="Trazado_878565" data-name="Trazado 878565" d="M107.468,111.408h-.484a.4.4,0,0,1,0-.807h.484a.4.4,0,0,1,0,.807Zm-2.1,0h-4.083a1.459,1.459,0,0,1-.7-2.739,5.99,5.99,0,0,0,2.3-2.5.4.4,0,1,1,.719.367A6.782,6.782,0,0,1,101,109.365a.652.652,0,0,0,.289,1.236h4.083a.4.4,0,0,1,0,.807Z" transform="translate(-99.829 -105.952)" fill="#ffcbc3"/>
          </g>
          <path id="Trazado_878566" data-name="Trazado 878566" d="M210.534,103.27a.4.4,0,1,0,.4.4A.4.4,0,0,0,210.534,103.27Z" transform="translate(-177.353 -87.305)"/>
          <path id="Trazado_878567" data-name="Trazado 878567" d="M92.923,100.936H99.1a3.075,3.075,0,0,0,1.514-5.746,4.342,4.342,0,0,1-1.683-1.843,3.264,3.264,0,0,0-5.846,0,4.34,4.34,0,0,1-1.684,1.84A3.076,3.076,0,0,0,92.923,100.936Zm.886-7.218a2.457,2.457,0,0,1,4.408,0,5.124,5.124,0,0,0,1.992,2.172,2.267,2.267,0,0,1-1.1,4.244H92.923a2.267,2.267,0,0,1-1.108-4.241,5.125,5.125,0,0,0,1.994-2.169Z" transform="translate(-76.496 -77.467)"/>
          <path id="Trazado_878568" data-name="Trazado 878568" d="M80.8,81.234c-.949.314-1.175,1.6-.814,2.687.349,1.055,1.286,1.992,2.257,1.67.949-.314,1.175-1.6.814-2.687C82.66,81.7,81.67,80.946,80.8,81.234Zm1.189,3.59c-.385.127-.975-.368-1.237-1.158s-.083-1.539.3-1.667.977.374,1.237,1.158S82.376,84.7,81.991,84.824Z" transform="translate(-68.084 -68.775)"/>
          <path id="Trazado_878569" data-name="Trazado 878569" d="M156.1,85.591c.949.314,1.9-.581,2.257-1.67.4-1.2.058-2.4-.814-2.687s-1.856.459-2.257,1.67S155.231,85.3,156.1,85.591Zm-.048-2.433c.258-.778.845-1.286,1.237-1.158s.563.877.3,1.667-.848,1.286-1.237,1.158S155.793,83.948,156.055,83.158Z" transform="translate(-131.227 -68.776)"/>
          <path id="Trazado_878570" data-name="Trazado 878570" d="M105.76,64.8c.926-.193,1.455-1.341,1.194-2.593s-1.2-2.094-2.132-1.9-1.455,1.34-1.194,2.593C103.88,64.106,104.8,65,105.76,64.8Zm-.773-3.7c.458-.1,1.01.475,1.177,1.274s-.114,1.543-.569,1.638-1.008-.467-1.176-1.274S104.532,61.191,104.987,61.1Z" transform="translate(-87.989 -51.254)"/>
          <path id="Trazado_878571" data-name="Trazado 878571" d="M132.274,64.8c.935.194,1.873-.657,2.132-1.9s-.262-2.4-1.194-2.593-1.87.647-2.132,1.9S131.338,64.6,132.274,64.8Zm-.4-2.428c.166-.794.716-1.37,1.177-1.274s.736.835.568,1.638-.719,1.369-1.177,1.274S131.7,63.177,131.871,62.371Z" transform="translate(-111.01 -51.255)"/>
          <path id="Trazado_878572" data-name="Trazado 878572" d="M58.876,37.3a9.183,9.183,0,0,0,3.673,7.317h0c.238.178.491.348.753.506l5.538,3.326a2.331,2.331,0,0,0,2.388,0c6.028-3.62,5.8-3.464,6.29-3.83A9.18,9.18,0,0,0,81.194,37.3V23.87a.976.976,0,0,0-.511-.863A6.4,6.4,0,0,1,78.075,20.4a.976.976,0,0,0-.863-.511H62.857a.976.976,0,0,0-.863.511,6.394,6.394,0,0,1-2.608,2.608.976.976,0,0,0-.511.863s0,.005,0,.008v2.485a.4.4,0,1,0,.806,0V23.877s0-.005,0-.008a.172.172,0,0,1,.086-.152A7.2,7.2,0,0,0,62.7,20.782a.171.171,0,0,1,.152-.086H77.212a.17.17,0,0,1,.152.086A7.2,7.2,0,0,0,80.3,23.718a.172.172,0,0,1,.086.152V37.3a8.37,8.37,0,0,1-3.351,6.672c-.438.328-.15.139-6.221,3.784a1.523,1.523,0,0,1-1.559,0l-5.537-3.325a8.2,8.2,0,0,1-.684-.459h0l0,0A8.364,8.364,0,0,1,59.681,37.3V29.591a.4.4,0,1,0-.806,0V37.3Z" transform="translate(-50.516 -17.384)"/>
          <path id="Trazado_878573" data-name="Trazado 878573" d="M59.282,68.3a.4.4,0,1,0-.4-.4A.4.4,0,0,0,59.282,68.3Z" transform="translate(-50.521 -57.302)"/>
        </g>
        <g id="Grupo_1189495" data-name="Grupo 1189495" transform="translate(4.6 1.88)">
          <path id="Trazado_878574" data-name="Trazado 878574" d="M44.443,25.505a1.862,1.862,0,0,0-3.724,0l-.05,4.738a.841.841,0,0,1-.25.6L35.87,35.387a1.113,1.113,0,0,1-1.515.047,1.06,1.06,0,0,1-.015-1.509l1.847-1.845a1.743,1.743,0,0,0-.084-2.562A11.988,11.988,0,0,0,38.588,22.2V20.265a.4.4,0,0,0-.807,0V22.2a11.189,11.189,0,0,1-2.415,6.955,1.72,1.72,0,0,0-1.608.463L30.373,33,25.311,36.04a1.532,1.532,0,0,1-1.58,0L18.674,33c-2.363-2.36-2.038-2.036-3.389-3.387a1.721,1.721,0,0,0-1.6-.464A11.17,11.17,0,0,1,11.262,22.2V7.735A1.517,1.517,0,0,1,12.3,6.315a4.293,4.293,0,0,0,2.59-2.591A1.517,1.517,0,0,1,16.31,2.687H32.732a1.513,1.513,0,0,1,1.419,1.038,4.3,4.3,0,0,0,2.591,2.59A1.519,1.519,0,0,1,37.78,7.735v9.3a.4.4,0,1,0,.807,0v-9.3a2.325,2.325,0,0,0-1.574-2.179,3.52,3.52,0,0,1-2.1-2.1A2.325,2.325,0,0,0,32.732,1.88H16.311a2.322,2.322,0,0,0-2.179,1.572,3.513,3.513,0,0,1-2.1,2.1,2.324,2.324,0,0,0-1.574,2.179V22.2a11.982,11.982,0,0,0,2.487,7.322,1.742,1.742,0,0,0-.086,2.563L14.7,33.924a1.06,1.06,0,0,1-.014,1.511,1.112,1.112,0,0,1-1.514-.047l-4.55-4.551a.844.844,0,0,1-.25-.6l-.05-4.729a1.862,1.862,0,1,0-3.724,0l.052,6.529a2.016,2.016,0,0,0,.588,1.416l7.412,7.412a1.029,1.029,0,0,1,.3.72V42.2a.4.4,0,1,0,.807,0v-.613a1.842,1.842,0,0,0-.533-1.29L5.81,32.882a1.2,1.2,0,0,1-.352-.848l-.052-6.529a1.055,1.055,0,1,1,2.11,0l.05,4.729a1.642,1.642,0,0,0,.486,1.168l4.55,4.551a1.918,1.918,0,0,0,2.647.056,1.867,1.867,0,0,0,.024-2.66l-1.847-1.845a.924.924,0,1,1,1.287-1.325c1.752,1.752,3.741,3.739,3.9,3.9a5.071,5.071,0,0,1,1.476,3.74s0,.049,0,4.372a.4.4,0,0,0,.807,0V37.839c0-.008,0-.016,0-.024a5.882,5.882,0,0,0-.718-2.966l3.134,1.883a2.338,2.338,0,0,0,2.411,0l3.134-1.883a5.912,5.912,0,0,0-.718,2.99V42.2a.4.4,0,0,0,.807,0c0-4.47,0-4.372,0-4.372a5.07,5.07,0,0,1,1.476-3.741c.777-.775,3.125-3.123,3.9-3.9a.924.924,0,1,1,1.287,1.324l-1.848,1.847a1.866,1.866,0,0,0,.025,2.658,1.918,1.918,0,0,0,2.648-.056l4.549-4.551a1.64,1.64,0,0,0,.486-1.164l.05-4.738a1.055,1.055,0,0,1,2.11,0l-.052,6.535a1.2,1.2,0,0,1-.35.843l0,0-2.846,2.848a.4.4,0,0,0,0,.57.4.4,0,0,0,.57,0L43.8,33.453l.006-.007a2.014,2.014,0,0,0,.582-1.406Z" transform="translate(-4.6 -1.88)"/>
          <path id="Trazado_878575" data-name="Trazado 878575" d="M198.408,222.972a.411.411,0,0,0-.57,0l-2.627,2.625-.007.009a1.841,1.841,0,0,0-.525,1.281v.613a.4.4,0,1,0,.807,0v-.613a1.03,1.03,0,0,1,.294-.716l0,0,2.625-2.626A.4.4,0,0,0,198.408,222.972Z" transform="translate(-163.993 -187.183)"/>
          <path id="Trazado_878576" data-name="Trazado 878576" d="M220.7,215.9a.4.4,0,0,0,0,.57.4.4,0,0,0,.57-.57A.41.41,0,0,0,220.7,215.9Z" transform="translate(-185.711 -181.254)"/>
        </g>
      </g>
    </g>
  </g>
</svg>
