<svg xmlns="http://www.w3.org/2000/svg" width="190" height="162" viewBox="0 0 190 162">
  <g id="Grupo_1189218" data-name="Grupo 1189218" transform="translate(-180.057 -2051)">
    <rect id="Rectángulo_402775" data-name="Rectángulo 402775" width="190" height="162" rx="10" transform="translate(180.057 2051)" fill="#26dbd2"/>
    <g id="Grupo_1189217" data-name="Grupo 1189217" transform="translate(180.669 2074)">
      <g id="Grupo_1189215" data-name="Grupo 1189215" transform="translate(49.588 3.292)">
        <path id="Trazado_878035" data-name="Trazado 878035" d="M124.464,333.794c-13.99,27.457-38.717,8.011-38.717,8.011,1.74,9.714,11.488,17.81,24.766,21.333l29.3.128c13.528-3.455,23.492-11.63,25.253-21.464C134.757,361.555,124.464,333.794,124.464,333.794Z" transform="translate(-79.197 -260.948)" fill="#ffbe90"/>
        <path id="Trazado_878036" data-name="Trazado 878036" d="M222.934,347.347v10.935a13.654,13.654,0,0,1-27.307,0v-10.8a17.935,17.935,0,0,0,13.728-13.687,21.445,21.445,0,0,0,13.58,13.553" transform="translate(-164.014 -260.948)" fill="#f1c6dd"/>
        <path id="Trazado_878037" data-name="Trazado 878037" d="M136.509,17.852a6.967,6.967,0,0,0-11.994,0l-5.931,9.292H85.9l-5.931-9.292a6.967,6.967,0,0,0-11.994,0s-17.729,29.7-8.047,68.217c0,0,2.591,15.776,19.9,15.925,20.258.174,23.285-14.718,23.285-14.718s4.253,14.718,21.646,14.718c8.218,0,20.394-5.512,21.547-15.972,5.542-50.3-9.8-68.169-9.8-68.169Z" transform="translate(-57.032 -14.431)" fill="#ffd4b5"/>
        <path id="Trazado_878038" data-name="Trazado 878038" d="M219.283,255.236l-4.075-7.273a5.429,5.429,0,0,1,4.562-8.141h8.15a5.429,5.429,0,0,1,4.562,8.141l-4.075,7.273A5.191,5.191,0,0,1,219.283,255.236Z" transform="translate(-178.577 -188.411)" fill="#a0c8ff"/>
      </g>
      <g id="Grupo_1189216" data-name="Grupo 1189216" transform="translate(47.388 0)">
        <circle id="Elipse_11549" data-name="Elipse 11549" cx="2.281" cy="2.281" r="2.281" transform="translate(15.074 71.519)"/>
        <circle id="Elipse_11550" data-name="Elipse 11550" cx="2.281" cy="2.281" r="2.281" transform="translate(27.211 71.519)"/>
        <circle id="Elipse_11551" data-name="Elipse 11551" cx="2.281" cy="2.281" r="2.281" transform="translate(21.085 79.796)"/>
        <circle id="Elipse_11552" data-name="Elipse 11552" cx="2.281" cy="2.281" r="2.281" transform="translate(63.16 71.519)"/>
        <circle id="Elipse_11553" data-name="Elipse 11553" cx="2.281" cy="2.281" r="2.281" transform="translate(75.297 71.519)"/>
        <circle id="Elipse_11554" data-name="Elipse 11554" cx="2.281" cy="2.281" r="2.281" transform="translate(69.171 79.796)"/>
        <path id="Trazado_878039" data-name="Trazado 878039" d="M104.563,150.337a10.6,10.6,0,0,0-10.592,10.592,2.281,2.281,0,1,0,4.562,0,6.03,6.03,0,0,1,12.059,0,2.281,2.281,0,1,0,4.562,0A10.6,10.6,0,0,0,104.563,150.337Z" transform="translate(-83.346 -116.046)"/>
        <path id="Trazado_878040" data-name="Trazado 878040" d="M343.033,163.21a2.281,2.281,0,0,0,2.281-2.281,10.592,10.592,0,0,0-21.183,0,2.281,2.281,0,1,0,4.562,0,6.03,6.03,0,0,1,12.059,0A2.281,2.281,0,0,0,343.033,163.21Z" transform="translate(-261.007 -116.046)"/>
        <path id="Trazado_878041" data-name="Trazado 878041" d="M325.316,18.631c-2.851-8.685-6.1-13.31-6.728-14.152a9.216,9.216,0,0,0-15.888.129l-5.281,9.147h-4.827a2.281,2.281,0,1,0,0,4.562h6.144a2.281,2.281,0,0,0,1.975-1.14l5.939-10.287a4.654,4.654,0,0,1,8.062,0c.051.088,3.508,4.638,6.356,13.434,4.773,14.738,4.629,30.439,3.667,41.015a2.281,2.281,0,1,0,4.543.413c1.827-20.092-1.147-34.539-3.964-43.12Z" transform="translate(-234.902 0)"/>
        <path id="Trazado_878042" data-name="Trazado 878042" d="M50.422,63.816a2.281,2.281,0,0,0,2.065-2.478c-1.742-19.161,1.033-32.88,3.667-41.015,2.848-8.8,6.3-13.342,6.356-13.434a4.655,4.655,0,0,1,8.062,0l5.939,10.287a2.281,2.281,0,0,0,1.975,1.14H84.63a2.281,2.281,0,1,0,0-4.562H79.8L74.523,4.608a9.217,9.217,0,0,0-15.888-.129c-.625.842-3.877,5.466-6.728,14.152-5.1,15.546-4.972,32.03-3.964,43.12A2.3,2.3,0,0,0,50.422,63.816Z" transform="translate(-47.388 0)"/>
        <circle id="Elipse_11555" data-name="Elipse 11555" cx="2.281" cy="2.281" r="2.281" transform="translate(45.186 13.724)"/>
        <path id="Trazado_878043" data-name="Trazado 878043" d="M148.708,252.236a2.281,2.281,0,0,0-4.551-.218q-.234,1.216-.511,2.383a15.377,15.377,0,0,1-5.442,7.531,21.345,21.345,0,0,1-12.981,4.216,22.4,22.4,0,0,1-7.343-1.214A19.106,19.106,0,0,1,110.113,260a15.879,15.879,0,0,1-1.466-1.818,13.674,13.674,0,0,1-2.37-6.286,7.555,7.555,0,0,0,4.255-3.45l4.142-7.174a7.635,7.635,0,0,0-6.612-11.452H99.778a7.635,7.635,0,0,0-6.612,11.452l4.142,7.174a7.555,7.555,0,0,0,4.255,3.45,13.985,13.985,0,0,1-3.842,8.107,20.572,20.572,0,0,1-15.107,6.142,21.359,21.359,0,0,1-12.965-4.2,15.4,15.4,0,0,1-5.438-7.475q-.305-1.274-.558-2.606a2.281,2.281,0,0,0-4.507.687,17.587,17.587,0,0,0,.677,3.173c4.874,19.946,18.387,27.794,29.436,28.539a15.936,15.936,0,0,0,29.325,0c11.058-.748,24.594-8.619,29.451-28.618A28.188,28.188,0,0,0,148.708,252.236ZM97.116,238.993a3.073,3.073,0,0,1,2.661-4.609h8.284a3.073,3.073,0,0,1,2.661,4.609l-4.142,7.174a3.073,3.073,0,0,1-5.322,0Zm-21.738,34.9a29.3,29.3,0,0,1-5.827-6.556,26.485,26.485,0,0,0,13.062,3.372,27.65,27.65,0,0,0,5.372-.524v7.839c0,.516.027,1.025.075,1.528A25.708,25.708,0,0,1,75.378,273.894Zm28.542,15.5a11.385,11.385,0,0,1-11.373-11.371v-9.18a23.369,23.369,0,0,0,8.51-5.727c.2-.215.393-.434.583-.655V275.14a2.281,2.281,0,1,0,4.562,0V262.469c.189.219.38.436.578.648a23.453,23.453,0,0,0,8.514,5.72v9.188A11.361,11.361,0,0,1,103.92,289.4Zm28.551-15.51a25.714,25.714,0,0,1-12.691,5.667c.048-.506.075-1.016.075-1.528v-7.844a27.4,27.4,0,0,0,5.367.529,26.471,26.471,0,0,0,13.07-3.378A29.309,29.309,0,0,1,132.471,273.886Z" transform="translate(-56.453 -177.4)"/>
      </g>
    </g>
  </g>
</svg>
