<svg xmlns="http://www.w3.org/2000/svg" width="73.054" height="73.053" viewBox="0 0 73.054 73.053">
  <g id="Grupo_1189522" data-name="Grupo 1189522" transform="translate(-871.113 -277.164)">
    <g id="Grupo_1188789" data-name="Grupo 1188789" transform="translate(871.113 277.164)">
      <rect id="Rectángulo_400898" data-name="Rectángulo 400898" width="60.477" height="60.477" rx="30.238" transform="translate(6.492 6.026)" fill="#26dbd2"/>
      <rect id="Rectángulo_400907" data-name="Rectángulo 400907" width="65.491" height="65.49" rx="32.745" transform="translate(3.783 3.781)" fill="none"/>
      <g id="Grupo_1098742" data-name="Grupo 1098742" transform="translate(0)">
        <g id="Rectángulo_400898-2" data-name="Rectángulo 400898" transform="translate(0)" fill="none" stroke="#fff" stroke-width="2" opacity="0.859">
          <rect width="73.054" height="73.053" rx="36.527" stroke="none"/>
          <rect x="1" y="1" width="71.054" height="71.053" rx="35.527" fill="none"/>
        </g>
        <g id="Rectángulo_400907-2" data-name="Rectángulo 400907" transform="translate(0)" fill="none" stroke="#0f1f33" stroke-linecap="round" stroke-width="2">
          <rect width="73.054" height="73.053" rx="36.527" stroke="none"/>
          <rect x="1" y="1" width="71.054" height="71.053" rx="35.527" fill="none"/>
        </g>
      </g>
      <g id="Grupo_1189526" data-name="Grupo 1189526" transform="translate(19.494 16.046)">
        <g id="Grupo_1189530" data-name="Grupo 1189530" transform="translate(0.492 4.475)">
          <g id="Grupo_1189529" data-name="Grupo 1189529" transform="translate(0 0)">
            <g id="Grupo_1189526-2" data-name="Grupo 1189526">
              <path id="Trazado_878651" data-name="Trazado 878651" d="M96.743,62.248a.965.965,0,0,1-.187.514.936.936,0,0,1-1.038.336,5.562,5.562,0,0,0-2.824-.126c-.489.127-.955.289-1.406.444a14.331,14.331,0,0,1-1.941.568c-4.493.891-9.051-3.4-9.937-6.727a8.97,8.97,0,0,1,.748-6.737c.647-1.507,1.207-2.81.773-4.605a7.608,7.608,0,0,0-2.521-3.809.638.638,0,0,0-.19-.11c-2.593-1.359-4.806-5.314-1.732-8.665a5.18,5.18,0,0,1,2.649,1.186A4.982,4.982,0,0,1,80.975,38.2a.647.647,0,0,0,.234.488,12.045,12.045,0,0,1,4,6.114,8.985,8.985,0,0,1-.748,6.742c-.647,1.51-1.206,2.814-.773,4.6l.02.078a5.537,5.537,0,0,0,5.477,4.613,8.912,8.912,0,0,0,1.642-.182,9.275,9.275,0,0,1,2.152-.194,7.854,7.854,0,0,1,3.253.893.932.932,0,0,1,.511.9Z" transform="translate(-70.547 -31.892)" fill="#fdc072"/>
              <path id="Trazado_878652" data-name="Trazado 878652" d="M15.173,21.585a.634.634,0,0,0-.34-.032A4.967,4.967,0,0,1,10.813,20.4a5.182,5.182,0,0,1-1.628-2.4l-.04-.034-1.3-.713a.659.659,0,0,1-.1-1.092l.47-.377a1.317,1.317,0,0,0,.441-1.4L8.489,13.8a.659.659,0,0,1,.7-.84l.6.067a1.318,1.318,0,0,0,1.3-.677l.289-.528a.659.659,0,0,1,1.092-.1l.927,1.159.04.034c-1.619,3.406.269,7.349,1.732,8.665Z" transform="translate(-7.5 -11.481)" fill="#fab658"/>
            </g>
            <g id="Grupo_1189528" data-name="Grupo 1189528" transform="translate(6.537 0)">
              <g id="Grupo_1189527" data-name="Grupo 1189527">
                <path id="Trazado_878653" data-name="Trazado 878653" d="M131.3,100.928l-.04.034a5.182,5.182,0,0,1-1.628,2.4,4.967,4.967,0,0,1-4.021,1.158.648.648,0,0,0-.53.142,7.608,7.608,0,0,0-2.521,3.809c-.435,1.8.125,3.1.773,4.605a8.97,8.97,0,0,1,.748,6.737c-.886,3.33-5.443,7.618-9.937,6.727a14.33,14.33,0,0,1-1.941-.568c-.451-.155-.916-.317-1.406-.444a5.562,5.562,0,0,0-2.824.126.97.97,0,0,1-.288.044.915.915,0,0,1-.317-.056.953.953,0,0,1-.62-.839.932.932,0,0,1,.511-.9,7.854,7.854,0,0,1,3.253-.892,9.275,9.275,0,0,1,2.152.194,8.912,8.912,0,0,0,1.642.182,5.537,5.537,0,0,0,5.477-4.613l.02-.078c.433-1.788-.125-3.092-.773-4.6-.15-.349-.3-.707-.447-1.081a11.623,11.623,0,0,1,2.213-8.855c5.318-5.98,10.5-3.236,10.5-3.236Z" transform="translate(-106.748 -94.449)" fill="#ffd9a0"/>
                <path id="Trazado_878654" data-name="Trazado 878654" d="M291.03,17.247l-1.3.713s-5.031-1.606-10.348,4.374a10.6,10.6,0,0,0-2.368,7.717,8.237,8.237,0,0,1-.3-5.661,12.045,12.045,0,0,1,4-6.114.647.647,0,0,0,.234-.488,4.982,4.982,0,0,1,1.838-3.682,5.18,5.18,0,0,1,2.649-1.186l.04-.034.927-1.159a.659.659,0,0,1,1.092.1l.289.528a1.318,1.318,0,0,0,1.3.677l.6-.067a.659.659,0,0,1,.7.84l-.169.578a1.317,1.317,0,0,0,.441,1.4l.47.377A.659.659,0,0,1,291.03,17.247Z" transform="translate(-265.173 -11.481)" fill="#fdcb89"/>
              </g>
            </g>
          </g>
        </g>
        <g id="Grupo_1189531" data-name="Grupo 1189531" transform="translate(-0.002 3.981)">
          <path id="Trazado_878655" data-name="Trazado 878655" d="M28.446,13.733a4.278,4.278,0,0,1-2.46.329,1.143,1.143,0,0,0-.937.248,8.05,8.05,0,0,0-2.682,4.06l0,.012a7.21,7.21,0,0,0,.8,4.92,8.446,8.446,0,0,1,.726,6.4l0,.012a9.5,9.5,0,0,1-3.437,4.68,7.492,7.492,0,0,1-5.926,1.69,13.869,13.869,0,0,1-1.876-.551l-.023-.008c-.452-.156-.92-.317-1.42-.447l-.021-.005a6.055,6.055,0,0,0-3.074.137.446.446,0,0,1-.29,0,.459.459,0,0,1-.3-.407.438.438,0,0,1,.246-.425,7.093,7.093,0,0,1,4.677-.72.494.494,0,0,0,.158-.975,9.958,9.958,0,0,0-1.239-.134,7.986,7.986,0,0,1-1.533-2.83l0-.012a8.449,8.449,0,0,1,.728-6.4,7.206,7.206,0,0,0,.8-4.916l0-.012a8.048,8.048,0,0,0-2.682-4.06,1.138,1.138,0,0,0-.933-.249,4.5,4.5,0,0,1-3.616-1.05,4.674,4.674,0,0,1-1.474-2.172.494.494,0,0,0-.155-.231.8.8,0,0,0-.12-.088l-1.3-.713a.165.165,0,0,1-.024-.273l.47-.377a1.8,1.8,0,0,0,.606-1.922l-.169-.578a.165.165,0,0,1,.176-.21l.6.067a1.8,1.8,0,0,0,1.788-.931l.289-.529a.165.165,0,0,1,.273-.024l.927,1.159a.745.745,0,0,0,.109.1A.494.494,0,0,0,6.37,6.4,4.672,4.672,0,0,1,8.765,7.478a4.523,4.523,0,0,1,1.662,3.311,1.141,1.141,0,0,0,.413.86,11.632,11.632,0,0,1,3.838,5.861l0,.012a8.843,8.843,0,0,1,.248,1.088.494.494,0,0,0,.976-.156,9.847,9.847,0,0,0-.274-1.2,12.456,12.456,0,0,0-4.159-6.361.154.154,0,0,1-.057-.116A5.448,5.448,0,0,0,9.4,6.722a5.679,5.679,0,0,0-2.717-1.27L5.852,4.413a1.153,1.153,0,0,0-1.911.167l-.289.528a.821.821,0,0,1-.812.423l-.6-.067a1.153,1.153,0,0,0-1.233,1.47l.169.579A.819.819,0,0,1,.9,8.387l-.47.377A1.153,1.153,0,0,0,.6,10.674l1.168.639a5.681,5.681,0,0,0,1.722,2.455,5.5,5.5,0,0,0,4.425,1.266.155.155,0,0,1,.125.035A7.07,7.07,0,0,1,10.4,18.62c.393,1.632-.11,2.8-.749,4.292a9.5,9.5,0,0,0-.768,7.062A8.482,8.482,0,0,0,10.172,32.6a8.4,8.4,0,0,0-2.856.9,1.418,1.418,0,0,0-.776,1.366A1.435,1.435,0,0,0,8.4,36.153a5.074,5.074,0,0,1,2.566-.117c.459.12.9.273,1.335.422l.022.008a14.849,14.849,0,0,0,2.007.586,6.775,6.775,0,0,0,1.319.128,7.347,7.347,0,0,0,1.208-.1,7.321,7.321,0,0,0,1.209.1,6.77,6.77,0,0,0,1.32-.129,14.861,14.861,0,0,0,2.006-.586l.022-.008c.431-.149.877-.3,1.336-.422a5.073,5.073,0,0,1,2.56.115,1.4,1.4,0,0,0,1.242-.185,1.436,1.436,0,0,0,.628-1.109,1.418,1.418,0,0,0-.777-1.361,8.4,8.4,0,0,0-2.857-.9,8.435,8.435,0,0,0,1.292-2.626,9.506,9.506,0,0,0-.77-7.065c-.637-1.483-1.141-2.656-.748-4.288a7.07,7.07,0,0,1,2.36-3.552.157.157,0,0,1,.129-.034,5.2,5.2,0,0,0,3.035-.4.494.494,0,0,0-.4-.9ZM22.9,33.535a7.357,7.357,0,0,1,3.05.838.438.438,0,0,1,.246.425s0,.008,0,.012a.438.438,0,0,1-.2.341.42.42,0,0,1-.373.062l-.014,0a6.05,6.05,0,0,0-3.072-.137l-.021.005c-.5.13-.968.291-1.421.448l-.023.008c-.342.119-.691.24-1.054.346a11.368,11.368,0,0,0,1.03-.7,12.058,12.058,0,0,0,1.765-1.649l.087,0Z" transform="translate(0.002 -3.981)"/>
          <path id="Trazado_878656" data-name="Trazado 878656" d="M217.506,8.763l-.47-.377a.819.819,0,0,1-.275-.873l.169-.579A1.153,1.153,0,0,0,215.7,5.465l-.6.067a.82.82,0,0,1-.813-.423L214,4.58a1.153,1.153,0,0,0-1.911-.167l-.831,1.039a5.68,5.68,0,0,0-2.717,1.27,5.448,5.448,0,0,0-2.014,4.053.155.155,0,0,1-.057.116,12.457,12.457,0,0,0-4.159,6.361,9.52,9.52,0,0,0,.769,7.069c.637,1.486,1.14,2.659.748,4.285l-.02.08a6.435,6.435,0,0,1-1.316,2.657,4.431,4.431,0,0,1-1.412,1.081,5.44,5.44,0,0,1-2.725-3.739l-.02-.079c-.393-1.626.111-2.8.748-4.285a12.922,12.922,0,0,0,1.078-3.415.494.494,0,0,0-.979-.133,11.953,11.953,0,0,1-1.007,3.159,7.212,7.212,0,0,0-.8,4.913l0,.011.018.069a6.878,6.878,0,0,0,2.442,3.9,5.989,5.989,0,0,1-.808.091.494.494,0,0,0,.023.987h.023a5.652,5.652,0,0,0,4.159-1.91,7.422,7.422,0,0,0,1.532-3.069l.018-.07,0-.011a7.212,7.212,0,0,0-.8-4.913,8.462,8.462,0,0,1-.728-6.408l0-.013a11.632,11.632,0,0,1,3.838-5.861,1.142,1.142,0,0,0,.413-.86,4.523,4.523,0,0,1,1.662-3.311A4.673,4.673,0,0,1,211.566,6.4a.494.494,0,0,0,.253-.111.79.79,0,0,0,.109-.1l.927-1.159a.165.165,0,0,1,.273.024l.289.528a1.806,1.806,0,0,0,1.788.931l.6-.066a.165.165,0,0,1,.177.21l-.169.578a1.8,1.8,0,0,0,.606,1.922l.47.377a.165.165,0,0,1-.024.273l-1.3.713a.761.761,0,0,0-.12.088.494.494,0,0,0-.155.231,4.62,4.62,0,0,1-.937,1.648.494.494,0,1,0,.742.652,5.643,5.643,0,0,0,1.078-1.826l1.168-.639a1.153,1.153,0,0,0,.167-1.911Z" transform="translate(-184.214 -3.981)"/>
          <path id="Trazado_878657" data-name="Trazado 878657" d="M424.569,113.7l-.581.487a.494.494,0,0,0,.635.757l.581-.487a.494.494,0,0,0-.635-.757Z" transform="translate(-395.896 -106.368)"/>
          <path id="Trazado_878658" data-name="Trazado 878658" d="M381.163,63.647a.492.492,0,0,0,.317-.116l.581-.487a.494.494,0,0,0-.635-.757l-.581.487a.494.494,0,0,0,.318.872Z" transform="translate(-355.595 -58.339)"/>
          <path id="Trazado_878659" data-name="Trazado 878659" d="M65.448,115.063a.492.492,0,0,1-.317-.116l-.581-.487a.494.494,0,0,1,.635-.757l.581.487a.494.494,0,0,1-.318.872Z" transform="translate(-60.134 -106.368)"/>
          <path id="Trazado_878660" data-name="Trazado 878660" d="M108.591,63.647a.492.492,0,0,1-.317-.116l-.581-.487a.494.494,0,0,1,.635-.757l.581.487a.494.494,0,0,1-.318.872Z" transform="translate(-100.435 -58.339)"/>
        </g>
      </g>
    </g>
  </g>
</svg>
