<svg xmlns="http://www.w3.org/2000/svg" width="73.054" height="73.053" viewBox="0 0 73.054 73.053">
  <g id="Grupo_1189523" data-name="Grupo 1189523" transform="translate(-871.113 -277.164)">
    <g id="Grupo_1188789" data-name="Grupo 1188789" transform="translate(871.113 277.164)">
      <rect id="Rectángulo_400898" data-name="Rectángulo 400898" width="60.477" height="60.477" rx="30.238" transform="translate(6.055 6.026)" fill="#26dbd2"/>
      <rect id="Rectángulo_400907" data-name="Rectángulo 400907" width="65.491" height="65.49" rx="32.745" transform="translate(3.783 3.781)" fill="none"/>
      <g id="Grupo_1098742" data-name="Grupo 1098742" transform="translate(0)">
        <g id="Rectángulo_400898-2" data-name="Rectángulo 400898" transform="translate(0)" fill="none" stroke="#fff" stroke-width="2" opacity="0.859">
          <rect width="73.054" height="73.053" rx="36.527" stroke="none"/>
          <rect x="1" y="1" width="71.054" height="71.053" rx="35.527" fill="none"/>
        </g>
        <g id="Rectángulo_400907-2" data-name="Rectángulo 400907" transform="translate(0)" fill="none" stroke="#0f1f33" stroke-linecap="round" stroke-width="2">
          <rect width="73.054" height="73.053" rx="36.527" stroke="none"/>
          <rect x="1" y="1" width="71.054" height="71.053" rx="35.527" fill="none"/>
        </g>
      </g>
      <g id="Grupo_1189532" data-name="Grupo 1189532" transform="translate(-13.965 17.027)">
        <g id="Grupo_1189539" data-name="Grupo 1189539" transform="translate(34.58 0.56)">
          <g id="Grupo_1189538" data-name="Grupo 1189538" transform="translate(0)">
            <g id="Grupo_1189535" data-name="Grupo 1189535">
              <g id="Grupo_1189532-2" data-name="Grupo 1189532">
                <path id="Trazado_878661" data-name="Trazado 878661" d="M66.53,82.454H42.886a1.371,1.371,0,0,1-1.371-1.371V49.762a1.371,1.371,0,0,1,1.371-1.371H66.53A1.371,1.371,0,0,1,67.9,49.762V81.083A1.371,1.371,0,0,1,66.53,82.454Z" transform="translate(-41.515 -45.337)" fill="#ffc250"/>
                <path id="Trazado_878662" data-name="Trazado 878662" d="M319.615,48.39h-4.589a1.371,1.371,0,0,1,1.371,1.371V81.082a1.371,1.371,0,0,1-1.371,1.371h4.589a1.371,1.371,0,0,0,1.371-1.371V49.761A1.371,1.371,0,0,0,319.615,48.39Z" transform="translate(-294.6 -45.336)" fill="#eab14d"/>
                <path id="Trazado_878663" data-name="Trazado 878663" d="M71.522,107.489v-28.6a.49.49,0,0,1,.49-.49H92.936a.49.49,0,0,1,.49.49v28.6a.49.49,0,0,1-.49.49H72.012A.49.49,0,0,1,71.522,107.489Z" transform="translate(-69.281 -73.103)" fill="#f5f5f5"/>
                <path id="Trazado_878664" data-name="Trazado 878664" d="M301.4,78.4h-4.589a.49.49,0,0,1,.49.49v28.6a.49.49,0,0,1-.49.49H301.4a.49.49,0,0,0,.49-.49v-28.6A.49.49,0,0,0,301.4,78.4Z" transform="translate(-277.75 -73.103)" fill="#eaeaea"/>
                <path id="Trazado_878665" data-name="Trazado 878665" d="M148.144,9.206V8.485a.985.985,0,0,0-.985-.985H143.3a.985.985,0,0,0-.985.985v.722a.4.4,0,0,1-.4.4h-1.6a.967.967,0,0,0-.967.967v2.219h11.774V10.576a.967.967,0,0,0-.967-.967h-1.605a.4.4,0,0,1-.4-.4Z" transform="translate(-132.038 -7.5)" fill="#c2d0da"/>
              </g>
              <g id="Grupo_1189534" data-name="Grupo 1189534" transform="translate(5.092 8.069)">
                <g id="Grupo_1189533" data-name="Grupo 1189533">
                  <path id="Trazado_878666" data-name="Trazado 878666" d="M109.694,120.73v-4.316a.866.866,0,0,1,.866-.866h4.316a.866.866,0,0,1,.866.866v4.316a.866.866,0,0,1-.866.866H110.56A.866.866,0,0,1,109.694,120.73Z" transform="translate(-109.694 -115.548)" fill="#66b49d"/>
                  <path id="Trazado_878667" data-name="Trazado 878667" d="M109.694,241.137v-4.316a.866.866,0,0,1,.866-.866h4.316a.866.866,0,0,1,.866.866v4.316a.866.866,0,0,1-.866.866H110.56A.866.866,0,0,1,109.694,241.137Z" transform="translate(-109.694 -226.963)" fill="#66b49d"/>
                  <path id="Trazado_878668" data-name="Trazado 878668" d="M109.694,361.542v-4.316a.866.866,0,0,1,.866-.866h4.316a.866.866,0,0,1,.866.866v4.316a.866.866,0,0,1-.866.866H110.56A.866.866,0,0,1,109.694,361.542Z" transform="translate(-109.694 -338.376)" fill="#66b49d"/>
                </g>
              </g>
            </g>
            <g id="Grupo_1189537" data-name="Grupo 1189537" transform="translate(14.451 8.703)">
              <g id="Grupo_1189536" data-name="Grupo 1189536" transform="translate(0.92)">
                <path id="Trazado_878669" data-name="Trazado 878669" d="M261.816,176.642l-.55-.724-2.058-1.3-.791-.125L247.88,191.14a4.338,4.338,0,0,0-.552,1.3,3.394,3.394,0,0,1,3.008,1.9,4.337,4.337,0,0,0,.943-1.057Z" transform="translate(-247.328 -170.721)" fill="#fc8086"/>
                <path id="Trazado_878670" data-name="Trazado 878670" d="M414.721,124.821l-.889-.563a1.485,1.485,0,0,0-2.05.461l-.815,1.288.26.524L413.7,128.1l.664.061.816-1.289A1.485,1.485,0,0,0,414.721,124.821Z" transform="translate(-398.746 -124.027)" fill="#8c9ba6"/>
              </g>
              <path id="Trazado_878671" data-name="Trazado 878671" d="M0,0H2.117V4.023H0Z" transform="matrix(0.535, -0.845, 0.845, 0.535, 12.01, 3.764)" fill="#c9e2e7"/>
              <path id="Trazado_878672" data-name="Trazado 878672" d="M238.939,416.8l-3,2.418a.569.569,0,0,1-.911-.577l.9-3.746A3.394,3.394,0,0,1,238.939,416.8Z" transform="translate(-235.011 -393.172)" fill="#7c8b96"/>
            </g>
          </g>
        </g>
        <g id="Grupo_1189542" data-name="Grupo 1189542" transform="translate(34.02 0)">
          <g id="Grupo_1189541" data-name="Grupo 1189541" transform="translate(0)">
            <g id="Grupo_1189540" data-name="Grupo 1189540">
              <path id="Trazado_878673" data-name="Trazado 878673" d="M129.96,135.448a.56.56,0,0,0-.783.119l-1.109,1.506-.379-.521a.56.56,0,1,0-.906.66l.654.9a.782.782,0,0,0,.627.32h0a.781.781,0,0,0,.627-.317l1.385-1.882A.56.56,0,0,0,129.96,135.448Z" transform="translate(-119.756 -125.231)"/>
              <path id="Trazado_878674" data-name="Trazado 878674" d="M129.96,258.475a.56.56,0,0,0-.783.119l-1.109,1.506-.379-.521a.56.56,0,1,0-.906.659l.654.9a.781.781,0,0,0,.627.32h0a.781.781,0,0,0,.627-.317l1.385-1.882A.56.56,0,0,0,129.96,258.475Z" transform="translate(-119.756 -239.07)"/>
              <path id="Trazado_878675" data-name="Trazado 878675" d="M129.96,376.259a.56.56,0,0,0-.783.119l-1.109,1.506-.379-.521a.56.56,0,1,0-.906.659l.654.9a.781.781,0,0,0,.627.32h0a.781.781,0,0,0,.627-.317l1.385-1.882A.56.56,0,0,0,129.96,376.259Z" transform="translate(-119.756 -348.058)"/>
              <path id="Trazado_878676" data-name="Trazado 878676" d="M221.085,133.988h6.924a.56.56,0,1,0,0-1.121h-6.924a.56.56,0,1,0,0,1.121Z" transform="translate(-206.596 -122.944)"/>
              <path id="Trazado_878677" data-name="Trazado 878677" d="M221.085,165.329h3.462a.56.56,0,1,0,0-1.121h-3.462a.56.56,0,1,0,0,1.121Z" transform="translate(-206.596 -151.945)"/>
              <path id="Trazado_878678" data-name="Trazado 878678" d="M221.085,254.393h4.646a.56.56,0,1,0,0-1.121h-4.646a.56.56,0,1,0,0,1.121Z" transform="translate(-206.596 -234.357)"/>
              <path id="Trazado_878679" data-name="Trazado 878679" d="M224.547,285.734a.56.56,0,1,0,0-1.121h-3.462a.56.56,0,1,0,0,1.121Z" transform="translate(-206.596 -263.358)"/>
              <path id="Trazado_878680" data-name="Trazado 878680" d="M107.939,108.047h-4.316a1.428,1.428,0,0,0-1.426,1.426v4.316a1.428,1.428,0,0,0,1.426,1.426h4.316a1.428,1.428,0,0,0,1.426-1.426v-4.316A1.428,1.428,0,0,0,107.939,108.047Zm.306,5.742a.306.306,0,0,1-.306.306h-4.316a.306.306,0,0,1-.306-.306v-4.316a.306.306,0,0,1,.306-.306h4.316a.306.306,0,0,1,.306.306Z" transform="translate(-97.105 -99.978)"/>
              <path id="Trazado_878681" data-name="Trazado 878681" d="M107.939,228.453h-4.316a1.428,1.428,0,0,0-1.426,1.426V234.2a1.428,1.428,0,0,0,1.426,1.426h4.316a1.428,1.428,0,0,0,1.426-1.426v-4.316A1.428,1.428,0,0,0,107.939,228.453Zm.306,5.742a.306.306,0,0,1-.306.306h-4.316a.306.306,0,0,1-.306-.306v-4.316a.306.306,0,0,1,.306-.306h4.316a.306.306,0,0,1,.306.306Z" transform="translate(-97.105 -211.392)"/>
              <path id="Trazado_878682" data-name="Trazado 878682" d="M107.939,348.857h-4.316a1.428,1.428,0,0,0-1.426,1.426V354.6a1.428,1.428,0,0,0,1.426,1.426h4.316a1.428,1.428,0,0,0,1.426-1.426v-4.316A1.428,1.428,0,0,0,107.939,348.857Zm.306,5.742a.306.306,0,0,1-.306.306h-4.316a.306.306,0,0,1-.306-.306v-4.316a.306.306,0,0,1,.306-.306h4.316a.306.306,0,0,1,.306.306Z" transform="translate(-97.105 -322.804)"/>
              <path id="Trazado_878683" data-name="Trazado 878683" d="M66.225,9.583l-.889-.563a2.045,2.045,0,0,0-2.823.634L61.7,10.943l-1.132,1.789-1.28,2.023V6.345a1.052,1.052,0,0,0-1.05-1.05H54.221V4.174H59.6a.812.812,0,0,1,.811.811V9.837a.56.56,0,1,0,1.121,0V4.985A1.934,1.934,0,0,0,59.6,3.054H54.1a1.529,1.529,0,0,0-1.411-.945H51.246V1.545A1.547,1.547,0,0,0,49.7,0H45.845A1.547,1.547,0,0,0,44.3,1.545v.564H42.853a1.529,1.529,0,0,0-1.411.945H35.951A1.934,1.934,0,0,0,34.02,4.985V36.306a1.934,1.934,0,0,0,1.931,1.931H59.6a1.934,1.934,0,0,0,1.931-1.931V23.744a.56.56,0,0,0-1.121,0V36.306a.812.812,0,0,1-.811.811H35.951a.812.812,0,0,1-.811-.811V4.985a.812.812,0,0,1,.811-.811h5.375V5.295H37.311a1.052,1.052,0,0,0-1.05,1.05v28.6A1.052,1.052,0,0,0,37.311,36H58.235a1.052,1.052,0,0,0,1.05-1.05V24.373l5.626-8.89h0l1.132-1.788L66.86,12.4a2.048,2.048,0,0,0-.634-2.822Zm-2.186.263a.918.918,0,0,1,.7.121l.889.563a.926.926,0,0,1,.287,1.276l-.516.816-2.452-1.553.516-.815a.918.918,0,0,1,.579-.408ZM53.428,31.534a3.771,3.771,0,0,1-.355.473,3.939,3.939,0,0,0-.6-.638l10.44-16.486.748.474ZM49.6,34.875l-.011,0h0l.791-3.287a2.821,2.821,0,0,1,1.85,1.171C49.266,35.146,49.645,34.837,49.6,34.875Zm12.743-22.86L64.8,13.568l-.533.842-2.452-1.553Zm-19.9-8.367c0-.007,0-.014,0-.021s0,0,0-.007a.407.407,0,0,1,.406-.391h1.6a.964.964,0,0,0,.963-.963V1.545a.425.425,0,0,1,.424-.424H49.7a.425.425,0,0,1,.424.424v.722a.964.964,0,0,0,.963.963h1.6a.407.407,0,0,1,.406.391s0,0,0,.007,0,.014,0,.021V5.295H42.446ZM37.381,6.415H58.165v10.11L52.3,25.792a.56.56,0,1,0,.947.6L61.213,13.8l.758.48L51.531,30.77A3.934,3.934,0,0,0,50.7,30.5a3.789,3.789,0,0,1,.276-.523l.871-1.376a.56.56,0,1,0-.947-.6l-.871,1.376a4.888,4.888,0,0,0-.623,1.472h0L48.5,34.6a1.163,1.163,0,0,0-.032.276H37.381ZM58.165,34.876H51.388l1.923-1.549a4.886,4.886,0,0,0,1.065-1.193l3.79-5.989Z" transform="translate(-34.02 0)"/>
            </g>
          </g>
        </g>
      </g>
    </g>
  </g>
</svg>
