<svg xmlns="http://www.w3.org/2000/svg" width="73.054" height="73.053" viewBox="0 0 73.054 73.053">
  <g id="Grupo_1189547" data-name="Grupo 1189547" transform="translate(-196.057 -7875)">
    <g id="Grupo_1189543" data-name="Grupo 1189543" transform="translate(-675.055 7597.836)">
      <g id="Grupo_1188789" data-name="Grupo 1188789" transform="translate(871.113 277.164)">
        <rect id="Rectángulo_400898" data-name="Rectángulo 400898" width="60.477" height="60.477" rx="30.238" transform="translate(6.492 6.026)" fill="#361969"/>
        <rect id="Rectángulo_400907" data-name="Rectángulo 400907" width="65.491" height="65.49" rx="32.745" transform="translate(3.783 3.781)" fill="none"/>
        <g id="Grupo_1098742" data-name="Grupo 1098742" transform="translate(0)">
          <g id="Rectángulo_400898-2" data-name="Rectángulo 400898" transform="translate(0)" fill="none" stroke="#fff" stroke-width="2" opacity="0.859">
            <rect width="73.054" height="73.053" rx="36.527" stroke="none"/>
            <rect x="1" y="1" width="71.054" height="71.053" rx="35.527" fill="none"/>
          </g>
          <g id="Rectángulo_400907-2" data-name="Rectángulo 400907" transform="translate(0)" fill="none" stroke="#0f1f33" stroke-linecap="round" stroke-width="2">
            <rect width="73.054" height="73.053" rx="36.527" stroke="none"/>
            <rect x="1" y="1" width="71.054" height="71.053" rx="35.527" fill="none"/>
          </g>
        </g>
      </g>
    </g>
    <g id="Grupo_1189546" data-name="Grupo 1189546" transform="translate(194.639 7889.002)">
      <path id="Trazado_878684" data-name="Trazado 878684" d="M82.752,139.486a26.307,26.307,0,0,1-14.478,0c-6.748,7.537.145,14.944,2.309,16.952a.456.456,0,0,1-.142.76,1.765,1.765,0,0,0-1.134,1.381.851.851,0,0,0,.882.939h3.173c1.337,0,1.939-.826,2.1-2.048h.07c.162,1.222.764,2.048,2.1,2.048h3.208a.851.851,0,0,0,.882-.939A1.764,1.764,0,0,0,80.59,157.2a.456.456,0,0,1-.142-.76C82.612,154.434,89.508,147.024,82.752,139.486Z" transform="translate(-37.887 -114.974)" fill="#f9bd55"/>
      <path id="Trazado_878685" data-name="Trazado 878685" d="M110.481,169.5h-.362a2.514,2.514,0,0,0-2.514,2.514v.04s2.5,5.363,2.695,8.98c.192-3.617,2.695-8.98,2.695-8.98A2.514,2.514,0,0,0,110.481,169.5Z" transform="translate(-72.689 -139.714)" fill="#f4dbce"/>
      <path id="Trazado_878686" data-name="Trazado 878686" d="M122.883,235.128a7.186,7.186,0,0,0,0,.819A7.186,7.186,0,0,0,122.883,235.128Z" transform="translate(-85.272 -193.808)" fill="#f4dbce"/>
      <path id="Trazado_878687" data-name="Trazado 878687" d="M66.047,18.535A5.029,5.029,0,0,0,68.6,17.423c-1.8-.3-2.167-2.046-3.129-4.29,3.957-1.977,2.954-8.055,2.41-10.358a.359.359,0,0,0-.639-.129,5.935,5.935,0,0,1-3.59,1.985,6.339,6.339,0,0,0-3.788,2.334,15.909,15.909,0,0,0-6-.982,15.908,15.908,0,0,0-6,.982,6.341,6.341,0,0,0-3.788-2.334,5.935,5.935,0,0,1-3.59-1.985.359.359,0,0,0-.639.129c-.544,2.3-1.548,8.381,2.41,10.358-.963,2.243-1.332,3.99-3.129,4.29a5.029,5.029,0,0,0,2.556,1.112,3.2,3.2,0,0,1-2.255,1.748s.9,1.589,3.759,1.589a4.7,4.7,0,0,1-1.955,1.589s3.308,4.131,12.631,4.131S66.5,23.461,66.5,23.461a4.7,4.7,0,0,1-1.955-1.589c2.857,0,3.759-1.589,3.759-1.589a3.2,3.2,0,0,1-2.255-1.748Z" transform="translate(-16.249 -2.062)" fill="#f9bd55"/>
      <path id="Trazado_878688" data-name="Trazado 878688" d="M113.727,101.516a2.034,2.034,0,0,1-2.083,1.948c.185,1.761,1.046,3.095,2.083,3.095s1.9-1.333,2.083-3.095A2.034,2.034,0,0,1,113.727,101.516Z" transform="translate(-76.018 -83.677)" fill="#52565b"/>
      <path id="Trazado_878689" data-name="Trazado 878689" d="M115.6,120.551a1.5,1.5,0,0,0,2.775,0,1.5,1.5,0,0,0-2.775,0Z" transform="translate(-79.281 -98.6)" fill="#fd605b"/>
      <path id="Trazado_878690" data-name="Trazado 878690" d="M154.52,196.075c1.658-.871,7.044-4.276.974-9.162-.63,4.1-3.755,7.385-5.088,8.622a.456.456,0,0,0,.142.76,1.764,1.764,0,0,1,1.134,1.381.851.851,0,0,1-.882.939h3.523a.853.853,0,0,0,.88-.956,1.677,1.677,0,0,0-.721-1.135A.261.261,0,0,1,154.52,196.075Z" transform="translate(-107.846 -154.066)" fill="#f9bd55"/>
      <path id="Trazado_878691" data-name="Trazado 878691" d="M191.692,142.772a2.114,2.114,0,0,0-2.414,1.986,12.463,12.463,0,0,1-2.171,6.893,5.967,5.967,0,0,1,1.4,2.231,17.618,17.618,0,0,0,4.927-8.447A2.118,2.118,0,0,0,191.692,142.772Z" transform="translate(-138.219 -117.665)" fill="#f9bd55"/>
      <path id="Trazado_878692" data-name="Trazado 878692" d="M174.212,3.824a.347.347,0,0,0-.021-.052c-.383.775-1.812,3.375-4.106,4.14-2.707.9-1.2,2.857-1.2,2.857l-.752.451s.451,2.105,2.255,2.105l1.534.792c3.816-2.04,2.831-8.013,2.292-10.292Z" transform="translate(-122.578 -3.111)" fill="#f98080"/>
      <path id="Trazado_878693" data-name="Trazado 878693" d="M44.885,7.911c-2.294-.765-3.723-3.365-4.106-4.14a.359.359,0,0,0-.021.052c-.539,2.279-1.524,8.253,2.292,10.292l1.534-.792c1.8,0,2.255-2.105,2.255-2.105l-.752-.451S47.591,8.813,44.885,7.911Z" transform="translate(-17.156 -3.11)" fill="#f98080"/>
      <path id="Trazado_878694" data-name="Trazado 878694" d="M117.953,89.212c0,.732-.77,1.767-1.5,1.767s-1.5-1.035-1.5-1.767.77-.177,1.5-.177S117.953,88.479,117.953,89.212Z" transform="translate(-78.741 -73.223)" fill="#52565b"/>
      <circle id="Elipse_11581" data-name="Elipse 11581" cx="1.944" cy="1.944" r="1.944" transform="translate(35.676 26.947)" fill="#f9e63a"/>
      <path id="Trazado_878695" data-name="Trazado 878695" d="M92.462,141.517a24.7,24.7,0,0,1-6.507-.8c.491,1.355,2.584,2.425,5.246,2.686a1.938,1.938,0,0,1,2.527,0c2.663-.261,4.757-1.332,5.246-2.688A24.687,24.687,0,0,1,92.462,141.517Z" transform="translate(-54.844 -115.987)" fill="#039be6"/>
      <path id="Trazado_878696" data-name="Trazado 878696" d="M53.791,196.075c-1.658-.871-7.044-4.276-.974-9.162.63,4.1,3.755,7.385,5.088,8.622a.456.456,0,0,1-.142.76,1.764,1.764,0,0,0-1.134,1.381.851.851,0,0,0,.882.939H53.987a.853.853,0,0,1-.88-.956,1.677,1.677,0,0,1,.721-1.135A.261.261,0,0,0,53.791,196.075Z" transform="translate(-25.208 -154.066)" fill="#f9bd55"/>
      <path id="Trazado_878697" data-name="Trazado 878697" d="M152.264,196.993h-3.523a.439.439,0,1,1,0-.879.477.477,0,0,0,.364-.16.337.337,0,0,0,.084-.273,1.335,1.335,0,0,0-.877-1.045.916.916,0,0,1-.54-.685.889.889,0,0,1,.276-.8c1.286-1.193,4.343-4.4,4.952-8.367a.439.439,0,0,1,.71-.276c2.132,1.716,3.128,3.456,2.962,5.17-.227,2.333-2.558,3.921-3.776,4.6a2.105,2.105,0,0,1,.682,1.249,1.232,1.232,0,0,1-.282,1A1.349,1.349,0,0,1,152.264,196.993Zm-2.257-.879h2.257a.471.471,0,0,0,.362-.16.353.353,0,0,0,.084-.286,1.233,1.233,0,0,0-.54-.845.693.693,0,0,1-.3-.615.707.707,0,0,1,.382-.583c1-.524,3.34-1.966,3.541-4.03.122-1.253-.575-2.57-2.073-3.92-.887,3.885-3.807,6.941-5.078,8.121-.008.012,0,.025.021.036a2.193,2.193,0,0,1,1.39,1.716A1.2,1.2,0,0,1,150.007,196.114Zm2.657-1.711Z" transform="translate(-105.787 -152.005)"/>
      <path id="Trazado_878698" data-name="Trazado 878698" d="M55.45,196.993H51.927a1.349,1.349,0,0,1-1.031-.469,1.232,1.232,0,0,1-.282-1,2.1,2.1,0,0,1,.682-1.249c-1.218-.677-3.549-2.265-3.776-4.6-.167-1.715.829-3.455,2.962-5.171a.439.439,0,0,1,.71.276c.609,3.97,3.666,7.173,4.952,8.367a.889.889,0,0,1,.276.8.917.917,0,0,1-.54.685A1.335,1.335,0,0,0,55,195.681a.336.336,0,0,0,.084.273.476.476,0,0,0,.364.16.439.439,0,1,1,0,.879Zm-4.983-11.318c-1.5,1.351-2.195,2.667-2.073,3.92.2,2.064,2.543,3.506,3.541,4.03a.707.707,0,0,1,.382.583.693.693,0,0,1-.3.615,1.233,1.233,0,0,0-.54.845.354.354,0,0,0,.084.286.471.471,0,0,0,.362.16h2.257a1.2,1.2,0,0,1-.05-.566,2.193,2.193,0,0,1,1.39-1.716c.025-.011.029-.024.029-.027C54.274,192.617,51.354,189.561,50.467,185.675Z" transform="translate(-23.148 -152.006)"/>
      <path id="Trazado_878699" data-name="Trazado 878699" d="M122.966,194.617a2.292,2.292,0,0,1-2.075-1.043c-.8-1.259-.659-3.643.424-7.087a43.456,43.456,0,0,1,1.811-4.7.439.439,0,1,1,.8.372c-1.089,2.335-3.625,8.852-2.29,10.947a1.448,1.448,0,0,0,1.333.636.439.439,0,0,1,0,.879Z" transform="translate(-83.219 -149.629)"/>
      <path id="Trazado_878700" data-name="Trazado 878700" d="M106.1,194.618a.439.439,0,1,1,0-.879,1.448,1.448,0,0,0,1.333-.636c1.334-2.1-1.2-8.613-2.29-10.947a.439.439,0,0,1,.8-.372,43.459,43.459,0,0,1,1.811,4.7c1.083,3.444,1.226,5.828.424,7.087A2.292,2.292,0,0,1,106.1,194.618Z" transform="translate(-70.628 -149.63)"/>
      <path id="Trazado_878701" data-name="Trazado 878701" d="M186.449,152.264a.439.439,0,0,1-.419-.307,5.586,5.586,0,0,0-1.3-2.063.44.44,0,0,1-.035-.557,12.12,12.12,0,0,0,2.088-6.657,2.543,2.543,0,0,1,.918-1.837,2.559,2.559,0,0,1,4.1,2.651,17.939,17.939,0,0,1-5.06,8.66.441.441,0,0,1-.29.109Zm-.842-2.7a6.833,6.833,0,0,1,1.013,1.509,17.482,17.482,0,0,0,4.333-7.808,1.681,1.681,0,0,0-2.694-1.74,1.64,1.64,0,0,0-.6,1.2A13.175,13.175,0,0,1,185.607,149.559Z" transform="translate(-136.16 -115.608)"/>
      <path id="Trazado_878702" data-name="Trazado 878702" d="M51.807,25.969c-9.425,0-12.833-4.121-12.974-4.3a.439.439,0,0,1,.216-.7,3.068,3.068,0,0,0,1.169-.784,4.223,4.223,0,0,1-3.229-1.757.439.439,0,0,1,.3-.648,2.7,2.7,0,0,0,1.611-.977A6.326,6.326,0,0,1,36.793,15.7.439.439,0,0,1,37,14.927c1.2-.2,1.636-1.153,2.359-2.959.091-.228.185-.462.284-.7-1.627-.975-2.559-2.726-2.772-5.214a18.271,18.271,0,0,1,.494-5.44A.8.8,0,0,1,38.782.32a5.517,5.517,0,0,0,3.338,1.821,6.881,6.881,0,0,1,3.832,2.235,16.38,16.38,0,0,1,5.855-.9,16.378,16.378,0,0,1,5.855.9A6.881,6.881,0,0,1,61.5,2.141,5.515,5.515,0,0,0,64.833.32a.8.8,0,0,1,1.418.292,18.277,18.277,0,0,1,.494,5.44c-.213,2.487-1.145,4.239-2.772,5.214.1.241.193.474.284.7.723,1.806,1.156,2.759,2.359,2.959a.439.439,0,0,1,.207.773,6.326,6.326,0,0,1-2.108,1.112,2.7,2.7,0,0,0,1.611.977.439.439,0,0,1,.3.648A4.223,4.223,0,0,1,63.4,20.194a3.068,3.068,0,0,0,1.169.784.439.439,0,0,1,.216.7c-.14.176-3.548,4.3-12.973,4.3ZM39.931,21.535C41.058,22.55,44.6,25.09,51.807,25.09c7.241,0,10.76-2.538,11.878-3.553a5.9,5.9,0,0,1-1.561-1.473.439.439,0,0,1,.358-.694,4.41,4.41,0,0,0,2.979-.925,3.659,3.659,0,0,1-1.881-1.8.439.439,0,0,1,.405-.61,3.393,3.393,0,0,0,1.584-.54c-1.082-.581-1.575-1.814-2.13-3.2-.135-.338-.275-.687-.431-1.05a.439.439,0,0,1,.207-.566c3.56-1.778,2.775-7.252,2.216-9.7A6.536,6.536,0,0,1,61.692,3a5.914,5.914,0,0,0-3.534,2.168.44.44,0,0,1-.516.145,15.587,15.587,0,0,0-5.811-.951h-.047a15.587,15.587,0,0,0-5.811.951.44.44,0,0,1-.516-.145A5.914,5.914,0,0,0,41.921,3,6.536,6.536,0,0,1,38.18.978c-.558,2.449-1.343,7.922,2.216,9.7a.439.439,0,0,1,.207.566c-.156.363-.3.713-.431,1.05-.554,1.385-1.048,2.619-2.13,3.2a3.393,3.393,0,0,0,1.584.54.439.439,0,0,1,.405.61,3.656,3.656,0,0,1-1.881,1.8,4.412,4.412,0,0,0,2.98.925.439.439,0,0,1,.358.694,5.891,5.891,0,0,1-1.558,1.471Z" transform="translate(-14.189 0)"/>
      <path id="Trazado_878703" data-name="Trazado 878703" d="M169.86,12.5a.439.439,0,0,1-.208-.827c1.5-.8,2.362-2.387,2.548-4.7a16.17,16.17,0,0,0-.255-4.031,7.8,7.8,0,0,1-3.782,3.335c-.724.241-1.154.571-1.279.98a1.549,1.549,0,0,0,.286,1.193.439.439,0,0,1-.122.645l-.46.276a1.952,1.952,0,0,0,1.738,1.464.439.439,0,1,1,0,.879,2.945,2.945,0,0,1-2.685-2.452.439.439,0,0,1,.2-.469l.379-.227a2.17,2.17,0,0,1-.178-1.565,2.574,2.574,0,0,1,1.842-1.556c2.13-.71,3.486-3.178,3.851-3.917a.439.439,0,0,1,.8.029.589.589,0,0,1,.041.116,18.329,18.329,0,0,1,.5,5.372c-.212,2.635-1.224,4.454-3.01,5.409A.438.438,0,0,1,169.86,12.5Z" transform="translate(-120.518 -1.051)"/>
      <path id="Trazado_878704" data-name="Trazado 878704" d="M78.738,157.9H75.531a2.307,2.307,0,0,1-2.136-1.14,2.307,2.307,0,0,1-2.136,1.14H68.086a1.354,1.354,0,0,1-1.031-.467,1.219,1.219,0,0,1-.286-.978,2.193,2.193,0,0,1,1.391-1.716c.025-.011.029-.024.029-.027a18.328,18.328,0,0,1-4.617-6.578c-1.492-3.948-.727-7.648,2.271-11a.439.439,0,0,1,.459-.126,25.874,25.874,0,0,0,14.213,0,.439.439,0,0,1,.46.126c3,3.35,3.768,7.051,2.277,11a18.287,18.287,0,0,1-4.61,6.572c-.008.012,0,.025.021.036a2.193,2.193,0,0,1,1.39,1.716,1.219,1.219,0,0,1-.286.978A1.354,1.354,0,0,1,78.738,157.9Zm-5.378-2.927h.07a.44.44,0,0,1,.436.382c.153,1.152.666,1.666,1.665,1.666h3.208a.476.476,0,0,0,.364-.16.337.337,0,0,0,.084-.273,1.335,1.335,0,0,0-.877-1.045.916.916,0,0,1-.54-.685.889.889,0,0,1,.276-.8c2.146-1.991,8.61-8.995,2.461-16.131a26.939,26.939,0,0,1-14.193,0c-6.142,7.135.32,14.136,2.465,16.127a.889.889,0,0,1,.276.8.917.917,0,0,1-.54.685,1.335,1.335,0,0,0-.877,1.045.336.336,0,0,0,.084.273.477.477,0,0,0,.364.16h3.173c1,0,1.513-.514,1.665-1.666A.439.439,0,0,1,73.36,154.975Z" transform="translate(-35.784 -112.914)"/>
      <path id="Trazado_878705" data-name="Trazado 878705" d="M111.815,155.609a2.384,2.384,0,1,1,2.384-2.384A2.386,2.386,0,0,1,111.815,155.609Zm0-3.888a1.5,1.5,0,1,0,1.5,1.5A1.506,1.506,0,0,0,111.815,151.721Z" transform="translate(-74.194 -124.335)"/>
      <path id="Trazado_878706" data-name="Trazado 878706" d="M91.667,141.781a.44.44,0,0,1-.286-.106,1.5,1.5,0,0,0-1.955,0,.442.442,0,0,1-.329.1c-2.859-.28-5.063-1.448-5.616-2.974a.439.439,0,0,1,.528-.574,26.4,26.4,0,0,0,12.788,0,.439.439,0,0,1,.529.573c-.552,1.527-2.756,2.695-5.616,2.976Zm-6.748-2.426a7.638,7.638,0,0,0,4.089,1.531,2.377,2.377,0,0,1,2.789,0,7.634,7.634,0,0,0,4.091-1.532,28.069,28.069,0,0,1-10.97,0Z" transform="translate(-52.782 -113.927)"/>
      <path id="Trazado_878707" data-name="Trazado 878707" d="M111.815,164.728a2.386,2.386,0,0,1-2.384-2.384.439.439,0,0,1,.439-.439h3.888a.439.439,0,0,1,.439.439A2.386,2.386,0,0,1,111.815,164.728Zm-1.439-1.944a1.505,1.505,0,0,0,2.879,0Z" transform="translate(-74.194 -133.453)"/>
      <path id="Trazado_878708" data-name="Trazado 878708" d="M120.806,163.314a.439.439,0,0,1-.439-.439v-.53a.439.439,0,0,1,.879,0v.53A.439.439,0,0,1,120.806,163.314Z" transform="translate(-83.208 -133.453)"/>
      <path id="Trazado_878709" data-name="Trazado 878709" d="M114.39,89.358a2.336,2.336,0,0,1-1.942-2.207.8.8,0,0,1,.279-.667,1.18,1.18,0,0,1,1.056-.052,1.834,1.834,0,0,0,1.215,0,1.181,1.181,0,0,1,1.056.052.8.8,0,0,1,.279.667A2.336,2.336,0,0,1,114.39,89.358Zm-1.059-2.129c.054.54.642,1.251,1.059,1.251s1.005-.711,1.059-1.251c-.077.015-.169.038-.24.056a2.655,2.655,0,0,1-1.637,0C113.5,87.267,113.408,87.245,113.331,87.229Z" transform="translate(-76.681 -71.163)"/>
      <path id="Trazado_878710" data-name="Trazado 878710" d="M123.709,101.85q-.106,0-.216-.008a2.482,2.482,0,0,1-2.5-2.386.439.439,0,0,1,.438-.441h0a.439.439,0,0,1,.439.435,1.588,1.588,0,0,0,1.68,1.515,1.267,1.267,0,0,0,1-.286,1.906,1.906,0,0,0,.479-1.226.447.447,0,0,1,.441-.437.439.439,0,0,1,.438.438,2.784,2.784,0,0,1-.756,1.864A2.048,2.048,0,0,1,123.709,101.85Z" transform="translate(-83.727 -81.617)"/>
      <path id="Trazado_878711" data-name="Trazado 878711" d="M100.233,101.85a2.047,2.047,0,0,1-1.447-.531,2.784,2.784,0,0,1-.756-1.864.439.439,0,1,1,.879,0,1.905,1.905,0,0,0,.479,1.224,1.261,1.261,0,0,0,1,.286,1.589,1.589,0,0,0,1.68-1.512.439.439,0,0,1,.439-.438h0a.439.439,0,0,1,.438.441,2.482,2.482,0,0,1-2.5,2.386C100.376,101.847,100.3,101.85,100.233,101.85Z" transform="translate(-64.797 -81.617)"/>
      <path id="Trazado_878712" data-name="Trazado 878712" d="M111.667,104.945c-1.268,0-2.3-1.434-2.52-3.488a.439.439,0,0,1,.4-.484,1.587,1.587,0,0,0,1.676-1.515.441.441,0,0,1,.439-.433h0a.438.438,0,0,1,.436.434,1.587,1.587,0,0,0,1.676,1.514.439.439,0,0,1,.4.484c-.215,2.054-1.252,3.488-2.52,3.488Zm-1.586-3.158c.236,1.308.894,2.28,1.586,2.28s1.35-.972,1.586-2.28a2.4,2.4,0,0,1-1.586-1A2.4,2.4,0,0,1,110.081,101.787Z" transform="translate(-73.958 -81.624)"/>
      <path id="Trazado_878713" data-name="Trazado 878713" d="M172.624,93.271a.441.441,0,0,1-.1-.012A40.034,40.034,0,0,0,161.7,92.209a.439.439,0,1,1-.06-.877A41.058,41.058,0,0,1,172.727,92.4a.439.439,0,0,1-.1.866Z" transform="translate(-116.886 -75.253)"/>
      <path id="Trazado_878714" data-name="Trazado 878714" d="M172.649,105.75a.437.437,0,0,1-.2-.05,40.035,40.035,0,0,0-10.258-3.612.439.439,0,0,1,.151-.866,41.038,41.038,0,0,1,10.512,3.7.439.439,0,0,1-.2.829Z" transform="translate(-117.38 -83.43)"/>
      <path id="Trazado_878715" data-name="Trazado 878715" d="M19.857,93.27a.439.439,0,0,1-.1-.867,41.05,41.05,0,0,1,11.092-1.072.439.439,0,0,1-.06.877,40.1,40.1,0,0,0-10.825,1.049A.442.442,0,0,1,19.857,93.27Z" transform="translate(0 -75.251)"/>
      <path id="Trazado_878716" data-name="Trazado 878716" d="M22.52,105.75a.439.439,0,0,1-.2-.829,41.044,41.044,0,0,1,10.512-3.7.439.439,0,0,1,.151.866A40.106,40.106,0,0,0,22.722,105.7.435.435,0,0,1,22.52,105.75Z" transform="translate(-2.194 -83.43)"/>
      <path id="Trazado_878717" data-name="Trazado 878717" d="M136.082,73.37a.439.439,0,0,1-.439-.438,1.688,1.688,0,0,1,1.68-1.691,1.686,1.686,0,0,1,1.691,1.68.439.439,0,0,1-.438.441h0a.439.439,0,0,1-.439-.438.807.807,0,0,0-.807-.8h0a.808.808,0,0,0-.8.81.439.439,0,0,1-.438.441Z" transform="translate(-95.799 -58.723)"/>
      <path id="Trazado_878718" data-name="Trazado 878718" d="M94.585,73.366a.439.439,0,0,1-.439-.439.807.807,0,0,0-1.615,0,.439.439,0,0,1-.879,0,1.686,1.686,0,0,1,3.372,0A.439.439,0,0,1,94.585,73.366Z" transform="translate(-59.539 -58.723)"/>
      <path id="Trazado_878719" data-name="Trazado 878719" d="M40.99,12.491a.437.437,0,0,1-.207-.052c-1.785-.954-2.8-2.774-3.01-5.409a18.327,18.327,0,0,1,.5-5.372.637.637,0,0,1,.042-.118.439.439,0,0,1,.8-.027c.365.74,1.722,3.208,3.851,3.917a2.575,2.575,0,0,1,1.842,1.556,2.169,2.169,0,0,1-.179,1.565l.379.227a.439.439,0,0,1,.2.469A2.945,2.945,0,0,1,42.525,11.7a.439.439,0,1,1,0-.879,1.964,1.964,0,0,0,1.736-1.465L43.8,9.08a.439.439,0,0,1-.122-.645,1.546,1.546,0,0,0,.285-1.2c-.127-.407-.557-.735-1.278-.976A7.8,7.8,0,0,1,38.9,2.928,16.172,16.172,0,0,0,38.65,6.96c.186,2.317,1.044,3.9,2.548,4.7a.439.439,0,0,1-.208.827Z" transform="translate(-15.097 -1.046)"/>
      <path id="Trazado_878720" data-name="Trazado 878720" d="M114.93,119.859a2.147,2.147,0,0,1-1.757-1.132.439.439,0,0,1,0-.475,1.929,1.929,0,0,1,3.514,0,.44.44,0,0,1,0,.475A2.149,2.149,0,0,1,114.93,119.859Zm-.845-1.37a.973.973,0,0,0,1.69,0,.972.972,0,0,0-1.69,0Z" transform="translate(-77.221 -96.538)"/>
    </g>
  </g>
</svg>
