<svg xmlns="http://www.w3.org/2000/svg" width="73.054" height="73.053" viewBox="0 0 73.054 73.053">
  <g id="Grupo_1189551" data-name="Grupo 1189551" transform="translate(-617.057 -7875)">
    <g id="Grupo_1189544" data-name="Grupo 1189544" transform="translate(-254.055 7597.836)">
      <g id="Grupo_1188789" data-name="Grupo 1188789" transform="translate(871.113 277.164)">
        <rect id="Rectángulo_400898" data-name="Rectángulo 400898" width="60.477" height="60.477" rx="30.238" transform="translate(6.492 6.026)" fill="#361969"/>
        <rect id="Rectángulo_400907" data-name="Rectángulo 400907" width="65.491" height="65.49" rx="32.745" transform="translate(3.783 3.781)" fill="none"/>
        <g id="Grupo_1098742" data-name="Grupo 1098742" transform="translate(0)">
          <g id="Rectángulo_400898-2" data-name="Rectángulo 400898" transform="translate(0)" fill="none" stroke="#fff" stroke-width="2" opacity="0.859">
            <rect width="73.054" height="73.053" rx="36.527" stroke="none"/>
            <rect x="1" y="1" width="71.054" height="71.053" rx="35.527" fill="none"/>
          </g>
          <g id="Rectángulo_400907-2" data-name="Rectángulo 400907" transform="translate(0)" fill="none" stroke="#0f1f33" stroke-linecap="round" stroke-width="2">
            <rect width="73.054" height="73.053" rx="36.527" stroke="none"/>
            <rect x="1" y="1" width="71.054" height="71.053" rx="35.527" fill="none"/>
          </g>
        </g>
      </g>
    </g>
    <g id="Grupo_1189550" data-name="Grupo 1189550" transform="translate(596.247 7890)">
      <path id="Trazado_878721" data-name="Trazado 878721" d="M258.3,261.412V264.7l-3.686,2.775-3.686-2.775v-3.292Z" transform="translate(-194.303 -239.456)" fill="#fed2a4"/>
      <path id="Trazado_878722" data-name="Trazado 878722" d="M252.608,264.7v-3.292h-1.68V264.7l3.686,2.775.84-.632Z" transform="translate(-194.302 -239.456)" fill="#ffbd86"/>
      <path id="Trazado_878723" data-name="Trazado 878723" d="M52.877,141.537H47.57a1.26,1.26,0,0,1-1.26-1.26V132.3a1.26,1.26,0,0,1,1.26-1.26h5.307a1.26,1.26,0,0,1,1.26,1.26v3.988l2.609,2.639H54.137v1.349A1.26,1.26,0,0,1,52.877,141.537Z" transform="translate(-6.87 -120.036)" fill="#75cc77"/>
      <path id="Trazado_878724" data-name="Trazado 878724" d="M69.606,304.692h2.609v-2.775a1.3,1.3,0,0,0-2.609,0Z" transform="translate(-28.209 -275.363)" fill="#fed2a4"/>
      <path id="Trazado_878725" data-name="Trazado 878725" d="M71.541,300.774a1.3,1.3,0,0,0-1.935,1.142v2.775h1.26v-2.775A1.3,1.3,0,0,1,71.541,300.774Z" transform="translate(-28.209 -275.363)" fill="#ffbd86"/>
      <path id="Trazado_878726" data-name="Trazado 878726" d="M64.495,312.519a1.26,1.26,0,0,0,1.26-1.26V309.91l4.779-6.2a2.519,2.519,0,0,1,1.114-.823l6.078-2.272,3.683,2.775,3.683-2.775,8.233,2.594a3.526,3.526,0,0,1,2.433,3.353v11.175H70.972v-6.519l-4.47,5.4a2.52,2.52,0,0,1-2.1,1.122h-.045a2.52,2.52,0,0,1-2.52-2.52v-2.7Z" transform="translate(-21.097 -275.363)" fill="#42a5f5"/>
      <g id="Grupo_1189548" data-name="Grupo 1189548" transform="translate(40.744 25.249)">
        <path id="Trazado_878727" data-name="Trazado 878727" d="M305.649,303.387l3.188-2.4-1.185-.373-2.843,2.142Z" transform="translate(-284.402 -300.612)" fill="#0593fc"/>
        <path id="Trazado_878728" data-name="Trazado 878728" d="M170.559,411.017h1.68v7.848h-1.68Z" transform="translate(-161.428 -401.744)" fill="#0593fc"/>
        <path id="Trazado_878729" data-name="Trazado 878729" d="M63.522,315.217v-2.7h2.654a1.26,1.26,0,0,0,1.26-1.26V309.91l4.779-6.2a2.52,2.52,0,0,1,1.114-.823l4.956-1.852-.557-.42-6.078,2.272a2.519,2.519,0,0,0-1.114.823l-4.779,6.2v1.349a1.26,1.26,0,0,1-1.26,1.26H61.842v2.7a2.52,2.52,0,0,0,2.52,2.52h.045a2.523,2.523,0,0,0,.817-.136,2.522,2.522,0,0,1-1.7-2.384Z" transform="translate(-61.842 -300.612)" fill="#0593fc"/>
      </g>
      <path id="Trazado_878730" data-name="Trazado 878730" d="M170.559,411.017h19.567v5.243H170.559Z" transform="translate(-120.683 -376.495)" fill="#ffca28"/>
      <path id="Trazado_878731" data-name="Trazado 878731" d="M170.559,411.017h1.68v5.243h-1.68Z" transform="translate(-120.683 -376.495)" fill="#f9b916"/>
      <path id="Trazado_878732" data-name="Trazado 878732" d="M186.621,131.752h-1.265a1.755,1.755,0,0,0-1.755,1.755v1.315a1.755,1.755,0,0,0,1.755,1.755h1.265Z" transform="translate(-132.63 -120.686)" fill="#fed2a4"/>
      <path id="Trazado_878733" data-name="Trazado 878733" d="M370.056,131.752h1.265a1.755,1.755,0,0,1,1.755,1.755v1.315a1.755,1.755,0,0,1-1.755,1.755h-1.265Z" transform="translate(-303.424 -120.686)" fill="#fed2a4"/>
      <path id="Trazado_878734" data-name="Trazado 878734" d="M219.559,102.678v6.069a5.838,5.838,0,0,0,5.838,5.838h.964a5.838,5.838,0,0,0,5.838-5.838v-6.01l-6.32-2.66Z" transform="translate(-165.568 -91.671)" fill="#fff3de"/>
      <path id="Trazado_878735" data-name="Trazado 878735" d="M221.239,108.747v-6.069l5.471-2.251-.83-.35-6.32,2.6v6.069a5.838,5.838,0,0,0,5.838,5.838h.964c.12,0,.239,0,.358-.012a5.838,5.838,0,0,1-5.48-5.826Z" transform="translate(-165.568 -91.671)" fill="#ffe5c2"/>
      <path id="Trazado_878736" data-name="Trazado 878736" d="M191.469,46.389h2.9a2.52,2.52,0,0,0,2.52-2.52V38.562h-1.639a3.78,3.78,0,0,0-3.78,3.78Z" transform="translate(-139.837 -35.323)" fill="#546e7a"/>
      <path id="Trazado_878737" data-name="Trazado 878737" d="M196.886,38.563h-1.639a3.78,3.78,0,0,0-3.78,3.78v4.048h1.68V42.342A3.779,3.779,0,0,1,196.886,38.563Z" transform="translate(-139.836 -35.323)" fill="#435860"/>
      <path id="Trazado_878738" data-name="Trazado 878738" d="M262.775,7.5a5.172,5.172,0,0,1,5.172,5.172v5.264H258.5a2.52,2.52,0,0,1-2.52-2.52v-5.4A2.52,2.52,0,0,1,258.5,7.5Z" transform="translate(-198.929 -6.872)" fill="#546e7a"/>
      <path id="Trazado_878739" data-name="Trazado 878739" d="M257.659,15.417v-5.4a2.52,2.52,0,0,1,2.52-2.52H258.5a2.52,2.52,0,0,0-2.52,2.52v5.4a2.52,2.52,0,0,0,2.52,2.52h1.68A2.52,2.52,0,0,1,257.659,15.417Z" transform="translate(-198.929 -6.871)" fill="#435860"/>
      <path id="Trazado_878740" data-name="Trazado 878740" d="M47.57,357.014h2.7a1.26,1.26,0,0,0,1.26-1.26v-5.307a1.26,1.26,0,0,0-1.26-1.26h-2.7a1.26,1.26,0,0,0-1.26,1.26v5.307A1.26,1.26,0,0,0,47.57,357.014Z" transform="translate(-6.87 -319.858)" fill="#fff3de"/>
      <path id="Trazado_878741" data-name="Trazado 878741" d="M47.991,355.754v-5.307a1.26,1.26,0,0,1,1.26-1.26h-1.68a1.26,1.26,0,0,0-1.26,1.26v5.307a1.26,1.26,0,0,0,1.26,1.26h1.68A1.26,1.26,0,0,1,47.991,355.754Z" transform="translate(-6.871 -319.858)" fill="#ffe5c2"/>
      <g id="Grupo_1189549" data-name="Grupo 1189549" transform="translate(38.81 0)">
        <path id="Trazado_878742" data-name="Trazado 878742" d="M320.321,153.684a.63.63,0,0,0,.63-.63v-.827a.63.63,0,1,0-1.26,0v.827A.63.63,0,0,0,320.321,153.684Z" transform="translate(-296.1 -138.864)"/>
        <path id="Trazado_878743" data-name="Trazado 878743" d="M255.7,153.684a.63.63,0,0,0,.63-.63v-.827a.63.63,0,0,0-1.26,0v.827A.63.63,0,0,0,255.7,153.684Z" transform="translate(-236.909 -138.864)"/>
        <path id="Trazado_878744" data-name="Trazado 878744" d="M270.71,205.063a2.212,2.212,0,0,0,2.21-2.21.63.63,0,1,0-1.26,0,.95.95,0,1,1-1.9,0,.63.63,0,0,0-1.26,0A2.212,2.212,0,0,0,270.71,205.063Z" transform="translate(-249.208 -185.238)"/>
        <path id="Trazado_878745" data-name="Trazado 878745" d="M74.661,33.779a.63.63,0,0,0,.63-.63V31.2a4.148,4.148,0,0,0-2.874-3.954l-7.79-2.454V22.281a6.793,6.793,0,0,0,2.635-5.76,2.6,2.6,0,0,0,3.02-2.385V12.821a2.376,2.376,0,0,0-.646-1.63c.008-.04.013-1.8.013-1.8a.63.63,0,0,0-1.26,0v1.041H59.57a1.892,1.892,0,0,1-1.89-1.89V3.15a1.892,1.892,0,0,1,1.89-1.89h4.276A4.547,4.547,0,0,1,68.388,5.8v.847a.63.63,0,0,0,1.26,0V5.8a5.809,5.809,0,0,0-5.8-5.8H59.57a3.154,3.154,0,0,0-3.1,2.609H55.412A4.415,4.415,0,0,0,51,7.018s0,4.115.009,4.148a2.377,2.377,0,0,0-.67,1.655v1.315a2.6,2.6,0,0,0,3.02,2.385A6.7,6.7,0,0,0,56,22.281v2.531l-5.667,2.118a3.152,3.152,0,0,0-1.391,1.028L45.288,32.7V30.588a1.885,1.885,0,0,0-.652-1.426V26.553a1.934,1.934,0,1,0-3.869,0V28.7a1.739,1.739,0,0,0-1.957,1.89V35.9a1.893,1.893,0,0,0,1.3,1.8v2.162a3.181,3.181,0,0,0,5.8,1.776l3.335-4.03v4.77a.63.63,0,0,0,.63.63H74.661a.63.63,0,0,0,.63-.63V35.894a.63.63,0,0,0-1.26,0V41.74H70.073V33.382a.63.63,0,1,0-1.26,0v.51H50.506v-.65a.63.63,0,1,0-1.26,0v2.382L44.921,40.85c-1.031,1.245-3.546,1.282-3.546-1V37.785h2v.675a.63.63,0,0,0,1.26,0V37.322a1.886,1.886,0,0,0,.653-1.427V34.761l4.647-6.033a1.893,1.893,0,0,1,.835-.617l5.753-2.15,3.409,2.567a.659.659,0,0,0,.8-.03l3.386-2.549,7.916,2.494a2.89,2.89,0,0,1,2,2.754v1.954a.63.63,0,0,0,.63.63Zm-5.848,1.373v3.983H58a.63.63,0,0,0,0,1.26H68.813V41.74H50.506V40.395h4.748a.63.63,0,0,0,0-1.26H50.506V35.152Zm-26.786-8.6a.674.674,0,1,1,1.349,0V28.7H42.027ZM40.07,30.588a.631.631,0,0,1,.63-.63h2.7a.631.631,0,0,1,.63.63v.719H42.049a.63.63,0,0,0,0,1.26h1.979v1.349H42.049a.63.63,0,0,0,0,1.26h1.979V35.9c0,.42-.255.6-.63.63H40.7a.631.631,0,0,1-.63-.63ZM69.022,14.136A1.126,1.126,0,0,1,67.9,15.262h-.635V11.7H67.9a1.126,1.126,0,0,1,1.125,1.125ZM52.262,7.018a3.153,3.153,0,0,1,3.15-3.15H56.42V8.546h0a1.892,1.892,0,0,1-1.89,1.89H52.262Zm.464,8.243A1.126,1.126,0,0,1,51.6,14.136V12.821A1.126,1.126,0,0,1,52.726,11.7h.635v3.566h-.635Zm1.895,1.814V11.694a3.147,3.147,0,0,0,2.429-1.26A3.147,3.147,0,0,0,59.57,11.7H66v5.38c0,6.922-11.381,6.914-11.381,0Zm8.746,5.933v1.924l-3.055,2.3-3.056-2.3V23.008a7.454,7.454,0,0,0,6.111,0Z" transform="translate(-38.81 0)"/>
        <path id="Trazado_878746" data-name="Trazado 878746" d="M63.6,174.173a.63.63,0,0,0,.891,0l2.609-2.609a.63.63,0,0,0-.891-.891l-2.163,2.164-.859-.859a.63.63,0,1,0-.891.891Z" transform="translate(-60.15 -156.169)"/>
        <path id="Trazado_878747" data-name="Trazado 878747" d="M40.7,135.3h5.307a1.892,1.892,0,0,0,1.89-1.89v-.719h1.979c.665-.005.959-.513.448-1.073L47.9,129.161v-3.729a1.892,1.892,0,0,0-1.89-1.89H40.7a1.892,1.892,0,0,0-1.89,1.89v7.976A1.892,1.892,0,0,0,40.7,135.3Zm-.63-9.865a.631.631,0,0,1,.63-.63h5.307a.631.631,0,0,1,.63.63v3.988a.63.63,0,0,0,.182.443l1.548,1.566h-1.1a.63.63,0,0,0-.63.63v1.349a.631.631,0,0,1-.63.63H40.7a.631.631,0,0,1-.63-.63Z" transform="translate(-38.811 -113.166)"/>
      </g>
    </g>
  </g>
</svg>
