<svg xmlns="http://www.w3.org/2000/svg" xmlns:xlink="http://www.w3.org/1999/xlink" width="295.057" height="295.198" viewBox="0 0 295.057 295.198">
  <defs>
    <clipPath id="clip-path">
      <rect id="Rect치ngulo_402948" data-name="Rect치ngulo 402948" width="295.057" height="295.198" transform="translate(285.029 9947.967)" fill="#12263f"/>
    </clipPath>
  </defs>
  <g id="Grupo_1189581" data-name="Grupo 1189581" transform="translate(-285.029 -9947.967)">
    <rect id="Rect치ngulo_402921" data-name="Rect치ngulo 402921" width="295.057" height="295.198" rx="10" transform="translate(285.029 9947.967)" fill="#12263f"/>
    <g id="Enmascarar_grupo_1099214" data-name="Enmascarar grupo 1099214" clip-path="url(#clip-path)">
      <g id="Grupo_1189580" data-name="Grupo 1189580" transform="translate(220.099 9912.781)">
        <ellipse id="Elipse_11582" data-name="Elipse 11582" cx="154.436" cy="126.079" rx="154.436" ry="126.079" transform="translate(46.506 330.374) rotate(-72.881)" fill="#efefef"/>
        <g id="Grupo_1189560" data-name="Grupo 1189560" transform="translate(103.545 165.888)">
          <path id="Trazado_878756" data-name="Trazado 878756" d="M160.172,353.877c-16.846-13.094-34.511-27.63-40.573-48.086-5.15-17.374-.945-36.107,4.945-53.245s13.516-33.972,15.354-52c.131-1.282.484-2.873,1.742-3.155,1.1-.246,2.065.734,2.722,1.651,3.263,4.555,5.189,9.9,7.5,15.008,6.094,13.466,14.974,25.446,22.562,38.13s14.034,26.63,14.42,41.4c.295,11.262-2.993,22.424-8.2,32.412S168.357,344.889,160.172,353.877Z" transform="translate(-117.277 -197.354)" fill="#52afa4"/>
          <path id="Trazado_878757" data-name="Trazado 878757" d="M176.385,391.158A1.216,1.216,0,0,0,178,389.592c-10.878-27.272-15.1-56.008-17.55-78.506-1.256-11.515-2.219-23.267-3.15-34.631-1.447-17.654-2.942-35.911-5.574-53.748a1.228,1.228,0,1,0-2.43.358c2.62,17.76,4.113,35.975,5.556,53.591.932,11.38,1.9,23.148,3.155,34.7,2.471,22.649,6.721,51.588,17.7,79.124a1.217,1.217,0,0,0,.643.667Z" transform="translate(-123.488 -202.07)" fill="#2f7571"/>
        </g>
        <path id="Trazado_878758" data-name="Trazado 878758" d="M132.739,361.951q-1.193-1.046-2.344-2.141a86.217,86.217,0,0,1-8.538-9.5,19.067,19.067,0,0,0-2.932-1.659,14.186,14.186,0,0,0-4.2-1.121,39.85,39.85,0,0,0-7.9.29,27.535,27.535,0,0,1-7.882-.115,23.457,23.457,0,0,1-6.92-2.652,33.976,33.976,0,0,1-3.117-2c-1.019-.733-1.971-1.54-2.958-2.31a.341.341,0,0,1,.3-.6,83.427,83.427,0,0,0,8.3,2.007,31.193,31.193,0,0,0,7.573.327,34.32,34.32,0,0,1,7.483-.069,20.937,20.937,0,0,1,9.149,3.7q-.862-1.233-1.691-2.49c-.271-.353-.526-.725-.794-1.064-.451-.571-.877-1.156-1.306-1.742-.2-.28-.414-.556-.631-.826a.555.555,0,0,1-.089-.082q-.334-.378-.693-.729a14.781,14.781,0,0,0-7.105-3.461,46.4,46.4,0,0,0-8.619-.809,37.27,37.27,0,0,1-9.5-1.144,25.259,25.259,0,0,1-7.756-4.308,32.88,32.88,0,0,0-7.311-4.571.371.371,0,0,1,.049-.708,11.6,11.6,0,0,1,1.255-.239c3.454-.445,6.825.76,9.975,2.037,1.573.636,3.13,1.315,4.744,1.839a24.343,24.343,0,0,0,4.742.982c3.181.369,6.415.368,9.543,1.113a15.228,15.228,0,0,1,4.294,1.726,18.179,18.179,0,0,1,3.429,2.7c.152.147.293.3.439.453q-2.527-4.556-4.76-9.269c-.055-.069-.108-.139-.163-.206a9.933,9.933,0,0,0-.853-.923,6.354,6.354,0,0,0-2.107-1.314.443.443,0,0,1-.1-.053,59.557,59.557,0,0,1-21.771-12.131,51.657,51.657,0,0,1-6.08-6.183q-1.372-1.671-2.581-3.463c-.8-1.193-1.515-2.439-2.224-3.689-.189-.333.273-.579.516-.35a70.162,70.162,0,0,0,7.488,6.085c4.644,3.317,9.549,6.247,14.286,9.423,2.5,1.676,4.952,3.438,7.3,5.319,1.209.966,2.4,1.967,3.577,2.964q.5.422.992.85-.5-1.112-.995-2.228a.3.3,0,0,1-.027-.048c-.045-.106-.089-.213-.135-.318-.331-.754-.656-1.51-.981-2.266-.007-.014-.013-.031-.02-.047-.439-.81-.823-1.653-1.245-2.471-.671-1.292-1.39-2.557-2.173-3.779a22.754,22.754,0,0,0-5.956-5.354,89.534,89.534,0,0,0-8.048-4.451,53.439,53.439,0,0,1-8.177-4.869,33.328,33.328,0,0,1-6.473-6.765c-.935-1.264-1.805-2.573-2.649-3.9s-1.623-2.682-2.475-4c-.193-.3.23-.593.491-.43,3.261,2,6.5,4.039,9.742,6.077,2.726,1.709,5.456,3.421,8.027,5.358a55.236,55.236,0,0,1,7.081,6.469c2.166,2.325,4.2,4.776,6.22,7.222.864,1.043,1.71,2.1,2.529,3.183q-2.168-5.727-3.937-11.594a.235.235,0,0,1-.028-.055l-.024-.072c-.138-.395-.269-.792-.4-1.19a35.306,35.306,0,0,0-1.927-3.418,40.121,40.121,0,0,0-5.374-5.631c-2.224-2-4.529-3.908-6.615-6.055a35.864,35.864,0,0,1-5.56-7.527,77.849,77.849,0,0,1-4.015-8.64c-1.21-2.958-2.35-5.946-3.629-8.877a.312.312,0,0,1,.558-.28c1.051,1.611,2.209,3.163,3.33,4.728s2.257,3.1,3.4,4.644c2.037,2.748,4.077,5.5,6.158,8.209,2.006,2.612,4.042,5.2,6.058,7.8a62.938,62.938,0,0,1,6.1,9.175c-.026-.1-.052-.209-.077-.313a127.233,127.233,0,0,1-3.081-17.843,16.469,16.469,0,0,0-1.128-3.9c-1.362-2.346-2.864-4.6-4.319-6.889-1.4-2.207-2.777-4.43-3.975-6.754a39.017,39.017,0,0,1-2.931-7.413,51.634,51.634,0,0,1-1.509-8.164c-.151-1.358-.273-2.723-.359-4.087-.089-1.4-.132-2.8-.238-4.2-.027-.358.453-.584.634-.218,1.372,2.8,2.741,5.608,4.067,8.434a152.351,152.351,0,0,1,6.336,15.265,72.748,72.748,0,0,1,2.258,7.93c.239,1.077.462,2.159.708,3.238-.036-.983-.061-1.97-.069-2.954q-.025-3.275.141-6.575-.147-.678-.324-1.352a.881.881,0,0,1-.033-.1,57.175,57.175,0,0,0-3.1-8.015c-2.087-4.563-4.364-9.1-5.653-13.976a28.348,28.348,0,0,1-1-7.137,19.1,19.1,0,0,1,1.285-6.929c.1-.245.507-.326.615-.041,1.03,2.723,2.054,5.45,3.045,8.188a110.278,110.278,0,0,1,4.5,14.916,60.915,60.915,0,0,1,1.154,7.675c.011.143.019.287.03.43q.308-2.692.771-5.363a27.974,27.974,0,0,0-.369-4.342.3.3,0,0,1,.038-.214c-.2-2.058-.355-4.118-.395-6.183a38.487,38.487,0,0,1,.681-8.494,35.995,35.995,0,0,1,2.334-7.2,50.451,50.451,0,0,1,3.639-6.726c1.374-2.159,2.909-4.185,4.473-6.208.225-.29.762-.074.605.3a28.331,28.331,0,0,0-1.827,8.538c-.44,5.228-.127,10.558-1.385,15.693a24.488,24.488,0,0,1-1.216,3.711,34.581,34.581,0,0,1-1.846,3.631c-1.045,1.822-2.15,3.6-3.086,5.469a26.512,26.512,0,0,1,5.289-5.489c2.366-1.935,4.859-3.707,7.262-5.6a.309.309,0,0,1,.508.251,6.007,6.007,0,0,1-1.042,2.247c-.408.676-.817,1.35-1.242,2.015a23.708,23.708,0,0,1-5.472,6.333,29.327,29.327,0,0,1-3.9,2.222,5.992,5.992,0,0,0-2.441,2.095,103.357,103.357,0,0,0-.808,18.741,45.423,45.423,0,0,1,1.645-5.153A57.3,57.3,0,0,1,101.4,245.77c1.736-2.257,3.6-4.422,5.535-6.5.959-1.036,1.942-2.049,2.931-3.056s2.052-1.992,3.026-3.036c.241-.256.7.063.568.381-1.325,3.18-2.756,6.32-4.222,9.439q-1.945,4.143-4.161,8.15a86.83,86.83,0,0,1-4.808,7.8c-.876,1.253-1.8,2.472-2.77,3.649s-2.017,2.3-2.982,3.481a10.721,10.721,0,0,0-2.128,3.9,9.588,9.588,0,0,0-.29,1.491,130.837,130.837,0,0,0,2.755,16.636,33.987,33.987,0,0,1,.828-6.22,48.133,48.133,0,0,1,6.183-14.5c1.431-2.325,2.993-4.571,4.637-6.75.819-1.086,1.656-2.158,2.5-3.225s1.762-2.079,2.592-3.157a.357.357,0,0,1,.63.314,61.527,61.527,0,0,1-2.855,9.3,150.622,150.622,0,0,1-7.564,15.581q-1.016,1.905-2.037,3.811c-.288.535-.575,1.07-.856,1.609-.189.374-.373.751-.549,1.131a18.092,18.092,0,0,0-1.68,5.248,16.11,16.11,0,0,0,.2,4.651q1.753,6.06,3.969,11.969a36.575,36.575,0,0,1-.269-5.379,45.435,45.435,0,0,1,3.822-16.713,66.839,66.839,0,0,1,3.791-7.475c.712-1.216,1.455-2.42,2.233-3.6s1.611-2.32,2.4-3.491c.179-.269.69-.136.629.215q-.847,4.926-1.9,9.812c-1.239,5.807-2.737,11.551-4.435,17.24-.832,2.788-1.756,5.547-2.636,8.318a27.965,27.965,0,0,0-1.032,4.139c-.045.276-.079.552-.108.832,0,.2,0,.394,0,.591a12.9,12.9,0,0,0,.411,2.827q.916,2.188,1.877,4.355c.021.042.039.084.057.124a24.49,24.49,0,0,1-.027-6.258,37.288,37.288,0,0,1,5.585-14.821c1.384-2.267,2.926-4.441,4.52-6.566.775-1.035,1.564-2.06,2.422-3.025a18.247,18.247,0,0,1,1.344-1.368c.489-.446,1.016-.823,1.537-1.223.256-.2.679.027.55.367-1.067,2.822-2.195,5.624-3.333,8.422-2.014,4.961-4.1,9.892-6.162,14.833-1.007,2.409-2,4.827-2.889,7.282a17.685,17.685,0,0,0-1.435,6.96q2.059,4.353,4.339,8.592a23.165,23.165,0,0,1-.384-5.138,23.726,23.726,0,0,1,1.293-6.8,52.462,52.462,0,0,1,2.73-6.27q3.3-6.666,6.73-13.265c.189-.368.683-.1.685.235.008.754.057,1.5.061,2.26,0,.717-.04,1.438-.093,2.155a34.876,34.876,0,0,1-.609,4.362,34.4,34.4,0,0,1-2.426,7.446c-1.082,2.369-2.361,4.635-3.477,6.985a23.551,23.551,0,0,0-2.287,7.239,14.792,14.792,0,0,0,.283,5.25q1.4,2.386,2.9,4.718,1.934,2.99,4.064,5.851a35.2,35.2,0,0,1-.891-5.569,37.618,37.618,0,0,1,1.191-12.78,36.051,36.051,0,0,1,2.2-5.983q.69-1.462,1.515-2.854c.55-.924,1.161-1.8,1.769-2.682a.357.357,0,0,1,.647.223,53.073,53.073,0,0,1-.756,7.313c-.715,4.3-1.745,8.528-2.59,12.8-.417,2.114-.766,4.249-.975,6.395-.1,1.077-.166,2.154-.194,3.234-.022.786-.044,1.576-.022,2.364A83.772,83.772,0,0,0,133.7,361.1C134.322,361.645,133.351,362.491,132.739,361.951Z" transform="translate(-3.756 -32.911)" fill="#428c87"/>
        <g id="Grupo_1189561" data-name="Grupo 1189561" transform="translate(59.592 285.489)">
          <path id="Trazado_878759" data-name="Trazado 878759" d="M146.165,393.887c3.146-12.181-2.525-25.492-11.978-33.793s-22.079-12.2-34.583-13.58c-11.884-1.317-23.879-.57-35.841-.413a1.028,1.028,0,0,0-.851,1.589l17.3,26.628c3.907,6.012,7.852,12.072,12.907,17.157s11.367,9.19,18.434,10.4a33.827,33.827,0,0,0,16-1.517C133.629,398.4,139.337,395.208,146.165,393.887Z" transform="translate(-62.743 -345.748)" fill="#519b8e"/>
          <path id="Trazado_878760" data-name="Trazado 878760" d="M161.53,410.978a1.224,1.224,0,0,1-1.028-.556A131.475,131.475,0,0,0,78.9,354.349a1.228,1.228,0,0,1,.519-2.4,133.947,133.947,0,0,1,83.142,57.128,1.228,1.228,0,0,1-1.027,1.9Z" transform="translate(-65.689 -346.946)" fill="#2f7571"/>
        </g>
        <g id="Grupo_1189564" data-name="Grupo 1189564" transform="translate(241.97 165.888)">
          <g id="Grupo_1189562" data-name="Grupo 1189562">
            <path id="Trazado_878761" data-name="Trazado 878761" d="M317.717,353.877c16.846-13.094,34.511-27.63,40.573-48.086,5.149-17.374.944-36.107-4.946-53.245s-13.515-33.972-15.354-52c-.131-1.282-.484-2.873-1.742-3.155-1.1-.246-2.066.734-2.722,1.651-3.263,4.555-5.189,9.9-7.5,15.008-6.093,13.466-14.974,25.446-22.561,38.13s-14.034,26.63-14.42,41.4c-.295,11.262,2.993,22.424,8.2,32.412S309.532,344.889,317.717,353.877Z" transform="translate(-289.027 -197.354)" fill="#52afa4"/>
            <path id="Trazado_878762" data-name="Trazado 878762" d="M338.094,221.671a1.229,1.229,0,0,0-1.394,1.036c-2.632,17.838-4.128,36.094-5.574,53.748-.932,11.364-1.894,23.116-3.151,34.631-2.378,21.8-6.414,49.453-16.558,75.959a1.217,1.217,0,0,0,1.767,1.478l.034-.021a1.222,1.222,0,0,0,.505-.608c10.235-26.755,14.3-54.6,16.694-76.542,1.26-11.549,2.224-23.317,3.156-34.7,1.443-17.616,2.935-35.831,5.556-53.591A1.229,1.229,0,0,0,338.094,221.671Z" transform="translate(-293.355 -202.07)" fill="#2f7571"/>
          </g>
          <path id="Trazado_878763" data-name="Trazado 878763" d="M346,361.951q1.193-1.046,2.344-2.141a86.3,86.3,0,0,0,8.538-9.5,19.1,19.1,0,0,1,2.931-1.659,14.2,14.2,0,0,1,4.2-1.121,39.852,39.852,0,0,1,7.9.29,27.536,27.536,0,0,0,7.882-.115,23.444,23.444,0,0,0,6.919-2.652,33.757,33.757,0,0,0,3.117-2c1.019-.733,1.972-1.54,2.959-2.31a.341.341,0,0,0-.3-.6,83.48,83.48,0,0,1-8.3,2.007,31.193,31.193,0,0,1-7.573.327,34.32,34.32,0,0,0-7.483-.069,20.936,20.936,0,0,0-9.149,3.7q.862-1.233,1.691-2.49c.271-.353.526-.725.794-1.064.45-.571.877-1.156,1.306-1.742.2-.28.413-.556.631-.826a.592.592,0,0,0,.089-.082c.222-.252.452-.5.693-.729a14.777,14.777,0,0,1,7.105-3.461,46.39,46.39,0,0,1,8.619-.809,37.275,37.275,0,0,0,9.5-1.144,25.255,25.255,0,0,0,7.755-4.308,32.9,32.9,0,0,1,7.312-4.571.371.371,0,0,0-.049-.708,11.6,11.6,0,0,0-1.255-.239c-3.454-.445-6.825.76-9.975,2.037-1.573.636-3.13,1.315-4.745,1.839a24.323,24.323,0,0,1-4.741.982c-3.181.369-6.415.368-9.543,1.113a15.222,15.222,0,0,0-4.293,1.726,18.179,18.179,0,0,0-3.429,2.7c-.152.147-.293.3-.439.453q2.526-4.556,4.76-9.269c.055-.069.107-.139.162-.206a10.049,10.049,0,0,1,.854-.923,6.359,6.359,0,0,1,2.106-1.314.424.424,0,0,0,.1-.053,59.566,59.566,0,0,0,21.772-12.131,51.717,51.717,0,0,0,6.08-6.183q1.372-1.671,2.58-3.463c.8-1.193,1.516-2.439,2.224-3.689.189-.333-.273-.579-.516-.35a70.09,70.09,0,0,1-7.489,6.085c-4.643,3.317-9.548,6.247-14.286,9.423-2.5,1.676-4.951,3.438-7.3,5.319-1.209.966-2.4,1.967-3.577,2.964q-.5.422-.993.85.505-1.112,1-2.228a.387.387,0,0,0,.027-.048l.134-.318c.331-.754.656-1.51.981-2.266.008-.014.014-.031.021-.047.439-.81.823-1.653,1.245-2.471.671-1.292,1.39-2.557,2.172-3.779a22.78,22.78,0,0,1,5.956-5.354,89.659,89.659,0,0,1,8.048-4.451,53.441,53.441,0,0,0,8.177-4.869,33.372,33.372,0,0,0,6.473-6.765c.934-1.264,1.805-2.573,2.649-3.9s1.622-2.682,2.474-4c.193-.3-.229-.593-.49-.43-3.261,2-6.5,4.039-9.743,6.077-2.725,1.709-5.455,3.421-8.026,5.358a55.238,55.238,0,0,0-7.081,6.469c-2.166,2.325-4.2,4.776-6.22,7.222q-1.3,1.564-2.529,3.183,2.166-5.727,3.937-11.594a.233.233,0,0,0,.027-.055l.025-.072c.138-.395.269-.792.4-1.19a35.48,35.48,0,0,1,1.926-3.418,40.167,40.167,0,0,1,5.374-5.631c2.224-2,4.53-3.908,6.615-6.055a35.893,35.893,0,0,0,5.56-7.527,77.849,77.849,0,0,0,4.015-8.64c1.21-2.958,2.35-5.946,3.629-8.877a.312.312,0,0,0-.558-.28c-1.052,1.611-2.209,3.163-3.331,4.728s-2.256,3.1-3.4,4.644c-2.037,2.748-4.077,5.5-6.159,8.209-2.005,2.612-4.041,5.2-6.057,7.8a62.875,62.875,0,0,0-6.1,9.175c.025-.1.052-.209.077-.313a127.115,127.115,0,0,0,3.08-17.843,16.471,16.471,0,0,1,1.128-3.9c1.361-2.346,2.864-4.6,4.318-6.889,1.4-2.207,2.778-4.43,3.975-6.754a38.969,38.969,0,0,0,2.932-7.413,51.635,51.635,0,0,0,1.509-8.164c.151-1.358.273-2.723.359-4.087.089-1.4.132-2.8.238-4.2.027-.358-.453-.584-.634-.218-1.372,2.8-2.741,5.608-4.067,8.434a152.347,152.347,0,0,0-6.336,15.265,72.933,72.933,0,0,0-2.259,7.93c-.238,1.077-.461,2.159-.708,3.238.036-.983.061-1.97.069-2.954q.025-3.275-.141-6.575.147-.678.323-1.352a.633.633,0,0,0,.033-.1,57.284,57.284,0,0,1,3.1-8.015c2.087-4.563,4.364-9.1,5.653-13.976a28.387,28.387,0,0,0,1-7.137,19.08,19.08,0,0,0-1.286-6.929c-.094-.245-.506-.326-.614-.041-1.03,2.723-2.054,5.45-3.046,8.188a110.508,110.508,0,0,0-4.5,14.916,61.067,61.067,0,0,0-1.154,7.675c-.01.143-.019.287-.029.43q-.308-2.692-.771-5.363a27.876,27.876,0,0,1,.37-4.342.3.3,0,0,0-.039-.214c.2-2.058.355-4.118.4-6.183a38.489,38.489,0,0,0-.682-8.494,35.94,35.94,0,0,0-2.333-7.2,50.45,50.45,0,0,0-3.639-6.726c-1.375-2.159-2.909-4.185-4.473-6.208-.226-.29-.762-.074-.605.3a28.354,28.354,0,0,1,1.827,8.538c.44,5.228.127,10.558,1.385,15.693a24.4,24.4,0,0,0,1.216,3.711,34.581,34.581,0,0,0,1.846,3.631c1.044,1.822,2.15,3.6,3.086,5.469a26.511,26.511,0,0,0-5.289-5.489c-2.366-1.935-4.859-3.707-7.262-5.6a.31.31,0,0,0-.509.251,6,6,0,0,0,1.043,2.247c.407.676.816,1.35,1.242,2.015a23.694,23.694,0,0,0,5.472,6.333,29.275,29.275,0,0,0,3.9,2.222,6,6,0,0,1,2.441,2.095A103.431,103.431,0,0,1,387.1,265.1a45.585,45.585,0,0,0-1.645-5.153,57.3,57.3,0,0,0-8.115-14.174c-1.735-2.257-3.595-4.422-5.534-6.5-.959-1.036-1.942-2.049-2.931-3.056s-2.052-1.992-3.026-3.036c-.241-.256-.7.063-.567.381,1.324,3.18,2.756,6.32,4.222,9.439q1.945,4.143,4.161,8.15a86.83,86.83,0,0,0,4.808,7.8c.875,1.253,1.795,2.472,2.77,3.649s2.017,2.3,2.982,3.481a10.732,10.732,0,0,1,2.128,3.9,9.585,9.585,0,0,1,.29,1.491,130.837,130.837,0,0,1-2.755,16.636,33.918,33.918,0,0,0-.829-6.22,48.091,48.091,0,0,0-6.183-14.5c-1.431-2.325-2.992-4.571-4.636-6.75-.819-1.086-1.656-2.158-2.5-3.225s-1.762-2.079-2.592-3.157a.357.357,0,0,0-.63.314,61.613,61.613,0,0,0,2.854,9.3,150.791,150.791,0,0,0,7.565,15.581q1.016,1.905,2.036,3.811c.288.535.575,1.07.857,1.609.189.374.373.751.549,1.131a18.116,18.116,0,0,1,1.68,5.248,16.138,16.138,0,0,1-.2,4.651q-1.753,6.06-3.969,11.969a36.8,36.8,0,0,0,.269-5.379,45.436,45.436,0,0,0-3.822-16.713,66.975,66.975,0,0,0-3.791-7.475c-.712-1.216-1.455-2.42-2.233-3.6s-1.612-2.32-2.4-3.491c-.179-.269-.69-.136-.629.215.565,3.284,1.2,6.555,1.9,9.812,1.238,5.807,2.737,11.551,4.435,17.24.831,2.788,1.756,5.547,2.636,8.318a28.069,28.069,0,0,1,1.032,4.139c.044.276.078.552.107.832,0,.2,0,.394,0,.591a12.846,12.846,0,0,1-.411,2.827q-.916,2.188-1.876,4.355c-.021.042-.039.084-.057.124a24.454,24.454,0,0,0,.026-6.258,37.264,37.264,0,0,0-5.585-14.821c-1.383-2.267-2.926-4.441-4.52-6.566-.775-1.035-1.564-2.06-2.422-3.025a18.249,18.249,0,0,0-1.344-1.368c-.489-.446-1.016-.823-1.537-1.223-.256-.2-.678.027-.549.367,1.067,2.822,2.195,5.624,3.333,8.422,2.014,4.961,4.1,9.892,6.163,14.833,1.007,2.409,2,4.827,2.889,7.282a17.685,17.685,0,0,1,1.435,6.96q-2.059,4.353-4.339,8.592a23.261,23.261,0,0,0,.384-5.138,23.725,23.725,0,0,0-1.293-6.8,52.457,52.457,0,0,0-2.73-6.27q-3.3-6.666-6.731-13.265c-.189-.368-.682-.1-.684.235-.009.754-.058,1.5-.062,2.26,0,.717.041,1.438.094,2.155a34.741,34.741,0,0,0,3.034,11.807c1.082,2.369,2.361,4.635,3.476,6.985a23.53,23.53,0,0,1,2.287,7.239,14.755,14.755,0,0,1-.283,5.25q-1.4,2.386-2.9,4.718-1.936,2.99-4.065,5.851a35.2,35.2,0,0,0,.892-5.569,37.618,37.618,0,0,0-1.192-12.78,35.974,35.974,0,0,0-2.2-5.983q-.691-1.462-1.516-2.854c-.549-.924-1.161-1.8-1.769-2.682a.357.357,0,0,0-.647.223,53.072,53.072,0,0,0,.757,7.313c.715,4.3,1.745,8.528,2.59,12.8.418,2.114.766,4.249.976,6.395.1,1.077.165,2.154.194,3.234.022.786.043,1.576.022,2.364A83.771,83.771,0,0,1,345.043,361.1C344.422,361.645,345.393,362.491,346,361.951Z" transform="translate(-299.857 -198.799)" fill="#428c87"/>
          <g id="Grupo_1189563" data-name="Grupo 1189563" transform="translate(15.659 119.6)">
            <path id="Trazado_878764" data-name="Trazado 878764" d="M325.178,393.887c-3.146-12.181,2.525-25.492,11.978-33.793s22.078-12.2,34.582-13.58c11.885-1.317,23.88-.57,35.841-.413a1.028,1.028,0,0,1,.852,1.589l-17.3,26.628c-3.907,6.012-7.853,12.072-12.907,17.157s-11.367,9.19-18.434,10.4a33.832,33.832,0,0,1-16-1.517C337.714,398.4,332.005,395.208,325.178,393.887Z" transform="translate(-311.531 -345.748)" fill="#519b8e"/>
            <path id="Trazado_878765" data-name="Trazado 878765" d="M309.683,410.978a1.224,1.224,0,0,0,1.029-.556,131.473,131.473,0,0,1,81.605-56.072,1.228,1.228,0,1,0-.518-2.4,133.945,133.945,0,0,0-83.142,57.128,1.228,1.228,0,0,0,1.026,1.9Z" transform="translate(-308.456 -346.946)" fill="#2f7571"/>
          </g>
        </g>
        <g id="Grupo_1189566" data-name="Grupo 1189566" transform="translate(108.126 267.393)">
          <path id="Trazado_878766" data-name="Trazado 878766" d="M178.456,351.511c-.754.372-1.506.721-2.223,1.165a15.844,15.844,0,0,0-1.969,1.446,17.25,17.25,0,0,0-2.719,2.934c.8-2.644,1.517-5.309,2.079-8.02.259-1.248.416-2.507.625-3.764.057-.342-.4-.658-.677-.4a16.635,16.635,0,0,0-5.171,12.763,15.442,15.442,0,0,0,.181,1.832,46.174,46.174,0,0,1-4.605-9.355,40.838,40.838,0,0,1-1.538-5.4c-.1-.468-.841-.381-.742.091a46.959,46.959,0,0,0,8.148,18.622,44.646,44.646,0,0,0,3.7,4.355.649.649,0,0,0,.883.119.634.634,0,0,0,.119-.883,47.832,47.832,0,0,1-4.394-5.246,41.044,41.044,0,0,0,4.658-4.292,35.232,35.232,0,0,0,4.146-5.309C179.161,351.846,178.881,351.3,178.456,351.511Z" transform="translate(-130.475 -327.392)" fill="#165952"/>
          <path id="Trazado_878767" data-name="Trazado 878767" d="M168.955,374.285a37.849,37.849,0,0,0-5.007-2.5,52.133,52.133,0,0,0-5.256-1.9,56.064,56.064,0,0,0-10.965-2.153,51.714,51.714,0,0,0-6.291-.2c-.666.019-.538,1.053.127,1.03a51.144,51.144,0,0,1,12.028,1.009,24.8,24.8,0,0,0-12.056,10.386,24.431,24.431,0,0,0-1.971,4.286.462.462,0,0,0,.7.546c4.429-3.339,8.923-6.747,12.412-11.105a30.041,30.041,0,0,0,2.525-3.758,51.23,51.23,0,0,1,7.727,2.5c1.9.787,3.72,1.728,5.556,2.653C168.95,375.319,169.411,374.564,168.955,374.285Zm-27.06,8.077.422-.375c.025.008.051.02.076.026-.206.16-.412.321-.619.48Z" transform="translate(-126.177 -331.875)" fill="#165952"/>
          <g id="Grupo_1189565" data-name="Grupo 1189565">
            <path id="Trazado_878768" data-name="Trazado 878768" d="M165.643,330.185c-.854-1.633-3.238-.5-4.4.077-.283.139-.556.292-.825.45.136-.26.268-.521.393-.787a7.55,7.55,0,0,0,.991-4.4,2.7,2.7,0,0,0-1.027-1.793,2.507,2.507,0,0,0-2.451-.21,5.178,5.178,0,0,0-2.011,1.734,15.639,15.639,0,0,0-1.448,2.389c-.066.134-.126.271-.187.407-.1-.621-.213-1.239-.351-1.852a2.314,2.314,0,0,0-1.041-1.739c-1.3-.654-2.222.745-2.469,1.835a13,13,0,0,0-.182,2.147q-.064,1.192-.081,2.385c-.017,1.235,0,2.466.085,3.694a12.511,12.511,0,0,0-2.01-1.313,11.815,11.815,0,0,0-3.77-1.194c-1.106-.153-2.776-.231-3.241,1.074-.522,1.467,1.1,2.558,2.13,3.243q.474.317.964.609c-.143.006-.286.014-.429.026a12.558,12.558,0,0,0-1.987.331,7.023,7.023,0,0,0-1.855.646,1.625,1.625,0,0,0-.924,1.4,1.676,1.676,0,0,0,.97,1.385,6.585,6.585,0,0,0,1.86.6c.411.089.826.154,1.244.2a9.677,9.677,0,0,0-2.537,2.272,2.184,2.184,0,0,0-.522,1.662,2.444,2.444,0,0,0-1.163-.007,4.1,4.1,0,0,0-2.492,1.857,17.427,17.427,0,0,0-.857,1.7,10.016,10.016,0,0,0-1.007-4.428c-.432-.874-1.331-1.842-2.4-1.329-.969.465-.986,1.742-1,2.664,0,.21,0,.419.009.627q-.178-.152-.366-.292a5.581,5.581,0,0,0-3.512-1.21,2.029,2.029,0,0,0-1.632,2.649,7.417,7.417,0,0,0,1.793,3.181,11.314,11.314,0,0,0,1.124,1.126q-.485,0-.97.04a7.683,7.683,0,0,0-3.231.779,2.456,2.456,0,0,0-1.261,2.653c.309,1.208,1.576,1.5,2.645,1.713.24.046.482.082.725.114a9.454,9.454,0,0,0-2.724,2.7,9.868,9.868,0,0,0-.9,1.677,2.717,2.717,0,0,0-.157,2.247c.627,1.245,2.345,1.374,3.566,1.281a6.487,6.487,0,0,0,1.9-.448,12.224,12.224,0,0,0-.517,1.748c-.3,1.381-.56,3.239.44,4.406a2.315,2.315,0,0,0,1.967.866,3.262,3.262,0,0,0,1.9-1.182,13.665,13.665,0,0,0,2.427-3.419,13.807,13.807,0,0,0,.584-1.353c.076.176.158.349.249.517a6.907,6.907,0,0,0,1.175,1.589,2.416,2.416,0,0,0,1.879.881c1.38-.107,2.295-1.575,2.669-2.768a8.053,8.053,0,0,0,.164-3.826,18.472,18.472,0,0,0-.953-3.3,6.267,6.267,0,0,0,4.35-3,5.854,5.854,0,0,0,.858-3.25,3.437,3.437,0,0,0-.44-1.676,1.635,1.635,0,0,0-1.841-.664,6.693,6.693,0,0,0-1.213.41,4.8,4.8,0,0,0-.16-4c.106.007.213.011.318.008a4.778,4.778,0,0,0,1.862-.555,19.716,19.716,0,0,0,2.12-1.151,20.521,20.521,0,0,0,2.815-2.129c-.123.984-.259,1.967-.318,2.958-.085,1.424.169,2.97,1.48,3.782a2.389,2.389,0,0,0,1.976.307,2.518,2.518,0,0,0,1.42-1.254,6.805,6.805,0,0,0,.618-1.884,18.014,18.014,0,0,0,.351-2.254,18.356,18.356,0,0,0,.066-2.124c.139.154.284.3.438.447a6.21,6.21,0,0,0,3.569,1.691,2.263,2.263,0,0,0,2.409-2.261A4.877,4.877,0,0,0,160.119,339a8.049,8.049,0,0,0-1.809-1.689,11.274,11.274,0,0,0,5.749-3.037,7.308,7.308,0,0,0,1.239-1.755A2.647,2.647,0,0,0,165.643,330.185Z" transform="translate(-122.961 -323.296)" fill="#fff"/>
          </g>
          <path id="Trazado_878769" data-name="Trazado 878769" d="M161.8,338.9a1.417,1.417,0,0,0-1.437-.428,2.124,2.124,0,0,0-.791.359,3.371,3.371,0,0,0-.6.565,3.438,3.438,0,0,0-.446.7c-.006.013-.007.027-.013.039a1.37,1.37,0,0,0-.167.62.956.956,0,0,0,.87.966,2.472,2.472,0,0,0,.959-.136,3.028,3.028,0,0,0,1.325-.882,2.165,2.165,0,0,0,.437-.684A1.164,1.164,0,0,0,161.8,338.9Z" transform="translate(-129.827 -326.231)" fill="#f0d689"/>
          <path id="Trazado_878770" data-name="Trazado 878770" d="M138.278,362.926a1.252,1.252,0,0,0-.881-.106,1.137,1.137,0,0,0-.683.229,2.377,2.377,0,0,0-.705,1.166c-.02.062-.038.124-.056.187a3.263,3.263,0,0,0-.189.9c-.006.113-.01.228-.008.343a1.84,1.84,0,0,0,.28,1.2.971.971,0,0,0,.264.239,1.246,1.246,0,0,0,.7.343l.02,0a1.383,1.383,0,0,0,1.008-.261,2.985,2.985,0,0,0,1.173-1.983A2.144,2.144,0,0,0,138.278,362.926Z" transform="translate(-125.443 -330.958)" fill="#f0d689"/>
        </g>
        <g id="Grupo_1189569" data-name="Grupo 1189569" transform="translate(264.276 272.633)">
          <path id="Trazado_878771" data-name="Trazado 878771" d="M347.946,357.347a19.639,19.639,0,0,0-13.163,2.936,55.47,55.47,0,0,0,.565-7.586.524.524,0,0,0-.435-.57.51.51,0,0,0-.57.435,57.191,57.191,0,0,1-2.989,17.3,59.4,59.4,0,0,1-2.875,7.063,26.828,26.828,0,0,0-5.654-16.613.448.448,0,0,0-.789.21,17.228,17.228,0,0,0-.05,8.455,14.48,14.48,0,0,0,2.7,6.635,13.616,13.616,0,0,0,2.969,2.935,54.541,54.541,0,0,1-4.274,6.873q-1.45,1.979-3.068,3.828c-.348.4-.707.784-1.07,1.169-.291.293-.579.59-.864.889-.521.511-1.068.995-1.568,1.526a.387.387,0,0,0-.1.375.48.48,0,0,0,.777.3,20.691,20.691,0,0,0,1.615-1.62q.585-.62,1.159-1.252a55.682,55.682,0,0,1,5.394-4.429,53.794,53.794,0,0,1,9.465-5.508,53.172,53.172,0,0,1,5.848-2.225c.629-.2.241-1.145-.382-.948a53.455,53.455,0,0,0-16.782,8.833,60.151,60.151,0,0,0,4.532-7.026,56.513,56.513,0,0,0,6.045-16.682c.019-.1.035-.2.054-.3l.139.042a7.131,7.131,0,0,0,.708.162,8.918,8.918,0,0,0,4.658.226,14.5,14.5,0,0,0,5.286-2.428c1.007-.7,1.943-1.482,2.922-2.216A.446.446,0,0,0,347.946,357.347Z" transform="translate(-316.703 -334.13)" fill="#165952"/>
          <path id="Trazado_878772" data-name="Trazado 878772" d="M346.279,334.265c-.131-.505-.758-.51-1.107-.3a12.9,12.9,0,0,0-2.432,1.874,7.545,7.545,0,0,0-.089-3.51,2.145,2.145,0,0,0-2.951-1.464,3.877,3.877,0,0,0-1.644,1.7c-.043-.251-.09-.5-.146-.75a2.918,2.918,0,0,0-.839-1.643A1.569,1.569,0,0,0,335.3,330a3.088,3.088,0,0,0-1.223,1.432,7.894,7.894,0,0,0-.741,2.869A6.511,6.511,0,0,0,331,331.8a2.224,2.224,0,0,0-1.853-.333,1.608,1.608,0,0,0-1.023,1.352,3.912,3.912,0,0,0,.239,1.634q.307.99.71,1.948a18.782,18.782,0,0,0,.853,1.761c-.293-.139-.59-.267-.895-.379a5.789,5.789,0,0,0-3.819-.295,1.7,1.7,0,0,0-1.117,1.319,2.229,2.229,0,0,0,.379,1.462,4.943,4.943,0,0,0,2.326,1.825,3.645,3.645,0,0,0-2.017,1.116,1.917,1.917,0,0,0,.446,2.716,4.871,4.871,0,0,0,3.05.929q.569.013,1.128-.028c-.218.219-.429.448-.629.689a10.473,10.473,0,0,0-1.09,1.618,2.9,2.9,0,0,0-.467,1.72c.156,1.262,1.49,1.684,2.59,1.547a6.487,6.487,0,0,0,3.229-1.56,8.671,8.671,0,0,0,.965-.966,9.642,9.642,0,0,0,.142,1.04,7.758,7.758,0,0,0,1.356,3.369,2,2,0,0,0,2.939.5c.922-.879.762-2.323.581-3.461-.069-.434-.152-.865-.244-1.294a7.87,7.87,0,0,0,2.963,1.613c1.127.322,2.726.613,3.732-.164,1.161-.9.571-2.342-.225-3.242q-.4-.451-.82-.885c.065.012.131.028.2.039a6.744,6.744,0,0,0,3.847-.343,2.893,2.893,0,0,0,1.459-1.342,2.27,2.27,0,0,0-.148-2.1,5.52,5.52,0,0,0-3.439-2.127,11.53,11.53,0,0,0-2.176-.372,7.489,7.489,0,0,0,1.5-1.931A6.749,6.749,0,0,0,346.279,334.265Z" transform="translate(-318.134 -329.798)" fill="#fff"/>
          <g id="Grupo_1189568" data-name="Grupo 1189568" transform="translate(16.01 28.229)">
            <g id="Grupo_1189567" data-name="Grupo 1189567">
              <path id="Trazado_878773" data-name="Trazado 878773" d="M359.415,378.137a6.415,6.415,0,0,0-2.569-1.355,9.121,9.121,0,0,0-1.045-.243,6.8,6.8,0,0,0,.593-.68,5.2,5.2,0,0,0,1.115-2.765,2.577,2.577,0,0,0-1.3-2.6,2.527,2.527,0,0,0-2.594.5,3.232,3.232,0,0,0-.336.309,7.8,7.8,0,0,0-.425-3.717,2.9,2.9,0,0,0-2.139-2.027c-1.09-.1-1.576.783-1.873,1.691-.042-.138-.086-.278-.133-.413a3.273,3.273,0,0,0-1-1.7,1.933,1.933,0,0,0-2.685.715,5.806,5.806,0,0,0-.911,3.195,11.023,11.023,0,0,0,.012,1.178c-.218-.257-.446-.509-.682-.75a17.227,17.227,0,0,0-1.417-1.3,3.157,3.157,0,0,0-1.522-.864c-1.235-.135-1.716,1.1-1.612,2.13a7.111,7.111,0,0,0,1.4,3.059q.288.422.613.816a3.681,3.681,0,0,0-3.577,1.169,3.038,3.038,0,0,0-.629,2.851c.424,1.212,1.729,1.513,2.851,1.714.231.039.459.075.689.109a5.453,5.453,0,0,0-1.524,1.341,1.647,1.647,0,0,0,.155,2.445,5.039,5.039,0,0,0,2.9.561c.139,0,.282-.015.423-.026a.329.329,0,0,0-.028.043,2.756,2.756,0,0,0-.212,2.714,3.49,3.49,0,0,0,2.053,1.687,3.789,3.789,0,0,0,3-.342,4.856,4.856,0,0,0,1.277-1.045,7.025,7.025,0,0,0,1.371,3.64c.595.776,1.593,1.5,2.586.959,1.024-.556,1.132-1.917,1.141-2.953,0-.2-.006-.393-.017-.588l.137.127a7.141,7.141,0,0,0,2.7,1.6,1.967,1.967,0,0,0,1.71-.156,1.922,1.922,0,0,0,.772-1.273,4.719,4.719,0,0,0-.662-2.973,8.974,8.974,0,0,0-1.3-1.863,4.7,4.7,0,0,0,1.511-.332,3.346,3.346,0,0,0,1.853-1.887A2.447,2.447,0,0,0,359.415,378.137Z" transform="translate(-336.568 -364.822)" fill="#fff"/>
            </g>
          </g>
          <path id="Trazado_878774" data-name="Trazado 878774" d="M340.336,345.327a5.22,5.22,0,0,0-1.31-.5,1.855,1.855,0,0,0-1.236.049c-.08,0-.16,0-.24,0a.767.767,0,0,0-.609.466l-.118.238a.759.759,0,0,0,.1.75,3.13,3.13,0,0,0,1.159.991,3.328,3.328,0,0,0,.888.409,3.46,3.46,0,0,0,1.371.131,1.239,1.239,0,0,0,.971-.572,1.076,1.076,0,0,0,.118-.325c.009-.023.02-.044.027-.07a.738.738,0,0,0-.106-.625A2.166,2.166,0,0,0,340.336,345.327Z" transform="translate(-320.595 -332.697)" fill="#f0d689"/>
          <path id="Trazado_878775" data-name="Trazado 878775" d="M352.743,379.712a3.1,3.1,0,0,0-.832-.7,1.974,1.974,0,0,0-.625-.308,1.185,1.185,0,0,0-1.323.505,1.746,1.746,0,0,0-.146.313,1.547,1.547,0,0,0-.161.43,2.629,2.629,0,0,0,.1,1.193,2.976,2.976,0,0,0,.213.565,2.5,2.5,0,0,0,.573.85,2.158,2.158,0,0,0,.949.7,1.4,1.4,0,0,0,1.3-.172,1.352,1.352,0,0,0,.2-.183,1.806,1.806,0,0,0,.467-2.138,2.848,2.848,0,0,0-.135-.272A2.725,2.725,0,0,0,352.743,379.712Z" transform="translate(-323.091 -339.279)" fill="#f0d689"/>
        </g>
        <g id="Grupo_1189570" data-name="Grupo 1189570" transform="translate(105.254 102.324)">
          <path id="Trazado_878776" data-name="Trazado 878776" d="M185.989,118.562a8.359,8.359,0,0,0,4.877,5.4.1.1,0,0,1,0,.189,8.356,8.356,0,0,0-4.877,5.4.1.1,0,0,1-.2,0,8.354,8.354,0,0,0-4.877-5.4.1.1,0,0,1,0-.189,8.357,8.357,0,0,0,4.877-5.4A.1.1,0,0,1,185.989,118.562Z" transform="translate(-131.321 -118.488)" fill="#fff"/>
          <path id="Trazado_878777" data-name="Trazado 878777" d="M379.338,184.5a4.179,4.179,0,0,0,2.438,2.7.051.051,0,0,1,0,.094,4.179,4.179,0,0,0-2.438,2.7.051.051,0,0,1-.1,0,4.178,4.178,0,0,0-2.439-2.7.051.051,0,0,1,0-.094,4.178,4.178,0,0,0,2.439-2.7A.051.051,0,0,1,379.338,184.5Z" transform="translate(-169.335 -131.289)" fill="#fff"/>
          <path id="Trazado_878778" data-name="Trazado 878778" d="M122.858,182.6a5.633,5.633,0,0,0,3.286,3.641.069.069,0,0,1,0,.127,5.632,5.632,0,0,0-3.286,3.641.069.069,0,0,1-.132,0,5.632,5.632,0,0,0-3.286-3.641.069.069,0,0,1,0-.127,5.633,5.633,0,0,0,3.286-3.641A.069.069,0,0,1,122.858,182.6Z" transform="translate(-119.397 -130.918)" fill="#fff"/>
          <path id="Trazado_878779" data-name="Trazado 878779" d="M138.822,170.672a6.81,6.81,0,0,0,3.974,4.4.083.083,0,0,1,0,.154,6.812,6.812,0,0,0-3.974,4.4.083.083,0,0,1-.16,0,6.813,6.813,0,0,0-3.975-4.4.083.083,0,0,1,0-.154,6.812,6.812,0,0,0,3.975-4.4A.083.083,0,0,1,138.822,170.672Z" transform="translate(-122.353 -128.602)" fill="#fff"/>
          <path id="Trazado_878780" data-name="Trazado 878780" d="M382.113,160.932a6.81,6.81,0,0,0,3.974,4.4.083.083,0,0,1,0,.154,6.808,6.808,0,0,0-3.974,4.4.083.083,0,0,1-.16,0,6.812,6.812,0,0,0-3.975-4.4.083.083,0,0,1,0-.154,6.813,6.813,0,0,0,3.975-4.4A.083.083,0,0,1,382.113,160.932Z" transform="translate(-169.56 -126.712)" fill="#fff"/>
        </g>
        <g id="Grupo_1189577" data-name="Grupo 1189577" transform="translate(113.201 38.5)">
          <g id="Grupo_1189575" data-name="Grupo 1189575" transform="translate(0 0)">
            <path id="Trazado_878781" data-name="Trazado 878781" d="M263.32,206.65c12.874,1.515,26.454-1.459,36.794-9.275,2.682-2.028,5.207-4.465,6.453-7.587" transform="translate(-155.27 -68.498)" fill="none" stroke="#3675a0" stroke-linecap="round" stroke-miterlimit="10" stroke-width="5"/>
            <path id="Trazado_878782" data-name="Trazado 878782" d="M238.145,196.685" transform="translate(-150.386 -69.836)" fill="none" stroke="#3675a0" stroke-linecap="round" stroke-miterlimit="10" stroke-width="5"/>
            <g id="Grupo_1189571" data-name="Grupo 1189571" transform="translate(0 228.874)">
              <path id="Trazado_878783" data-name="Trazado 878783" d="M206.992,348.548c8.511-.973,16.654-3.9,24.883-6.275,9.8-2.832,19.878-4.916,30.075-5.123a67.549,67.549,0,0,1,24.5,3.794c.894-2.619,2.1-5.231,1.382-7.84A8.582,8.582,0,0,0,285,329.082c-6.108-5.311-14.929-5.784-23.024-5.808a535.157,535.157,0,0,0-55.43,2.717c-3.281.331-7.024,1.444-6.859,3.6.513,6.685-3.14,13.076-7.84,17.859-.047.048-.1.093-.142.14A40.776,40.776,0,0,0,206.992,348.548Z" transform="translate(-141.375 -323.272)" fill="#d1b066"/>
              <path id="Trazado_878784" data-name="Trazado 878784" d="M278.895,365.619c-3.337-6.111-6.783-12.987-5.055-19.732.137-.535.306-1.07.489-1.6a67.548,67.548,0,0,0-24.5-3.794c-10.2.206-20.277,2.291-30.075,5.123-8.229,2.378-16.372,5.3-24.883,6.275a40.776,40.776,0,0,1-15.287-.959c-4.674,4.712-10.367,8.272-15.468,12.521-18.349,15.28-28,38.507-34.862,61.377,36.369,14.2,77.369,10.316,115.224.766,20.269-5.114,40.706-11.843,61.551-10.268Z" transform="translate(-129.258 -326.609)" fill="#e4cb8e"/>
            </g>
            <path id="Trazado_878785" data-name="Trazado 878785" d="M320.433,298.513a66.536,66.536,0,0,1-4.405,17.159,38.054,38.054,0,0,0-2.661,7.664c-.479,2.766-.194,5.749-1.5,8.234a2.715,2.715,0,0,1-2.367,1.71,3.511,3.511,0,0,1-1.3-.5c-3.615-1.906-7.681-2.756-11.7-3.486a256.6,256.6,0,0,0-25.8-3.35c1.171-3.475,5.219-4.886,8.737-5.921q6.513-1.916,12.908-4.2c7.256-2.6,14.676-5.752,19.671-11.622a58.77,58.77,0,0,0,4.073-5.742c.719-1.085,1.623-2.266,2.919-2.379S321.461,297.863,320.433,298.513Z" transform="translate(-156.7 -89.121)" fill="#35819b"/>
            <path id="Trazado_878786" data-name="Trazado 878786" d="M180.252,302.581c-1.541,6.944-2.685,14.066-2.091,21.154a14.816,14.816,0,0,0,2.208,7.4c3.387,4.8,10.3,5.053,16.17,4.692,20.117-1.238,40.1-4.019,60.066-6.8,8.077-1.124,16.251-2.274,23.8-5.362,2.381-.974,5-2.574,5.2-5.139.16-2.018-1.363-3.862-3.188-4.739a16.009,16.009,0,0,0-5.927-1.131C244.54,310.527,213.091,300.973,180.252,302.581Z" transform="translate(-138.716 -90.348)" fill="#f5b08e"/>
            <path id="Trazado_878787" data-name="Trazado 878787" d="M239.36,112.564c-.073,9.188-5.744,18.082-3.878,27.079a15.235,15.235,0,0,0,6.083,9.419,12.834,12.834,0,0,0,10.953,1.784c2.192-.692,4.293-2.047,6.582-1.834,2.831.264,4.829,2.782,7.224,4.317a11.519,11.519,0,0,0,13.212-.824c1.117-.93,2.1-2.108,3.474-2.59,2.7-.947,5.4,1.132,7.916,2.494a17.009,17.009,0,0,0,23.2-7.128c-1.707.3-3.044-1.423-3.782-2.991a26.486,26.486,0,0,1-2.316-8c-.754-6.086.621-12.227.625-18.36,0-3.7-.577-7.6-2.839-10.532-3.143-4.077-8.685-5.322-13.789-5.987-12.5-1.628-25.34-1.419-37.541,1.744a28.215,28.215,0,0,0-9.315,3.885C242.4,106.985,239.381,109.792,239.36,112.564Z" transform="translate(-149.796 -50.767)" fill="#7a173a"/>
            <path id="Trazado_878788" data-name="Trazado 878788" d="M312.841,127.682a5.6,5.6,0,0,0,5.168.373c-2.67.213-5.212-1.563-6.552-3.882a15.389,15.389,0,0,1-1.66-7.766c.011-6.024,1.539-11.928,2.349-17.9,1.107-8.154.837-16.633-1.992-24.36a39.709,39.709,0,0,0-2.628-5.7,43.526,43.526,0,0,1,4.193,7.929A37.188,37.188,0,0,1,314.423,92.8c-.445,6.115-2.746,11.874-3.638,17.909a25.484,25.484,0,0,0,.057,8.885c.467,2.245,1.391,4.681,3.354,6.038a5.242,5.242,0,0,0,1.456.7c.258.078.432-.3.169-.393-2.278-.779-3.533-3.092-4.14-5.285a22.967,22.967,0,0,1-.409-8.955c.762-6.063,3.048-11.828,3.664-17.914A36.872,36.872,0,0,0,312.721,77.5a46.439,46.439,0,0,0-8.268-14q-.617-.727-1.259-1.431a52.419,52.419,0,0,0-7.481-7.5,78.84,78.84,0,0,0-21.362-12.024c-5.453-2.144-11.315-3.914-17.105-3.013s-11.421,5.181-10.586,11.21a19.855,19.855,0,0,0-12.548.48q-.335.094-.667.2a25.986,25.986,0,0,0-10.254,6.141,32.7,32.7,0,0,0-6.839,9.755,42.149,42.149,0,0,0-3.475,12.347q-.235,1.8-.349,3.611a115.756,115.756,0,0,0-1.94,13.6c-.452,5.471-.585,11.2-2.133,16.386a24.069,24.069,0,0,1-5.493,8.22,12.933,12.933,0,0,1-5.178,2.993c-.323.093-.122.574.2.484a15.375,15.375,0,0,0,8.041-6.135c-.1.159-.2.318-.3.476a19.638,19.638,0,0,1-9,7.419c2.42,1.722,5.891,1.378,8.393-.224a15.222,15.222,0,0,0,5.356-6.96,13.907,13.907,0,0,0,2.908,12.536,12.928,12.928,0,0,0,11.792,4.326,16.672,16.672,0,0,0,19.12,3.282,10.958,10.958,0,0,1-11.535-5.578c-1.553-3.022-1.575-6.578-1.448-9.975a152.444,152.444,0,0,1,2.383-21.743c.47-2.569,1.053-5.228,2.669-7.279,1.934-2.451,5.086-3.656,8.182-4.052,7.591-.97,15.026,2.24,22.006,5.377L290.1,107.015a7.549,7.549,0,0,1,2.016,1.17c1.759,1.585,1.643,4.325,1.435,6.684-.384,4.345-.6,8.791.52,13.006s3.786,8.222,7.783,9.967a12.888,12.888,0,0,0,10.59-.414,17.811,17.811,0,0,0,7.659-7.555A7.284,7.284,0,0,1,312.841,127.682ZM223.5,58.3c-5.257,5.731-8.159,13.2-10.033,20.781a42.346,42.346,0,0,1,2.714-10.088,33.274,33.274,0,0,1,6.216-9.9,26.832,26.832,0,0,1,4.44-3.861A26.877,26.877,0,0,0,223.5,58.3Z" transform="translate(-142.349 -39.298)" fill="#a1375a"/>
            <path id="Trazado_878789" data-name="Trazado 878789" d="M263.3,63.729c1.717,2.548,1.1,6.87,1.1,9.943,0,2.945-.312,2.687.845,5.534,1.1,2.713,3.629,4.031,6.5,4.6a4.838,4.838,0,0,1-2.908-2.958,11.741,11.741,0,0,1-.609-4.223,43.269,43.269,0,0,1,1.34-10.877c.722,5.011,1.8,10.129,4.646,14.318s7.826,7.271,12.834,6.53a19.84,19.84,0,0,1-9.664-15.167,16.012,16.012,0,0,0,7.333,9.494c1.542.891,3.221,1.516,4.829,2.283a24.644,24.644,0,0,1,9.518,7.764,16.407,16.407,0,0,1,3.19,11.669c-2.233,6.26-1.061,11.242-2.428,16.707a37.478,37.478,0,0,1-7.231,15.114,29.337,29.337,0,0,1-7.9,6.576c.365,3.439,0,6.91.061,10.369s.6,7.047,2.545,9.906,5.592,4.778,8.921,3.84a59.72,59.72,0,0,1-21.057,11.4c-6.288,1.9-13.039,2.747-19.445,1.29S243.3,172.4,240.395,166.5a25.635,25.635,0,0,0,8.185-3.006,6.487,6.487,0,0,0,2.515-2.207,7.17,7.17,0,0,0,.716-3.09,123.946,123.946,0,0,0-.116-19.23,25.4,25.4,0,0,1-8.308-11.1,86.761,86.761,0,0,1-3.921-13.472,3.167,3.167,0,0,0-.854-1.772,4.06,4.06,0,0,0-2.135-.592c-4.129-.566-6.982-4.549-8.16-8.546a14.993,14.993,0,0,1-.375-7.876,9.238,9.238,0,0,1,4.727-6.113c1.863-.89,3.988-.986,6.026-1.314A28.449,28.449,0,0,0,255.4,78.629C259.693,73.68,262.348,70.734,263.3,63.729Z" transform="translate(-148.335 -44.038)" fill="#fcd2bd"/>
            <g id="Grupo_1189572" data-name="Grupo 1189572" transform="translate(26.574 114.082)">
              <path id="Trazado_878790" data-name="Trazado 878790" d="M199.343,259.872c2.251,4.016,4.862,8.194,9.2,9.892a54.847,54.847,0,0,0,24.684,1.8c3.765-.592,7.458-1.575,11.18-2.394a147.123,147.123,0,0,1,36.068-3.161,97.744,97.744,0,0,1,.712-9.779,1.9,1.9,0,0,1,1.864-2.087c10.362-2.087,21.43-3.433,31.369-.2a357.174,357.174,0,0,0,7.906-46.182c.434-4.4.764-8.87-.069-13.21s-2.968-8.594-6.594-11.122c-4.2-2.929-9.825-3.138-14.765-1.787s-8.346,1.273-12.727,3.923c-8.241,4.984-17.926,12.714-27.5,13.77-9.238,1.018-19.584-2.487-24.156-10.48a1,1,0,0,0-1.35-.388c-10.227,5.725-20.956,7.55-28.676,14.065-6.645,5.606-10.279,14.135-11.63,22.723s-.643,17.351.068,26.015c-.107-.221,1.348,2.765,2.822,5.612C198.3,257.961,198.863,259.017,199.343,259.872Z" transform="translate(-168.412 -180.845)" fill="#438aab"/>
              <path id="Trazado_878791" data-name="Trazado 878791" d="M276.865,269.523A1.9,1.9,0,0,0,275,271.609a97.743,97.743,0,0,0-.712,9.779,147.123,147.123,0,0,0-36.068,3.161c-3.723.819-7.415,1.8-11.18,2.394a54.848,54.848,0,0,1-24.684-1.8c-4.334-1.7-6.945-5.876-9.2-9.892-1.747-3.118-2.849-5.574-4.455-8.768a13.591,13.591,0,0,0-6.688-3.47c-2.752-.405-5.726-.32-8.058-1.837-.993-.646-2.234-1.589-3.186-.75a1.674,1.674,0,0,0-.334,2.017,26.224,26.224,0,0,0,3.435,5.122l-7,3.505c-1.943.973-4.1,2.211-4.555,4.335-.667,3.114,2.737,5.707,3.014,8.88.176,2.01-.927,3.875-1.729,5.727s-1.262,4.181.006,5.751a6.209,6.209,0,0,0,2.935,1.707,69.544,69.544,0,0,0,29.855,3.417c22.977,6.6,46.814,10.538,70.586,14.465,7.351,1.214,15.328,2.335,21.9-1.179,7.924-4.238,11.181-13.729,13.585-22.387,2.066-7.446,4.01-14.933,5.77-22.461C298.295,266.089,287.227,267.435,276.865,269.523Z" transform="translate(-162.23 -196.221)" fill="#fcd2bd"/>
            </g>
            <path id="Trazado_878792" data-name="Trazado 878792" d="M230.77,365.545a3.154,3.154,0,0,1-2.435-1.207,2.041,2.041,0,0,1-.1-2.64,2.373,2.373,0,0,1,1.394-.613,2.3,2.3,0,0,0,.629-.172h0a1.534,1.534,0,0,1,1.2-.044,2.722,2.722,0,0,1,1.568,1.29,2.2,2.2,0,0,1,.052,1.808,2.5,2.5,0,0,1-1.442,1.43A2.545,2.545,0,0,1,230.77,365.545Zm.073-3.494a3.38,3.38,0,0,1-.982.291,1.394,1.394,0,0,0-.7.236c-.189.2-.056.671.179.973a1.754,1.754,0,0,0,1.86.645,1.225,1.225,0,0,0,.686-.7.934.934,0,0,0,0-.757A1.362,1.362,0,0,0,230.843,362.051Zm-.01,0Zm.031-.013Z" transform="translate(-148.377 -101.674)" fill="#bc9546"/>
            <path id="Trazado_878793" data-name="Trazado 878793" d="M220.525,409.461a2.744,2.744,0,0,1-1.666-.574,3.931,3.931,0,0,1-1.344-2.314,2.308,2.308,0,0,1,.071-1.414c.495-1.129,1.931-1.2,2.472-1.225l.361-.018.035.051a4.591,4.591,0,0,1,.712.05,2.169,2.169,0,0,1,1.6,1.054,2.6,2.6,0,0,1,.251,1.309,3.144,3.144,0,0,1-1.294,2.759A2.29,2.29,0,0,1,220.525,409.461ZM220,405.217c-.725.048-1.133.2-1.246.455a1.1,1.1,0,0,0,.008.633,2.668,2.668,0,0,0,.876,1.572,1.306,1.306,0,0,0,1.414.172c.588-.359.672-1.306.681-1.7a1.469,1.469,0,0,0-.1-.673.94.94,0,0,0-.679-.4,3.8,3.8,0,0,0-.56-.034A2.078,2.078,0,0,1,220,405.217Zm.618-1h0Z" transform="translate(-146.368 -110.046)" fill="#bc9546"/>
            <path id="Trazado_878794" data-name="Trazado 878794" d="M323.032,421.226a.638.638,0,0,1-.621-.495l-.342-1.479a.639.639,0,1,1,1.244-.288l.342,1.479a.641.641,0,0,1-.623.783Z" transform="translate(-166.666 -112.869)" fill="#bc9546"/>
            <path id="Trazado_878795" data-name="Trazado 878795" d="M321.748,416.554a.639.639,0,0,1-.618-.479l-.4-1.535a.639.639,0,0,1,1.236-.321l.4,1.536a.639.639,0,0,1-.458.779A.648.648,0,0,1,321.748,416.554Z" transform="translate(-166.406 -111.952)" fill="#bc9546"/>
            <path id="Trazado_878796" data-name="Trazado 878796" d="M320.752,412.673a.639.639,0,0,1-.608-.446l-.4-1.252a.639.639,0,1,1,1.217-.387l.4,1.251a.639.639,0,0,1-.415.8A.651.651,0,0,1,320.752,412.673Z" transform="translate(-166.213 -111.254)" fill="#bc9546"/>
            <path id="Trazado_878797" data-name="Trazado 878797" d="M178.43,376.522a.639.639,0,0,1-.513-1.019l.8-1.077a.639.639,0,0,1,1.027.761l-.8,1.076A.637.637,0,0,1,178.43,376.522Z" transform="translate(-138.675 -104.274)" fill="#bc9546"/>
            <path id="Trazado_878798" data-name="Trazado 878798" d="M175.744,380.137a.639.639,0,0,1-.525-1l.858-1.244a.638.638,0,0,1,1.051.725l-.858,1.244A.638.638,0,0,1,175.744,380.137Z" transform="translate(-138.154 -104.942)" fill="#bc9546"/>
            <path id="Trazado_878799" data-name="Trazado 878799" d="M172.8,384.193a.631.631,0,0,1-.341-.1.638.638,0,0,1-.2-.881l1.078-1.7a.639.639,0,0,1,1.079.683l-1.078,1.7A.639.639,0,0,1,172.8,384.193Z" transform="translate(-137.584 -105.64)" fill="#bc9546"/>
            <path id="Trazado_878800" data-name="Trazado 878800" d="M255.632,256.191c-.755-5.555-1.6-11.349-4.832-15.93s-9.645-7.443-14.613-4.847c-5.012,2.619-6.3,9.271-5.707,14.894a37.751,37.751,0,0,0,12.783,24.4,4.755,4.755,0,0,0,2,1.185,4.854,4.854,0,0,0,2.628-.406A53.394,53.394,0,0,0,265.029,265.3c5.41-4.789,10.053-11.4,9.523-18.609a7.645,7.645,0,0,0-1.125-3.757c-2.168-3.2-6.983-2.9-10.615-1.589C256.391,243.658,250.738,248.051,255.632,256.191Z" transform="translate(-148.872 -77.16)" fill="#a1375a"/>
            <path id="Trazado_878801" data-name="Trazado 878801" d="M259.064,76.911a39.057,39.057,0,0,1-11.641,11.125,17.558,17.558,0,0,0-5.239,5.265c-1.246,1.738-2.558,6.532-2.785,8.657-.217-1.4-.814-5.83-1.409-7.111a5.1,5.1,0,0,0-2.975-2.838c-1.58-.476-3.266.119-4.787.758,1.384-3.487,4.674-5.894,8.139-7.333s7.2-2.092,10.777-3.225A27.9,27.9,0,0,0,259.064,76.911Z" transform="translate(-148.849 -46.596)" fill="#a1375a"/>
            <path id="Trazado_878802" data-name="Trazado 878802" d="M274.277,81.287a6.934,6.934,0,0,1-2.856-6.011c-.016-2.929.984-5.758,1.007-8.687a9.107,9.107,0,0,0-.954-4.4c-.164-.305-.667-.107-.505.208,1.352,2.639.777,5.675.277,8.455-.476,2.653-.857,5.473.311,8.008a5.628,5.628,0,0,0,2.525,2.76C274.276,81.711,274.463,81.406,274.277,81.287Z" transform="translate(-156.719 -43.709)" fill="#a1375a"/>
            <path id="Trazado_878803" data-name="Trazado 878803" d="M314.419,98.334a20.252,20.252,0,0,0-5.32-7.511c-4.644-4.177-10.618-6.556-15.084-10.958a15.092,15.092,0,0,1-4.715-8.572.265.265,0,0,0-.526.064c.782,6.05,5.846,10.31,10.649,13.441,2.643,1.722,5.383,3.309,7.866,5.264a21.018,21.018,0,0,1,6.013,7.145,20.4,20.4,0,0,1,2,10.245c-.015.265.382.333.415.061A18.846,18.846,0,0,0,314.419,98.334Z" transform="translate(-160.209 -45.462)" fill="#a1375a"/>
            <g id="Grupo_1189573" data-name="Grupo 1189573" transform="translate(100.488 48.014)">
              <path id="Trazado_878804" data-name="Trazado 878804" d="M279.7,105.88q-.081-.335-.161-.671-.155-.66-.277-1.326a.3.3,0,0,0-.325-.254.294.294,0,0,0-.255.325q.131.678.294,1.35.081.335.176.667a3.059,3.059,0,0,0,.241.67.229.229,0,0,0,.436-.114A3.632,3.632,0,0,0,279.7,105.88Z" transform="translate(-258.738 -99.793)" fill="#a1375a"/>
              <path id="Trazado_878805" data-name="Trazado 878805" d="M278.522,105.423c-.059-.327-.139-.651-.228-.971a11.361,11.361,0,0,0-.708-1.882c-.16-.334-.7-.116-.535.221a11.434,11.434,0,0,1,.695,1.813c.087.3.156.612.218.921a4.22,4.22,0,0,0,.212.961.222.222,0,0,0,.422-.052A2.674,2.674,0,0,0,278.522,105.423Z" transform="translate(-258.417 -99.556)" fill="#a1375a"/>
              <path id="Trazado_878806" data-name="Trazado 878806" d="M273.056,103.776a13.771,13.771,0,0,0-.73-2.09.323.323,0,0,0-.233-.2,3.283,3.283,0,0,0-1.193-.86,16.7,16.7,0,0,0-4.206-1.457,15.415,15.415,0,0,0-8.559.717,16.366,16.366,0,0,0-4.118,2.382.212.212,0,0,0,.153.376,33.977,33.977,0,0,1,3.637-.388,25.537,25.537,0,0,1,10.982,2.028c.671.278,1.334.573,2,.869a12.689,12.689,0,0,1,2.066,1,.322.322,0,0,0,.512-.2A6.4,6.4,0,0,0,273.056,103.776Z" transform="translate(-253.938 -98.871)" fill="#a1375a"/>
            </g>
            <path id="Trazado_878807" data-name="Trazado 878807" d="M237.719,115.268a2.056,2.056,0,0,1-1.778-1.213,4.054,4.054,0,0,1-.239-2.523c.312-1.828,1.034-3.561,1.3-5.4a7.862,7.862,0,0,0-.554-4.644c-.662-1.319-1.992-2.528-3.57-2.123-1.843.473-2.577,2.382-3.107,4-.085.262.309.434.4.17.486-1.474,1.136-3.363,2.863-3.74,1.648-.359,2.816,1.323,3.232,2.693a9.3,9.3,0,0,1-.134,4.856c-.408,1.711-1.144,3.444-1.124,5.226.016,1.477,1.049,3.16,2.707,3.054C237.915,115.615,237.925,115.273,237.719,115.268Z" transform="translate(-148.759 -50.937)" fill="#542437"/>
            <path id="Trazado_878808" data-name="Trazado 878808" d="M289.069,110.076A13.8,13.8,0,0,0,286,117.421a.16.16,0,0,0,.316.047,15.876,15.876,0,0,1,3.347-6.924C289.981,110.168,289.381,109.7,289.069,110.076Z" transform="translate(-159.672 -53.004)" fill="#542437"/>
            <path id="Trazado_878809" data-name="Trazado 878809" d="M283.9,130.931a1.415,1.415,0,0,0-.926.561,5.752,5.752,0,0,1-.922.9,3.675,3.675,0,0,1-2.549.654,4.416,4.416,0,0,1-2.419-1.131,9.705,9.705,0,0,0-2.006-1.586c-.44-.216-.738.483-.3.7a13.317,13.317,0,0,1,2.071,1.675,4.526,4.526,0,0,0,2.567.939,4.971,4.971,0,0,0,3.572-1.338c.3-.283.559-.705.986-.785A.3.3,0,0,0,283.9,130.931Z" transform="translate(-157.451 -56.953)" fill="#542437"/>
            <path id="Trazado_878810" data-name="Trazado 878810" d="M285.236,143.361a2.452,2.452,0,0,0-.089-.523,3.852,3.852,0,0,0-.26-.649,5.939,5.939,0,0,0-1.334-1.572,7.6,7.6,0,0,0-3.128-1.563c-2.947-.727-5.979.257-8.539,1.718-.268.258-.552.495-.825.743-.024.081-.045.164-.064.25-.027.285-.039.575-.047.849a6.123,6.123,0,0,0,.362,1.077,9.374,9.374,0,0,0,2.029,3.054,7.243,7.243,0,0,0,6.6,2.075,6.082,6.082,0,0,0,3.084-1.658,10.657,10.657,0,0,0,1.289-1.647,7.409,7.409,0,0,0,.789-1.338A5.445,5.445,0,0,0,285.236,143.361Z" transform="translate(-156.751 -58.606)" fill="#c15981"/>
            <path id="Trazado_878811" data-name="Trazado 878811" d="M269.53,114.5a.4.4,0,0,0-.583-.479,6.929,6.929,0,0,1-4.914,1.188,4.2,4.2,0,0,1-2.937-2.107l-.2-.467a.369.369,0,0,0-.683.281c.106.294.223.592.355.883-.176-.243-.345-.49-.512-.735-.276-.4-.879.057-.6.46.181.265.366.533.559.8a9.219,9.219,0,0,1-1.6.325.249.249,0,0,0-.006.492,5.542,5.542,0,0,0,.746.119,3.751,3.751,0,0,0,.772-.035,3.5,3.5,0,0,0,.67-.177c.118.131.242.256.37.378q-.221.1-.449.192c-.307.121-.623.212-.932.325a.271.271,0,0,0,.064.515,3.8,3.8,0,0,0,1.554-.088,3.382,3.382,0,0,0,.674-.264,4.893,4.893,0,0,0,.686.318c-.129.127-.259.255-.386.384-.158.161-.3.352-.47.5a.254.254,0,0,0-.078.289.247.247,0,0,0,.258.151,3.51,3.51,0,0,0,1.2-.576,3.712,3.712,0,0,0,.489-.43l.038-.038a7.435,7.435,0,0,0,1.037.1c1.768.047,4.228-.082,5.261-1.766C270.06,114.791,269.854,114.35,269.53,114.5Z" transform="translate(-154.277 -53.485)" fill="#542437"/>
            <g id="Grupo_1189574" data-name="Grupo 1189574" transform="translate(131.324 52.948)">
              <path id="Trazado_878812" data-name="Trazado 878812" d="M292.615,107.4c.142-.181.285-.361.426-.542q.416-.536.8-1.091a.3.3,0,0,1,.4-.1.3.3,0,0,1,.1.4q-.4.563-.829,1.106-.213.271-.438.533a3.005,3.005,0,0,1-.5.509.228.228,0,0,1-.348-.285A3.566,3.566,0,0,1,292.615,107.4Z" transform="translate(-292.197 -105.117)" fill="#a1375a"/>
              <path id="Trazado_878813" data-name="Trazado 878813" d="M293.674,107.472c.19-.272.4-.534.612-.788a11.383,11.383,0,0,1,1.426-1.417c.285-.238.683.185.395.424a11.327,11.327,0,0,0-1.385,1.36c-.206.24-.4.491-.582.747a4.21,4.21,0,0,1-.592.785.222.222,0,0,1-.362-.222A2.68,2.68,0,0,1,293.674,107.472Z" transform="translate(-292.388 -105.033)" fill="#a1375a"/>
              <path id="Trazado_878814" data-name="Trazado 878814" d="M293.929,108.822a.322.322,0,0,0,.38.4,12.685,12.685,0,0,1,2.3-.052c.725.007,1.452.015,2.177.04a25.541,25.541,0,0,1,10.831,2.723,34.033,34.033,0,0,1,3.147,1.866.212.212,0,0,0,.295-.278,16.346,16.346,0,0,0-2.755-3.879,15.408,15.408,0,0,0-7.485-4.211,16.72,16.72,0,0,0-4.431-.425,3.3,3.3,0,0,0-1.443.286.326.326,0,0,0-.293.081,13.665,13.665,0,0,0-1.533,1.6A6.387,6.387,0,0,0,293.929,108.822Z" transform="translate(-292.53 -104.993)" fill="#a1375a"/>
            </g>
            <path id="Trazado_878815" data-name="Trazado 878815" d="M296,118.741a.4.4,0,0,1,.729-.193,6.926,6.926,0,0,0,3.974,3.124,4.2,4.2,0,0,0,3.547-.694l.377-.343a.369.369,0,0,1,.5.54c-.219.223-.449.446-.69.655.26-.147.517-.3.771-.455.418-.253.775.417.358.67-.275.166-.554.333-.838.491a9.122,9.122,0,0,0,1.318.96.249.249,0,0,1-.2.45,5.529,5.529,0,0,1-.728-.2,3.794,3.794,0,0,1-.687-.353,3.568,3.568,0,0,1-.536-.439c-.162.07-.326.133-.493.19.106.123.215.243.328.361.229.237.479.451.713.683a.271.271,0,0,1-.272.442,3.8,3.8,0,0,1-1.377-.725,3.378,3.378,0,0,1-.5-.521,4.944,4.944,0,0,1-.757,0c.064.169.13.339.192.51.077.213.125.444.219.65a.254.254,0,0,1-.049.3.246.246,0,0,1-.3.03,3.514,3.514,0,0,1-.853-1.023,3.792,3.792,0,0,1-.266-.6l-.018-.049a7.423,7.423,0,0,1-.986-.341c-1.626-.692-3.811-1.833-4.049-3.794C295.4,118.782,295.769,118.466,296,118.741Z" transform="translate(-161.501 -54.64)" fill="#542437"/>
            <path id="Trazado_878816" data-name="Trazado 878816" d="M319.632,88.723a33,33,0,0,0-5.807-13.671,33.68,33.68,0,0,0-5.638-6.043c-.358-.3-.8.27-.446.57a33.478,33.478,0,0,1,11.826,26.327,31.954,31.954,0,0,1-.424,4.494,39.158,39.158,0,0,1-1.11,4.494c-.078.269.313.453.41.177a28.275,28.275,0,0,0,1.014-3.973,35.325,35.325,0,0,0,.56-4.123A33.418,33.418,0,0,0,319.632,88.723Z" transform="translate(-163.864 -45.046)" fill="#7a1739"/>
            <path id="Trazado_878817" data-name="Trazado 878817" d="M239.58,78.06c.058-.276-.335-.356-.451-.129a12.812,12.812,0,0,0-.941,2.872,23.058,23.058,0,0,0-.505,3.018,26.15,26.15,0,0,0,.093,6.087c.012.089.028.177.041.267q-.29-.832-.525-1.681c-.16-.58-.3-1.168-.419-1.758a13.088,13.088,0,0,0-.349-1.7.271.271,0,0,0-.516.063,7.329,7.329,0,0,0,.248,1.829q.177.855.406,1.7a27.48,27.48,0,0,0,1.194,3.468.3.3,0,0,0,.358.185c.077.332.159.663.248.993.107.395.692.148.588-.243a25.538,25.538,0,0,1-.276-11.732C239,80.208,239.353,79.148,239.58,78.06Z" transform="translate(-149.97 -46.768)" fill="#7a1739"/>
            <path id="Trazado_878818" data-name="Trazado 878818" d="M217.494,119.054a23.4,23.4,0,0,0,.527-7.541.244.244,0,0,0-.484.06c.511,4.667-.947,9.218-2.318,13.616-1.287,4.13-2.61,8.452-2.146,12.83a13.484,13.484,0,0,0,2.245,6.237c.122.176.369-.023.26-.2-2.137-3.483-2.279-7.908-1.6-11.836C214.751,127.731,216.534,123.5,217.494,119.054Z" transform="translate(-145.503 -53.27)" fill="#7a1739"/>
            <path id="Trazado_878819" data-name="Trazado 878819" d="M232.291,156.419c-4.038-2.893-5.889-7.832-5.914-12.674a36.072,36.072,0,0,1,.438-4.592c.03-.239-.346-.369-.424-.12a16.232,16.232,0,0,0-.618,4.169,18.928,18.928,0,0,0,.287,4.219,15.669,15.669,0,0,0,2.957,6.69,13.552,13.552,0,0,0,2.9,2.79C232.234,157.128,232.612,156.65,232.291,156.419Z" transform="translate(-147.982 -58.624)" fill="#7a1739"/>
            <path id="Trazado_878820" data-name="Trazado 878820" d="M264.363,160.9s10.864,7.449,23.076,1.311c0,0-3.566,8.153-11.211,8.153S264.363,160.9,264.363,160.9Z" transform="translate(-155.473 -62.892)" fill="#f5b08e"/>
            <path id="Trazado_878821" data-name="Trazado 878821" d="M212.02,224.466c-.927-3.119-2.042-6.564-1.028-9.816a.692.692,0,0,0-.351-.882.678.678,0,0,0-.882.351c-1,3.052-.429,6.232.358,9.261.769,2.96,1.767,5.937,1.781,9.066a9.033,9.033,0,0,1-.251,2.127,9.187,9.187,0,0,1-1.04,2.384c-.927,1.568-2.086,3.005-3.146,4.484a58.338,58.338,0,0,0-5.742,9.417c-1.69,3.656-2.751,7.824-2.058,11.861a.522.522,0,0,0,1.035-.127,24.847,24.847,0,0,1,.417-5.3,30.964,30.964,0,0,1,1.442-5,44.853,44.853,0,0,1,5.178-9.506c1.059-1.529,2.228-2.976,3.3-4.494a12.544,12.544,0,0,0,2.154-4.672C213.836,230.506,212.9,227.424,212.02,224.466Z" transform="translate(-142.877 -73.141)" fill="#35719b"/>
            <path id="Trazado_878822" data-name="Trazado 878822" d="M275.252,208.757c-1.429.031-2.859.235-4.288.317s-2.847.121-4.272.1a46.2,46.2,0,0,1-8.509-.888,32.8,32.8,0,0,1-13.227-5.844,25.667,25.667,0,0,1-5.538-5.639c-.6-.843-1.875.13-1.277.973a27.623,27.623,0,0,0,11.442,9.106,42.445,42.445,0,0,0,15.922,3.346c1.642.052,3.287.038,4.928-.031q1.21-.05,2.42-.141a21.74,21.74,0,0,0,2.526-.274A.514.514,0,0,0,275.252,208.757Z" transform="translate(-150.355 -69.795)" fill="#35719b"/>
            <path id="Trazado_878823" data-name="Trazado 878823" d="M309,188.362a47.381,47.381,0,0,1-6.351,8.314,39.909,39.909,0,0,1-13.257,9.3.634.634,0,0,0,.484,1.172,43.684,43.684,0,0,0,9.239-5.462,40.241,40.241,0,0,0,7.6-7.593,39.324,39.324,0,0,0,3.267-5.157C310.277,188.374,309.329,187.8,309,188.362Z" transform="translate(-160.256 -68.176)" fill="#35719b"/>
            <path id="Trazado_878824" data-name="Trazado 878824" d="M240.816,202.121a6.923,6.923,0,0,0-.662-.841c-.24-.28-.485-.555-.729-.831l-1.442-1.635a.507.507,0,0,0-.693-.093.5.5,0,0,0-.094.693l1.472,1.653c.238.268.475.536.716.8a7.658,7.658,0,0,0,.838.842.42.42,0,0,0,.553-.035A.429.429,0,0,0,240.816,202.121Z" transform="translate(-150.182 -70.212)" fill="#35719b"/>
            <path id="Trazado_878825" data-name="Trazado 878825" d="M334.537,261.4a38.23,38.23,0,0,0-12.293-2.25,39,39,0,0,0-12.476,1.805,35.767,35.767,0,0,0-6.476,2.759.553.553,0,0,0-.291.7.541.541,0,0,0,.7.291,38.276,38.276,0,0,1,23.706-3.772,36.147,36.147,0,0,1,6.587,1.725.7.7,0,0,0,.9-.358A.692.692,0,0,0,334.537,261.4Z" transform="translate(-162.962 -81.954)" fill="#3675a0"/>
            <path id="Trazado_878826" data-name="Trazado 878826" d="M175.4,272.061a.742.742,0,0,0-.955.38,11.327,11.327,0,0,0-1.16,3.487,8.051,8.051,0,0,0-.1,1.716,1.248,1.248,0,0,1-.051.662.818.818,0,0,1-.067.111.444.444,0,0,0-.22-.068,15.108,15.108,0,0,0-7.442,1.577c-.592.314-.24,1.249.405.982a17.718,17.718,0,0,1,3.355-1.072,15.019,15.019,0,0,1,2.7-.282,13.847,13.847,0,0,0-2.731,4.543.47.47,0,0,0,.863.372,26,26,0,0,1,1.457-2.9,7.922,7.922,0,0,1,.926-1.184,13.212,13.212,0,0,1,1.219-.985,2.791,2.791,0,0,0,.833-1.388,9.587,9.587,0,0,0,.246-1.655,10.573,10.573,0,0,1,1.1-3.348A.734.734,0,0,0,175.4,272.061Z" transform="translate(-136.213 -84.45)" fill="#f5b08e"/>
            <path id="Trazado_878827" data-name="Trazado 878827" d="M193.082,275.363a37.827,37.827,0,0,0-2.932-2.631,33.576,33.576,0,0,0-2.814-2.242,8.484,8.484,0,0,0-3.2-1.344,19.5,19.5,0,0,0-3.555-.23.6.6,0,0,0-.521.668.615.615,0,0,0,.668.522,17.791,17.791,0,0,1,3.234.222,6.825,6.825,0,0,1,2.844,1.286c.921.687,1.772,1.469,2.658,2.2a35.219,35.219,0,0,0,2.9,2.256.511.511,0,0,0,.665-.042A.5.5,0,0,0,193.082,275.363Z" transform="translate(-139.115 -83.851)" fill="#f5b08e"/>
            <path id="Trazado_878828" data-name="Trazado 878828" d="M320.034,298.99a11.816,11.816,0,0,0-1.076-1.716q-.571-.82-1.2-1.6a26.468,26.468,0,0,0-2.829-2.976,28.986,28.986,0,0,0-6.723-4.509,28.235,28.235,0,0,0-4.185-1.641.7.7,0,0,0-.887.353.68.68,0,0,0,.353.887,29.272,29.272,0,0,1,13,8.23q.733.788,1.406,1.629c.467.585.866,1.228,1.348,1.8C319.561,299.831,320.265,299.487,320.034,298.99Z" transform="translate(-162.986 -87.265)" fill="#f5b08e"/>
            <path id="Trazado_878829" data-name="Trazado 878829" d="M189.139,348.044a30.55,30.55,0,0,1-4.334,7.521c-1.749,2.368-3.566,4.685-5.335,7.038-3.538,4.7-7.078,9.4-10.466,14.216s-6.694,9.711-9.791,14.728a168.756,168.756,0,0,0-8.474,15.388,124.254,124.254,0,0,0-6.613,16.277q-.329,1.036-.646,2.075a.6.6,0,0,0,.306.769.589.589,0,0,0,.769-.305,147.593,147.593,0,0,1,6.526-16.316c2.481-5.289,5.265-10.435,8.222-15.471q4.469-7.612,9.558-14.839c3.381-4.817,6.9-9.535,10.511-14.183,1.807-2.326,3.661-4.613,5.5-6.916a39.8,39.8,0,0,0,4.892-7.37,21.33,21.33,0,0,0,.838-1.985C190.95,347.713,189.492,347.08,189.139,348.044Z" transform="translate(-132.011 -99.112)" fill="#bc9546"/>
            <path id="Trazado_878830" data-name="Trazado 878830" d="M314.021,414.383c-.783-4.773-1.559-9.548-2.432-14.3s-1.81-9.5-2.881-14.216-2.278-9.419-3.678-14.056c-.035-.118-.073-.237-.11-.356a21.881,21.881,0,0,0,4.42.656.6.6,0,0,0,.664-.492.594.594,0,0,0-.493-.665c-1.363-.222-2.722-.389-4.069-.71q-.488-.116-.972-.25-.8-2.557-1.676-5.09c-.783-2.256-1.6-4.5-2.335-6.772-1.415-4.372-2.592-8.982-2.324-13.614q.05-.863.164-1.721a.794.794,0,0,0-1.569-.232,33.7,33.7,0,0,0,1.659,14.02c1.319,4.355,3.03,8.579,4.442,12.9-.425-.143-.849-.293-1.269-.453a30.031,30.031,0,0,1-7.08-3.828,25.471,25.471,0,0,1-5.655-5.674,26.308,26.308,0,0,1-3.777-8.139,74.487,74.487,0,0,1-1.954-10.724.739.739,0,0,0-1.467.18c.867,6.469,1.842,13.15,5.513,18.713a28.224,28.224,0,0,0,12.975,10.395,30.862,30.862,0,0,0,3.213,1.09c1.349,4.326,2.517,8.707,3.556,13.116,1.115,4.728,2.085,9.489,2.977,14.263s1.732,9.567,2.561,14.357l.3,1.762C312.871,415.363,314.157,415.212,314.021,414.383Z" transform="translate(-158.822 -97.652)" fill="#bc9546"/>
            <path id="Trazado_878831" data-name="Trazado 878831" d="M274.686,142.613a10.206,10.206,0,0,1-3.391-.933,10.54,10.54,0,0,1-2.868-2.018c-.338-.345-.947.111-.6.46a9.334,9.334,0,0,0,6.858,2.865C274.9,142.981,274.9,142.637,274.686,142.613Z" transform="translate(-156.125 -58.748)" fill="#542437"/>
            <path id="Trazado_878832" data-name="Trazado 878832" d="M289.07,142.778a9.511,9.511,0,0,1-2.819.854,11.515,11.515,0,0,1-1.442.128,12.725,12.725,0,0,1-1.526-.107c-.217-.022-.338.31-.11.387a8.334,8.334,0,0,0,6.187-.559C289.8,143.268,289.511,142.563,289.07,142.778Z" transform="translate(-159.099 -59.368)" fill="#542437"/>
          </g>
          <g id="Grupo_1189576" data-name="Grupo 1189576" transform="translate(61.875 95.006)">
            <path id="Trazado_878833" data-name="Trazado 878833" d="M346.528,205.166a7.287,7.287,0,0,1-2.731,3.084,21.143,21.143,0,0,1-7.159,2.908c-12.866,3.066-26.341.363-39.561.876a30.191,30.191,0,0,1,2.092,13.48c-.293,3.879-1.287,8.035.532,11.472a5.357,5.357,0,0,1,.659,1.487,3.526,3.526,0,0,1-.192,1.6,16.041,16.041,0,0,1-3.636,6.292c.1.1.189.2.278.309q.422.487.8,1.009a16.751,16.751,0,0,1,3.055,12.606l-.93-.465a3.443,3.443,0,0,1-3.511,3.485,1.38,1.38,0,0,1-.721,1.738,2.91,2.91,0,0,1-2.044.059c-2.841-.772-5.4-3.36-8.255-2.614,1.722,1.382,1.64,4.261.189,5.927a6.984,6.984,0,0,1-6.055,1.975,20.638,20.638,0,0,1-6.245-2.129c-3.924-1.824-7.849-3.651-11.794-5.077a21.4,21.4,0,0,0-5.424-.289,41.341,41.341,0,0,0-7.437,1.311c-.575.118-1.15.24-1.722.365-3.722.82-7.414,1.8-11.18,2.395a54.82,54.82,0,0,1-24.684-1.8,12.994,12.994,0,0,1-4.826-3.444,22.028,22.028,0,0,1,7.54-6.9,36.425,36.425,0,0,1,15.067-4.131,11.547,11.547,0,0,0,4.527-.93,10.9,10.9,0,0,0,3.046-2.826,109.121,109.121,0,0,1,11.63-11.929c4.726-19.648,16.234-37,29.119-52.56,6.768-8.173,14.034-16.043,22.619-22.277a16.27,16.27,0,0,1,4.947-2.7,6.347,6.347,0,0,1,5.427.7c1.824,1.331,2.478,3.786,2.422,6.042-.092,3.791-1.809,7.371-3.955,10.5-8.143,11.873-22.088,18.265-32.326,28.49a22.36,22.36,0,0,1,14.607,1.714,38.16,38.16,0,0,1,12.538-7.691,55.129,55.129,0,0,1,12.823-2.54c7.238-.766,14.632-1.14,21.733.467a14.377,14.377,0,0,1,6.819,3.133C346.458,200.02,347.489,202.825,346.528,205.166Z" transform="translate(-206.029 -157.176)" fill="#fff"/>
            <path id="Trazado_878834" data-name="Trazado 878834" d="M289.848,204.672a3.388,3.388,0,0,1-2.812-2.546,6.991,6.991,0,0,1,.273-3.977,23.392,23.392,0,0,1,4.721-7.9c4.823-5.681,10.908-10.121,16.518-15.025q4.305-3.763,8.255-7.91c1.077-1.13,2.359-2.375,3.915-2.261,1.906.139,3.043,2.288,3.123,4.2.157,3.77-2.258,7.119-4.676,10.017a60.139,60.139,0,0,1-8.136,8.318c-2.248,1.822-4.692,3.385-7.036,5.082a75.626,75.626,0,0,0-11.522,10.281C291.652,203.84,290.514,204.717,289.848,204.672Z" transform="translate(-221.711 -158.702)" fill="#ffbddc"/>
            <path id="Trazado_878835" data-name="Trazado 878835" d="M315.763,218.579c4.094-3.711,9.9-4.875,15.422-5.056s11.085.465,16.559-.286c3.961-.544,7.861-1.817,11.854-1.626,1.6.076,3.463.61,3.99,2.123a3.349,3.349,0,0,1-.733,3.056c-1.746,2.237-4.826,2.843-7.64,3.206a135.879,135.879,0,0,1-25.029.9,54.381,54.381,0,0,0-9.026-.11,10.141,10.141,0,0,1-3.255.084A2.534,2.534,0,0,1,315.763,218.579Z" transform="translate(-227.321 -167.734)" fill="#ffbddc"/>
            <path id="Trazado_878836" data-name="Trazado 878836" d="M281.6,247.615c-.82.357-1.752.409-2.549.814A3.593,3.593,0,0,0,277.2,251.7a4.56,4.56,0,0,0,1.813,3.387,6.28,6.28,0,0,0,3.706,1.223,4,4,0,0,0,1.734-.29A3.378,3.378,0,0,0,285.7,255a4.627,4.627,0,0,0,.139-5.353C284.739,248.082,282.522,247.212,281.6,247.615Z" transform="translate(-219.837 -174.705)" fill="#ffbddc"/>
            <path id="Trazado_878837" data-name="Trazado 878837" d="M300.883,237.679a1.359,1.359,0,0,0-.495-.756,5,5,0,0,0-.479-.406,6.892,6.892,0,0,0-1.177-.7.644.644,0,1,0-.509,1.182c.236.11.467.231.692.362.2.12.39.248.579.381.1.073.2.156.307.223a1.244,1.244,0,0,0,.527.251A.493.493,0,0,0,300.883,237.679Z" transform="translate(-223.843 -172.425)" fill="#825369"/>
            <path id="Trazado_878838" data-name="Trazado 878838" d="M298.78,238.519a.416.416,0,0,0-.153-.271l-.609-.444a.458.458,0,0,0-.324-.089.492.492,0,0,0-.292.164.442.442,0,0,0-.089.323l.03.114a.44.44,0,0,0,.135.178l.649.394a.449.449,0,0,0,.3.083.406.406,0,0,0,.354-.453Z" transform="translate(-223.74 -172.802)" fill="#825369"/>
            <path id="Trazado_878839" data-name="Trazado 878839" d="M318.041,238.494a.462.462,0,0,0-.422-.178.65.65,0,0,0-.169.037.548.548,0,0,0-.06.023,1.2,1.2,0,0,0-.217.122c-.073.054-.145.111-.217.168l-.429.33a.537.537,0,0,0-.2.337.518.518,0,0,0,.438.589.54.54,0,0,0,.39-.1l.432-.326.213-.16a1.237,1.237,0,0,0,.175-.175.476.476,0,0,0,.039-.052.573.573,0,0,0,.083-.155.457.457,0,0,0-.056-.461Z" transform="translate(-227.43 -172.919)" fill="#825369"/>
            <path id="Trazado_878840" data-name="Trazado 878840" d="M318.987,239.856l-.046-.08a.349.349,0,0,0-.141-.11l-.088-.026a.36.36,0,0,0-.186.023l-.211.1a.4.4,0,0,0-.192.189.392.392,0,0,0,0,.278l.046.08a.353.353,0,0,0,.143.112l.089.026a.367.367,0,0,0,.189-.023l.208-.11a.4.4,0,0,0,.189-.186.394.394,0,0,0,0-.274Z" transform="translate(-227.774 -173.176)" fill="#825369"/>
            <path id="Trazado_878841" data-name="Trazado 878841" d="M293.668,244.358a6.043,6.043,0,0,0-1.47-2.139,3.8,3.8,0,0,0-2.466-1.012,2.92,2.92,0,0,0-2.312.777,1.4,1.4,0,0,0-.295.455,1.765,1.765,0,0,0,.081,1.4,3.8,3.8,0,0,0,2.413,1.561c.492.172.987.343,1.483.5a4.869,4.869,0,0,0,1.429.356,1.23,1.23,0,0,0,1.163-.655A1.581,1.581,0,0,0,293.668,244.358Z" transform="translate(-221.743 -173.48)" fill="#825369"/>
            <path id="Trazado_878842" data-name="Trazado 878842" d="M314.31,258.066a3,3,0,0,0-.771.358c-.254.139-.5.295-.74.453s-.467.3-.692.469a.736.736,0,0,0-.134-.143,6.153,6.153,0,0,0-2.858-1.36.663.663,0,0,0-.7.389c-.3,1.048.517,1.668,1.265,2.232s1.7,1.281,2.691,1.082a4.364,4.364,0,0,0,2.235-1.582,2.318,2.318,0,0,0,.671-1.185A.765.765,0,0,0,314.31,258.066Z" transform="translate(-225.883 -176.708)" fill="#825369"/>
            <path id="Trazado_878843" data-name="Trazado 878843" d="M314.777,264.688a3.093,3.093,0,0,1-2.507.679,4.811,4.811,0,0,1-1.306-.388c-.255-.114-.506-.293-.773-.4.006-.019.014-.039.019-.059l.1-.474a2.145,2.145,0,0,0,.057-.476v0a.425.425,0,0,0-.679-.4.456.456,0,0,0-.143.211,2.458,2.458,0,0,0-.18.517l-.122.484a.4.4,0,0,0,.02.218c-.327.124-.637.318-.962.439a6.715,6.715,0,0,1-1.312.348,7.125,7.125,0,0,1-2.782-.11,6.5,6.5,0,0,1-2.739-1.415c-.568-.5-1.289.43-.72.922a7.524,7.524,0,0,0,5.813,1.718,7.013,7.013,0,0,0,2.852-1.016c.052-.033.2-.165.269-.163s.212.139.274.184a4.279,4.279,0,0,0,.667.383,4.734,4.734,0,0,0,1.508.4,4.233,4.233,0,0,0,3.18-.892C315.75,265.026,315.206,264.312,314.777,264.688Z" transform="translate(-224.368 -177.724)" fill="#825369"/>
            <path id="Trazado_878844" data-name="Trazado 878844" d="M300.3,287.315a14.51,14.51,0,0,0-19.746-6.1,14.191,14.191,0,0,0-4.881,4.2.444.444,0,0,0,.7.546,14.055,14.055,0,0,1,9.065-5.22,13.149,13.149,0,0,1,9.868,2.727,14.274,14.274,0,0,1,3.819,4.336.656.656,0,0,0,.831.346A.642.642,0,0,0,300.3,287.315Z" transform="translate(-219.525 -180.908)" fill="#825369"/>
            <path id="Trazado_878845" data-name="Trazado 878845" d="M299.255,294.253a5.026,5.026,0,0,0-.725-1.5c-.31-.45-.738-.781-1.07-1.209a3.608,3.608,0,0,1-.571-1.5.59.59,0,0,0-.641-.5.579.579,0,0,0-.5.641,5.482,5.482,0,0,0,.592,1.681,6.79,6.79,0,0,0,1.2,1.17,3.515,3.515,0,0,1,.8,1.253,3.4,3.4,0,0,1,.206.769c.039.272.01.549.046.82a.431.431,0,0,0,.849.01A3.685,3.685,0,0,0,299.255,294.253Z" transform="translate(-223.435 -182.858)" fill="#825369"/>
            <path id="Trazado_878846" data-name="Trazado 878846" d="M303.513,291.948a14.337,14.337,0,0,1-1.377-2.821.567.567,0,0,0-.617-.482.557.557,0,0,0-.481.617,4.638,4.638,0,0,0,.6,1.421c.268.426.581.82.848,1.245.434.691.9,1.759.408,2.536-.244.388.307.837.571.447A3,3,0,0,0,303.513,291.948Z" transform="translate(-224.462 -182.684)" fill="#825369"/>
            <path id="Trazado_878847" data-name="Trazado 878847" d="M309.451,267.155a9.418,9.418,0,0,1-2.341,2.182,12.484,12.484,0,0,1-2.974,1.3,28.8,28.8,0,0,1-7.814,1.2,34.314,34.314,0,0,1-15.158-3.36,44.836,44.836,0,0,1-7.367-4.336c-.33-.238-.72.258-.389.5a41.722,41.722,0,0,0,14,6.8,31.865,31.865,0,0,0,16.373.077,14.577,14.577,0,0,0,3.545-1.428,5.691,5.691,0,0,0,2.56-2.677A.254.254,0,0,0,309.451,267.155Z" transform="translate(-219.079 -177.918)" fill="#e5dae1"/>
            <path id="Trazado_878848" data-name="Trazado 878848" d="M276.287,268.136a12.872,12.872,0,0,0-4.318,2.3,5.971,5.971,0,0,0-2.224,3.785c-.013.157.117.347.3.306a5.448,5.448,0,0,1,.654-.112c.084-.009.185-.024.287-.037a3.319,3.319,0,0,0-.737,2.768c.085.308.522.19.575-.071a11.351,11.351,0,0,1,.26-1.46,4.581,4.581,0,0,1,.712-1.313c.162-.208-.071-.572-.33-.434a1.8,1.8,0,0,1-.7.117c-.122.01-.243.015-.365.017a7.565,7.565,0,0,1,2.144-3.059,12.515,12.515,0,0,1,4.033-2.106C277.039,268.68,276.749,267.978,276.287,268.136Z" transform="translate(-218.392 -178.701)" fill="#825369"/>
            <path id="Trazado_878849" data-name="Trazado 878849" d="M273.236,282.478a.39.39,0,0,0-.247-.145.413.413,0,0,0-.235.041c.033-.085.065-.171.1-.256a.38.38,0,0,0-.7-.3c-.077.221-.158.44-.22.666a3.782,3.782,0,0,0-.137.6.287.287,0,0,0,.51.218,2.9,2.9,0,0,0,.156-.264l-.01.043-.052.211c-.008.035-.019.07-.026.106a.425.425,0,0,0,.015.194.408.408,0,0,0,.067.164.334.334,0,0,0,.178.118.345.345,0,0,0,.359-.115.526.526,0,0,0,.1-.156,1.341,1.341,0,0,0,.051-.192l.052-.211.107-.438A.384.384,0,0,0,273.236,282.478Z" transform="translate(-218.79 -181.317)" fill="#825369"/>
            <path id="Trazado_878850" data-name="Trazado 878850" d="M307.739,245.993a11.071,11.071,0,0,0-1.551-2.49,10.011,10.011,0,0,1-1.415-2.769c-.1-.343-.618-.129-.516.213a9.7,9.7,0,0,0,1.24,2.526c.518.791,1.168,1.511,1.638,2.331a2.094,2.094,0,0,1,.287,1.435,4.326,4.326,0,0,1-.6,1.4c-.27.465-.549.925-.816,1.391a13.4,13.4,0,0,0-.8,1.439.261.261,0,0,0,.443.263,14.008,14.008,0,0,0,.867-1.484c.284-.5.572-1,.831-1.509A3.5,3.5,0,0,0,307.739,245.993Z" transform="translate(-225.086 -173.355)" fill="#e5dae1"/>
            <path id="Trazado_878851" data-name="Trazado 878851" d="M317.564,252.243c-.262-.87-.592-1.724-.937-2.565-.331-.806-.731-1.579-1.074-2.378a2.881,2.881,0,0,1,0-2.258,7.259,7.259,0,0,0,.6-2.191c.012-.384-.581-.48-.6-.089a8.713,8.713,0,0,1-.689,2.312,2.993,2.993,0,0,0,.037,2.256c.37.824.863,1.593,1.246,2.414.4.862.735,1.747,1.061,2.641C317.3,252.613,317.632,252.468,317.564,252.243Z" transform="translate(-227.11 -173.734)" fill="#e5dae1"/>
            <path id="Trazado_878852" data-name="Trazado 878852" d="M303.606,182.725a49.914,49.914,0,0,0-5.248,4.05c-1.64,1.411-3.23,2.883-4.736,4.437a36.217,36.217,0,0,0-3.9,4.683,18.939,18.939,0,0,0-2.658,5.284,7.179,7.179,0,0,0,.6,6.108c.275.4.879-.056.6-.46a6.507,6.507,0,0,1-.579-5.2,16.641,16.641,0,0,1,2.391-5.177,44.575,44.575,0,0,1,8.178-8.838c1.816-1.588,3.728-3.045,5.614-4.546A.212.212,0,0,0,303.606,182.725Z" transform="translate(-221.673 -162.126)" fill="#825369"/>
            <path id="Trazado_878853" data-name="Trazado 878853" d="M348.617,213.421c-2.418.116-4.825.184-7.246.166-2.4-.019-4.793-.085-7.191-.056a38.341,38.341,0,0,0-12.348,1.813,20.331,20.331,0,0,0-5.887,3.2c-.362.288.075.864.437.573a23.187,23.187,0,0,1,10.891-4.492,78.339,78.339,0,0,1,13.344-.513,51.554,51.554,0,0,0,8.043-.339A.179.179,0,0,0,348.617,213.421Z" transform="translate(-227.33 -168.089)" fill="#825369"/>
            <path id="Trazado_878854" data-name="Trazado 878854" d="M320.963,242.625c-.875-.964-2.174.241-2.732.958-.022.027-.04.058-.061.086a5.446,5.446,0,0,0-.774,1.071,2.506,2.506,0,0,0-.364,1.742,1.389,1.389,0,0,0,1.061,1.066,1.555,1.555,0,0,0,1.388-.7,12.749,12.749,0,0,0,1.042-1.372C321,244.743,321.691,243.427,320.963,242.625Z" transform="translate(-227.558 -173.686)" fill="#825369"/>
          </g>
        </g>
        <path id="Trazado_878855" data-name="Trazado 878855" d="M204.607,173.129a9.913,9.913,0,0,0-2.236-2.425,15.672,15.672,0,0,0-2.677-2.012c-.488-.276-1-.49-1.506-.722a2.033,2.033,0,0,1-.536-.335,4.647,4.647,0,0,1-.393-.578.75.75,0,0,0-.661-.289c-.27.028-.285.139-.447-.1-.243-.35-.447-.68-.925-.655s-.395.757.073.753a.056.056,0,0,1,.018.024,1.308,1.308,0,0,0,.126.176,2.46,2.46,0,0,0,.26.353.832.832,0,0,0,.391.244.823.823,0,0,0,.3.019c.091-.012.217-.081.282-.041.123.076.188.345.282.46a1.547,1.547,0,0,0,.534.409c.395.19.841.269,1.245.438a9.808,9.808,0,0,1,2.551,1.716,19.954,19.954,0,0,1,2.208,2.111,2.454,2.454,0,0,1,.52,2.833.3.3,0,0,0,.467.365A2.393,2.393,0,0,0,204.607,173.129Z" transform="translate(-28.794 -25.385)" fill="#ffe4c9"/>
        <path id="Trazado_878856" data-name="Trazado 878856" d="M415.443,136.782c-.169,0-.135.26.031.26S415.61,136.782,415.443,136.782Z" transform="translate(-71.564 -19.713)" fill="#97c4c2"/>
        <g id="Grupo_1189579" data-name="Grupo 1189579" transform="translate(93.352 77.099)">
          <g id="Grupo_1189578" data-name="Grupo 1189578" transform="translate(197.837 21.498)">
            <path id="Trazado_878857" data-name="Trazado 878857" d="M351.6,114.68a.415.415,0,0,0-.045-.151.425.425,0,0,0,0-.064l0-.01c-.01-.048-.024-.106-.039-.152,0-.007,0-.015-.008-.022a.663.663,0,0,0-.1-.16,1.482,1.482,0,0,0-.106-.107l-.009-.008-.01-.006c-.039-.027-.089-.056-.132-.079l-.023-.01c-.018-.007-.124-.039-.144-.042h-.009c-.053,0-.14,0-.165,0a.141.141,0,0,0-.032,0c-.029,0-.06.015-.087.022s-.06.014-.089.024a.7.7,0,0,0-.184.1.782.782,0,0,0-.074.072.933.933,0,0,0-.074.076c-.006.009-.014.018-.019.027-.028.044-.056.09-.081.136l-.01.019a.241.241,0,0,0-.012.031c-.015.05-.032.1-.044.156l0,.018,0,.016c0,.054,0,.114,0,.168a.231.231,0,0,0,0,.034.775.775,0,0,0,.137.34.13.13,0,0,0,.017.024c.019.022.044.045.062.063a.805.805,0,0,0,.064.064.181.181,0,0,0,.025.019c.046.028.093.059.141.083l.015.006c.052.016.106.032.16.045l.015,0,.031,0c.056,0,.114,0,.171,0h.014l.035,0c.03-.006.061-.015.089-.023s.06-.014.089-.023l.03-.012.007,0c.013-.006.123-.069.135-.077s.092-.088.11-.109l0,0a.193.193,0,0,0,.019-.026c.027-.042.057-.09.08-.135l.006-.012,0-.013c.014-.038.04-.172.042-.16C351.6,114.778,351.6,114.705,351.6,114.68Z" transform="translate(-350.095 -113.864)" fill="#7aa9e2"/>
            <path id="Trazado_878858" data-name="Trazado 878858" d="M351.964,115.063c0-.01,0-.015,0-.017Z" transform="translate(-350.458 -114.093)" fill="#7aa9e2"/>
          </g>
          <path id="Trazado_878859" data-name="Trazado 878859" d="M358.975,149.851a.92.92,0,0,0-.027-.108c-.007-.027-.017-.076-.03-.11a.905.905,0,0,0-.11-.2.721.721,0,0,0-.265-.229,1.141,1.141,0,0,0-.118-.067l-.027-.01c-.064-.019-.127-.039-.192-.054a.748.748,0,0,0-.1-.018.672.672,0,0,0-.762.566.677.677,0,0,0,.016.248.72.72,0,0,0-.01.221l0,.008c0,.017.044.174.049.189l0,.013c.007.017.084.149.1.165l0,.006,0,0c.01.014.12.125.133.135a.922.922,0,0,0,.087.053c.025.015.058.037.089.052l.006,0,.182.052.014,0a.929.929,0,0,0,.113,0h.089l.014,0,.014,0c.031-.007.158-.039.189-.049l.01,0a.716.716,0,0,0,.211-.121,1.134,1.134,0,0,0,.15-.148l.009-.012c.018-.024.056-.093.049-.082.006-.01.037-.057.051-.086l.006-.013c.01-.028.029-.1.027-.1a.823.823,0,0,0,.027-.093l0-.015c0-.031,0-.118,0-.1A.7.7,0,0,0,358.975,149.851Z" transform="translate(-153.663 -99.193)" fill="#7aa9e2"/>
          <path id="Trazado_878860" data-name="Trazado 878860" d="M362.828,152.349c-.337,0-.27.521.064.521S363.162,152.349,362.828,152.349Z" transform="translate(-154.686 -99.833)" fill="#7aa9e2"/>
          <path id="Trazado_878861" data-name="Trazado 878861" d="M361.018,190.778l-.006-.012a1.626,1.626,0,0,0-.11-.193.356.356,0,0,0-.035-.043,1.422,1.422,0,0,0-.152-.152.482.482,0,0,0-.042-.029,1.553,1.553,0,0,0-.185-.107,1.256,1.256,0,0,0-.253-.077,1.287,1.287,0,0,0-.272-.014.624.624,0,0,0-.11.01,1.377,1.377,0,0,0-.259.072.358.358,0,0,0-.047.023l-.039.02h-.069a.759.759,0,0,0-.659.642,2.189,2.189,0,0,0,0,.241.277.277,0,0,0,.006.045,1.424,1.424,0,0,0,.061.232.272.272,0,0,0,.017.038,1.558,1.558,0,0,0,.115.2,1.387,1.387,0,0,0,.159.164.474.474,0,0,0,.064.051,1.291,1.291,0,0,0,.24.133,1.8,1.8,0,0,0,.267.075,1.44,1.44,0,0,0,.288.008.49.49,0,0,0,.091-.008,1.778,1.778,0,0,0,.272-.07.507.507,0,0,0,.083-.036,1.245,1.245,0,0,0,.227-.139,1.746,1.746,0,0,0,.156-.154.316.316,0,0,0,.025-.033,1.364,1.364,0,0,0,.112-.19.23.23,0,0,0,.015-.039l.027-.082c.014-.037.024-.076.035-.113a.452.452,0,0,0,.03-.193v-.091Z" transform="translate(-153.942 -107.168)" fill="#7aa9e2"/>
          <path id="Trazado_878862" data-name="Trazado 878862" d="M120.823,163.59l-.048-.184-.091-.159c.01.015-.094-.1-.139-.139l-.028-.023a.964.964,0,0,0-.215-.126.988.988,0,0,0-.483-.067.878.878,0,0,0-.3.089,1.131,1.131,0,0,0-.272.177,1.3,1.3,0,0,0-.222.245,1.326,1.326,0,0,0-.155.291,1.2,1.2,0,0,0-.072.5.832.832,0,0,0,.064.268.71.71,0,0,0,.064.177,1.132,1.132,0,0,0,.139.22,1.052,1.052,0,0,0,.341.268.773.773,0,0,0,.243.077.343.343,0,0,0,.04,0,1.056,1.056,0,0,0,.226,0,1.243,1.243,0,0,0,.216-.058.638.638,0,0,0,.252-.177,1.417,1.417,0,0,0,.146-.157,1.582,1.582,0,0,0,.314-.79A1.521,1.521,0,0,0,120.823,163.59Z" transform="translate(-107.378 -101.877)" fill="#7aa9e2"/>
          <path id="Trazado_878863" data-name="Trazado 878863" d="M114.455,144.049a1.066,1.066,0,0,0-.069-.254l-.006-.012c-.028-.055-.069-.127-.1-.179a.193.193,0,0,0-.019-.024l0-.006c-.033-.035-.1-.11-.139-.141l-.01-.008-.01-.008c-.039-.027-.128-.078-.17-.1l-.009,0a.113.113,0,0,0-.027-.01c-.031-.01-.16-.048-.191-.055l-.008,0-.017,0c-.038,0-.085,0-.117,0s-.077,0-.114,0l-.012,0-.006,0c-.028.006-.174.043-.2.052l-.01,0,0,0-.172.1-.009.006,0,0c-.012.01-.131.127-.139.138l-.006.008c-.016.021-.092.149-.1.172a1.06,1.06,0,0,0-.06.206.843.843,0,0,0,0,.243l0,.023c.014.064.035.141.053.2l0,.014.01.021.006.011a.573.573,0,0,0,.05.3l.1.171a.763.763,0,0,0,.3.237l.189.054a.765.765,0,0,0,.4-.049.855.855,0,0,0,.227-.128.957.957,0,0,0,.182-.179,1.09,1.09,0,0,0,.133-.222.184.184,0,0,0,.012-.029l.006-.017c.02-.066.041-.136.057-.2a.334.334,0,0,0,.01-.069A1.31,1.31,0,0,0,114.455,144.049Z" transform="translate(-106.196 -98.065)" fill="#7aa9e2"/>
          <path id="Trazado_878864" data-name="Trazado 878864" d="M105.774,149.48c-.025-.037-.049-.074-.075-.11a.483.483,0,0,0-.4-.22.475.475,0,0,0-.472.215c-.025.035-.049.073-.073.109a.644.644,0,1,0,1.023.006Z" transform="translate(-104.63 -99.211)" fill="#7aa9e2"/>
          <path id="Trazado_878865" data-name="Trazado 878865" d="M202.405,87.958a.564.564,0,0,0-.051-.3l-.1-.171a.763.763,0,0,0-.3-.238l-.189-.053a.757.757,0,0,0-.4.049,1.224,1.224,0,0,0-.455.349.674.674,0,0,0-.06.082l-.051.082c-.007.009-.017.015-.023.024a.769.769,0,0,0-.075.127l0,.012a.845.845,0,0,0-.044.187c-.008.031-.016.062-.023.093a.585.585,0,0,0-.014.106,1.884,1.884,0,0,0,0,.243c0,.016,0,.032.006.048.015.08.039.16.061.239a.216.216,0,0,0,.02.049l.1.168a.568.568,0,0,0,.216.185.372.372,0,0,0,.176.075.566.566,0,0,0,.293.029,1.657,1.657,0,0,0,.229-.061l.021-.01c.056-.028.123-.068.177-.1a.3.3,0,0,0,.036-.027c.027-.023.052-.052.077-.075s.055-.051.078-.078a.9.9,0,0,0,.132-.222,1.488,1.488,0,0,0,.081-.25.686.686,0,0,0,.014-.173c0-.016,0-.034,0-.051s.019-.029.025-.046A.565.565,0,0,0,202.405,87.958Z" transform="translate(-123.253 -87.19)" fill="#7aa9e2"/>
          <path id="Trazado_878866" data-name="Trazado 878866" d="M368.542,157.029a.9.9,0,0,0-.169-.446.266.266,0,0,0-.037-.048c-.044-.047-.09-.1-.139-.139l-.03-.023a1.04,1.04,0,0,0-.26-.14,1.03,1.03,0,0,0-.467-.062l-.03.006a1.754,1.754,0,0,0-.2.053.175.175,0,0,0-.028.012,1.806,1.806,0,0,0-.179.1.266.266,0,0,0-.024.018,1.821,1.821,0,0,0-.143.14.979.979,0,0,0-.125.2.248.248,0,0,0-.022.052c-.019.064-.041.13-.055.2a.206.206,0,0,0,0,.032c0,.019,0,.037,0,.056s-.019.031-.026.049a.779.779,0,0,0,0,.538l.089.156a.693.693,0,0,0,.276.217l.173.049a.676.676,0,0,0,.276-.022l.143,0a.821.821,0,0,0,.1-.025c.031-.008.068-.016.1-.027a.657.657,0,0,0,.223-.159c.046-.018.092-.035.137-.056l.157-.089a.524.524,0,0,0,.172-.2.339.339,0,0,0,.07-.164A.519.519,0,0,0,368.542,157.029Z" transform="translate(-155.451 -100.573)" fill="#7aa9e2"/>
          <path id="Trazado_878867" data-name="Trazado 878867" d="M412.357,126.621c0-.035,0-.081,0-.119a1.306,1.306,0,0,0-.06-.237.719.719,0,0,0-.559-.438c-.067,0-.134,0-.2,0-.12,0-.245-.011-.365,0a1.14,1.14,0,0,0-.641.192.607.607,0,0,0-.189.243.452.452,0,0,0-.044.233.158.158,0,0,0,0,.019l-.029.1,0,.188,0,.015a1.3,1.3,0,0,0,.052.2l.007.022.01.021a1.561,1.561,0,0,0,.1.175.2.2,0,0,0,.023.032,1.754,1.754,0,0,0,.139.14l.018.016a1.341,1.341,0,0,0,.187.113.256.256,0,0,0,.043.02,1.5,1.5,0,0,0,.172.05.637.637,0,0,0,.422.092l.175-.046a9.436,9.436,0,0,1,.38-.28,1.092,1.092,0,0,0,.278-.356.754.754,0,0,0,.078-.267C412.359,126.7,412.357,126.656,412.357,126.621Z" transform="translate(-163.934 -94.685)" fill="#7aa9e2"/>
          <path id="Trazado_878868" data-name="Trazado 878868" d="M413.34,117.858a.674.674,0,0,0-.329-.379l-.065-.035a.461.461,0,0,0-.395-.014c-.011,0-.023.006-.035.01a.533.533,0,0,0-.166.113.541.541,0,0,0-.131.18c0,.009,0,.017-.008.025a.456.456,0,0,0,0,.406c.012.021.023.043.035.064a.746.746,0,0,0,.285.3.556.556,0,0,0,.751-.108A.512.512,0,0,0,413.34,117.858Z" transform="translate(-164.302 -93.05)" fill="#7aa9e2"/>
          <path id="Trazado_878869" data-name="Trazado 878869" d="M154.573,99.558a.239.239,0,0,0-.006-.041c-.012-.06-.034-.136-.051-.2l0-.011-.009-.023-.01-.02c-.031-.058-.064-.122-.1-.177a.77.77,0,0,0-.093-.1.73.73,0,0,0-.1-.091,1.437,1.437,0,0,0-.194-.116.277.277,0,0,0-.035-.015c-.065-.023-.133-.039-.2-.057l-.023,0a.239.239,0,0,0-.042-.006,1.777,1.777,0,0,0-.236,0,.351.351,0,0,0-.042.006c-.067.015-.139.034-.2.053l-.023.008a.785.785,0,0,0-.118.064.711.711,0,0,0-.117.072c-.05.043-.1.094-.145.142l-.015.017a.669.669,0,0,0-.052.085.536.536,0,0,0-.052.09c-.013.036-.023.077-.033.112a1.143,1.143,0,0,0-.035.133,1.7,1.7,0,0,0,0,.239,1.136,1.136,0,0,0,.062.276.47.47,0,0,0,.035.084,1.87,1.87,0,0,0,.12.206.374.374,0,0,0,.031.039c.046.052.1.1.147.15l.021.018a.381.381,0,0,0,.041.03,2.173,2.173,0,0,0,.2.122.473.473,0,0,0,.047.019c.036.013.076.023.112.033a.4.4,0,0,0,.2.029.371.371,0,0,0,.2-.024l.1-.027.039-.016-.184.048c.068-.018.139-.032.206-.055l.027-.011.025-.013a.735.735,0,0,0,.29-.22.671.671,0,0,0,.135-.313c0-.015,0-.027,0-.041a1.2,1.2,0,0,0,.044-.131,1.012,1.012,0,0,0,.034-.131l0-.021c0-.035,0-.081,0-.106S154.575,99.593,154.573,99.558Z" transform="translate(-113.944 -89.423)" fill="#7aa9e2"/>
          <path id="Trazado_878870" data-name="Trazado 878870" d="M153.514,91.611l-.043-.164a.476.476,0,0,0-.1-.162v0a.6.6,0,0,0-.185-.245l-.022-.018a1.585,1.585,0,0,0-.143-.085L153,90.927a.676.676,0,0,0-.2-.056h-.013c-.055,0-.119,0-.174,0l-.03,0-.015,0c-.055.012-.114.029-.168.044l-.031.01-.026.012c-.049.027-.1.056-.147.085l-.015.01a.236.236,0,0,0-.023.017l-.011.01c-.041.038-.085.081-.123.121a.277.277,0,0,0-.02.023l0,0c-.016.024-.069.116-.084.142l-.008.015a.173.173,0,0,0-.01.026,1.3,1.3,0,0,0-.052.182.148.148,0,0,0,0,.027,1.075,1.075,0,0,0,0,.2.717.717,0,0,0,.06.217,1.245,1.245,0,0,0,.093.162.681.681,0,0,0,.073.077.8.8,0,0,0,.074.073,1.176,1.176,0,0,0,.161.1l.022.01.01,0c.054.019.116.035.171.049a.3.3,0,0,0,.053.008,2.03,2.03,0,0,0,.222,0,.362.362,0,0,0,.052-.009c.06-.015.122-.029.181-.048l.015,0,.027-.012a.823.823,0,0,0,.311-.234c0-.007.085-.141.087-.148l0-.006,0-.013c.018-.056.035-.117.049-.174l0-.012A.684.684,0,0,0,153.514,91.611Z" transform="translate(-113.79 -87.903)" fill="#7aa9e2"/>
        </g>
      </g>
    </g>
  </g>
</svg>
