<svg xmlns="http://www.w3.org/2000/svg" xmlns:xlink="http://www.w3.org/1999/xlink" width="315" height="232.396" viewBox="0 0 315 232.396">
  <defs>
    <clipPath id="clip-path">
      <rect id="Rectángulo_402923" data-name="Rectángulo 402923" width="315" height="232.396" transform="translate(1000 10326.967)" fill="#12263f"/>
    </clipPath>
  </defs>
  <g id="Grupo_1189630" data-name="Grupo 1189630" transform="translate(-1000 -10326.967)">
    <g id="Enmascarar_grupo_1099215" data-name="Enmascarar grupo 1099215" clip-path="url(#clip-path)">
      <rect id="Rectángulo_402963" data-name="Rectángulo 402963" width="315" height="232.396" transform="translate(1000 10326.967)" fill="#12263f"/>
      <g id="Grupo_1189629" data-name="Grupo 1189629" transform="translate(974.704 10215.033)">
        <g id="Grupo_1189585" data-name="Grupo 1189585" transform="translate(25.297 43.576)">
          <path id="Trazado_878871" data-name="Trazado 878871" d="M340.3,43.576V194.688H257.384c-.54-9.42-2.215-30.4-6.96-50.257-6.378-26.663-11.474-22.738-11.474-22.738L236.1,194.688H25.3V43.576Z" transform="translate(-25.298 -43.576)" fill="#c4dbff"/>
          <g id="Grupo_1189584" data-name="Grupo 1189584" transform="translate(17.623 162.879)">
            <rect id="Rectángulo_402949" data-name="Rectángulo 402949" width="279.755" height="97.817" transform="translate(0 0)" fill="#edb99a"/>
            <g id="Grupo_1189582" data-name="Grupo 1189582" transform="translate(26.327 0)">
              <line id="Línea_599" data-name="Línea 599" y2="97.817" fill="none" stroke="#fff" stroke-miterlimit="10" stroke-width="0.75"/>
              <line id="Línea_600" data-name="Línea 600" y2="97.817" transform="translate(32.443)" fill="none" stroke="#fff" stroke-miterlimit="10" stroke-width="0.75"/>
              <line id="Línea_601" data-name="Línea 601" y2="97.817" transform="translate(64.886)" fill="none" stroke="#fff" stroke-miterlimit="10" stroke-width="0.75"/>
              <line id="Línea_602" data-name="Línea 602" y2="97.817" transform="translate(97.329)" fill="none" stroke="#fff" stroke-miterlimit="10" stroke-width="0.75"/>
              <line id="Línea_603" data-name="Línea 603" y2="97.817" transform="translate(129.772)" fill="none" stroke="#fff" stroke-miterlimit="10" stroke-width="0.75"/>
              <line id="Línea_604" data-name="Línea 604" y2="97.817" transform="translate(162.215)" fill="none" stroke="#fff" stroke-miterlimit="10" stroke-width="0.75"/>
              <line id="Línea_605" data-name="Línea 605" y2="97.817" transform="translate(194.658)" fill="none" stroke="#fff" stroke-miterlimit="10" stroke-width="0.75"/>
              <line id="Línea_606" data-name="Línea 606" y2="97.817" transform="translate(227.101)" fill="none" stroke="#fff" stroke-miterlimit="10" stroke-width="0.75"/>
            </g>
            <g id="Grupo_1189583" data-name="Grupo 1189583" transform="translate(0.21 31.162)">
              <line id="Línea_607" data-name="Línea 607" x2="279.544" fill="none" stroke="#fff" stroke-miterlimit="10" stroke-width="0.75"/>
              <line id="Línea_608" data-name="Línea 608" x2="279.544" transform="translate(0 35.493)" fill="none" stroke="#fff" stroke-miterlimit="10" stroke-width="0.75"/>
            </g>
          </g>
          <path id="Trazado_878872" data-name="Trazado 878872" d="M304.405,244.955v-72.3L25.3,268.016V391.355l285.166-97.434v-48.76Z" transform="translate(-25.297 -82.179)" fill="#fffeff" opacity="0.2"/>
        </g>
        <g id="Grupo_1189589" data-name="Grupo 1189589" transform="translate(32.054 279.187)">
          <rect id="Rectángulo_402950" data-name="Rectángulo 402950" width="5.516" height="75.651" transform="translate(46.011 8.655)" fill="#312845"/>
          <rect id="Rectángulo_402951" data-name="Rectángulo 402951" width="5.516" height="44.046" transform="translate(11.077 40.259)" fill="#969daf"/>
          <rect id="Rectángulo_402952" data-name="Rectángulo 402952" width="5.516" height="75.651" transform="translate(249.96 8.655)" fill="#312845"/>
          <g id="Grupo_1189586" data-name="Grupo 1189586">
            <path id="Trazado_878873" data-name="Trazado 878873" d="M185.681,428.241H34.937v6.249H336.424v-6.249Z" transform="translate(-34.937 -394.23)" fill="#969daf"/>
            <path id="Trazado_878874" data-name="Trazado 878874" d="M300.131,379.718H71.231L34.937,413.729H336.424Z" transform="translate(-34.937 -379.718)" fill="#969daf"/>
          </g>
          <rect id="Rectángulo_402953" data-name="Rectángulo 402953" width="5.516" height="44.046" transform="translate(284.894 40.259)" fill="#969daf"/>
          <line id="Línea_609" data-name="Línea 609" x1="301.488" transform="translate(0 34.012)" fill="none" stroke="#312845" stroke-linecap="round" stroke-linejoin="round" stroke-width="1"/>
          <g id="Grupo_1189588" data-name="Grupo 1189588" transform="translate(30.538 40.022)">
            <rect id="Rectángulo_402954" data-name="Rectángulo 402954" width="240.411" height="33.049" fill="#534e5e"/>
            <g id="Grupo_1189587" data-name="Grupo 1189587" transform="translate(69.998)">
              <line id="Línea_610" data-name="Línea 610" y2="33.049" fill="none" stroke="#312845" stroke-linecap="round" stroke-linejoin="round" stroke-width="1"/>
              <line id="Línea_611" data-name="Línea 611" y2="33.049" transform="translate(100.416)" fill="none" stroke="#312845" stroke-linecap="round" stroke-linejoin="round" stroke-width="1"/>
            </g>
            <line id="Línea_612" data-name="Línea 612" x2="100.416" transform="translate(69.998 16.524)" fill="none" stroke="#312845" stroke-linecap="round" stroke-linejoin="round" stroke-width="1"/>
            <rect id="Rectángulo_402955" data-name="Rectángulo 402955" width="22.02" height="2.218" transform="translate(109.196 9.676)" fill="#fff"/>
            <rect id="Rectángulo_402956" data-name="Rectángulo 402956" width="22.02" height="2.218" transform="translate(109.196 21.155)" fill="#fff"/>
          </g>
        </g>
        <g id="Grupo_1189614" data-name="Grupo 1189614" transform="translate(91.184 113.613)">
          <ellipse id="Elipse_11583" data-name="Elipse 11583" cx="96.476" cy="5.995" rx="96.476" ry="5.995" transform="translate(3.394 180.019)" fill="#312845"/>
          <g id="Grupo_1189613" data-name="Grupo 1189613">
            <path id="Trazado_878875" data-name="Trazado 878875" d="M162.273,355.207S141.247,359.378,125.7,337.1s.946-44.487,9.986-62.089-3.751-25.16-11.245-36.5,26.143-20.972,35.454,11.028c9.887,33.979-42.061,80.923-5.532,83.387Z" transform="translate(-119.297 -168.697)" fill="#3f4052"/>
            <g id="Grupo_1189592" data-name="Grupo 1189592" transform="translate(96.028)">
              <g id="Grupo_1189591" data-name="Grupo 1189591">
                <g id="Grupo_1189590" data-name="Grupo 1189590">
                  <path id="Trazado_878876" data-name="Trazado 878876" d="M286.126,182.078a32.644,32.644,0,0,1-8.582-.528l-.465-.093a46.4,46.4,0,0,1-16.245-7.067c-1.011-.681-1.874-1.315-2.568-1.85-1.272-.976-1.968-1.616-1.968-1.616s11.113-32.463,15.71-26.754S286.126,182.078,286.126,182.078Z" transform="translate(-256.298 -143.496)" fill="#312845"/>
                </g>
              </g>
            </g>
            <g id="Grupo_1189593" data-name="Grupo 1189593" transform="translate(29.146 26.113)">
              <path id="Trazado_878877" data-name="Trazado 878877" d="M307.473,341.148H174.709c-3.838,0-7.813-6.117-10.512-14.819a77.633,77.633,0,0,1-3.272-19.791,62.593,62.593,0,0,1,1.311-15.739c1.441-6.418,4.1-12.181,8.375-16.348,18.449-17.991,32.212-43.988,32.425-44.388l0-.006s-12.7-17.07-11.541-29.169c.286-2.954,2.939-4.218,6.5-5.139,3.88-1.009,8.827-1.607,12.91-3.553,7.823-3.718,10.559-8.686,17.258-11.167,1.285-.478,4.026-.317,7.677.286,4.3.713,9.852,2.034,15.76,3.646,15.276,4.166,32.914,10.294,37.257,12.827,2.621,1.529,3.63,11.771,3.885,24.909.078,4.042.088,8.359.052,12.774-.172,19.672-1.238,41.423-.988,50.334.032,1.051.079,1.919.151,2.591,1.243,11.791,3.162,25.429,6.85,33.512C301.622,328.061,314.964,328.889,307.473,341.148Z" transform="translate(-160.88 -180.75)" fill="#ffecde"/>
              <path id="Trazado_878878" data-name="Trazado 878878" d="M341.765,309.155c-3.989-.848-7.958-2.434-9.627-4.822a27.262,27.262,0,0,1-1.758-25.83c3.51-7.552,9.315-15.641,12.373-19.682C342.582,278.493,341.516,300.244,341.765,309.155Z" transform="translate(-210.838 -204.099)" fill="#ef874a"/>
              <path id="Trazado_878879" data-name="Trazado 878879" d="M327.644,224.5c-5.467,4.55-13,9.275-18.547,8.542-8.244-1.091-22.782-8.633-26.85-13.633s-5.455-11.181-4.255-19.555,8.511-13.092,8.511-13.092c15.276,4.169,32.913,10.291,37.255,12.825C326.381,201.113,327.389,211.357,327.644,224.5Z" transform="translate(-195.78 -182.547)" fill="#3f4052"/>
              <path id="Trazado_878880" data-name="Trazado 878880" d="M250.221,204.5s-14.962,14.8-18.892,15.433-10.354-2.859-12.4-6.735c-1.452-2.745-3.832-12.186-5.1-17.449,3.879-1.008,8.825-1.6,12.908-3.549,7.824-3.722,10.562-8.687,17.26-11.17,1.283-.475,4.024-.314,7.675.29a32.005,32.005,0,0,1,4.408,13.578C256.374,199.842,250.221,204.5,250.221,204.5Z" transform="translate(-176.716 -180.751)" fill="#ef874a"/>
              <path id="Trazado_878881" data-name="Trazado 878881" d="M239.522,326.813c-4.039,18-37.227,22.339-51.354,19.857s-22.363-6.534-27.242-19.092c-.427-12.186,2.083-24.677,9.683-32.086C189.062,277.5,202.824,251.5,203.036,251.1l0,0s15.46,8.094,21.926,17.6C231.756,278.686,243.566,308.815,239.522,326.813Z" transform="translate(-160.88 -201.788)" fill="#ef874a"/>
              <path id="Trazado_878882" data-name="Trazado 878882" d="M231.853,256.746c-7.316,1.808-3.807,13.493,0,18.351s11.294,6.316,16.193,5.793,1.73-17.831-1.625-20.288S237.512,255.349,231.853,256.746Z" transform="translate(-180.829 -203.367)" fill="#3f4052"/>
              <path id="Trazado_878883" data-name="Trazado 878883" d="M178.772,377.342c-4.349.728-9.82-1.425-14.574-4.057a77.633,77.633,0,0,1-3.272-19.791,62.592,62.592,0,0,1,1.311-15.739c11.349,4.972,22.928,23.791,24.353,28.061C188.238,370.747,188.649,375.7,178.772,377.342Z" transform="translate(-160.88 -227.706)" fill="#3f4052"/>
            </g>
            <g id="Grupo_1189595" data-name="Grupo 1189595" transform="translate(129.242 7.323)">
              <g id="Grupo_1189594" data-name="Grupo 1189594" transform="translate(1.007)">
                <path id="Trazado_878884" data-name="Trazado 878884" d="M334.109,193.5a32.62,32.62,0,0,1-8.525-1.119c-.156-.041-.307-.083-.458-.125a46.377,46.377,0,0,1-15.718-8.171c-.962-.749-1.779-1.441-2.434-2.024-1.2-1.061-1.852-1.747-1.852-1.747s13.326-31.62,17.518-25.606S334.109,193.5,334.109,193.5Z" transform="translate(-305.121 -153.944)" fill="#3f4052"/>
                <path id="Trazado_878885" data-name="Trazado 878885" d="M325.494,188.485c-8.27-5.982-8.473-1.04-8.473-1.04a32.067,32.067,0,0,0-8.649-4.291c4.145-10.148,10.2-22.927,12.218-21.945C322.576,162.182,324.3,176.866,325.494,188.485Z" transform="translate(-306.093 -156.101)" fill="#feaa9f"/>
              </g>
              <path id="Trazado_878886" data-name="Trazado 878886" d="M303.684,191.381a30.291,30.291,0,0,1,11.935,5.1s.267-6.432,12.47,4.26" transform="translate(-303.684 -165.14)" fill="none" stroke="#312845" stroke-linecap="round" stroke-linejoin="round" stroke-width="2"/>
            </g>
            <g id="Grupo_1189598" data-name="Grupo 1189598" transform="translate(20.189 31.913)">
              <g id="Grupo_1189596" data-name="Grupo 1189596">
                <path id="Trazado_878887" data-name="Trazado 878887" d="M165.6,189.026s33.586,5.5,49.793,17.441" transform="translate(-153.332 -189.026)" fill="none" stroke="#312845" stroke-linecap="round" stroke-linejoin="round" stroke-width="2"/>
                <path id="Trazado_878888" data-name="Trazado 878888" d="M148.1,211.064s31.553-7.691,61.078,4.712" transform="translate(-148.1 -194.912)" fill="none" stroke="#312845" stroke-linecap="round" stroke-linejoin="round" stroke-width="2"/>
                <path id="Trazado_878889" data-name="Trazado 878889" d="M163.968,228.905s29.421-11.626,50.25-5.8" transform="translate(-152.846 -198.73)" fill="none" stroke="#312845" stroke-linecap="round" stroke-linejoin="round" stroke-width="2"/>
              </g>
              <g id="Grupo_1189597" data-name="Grupo 1189597" transform="translate(104.283 23.724)">
                <path id="Trazado_878890" data-name="Trazado 878890" d="M352.741,229.856s-32.591-9.8-52.4-6.181" transform="translate(-297.915 -222.872)" fill="none" stroke="#312845" stroke-linecap="round" stroke-linejoin="round" stroke-width="2"/>
                <path id="Trazado_878891" data-name="Trazado 878891" d="M356.4,251.589s-24.976-20.759-56.949-22.573" transform="translate(-297.648 -224.71)" fill="none" stroke="#312845" stroke-linecap="round" stroke-linejoin="round" stroke-width="2"/>
                <path id="Trazado_878892" data-name="Trazado 878892" d="M339.485,260.6s-21.334-23.36-42.607-27.264" transform="translate(-296.878 -226.002)" fill="none" stroke="#312845" stroke-linecap="round" stroke-linejoin="round" stroke-width="2"/>
              </g>
            </g>
            <g id="Grupo_1189604" data-name="Grupo 1189604" transform="translate(92.114 49.094)">
              <path id="Trazado_878893" data-name="Trazado 878893" d="M252.219,220.7s-1.033-2.558,0-4.317a5.9,5.9,0,0,1,6.867-2.587c3.416.932,4.2,2.38,5.129,2.38a47.087,47.087,0,0,0,4.855.055,5.2,5.2,0,0,1,4.661,2.427c.724,1.552-1.078,4.8-2.337,5.729s-2.708,2.273-4.271,2.2c0,0-3.115,2.516-5.908,2.1s-4.2-3.483-4.2-3.483A22.229,22.229,0,0,1,252.219,220.7Z" transform="translate(-251.028 -213.538)" fill="#fff"/>
              <g id="Grupo_1189600" data-name="Grupo 1189600" transform="translate(0 0.148)">
                <g id="Grupo_1189599" data-name="Grupo 1189599" transform="translate(7.494)">
                  <path id="Trazado_878894" data-name="Trazado 878894" d="M266.6,215.143c-1.841-.368-4.055-1.8-4.628-1.284-1.273,1.137-.479,5.223,3.25,6.158,3.259.818,6.608-2.558,6.735-3.723C272.078,215.173,266.6,215.143,266.6,215.143Z" transform="translate(-261.406 -213.75)" fill="#312845"/>
                </g>
                <path id="Trazado_878895" data-name="Trazado 878895" d="M250.715,221.368s4.464,6.737,6.446,6.172,3.864-5.319,5.075-4.944,2.722,5.985,4.574,6.336c1.67.316,6.525-3.909,6.608-4.518" transform="translate(-250.715 -216.028)" fill="none" stroke="#312845" stroke-linecap="round" stroke-linejoin="round" stroke-width="2"/>
              </g>
              <g id="Grupo_1189603" data-name="Grupo 1189603" transform="translate(2.184 1.603)">
                <g id="Grupo_1189601" data-name="Grupo 1189601">
                  <path id="Trazado_878896" data-name="Trazado 878896" d="M257.322,216.6c-.076.39-.287.676-.47.64s-.268-.381-.191-.771.287-.676.47-.64S257.4,216.209,257.322,216.6Z" transform="translate(-254.668 -215.825)" fill="#312845"/>
                  <path id="Trazado_878897" data-name="Trazado 878897" d="M254.521,219.808c-.077.39-.287.676-.47.64s-.269-.381-.192-.77.287-.676.47-.641S254.6,219.418,254.521,219.808Z" transform="translate(-253.831 -216.784)" fill="#312845"/>
                  <path id="Trazado_878898" data-name="Trazado 878898" d="M258.43,221.625c-.076.39-.287.676-.47.64s-.268-.381-.192-.771.287-.676.47-.64S258.508,221.235,258.43,221.625Z" transform="translate(-255 -217.328)" fill="#312845"/>
                </g>
                <g id="Grupo_1189602" data-name="Grupo 1189602" transform="translate(14.006 2.958)">
                  <path id="Trazado_878899" data-name="Trazado 878899" d="M276.581,220.707c-.06.393.041.733.225.762s.382-.267.442-.66-.04-.734-.224-.762S276.641,220.314,276.581,220.707Z" transform="translate(-274.635 -220.045)" fill="#312845"/>
                  <path id="Trazado_878900" data-name="Trazado 878900" d="M278.124,224.677c-.06.393.041.734.225.762s.382-.267.442-.66-.041-.734-.224-.762S278.184,224.284,278.124,224.677Z" transform="translate(-275.096 -221.233)" fill="#312845"/>
                  <path id="Trazado_878901" data-name="Trazado 878901" d="M273.83,225.056c-.06.393.041.734.224.762s.383-.267.443-.66-.041-.733-.225-.762S273.89,224.663,273.83,225.056Z" transform="translate(-273.812 -221.346)" fill="#312845"/>
                </g>
              </g>
            </g>
            <g id="Grupo_1189609" data-name="Grupo 1189609" transform="translate(87.74 23.925)">
              <g id="Grupo_1189607" data-name="Grupo 1189607" transform="translate(0 5.315)">
                <g id="Grupo_1189605" data-name="Grupo 1189605" transform="translate(24.517 6.244)">
                  <path id="Trazado_878902" data-name="Trazado 878902" d="M293.868,205.925c-1.834,4.934-6.357,7.806-10.1,6.413s-5.293-6.52-3.459-11.454,6.357-7.806,10.1-6.413S295.7,200.991,293.868,205.925Z" transform="translate(-279.477 -194.12)" fill="#fff"/>
                  <ellipse id="Elipse_11584" data-name="Elipse 11584" cx="7.23" cy="5.03" rx="7.23" ry="5.03" transform="translate(0 14.003) rotate(-69.609)" fill="#312845"/>
                  <path id="Trazado_878903" data-name="Trazado 878903" d="M283.019,208.379c-.183.731-.77,1.213-1.313,1.077a1.228,1.228,0,0,1-.651-1.569c.183-.731.771-1.213,1.314-1.078A1.228,1.228,0,0,1,283.019,208.379Z" transform="translate(-279.915 -197.908)" fill="#fff"/>
                </g>
                <g id="Grupo_1189606" data-name="Grupo 1189606" transform="translate(0 0)">
                  <ellipse id="Elipse_11585" data-name="Elipse 11585" cx="9.531" cy="7.233" rx="9.531" ry="7.233" transform="matrix(0.333, -0.943, 0.943, 0.333, 0, 17.977)" fill="#fff"/>
                  <ellipse id="Elipse_11586" data-name="Elipse 11586" cx="7.23" cy="5.03" rx="7.23" ry="5.03" transform="matrix(0.333, -0.943, 0.943, 0.333, 2.462, 16.24)" fill="#312845"/>
                  <path id="Trazado_878904" data-name="Trazado 878904" d="M251.255,202.632c-.183.731-.771,1.213-1.314,1.078a1.228,1.228,0,0,1-.65-1.569c.183-.731.77-1.213,1.313-1.077A1.228,1.228,0,0,1,251.255,202.632Z" transform="translate(-245.898 -189.946)" fill="#fff"/>
                </g>
              </g>
              <g id="Grupo_1189608" data-name="Grupo 1189608" transform="translate(5.193)">
                <path id="Trazado_878905" data-name="Trazado 878905" d="M252,181.481c-1.4-3.695,9.694-5.025,9.868-2.692S253.084,184.325,252,181.481Z" transform="translate(-251.882 -177.629)" fill="#fffefc"/>
                <path id="Trazado_878906" data-name="Trazado 878906" d="M303.1,190.107c1.721-3.556-9.212-5.861-9.591-3.552S301.773,192.844,303.1,190.107Z" transform="translate(-264.328 -180.021)" fill="#fffefc"/>
              </g>
            </g>
            <path id="Trazado_878907" data-name="Trazado 878907" d="M364.346,388.791s9.622,5.6,3.978,14.577" transform="translate(-192.584 -216.857)" fill="none" stroke="#312845" stroke-linecap="round" stroke-linejoin="round" stroke-width="2"/>
            <path id="Trazado_878908" data-name="Trazado 878908" d="M344.832,382.327a27.723,27.723,0,0,1,8.994-.892" transform="translate(-186.748 -214.639)" fill="none" stroke="#312845" stroke-linecap="round" stroke-linejoin="round" stroke-width="2"/>
            <g id="Grupo_1189611" data-name="Grupo 1189611" transform="translate(69.249 75.423)">
              <path id="Trazado_878909" data-name="Trazado 878909" d="M220.147,251.1s27.167,17.6,67.44,7.093l1.028,2.721s-22.962,11.361-43.743,6.636c-16.737-3.8-26.779-12.754-26.779-12.754Z" transform="translate(-218.093 -251.101)" fill="#1c745e"/>
              <g id="Grupo_1189610" data-name="Grupo 1189610" transform="translate(20.045 14.879)">
                <path id="Trazado_878910" data-name="Trazado 878910" d="M260.858,279.8c-.392,3.622-3.17,6.293-6.2,5.964s-5.175-3.531-4.783-7.154,3.17-6.292,6.2-5.964S261.25,276.181,260.858,279.8Z" transform="translate(-247.629 -272.416)" fill="#312845"/>
                <path id="Trazado_878911" data-name="Trazado 878911" d="M258.379,279.548c-.392,3.622-3.317,6.277-6.532,5.928s-5.5-3.566-5.112-7.189,3.317-6.277,6.532-5.929S258.771,275.926,258.379,279.548Z" transform="translate(-246.692 -272.328)" fill="#f6cb58"/>
              </g>
              <path id="Trazado_878912" data-name="Trazado 878912" d="M255.06,272.369s1.248-12.641,5.782-7.963" transform="translate(-229.149 -254.77)" fill="none" stroke="#312845" stroke-linecap="round" stroke-linejoin="round" stroke-width="2"/>
            </g>
            <g id="Grupo_1189612" data-name="Grupo 1189612" transform="translate(70.492 71.024)">
              <path id="Trazado_878913" data-name="Trazado 878913" d="M318.577,306.173s-4.227,40.679,1.091,51.85,12.8,12.41,5.057,20.635" transform="translate(-248.912 -263.172)" fill="none" stroke="#312845" stroke-linecap="round" stroke-linejoin="round" stroke-width="2"/>
              <path id="Trazado_878914" data-name="Trazado 878914" d="M222.7,326.518s41.751.961,35.08,24.007-22.355,22.223-22.355,22.223,18.737-2.469,22.355,2.469a8.973,8.973,0,0,1,.969,9.525" transform="translate(-220.714 -269.257)" fill="none" stroke="#312845" stroke-linecap="round" stroke-linejoin="round" stroke-width="2"/>
              <path id="Trazado_878915" data-name="Trazado 878915" d="M261.86,396.778s7.332,3.138,3.323,8.977" transform="translate(-232.426 -290.27)" fill="none" stroke="#312845" stroke-linecap="round" stroke-linejoin="round" stroke-width="2"/>
              <path id="Trazado_878916" data-name="Trazado 878916" d="M219.867,299.718a59.156,59.156,0,0,1,17.715,11.5" transform="translate(-219.867 -261.242)" fill="none" stroke="#312845" stroke-linecap="round" stroke-linejoin="round" stroke-width="2"/>
              <path id="Trazado_878917" data-name="Trazado 878917" d="M236.9,299.715a15.663,15.663,0,0,1,6.992,4.527" transform="translate(-224.96 -261.241)" fill="none" stroke="#312845" stroke-linecap="round" stroke-linejoin="round" stroke-width="2"/>
              <path id="Trazado_878918" data-name="Trazado 878918" d="M321.028,396.778s3.014,4.921-1.237,8.977" transform="translate(-249.751 -290.27)" fill="none" stroke="#312845" stroke-linecap="round" stroke-linejoin="round" stroke-width="2"/>
              <path id="Trazado_878919" data-name="Trazado 878919" d="M358.068,396.778s5.958,2.863,4.008,8.977" transform="translate(-261.199 -290.27)" fill="none" stroke="#312845" stroke-linecap="round" stroke-linejoin="round" stroke-width="2"/>
              <path id="Trazado_878920" data-name="Trazado 878920" d="M258.288,299.715s-2.544,7.951.356,9.322,3.845-4.382,3.845-4.382,3.786,29.622,11.874,42.358c6.664,10.492,6.3,29.712,19.4,29.712" transform="translate(-231.049 -261.241)" fill="none" stroke="#312845" stroke-linecap="round" stroke-linejoin="round" stroke-width="2"/>
              <path id="Trazado_878921" data-name="Trazado 878921" d="M269.927,249.34c-5.772,1.507-9.641.177-11.934-3.465,0,0-1.926,4.29-4.27-1.051" transform="translate(-229.992 -244.825)" fill="none" stroke="#312845" stroke-linecap="round" stroke-linejoin="round" stroke-width="2"/>
              <path id="Trazado_878922" data-name="Trazado 878922" d="M319.907,292.5a11.358,11.358,0,0,1,3.422-4.759" transform="translate(-249.786 -257.661)" fill="none" stroke="#312845" stroke-linecap="round" stroke-linejoin="round" stroke-width="2"/>
              <path id="Trazado_878923" data-name="Trazado 878923" d="M323.672,296.013a17.71,17.71,0,0,1,8.4-8.98" transform="translate(-250.912 -257.448)" fill="none" stroke="#312845" stroke-linecap="round" stroke-linejoin="round" stroke-width="2"/>
              <path id="Trazado_878924" data-name="Trazado 878924" d="M316.784,257.052a8.467,8.467,0,0,0,2.69,7.4" transform="translate(-248.827 -248.482)" fill="none" stroke="#312845" stroke-linecap="round" stroke-linejoin="round" stroke-width="2"/>
            </g>
          </g>
        </g>
        <g id="Grupo_1189617" data-name="Grupo 1189617" transform="translate(25.297 88.241)">
          <g id="Grupo_1189615" data-name="Grupo 1189615">
            <path id="Trazado_878925" data-name="Trazado 878925" d="M25.3,130.331l0,5.269H74.059l4.005-5.269Z" transform="translate(-25.297 -84.856)" fill="#312845"/>
            <rect id="Rectángulo_402957" data-name="Rectángulo 402957" width="52.767" height="45.476" transform="translate(0.001 0)" fill="#3570cc"/>
            <line id="Línea_613" data-name="Línea 613" y1="45.476" transform="translate(22.513 0)" fill="none" stroke="#fff" stroke-miterlimit="10" stroke-width="0.75"/>
            <path id="Trazado_878926" data-name="Trazado 878926" d="M53.259,65.452v5.5a9.788,9.788,0,0,1-2.839-5.5Z" transform="translate(-32.81 -65.452)" fill="#312845"/>
            <path id="Trazado_878927" data-name="Trazado 878927" d="M63.2,65.452a9.788,9.788,0,0,1-2.839,5.5v-5.5Z" transform="translate(-35.783 -65.452)" fill="#312845"/>
          </g>
          <g id="Grupo_1189616" data-name="Grupo 1189616" transform="translate(262.231)">
            <path id="Trazado_878928" data-name="Trazado 878928" d="M452.183,130.331l0,5.269H403.422l-4.005-5.269Z" transform="translate(-399.417 -84.856)" fill="#312845"/>
            <rect id="Rectángulo_402958" data-name="Rectángulo 402958" width="52.767" height="45.476" transform="translate(0 0)" fill="#3570cc"/>
            <line id="Línea_614" data-name="Línea 614" y1="45.476" transform="translate(30.256 0)" fill="none" stroke="#fff" stroke-miterlimit="10" stroke-width="0.75"/>
            <path id="Trazado_878929" data-name="Trazado 878929" d="M445.527,65.452v5.5a9.788,9.788,0,0,0,2.839-5.5Z" transform="translate(-413.207 -65.452)" fill="#312845"/>
            <path id="Trazado_878930" data-name="Trazado 878930" d="M435.587,65.452a9.788,9.788,0,0,0,2.839,5.5v-5.5Z" transform="translate(-410.234 -65.452)" fill="#312845"/>
          </g>
        </g>
        <g id="Grupo_1189619" data-name="Grupo 1189619" transform="translate(274.435 180.741)">
          <path id="Trazado_878931" data-name="Trazado 878931" d="M380.919,302.6h0a.578.578,0,0,1-.026-.817l4.285-4.56a.577.577,0,0,1,.817-.025h0a.578.578,0,0,1,.026.817l-4.285,4.56A.577.577,0,0,1,380.919,302.6Z" transform="translate(-380.737 -256.546)" fill="#312845"/>
          <path id="Trazado_878932" data-name="Trazado 878932" d="M385.535,296.667h0a3.29,3.29,0,0,1-.145-4.651l2.253-2.4,4.8,4.506-2.253,2.4A3.291,3.291,0,0,1,385.535,296.667Z" transform="translate(-381.862 -254.325)" fill="#fffeff"/>
          <path id="Trazado_878933" data-name="Trazado 878933" d="M409.876,246.69l11.567,10.868-22.1,23.518a7.935,7.935,0,0,1-11.217.35h0a7.935,7.935,0,0,1-.35-11.217Z" transform="translate(-382.199 -241.487)" fill="#fff"/>
          <ellipse id="Elipse_11587" data-name="Elipse 11587" cx="3.685" cy="7.936" rx="3.685" ry="7.936" transform="matrix(0.685, -0.729, 0.729, 0.685, 25.153, 7.889)" fill="#fff"/>
          <path id="Trazado_878934" data-name="Trazado 878934" d="M431.563,257.558c-1.393,1.483-5.113.253-8.307-2.748s-4.654-6.636-3.26-8.12" transform="translate(-392.32 -241.487)" fill="none" stroke="#312845" stroke-linecap="round" stroke-linejoin="round" stroke-width="1"/>
          <path id="Trazado_878935" data-name="Trazado 878935" d="M431.2,244.464l3.545,3.331-3.758,4a2.432,2.432,0,0,1-3.438.107h0a2.432,2.432,0,0,1-.107-3.438Z" transform="translate(-394.508 -240.821)" fill="#312845"/>
          <path id="Trazado_878936" data-name="Trazado 878936" d="M433.018,244.382c.427-.454,1.567-.077,2.546.843s1.426,2.033,1,2.488-1.567.078-2.546-.842S432.59,244.837,433.018,244.382Z" transform="translate(-396.324 -240.739)" fill="#e5e8f1"/>
          <line id="Línea_615" data-name="Línea 615" x2="7.006" y2="6.582" transform="translate(36.501 0.381)" fill="#fffeff"/>
          <path id="Trazado_878937" data-name="Trazado 878937" d="M438.508,247.267c-.844.9-3.1.153-5.031-1.664s-2.819-4.02-1.975-4.918l.822-.875,7.006,6.582Z" transform="translate(-395.823 -239.429)" fill="#312845"/>
          <path id="Trazado_878938" data-name="Trazado 878938" d="M432.675,239.647c.844-.9,3.1-.154,5.031,1.665s2.818,4.019,1.975,4.918-3.1.153-5.031-1.665S431.831,240.546,432.675,239.647Z" transform="translate(-396.174 -239.266)" fill="#fff"/>
          <path id="Trazado_878939" data-name="Trazado 878939" d="M405.833,260.185l7.78,7.309-14.482,15.414a5.337,5.337,0,0,1-7.544.235h0a5.337,5.337,0,0,1-.236-7.544Z" transform="translate(-383.478 -245.523)" fill="#ca3f3e"/>
          <path id="Trazado_878940" data-name="Trazado 878940" d="M412.478,260c.937-1,3.438-.17,5.586,1.848s3.13,4.464,2.193,5.461-3.439.17-5.587-1.848S411.541,261,412.478,260Z" transform="translate(-390.123 -245.342)" fill="#ca3f3e"/>
          <g id="Grupo_1189618" data-name="Grupo 1189618" transform="translate(5.518 17.855)">
            <line id="Línea_616" data-name="Línea 616" x2="2.551" y2="2.397" transform="translate(12.844)" fill="none" stroke="#312845" stroke-linecap="round" stroke-linejoin="round" stroke-width="1"/>
            <line id="Línea_617" data-name="Línea 617" x2="2.551" y2="2.397" transform="translate(11.009 1.953)" fill="none" stroke="#312845" stroke-linecap="round" stroke-linejoin="round" stroke-width="1"/>
            <line id="Línea_618" data-name="Línea 618" x2="4.04" y2="3.795" transform="translate(9.174 3.906)" fill="none" stroke="#312845" stroke-linecap="round" stroke-linejoin="round" stroke-width="1"/>
            <line id="Línea_619" data-name="Línea 619" x2="2.551" y2="2.397" transform="translate(7.339 5.859)" fill="none" stroke="#312845" stroke-linecap="round" stroke-linejoin="round" stroke-width="1"/>
            <line id="Línea_620" data-name="Línea 620" x2="2.551" y2="2.397" transform="translate(5.505 7.812)" fill="none" stroke="#312845" stroke-linecap="round" stroke-linejoin="round" stroke-width="1"/>
            <line id="Línea_621" data-name="Línea 621" x2="4.04" y2="3.795" transform="translate(3.67 9.765)" fill="none" stroke="#312845" stroke-linecap="round" stroke-linejoin="round" stroke-width="1"/>
            <line id="Línea_622" data-name="Línea 622" x2="2.551" y2="2.397" transform="translate(1.835 11.718)" fill="none" stroke="#312845" stroke-linecap="round" stroke-linejoin="round" stroke-width="1"/>
            <line id="Línea_623" data-name="Línea 623" x2="2.551" y2="2.397" transform="translate(0 13.671)" fill="none" stroke="#312845" stroke-linecap="round" stroke-linejoin="round" stroke-width="1"/>
          </g>
        </g>
        <g id="Grupo_1189620" data-name="Grupo 1189620" transform="translate(39.352 119.382)">
          <circle id="Elipse_11588" data-name="Elipse 11588" cx="10.927" cy="10.927" r="10.927" transform="translate(144.289 120.143) rotate(-75.228)" fill="#969daf"/>
          <path id="Trazado_878941" data-name="Trazado 878941" d="M272.608,310.017a4.125,4.125,0,1,1-4.373-3.861A4.125,4.125,0,0,1,272.608,310.017Z" transform="translate(-110.851 -197.91)" fill="#fff"/>
          <path id="Trazado_878942" data-name="Trazado 878942" d="M57.186,257.05s-17.6,45.78,3.606,65.026,34.041-15.938,20.677-18.821-21.515,44.36,27.056,53.639c34.763,6.641,68.917-27.625,85.527-47.646" transform="translate(-46.84 -183.226)" fill="none" stroke="#534e5e" stroke-linecap="round" stroke-linejoin="round" stroke-width="2"/>
          <path id="Trazado_878943" data-name="Trazado 878943" d="M255.66,325.858c4.3-5.463,10.227-13.824,10.227-13.824" transform="translate(-108.247 -199.67)" fill="none" stroke="#fff" stroke-linecap="round" stroke-linejoin="round" stroke-width="2"/>
          <path id="Trazado_878944" data-name="Trazado 878944" d="M271.468,310.992A2.131,2.131,0,1,1,269.209,309,2.13,2.13,0,0,1,271.468,310.992Z" transform="translate(-111.702 -198.761)" fill="#534e5e"/>
          <path id="Trazado_878945" data-name="Trazado 878945" d="M252.926,332.484c1.363-1.605,2.626-3.137,3.782-4.57" transform="translate(-107.43 -204.419)" fill="none" stroke="#969daf" stroke-miterlimit="10" stroke-width="4"/>
          <path id="Trazado_878946" data-name="Trazado 878946" d="M84.7,195.038s-4.755,27.47-29.005,41.33c0,0-13.438-24.607-9.684-48.472" transform="translate(-45.35 -162.544)" fill="none" stroke="#534e5e" stroke-linecap="round" stroke-linejoin="round" stroke-width="2"/>
          <path id="Trazado_878947" data-name="Trazado 878947" d="M76.96,225.892s-16.923,12.467-29.429-4.763" transform="translate(-46.002 -172.483)" fill="none" stroke="#534e5e" stroke-linecap="round" stroke-linejoin="round" stroke-width="2"/>
          <path id="Trazado_878948" data-name="Trazado 878948" d="M46.294,177.079s2.522-20.663,4.194-23.546,5.837-1.452,5.837-1.452" transform="translate(-45.632 -151.726)" fill="none" stroke="#fff" stroke-linecap="round" stroke-linejoin="round" stroke-width="2"/>
          <path id="Trazado_878949" data-name="Trazado 878949" d="M100.821,186.613s4.173-20.394,3.5-23.658-5.073-3.231-5.073-3.231" transform="translate(-61.47 -154.118)" fill="none" stroke="#fff" stroke-linecap="round" stroke-linejoin="round" stroke-width="2"/>
        </g>
        <g id="Grupo_1189627" data-name="Grupo 1189627" transform="translate(94.579 124.987)">
          <g id="Grupo_1189622" data-name="Grupo 1189622" transform="translate(163.047)">
            <g id="Grupo_1189621" data-name="Grupo 1189621" transform="translate(0)">
              <circle id="Elipse_11589" data-name="Elipse 11589" cx="16.215" cy="16.215" r="16.215" transform="translate(4.16)" fill="#85b4ff"/>
              <path id="Trazado_878950" data-name="Trazado 878950" d="M371.575,198.91s-1.08,6.592-14.819,9.5c0,0,15.338,3.1,20.375-7.339Z" transform="translate(-356.756 -171.443)" fill="#85b4ff"/>
            </g>
            <path id="Trazado_878951" data-name="Trazado 878951" d="M388.62,181.06a3.786,3.786,0,0,0-2.265-6.617c-.071,0-.142,0-.214,0a4.658,4.658,0,0,0-3.35,1.418,4.654,4.654,0,0,0-3.35-1.417c-.072,0-.143,0-.214,0a3.785,3.785,0,0,0-2.263,6.617l5.828,5.179Z" transform="translate(-362.417 -164.125)" fill="#fff"/>
          </g>
          <g id="Grupo_1189624" data-name="Grupo 1189624" transform="translate(0 2.036)">
            <circle id="Elipse_11590" data-name="Elipse 11590" cx="12.633" cy="12.633" r="12.633" fill="#ca3f3e"/>
            <g id="Grupo_1189623" data-name="Grupo 1189623" transform="translate(6.181 6.181)">
              <rect id="Rectángulo_402959" data-name="Rectángulo 402959" width="5.354" height="12.904" transform="translate(3.775)" fill="#fffefc"/>
              <rect id="Rectángulo_402960" data-name="Rectángulo 402960" width="5.354" height="12.904" transform="translate(12.904 3.775) rotate(90)" fill="#fffefc"/>
            </g>
          </g>
          <g id="Grupo_1189626" data-name="Grupo 1189626" transform="translate(185.142 39.948)">
            <circle id="Elipse_11591" data-name="Elipse 11591" cx="7.807" cy="7.807" r="7.807" fill="#e5603d"/>
            <g id="Grupo_1189625" data-name="Grupo 1189625" transform="translate(4.107 4.107)">
              <rect id="Rectángulo_402961" data-name="Rectángulo 402961" width="3.07" height="7.4" transform="translate(2.165)" fill="#fffefc"/>
              <rect id="Rectángulo_402962" data-name="Rectángulo 402962" width="3.07" height="7.4" transform="translate(7.4 2.165) rotate(90)" fill="#fffefc"/>
            </g>
          </g>
        </g>
        <g id="Grupo_1189628" data-name="Grupo 1189628" transform="translate(80.345 48.818)">
          <path id="Trazado_878952" data-name="Trazado 878952" d="M458.6,174.88l1.234,2.852,2.256,1.56-2.256,1.56L458.6,183.7l-1.234-2.852-2.256-1.56,2.256-1.56Z" transform="translate(-208.888 -88.087)" fill="#fff"/>
          <path id="Trazado_878953" data-name="Trazado 878953" d="M139.83,61.161l1.234,2.852,2.256,1.56-2.256,1.56-1.234,2.852L138.6,67.134l-2.256-1.56,2.256-1.56Z" transform="translate(-113.554 -54.077)" fill="#fff"/>
          <path id="Trazado_878954" data-name="Trazado 878954" d="M226.621,155.411l1.736,4.014,3.175,2.2-3.175,2.2-1.736,4.014-1.737-4.014-3.175-2.2,3.175-2.2Z" transform="translate(-139.086 -82.265)" fill="#fff"/>
          <path id="Trazado_878955" data-name="Trazado 878955" d="M431.153,203.65l1.411,3.262,2.58,1.784-2.58,1.784-1.411,3.262-1.411-3.262-2.58-1.784,2.58-1.784Z" transform="translate(-200.531 -96.692)" fill="#fff"/>
          <path id="Trazado_878956" data-name="Trazado 878956" d="M373.394,51.055l1.411,3.262,2.58,1.784-2.58,1.784-1.411,3.262-1.411-3.262L369.4,56.1l2.58-1.784Z" transform="translate(-183.257 -51.055)" fill="#fff"/>
          <path id="Trazado_878957" data-name="Trazado 878957" d="M200.807,180.017l1.144,2.646,2.092,1.447-2.092,1.447-1.144,2.645-1.144-2.645-2.092-1.447,2.092-1.447Z" transform="translate(-131.867 -89.624)" fill="#fff"/>
          <path id="Trazado_878958" data-name="Trazado 878958" d="M107.069,249.053l1.144,2.645,2.092,1.447-2.092,1.447-1.144,2.645-1.144-2.645-2.092-1.447,2.092-1.447Z" transform="translate(-103.832 -110.27)" fill="#fff"/>
        </g>
      </g>
    </g>
  </g>
</svg>
