<svg xmlns="http://www.w3.org/2000/svg" width="87.435" height="87.434" viewBox="0 0 87.435 87.434">
  <g id="Grupo_1188984" data-name="Grupo 1188984" transform="translate(0)">
    <g id="Grupo_1188789" data-name="Grupo 1188789" transform="translate(0)">
      <path id="Trazado_879315" data-name="Trazado 879315" d="M36.191,0h0a36.191,36.191,0,0,1,0,72.381h0A36.191,36.191,0,0,1,36.191,0Z" transform="translate(7.527 7.526)" fill="#e8ded5"/>
      <rect id="Rectángulo_400907" data-name="Rectángulo 400907" width="78.382" height="78.381" rx="39.191" transform="translate(4.527 4.526)" fill="none"/>
      <g id="Grupo_1098742" data-name="Grupo 1098742">
        <g id="Rectángulo_400898" data-name="Rectángulo 400898" transform="translate(0)" fill="none" stroke="#fff" stroke-width="2" opacity="0.859">
          <rect width="87.435" height="87.434" rx="43.717" stroke="none"/>
          <rect x="1" y="1" width="85.435" height="85.434" rx="42.717" fill="none"/>
        </g>
        <g id="Rectángulo_400907-2" data-name="Rectángulo 400907" transform="translate(0)" fill="none" stroke="#0f1f33" stroke-linecap="round" stroke-width="2">
          <rect width="87.435" height="87.434" rx="43.717" stroke="none"/>
          <rect x="1" y="1" width="85.435" height="85.434" rx="42.717" fill="none"/>
        </g>
      </g>
      <g id="Grupo_1189710" data-name="Grupo 1189710" transform="translate(20.473 23.979)">
        <path id="Trazado_879316" data-name="Trazado 879316" d="M224.885,187.692c0-6.539-5.6-11.84-12.5-11.84s-12.5,5.3-12.5,11.84,5.6,11.84,12.5,11.84a13.192,13.192,0,0,0,2.926-.327l5.625,3.616-1.735-5.2A11.689,11.689,0,0,0,224.885,187.692Z" transform="translate(-183.487 -161.414)" fill="#75e0f1"/>
        <path id="Trazado_879317" data-name="Trazado 879317" d="M239.638,238.8A11.4,11.4,0,0,0,237,231.524a11.286,11.286,0,0,1,1.319,5.3c0,6.539-5.6,11.84-12.5,11.84a12.733,12.733,0,0,1-9.863-4.568,12.582,12.582,0,0,0,11.178,6.542,13.192,13.192,0,0,0,2.926-.327l5.625,3.616-1.735-5.2A11.689,11.689,0,0,0,239.638,238.8Z" transform="translate(-198.241 -212.517)" fill="#3dc9d9"/>
        <g id="Grupo_1189710-2" data-name="Grupo 1189710" transform="translate(21.007 21.016)">
          <path id="Trazado_879318" data-name="Trazado 879318" d="M298.082,320.566a4.44,4.44,0,1,1,8.88,0c0,2.452-1.988,3.453-4.44,3.453S298.082,323.018,298.082,320.566Z" transform="translate(-294.629 -311.193)" fill="#fff"/>
          <path id="Trazado_879319" data-name="Trazado 879319" d="M304.094,257.982c0-.817.663-1.973,1.48-1.973s1.48,1.156,1.48,1.973a1.48,1.48,0,1,1-2.96,0Z" transform="translate(-300.147 -256.009)" fill="#fff"/>
          <path id="Trazado_879320" data-name="Trazado 879320" d="M364.211,257.982c0-.817.663-1.973,1.48-1.973s1.48,1.156,1.48,1.973a1.48,1.48,0,1,1-2.96,0Z" transform="translate(-355.331 -256.009)" fill="#fff"/>
          <path id="Trazado_879321" data-name="Trazado 879321" d="M412.3,294.052c0-.817.663-1.973,1.48-1.973s1.48,1.156,1.48,1.973a1.48,1.48,0,0,1-2.96,0Z" transform="translate(-399.479 -289.119)" fill="#fff"/>
          <path id="Trazado_879322" data-name="Trazado 879322" d="M256,294.052c0-.817.663-1.973,1.48-1.973s1.48,1.156,1.48,1.973a1.48,1.48,0,0,1-2.96,0Z" transform="translate(-256 -289.119)" fill="#fff"/>
        </g>
        <path id="Trazado_879323" data-name="Trazado 879323" d="M7.515,19.363c0-6.539,5.6-11.84,12.5-11.84s12.5,5.3,12.5,11.84-5.6,11.84-12.5,11.84a13.192,13.192,0,0,1-2.926-.327l-5.625,3.616,1.735-5.2A11.689,11.689,0,0,1,7.515,19.363Z" transform="translate(-6.898 -6.897)" fill="#aed45b"/>
        <path id="Trazado_879324" data-name="Trazado 879324" d="M56.019,41.247a11.386,11.386,0,0,1,2.5,7.1c0,6.539-5.6,11.84-12.5,11.84a12.868,12.868,0,0,1-8.023-2.762,12.324,12.324,0,0,0,3.18,2.82l-1.735,5.2,5.625-3.616a13.191,13.191,0,0,0,2.926.327c6.9,0,12.5-5.3,12.5-11.84A11.577,11.577,0,0,0,56.019,41.247Z" transform="translate(-34.876 -37.854)" fill="#9ac932"/>
        <path id="Trazado_879325" data-name="Trazado 879325" d="M99.511,83.611H95.564V79.665H91.618v3.946H87.671v3.947h3.947V91.5h3.947V87.558h3.947Z" transform="translate(-80.477 -73.12)" fill="#fff"/>
        <path id="Trazado_879326" data-name="Trazado 879326" d="M42.014,26.278c0-6.868-5.883-12.456-13.114-12.456a13.85,13.85,0,0,0-2.786.284,11.9,11.9,0,0,0,.114-1.64,12.213,12.213,0,0,0-4.255-9.184.617.617,0,0,0-.81.93,10.981,10.981,0,0,1,3.831,8.254c0,6.188-5.33,11.223-11.881,11.223a12.6,12.6,0,0,1-2.789-.312.616.616,0,0,0-.47.083L5.7,26.129l1.181-3.544a.617.617,0,0,0-.261-.72,11.056,11.056,0,0,1-5.388-9.4c0-6.188,5.33-11.223,11.881-11.223A12.45,12.45,0,0,1,18.789,2.6a.617.617,0,1,0,.564-1.1,13.689,13.689,0,0,0-6.239-1.5C5.883.009,0,5.6,0,12.465A12.245,12.245,0,0,0,5.561,22.649L3.978,27.4a.617.617,0,0,0,.918.714l5.41-3.478a13.844,13.844,0,0,0,5.593,0,11.973,11.973,0,0,0-.114,1.641c0,6.868,5.883,12.456,13.114,12.456a13.852,13.852,0,0,0,2.807-.287l5.41,3.478a.617.617,0,0,0,.918-.714l-1.583-4.75A12.245,12.245,0,0,0,42.014,26.278Zm-6.622,9.4a.617.617,0,0,0-.261.72l1.181,3.544-4.153-2.67a.617.617,0,0,0-.47-.083A12.6,12.6,0,0,1,28.9,37.5c-6.551,0-11.881-5.035-11.881-11.223A10.719,10.719,0,0,1,17.2,24.3a12.783,12.783,0,0,0,8.648-8.871,12.575,12.575,0,0,1,3.048-.374c6.551,0,11.881,5.035,11.881,11.223A11.055,11.055,0,0,1,35.392,35.678Z" transform="translate(0 0)"/>
        <path id="Trazado_879327" data-name="Trazado 879327" d="M295.624,308.612a5.062,5.062,0,0,0-5.056,5.056c0,2.548,1.89,4.07,5.056,4.07s5.056-1.521,5.056-4.07A5.062,5.062,0,0,0,295.624,308.612Zm0,7.893c-1.428,0-3.823-.368-3.823-2.837a3.823,3.823,0,0,1,7.646,0C299.448,316.136,297.052,316.505,295.624,316.505Z" transform="translate(-266.724 -283.28)"/>
        <path id="Trazado_879328" data-name="Trazado 879328" d="M298.676,253.181a2.1,2.1,0,0,0,2.1-2.1c0-1.031-.836-2.59-2.1-2.59s-2.1,1.559-2.1,2.59A2.1,2.1,0,0,0,298.676,253.181Zm0-3.453c.371,0,.863.773.863,1.357a.863.863,0,0,1-1.727,0C297.812,250.5,298.3,249.727,298.676,249.727Z" transform="translate(-272.242 -228.095)"/>
        <path id="Trazado_879329" data-name="Trazado 879329" d="M358.794,253.181a2.1,2.1,0,0,0,2.1-2.1c0-1.031-.836-2.59-2.1-2.59s-2.1,1.559-2.1,2.59A2.1,2.1,0,0,0,358.794,253.181Zm0-3.453c.371,0,.863.773.863,1.357a.863.863,0,0,1-1.727,0C357.93,250.5,358.422,249.727,358.794,249.727Z" transform="translate(-327.427 -228.095)"/>
        <path id="Trazado_879330" data-name="Trazado 879330" d="M406.888,284.565c-1.26,0-2.1,1.559-2.1,2.59a2.1,2.1,0,0,0,4.193,0C408.984,286.124,408.148,284.565,406.888,284.565Zm0,3.453a.864.864,0,0,1-.863-.863c0-.583.492-1.357.863-1.357s.863.773.863,1.357A.864.864,0,0,1,406.888,288.018Z" transform="translate(-371.575 -261.206)"/>
        <path id="Trazado_879331" data-name="Trazado 879331" d="M252.678,287.154c0-1.031-.836-2.59-2.1-2.59s-2.1,1.559-2.1,2.59a2.1,2.1,0,0,0,4.193,0Zm-2.1.863a.864.864,0,0,1-.863-.863c0-.583.492-1.357.863-1.357s.863.773.863,1.357A.864.864,0,0,1,250.582,288.017Z" transform="translate(-228.095 -261.205)"/>
        <path id="Trazado_879332" data-name="Trazado 879332" d="M84.719,85.223h3.947a.617.617,0,0,0,.617-.617v-3.33h3.33a.617.617,0,0,0,.617-.617V76.713a.617.617,0,0,0-.617-.617h-3.33v-3.33a.617.617,0,0,0-.617-.617H84.719a.617.617,0,0,0-.617.617V76.1h-3.33a.617.617,0,0,0-.617.617V80.66a.617.617,0,0,0,.617.617H84.1v3.33A.617.617,0,0,0,84.719,85.223Zm-3.33-5.18V77.33h3.33a.617.617,0,0,0,.617-.617v-3.33h2.713v3.33a.617.617,0,0,0,.617.617H92v2.713h-3.33a.617.617,0,0,0-.617.617v3.33H85.336V80.66a.617.617,0,0,0-.617-.617Z" transform="translate(-73.579 -66.221)"/>
      </g>
    </g>
  </g>
</svg>
