<svg xmlns="http://www.w3.org/2000/svg" width="73.054" height="73.053" viewBox="0 0 73.054 73.053">
  <g id="Grupo_1188797" data-name="Grupo 1188797" transform="translate(-871.113 -277.164)">
    <g id="Grupo_1188789" data-name="Grupo 1188789" transform="translate(871.113 277.164)">
      <rect id="Rectángulo_400898" data-name="Rectángulo 400898" width="60.477" height="60.477" rx="30.238" transform="translate(6.289 6.288)" fill="#c6ac97"/>
      <rect id="Rectángulo_400907" data-name="Rectángulo 400907" width="65.491" height="65.49" rx="32.745" transform="translate(3.783 3.781)" fill="none"/>
      <g id="Grupo_1098742" data-name="Grupo 1098742" transform="translate(0)">
        <g id="Rectángulo_400898-2" data-name="Rectángulo 400898" transform="translate(0)" fill="none" stroke="#fff" stroke-width="2" opacity="0.859">
          <rect width="73.054" height="73.053" rx="36.527" stroke="none"/>
          <rect x="1" y="1" width="71.054" height="71.053" rx="35.527" fill="none"/>
        </g>
        <g id="Rectángulo_400907-2" data-name="Rectángulo 400907" transform="translate(0)" fill="none" stroke="#0f1f33" stroke-linecap="round" stroke-width="2">
          <rect width="73.054" height="73.053" rx="36.527" stroke="none"/>
          <rect x="1" y="1" width="71.054" height="71.053" rx="35.527" fill="none"/>
        </g>
      </g>
      <g id="Grupo_1188790" data-name="Grupo 1188790" transform="translate(17.348 15.271)">
        <path id="Trazado_876111" data-name="Trazado 876111" d="M68.063,252.374a15.113,15.113,0,0,1-1.636,4.151l-.568.985a.461.461,0,0,1-.36.233,9.716,9.716,0,0,0-.643,1.746l-3.41,12.962a.685.685,0,0,0,.662.859H93.05a.685.685,0,0,0,.662-.859L90.3,259.488a9.716,9.716,0,0,0-.643-1.746.461.461,0,0,1-.36-.233l-.568-.985a15.111,15.111,0,0,1-1.636-4.151H68.063Z" transform="translate(-58.399 -231.419)" fill="#c17d4f"/>
        <path id="Trazado_876112" data-name="Trazado 876112" d="M136.542,333.5a2.018,2.018,0,0,1-1.555-.983l-.018-.031h0q-.065-.111-.131-.222h0a1.967,1.967,0,0,1-1.291,1.091,9.282,9.282,0,0,1-4.8,0,1.967,1.967,0,0,1-1.291-1.091h0l-.15.252a2.018,2.018,0,0,1-1.555.983,1.157,1.157,0,0,1-.48-.058l-.854,1.479a2.658,2.658,0,0,1-3.968.738q-.188-.151-.372-.31a.14.14,0,0,0-.228.142l.349,1.3a5.83,5.83,0,0,0,3.759,4.031,11.223,11.223,0,0,1-2.85-1.442.118.118,0,0,0-.181.127l.3,1.135a5.19,5.19,0,0,0,4,3.751l.026.005a4.828,4.828,0,0,0,4.335-1.331l.771-.771a2.685,2.685,0,0,0,.786-1.9,2.685,2.685,0,0,0,.786,1.9l.771.771a4.828,4.828,0,0,0,4.335,1.331l.026-.005a5.19,5.19,0,0,0,4-3.751l.3-1.135a.118.118,0,0,0-.181-.127,11.223,11.223,0,0,1-2.85,1.442A5.83,5.83,0,0,0,142.1,336.8l.349-1.3a.14.14,0,0,0-.228-.142q-.184.159-.372.31a2.658,2.658,0,0,1-3.968-.738l-.854-1.479a1.158,1.158,0,0,1-.48.058" transform="translate(-111.964 -304.681)" fill="#f9f6f9"/>
        <path id="Trazado_876113" data-name="Trazado 876113" d="M179.816,149.755a16.44,16.44,0,0,0-2.6-3.375l-.781-.781a1.529,1.529,0,0,1-.448-1.081v0a1.529,1.529,0,0,1-.448,1.081l-.781.781a16.437,16.437,0,0,0-2.524,3.254l-.09.152h0a2.019,2.019,0,0,1-1.556.983,1.159,1.159,0,0,1-.924-.335,2.994,2.994,0,0,1-.877-2.1l-.046-8.74a6.4,6.4,0,0,1,1.874-4.558,6.991,6.991,0,0,1,4.944-2.048h.854a6.991,6.991,0,0,1,4.944,2.048,6.4,6.4,0,0,1,1.874,4.558l-.046,8.74a2.994,2.994,0,0,1-.877,2.1,1.158,1.158,0,0,1-.924.335,2.018,2.018,0,0,1-1.556-.983Z" transform="translate(-156.811 -121.944)" fill="#f9f6f9"/>
        <path id="Trazado_876114" data-name="Trazado 876114" d="M219.4,179.379h-.2a3.225,3.225,0,0,0-3.225,3.225v.1a.883.883,0,0,0,.883.883.153.153,0,0,1,.132.076l.456.79a1.29,1.29,0,0,0,1.117.645h1.469a1.29,1.29,0,0,0,1.117-.645l.456-.79a.153.153,0,0,1,.132-.076.883.883,0,0,0,.883-.883v-.1A3.225,3.225,0,0,0,219.4,179.379Z" transform="translate(-200.123 -164.485)" fill="#665e66"/>
        <path id="Trazado_876115" data-name="Trazado 876115" d="M41.1,64.934a18.776,18.776,0,0,1-.64-4.859V51.161a3.074,3.074,0,0,1,.35-1.425,2.8,2.8,0,0,0-2.592,2.071,5.072,5.072,0,0,1-1.313,2.273L35.2,55.793a9.212,9.212,0,0,0-2.7,6.514,3.921,3.921,0,0,0,1.149,2.773l3.9,3.9a1.642,1.642,0,0,1,.425.736l.5,1.865a.47.47,0,0,0,.862.114l.568-.984a15.112,15.112,0,0,0,1.636-4.151Z" transform="translate(-31.876 -45.606)" fill="#985e33"/>
        <path id="Trazado_876116" data-name="Trazado 876116" d="M136.946,21.462a5.1,5.1,0,0,0-1.5-3.61L133.6,16a16.928,16.928,0,0,0-3.627,1.562,3.076,3.076,0,0,0-1.538,2.664V29.14a18.772,18.772,0,0,0,.64,4.859l1.234,4.607a2.934,2.934,0,0,0,1.516,1.862l-.043-8.15a6.4,6.4,0,0,1,1.874-4.558,6.989,6.989,0,0,1,2.179-1.478l.938-3.5A5.106,5.106,0,0,0,136.946,21.462Z" transform="translate(-119.845 -14.672)" fill="#c17d4f"/>
        <path id="Trazado_876117" data-name="Trazado 876117" d="M216.444,273.73l-.781-.781a1.528,1.528,0,0,1-.448-1.063c0-.006,0-.012,0-.018h0l-.01.174a1.528,1.528,0,0,1-.438.906l-.781.781a16.441,16.441,0,0,0-2.464,3.153,1.967,1.967,0,0,0,1.291,1.091,9.28,9.28,0,0,0,2.4.316h0a9.285,9.285,0,0,0,2.4-.316,1.967,1.967,0,0,0,1.291-1.091A16.439,16.439,0,0,0,216.444,273.73Z" transform="translate(-196.035 -249.294)" fill="#e2dfe2"/>
        <path id="Trazado_876118" data-name="Trazado 876118" d="M371.047,64.934a18.776,18.776,0,0,0,.64-4.859V51.161a3.074,3.074,0,0,0-.35-1.425,2.8,2.8,0,0,1,2.592,2.071,5.072,5.072,0,0,0,1.313,2.273l1.712,1.712a9.212,9.212,0,0,1,2.7,6.514A3.921,3.921,0,0,1,378.5,65.08l-3.9,3.9a1.641,1.641,0,0,0-.425.736l-.5,1.865a.47.47,0,0,1-.862.114l-.568-.984a15.112,15.112,0,0,1-1.636-4.151Z" transform="translate(-341.914 -45.606)" fill="#985e33"/>
        <path id="Trazado_876119" data-name="Trazado 876119" d="M281.045,21.462a5.1,5.1,0,0,1,1.5-3.61L284.393,16a16.928,16.928,0,0,1,3.627,1.562,3.076,3.076,0,0,1,1.538,2.664V29.14a18.772,18.772,0,0,1-.64,4.859l-1.235,4.607a2.934,2.934,0,0,1-1.516,1.862l.043-8.15a6.4,6.4,0,0,0-1.874-4.558,6.989,6.989,0,0,0-2.18-1.478l-.938-3.5A5.1,5.1,0,0,1,281.045,21.462Z" transform="translate(-259.785 -14.672)" fill="#c17d4f"/>
        <path id="Trazado_876120" data-name="Trazado 876120" d="M333.909,20.467a16.933,16.933,0,0,0-2.819-1.3,3.076,3.076,0,0,1,1.036,2.3v8.914a18.78,18.78,0,0,1-.258,3.1,6.4,6.4,0,0,1,.232,1.739l-.042,8.15a2.935,2.935,0,0,0,1.516-1.862l1.234-4.607a18.774,18.774,0,0,0,.64-4.859V23.131A3.076,3.076,0,0,0,333.909,20.467Z" transform="translate(-305.675 -17.576)" fill="#b16e3d"/>
        <path id="Trazado_876121" data-name="Trazado 876121" d="M201.492,8.206a16.927,16.927,0,0,0-4.837-.706h-1.181a16.926,16.926,0,0,0-4.837.706l1.853,1.853a5.1,5.1,0,0,1,1.321,4.931l-.938,3.5a6.99,6.99,0,0,1,2.764-.57h.427v0h.427a6.989,6.989,0,0,1,2.764.57l-.938-3.5a5.1,5.1,0,0,1,1.321-4.931Z" transform="translate(-176.885 -6.877)" fill="#e2dfe2"/>
        <path id="Trazado_876122" data-name="Trazado 876122" d="M370.61,247.063l.129-.481Z" transform="translate(-341.913 -226.108)" fill="#8b818e"/>
        <g id="Grupo_1188727" data-name="Grupo 1188727" transform="translate(3.024 20.955)">
          <path id="Trazado_876123" data-name="Trazado 876123" d="M128.242,255.558l0,.59a2.994,2.994,0,0,0,.875,2.1,1.152,1.152,0,0,0,.915.338,2.019,2.019,0,0,0,1.531-.926l0-.441a2.935,2.935,0,0,1-1.516-1.862l-.8-2.98a15.11,15.11,0,0,1-1.1,3.133Z" transform="translate(-122.61 -252.376)" fill="#b16e3d"/>
          <path id="Trazado_876124" data-name="Trazado 876124" d="M93.711,272.45,90.3,259.489a9.717,9.717,0,0,0-.643-1.746.461.461,0,0,1-.36-.233l-.568-.984a15.114,15.114,0,0,1-1.636-4.151l-.8,2.98a2.95,2.95,0,0,1-.132.385,9.718,9.718,0,0,1,.817,2.088l1.577,6a6.238,6.238,0,0,1-6.033,7.825H61.656l-.211.8a.685.685,0,0,0,.662.859H93.049A.685.685,0,0,0,93.711,272.45Z" transform="translate(-61.422 -252.375)" fill="#b16e3d"/>
          <path id="Trazado_876125" data-name="Trazado 876125" d="M128.242,255.558l0,.59a2.994,2.994,0,0,0,.875,2.1,1.152,1.152,0,0,0,.915.338,2.019,2.019,0,0,0,1.531-.926l0-.441a2.935,2.935,0,0,1-1.516-1.862l-.8-2.98a15.11,15.11,0,0,1-1.1,3.133Z" transform="translate(-122.61 -252.376)" fill="#b16e3d"/>
        </g>
        <path id="Trazado_876126" data-name="Trazado 876126" d="M384.228,370.553l.024-.088.349-1.3a.14.14,0,0,0-.228-.142q-.184.159-.372.31l-.079.061Z" transform="translate(-354.12 -338.348)" fill="#e2dfe2"/>
        <path id="Trazado_876127" data-name="Trazado 876127" d="M58.766,8.034A4.453,4.453,0,0,1,57.614,6.04a3.4,3.4,0,0,0-2.821-2.5,3.693,3.693,0,0,0-1.25-1.187A17.55,17.55,0,0,0,44.769,0H43.588a17.551,17.551,0,0,0-8.775,2.351,3.694,3.694,0,0,0-1.25,1.187,3.4,3.4,0,0,0-2.821,2.5,4.454,4.454,0,0,1-1.151,1.994L27.879,9.747A9.771,9.771,0,0,0,25,16.7a4.515,4.515,0,0,0,1.331,3.213l3.9,3.9a1.019,1.019,0,0,1,.264.457l.5,1.865a1.092,1.092,0,0,0,.286.494,10.37,10.37,0,0,0-.428,1.279L27.443,40.872a1.307,1.307,0,0,0,1.264,1.64H59.649a1.307,1.307,0,0,0,1.264-1.64L57.5,27.91a10.358,10.358,0,0,0-.427-1.279,1.092,1.092,0,0,0,.286-.494l.5-1.865a1.019,1.019,0,0,1,.264-.456l3.9-3.9A4.514,4.514,0,0,0,63.359,16.7a9.771,9.771,0,0,0-2.881-6.954Zm-4.618-2.48v8.914a18.16,18.16,0,0,1-.618,4.7l-1.235,4.607a2.312,2.312,0,0,1-.284.645l.008-1.5a.623.623,0,1,0-1.245-.006c-.024,4.614-.009,1.662-.018,3.474a2.358,2.358,0,0,1-.695,1.665.535.535,0,0,1-.427.155,1.4,1.4,0,0,1-1.075-.679A17.083,17.083,0,0,0,45.847,24l-.781-.781a.9.9,0,0,1-.265-.641c0-.154,0,.523,0-1.333h.112a1.918,1.918,0,0,0,1.657-.957l.336-.582a1.508,1.508,0,0,0,1.219-1.478v-.1a3.852,3.852,0,0,0-3.848-3.848h-.2a3.852,3.852,0,0,0-3.848,3.848v.1A1.508,1.508,0,0,0,41.451,19.7l.336.582a1.919,1.919,0,0,0,1.657.957h.112v1.333a.9.9,0,0,1-.265.641L42.509,24a17.084,17.084,0,0,0-2.71,3.529,1.4,1.4,0,0,1-1.076.68.534.534,0,0,1-.427-.155,2.358,2.358,0,0,1-.695-1.665c-.006-1.1-.038-7.234-.046-8.74a6.08,6.08,0,0,1,6.195-5.979h.854A6.08,6.08,0,0,1,50.8,17.644l-.012,2.288a.623.623,0,0,0,1.245.006l.012-2.288a7.065,7.065,0,0,0-2.056-5,7.62,7.62,0,0,0-2.1-1.488l-.86-3.211a4.471,4.471,0,0,1,1.16-4.329L49.78,2.035a16.321,16.321,0,0,1,3.141,1.4A2.46,2.46,0,0,1,54.148,5.554ZM43.027,17.006a.623.623,0,0,0-.623.623v.856h-.666a.261.261,0,0,1-.26-.26v-.1a2.605,2.605,0,0,1,2.6-2.6h.2a2.605,2.605,0,0,1,2.6,2.6v.1a.261.261,0,0,1-.26.26h-.666v-.856a.623.623,0,0,0-1.245,0V18.5a1.227,1.227,0,0,0,.79,1.145l-.007.011a.67.67,0,0,1-.578.334H43.444a.669.669,0,0,1-.578-.334l-.007-.011A1.226,1.226,0,0,0,43.65,18.5v-.877a.623.623,0,0,0-.623-.623Zm1.151,7.082c.077.079-.28-.28.788.788A15.83,15.83,0,0,1,47.145,27.6a1.337,1.337,0,0,1-.726.481,8.7,8.7,0,0,1-4.483,0,1.337,1.337,0,0,1-.726-.481,15.836,15.836,0,0,1,2.178-2.722C44.443,23.823,44.112,24.155,44.178,24.087Zm.59-22.842a16.3,16.3,0,0,1,3.63.409L47.313,2.741A5.714,5.714,0,0,0,45.83,8.273l.636,2.374a7.663,7.663,0,0,0-1.861-.228h-.854a7.663,7.663,0,0,0-1.861.228l.636-2.374a5.713,5.713,0,0,0-1.482-5.533L39.958,1.655a16.3,16.3,0,0,1,3.63-.409ZM31.112,22.936l-3.9-3.9a3.277,3.277,0,0,1-.966-2.333,8.533,8.533,0,0,1,2.516-6.074l1.712-1.712a5.7,5.7,0,0,0,1.474-2.553A2.166,2.166,0,0,1,33,5.014a3.673,3.673,0,0,0-.04.54V9.808a.623.623,0,0,0,1.245,0V5.554A2.46,2.46,0,0,1,35.436,3.43a16.324,16.324,0,0,1,3.141-1.4l1.587,1.586a4.472,4.472,0,0,1,1.16,4.329l-.86,3.211a7.623,7.623,0,0,0-2.1,1.488,7.066,7.066,0,0,0-2.056,5l.035,6.768a2.308,2.308,0,0,1-.284-.645l-.8-2.97,0-.018-.434-1.62a18.157,18.157,0,0,1-.619-4.7V12.714a.623.623,0,1,0-1.245,0v1.755a19.4,19.4,0,0,0,.661,5.02l.4,1.475a14.478,14.478,0,0,1-1.533,3.83l-.385.666-.4-1.51A2.266,2.266,0,0,0,31.112,22.936Zm28.6,18.253a.062.062,0,0,1-.06.078H28.707a.062.062,0,0,1-.06-.078l3.41-12.962a9.123,9.123,0,0,1,.493-1.4A1.092,1.092,0,0,0,33,26.4l.568-.984a15.726,15.726,0,0,0,1.056-2.209l.238.888a3.563,3.563,0,0,0,1.5,2.061v.233a3.6,3.6,0,0,0,1.059,2.539l.045.043-.554.96a2.036,2.036,0,0,1-3.039.564c-.118-.095-.237-.194-.354-.295a.763.763,0,0,0-1.238.773l.349,1.3a6.555,6.555,0,0,0,.918,2,.744.744,0,0,0-.19.714l.3,1.135a5.785,5.785,0,0,0,6.453,4.229.623.623,0,0,0-.208-1.228,4.535,4.535,0,0,1-5.014-3.226,11.584,11.584,0,0,0,1.9.834.623.623,0,0,0,.4-1.181,5.189,5.189,0,0,1-3.355-3.6l-.012-.045a3.279,3.279,0,0,0,4.169-1.355l.638-1.105a1.807,1.807,0,0,0,.213-.006,2.648,2.648,0,0,0,1.656-.79,2.6,2.6,0,0,0,1.122.628,9.9,9.9,0,0,0,5.127,0,2.6,2.6,0,0,0,1.122-.628,2.649,2.649,0,0,0,1.656.79,1.8,1.8,0,0,0,.213.007l.638,1.105a3.279,3.279,0,0,0,4.169,1.355l-.012.045a5.189,5.189,0,0,1-3.355,3.6.623.623,0,0,0,.4,1.181,11.59,11.59,0,0,0,1.9-.834,4.594,4.594,0,0,1-3.517,3.208,4.2,4.2,0,0,1-3.776-1.16l-.771-.771a2.048,2.048,0,0,1-.6-1.458.623.623,0,0,0-1.245,0,2.048,2.048,0,0,1-.6,1.458l-.771.771a.623.623,0,0,0,.881.881l.771-.771a3.348,3.348,0,0,0,.346-.406,3.354,3.354,0,0,0,.346.406l.771.771a5.451,5.451,0,0,0,3.854,1.6A5.826,5.826,0,0,0,54.7,36.13l.3-1.135a.744.744,0,0,0-.19-.713,6.555,6.555,0,0,0,.918-2l.349-1.3a.763.763,0,0,0-1.238-.774c-.116.1-.235.2-.353.295a2.036,2.036,0,0,1-3.039-.564l-.554-.96.045-.044A3.6,3.6,0,0,0,52,26.391v-.233A3.563,3.563,0,0,0,53.5,24.1l.238-.888a15.725,15.725,0,0,0,1.056,2.209l.568.985a1.091,1.091,0,0,0,.447.426,9.128,9.128,0,0,1,.493,1.4Zm1.438-22.155-3.9,3.9a2.267,2.267,0,0,0-.586,1.015l-.4,1.51-.385-.666a14.479,14.479,0,0,1-1.533-3.83l.4-1.475a19.4,19.4,0,0,0,.661-5.02V5.554a3.677,3.677,0,0,0-.04-.541,2.167,2.167,0,0,1,1.058,1.348,5.7,5.7,0,0,0,1.474,2.553L59.6,10.627A8.533,8.533,0,0,1,62.113,16.7a3.277,3.277,0,0,1-.966,2.333Z" transform="translate(-24.998 0)"/>
        <path id="Trazado_876128" data-name="Trazado 876128" d="M300.894,63.309a1.881,1.881,0,0,0-1.768,1.246.623.623,0,1,0,1.173.419.632.632,0,0,1,1.041-.234l1.218,1.218A2.874,2.874,0,0,1,303.405,68v.817a.623.623,0,1,0,1.245,0V68a4.112,4.112,0,0,0-1.212-2.927l-1.218-1.218A1.864,1.864,0,0,0,300.894,63.309Z" transform="translate(-276.331 -58.052)"/>
        <path id="Trazado_876129" data-name="Trazado 876129" d="M146.556,69.442a.623.623,0,0,0,.623-.623V68a2.874,2.874,0,0,1,.847-2.046l1.218-1.218a.632.632,0,0,1,1.041.234.623.623,0,0,0,1.173-.419,1.877,1.877,0,0,0-3.1-.7l-1.218,1.218A4.112,4.112,0,0,0,145.933,68v.817A.623.623,0,0,0,146.556,69.442Z" transform="translate(-135.892 -58.051)"/>
      </g>
    </g>
  </g>
</svg>
