<svg xmlns="http://www.w3.org/2000/svg" width="73.054" height="73.053" viewBox="0 0 73.054 73.053">
  <g id="Grupo_1189223" data-name="Grupo 1189223" transform="translate(-871.113 -277.164)">
    <g id="Grupo_1188789" data-name="Grupo 1188789" transform="translate(871.113 277.164)">
      <rect id="Rectángulo_400898" data-name="Rectángulo 400898" width="60.477" height="60.477" rx="30.238" transform="translate(6.289 6.288)" fill="#c6ac97"/>
      <rect id="Rectángulo_400907" data-name="Rectángulo 400907" width="65.491" height="65.49" rx="32.745" transform="translate(3.783 3.781)" fill="none"/>
      <g id="Grupo_1098742" data-name="Grupo 1098742" transform="translate(0)">
        <g id="Rectángulo_400898-2" data-name="Rectángulo 400898" transform="translate(0)" fill="none" stroke="#fff" stroke-width="2" opacity="0.859">
          <rect width="73.054" height="73.053" rx="36.527" stroke="none"/>
          <rect x="1" y="1" width="71.054" height="71.053" rx="35.527" fill="none"/>
        </g>
        <g id="Rectángulo_400907-2" data-name="Rectángulo 400907" transform="translate(0)" fill="none" stroke="#0f1f33" stroke-linecap="round" stroke-width="2">
          <rect width="73.054" height="73.053" rx="36.527" stroke="none"/>
          <rect x="1" y="1" width="71.054" height="71.053" rx="35.527" fill="none"/>
        </g>
      </g>
      <g id="Grupo_1189228" data-name="Grupo 1189228" transform="translate(15.727 13.553)">
        <g id="Grupo_1189228-2" data-name="Grupo 1189228" transform="translate(0.65 4.65)">
          <path id="Trazado_878218" data-name="Trazado 878218" d="M53.982,20v3.25H40.95A7.688,7.688,0,0,0,42.686,20h11.3Z" transform="translate(-14.983 -10.25)" fill="#e06027"/>
          <path id="Trazado_878219" data-name="Trazado 878219" d="M53.2,10l2.6,6.5H50.6L48,10Z" transform="translate(-17.45 -6.75)" fill="#f99163"/>
          <path id="Trazado_878220" data-name="Trazado 878220" d="M48.412,16.5H42.965A7.812,7.812,0,0,0,41.75,10h4.063Z" transform="translate(-15.262 -6.75)" fill="#f7753c"/>
          <path id="Trazado_878221" data-name="Trazado 878221" d="M34.137,8.25A7.8,7.8,0,1,1,27.8,5,7.74,7.74,0,0,1,34.137,8.25Zm-1.787,6.5v-3.9h-2.6V8.25h-3.9v2.6h-2.6v3.9h2.6v2.6h3.9v-2.6Z" transform="translate(-7.65 -5)" fill="#d4f3f4" opacity="0.98"/>
          <path id="Trazado_878222" data-name="Trazado 878222" d="M11.8,10,9.2,16.5H4L6.6,10Z" transform="translate(-2.05 -6.75)" fill="#f99163"/>
          <path id="Trazado_878223" data-name="Trazado 878223" d="M14.6,10h4.062a7.812,7.812,0,0,0-1.215,6.5H12Z" transform="translate(-4.85 -6.75)" fill="#f7753c"/>
          <path id="Trazado_878224" data-name="Trazado 878224" d="M16.032,23.25H3V20H14.3A7.687,7.687,0,0,0,16.032,23.25Z" transform="translate(-1.7 -10.25)" fill="#e06027"/>
          <path id="Trazado_878225" data-name="Trazado 878225" d="M41.3,57v3.9H1V57H41.3Z" transform="translate(-1 -23.2)" fill="#b3b3b3"/>
          <path id="Trazado_878226" data-name="Trazado 878226" d="M15.75,51v3.9H6V51h9.75Z" transform="translate(-2.75 -21.1)" fill="#b7855f"/>
          <path id="Trazado_878227" data-name="Trazado 878227" d="M39.2,25V41.9H30.75V31.5H16.45V41.9H8V25h9.782a7.808,7.808,0,0,0,11.635,0Z" transform="translate(-3.45 -12)" fill="#ede5dd"/>
          <path id="Trazado_878228" data-name="Trazado 878228" d="M52.75,51v3.9H43V51h9.75Z" transform="translate(-15.7 -21.1)" fill="#9b6d4e"/>
          <path id="Trazado_878229" data-name="Trazado 878229" d="M39.15,45.4v3.9H32V35h7.15Z" transform="translate(-11.85 -15.5)" fill="#9ad6d2"/>
          <path id="Trazado_878230" data-name="Trazado 878230" d="M28.15,35V49.3H21V35Z" transform="translate(-8 -15.5)" fill="#d4f3f4" opacity="0.98"/>
          <path id="Trazado_878231" data-name="Trazado 878231" d="M50,25h3.9V41.9H50Z" transform="translate(-18.15 -12)" fill="#dbccc1"/>
          <path id="Trazado_878232" data-name="Trazado 878232" d="M1,57H9.45v3.9H1Z" transform="translate(-1 -23.2)" fill="#ccc"/>
          <path id="Trazado_878233" data-name="Trazado 878233" d="M50,57h8.45v3.9H50Z" transform="translate(-18.15 -23.2)" fill="#999"/>
          <path id="Trazado_878234" data-name="Trazado 878234" d="M27.6,10v2.6H25v3.9h2.6v2.6h1.95V10Z" transform="translate(-9.4 -6.75)" fill="#dd4e4e" opacity="0.98"/>
          <path id="Trazado_878235" data-name="Trazado 878235" d="M33.95,12.6V10H32v9.1h1.95V16.5h2.6V12.6Z" transform="translate(-11.85 -6.75)" fill="#c64444"/>
        </g>
        <g id="Grupo_1189229" data-name="Grupo 1189229" transform="translate(0 4)">
          <path id="Trazado_878236" data-name="Trazado 878236" d="M40.95,37.8h-2.6V34.55a.65.65,0,0,0-.65-.65h-.65V18.3h2.6a.65.65,0,0,0,.65-.65V14.4a.65.65,0,0,0-.65-.65h-.21L37,7.658a.65.65,0,0,0-.6-.408H27.445a8.418,8.418,0,0,0-13.29,0H5.2a.651.651,0,0,0-.6.408L2.16,13.75H1.95a.65.65,0,0,0-.65.65v3.25a.65.65,0,0,0,.65.65h2.6V33.9H3.9a.65.65,0,0,0-.65.65V37.8H.65a.65.65,0,0,0-.65.65v3.9A.65.65,0,0,0,.65,43h40.3a.65.65,0,0,0,.65-.65v-3.9A.65.65,0,0,0,40.95,37.8Zm-12.35,0V35.2h8.45v2.6Zm-7.15,0v-13H27.3v13Zm-7.15,0v-13h5.85v13ZM39,17H27.91a8.379,8.379,0,0,0,.917-1.95H39ZM30.76,8.55l2.08,5.2h-3.7a8.247,8.247,0,0,0-.842-5.2Zm7.28,5.2h-3.8l-2.08-5.2h3.8ZM20.8,5.3a7.175,7.175,0,0,1,5.81,2.98,7.159,7.159,0,0,1-.476,8.937,7.159,7.159,0,0,1-10.668,0A7.16,7.16,0,0,1,14.99,8.28,7.175,7.175,0,0,1,20.8,5.3ZM13.3,8.55a8.247,8.247,0,0,0-.842,5.2H8.76l2.08-5.2Zm-7.664,0h3.8l-2.08,5.2H3.56ZM2.6,15.05H12.774A8.378,8.378,0,0,0,13.69,17H2.6ZM5.85,18.3h8.864a8.424,8.424,0,0,0,12.173,0H35.75V33.9H28.6V24.15a.65.65,0,0,0-.65-.65H13.65a.65.65,0,0,0-.65.65V33.9H5.85ZM4.55,35.2H13v2.6H4.55ZM40.3,41.7H1.3V39.1h39Z" transform="translate(0 -4)" fill="#252525"/>
          <path id="Trazado_878237" data-name="Trazado 878237" d="M24.65,16.8H26.6v1.95a.65.65,0,0,0,.65.65h3.9a.65.65,0,0,0,.65-.65V16.8h1.95a.65.65,0,0,0,.65-.65v-3.9a.65.65,0,0,0-.65-.65H31.8V9.65A.65.65,0,0,0,31.15,9h-3.9a.65.65,0,0,0-.65.65V11.6H24.65a.65.65,0,0,0-.65.65v3.9A.65.65,0,0,0,24.65,16.8Zm.65-3.9h1.95a.65.65,0,0,0,.65-.65V10.3h2.6v1.95a.65.65,0,0,0,.65.65H33.1v2.6H31.15a.65.65,0,0,0-.65.65V18.1H27.9V16.15a.65.65,0,0,0-.65-.65H25.3Z" transform="translate(-8.4 -5.75)" fill="#252525"/>
          <path id="Trazado_878238" data-name="Trazado 878238" d="M27.65,43a.65.65,0,0,0-.65.65V45.6a.65.65,0,1,0,1.3,0V43.65A.65.65,0,0,0,27.65,43Z" transform="translate(-9.45 -17.65)" fill="#252525"/>
          <path id="Trazado_878239" data-name="Trazado 878239" d="M35.65,43a.65.65,0,0,0-.65.65V45.6a.65.65,0,1,0,1.3,0V43.65A.65.65,0,0,0,35.65,43Z" transform="translate(-12.25 -17.65)" fill="#252525"/>
          <circle id="Elipse_11556" data-name="Elipse 11556" cx="0.5" cy="0.5" r="0.5" transform="translate(7.6 17)" fill="#252525"/>
          <path id="Trazado_878240" data-name="Trazado 878240" d="M12.65,34a.65.65,0,0,0-.65.65v6.5a.65.65,0,1,0,1.3,0v-6.5A.65.65,0,0,0,12.65,34Z" transform="translate(-4.2 -14.5)" fill="#252525"/>
        </g>
      </g>
    </g>
  </g>
</svg>
