<svg xmlns="http://www.w3.org/2000/svg" width="73.054" height="73.053" viewBox="0 0 73.054 73.053">
  <g id="Grupo_1189227" data-name="Grupo 1189227" transform="translate(-871.113 -277.164)">
    <g id="Grupo_1188789" data-name="Grupo 1188789" transform="translate(871.113 277.164)">
      <rect id="Rectángulo_400898" data-name="Rectángulo 400898" width="60.477" height="60.477" rx="30.238" transform="translate(6.054 6.026)" fill="#c6ac97"/>
      <rect id="Rectángulo_400907" data-name="Rectángulo 400907" width="65.491" height="65.49" rx="32.745" transform="translate(3.783 3.781)" fill="none"/>
      <g id="Grupo_1098742" data-name="Grupo 1098742" transform="translate(0)">
        <g id="Rectángulo_400898-2" data-name="Rectángulo 400898" transform="translate(0)" fill="none" stroke="#fff" stroke-width="2" opacity="0.859">
          <rect width="73.054" height="73.053" rx="36.527" stroke="none"/>
          <rect x="1" y="1" width="71.054" height="71.053" rx="35.527" fill="none"/>
        </g>
        <g id="Rectángulo_400907-2" data-name="Rectángulo 400907" transform="translate(0)" fill="none" stroke="#0f1f33" stroke-linecap="round" stroke-width="2">
          <rect width="73.054" height="73.053" rx="36.527" stroke="none"/>
          <rect x="1" y="1" width="71.054" height="71.053" rx="35.527" fill="none"/>
        </g>
      </g>
      <g id="Layer_x0020_1" transform="translate(17.054 18.945)">
        <path id="Trazado_878257" data-name="Trazado 878257" d="M21.586,20.174c-.5,0-.547-.825-1.682-.825-1.156,0-1.185.856-1.708.824a.466.466,0,0,1-.372-.223l-3.178-5.206a.466.466,0,0,1,.117-.615,9.54,9.54,0,0,1,10.282,0,.466.466,0,0,1,.117.615L21.983,19.95a.468.468,0,0,1-.4.224ZM34.039,33.75H5.747a3.439,3.439,0,0,1-2.954-5.142c2.586-4.479,4.674-8.438,7.417-13.227.416-.726,6.778-11.863,8.063-12.558A3.52,3.52,0,0,1,21.6,2.87c2.475,2.09,12.723,21.085,15.41,25.738a3.424,3.424,0,0,1-2.975,5.142ZM18.762,3.619C16.343,5.8,6.29,24.416,3.6,29.074a2.507,2.507,0,0,0,2.146,3.743H34.04a2.49,2.49,0,0,0,2.167-3.743c-2.594-4.489-4.67-8.42-7.424-13.227-.356-.622-6.545-11.392-7.749-12.239a2.7,2.7,0,0,0-2.271.01ZM34.039,36.082H5.747a5.769,5.769,0,0,1-4.973-8.64c.445-.771,1.2-2.129,2.152-3.848C8.688,13.209,15,2.03,17.025.849A5.78,5.78,0,0,1,22.818.87c2.021,1.2,8.317,12.353,14.059,22.712.957,1.726,1.713,3.09,2.157,3.859a5.78,5.78,0,0,1-4.995,8.64ZM19.944,1.016a4.917,4.917,0,0,0-2.449.639c-2.4,1.4-12.128,19.7-15.913,26.253a4.836,4.836,0,0,0,4.166,7.241h28.29a4.826,4.826,0,0,0,4.188-7.241C34.419,21.315,24.8,3.18,22.331,1.666a4.511,4.511,0,0,0-2.387-.651Zm-4.4,29.917a.466.466,0,0,1-.182-.037,9.578,9.578,0,0,1-5.141-8.9.466.466,0,0,1,.474-.409l6.1.149a.467.467,0,0,1,.421.642,1.665,1.665,0,0,0,1.313,2.275.467.467,0,0,1,.346.685l-2.92,5.355a.466.466,0,0,1-.409.243Zm-4.43-8.407a8.9,8.9,0,0,0,4.232,7.33l2.426-4.449a2.6,2.6,0,0,1-1.591-2.757l-5.066-.124Zm13.145,8.407a.467.467,0,0,1-.41-.243l-2.92-5.355a.467.467,0,0,1,.346-.685,1.665,1.665,0,0,0,1.314-2.275.468.468,0,0,1,.42-.642l6.109-.149a.466.466,0,0,1,.462.409,9.576,9.576,0,0,1-5.141,8.9.463.463,0,0,1-.181.037Zm-2.228-5.527,2.426,4.449a8.9,8.9,0,0,0,4.232-7.33l-5.066.124a2.6,2.6,0,0,1-1.591,2.757Zm-2.13-.984a2.084,2.084,0,0,1,0-4.167A2.084,2.084,0,0,1,19.9,24.422Zm0-3.233a1.15,1.15,0,0,0,0,2.3A1.15,1.15,0,0,0,19.9,21.189Zm0-2.773a2.575,2.575,0,0,1,1.592.545l2.64-4.325a8.852,8.852,0,0,0-8.464,0l2.64,4.325a2.574,2.574,0,0,1,1.591-.545Z" transform="translate(0 0)" fill="#000002" fill-rule="evenodd"/>
        <g id="Grupo_1189235" data-name="Grupo 1189235" transform="translate(11.113 13.558)">
          <path id="Trazado_878258" data-name="Trazado 878258" d="M4.9,5.517A2.575,2.575,0,0,1,6.5,6.062l2.64-4.325a8.852,8.852,0,0,0-8.464,0l2.64,4.325A2.574,2.574,0,0,1,4.9,5.517Z" transform="translate(3.887 -0.659)" fill="#57555c" fill-rule="evenodd"/>
          <path id="Trazado_878259" data-name="Trazado 878259" d="M1.94.987a1.15,1.15,0,0,0,0,2.3A1.15,1.15,0,0,0,1.94.987Z" transform="translate(6.851 6.644)" fill="#57555c" fill-rule="evenodd"/>
          <path id="Trazado_878260" data-name="Trazado 878260" d="M2.536,1.168A2.6,2.6,0,0,1,.945,3.925L3.371,8.374A8.9,8.9,0,0,0,7.6,1.044l-5.066.124Z" transform="translate(9.976 7.924)" fill="#57555c" fill-rule="evenodd"/>
          <path id="Trazado_878261" data-name="Trazado 878261" d="M7.138,3.925A2.6,2.6,0,0,1,5.546,1.168L.48,1.044a8.9,8.9,0,0,0,4.232,7.33L7.138,3.925Z" transform="translate(-0.477 7.924)" fill="#57555c" fill-rule="evenodd"/>
        </g>
        <path id="Trazado_878262" data-name="Trazado 878262" d="M7.568,18.442l6.1.149a.467.467,0,0,1,.421.642A1.665,1.665,0,0,0,15.4,21.508a.467.467,0,0,1,.346.685l-2.92,5.355a.466.466,0,0,1-.591.206,9.578,9.578,0,0,1-5.141-8.9.466.466,0,0,1,.474-.409Zm7.126-1.633L11.515,11.6a.466.466,0,0,1,.117-.615,9.54,9.54,0,0,1,10.282,0,.466.466,0,0,1,.117.615l-3.178,5.206a.468.468,0,0,1-.4.224c-.5,0-.547-.825-1.682-.825-1.156,0-1.185.856-1.708.824A.466.466,0,0,1,14.693,16.809Zm2.08,4.472a2.084,2.084,0,0,1,0-4.167A2.084,2.084,0,0,1,16.774,21.281ZM2.617,29.676H30.91a2.49,2.49,0,0,0,2.167-3.743c-2.594-4.489-4.67-8.42-7.424-13.227C25.3,12.085,19.107,1.314,17.9.468a2.7,2.7,0,0,0-2.271.01C13.213,2.657,3.16,21.275.471,25.933a2.507,2.507,0,0,0,2.146,3.743Zm18.1-2.127L17.8,22.194a.467.467,0,0,1,.346-.685,1.665,1.665,0,0,0,1.314-2.275.468.468,0,0,1,.42-.642l6.109-.149a.466.466,0,0,1,.462.409,9.576,9.576,0,0,1-5.141,8.9.466.466,0,0,1-.591-.206Z" transform="translate(3.13 3.141)" fill="#fedb41" fill-rule="evenodd"/>
        <path id="Trazado_878263" data-name="Trazado 878263" d="M20.71,1.975c2.475,2.09,12.723,21.085,15.41,25.738a3.424,3.424,0,0,1-2.975,5.142H4.852A3.439,3.439,0,0,1,1.9,27.713c2.586-4.479,4.674-8.438,7.417-13.227.416-.726,6.778-11.863,8.063-12.558a3.52,3.52,0,0,1,3.332.047ZM4.854,34.255h28.29a4.826,4.826,0,0,0,4.188-7.241C33.525,20.421,23.908,2.286,21.437.772A4.511,4.511,0,0,0,19.049.122,4.917,4.917,0,0,0,16.6.761C14.2,2.166,4.472,20.457.687,27.014a4.836,4.836,0,0,0,4.166,7.241Z" transform="translate(0.894 0.894)" fill="#57555c" fill-rule="evenodd"/>
      </g>
    </g>
  </g>
</svg>
