<svg xmlns="http://www.w3.org/2000/svg" width="84.208" height="84.207" viewBox="0 0 84.208 84.207">
  <g id="Grupo_1188970" data-name="Grupo 1188970" transform="translate(-872.762 -278.583)">
    <g id="Grupo_1188789" data-name="Grupo 1188789" transform="translate(583.726 -5835.222)">
      <rect id="Rectángulo_400898" data-name="Rectángulo 400898" width="75.49" height="75.489" rx="37.744" transform="translate(293.034 6118.805)" fill="#ffd907"/>
      <rect id="Rectángulo_400907" data-name="Rectángulo 400907" width="75.49" height="75.489" rx="37.744" transform="translate(293.36 6118.358)" fill="none"/>
      <g id="Grupo_1098742" data-name="Grupo 1098742" transform="translate(289.035 6113.805)">
        <g id="Rectángulo_400898-2" data-name="Rectángulo 400898" transform="translate(0)" fill="none" stroke="#fff" stroke-width="1" opacity="0.859">
          <rect width="84.208" height="84.207" rx="42.104" stroke="none"/>
          <rect x="0.5" y="0.5" width="83.208" height="83.207" rx="41.604" fill="none"/>
        </g>
        <g id="Rectángulo_400907-2" data-name="Rectángulo 400907" transform="translate(0)" fill="none" stroke="#0f1f33" stroke-linecap="round" stroke-width="1">
          <rect width="84.208" height="84.207" rx="42.104" stroke="none"/>
          <rect x="0.5" y="0.5" width="83.208" height="83.207" rx="41.604" fill="none"/>
        </g>
      </g>
      <g id="Grupo_1189185" data-name="Grupo 1189185" transform="translate(308.034 6133.806)">
        <path id="Trazado_877938" data-name="Trazado 877938" d="M53.612,40.7c-.635-6.462-1.581-11.429-3.694-15.024C52.782,23.9,51.67,10,48.216,10c-4.521,0-10.734,8.613-10.737,8.618a45.624,45.624,0,0,0-5.585-.31,45.525,45.525,0,0,0-5.6.313H26.3S20.085,10,15.562,10c-3.457,0-4.567,13.91-1.7,15.674l.005-.005c-2.115,3.6-3.06,8.566-3.695,15.03C8.967,52.957,21.58,53.616,31.893,53.616S54.818,52.957,53.612,40.7Z" transform="translate(-9.198 -9.114)" fill="#f2d5aa"/>
        <path id="Trazado_877939" data-name="Trazado 877939" d="M68.852,57.051s-.835-5.925.012-9.308a.861.861,0,0,1,1.4-.478,29.127,29.127,0,0,1,5.348,5.887S70.621,54.661,68.852,57.051Z" transform="translate(-62.413 -42.883)" fill="#ff8db0"/>
        <path id="Trazado_877940" data-name="Trazado 877940" d="M369.852,57.06s.835-5.925-.012-9.308a.861.861,0,0,0-1.4-.477,29.126,29.126,0,0,0-5.348,5.887s4.993,1.508,6.762,3.9Z" transform="translate(-330.901 -42.892)" fill="#ff8db0"/>
        <path id="Trazado_877941" data-name="Trazado 877941" d="M31.909,369.163c-9.452,0-20.833-.553-21.74-10.083-1.011,12.017,11.5,12.67,21.74,12.67s22.751-.65,21.74-12.667c-.908,9.527-12.289,10.08-21.74,10.08Z" transform="translate(-9.214 -327.248)" fill="#efc389"/>
        <ellipse id="Elipse_11540" data-name="Elipse 11540" cx="2.427" cy="1.231" rx="2.427" ry="1.231" transform="translate(5.946 26.584)" fill="#eab47f"/>
        <ellipse id="Elipse_11541" data-name="Elipse 11541" cx="2.427" cy="1.231" rx="2.427" ry="1.231" transform="translate(34.973 26.584)" fill="#eab47f"/>
        <path id="Trazado_877942" data-name="Trazado 877942" d="M120.866,301.56a111.143,111.143,0,0,1-10.9-6.16h-3.811a111.763,111.763,0,0,1-10.9,6.16c-2.437,1.172-2.36,5.26.544,2.821.736-.621,4.336-3.573,12.322-4.015,7.985.443,11.479,3.4,12.215,4.015,2.9,2.44,2.974-1.649.537-2.821Z" transform="translate(-85.219 -269.213)" fill="#96785a"/>
        <path id="Trazado_877943" data-name="Trazado 877943" d="M45.306,31.5c-.6-6.121-1.5-11.053-3.47-14.765,1.89-2.351,1.684-8.828.589-12.662C41.893,2.216,40.868,0,39.018,0c-2.128,0-4.718,1.54-7.7,4.577a42.965,42.965,0,0,0-3.442,3.989A47.938,47.938,0,0,0,22.7,8.307a47.806,47.806,0,0,0-5.182.257,43.13,43.13,0,0,0-3.443-3.989C11.082,1.54,8.49,0,6.364,0,4.512,0,3.49,2.216,2.958,4.072c-1.1,3.837-1.3,10.321.593,12.667C1.581,20.451.686,25.38.084,31.5c-.365,3.719.473,6.725,2.488,8.936,4.176,4.571,12.577,4.954,20.123,4.954s15.947-.383,20.123-4.954C44.834,38.224,45.671,35.218,45.306,31.5ZM32.594,5.819c2.563-2.605,4.845-4.041,6.424-4.041.287,0,.587.365.74.583a7.6,7.6,0,0,1,.945,2.2,23.038,23.038,0,0,1,.73,6.977,10.723,10.723,0,0,1-.643,3.492q-.414-.585-.877-1.12a25,25,0,0,0-.1-9.214,1.722,1.722,0,0,0-1.152-1.318,1.739,1.739,0,0,0-1.723.34,32.793,32.793,0,0,0-5.16,5.526q-.891-.223-1.862-.392c.646-.8,1.589-1.919,2.681-3.03ZM3.949,11.535a23.037,23.037,0,0,1,.73-6.977,7.507,7.507,0,0,1,.945-2.2c.153-.218.453-.583.739-.583,2.855,0,6.957,4.378,9.111,7.071q-.975.17-1.87.394a32.741,32.741,0,0,0-5.16-5.527,1.74,1.74,0,0,0-1.723-.34A1.72,1.72,0,0,0,5.57,4.693a25,25,0,0,0-.1,9.22,14.065,14.065,0,0,0-.875,1.119,10.757,10.757,0,0,1-.644-3.5Zm37.54,27.7c-3.682,4.033-11.632,4.37-18.794,4.37S7.582,43.273,3.9,39.24c-1.684-1.849-2.354-4.324-2.039-7.568a49.485,49.485,0,0,1,2.2-11.678A13.269,13.269,0,0,1,9.042,13.1a.886.886,0,0,0,.231-1.236.9.9,0,0,0-1.241-.23q-.522.355-1,.751A24.134,24.134,0,0,1,7.32,5.1a28.08,28.08,0,0,1,5.111,5.618.9.9,0,0,0,1.014.4,34.452,34.452,0,0,1,9.25-1.039,34.461,34.461,0,0,1,9.25,1.039A.9.9,0,0,0,33,10.636a28.568,28.568,0,0,1,5.066-5.545,24.177,24.177,0,0,1,.286,7.285q-.473-.391-.992-.745a.9.9,0,0,0-1.241.23.887.887,0,0,0,.229,1.242,13.269,13.269,0,0,1,4.977,6.891,49.07,49.07,0,0,1,2.2,11.678C43.843,34.916,43.178,37.391,41.489,39.24Z" transform="translate(0)"/>
        <path id="Trazado_877944" data-name="Trazado 877944" d="M105.169,262.726a3.273,3.273,0,0,0,3.269-3.269.886.886,0,1,0-1.773,0,1.5,1.5,0,1,1-2.992,0,.886.886,0,1,0-1.773,0A3.272,3.272,0,0,0,105.169,262.726Z" transform="translate(-92.866 -235.648)"/>
        <path id="Trazado_877945" data-name="Trazado 877945" d="M343.939,262.726a3.273,3.273,0,0,0,3.269-3.269.887.887,0,0,0-1.773,0,1.5,1.5,0,1,1-2.993,0,.887.887,0,1,0-1.773,0A3.273,3.273,0,0,0,343.939,262.726Z" transform="translate(-310.469 -235.648)"/>
        <path id="Trazado_877946" data-name="Trazado 877946" d="M113.528,296.577a17.739,17.739,0,0,0-3.98-2.911,22.932,22.932,0,0,0-10.3-2.842v-1.868c1.4-.285,2.586-1.254,2.586-2.24a1.173,1.173,0,0,0-.349-.838c-.512-.509-1.344-.5-2.6-.5h-.9c-1.259-.008-2.09-.012-2.6.5a1.173,1.173,0,0,0-.348.84c0,.952,1.108,1.888,2.442,2.208v1.9a22.924,22.924,0,0,0-10.3,2.842,17.575,17.575,0,0,0-3.981,2.911.886.886,0,1,0,1.286,1.22,20.165,20.165,0,0,1,13.877-5.217,21.224,21.224,0,0,1,10.258,2.6,16.417,16.417,0,0,1,3.62,2.619.887.887,0,0,0,1.285-1.222Z" transform="translate(-75.6 -260.08)"/>
        <path id="Trazado_877947" data-name="Trazado 877947" d="M113.163,246.375a.887.887,0,1,0-.067,1.773,7.9,7.9,0,0,0,2.671-.455,6.211,6.211,0,0,0,3.918-3.852c1.648-4.614,5.309-4.562,5.459-4.557h.075c.038,0,3.793-.105,5.458,4.557a6.211,6.211,0,0,0,3.918,3.852,8.067,8.067,0,0,0,2.565.455h.1a.887.887,0,0,0-.067-1.773c-.036,0-3.694.1-4.848-3.13A8.4,8.4,0,0,0,128,238.166a6.719,6.719,0,0,0-2.823-.654,6.942,6.942,0,0,0-2.823.654,8.4,8.4,0,0,0-4.344,5.079C116.867,246.45,113.311,246.378,113.163,246.375Z" transform="translate(-102.292 -216.456)"/>
      </g>
    </g>
  </g>
</svg>
