<svg xmlns="http://www.w3.org/2000/svg" width="73.054" height="73.053" viewBox="0 0 73.054 73.053">
  <g id="Grupo_1189222" data-name="Grupo 1189222" transform="translate(-871.167 -276.665)">
    <g id="Grupo_1188789" data-name="Grupo 1188789" transform="translate(871.113 277.164)">
      <rect id="Rectángulo_400898" data-name="Rectángulo 400898" width="60.477" height="60.477" rx="30.238" transform="translate(6.289 6.288)" fill="#c6ac97"/>
      <rect id="Rectángulo_400907" data-name="Rectángulo 400907" width="65.491" height="65.49" rx="32.745" transform="translate(4.054 3.5)" fill="none"/>
      <g id="Grupo_1098742" data-name="Grupo 1098742" transform="translate(0.054 -0.5)">
        <g id="Rectángulo_400898-2" data-name="Rectángulo 400898" transform="translate(0)" fill="none" stroke="#fff" stroke-width="2" opacity="0.859">
          <rect width="73.054" height="73.053" rx="36.527" stroke="none"/>
          <rect x="1" y="1" width="71.054" height="71.053" rx="35.527" fill="none"/>
        </g>
        <g id="Rectángulo_400907-2" data-name="Rectángulo 400907" transform="translate(0)" fill="none" stroke="#0f1f33" stroke-linecap="round" stroke-width="2">
          <rect width="73.054" height="73.053" rx="36.527" stroke="none"/>
          <rect x="1" y="1" width="71.054" height="71.053" rx="35.527" fill="none"/>
        </g>
      </g>
      <g id="Grupo_1189239" data-name="Grupo 1189239" transform="translate(18.054 18.5)">
        <path id="Trazado_878275" data-name="Trazado 878275" d="M18.14,11.317a.369.369,0,0,0-.368-.368H15.046a.369.369,0,0,1-.368-.368V7.868A.369.369,0,0,0,14.31,7.5H11.33a.369.369,0,0,0-.368.368v2.713a.369.369,0,0,1-.368.368H7.868a.369.369,0,0,0-.368.368v2.966a.369.369,0,0,0,.368.368h2.726a.369.369,0,0,1,.368.368v2.713a.369.369,0,0,0,.368.368h2.98a.369.369,0,0,0,.368-.368V15.019a.369.369,0,0,1,.368-.368h2.726a.369.369,0,0,0,.368-.368Zm0,0" transform="translate(-6.948 -6.948)" fill="#5dc647"/>
        <path id="Trazado_878276" data-name="Trazado 878276" d="M26.378,323.78a7.721,7.721,0,0,1,.709-6.9.726.726,0,1,0-1.223-.784,9.171,9.171,0,0,0,.265,10.27A19.479,19.479,0,0,1,26.378,323.78Zm0,0" transform="translate(-22.623 -292.521)" fill="#9ea7af"/>
        <path id="Trazado_878277" data-name="Trazado 878277" d="M57.149,339.071h-.16a.369.369,0,0,1-.368-.368v-8.162a4.959,4.959,0,0,1-2.242.527,4.785,4.785,0,0,1-3.385-1.349,10.658,10.658,0,0,0-1.035,1.291,15.463,15.463,0,0,0-2.44,8.616.363.363,0,0,0,.363.369H50.81v.3a.369.369,0,0,0,.368.368h1.976a.369.369,0,0,0,.368-.368V340h1.211v.3a.369.369,0,0,0,.368.368h2.048a.369.369,0,0,0,.368-.368v-.853A.369.369,0,0,0,57.149,339.071Zm0,0" transform="translate(-44.022 -305.454)" fill="#424f59"/>
        <path id="Trazado_878278" data-name="Trazado 878278" d="M226.468,198.381c-.381-9.488-7.156-13.036-8.109-13.49l-.872-3.626a4.905,4.905,0,0,1-6.189,1.924v15.67h-1.031a3.085,3.085,0,0,0-3.069,3.094.512.512,0,0,0,.51.514h6.524a.329.329,0,0,0,.328-.33V199.22h3.765a3.1,3.1,0,0,0-1.633,2.733.512.512,0,0,0,.51.514h8.773a.512.512,0,0,0,.51-.514Zm0,0" transform="translate(-191.951 -167.926)" fill="#d19546"/>
        <path id="Trazado_878279" data-name="Trazado 878279" d="M466.238,311.028a.328.328,0,0,0-.317-.247l-.038,0a.329.329,0,0,0-.29.32,5.577,5.577,0,0,1-2.124,4.021,18.714,18.714,0,0,1,.419,3.517,5.568,5.568,0,0,0,2.533-4.258A9.9,9.9,0,0,0,466.238,311.028Zm0,0" transform="translate(-429.361 -287.91)" fill="#b2762f"/>
        <path id="Trazado_878280" data-name="Trazado 878280" d="M250.753,41.934c.132,0,.262.007.392.017a4.16,4.16,0,0,1,.154-1.232,4.136,4.136,0,0,0-.434-.517,4.051,4.051,0,0,0-2.164-1.14,4.139,4.139,0,0,0-.923,3.878A4.882,4.882,0,0,1,250.753,41.934Zm0,0" transform="translate(-229.407 -36.188)" fill="#d19546"/>
        <path id="Trazado_878281" data-name="Trazado 878281" d="M173.383,130.344a5.022,5.022,0,0,1,.149-1.215h-1.026a3.046,3.046,0,0,0-.792.1,1.016,1.016,0,0,1-.791,1.643h-1.055a1,1,0,0,1-.122-.008,3.1,3.1,0,0,0,2.759,4.449h4.712a3.088,3.088,0,0,0,.487-.039A4.958,4.958,0,0,1,173.383,130.344Zm0,0" transform="translate(-156.968 -119.626)" fill="#b2762f"/>
        <path id="Trazado_878282" data-name="Trazado 878282" d="M232.447,44.793a4.14,4.14,0,0,0-.839-4.591,4.054,4.054,0,0,0-2.164-1.14,4.122,4.122,0,0,0-1.07,2.888c-.13-.01-.26-.017-.392-.017a4.961,4.961,0,1,0,4.464,2.859Zm0,0" transform="translate(-206.636 -36.188)" fill="#d19546"/>
        <path id="Trazado_878283" data-name="Trazado 878283" d="M164.686,126.3a1.011,1.011,0,0,1-1.007,1.015h-1.055a1.015,1.015,0,0,1,0-2.03h1.055A1.011,1.011,0,0,1,164.686,126.3Zm0,0" transform="translate(-149.723 -116.062)" fill="#775436"/>
        <path id="Trazado_878284" data-name="Trazado 878284" d="M69.86,233.835a3.171,3.171,0,0,0-3.1-.753.232.232,0,0,0-.1.058.235.235,0,0,0-.058.1,3.176,3.176,0,0,0,.8,3.148c.04.039.081.077.122.114A4.137,4.137,0,0,1,69.86,233.835Zm0,0" transform="translate(-61.584 -215.808)" fill="#424f59"/>
        <path id="Trazado_878285" data-name="Trazado 878285" d="M172.268,233.237a.229.229,0,0,0-.155-.155,3.17,3.17,0,0,0-3.1.753,4.136,4.136,0,0,1,2.332,2.665c.041-.037.083-.074.122-.114A3.175,3.175,0,0,0,172.268,233.237Zm0,0" transform="translate(-156.577 -215.808)" fill="#424f59"/>
        <path id="Trazado_878286" data-name="Trazado 878286" d="M88.24,242.87a4.562,4.562,0,1,0-4.53,4.019A4.3,4.3,0,0,0,88.24,242.87Zm0,0" transform="translate(-73.353 -221.274)" fill="#9ea7af"/>
        <path id="Trazado_878287" data-name="Trazado 878287" d="M.92,8.255H3.462v2.529a.921.921,0,0,0,.92.92h2.98a.921.921,0,0,0,.92-.92V8.255h2.542a.921.921,0,0,0,.92-.92V4.369a.921.921,0,0,0-.92-.92H8.282V.92A.921.921,0,0,0,7.362,0H4.382a.921.921,0,0,0-.92.92V3.449H.92a.921.921,0,0,0-.92.92V7.335A.921.921,0,0,0,.92,8.255Zm.184-3.7H3.646a.921.921,0,0,0,.92-.92V1.1H7.178V3.633a.921.921,0,0,0,.92.92H10.64v2.6H8.1a.921.921,0,0,0-.92.92V10.6H4.566V8.071a.921.921,0,0,0-.92-.92H1.1Zm0,0"/>
        <path id="Trazado_878288" data-name="Trazado 878288" d="M261.427,112.523a.552.552,0,0,0-.552.552v1.354a.552.552,0,0,0,1.1,0v-1.354A.552.552,0,0,0,261.427,112.523Zm0,0" transform="translate(-241.677 -104.243)"/>
        <path id="Trazado_878289" data-name="Trazado 878289" d="M30.556,53.157a4.722,4.722,0,0,0-4.209,6.779l-.1.049H23.162V53.628a.552.552,0,1,0-1.1,0v9.6H15.8a2.532,2.532,0,0,1,2.517-2.5h1.03a.552.552,0,0,0,.552-.552V45.484h1.447a5.448,5.448,0,0,0,3.92-1.666L26.3,48.125a.552.552,0,0,0,.536.423.541.541,0,0,0,.129-.016.552.552,0,0,0,.408-.665l-.133-.555a13.712,13.712,0,0,1,1.328.97.552.552,0,1,0,.7-.851,13.8,13.8,0,0,0-2.388-1.6l-.76-3.162a5.543,5.543,0,0,0,.286-4.822,4.669,4.669,0,0,0-1.046-4.976,4.6,4.6,0,0,0-2.458-1.294.552.552,0,0,0-.506.172,4.635,4.635,0,0,0-.688.989,4.591,4.591,0,0,0-2.32-1.161.552.552,0,0,0-.506.172,4.673,4.673,0,0,0-1.132,4.047,5.548,5.548,0,0,0-1.6,2.4h-.613a3.6,3.6,0,0,0-.619.054,1.544,1.544,0,0,0-.964-.338H12.9a1.567,1.567,0,0,0-.833,2.89,3.648,3.648,0,0,0,3.47,4.685H18.8V59.623h-.478a3.637,3.637,0,0,0-3.62,3.608h-.651v0a.921.921,0,0,0-.9-.92V58.9a.552.552,0,1,0-1.1,0v3.6a.921.921,0,0,0,.9.92V63.9h-1.68V59.163a.552.552,0,1,0-1.1,0v4.068h-.107v0a.921.921,0,0,0-.823-.915V59.163a.552.552,0,1,0-1.1,0v3.327a.921.921,0,0,0,.824.915v.49H7.34V59.163a.552.552,0,1,0-1.1,0v4.068H4.053a14.826,14.826,0,0,1,2.34-8.122c.211-.309.423-.584.628-.828a5.4,5.4,0,0,0,3.336,1.127,5.566,5.566,0,0,0,1.69-.261v1.1a.552.552,0,0,0,1.1,0V54.652a4.473,4.473,0,0,0,2.288-3.814,4.122,4.122,0,0,0-.064-.724,3.727,3.727,0,0,0,.845-3.6.783.783,0,0,0-.527-.527,3.736,3.736,0,0,0-1.06-.154,3.7,3.7,0,0,0-2.3.795,5.608,5.608,0,0,0-3.955,0,3.7,3.7,0,0,0-2.3-.795,3.735,3.735,0,0,0-1.059.154.782.782,0,0,0-.528.528,3.727,3.727,0,0,0,.845,3.6,4.149,4.149,0,0,0-.064.723A4.244,4.244,0,0,0,6.234,53.5a11.411,11.411,0,0,0-.752.982A13.587,13.587,0,0,0,3.8,57.962a7.149,7.149,0,0,1,1.124-4.067,1.278,1.278,0,1,0-2.153-1.379,9.723,9.723,0,0,0,.162,10.715H.552a.552.552,0,1,0,0,1.1H6.273A.921.921,0,0,0,7.156,65H9.132a.921.921,0,0,0,.883-.665H10.2a.921.921,0,0,0,.883.665h2.048a.921.921,0,0,0,.883-.665H29.142a.552.552,0,1,0,0-1.1H25.294a2.549,2.549,0,0,1,1.986-2.447.552.552,0,0,0,.337-.853,3.617,3.617,0,0,1,2.938-5.671.552.552,0,1,0,0-1.1ZM19.5,32.729a3.5,3.5,0,0,1,1.565.916c.08.081.155.165.226.251a4.771,4.771,0,0,0-.086.544,5.413,5.413,0,0,0-2.43.645A3.567,3.567,0,0,1,19.5,32.729ZM12.9,39.94a.463.463,0,0,1,0-.927h1.055a.463.463,0,0,1,0,.927Zm2.637,4.44a2.54,2.54,0,0,1-2.389-3.336h.807a1.565,1.565,0,0,0,1.559-1.567A1.527,1.527,0,0,0,15.5,39.3h.4a5.542,5.542,0,0,0,2.159,5.084H15.538Zm1.429-4.42a4.406,4.406,0,0,1,4.262-4.418,4.662,4.662,0,0,0,.68,1.861.552.552,0,0,0,.933-.591,3.59,3.59,0,0,1,.174-4.084,3.5,3.5,0,0,1,1.564.916,3.571,3.571,0,0,1,.632,4.175.552.552,0,0,0,.235.744.578.578,0,0,0,.061.027,4.386,4.386,0,1,1-8.542,1.368Zm-2.334,6.977a2.624,2.624,0,0,1,.574.064,2.622,2.622,0,0,1-.272,1.854,4.733,4.733,0,0,0-1.482-1.637A2.6,2.6,0,0,1,14.633,46.937Zm-4.276.434a3.753,3.753,0,0,1,3.978,3.466A3.753,3.753,0,0,1,10.357,54.3a3.753,3.753,0,0,1-3.978-3.467A3.753,3.753,0,0,1,10.357,47.371ZM5.779,48.855A2.622,2.622,0,0,1,5.508,47a2.625,2.625,0,0,1,1.754.216A4.74,4.74,0,0,0,5.779,48.855Zm-2.688,12.4a8.622,8.622,0,0,1,.614-8.139.174.174,0,0,1,.147-.08.169.169,0,0,1,.093.028A.174.174,0,0,1,4,53.3a8.274,8.274,0,0,0-.811,7.258Q3.134,60.9,3.091,61.251Zm21.1,1.98H23.162V61.089h1.754A3.652,3.652,0,0,0,24.191,63.231Zm0,0" transform="translate(0 -29.242)"/>
        <path id="Trazado_878290" data-name="Trazado 878290" d="M115.036,271.642a.552.552,0,0,0,.552-.552v-.628a.552.552,0,0,0-1.1,0v.628A.552.552,0,0,0,115.036,271.642Zm0,0" transform="translate(-106.059 -250.047)"/>
        <path id="Trazado_878291" data-name="Trazado 878291" d="M152.54,271.642a.552.552,0,0,0,.552-.552v-.628a.552.552,0,0,0-1.1,0v.628A.552.552,0,0,0,152.54,271.642Zm0,0" transform="translate(-140.803 -250.047)"/>
        <path id="Trazado_878292" data-name="Trazado 878292" d="M111.216,301.018a1.468,1.468,0,0,0,.811-.243,1.47,1.47,0,0,0,2.281-1.226.552.552,0,0,0-1.1,0,.366.366,0,0,1-.689.17.552.552,0,0,0-.975,0,.366.366,0,0,1-.689-.17.552.552,0,0,0-1.1,0A1.471,1.471,0,0,0,111.216,301.018Zm0,0" transform="translate(-101.67 -276.992)"/>
        <path id="Trazado_878293" data-name="Trazado 878293" d="M417.8,284.535h-2.04v-2.964a6.137,6.137,0,0,0,2.52-4.483,10.361,10.361,0,0,0-.2-3.562.88.88,0,0,0-.852-.661.914.914,0,0,0-.1.006.885.885,0,0,0-.777.856,4.621,4.621,0,0,1-1.267,2.957,15.7,15.7,0,0,0-3.2-6.042.552.552,0,1,0-.84.717,15.5,15.5,0,0,1,3.6,9.93l.007,1.1v2.143h-2.191a.552.552,0,0,0,0,1.1H417.8a.552.552,0,1,0,0-1.1Zm-2.411-6.588a6.568,6.568,0,0,0,1.832-2.772,9.025,9.025,0,0,1-.037,1.776,5.314,5.314,0,0,1-1.489,3.235A19.045,19.045,0,0,0,415.389,277.947Zm0,0" transform="translate(-380.673 -250.545)"/>
      </g>
    </g>
  </g>
</svg>
