<svg xmlns="http://www.w3.org/2000/svg" width="73.054" height="73.053" viewBox="0 0 73.054 73.053">
  <g id="Grupo_1189224" data-name="Grupo 1189224" transform="translate(-871.113 -277.164)">
    <g id="Grupo_1188789" data-name="Grupo 1188789" transform="translate(871.113 277.164)">
      <rect id="Rectángulo_400898" data-name="Rectángulo 400898" width="60.477" height="60.477" rx="30.238" transform="translate(6.289 6.288)" fill="#c6ac97"/>
      <rect id="Rectángulo_400907" data-name="Rectángulo 400907" width="65.491" height="65.49" rx="32.745" transform="translate(4.054 3.5)" fill="none"/>
      <g id="Grupo_1098742" data-name="Grupo 1098742" transform="translate(0)">
        <g id="Rectángulo_400898-2" data-name="Rectángulo 400898" transform="translate(0)" fill="none" stroke="#fff" stroke-width="2" opacity="0.859">
          <rect width="73.054" height="73.053" rx="36.527" stroke="none"/>
          <rect x="1" y="1" width="71.054" height="71.053" rx="35.527" fill="none"/>
        </g>
        <g id="Rectángulo_400907-2" data-name="Rectángulo 400907" transform="translate(0)" fill="none" stroke="#0f1f33" stroke-linecap="round" stroke-width="2">
          <rect width="73.054" height="73.053" rx="36.527" stroke="none"/>
          <rect x="1" y="1" width="71.054" height="71.053" rx="35.527" fill="none"/>
        </g>
      </g>
      <g id="Grupo_1189240" data-name="Grupo 1189240" transform="translate(-29.243 -1.405)">
        <g id="Grupo_1189274" data-name="Grupo 1189274" transform="translate(50.298 12.905)">
          <g id="Grupo_1189273" data-name="Grupo 1189273" transform="translate(0 0)">
            <g id="Grupo_1189272" data-name="Grupo 1189272">
              <g id="Grupo_1189271" data-name="Grupo 1189271">
                <g id="Grupo_1189257" data-name="Grupo 1189257">
                  <g id="Grupo_1189256" data-name="Grupo 1189256">
                    <g id="Grupo_1189255" data-name="Grupo 1189255">
                      <g id="Grupo_1189254" data-name="Grupo 1189254">
                        <g id="Grupo_1189240-2" data-name="Grupo 1189240" transform="translate(0 4.362)">
                          <path id="Trazado_878294" data-name="Trazado 878294" d="M79.022,77.07H52.273A2,2,0,0,1,50.3,75.048V37.009a2,2,0,0,1,1.975-2.022H79.022A2,2,0,0,1,81,37.009V75.047a2,2,0,0,1-1.975,2.022Z" transform="translate(-50.298 -34.987)" fill="#e63950" stroke="#000" stroke-width="1"/>
                        </g>
                        <g id="Grupo_1189241" data-name="Grupo 1189241" transform="translate(0.174 4.537)">
                          <path id="Trazado_878295" data-name="Trazado 878295" d="M80.544,35.87a1.967,1.967,0,0,1,.175.813v37.16a1.975,1.975,0,0,1-1.975,1.975H51.994a1.968,1.968,0,0,1-.813-.175,1.976,1.976,0,0,0,1.8,1.162H79.731a1.975,1.975,0,0,0,1.975-1.975V37.671A1.975,1.975,0,0,0,80.544,35.87Z" transform="translate(-51.181 -35.87)" fill="#d10028"/>
                        </g>
                        <g id="Grupo_1189242" data-name="Grupo 1189242" transform="translate(2.62 7.123)">
                          <path id="Trazado_878296" data-name="Trazado 878296" d="M88.362,84.558H64.219a.658.658,0,0,1-.658-.658V49.619a.658.658,0,0,1,.658-.658H88.362a.658.658,0,0,1,.658.658V83.9A.658.658,0,0,1,88.362,84.558Z" transform="translate(-63.561 -48.961)" fill="#f1f2f2"/>
                        </g>
                        <g id="Grupo_1189243" data-name="Grupo 1189243" transform="translate(2.62 7.123)">
                          <path id="Trazado_878297" data-name="Trazado 878297" d="M88.362,48.961h-.329v33.95a.658.658,0,0,1-.658.658H63.561V83.9a.658.658,0,0,0,.658.658H88.362a.658.658,0,0,0,.658-.658V49.619A.658.658,0,0,0,88.362,48.961Z" transform="translate(-63.561 -48.961)" fill="#e6e7e8"/>
                        </g>
                        <g id="Grupo_1189244" data-name="Grupo 1189244" transform="translate(3.41 7.913)">
                          <path id="Trazado_878298" data-name="Trazado 878298" d="M67.955,75.567a.4.4,0,1,1,.4-.4A.4.4,0,0,1,67.955,75.567Zm0-1.58a.4.4,0,0,1-.4-.4V53.355a.4.4,0,0,1,.4-.4h2.817a.4.4,0,0,1,0,.79H68.35V73.592A.4.4,0,0,1,67.955,73.987Z" transform="translate(-67.56 -52.96)" fill="#fff"/>
                        </g>
                        <g id="Grupo_1189245" data-name="Grupo 1189245" transform="translate(7.701 2.552)">
                          <path id="Trazado_878299" data-name="Trazado 878299" d="M104.53,30.323l-.987-3.539a1.317,1.317,0,0,0-1.268-.963H98.164a1.234,1.234,0,0,1-2.469,0H91.585a1.317,1.317,0,0,0-1.268.963l-.987,3.539a1.317,1.317,0,0,0,1.269,1.67h12.663A1.317,1.317,0,0,0,104.53,30.323Z" transform="translate(-89.28 -25.821)" fill="#ffa91a"/>
                        </g>
                        <g id="Grupo_1189246" data-name="Grupo 1189246" transform="translate(7.701 2.552)">
                          <path id="Trazado_878300" data-name="Trazado 878300" d="M104.529,30.323l-.987-3.539a1.317,1.317,0,0,0-1.268-.963h-.425l.7,2.527a1.317,1.317,0,0,1-1.268,1.67H89.413l-.085.305a1.317,1.317,0,0,0,1.269,1.67H103.26a1.317,1.317,0,0,0,1.268-1.67Z" transform="translate(-89.279 -25.821)" fill="#f79219"/>
                        </g>
                        <g id="Grupo_1189249" data-name="Grupo 1189249" transform="translate(7.734 2.551)">
                          <g id="Grupo_1189247" data-name="Grupo 1189247" transform="translate(0 0.034)">
                            <path id="Trazado_878301" data-name="Trazado 878301" d="M104.665,30.461l-.987-3.539a1.317,1.317,0,0,0-.972-.929l.97,3.481a1.317,1.317,0,0,1-1.268,1.67H89.745a1.335,1.335,0,0,1-.3-.033,1.317,1.317,0,0,0,1.284,1.021H103.4A1.317,1.317,0,0,0,104.665,30.461Z" transform="translate(-89.449 -25.992)" fill="#ef7816"/>
                          </g>
                          <g id="Grupo_1189248" data-name="Grupo 1189248" transform="translate(5.887)">
                            <path id="Trazado_878302" data-name="Trazado 878302" d="M119.765,26.046a1.236,1.236,0,0,1-.021-.226h-.494A1.227,1.227,0,0,0,119.765,26.046Z" transform="translate(-119.25 -25.82)" fill="#f79219"/>
                          </g>
                        </g>
                        <g id="Grupo_1189250" data-name="Grupo 1189250" transform="translate(12.798)">
                          <path id="Trazado_878303" data-name="Trazado 878303" d="M117.636,12.9a2.551,2.551,0,1,0,2.552,2.552A2.551,2.551,0,0,0,117.636,12.9Zm0,3.786a1.234,1.234,0,1,1,1.234-1.234A1.235,1.235,0,0,1,117.636,16.691Z" transform="translate(-115.085 -12.905)" fill="#ffa91a"/>
                        </g>
                        <g id="Grupo_1189253" data-name="Grupo 1189253" transform="translate(13.359 0.561)">
                          <g id="Grupo_1189251" data-name="Grupo 1189251">
                            <path id="Trazado_878304" data-name="Trazado 878304" d="M121.509,15.743a2.552,2.552,0,0,1-3.587,3.587,2.552,2.552,0,1,0,3.587-3.587Z" transform="translate(-117.922 -15.743)" fill="#f79219"/>
                          </g>
                          <g id="Grupo_1189252" data-name="Grupo 1189252" transform="translate(0.361 0.361)">
                            <path id="Trazado_878305" data-name="Trazado 878305" d="M120.332,19.854a1.235,1.235,0,0,1,1.7-1.7,1.235,1.235,0,1,0-1.7,1.7Z" transform="translate(-119.75 -17.572)" fill="#f79219"/>
                          </g>
                        </g>
                      </g>
                    </g>
                  </g>
                </g>
                <g id="Grupo_1189270" data-name="Grupo 1189270" transform="translate(5.518 24.186)">
                  <g id="Grupo_1189260" data-name="Grupo 1189260">
                    <g id="Grupo_1189258" data-name="Grupo 1189258">
                      <path id="Trazado_878306" data-name="Trazado 878306" d="M81.287,137.761H78.626a.4.4,0,0,1-.4-.4v-1.637a.4.4,0,0,1,.4-.4h2.661a.4.4,0,0,1,.4.4v1.637A.4.4,0,0,1,81.287,137.761Z" transform="translate(-78.231 -135.334)" fill="#76a34f"/>
                    </g>
                    <g id="Grupo_1189259" data-name="Grupo 1189259" transform="translate(5.427)">
                      <path id="Trazado_878307" data-name="Trazado 878307" d="M119.544,137.761H106.1a.4.4,0,0,1-.4-.4v-1.637a.4.4,0,0,1,.4-.4h13.446a.4.4,0,0,1,.4.4v1.637A.4.4,0,0,1,119.544,137.761Z" transform="translate(-105.703 -135.334)" fill="#58595b"/>
                    </g>
                  </g>
                  <g id="Grupo_1189263" data-name="Grupo 1189263" transform="translate(0 4.347)">
                    <g id="Grupo_1189261" data-name="Grupo 1189261">
                      <path id="Trazado_878308" data-name="Trazado 878308" d="M81.287,159.765H78.626a.4.4,0,0,1-.4-.4v-1.637a.4.4,0,0,1,.4-.4h2.661a.4.4,0,0,1,.4.4v1.637A.4.4,0,0,1,81.287,159.765Z" transform="translate(-78.231 -157.338)" fill="#e63950"/>
                    </g>
                    <g id="Grupo_1189262" data-name="Grupo 1189262" transform="translate(5.427)">
                      <path id="Trazado_878309" data-name="Trazado 878309" d="M119.544,159.765H106.1a.4.4,0,0,1-.4-.4v-1.637a.4.4,0,0,1,.4-.4h13.446a.4.4,0,0,1,.4.4v1.637A.4.4,0,0,1,119.544,159.765Z" transform="translate(-105.703 -157.338)" fill="#939598"/>
                    </g>
                  </g>
                  <g id="Grupo_1189266" data-name="Grupo 1189266" transform="translate(0 8.693)">
                    <g id="Grupo_1189264" data-name="Grupo 1189264">
                      <path id="Trazado_878310" data-name="Trazado 878310" d="M81.287,181.768H78.626a.4.4,0,0,1-.4-.4v-1.637a.4.4,0,0,1,.4-.4h2.661a.4.4,0,0,1,.4.4v1.637A.4.4,0,0,1,81.287,181.768Z" transform="translate(-78.231 -179.341)" fill="#76a34f"/>
                    </g>
                    <g id="Grupo_1189265" data-name="Grupo 1189265" transform="translate(5.427)">
                      <path id="Trazado_878311" data-name="Trazado 878311" d="M119.544,181.768H106.1a.4.4,0,0,1-.4-.4v-1.637a.4.4,0,0,1,.4-.4h13.446a.4.4,0,0,1,.4.4v1.637A.4.4,0,0,1,119.544,181.768Z" transform="translate(-105.703 -179.341)" fill="#58595b"/>
                    </g>
                  </g>
                  <g id="Grupo_1189269" data-name="Grupo 1189269" transform="translate(0 13.04)">
                    <g id="Grupo_1189267" data-name="Grupo 1189267">
                      <path id="Trazado_878312" data-name="Trazado 878312" d="M81.287,203.772H78.626a.4.4,0,0,1-.4-.4V201.74a.4.4,0,0,1,.4-.4h2.661a.4.4,0,0,1,.4.4v1.637A.4.4,0,0,1,81.287,203.772Z" transform="translate(-78.231 -201.345)" fill="#e63950"/>
                    </g>
                    <g id="Grupo_1189268" data-name="Grupo 1189268" transform="translate(5.427)">
                      <path id="Trazado_878313" data-name="Trazado 878313" d="M119.544,203.772H106.1a.4.4,0,0,1-.4-.4V201.74a.4.4,0,0,1,.4-.4h13.446a.4.4,0,0,1,.4.4v1.637A.4.4,0,0,1,119.544,203.772Z" transform="translate(-105.703 -201.345)" fill="#939598"/>
                    </g>
                  </g>
                </g>
              </g>
            </g>
          </g>
        </g>
        <g id="Grupo_1189284" data-name="Grupo 1189284" transform="translate(59.655 22.588)">
          <g id="Grupo_1189278" data-name="Grupo 1189278" transform="translate(0)">
            <g id="Grupo_1189277" data-name="Grupo 1189277">
              <g id="Grupo_1189276" data-name="Grupo 1189276">
                <g id="Grupo_1189275" data-name="Grupo 1189275">
                  <path id="Trazado_878314" data-name="Trazado 878314" d="M108.347,70.048a1.3,1.3,0,0,0-.923.385l-.816-.471a3.209,3.209,0,0,0,.267-.991h1.184v.062a.331.331,0,1,0,.663,0v-.786a.331.331,0,1,0-.663,0v.062h-1.184a3.21,3.21,0,0,0-.267-.991l.816-.471a1.315,1.315,0,1,0-.331-.574l-.818.472a3.261,3.261,0,0,0-.725-.725l.593-1.027.054.031a.331.331,0,1,0,.331-.574l-.681-.393a.331.331,0,0,0-.331.574l.054.031-.593,1.027a3.209,3.209,0,0,0-.991-.267v-.942a1.3,1.3,0,1,0-.663,0v.942a3.21,3.21,0,0,0-.991.267l-.593-1.027.054-.031a.331.331,0,1,0-.331-.574l-.681.393a.331.331,0,1,0,.331.574l.054-.031.593,1.027a3.261,3.261,0,0,0-.725.725l-.818-.472a1.3,1.3,0,1,0-.331.574l.816.471a3.209,3.209,0,0,0-.267.991H99.251v-.062a.331.331,0,0,0-.663,0v.786a.331.331,0,0,0,.663,0v-.062h1.184a3.21,3.21,0,0,0,.267.991l-.816.471a1.315,1.315,0,1,0,.331.574l.818-.472a3.262,3.262,0,0,0,.725.725l-.593,1.027-.054-.031a.331.331,0,0,0-.331.574l.681.393a.331.331,0,1,0,.331-.574l-.054-.031.593-1.027a3.209,3.209,0,0,0,.991.267V72.8a1.3,1.3,0,1,0,.663,0v-.942a3.21,3.21,0,0,0,.991-.267l.593,1.027-.054.031a.331.331,0,1,0,.331.574l.681-.393a.331.331,0,1,0-.331-.574l-.054.031-.593-1.027a3.261,3.261,0,0,0,.725-.725l.818.472a1.3,1.3,0,1,0,1.254-.959Z" transform="translate(-97.662 -61.921)" fill="#e63950"/>
                </g>
              </g>
            </g>
          </g>
          <g id="Grupo_1189283" data-name="Grupo 1189283" transform="translate(4.44 5.588)">
            <g id="Grupo_1189282" data-name="Grupo 1189282">
              <g id="Grupo_1189281" data-name="Grupo 1189281">
                <g id="Grupo_1189280" data-name="Grupo 1189280">
                  <g id="Grupo_1189279" data-name="Grupo 1189279">
                    <path id="Trazado_878315" data-name="Trazado 878315" d="M121.416,92.468a.432.432,0,0,1-.305-.127l-.844-.844a.432.432,0,0,1,.611-.611l.539.539,1.092-1.092a.432.432,0,0,1,.611.611l-1.4,1.4A.432.432,0,0,1,121.416,92.468Z" transform="translate(-120.139 -90.206)" fill="#ffa91a"/>
                  </g>
                </g>
              </g>
            </g>
          </g>
        </g>
      </g>
    </g>
  </g>
</svg>
