<svg id="Grupo_1189188" data-name="Grupo 1189188" xmlns="http://www.w3.org/2000/svg" width="177" height="226.014" viewBox="0 0 177 226.014">
  <rect id="Rectángulo_402730" data-name="Rectángulo 402730" width="177" height="226.014" rx="10" fill="#ffd907"/>
  <g id="Grupo_1189187" data-name="Grupo 1189187" transform="translate(19.715 16)">
    <g id="Grupo_1188848" data-name="Grupo 1188848" transform="translate(35.932 9.69)">
      <g id="Grupo_1188845" data-name="Grupo 1188845" transform="translate(0.55 0.605)">
        <path id="Trazado_876623" data-name="Trazado 876623" d="M83.42,193.117c.217-.858.843-2,1.482-.666,1.687,5.369,3.1,10.832,4.239,16.339.73,4.464,1.574,8.9,2.362,13.341a20.179,20.179,0,0,0,.326,2.848c.068.39.127.785.185,1.174a40.326,40.326,0,0,0-5.164-3.709c-.9-.591-6.633-3.716-9.035-4.023.481-1.879.954-3.763,1.334-5.668C80.635,206.238,82.073,199.65,83.42,193.117Z" transform="translate(-24.881 -191.841)" fill="#e48399"/>
        <path id="Trazado_876624" data-name="Trazado 876624" d="M112.938,200.918c.38-1.554.293-8.941,2-8.84l0-.008c1.852,2.45,2.14,5.7,3.22,8.518a184.985,184.985,0,0,1,5.463,19.082,63.208,63.208,0,0,0-13.769,5.933C110.761,217.359,111.772,209.122,112.938,200.918Z" transform="translate(-109.855 -191.688)" fill="#e48399"/>
      </g>
      <g id="Grupo_1188846" data-name="Grupo 1188846">
        <path id="Trazado_876625" data-name="Trazado 876625" d="M77.635,217.83c-.073-.558.127-1.164.7-1.161l.028-.1a.657.657,0,0,1,.232-.321c1.637-7.346,3.063-14.851,4.376-22.3.25-.761-.113-2.57,1.083-2.432a.578.578,0,0,1,.277.185.625.625,0,0,1,1.1.473c-.621,3.969-1.243,7.945-1.906,11.906-.46,2.257-1.024,4.586-.218,6.851a1.729,1.729,0,0,0,.128.335,22.545,22.545,0,0,1,4.189,8.682c.3,1.537,2.17,2.027,3.276,3.008.595.541,1.326.941,1.9,1.474a.635.635,0,0,1-.168.8.776.776,0,0,1-.178.077,3.6,3.6,0,0,1-.043.906c-.363.768-1.228.315-1.652-.128a33.731,33.731,0,0,0-12.839-7.163.629.629,0,0,1-.471-.861A.563.563,0,0,1,77.635,217.83Zm2.287.278.045.015c-.017-.03-.028-.058-.048-.088A.539.539,0,0,1,79.922,218.108Z" transform="translate(-24.494 -191.477)" fill="#b06476"/>
        <path id="Trazado_876626" data-name="Trazado 876626" d="M109.591,225.07a1.226,1.226,0,0,1,.187-.508c-.571-1.143,2.647-2.012,3.411-2.469a13.515,13.515,0,0,0,1.857-1.121,4.361,4.361,0,0,0,.986-1.271,51.637,51.637,0,0,0,.428-5.87c.1-2.115.889-4.111,1.159-6.191-.143-2.347-1.146-4.606-1.582-6.924-.685-2.7-1.456-5.379-2.372-7.989a.621.621,0,0,1,1.124-.518.625.625,0,0,1,1.054-.326,11.734,11.734,0,0,1,.949,2.052c.986,2.928,2.08,5.863,2.958,8.852,1.494,5.445,3.466,10.754,4.582,16.319a.868.868,0,0,1-.906,1.166c-4.651.963-8.622,3.628-12.831,5.66A.689.689,0,0,1,109.591,225.07Z" transform="translate(-109.537 -191.329)" fill="#b06476"/>
      </g>
      <g id="Grupo_1188847" data-name="Grupo 1188847" transform="translate(0.387 0.056)">
        <path id="Trazado_876627" data-name="Trazado 876627" d="M78.891,192.042c0,.022.01.042.013.063a.526.526,0,0,1,.24.228.59.59,0,0,1,.348.408c.115.556.233,1.109.355,1.664a.633.633,0,0,1,.473.448c.07.262.137.523.2.784,1.359.426,2.42,8.9,2.862,9.824.976,3.8,1.293,7.727,1.967,11.59.425,2.63.833,5.259,1.189,7.9a2.4,2.4,0,0,1-.12,1.517c-.4.533-1.006.165-1.434-.117a1.274,1.274,0,0,1-.725-1.164c-.515-3.948-1.159-7.884-1.859-11.808-1.326-7.061-3.053-14.208-4.742-21.2A.618.618,0,0,1,78.891,192.042Z" transform="translate(-19.042 -191.511)" fill="#edb8c4"/>
        <path id="Trazado_876628" data-name="Trazado 876628" d="M114.627,225.155c.563-3.343.974-6.714,1.323-10.087.371-5.735,1.329-11.4,1.941-17.11a24.774,24.774,0,0,1,.954-5.553.618.618,0,0,1,.56-.295c.353-.954,1.686-.107,1.121.645-.8,4.7-1.049,9.468-1.819,14.173-.618,4.777-.884,9.564-1.441,14.36-.2,1.234.085,2.635-.453,3.776-.34.4-.851.616-1.208,1.006C114.971,226.624,114.316,225.788,114.627,225.155Z" transform="translate(-114.547 -191.396)" fill="#edb8c4"/>
      </g>
    </g>
    <g id="Grupo_1188851" data-name="Grupo 1188851" transform="translate(1.165 1.267)">
      <g id="Grupo_1188849" data-name="Grupo 1188849">
        <path id="Trazado_876629" data-name="Trazado 876629" d="M158.868,282.184a33.14,33.14,0,0,0,.138,4.982,10.118,10.118,0,0,0-1.309.588h-.005c-1.914.59-4.509,1.737-5.14,1.8a102.953,102.953,0,0,1-30.407,6.375A2.665,2.665,0,0,0,121,294.653a1.618,1.618,0,0,0-.811-.12c-.063.012-.127.027-.188.042l.053-.015-.068.015-.052.015-.03.015-.023.01a.1.1,0,0,0-.033.02,5.919,5.919,0,0,0-.516.345.087.087,0,0,0-.025.02c-.018.013-.033.028-.047.038l-.058.073h-.005v0c-.008.005-.013.015-.018.02l-.01.018c-.008.01-.018.015-.023.025-.052.063-.1.127-.152.19l-.015.02.01-.02c-.057.068-.113.142-.167.2-.01,0-.013.015-.018.02l0,0-.015.015,0,.01-.015.013a1.916,1.916,0,0,1-.185.225.319.319,0,0,1-.077.06.581.581,0,0,1-.058.038l-.057.03a.757.757,0,0,1-.1.04.45.45,0,0,1-.11.03l-.015.035-.135,0a.439.439,0,0,1-.082.01c-.018,0-.038,0-.058,0l-.008,0a118.132,118.132,0,0,1-44.364-7.95c.195-5.783-3.15-10.927-3.933-16.53-1.059-7.89.765-15.679,2.565-23.3,1.672-6.416,2.73-12.956,4.011-19.454,2.01-9.673,3.61-19.419,5.713-29.073.946-3.961.994-8.753,4.006-11.728,5.087-2.88,9.1,7.734,10.73,11.2,2.815,6.391,5.823,12.708,7.96,19.354.24.523.358,1.178.611,1.729l-.057.017h-.01l0,.028a.561.561,0,0,1,.078.13,7.032,7.032,0,0,1,.356,1,48.046,48.046,0,0,1,17.442-1.068c1.336-.008,2.768.625,4.086.583.032-.078.06-.155.093-.233.018-.043.032-.087.052-.132.088-.227.182-.455.285-.678l.015-.04.013-.033c2.49-7,4.146-14.282,6.2-21.426,1.144-3.25,1.847-6.671,3.336-9.788a4.108,4.108,0,0,1,2.32-2.29c7.707.386,11.823,22.817,13.351,29.24,3.047,10.735,4.587,21.844,8.378,32.355,2.728,8.215,5.184,17.666,1.271,25.86C161.379,276.73,159.045,279.057,158.868,282.184Zm-20.21-30.052c-3.49.7-2.768,6.045.66,6.073C143.722,258.093,142.966,251.255,138.658,252.131Zm-40.3-27.881c-.052-.236-.108-.471-.15-.708,0-.038-.015-.077-.022-.115-.02-.12-.042-.237-.057-.346H98.12l-.048.015c-.072-1.056-.73-2.6-.761-3.2-2.505-8.154-4.336-16.7-7.889-24.457a1.619,1.619,0,0,0-2.224-.665c-2.355,2.159-1.592,6.165-2.207,9.073-1.211,8.8-2.33,17.573-3.276,26.378l-.015.01c0,.058,0,.115,0,.168,0,.217,0,.435-.015.651,0,.015,0,.025,0,.04l0,0c-.012.145-.02.291-.032.44.167-.1.34-.207.516-.3l-.033.015c.253-.142.508-.285.761-.425v-.005c.168-.088.341-.178.513-.257l.461-.223a59.1,59.1,0,0,1,14.495-6.045A.136.136,0,0,1,98.354,224.251Zm.861,29.278c-3.811.808-2.578,6.451,1.038,6.158C104.2,259.06,103.456,252.324,99.215,253.529Zm35.1,23.34a13.449,13.449,0,0,1-1.534-.255,19.813,19.813,0,0,1-4.837-1.254c-4.5-1.967-6.075-7.2-6.471-11.713-.1-1.259-.212-2.57-.431-3.836,9.375-.22,6.241-9.826-1.772-8.876-3.395.243-7.421,1.922-5.923,6.043,1.059,2.472,3.763,2.908,6.235,2.885a.33.33,0,0,0,.028.087c.025.048.082.26.092.27a1.025,1.025,0,0,1,.025.145c.262,4.446,1.572,9.061-.2,13.361a11.029,11.029,0,0,1-10.454,6.595c-.087,0-.173-.008-.26-.017-.122.007-.237.013-.353.015-.242.012-.476.015-.713.018a11.354,11.354,0,0,1-1.139-.033h-.015l0,0h-.02l-.018-.005-.015,0c-.068-.008-.13-.008-.2-.017H106.3a.078.078,0,0,0-.04-.008c-.786-.1-1.571-.217-2.354-.342-.391-.062-.788-.125-1.176-.212a20.536,20.536,0,0,1-2.259-.776c-.058-.018-.107-.037-.165-.055a16.978,16.978,0,0,0,9.866,2.673h.058a12.259,12.259,0,0,0,10.985-9.033,15.464,15.464,0,0,0,.408-2.685c1.979,5.149,5.792,8.134,12.962,8.039q1.419-.018,3.023-.2a14.077,14.077,0,0,0,3.811-1.6l-.082.03c-.558.177-1.131.31-1.7.441-.61.143-1.241.248-1.862.343a7.848,7.848,0,0,1-1.084.082c-.2,0-.406,0-.608-.007C135.5,276.945,134.9,276.928,134.313,276.868Zm17.29-45.262c-.017-.208-.04-.415-.062-.623l-.005,0c-.072-.67-.152-1.336-.223-2-.075-.486-.143-.968-.223-1.454.01-.04.018-.083.028-.132-.022-.143-.043-.288-.06-.433-.032-.247-.063-.5-.1-.746q-.03-.267-.065-.535c-.032-.213-.067-.425-.108-.636-.007-.067-.022-.13-.032-.2-.093-.51-.193-1.019-.267-1.531a9.586,9.586,0,0,1-.28-1.5c-.991-5.165-1.624-10.4-3-15.486-1-3.713-1.816-7.491-3.152-11.069a1.96,1.96,0,0,0-1.742-1.058c-2.44.51-2.122,4.173-2.705,6.086-1.5,6.636-2.845,13.314-4.447,19.922-.23.863-.421,1.729-.651,2.592.1.032.208.068.3.107l.408.14c.117.042.228.083.343.12l.035.015c.023.008.048.013.077.022a35.133,35.133,0,0,1,16.051,9.9C151.7,232.6,151.658,232.1,151.6,231.606Z" transform="translate(-47.738 -186.421)" fill="#fdf7f5"/>
        <path id="Trazado_876630" data-name="Trazado 876630" d="M70.813,290.153c1.816-6.509,6.4-11.328,11.024-15.987,5.13-5.532,7.712-12.919,9.238-20.188,2.05,1.449,4.571,1.919,6.894,2.785a119.541,119.541,0,0,0,12.951,3.928,54.859,54.859,0,0,0,6.47,1.276c.448.013,1.194.235,1.8.237a.045.045,0,0,0,.025.005c.994.1,2.11.088,2.575.216a105.626,105.626,0,0,0,13.875.788c.665-.008,1.336-.027,2.007-.055-4.967,3.661-2.525,12.866,5.114,12.764.188,0,.381-.013.573-.027,7.657-.548,7.787-10.444,2.484-13.386a150.022,150.022,0,0,0,29.388-6.11c2.32-.788,5.424-1.476,7.727-2.872.443,1.4.718,2.858,1.049,4.3a175.267,175.267,0,0,1,2.1,31.6,135.916,135.916,0,0,1-3.383,33.774,42.168,42.168,0,0,0-1.188,6.936,3.819,3.819,0,0,1-3.3,3.248,1.786,1.786,0,0,1-.846-.178,3.145,3.145,0,0,0,.583-1.517c-.01-.082-.022-.168-.037-.25-.032-.122-.062-.241-.1-.366a4.367,4.367,0,0,0-.17-.421c-.045-.087-.088-.163-.133-.245l0-.01c-.025-.028-.045-.057-.068-.085-.088-.1-.182-.191-.275-.276-.122-.11-.248-.21-.37-.31a15.99,15.99,0,0,1-.048,1.927c-.22,1.571-2.214,2.254-3.6,2.03a2.513,2.513,0,0,1-1.567-2.035.61.61,0,0,0-.05-.115,4.022,4.022,0,0,0,.037-.513,5.585,5.585,0,0,0-.313-.71,4.586,4.586,0,0,0-.28-.411l-.01,0a.185.185,0,0,1-.03-.043c-.028-.028-.058-.057-.083-.085l-.013-.01h-.005v0h0l-.025-.023v0h0v0h0a3.937,3.937,0,0,0-.37-.275l-.073-.042a.59.59,0,0,0,.023.313,4.278,4.278,0,0,1-.208,2.449c-1.479,1.656-4.6.64-4.985-1.5-.282-4.079-.436-8.173-.843-12.256-.9-8.868-2.793-17.626-3.976-26.466l-.048-.42c-.018.132-.035.262-.053.392-.1.755-.163,1.517-.217,2.277,0,.018,0,.043,0,.062v.015c-.01.328-.012.651-.027.976s-.025.636-.03.951c-.022.593-.008,1.181,0,1.771,1.1,6.969,2.534,13.9,3.146,20.918.082,2.562.593,5.089.616,7.656-.008.087-.012.178-.02.265-1.879,1.4-4.316,1.786-6.578,2.2-8.087.778-16.849,1.356-24.551-1.574a16.742,16.742,0,0,1-4.141-2.165.17.17,0,0,0-.053-.033,35.419,35.419,0,0,1-1.771-5.14,82.7,82.7,0,0,1-2.22-13.932c-.267-5.224.258-10.5.083-15.719-.043.29-.088.58-.143.871-.12.7-.237,1.393-.381,2.089-.173.823-.336,1.661-.465,2.492l-.013.082c-.093.653-.19,1.311-.3,1.959-.1,5.465-.132,10.909.978,16.332a43.55,43.55,0,0,0,3.68,12.7,2,2,0,0,1-.117,2.139,2.718,2.718,0,0,1-1.679.8.335.335,0,0,0-.11.017,3.862,3.862,0,0,0-.242-2.26,1.937,1.937,0,0,0-.207-.238c-.1-.11-.21-.2-.323-.3-.1-.082-.213-.152-.321-.223h0l-.015-.015c-.137-.075-.268-.15-.408-.212v-.005l-.01,0-.015,0h.01a.105.105,0,0,0-.038-.02.1.1,0,0,0,.028.02,3.339,3.339,0,0,0-.393-.145h.025a.213.213,0,0,0-.025-.005h0q-.217-.055-.45-.095a1.437,1.437,0,0,0-.145-.023,5.539,5.539,0,0,1,1.153,1.762c.615,1.289.182,2.4-1.269,2.627-1.572.035-2.57-1.386-3.358-2.552v0a2.773,2.773,0,0,0-.075-.616.384.384,0,0,1-.04-.078q-.192-.3-.385-.606c-.132-.082-.268-.162-.408-.241-.223-.108-.456-.212-.69-.3-.1-.037-.193-.07-.292-.1-.008,0-.008,0-.008-.005h-.035l-.013,0c-.112-.022-.238-.045-.348-.063a7.041,7.041,0,0,1,.57.751c.776,1.114.65,2.515-.793,2.925a8.569,8.569,0,0,1-5.044-1.927c-10.411-7.777-9.1-21.514-12.661-32.837-.125-.352-.255-.711-.38-1.071a.028.028,0,0,0-.01-.025c-.03-.095-.07-.192-.1-.283-.19-.426-.378-.849-.586-1.266-.188-.383-.368-.778-.585-1.141-.266-.45-.571-.871-.876-1.288-.345-.458-.678-.921-1.031-1.366s-.745-.859-1.128-1.288c-.127-.148-.265-.3-.391-.45.1.2.188.4.288.61.148.306.316.613.465.924a.473.473,0,0,0,.05.107c6.23,9.908,4.291,22.462,9.8,32.7.5.895,1.076,1.824,1.716,2.737a.578.578,0,0,0-.152.23,16.906,16.906,0,0,1-7.662,3.7,33.7,33.7,0,0,1-13.319.127,1.989,1.989,0,0,0-.686-.135c-6.175-1.328-10-2.86-12.936-9C67.86,310.08,68.483,299.46,70.813,290.153Z" transform="translate(-68.997 -141.748)" fill="#fdf7f5"/>
        <path id="Trazado_876631" data-name="Trazado 876631" d="M57.746,319.821c.371-2.254.964-4.447,1.443-6.693a138.29,138.29,0,0,0,2.753-30.975c.01-5.84-.033-11.723-.415-17.576,3.1,3.6,6.586,6.809,9.358,10.677,5.767,7.594,9.669,17.43,8.333,27.046-.891,6-5.482,10.685-10.551,13.594-3.11,1.972-6.759,2.6-10.224,3.74C58.213,319.689,57.983,319.759,57.746,319.821Z" transform="translate(56.401 -134.393)" fill="#fdf7f5"/>
        <path id="Trazado_876632" data-name="Trazado 876632" d="M66.795,299.31a.53.53,0,0,0,.356.005,47.608,47.608,0,0,0,6.889-2.084c-.1,2.23,1.707,5.455-.716,6.51a2.281,2.281,0,0,1-1.836-.13,2.552,2.552,0,0,0,.123-.865c-.04-.092-.083-.183-.133-.275-.065-.1-.128-.215-.2-.32s-.143-.177-.222-.268a2.124,2.124,0,0,0-.177-.166c-.043-.032-.092-.07-.14-.1-.142-.08-.288-.157-.433-.226-.063-.023-.127-.052-.19-.075a14.909,14.909,0,0,1,.233,1.5c.117,1.239-1.293,1.6-2.265,1.338a2.687,2.687,0,0,1-1.812-1.626c-.02-.038-.04-.072-.058-.1a6.963,6.963,0,0,0,.541-2.835C66.768,299.5,66.782,299.4,66.795,299.31Z" transform="translate(47.176 -112.655)" fill="#fdf7f5"/>
        <path id="Trazado_876633" data-name="Trazado 876633" d="M125.793,299.424a12.157,12.157,0,0,0,1.529.26,69.753,69.753,0,0,0,7.091.525,43.907,43.907,0,0,0,4.855-.666,4.9,4.9,0,0,1,.316.979,3.159,3.159,0,0,1-.21,2.054,2.665,2.665,0,0,1-1.486,1.111,2.075,2.075,0,0,1-1.239-.313,2.4,2.4,0,0,0,.1-.455c-.02-.077-.04-.148-.06-.227a.576.576,0,0,1-.025-.057c-.01-.02-.025-.043-.04-.067s-.035-.048-.055-.077a4.16,4.16,0,0,0-.333-.376c-.1-.092-.2-.172-.311-.253l-.1-.052a2.233,2.233,0,0,0-.263-.112l-.183-.055a.554.554,0,0,0-.013.092,1.37,1.37,0,0,1,.1.306,2.583,2.583,0,0,1,.073.473,1.078,1.078,0,0,1-.39,1.066,3.05,3.05,0,0,1-4.526-.563c-.122-.113-.235-.228-.356-.338v0c-.048-.042-.1-.09-.147-.133-.137-.118-.273-.223-.425-.332l-.005,0a.023.023,0,0,0-.018-.01l-.015-.008v-.005c-.01,0-.02-.01-.03-.015-.048-.032-.1-.06-.155-.088l-.038-.025h0c-.043-.018-.083-.042-.127-.06l-.01-.005-.015-.005,0,0h-.005l-.01,0-.015-.01h-.01v-.005l-.015,0-.018,0c-.107-.042-.213-.083-.32-.12l.015.038a1.437,1.437,0,0,1,.16.881.79.79,0,0,1-.022.1,1.267,1.267,0,0,1-.721.954c-3.38,1.063-5.935-2.532-6.908-5.309a1.989,1.989,0,0,1-.115-.27c.145.047.29.083.441.125C123.086,298.716,124.424,299.153,125.793,299.424Z" transform="translate(-109.639 -111.991)" fill="#fdf7f5"/>
      </g>
      <g id="Grupo_1188850" data-name="Grupo 1188850" transform="translate(8.411 41.952)">
        <path id="Trazado_876634" data-name="Trazado 876634" d="M100.575,233.9a10.032,10.032,0,0,1-1.529.177,7.259,7.259,0,0,1-1.066.092c-2.85.037-5.943-1.506-6.193-4.6a5.088,5.088,0,0,1,.125-.846.564.564,0,0,1,.16-.346c.118.208.24.416.378.615a4.852,4.852,0,0,0,.3.421.751.751,0,0,0,.278.21,1.735,1.735,0,0,0,.04.18,1.452,1.452,0,0,1,.5.363,4.184,4.184,0,0,0,1.857.874c1.419.167,2.868.085,4.317.187a9.437,9.437,0,0,1,2.157-.37,7.032,7.032,0,0,1,1.622-.147,2.177,2.177,0,0,0,.153-.665.581.581,0,0,1,.458-.635,2.972,2.972,0,0,0-.063-.5.618.618,0,0,1,1.2-.271C105.987,231.548,103.237,233.678,100.575,233.9Z" transform="translate(-34.624 -200.566)" fill="#d2beb7"/>
        <path id="Trazado_876635" data-name="Trazado 876635" d="M87.572,238.041a.618.618,0,1,1,.62-.616A.626.626,0,0,1,87.572,238.041Z" transform="translate(-9.375 -194.833)" fill="#d2beb7"/>
        <path id="Trazado_876636" data-name="Trazado 876636" d="M90.9,236.829a.618.618,0,1,1,.62-.616A.625.625,0,0,1,90.9,236.829Z" transform="translate(-18.243 -195.64)" fill="#d2beb7"/>
        <path id="Trazado_876637" data-name="Trazado 876637" d="M88.172,234.978a.618.618,0,1,1,.62-.616A.625.625,0,0,1,88.172,234.978Z" transform="translate(-10.975 -196.872)" fill="#d2beb7"/>
        <path id="Trazado_876638" data-name="Trazado 876638" d="M100.671,238.354a.617.617,0,1,1,.62-.615A.624.624,0,0,1,100.671,238.354Z" transform="translate(-44.293 -194.623)" fill="#d2beb7"/>
        <path id="Trazado_876639" data-name="Trazado 876639" d="M104.324,239.538a.618.618,0,1,1-.616-.62A.624.624,0,0,1,104.324,239.538Z" transform="translate(-52.378 -193.426)" fill="#d2beb7"/>
        <path id="Trazado_876640" data-name="Trazado 876640" d="M103.559,236.549a.618.618,0,1,1,.62-.616A.625.625,0,0,1,103.559,236.549Z" transform="translate(-51.991 -195.826)" fill="#d2beb7"/>
        <path id="Trazado_876641" data-name="Trazado 876641" d="M124.462,243.124l-.01.01c-.033.043-.062.088-.095.132a.154.154,0,0,0-.028.035,12.081,12.081,0,0,1-1.319,1.324l.062-.05c-.062.05-.12.1-.182.153l.028-.02a.329.329,0,0,1-.033.027l0,0-.008.01a11.644,11.644,0,0,1-1.116.748c-.253.148-.5.292-.756.43a10.582,10.582,0,0,1-2.89.766,12.443,12.443,0,0,1-1.774.143c-3.729.05-7.794-1.421-10.1-4.178a13.442,13.442,0,0,1-11.875,7.656c-.22,0-.441,0-.665-.007a13.231,13.231,0,0,1-10.569-4.477c.2.068.4.133.6.2a6.53,6.53,0,0,0,2.117.658h0a11.917,11.917,0,0,0,1.076.671h.007a17.188,17.188,0,0,0,4.219.523c2.254-.082,4.616.122,6.778-.61a13.892,13.892,0,0,0,1.654-.919,1.8,1.8,0,0,1,.4-.43,8.74,8.74,0,0,0,2.125-3.136,14.7,14.7,0,0,0,2-4.626.691.691,0,0,1,.27-.351,8.959,8.959,0,0,1,.035-1.111.621.621,0,0,1,.984-.41c.317.208.258.635.35.956a8.867,8.867,0,0,0,.683,2.014.618.618,0,0,1,.553.167,14.85,14.85,0,0,0,1.857,1.847c2.91,2.505,6.976,3.133,10.739,2.972.215-.073.461-.185.721-.3a.663.663,0,0,0,.5.228c.02,0,.038,0,.063,0a4.089,4.089,0,0,0,.78-.185c.225-.07.451-.142.673-.222l.068-.025a1.237,1.237,0,0,1,.145.123,7.854,7.854,0,0,0,.663-.435c.067-.028.133-.055.2-.083l.548-.167c.2-.058.416-.11.618-.182l-.063.1A.056.056,0,0,0,124.462,243.124Z" transform="translate(-39.355 -195.261)" fill="#d2beb7"/>
        <path id="Trazado_876642" data-name="Trazado 876642" d="M83.185,240.373l.015-.025,0,0Z" transform="translate(1.897 -192.475)" fill="#d2beb7"/>
        <path id="Trazado_876643" data-name="Trazado 876643" d="M83.25,240.423l-.01.015,0-.01Z" transform="translate(1.757 -192.424)" fill="#d2beb7"/>
        <path id="Trazado_876644" data-name="Trazado 876644" d="M83.246,240.48l.015-.023c.008-.01.013-.02.023-.025A.4.4,0,0,0,83.246,240.48Z" transform="translate(1.713 -192.418)" fill="#d2beb7"/>
        <path id="Trazado_876645" data-name="Trazado 876645" d="M94.629,248.672c-2.112.978-3.531-2.533-1.571-3.54A1.952,1.952,0,1,1,94.629,248.672Z" transform="translate(-25.842 -189.471)" fill="#d2beb7"/>
        <path id="Trazado_876646" data-name="Trazado 876646" d="M103.845,258.068a145.413,145.413,0,0,1-30.028,7.314c-.448.04-.969.21-1.368-.068-.253-.228-.363-.436-.645-.67a9.833,9.833,0,0,0-1.369-.893c-.711-.461-.175-1.288.548-1.261,2.8-.371,5.585-.826,8.392-1.138a.619.619,0,0,1,.46-.721c1.064-.192,2.147-.327,3.221-.476a100.9,100.9,0,0,0,16.963-4.2c2.492-.8,4.914-1.851,7.421-2.6.638-.3,1.5.338,1,.983a.687.687,0,0,1-.092.9C109.862,256.5,104.7,257.533,103.845,258.068Z" transform="translate(-1.735 -183.871)" fill="#d2beb7"/>
        <path id="Trazado_876647" data-name="Trazado 876647" d="M91.623,256.056a5.494,5.494,0,0,1,.113-1.861c.4-.711,1.244-.16,1.776.1a.613.613,0,0,1,.636-.155,101.944,101.944,0,0,0,9.713,3.187,46.778,46.778,0,0,1,4.861,1.463.693.693,0,0,1,.242.327,213.587,213.587,0,0,0,21.5,3.7c2.812-.07,5.623-.238,8.418-.5a.621.621,0,0,1-.008,1.239c-.1.387-.563.465-.856.668a.627.627,0,0,1-.373.931,2.906,2.906,0,0,0,.052.868.62.62,0,0,1-.287.476,1.974,1.974,0,0,1,.007.431c-.366,3.978,2.24,8.665,6.749,7.955.949.018,2.625-1.1,3.213.142a5.486,5.486,0,0,0,2.122-3.353.625.625,0,0,1,.468-.686c1.088-.125.783,1.283.483,1.89-.895,2.592-3.39,4.179-5.965,4.769-5.808,1.453-11.92-5.723-9.5-11.122-3.793-.17-7.577-.551-11.35-.994-10.88-1.819-21.967-3.743-32.071-8.339A.628.628,0,0,1,91.623,256.056Z" transform="translate(-79.026 -183.489)" fill="#d2beb7"/>
        <path id="Trazado_876648" data-name="Trazado 876648" d="M82.274,285.056a2.005,2.005,0,0,1,.515-1.619c-.27-1.064-.5-2.134-.69-3.2.015-.11.028-.22.045-.328,0-.052.013-.1.017-.153.092-.446.153-.9.228-1.336.05-.31.1-.623.153-.933a7.754,7.754,0,0,0,.306-1.053c1.106,10.562,5.47,23.02,17.042,25.317a16.275,16.275,0,0,0,16.407-8.16c2.027-3.751,2.517-7.932,2.467-12.116.015.1.032.188.047.285.037.207.068.413.11.621a1.053,1.053,0,0,0,.306.585.464.464,0,0,0,.1.075c0,.02,0,.038.01.053.063.395.15.78.242,1.169a1.035,1.035,0,0,0,.273.556c.012.107.022.212.038.318a.648.648,0,0,0,.075.227,24.238,24.238,0,0,1-.51,3.032c.426.145.423.7.391,1.119.911,7.319,3.02,14.627,2.813,22.066-.092.783-.883,1.189-1.531,1.482a31.483,31.483,0,0,1-9.656,1.851c-.158.007-.318.013-.478.015a48.861,48.861,0,0,1-5.367-.5c.037,1.722-14.293-.938-14.79-2.065-.048-.023-.1-.047-.142-.07-.078-.037-.15-.075-.223-.113-.939.448-2.07-.363-2.673-1.069-2.2-1.211-2.635-3.744-3-6.016A78.472,78.472,0,0,1,82.274,285.056Z" transform="translate(-35.767 -168.449)" fill="#d2beb7"/>
        <path id="Trazado_876649" data-name="Trazado 876649" d="M106.838,275.684a.11.11,0,0,0,0,.038l-.005.005-.008.072a3.117,3.117,0,0,1,.01-.395.351.351,0,0,0,0-.058.688.688,0,0,0,.033.1l-.028.22v.02Z" transform="translate(-61.133 -169.176)" fill="#d2beb7"/>
        <path id="Trazado_876650" data-name="Trazado 876650" d="M70.171,319.061c-.3,1.316-1.831.933-2.8,1.364a.748.748,0,0,1-.963-.939c.791-3.063,1.482-6.153,2.094-9.258,2.147-11.007,2.643-22.252,2.683-33.471a.554.554,0,0,1-.275-.358c-.188-2.059-.217-4.141-.435-6.2a53.2,53.2,0,0,1-.212-5.525.638.638,0,0,1,.445-.6.674.674,0,0,1,.82.72.62.62,0,0,1,.731.516,9.786,9.786,0,0,0,.738,2.24.752.752,0,0,1,.147.035,1.078,1.078,0,0,1,.11.043.621.621,0,0,1,.823.49c.441,7.567.075,15.135-.178,22.7C73.453,300.292,73.246,309.976,70.171,319.061Z" transform="translate(38.802 -176.702)" fill="#d2beb7"/>
        <path id="Trazado_876651" data-name="Trazado 876651" d="M67.1,301.266v-.007c0-.023.01-.047.013-.072Z" transform="translate(44.778 -151.973)" fill="#d2beb7"/>
        <path id="Trazado_876652" data-name="Trazado 876652" d="M67.1,299.975c.143-.045.287-.09.433-.125a1.153,1.153,0,0,1,.2-.032h0l.132,0a1.155,1.155,0,0,1,.183.022c.058.01.115.022.173.033l.012.008c.12.025.238.048.356.082.063.018.122.042.18.065l.107.057c.048.033.1.072.147.108a5.492,5.492,0,0,1,.488.433c.035.038.063.072.093.11l.1.143c.018.035.032.065.048.095l.012.03a3.992,3.992,0,0,1,.172.688c0,.08.008.16.008.241s-.012.16-.02.24-.025.153-.042.23a.616.616,0,0,1-.5.376l-.048,0a.6.6,0,0,1-.525-.191.89.89,0,0,1-.655.331c-.608.008-1.071-.685-.195-1.243h-.015a.3.3,0,0,0,.033-.077l0,.01a.8.8,0,0,0-.595-.8.9.9,0,0,0-.08-.481.669.669,0,0,0-.068-.133c-.03-.053-.065-.107-.1-.158-.015-.022-.03-.042-.047-.062h0Z" transform="translate(41.957 -152.886)" fill="#d2beb7"/>
        <path id="Trazado_876653" data-name="Trazado 876653" d="M66.353,300.828c.017-.073.037-.152.058-.233a.581.581,0,0,1,.275-.693c-.33-.816.776-1.091,1.353-1.272.323-.1.7-.28,1.013-.067,1.113-.15,5.895-2.437,5.91-.57.346.315.275.626-.067.921a.685.685,0,0,0-.172.037c-.286.11-.571.232-.856.333l-.008,0-.451.117c-.208.062-.415.13-.616.2a6.933,6.933,0,0,1-.8.238l.01-.005c-.471.115-.948.208-1.426.3-.153.048-.308.092-.45.138a1.814,1.814,0,0,0-.933,1.066,20.27,20.27,0,0,1-.916,2.82.627.627,0,0,1-1.086-.015c-.8.333-1.023-.67-.866-1.266C65.675,302.405,66.278,301.462,66.353,300.828Z" transform="translate(38.491 -154.586)" fill="#d2beb7"/>
        <path id="Trazado_876654" data-name="Trazado 876654" d="M73.771,301.452a2.97,2.97,0,0,0-.47-.824c-.007-.077-.02-.153-.027-.227-.022-.173-.038-.341-.06-.51,0-.025,0-.048,0-.073a.12.12,0,0,0,0-.038,2.554,2.554,0,0,0-.067-.6l-.015-.038c-.007-.057-.017-.113-.027-.172,1.861.563,3.271,2.93,2.249,4.714a.631.631,0,0,1-.488.235.708.708,0,0,1-.638-.385C72.685,304.357,72.938,301.965,73.771,301.452Z" transform="translate(26.214 -153.448)" fill="#d2beb7"/>
        <path id="Trazado_876655" data-name="Trazado 876655" d="M78.921,303.727a.612.612,0,0,1-.225.042.783.783,0,0,1-.813-.795c-.295-.488-.755-1.308-.395-1.849a3.237,3.237,0,0,0-.526-.688,1.719,1.719,0,0,0-.087-.766c-.068-.285-.14-.57-.22-.851a7.016,7.016,0,0,1,.823.135C79.386,299.363,80.773,302.511,78.921,303.727Z" transform="translate(16.18 -153.55)" fill="#d2beb7"/>
        <path id="Trazado_876656" data-name="Trazado 876656" d="M107.284,297.864c.891.586,2.269,3.753.228,3.365a.628.628,0,0,1-.265.138.714.714,0,0,1-.192.032c-.77.01-1.316-1.316-.608-1.757a4.308,4.308,0,0,0-1.206-.945.573.573,0,0,0-.032-.053l-.03-.043a.683.683,0,0,0-.14-.3c-.132-.168-.27-.33-.411-.493-.015-.018-.033-.037-.048-.057-.1-.118-.2-.248-.313-.358a.669.669,0,0,0-.2-.147l-.033-.033A4.538,4.538,0,0,1,107.284,297.864Z" transform="translate(-58.201 -154.678)" fill="#d2beb7"/>
        <path id="Trazado_876657" data-name="Trazado 876657" d="M110.645,297.834c1.1.758,2.182,3.326.353,3.808a.482.482,0,0,1-.07.005.612.612,0,0,1-.581-.821c-.453-.24-1.083-.87-.781-1.413a3.568,3.568,0,0,0-1.188-.891.66.66,0,0,0-.142-.313,5.943,5.943,0,0,0-.563-.615c-.118-.13-.245-.245-.368-.363a1.65,1.65,0,0,1,.4-.068A3.315,3.315,0,0,1,110.645,297.834Z" transform="translate(-67.061 -154.717)" fill="#d2beb7"/>
        <path id="Trazado_876658" data-name="Trazado 876658" d="M121.547,290.37l.013.063,0,.015Z" transform="translate(-100.363 -159.175)" fill="#d2beb7"/>
        <path id="Trazado_876659" data-name="Trazado 876659" d="M119.257,296.258l0,0h0Z" transform="translate(-94.245 -155.255)" fill="#d2beb7"/>
        <path id="Trazado_876660" data-name="Trazado 876660" d="M119.766,303.608c-.2-.783-.358-1.571-.51-2.359-.093-.535-.148-1.069-.208-1.609s-.145-1.084-.21-1.629c.005.03.007.053.012.083-.047-.511-.062-1.018-.093-1.524s-.09-1-.117-1.511l.005.012c-.025-.468-.017-.941-.023-1.409-.01-.488-.027-.966-.038-1.452,0-.55.02-1.1.027-1.651,0-.516-.028-1.043-.045-1.559-.017-.56-.033-1.119-.065-1.677s-.1-1.094-.142-1.639c-.03-.376-.053-.753-.083-1.129-.035-.438-.1-.866-.177-1.3l.017.078c-.12-.675-.225-1.354-.35-2.027-.118-.651-.278-1.286-.4-1.931-.055-.29-.108-.58-.17-.866-.025-.115-.053-.232-.078-.351l.015.077c-.082-.365-.173-.736-.26-1.106s-.17-.75-.285-1.116c-.2-.641-.461-1.261-.7-1.887l.18.21c.3.348.578.706.858,1.064.078.1.153.2.232.292,2.32,5.144,3.47,10.717,5.067,16.134,1.176,4.671,1.766,9.5,3.811,13.9.573,1.682,2.049,3.1,2.652,4.622a1.963,1.963,0,0,1-.9,1.238c-.756.488-1.446,1.264-2.392,1.321a.6.6,0,0,1-.182.528.619.619,0,0,1-.28.15.6.6,0,0,0-.157-.4,3.829,3.829,0,0,0-.511-.528,6.5,6.5,0,0,1-.485-.545l.017.023a.146.146,0,0,1-.025-.033l0-.005-.012-.015c-.232-.338-.445-.683-.655-1.038l.01.015-.012-.02a.346.346,0,0,0-.023-.038l0-.007v0h0c-.363-.615-.718-1.244-1.058-1.874s-.681-1.231-.984-1.869v.005c-.168-.37-.318-.745-.458-1.128.01.028.015.052.025.082-.142-.418-.272-.841-.408-1.264-.14-.443-.287-.889-.418-1.336Z" transform="translate(-98.059 -169.99)" fill="#d2beb7"/>
        <path id="Trazado_876661" data-name="Trazado 876661" d="M118.534,297.229l.037.04.017.018C118.567,297.267,118.554,297.249,118.534,297.229Z" transform="translate(-92.369 -154.609)" fill="#d2beb7"/>
        <path id="Trazado_876662" data-name="Trazado 876662" d="M122.678,277.258l.007.028.01.048Z" transform="translate(-103.379 -167.903)" fill="#d2beb7"/>
        <path id="Trazado_876663" data-name="Trazado 876663" d="M122.673,298.232a31.732,31.732,0,0,0,12.306,1.324c.916.153,6.051-1.569,5.249.378,1.614,1.8-5.4,1.566-6.373,1.794a29.1,29.1,0,0,1-11.137-1.418c-.934-.383-2.5-.768-1.489-2.012C121.589,297.824,122.214,298.048,122.673,298.232Z" transform="translate(-118.196 -154.085)" fill="#d2beb7"/>
        <path id="Trazado_876664" data-name="Trazado 876664" d="M124.378,303.284a.524.524,0,0,1-.218.048.631.631,0,0,1-.533-.954,1.608,1.608,0,0,0-.468-.656.977.977,0,0,0-.043-.428,1.5,1.5,0,0,0-.3-.508.771.771,0,0,0-.083-.187.8.8,0,0,0-.285-.28,2.2,2.2,0,0,1,.983.131C124.37,300.819,125.614,302.6,124.378,303.284Z" transform="translate(-105.195 -152.557)" fill="#d2beb7"/>
        <path id="Trazado_876665" data-name="Trazado 876665" d="M129.04,301.844c.282.483.575,1.459-.132,1.744a.75.75,0,0,1-.243.045c-.46.007-.675-.493-.59-.946a2.131,2.131,0,0,0-1.587-1.123,1.241,1.241,0,0,0-.207-.015.724.724,0,0,0,.017-.471.9.9,0,0,0-.247-.373,1.4,1.4,0,0,0-.132-.167,1.43,1.43,0,0,0-.206-.168,1.748,1.748,0,0,1,.348-.045A3.416,3.416,0,0,1,129.04,301.844Z" transform="translate(-115.088 -152.551)" fill="#d2beb7"/>
        <path id="Trazado_876666" data-name="Trazado 876666" d="M94.929,212.9a.618.618,0,1,1,.61-.626A.622.622,0,0,1,94.929,212.9Z" transform="translate(-28.96 -211.571)" fill="#d2beb7"/>
        <path id="Trazado_876667" data-name="Trazado 876667" d="M96.126,212.843a.618.618,0,1,1,.61-.626A.624.624,0,0,1,96.126,212.843Z" transform="translate(-32.15 -211.607)" fill="#d2beb7"/>
        <path id="Trazado_876668" data-name="Trazado 876668" d="M95.629,213.931a.618.618,0,1,1,.61-.626A.622.622,0,0,1,95.629,213.931Z" transform="translate(-30.826 -210.883)" fill="#d2beb7"/>
        <path id="Trazado_876669" data-name="Trazado 876669" d="M76.684,222.732a.618.618,0,1,1,.61-.626A.624.624,0,0,1,76.684,222.732Z" transform="translate(19.675 -205.024)" fill="#d2beb7"/>
        <path id="Trazado_876670" data-name="Trazado 876670" d="M77.605,246.645a.617.617,0,1,1,.61-.625A.622.622,0,0,1,77.605,246.645Z" transform="translate(17.221 -189.104)" fill="#d2beb7"/>
        <path id="Trazado_876671" data-name="Trazado 876671" d="M78.814,246.956a.617.617,0,1,1,.61-.626A.622.622,0,0,1,78.814,246.956Z" transform="translate(13.998 -188.897)" fill="#d2beb7"/>
        <path id="Trazado_876672" data-name="Trazado 876672" d="M116.63,246.241a.617.617,0,1,1,.608-.625A.622.622,0,0,1,116.63,246.241Z" transform="translate(-86.806 -189.373)" fill="#d2beb7"/>
        <path id="Trazado_876673" data-name="Trazado 876673" d="M119.682,222.652a.618.618,0,1,1,.608-.626A.624.624,0,0,1,119.682,222.652Z" transform="translate(-94.942 -205.077)" fill="#d2beb7"/>
        <path id="Trazado_876674" data-name="Trazado 876674" d="M120.7,223.026a.618.618,0,1,1-.626-.61A.623.623,0,0,1,120.7,223.026Z" transform="translate(-96.023 -204.411)" fill="#d2beb7"/>
        <path id="Trazado_876675" data-name="Trazado 876675" d="M73.148,262.779a.618.618,0,1,1-.61.626A.623.623,0,0,1,73.148,262.779Z" transform="translate(29.059 -177.542)" fill="#d2beb7"/>
        <path id="Trazado_876676" data-name="Trazado 876676" d="M73.1,264.185a.617.617,0,1,1-.61.626A.621.621,0,0,1,73.1,264.185Z" transform="translate(29.192 -176.606)" fill="#d2beb7"/>
        <path id="Trazado_876677" data-name="Trazado 876677" d="M74.147,264.773a.617.617,0,1,1,.61-.626A.621.621,0,0,1,74.147,264.773Z" transform="translate(26.438 -177.036)" fill="#d2beb7"/>
        <path id="Trazado_876678" data-name="Trazado 876678" d="M89.985,271.084a.618.618,0,1,1-.626-.61A.622.622,0,0,1,89.985,271.084Z" transform="translate(-14.154 -172.419)" fill="#d2beb7"/>
        <path id="Trazado_876679" data-name="Trazado 876679" d="M78.2,289.726a.618.618,0,1,1-.626-.61A.623.623,0,0,1,78.2,289.726Z" transform="translate(17.269 -160.009)" fill="#d2beb7"/>
        <path id="Trazado_876680" data-name="Trazado 876680" d="M77.155,288.619a.618.618,0,1,1,.626.61A.621.621,0,0,1,77.155,288.619Z" transform="translate(16.752 -160.756)" fill="#d2beb7"/>
        <path id="Trazado_876681" data-name="Trazado 876681" d="M61.606,286.685a.618.618,0,1,1-.608.626A.623.623,0,0,1,61.606,286.685Z" transform="translate(59.823 -161.628)" fill="#d2beb7"/>
        <path id="Trazado_876682" data-name="Trazado 876682" d="M62.326,287.736a.618.618,0,1,1-.61.626A.621.621,0,0,1,62.326,287.736Z" transform="translate(57.909 -160.928)" fill="#d2beb7"/>
        <path id="Trazado_876683" data-name="Trazado 876683" d="M62.641,286.745a.618.618,0,1,1-.61.626A.623.623,0,0,1,62.641,286.745Z" transform="translate(57.069 -161.588)" fill="#d2beb7"/>
        <path id="Trazado_876684" data-name="Trazado 876684" d="M100.714,285.5a.617.617,0,1,1-.61.625A.62.62,0,0,1,100.714,285.5Z" transform="translate(-44.422 -162.418)" fill="#d2beb7"/>
        <path id="Trazado_876685" data-name="Trazado 876685" d="M101.442,285.656a.618.618,0,1,1,.61-.626A.621.621,0,0,1,101.442,285.656Z" transform="translate(-46.322 -163.136)" fill="#d2beb7"/>
        <path id="Trazado_876686" data-name="Trazado 876686" d="M117.511,264.59a.618.618,0,1,1-.61.626A.621.621,0,0,1,117.511,264.59Z" transform="translate(-89.197 -176.336)" fill="#d2beb7"/>
        <path id="Trazado_876687" data-name="Trazado 876687" d="M118.857,265.577a.617.617,0,1,1,.61-.625A.62.62,0,0,1,118.857,265.577Z" transform="translate(-92.745 -176.501)" fill="#d2beb7"/>
        <path id="Trazado_876688" data-name="Trazado 876688" d="M118.207,266.7a.617.617,0,1,1,.608-.625A.622.622,0,0,1,118.207,266.7Z" transform="translate(-91.01 -175.751)" fill="#d2beb7"/>
        <path id="Trazado_876689" data-name="Trazado 876689" d="M115.459,289.688a.621.621,0,0,1,.57-.663.634.634,0,0,1,.665.57.623.623,0,0,1-.571.663A.631.631,0,0,1,115.459,289.688Z" transform="translate(-85.351 -160.07)" fill="#d2beb7"/>
        <path id="Trazado_876690" data-name="Trazado 876690" d="M133.148,273.783a.632.632,0,0,1,.665.57.625.625,0,0,1-.57.665.634.634,0,0,1-.665-.571A.623.623,0,0,1,133.148,273.783Z" transform="translate(-130.988 -170.217)" fill="#d2beb7"/>
        <path id="Trazado_876691" data-name="Trazado 876691" d="M134.1,274.5a.631.631,0,0,1,.663.57.624.624,0,0,1-.57.665.636.636,0,0,1-.665-.571A.622.622,0,0,1,134.1,274.5Z" transform="translate(-133.531 -169.739)" fill="#d2beb7"/>
        <path id="Trazado_876692" data-name="Trazado 876692" d="M128.688,295.342a.633.633,0,0,1-.665-.57.625.625,0,0,1,.571-.665.633.633,0,0,1,.663.571A.622.622,0,0,1,128.688,295.342Z" transform="translate(-118.846 -156.686)" fill="#d2beb7"/>
        <path id="Trazado_876693" data-name="Trazado 876693" d="M129.835,295.137a.633.633,0,0,1-.665-.57.625.625,0,0,1,.571-.665.633.633,0,0,1,.663.571A.623.623,0,0,1,129.835,295.137Z" transform="translate(-121.903 -156.823)" fill="#d2beb7"/>
        <path id="Trazado_876694" data-name="Trazado 876694" d="M129.214,294.3a.634.634,0,0,1-.665-.571.622.622,0,0,1,.571-.663.632.632,0,0,1,.663.57A.625.625,0,0,1,129.214,294.3Z" transform="translate(-120.248 -157.38)" fill="#d2beb7"/>
      </g>
    </g>
    <g id="Grupo_1188852" data-name="Grupo 1188852" transform="translate(67.032 66.642)">
      <path id="Trazado_876695" data-name="Trazado 876695" d="M92.662,228.6c-.536,2.888,2.54,3.841,4.866,3.753,1.707-.057,3.548.065,5.11-.743,1.2-.894,1.634-1.986.85-3.36-1.264-2.489-4.776-2.712-7.189-2.072C94.833,226.319,92.954,226.937,92.662,228.6Z" transform="translate(-91.924 -225.532)" fill="#605548"/>
      <path id="Trazado_876696" data-name="Trazado 876696" d="M94.051,231.456a1.08,1.08,0,0,0,.455-.238l.073-.045a27.564,27.564,0,0,0,4.213.033c.555-.055,1.263.025,1.647-.451a.677.677,0,0,0,.953.368c1.143-.994-1.654-2.747-2.547-2.905-1.972-.566-4.537-.03-5.35,2.054C93.2,230.744,93.38,231.56,94.051,231.456Z" transform="translate(-90.961 -224.112)" fill="#3f3830"/>
      <path id="Trazado_876697" data-name="Trazado 876697" d="M104.8,230.546c.74-.831-.753-1.7-1.251-2.274.675-1.323-2.389-2.159-3.333-2.41-2-.591-8.2.133-8.275,2.735a.641.641,0,0,0,.681.358c3.6-2,8.69-2.072,11.312,1.5A.616.616,0,0,0,104.8,230.546Z" transform="translate(-91.939 -225.669)" fill="#877766"/>
    </g>
    <g id="Grupo_1188856" data-name="Grupo 1188856" transform="translate(21.114 99.684)">
      <g id="Grupo_1188853" data-name="Grupo 1188853" transform="translate(0.868 0.226)">
        <path id="Trazado_876698" data-name="Trazado 876698" d="M96.767,249.913c.185-2.41,1.2-3.52,3.213-4.071a19.446,19.446,0,0,1,.187,2.125.1.1,0,0,0-.033-.02.62.62,0,0,1-.6.545H99.5l-.015.005c0-.005-.01-.005-.018-.005a.8.8,0,0,1-.132.012,2.455,2.455,0,0,1-.385-.033,5.94,5.94,0,0,1-.6-.108c.316.18.633.363.953.538.142.08.278.155.418.232.19.088.38.178.568.271l.005.005c.162.08.321.16.476.245.053.028.107.052.162.08.561.225,1.163.366,1.721.595,13.2,4.629,27.016,7.734,41.043,7.549q1.469-.018,2.947-.087a1.123,1.123,0,0,0,.13-.007.59.59,0,0,1,.027.125c.1,2.88.745,6.371-.528,9.026a78.552,78.552,0,0,1-13.657-.245c-2.082-.228-4.193-.321-6.276-.6l-.01-.005a2.089,2.089,0,0,0-.445-.062.025.025,0,0,1-.018,0c-.4-.058-.8-.125-1.2-.2a.559.559,0,0,0-.395.062,91.2,91.2,0,0,1-17.758-4.684C99.343,258.706,95.216,259.011,96.767,249.913Z" transform="translate(-96.442 -245.507)" fill="#c85e19"/>
        <path id="Trazado_876699" data-name="Trazado 876699" d="M70.05,259.453c-.083-.533-.15-1.121-.268-1.7a108.712,108.712,0,0,0,31.112-6.774c1.283-.451,2.579-.931,3.856-1.444a.109.109,0,0,0,.028.013,4.462,4.462,0,0,1,.485-.195c.217-.08.428-.17.64-.26.518-.223,1.021-.471,1.529-.715.365-.178.735-.361,1.083-.568.12-.075.24-.148.36-.218-.16.007-.323.01-.483.017-.115.007-.24.022-.361.023a.82.82,0,0,1-.343-.058.611.611,0,0,1-.308-.295c-.013.005-.028.015-.043.02-.065-.555-.1-1.109-.118-1.659,2.339.558,3.058,3.122,3.318,5.27,1.379,5.483-1.426,6.809-6.01,8.388a152.489,152.489,0,0,1-27.98,6.641c-2.259.31-4.529.586-6.8.8A17.613,17.613,0,0,0,70.05,259.453Z" transform="translate(-15.809 -245.641)" fill="#c85e19"/>
      </g>
      <g id="Grupo_1188854" data-name="Grupo 1188854">
        <path id="Trazado_876700" data-name="Trazado 876700" d="M72.52,247.965c-1.574.4-2.65-1.937-.876-2.42C73.3,245.183,74.341,247.39,72.52,247.965Z" transform="translate(20.832 -245.505)" fill="#9d4911"/>
        <path id="Trazado_876701" data-name="Trazado 876701" d="M126.233,248.667c-2.322.656-2.693-2.783-.456-3.122a1.213,1.213,0,0,1,1.229,1.762C126.958,247.876,126.836,248.444,126.233,248.667Z" transform="translate(-122.037 -245.489)" fill="#9d4911"/>
        <path id="Trazado_876702" data-name="Trazado 876702" d="M110.621,248.793c-1.771.773-3.493,1.656-5.3,2.347a117.412,117.412,0,0,1-27.7,6.994c-1.181,0-7.962,1.579-7.869.095.1-.951,1.308-.526,1.974-.658a119.514,119.514,0,0,0,30.432-6.6,53.073,53.073,0,0,0,5.459-2.177c.84-.187,2.8-1.854,3.335-.816A.63.63,0,0,1,110.621,248.793Z" transform="translate(-15.069 -244.081)" fill="#9d4911"/>
        <path id="Trazado_876703" data-name="Trazado 876703" d="M96.283,254.3c.252-.651.988-.355,1.428-.077,5,2.429,10.411,3.759,15.749,5.367a103.821,103.821,0,0,0,18.139,3.583,87.453,87.453,0,0,0,13.675.794,9.09,9.09,0,0,0,.315-2.052,14.723,14.723,0,0,0-.008-2.5c-3.783-.078-7.581-.01-11.348-.4a159.693,159.693,0,0,1-18.677-3.668c-6.386-1.616-12.986-3.133-18.6-6.714-.651-.483.137-1.467.755-.976,5.082,3.191,11.062,4.7,16.84,6.173a146.4,146.4,0,0,0,21.932,4.156c3,.065,5.992.188,8.988.185-.05-.5-.1-.993-.138-1.489a4.316,4.316,0,0,1,2.19-.806,8.679,8.679,0,0,1,.245,1.406c.1,1.069,1.044,10.667-1.229,8.806a1.888,1.888,0,0,1-.14.145c-.391.473-1.338.64-1.516-.107a7.289,7.289,0,0,1,.12-.891c-.178.01-.356.027-.535.032A124.6,124.6,0,0,1,96.734,255.12.629.629,0,0,1,96.283,254.3Z" transform="translate(-96.249 -244.163)" fill="#9d4911"/>
        <path id="Trazado_876704" data-name="Trazado 876704" d="M74.454,260.387a173.061,173.061,0,0,0,20.493-3.531c5.482-1.248,11.074-2.792,15.774-6.028.306-.3.72-.638,1.129-.275,1.239,1.389-5.455,3.938-6.585,4.591-11.327,4.138-23.4,5.364-35.225,7.179a.624.624,0,0,1-.791-.221C68.469,260.539,73.432,260.6,74.454,260.387Z" transform="translate(-15.094 -242.25)" fill="#9d4911"/>
        <path id="Trazado_876705" data-name="Trazado 876705" d="M103.266,256.03a.623.623,0,0,1-.571.663.631.631,0,0,1-.663-.57.624.624,0,0,1,.57-.665A.634.634,0,0,1,103.266,256.03Z" transform="translate(-61.097 -238.879)" fill="#9d4911"/>
        <path id="Trazado_876706" data-name="Trazado 876706" d="M104.44,256.015a.623.623,0,0,1-.571.663.631.631,0,0,1-.663-.57.621.621,0,0,1,.57-.663A.634.634,0,0,1,104.44,256.015Z" transform="translate(-64.227 -238.888)" fill="#9d4911"/>
        <path id="Trazado_876707" data-name="Trazado 876707" d="M122.379,252.266a.622.622,0,0,1-.57.663.633.633,0,0,1-.665-.57.623.623,0,0,1,.571-.663A.632.632,0,0,1,122.379,252.266Z" transform="translate(-112.046 -241.384)" fill="#9d4911"/>
        <path id="Trazado_876708" data-name="Trazado 876708" d="M121.389,252.676a.622.622,0,0,1-.571.663.631.631,0,0,1-.663-.57.624.624,0,0,1,.57-.665A.634.634,0,0,1,121.389,252.676Z" transform="translate(-109.407 -241.112)" fill="#9d4911"/>
        <path id="Trazado_876709" data-name="Trazado 876709" d="M91.217,255.406a.618.618,0,1,1-.621-.615A.625.625,0,0,1,91.217,255.406Z" transform="translate(-28.976 -239.324)" fill="#9d4911"/>
        <path id="Trazado_876710" data-name="Trazado 876710" d="M75.882,252.008a.618.618,0,1,1-.621-.613A.624.624,0,0,1,75.882,252.008Z" transform="translate(11.902 -241.584)" fill="#9d4911"/>
        <path id="Trazado_876711" data-name="Trazado 876711" d="M77.024,252.343a.618.618,0,1,1-.621-.615A.625.625,0,0,1,77.024,252.343Z" transform="translate(8.858 -241.363)" fill="#9d4911"/>
      </g>
      <g id="Grupo_1188855" data-name="Grupo 1188855" transform="translate(0.62 0.977)">
        <path id="Trazado_876712" data-name="Trazado 876712" d="M71.007,256.493c1.078-2.675.153-5.678-.785-8.28a.625.625,0,0,1,.341-.806.52.52,0,0,1,.485.038c.245-.15.573-.225.815-.363.345-.178.381-.748.8-.838,1.126-.143.783,1.476.969,2.179.012.3.1.869.113,1.4a1.417,1.417,0,0,1,.265.648,12.887,12.887,0,0,1,.09,2.693c.207.356-.018.776-.1,1.141-.167.72-.137,1.866-.9,2.207a.538.538,0,0,1-.448.2,4.671,4.671,0,0,1-1.288,1.914.573.573,0,0,1-.393.068,5.446,5.446,0,0,1-.408.4.631.631,0,0,1-.813-.825A10.6,10.6,0,0,0,71.007,256.493Z" transform="translate(21.22 -245.996)" fill="#e89f65"/>
        <path id="Trazado_876713" data-name="Trazado 876713" d="M123.89,249.514a.692.692,0,0,1,.355-.5.658.658,0,0,1,.393-1.044c-.038-.108-.085-.208-.115-.325-.255-.55-.44-1.586.453-1.554a.634.634,0,0,1,.558.643,3.826,3.826,0,0,0,.893,1.771,4.139,4.139,0,0,0,1.712.307c.368-.235.863-.107.913.591a57.864,57.864,0,0,0-.863,9.724.606.606,0,0,1-.595.55c-.7-.028-.86-.944-1.063-1.484a.557.557,0,0,1-.187.038.633.633,0,0,1-.568-.335c-.423.04-.621-.383-.836-.675-1.024-1.268-1.013-2.907-1.071-4.451C123.835,251.687,123.864,250.6,123.89,249.514Z" transform="translate(-123.854 -246.092)" fill="#e89f65"/>
      </g>
    </g>
    <g id="Grupo_1188859" data-name="Grupo 1188859" transform="translate(68.228 110.925)">
      <g id="Grupo_1188857" data-name="Grupo 1188857" transform="translate(0.226)">
        <path id="Trazado_876714" data-name="Trazado 876714" d="M92,262.666c.983-2.329,3.535-3.468,5.972-3.5a7.639,7.639,0,0,1,1.494.125c6.565,2.4,5.385,12.5-2.3,11.623C93.362,270.6,90.77,266.22,92,262.666Z" transform="translate(-91.693 -247.653)" fill="#cd9a2b"/>
        <path id="Trazado_876715" data-name="Trazado 876715" d="M96.8,259.295a5.025,5.025,0,0,1-.06.613.216.216,0,0,1,0,.038c-.037.233-.072.465-.122.7l-.005.018c-.012.122-.025.237-.038.358a.6.6,0,0,1-.065.213,4.26,4.26,0,0,1-.277.926l-.01.013h.005l-.005,0,0,.01c-.008.043-.018.092-.027.135a.054.054,0,0,0,0,.025l0,.01v.013l0,.015c-.01.028-.015.063-.028.092l-.028.058v0a.652.652,0,0,1-.1.132.294.294,0,0,1-.062.058.59.59,0,0,1-.375.142h0a.256.256,0,0,1-.058-.005.6.6,0,0,1-.135-.027l-.01,0a.571.571,0,0,1-.122-.057.118.118,0,0,1-.028-.018.431.431,0,0,1-.068-.052.4.4,0,0,1-.053-.053l-.015-.018a.377.377,0,0,1-.05-.073l-.033,0,.013-.035a.7.7,0,0,1-.007-.583.079.079,0,0,1,.008-.028.5.5,0,0,1,.028-.112c.028-.1.055-.19.078-.291.008-.023.013-.048.023-.077a.09.09,0,0,1,.008-.035l0-.015v-.013l.01-.01,0-.02v-.008l.107-.413a.237.237,0,0,0,.008-.033v0l.005-.005v-.008l0-.01v-.01l0-.02c.01-.043.023-.092.033-.135l.013-.058v0l0-.01,0-.013,0-.02c.01-.048.023-.092.032-.14l.015-.073v0a.407.407,0,0,1,0-.043c.023-.14.04-.275.057-.416l-.013.078.027-.193-.013.077c.013-.1.027-.2.035-.3.017-.54.01-1.089,0-1.631-.007-.072-.012-.15-.013-.227v-.062c-.03-.415-.055-.835-.095-1.244-.032-.3-.088-.593-.122-.891-.055-.5-.09-1-.145-1.5-.022-.178-.043-.351-.065-.53l-.017-.125a2.526,2.526,0,0,1-.042-.57.805.805,0,0,1,.018-.087.609.609,0,0,1,1-.283.572.572,0,0,1,.065.062.648.648,0,0,1,.093.158l.015.033v0l.01.018.005.03.01.018v.005c.065.2.107.408.158.616l.015.062c.035.163.077.331.112.5.047.242.085.491.127.738a10.509,10.509,0,0,1,.175,1.952c0,.646.007,1.293.007,1.939C96.809,258.807,96.807,259.053,96.8,259.295Z" transform="translate(-90.196 -252.254)" fill="#cd9a2b"/>
      </g>
      <g id="Grupo_1188858" data-name="Grupo 1188858" transform="translate(0 5.58)">
        <path id="Trazado_876716" data-name="Trazado 876716" d="M92.31,261.687a6.062,6.062,0,0,1,1.138-.21c-.483-1,1.138-1.2,1.747-1.567.428-.748,1.626-.481,2.369-.691a7.115,7.115,0,0,1,2.91-.167c.735-.123,1.812.048,1.218,1.013.027.013.053.028.082.045l.007.005c.055-.01.108-.02.165-.028a.617.617,0,0,1,.713.6c.433-.117,1.013-.12,1.116.423.1.893-1,.773-1.614.888a4.912,4.912,0,0,1-.333,6.085c-2.845,3.165-8.692.665-8-3.65a3.538,3.538,0,0,1,.52-1.642c-.381.02-.763.045-1.144.062a4.326,4.326,0,0,1-.748,0A.624.624,0,0,1,92.31,261.687Zm2.882,2.119c-1.216,3.536,3.421,6.05,5.828,3.318a3.6,3.6,0,0,0-.2-4.769.641.641,0,0,1-.145-.148c-1.522.208-3.053.361-4.587.473C95.785,263.037,95.29,263.371,95.192,263.805Z" transform="translate(-91.975 -253.388)" fill="#ab8024"/>
        <path id="Trazado_876717" data-name="Trazado 876717" d="M97.55,257.165a1.086,1.086,0,0,1-.112.325c.2.433-.223,1.014-.638,1.276a.55.55,0,0,1,.085.553c-.228.686-.536,1.416-1.336,1.572-1.734.17-1.649-1.574-.695-2.2a1.464,1.464,0,0,1-.346-.348.545.545,0,0,1-.058-.323.558.558,0,0,1-.09-.608.622.622,0,0,1,.8-.868.8.8,0,0,0,1.081-.007c.42-.235.353-.916.924-.931.843.162.756.8.358,1.358A.61.61,0,0,1,97.55,257.165Z" transform="translate(-89.689 -255.604)" fill="#ab8024"/>
      </g>
    </g>
    <g id="Grupo_1188860" data-name="Grupo 1188860">
      <path id="Trazado_876718" data-name="Trazado 876718" d="M95.871,257.48v-.01l.008-.028A.192.192,0,0,1,95.871,257.48Z" transform="translate(-22.336 -137.875)" fill="#171a1d"/>
      <path id="Trazado_876719" data-name="Trazado 876719" d="M96.4,251.584l-.03.027-.037.023C96.354,251.619,96.374,251.6,96.4,251.584Z" transform="translate(-23.621 -141.775)" fill="#171a1d"/>
      <path id="Trazado_876720" data-name="Trazado 876720" d="M84.658,277.933v.028c0,.01,0,.018,0,.033C84.653,277.976,84.658,277.951,84.658,277.933Z" transform="translate(7.571 -124.234)" fill="#171a1d"/>
      <path id="Trazado_876721" data-name="Trazado 876721" d="M106.6,278.951l-.01.062,0,.02Z" transform="translate(-50.907 -123.557)" fill="#171a1d"/>
      <path id="Trazado_876722" data-name="Trazado 876722" d="M106.084,297.429l-.01,0a.091.091,0,0,1-.028-.018C106.059,297.415,106.073,297.42,106.084,297.429Z" transform="translate(-49.489 -111.271)" fill="#171a1d"/>
      <path id="Trazado_876723" data-name="Trazado 876723" d="M106.038,297.424h0Z" transform="translate(-49.428 -111.26)" fill="#171a1d"/>
      <path id="Trazado_876724" data-name="Trazado 876724" d="M109.926,297.195h0l-.025-.01Z" transform="translate(-59.744 -111.418)" fill="#171a1d"/>
      <path id="Trazado_876725" data-name="Trazado 876725" d="M58.336,336.705a29.24,29.24,0,0,1,4.894-10.586c2.888-3.894,6.771-6.938,9.523-10.93A45.62,45.62,0,0,0,78.794,300c.173-.438.157-1.229.378-1.742-1.784-1.992-1.383-5.124-1.173-7.675.058-2.7,1.4-5.505,4.366-5.73A63.717,63.717,0,0,0,80.249,278c-3.413-9.26-1.283-19.287.918-28.573,2.3-8.968,3.641-18.121,5.608-27.161,2.182-10.552,3.483-21.574,6.714-31.838,1.374-3.781,5.284-4.792,8.207-1.994,2.832,2.65,4.4,6.326,6.016,9.784a214.714,214.714,0,0,1,8.981,22.375,43.961,43.961,0,0,1,6.746-1.089,54.816,54.816,0,0,1,13.259.8,65.914,65.914,0,0,0,2.032-6.428c1.991-6.435,3.466-13.032,5.593-19.43,1.138-4.522,3.791-12.191,9.375-7.121,2.813,2.594,4.233,6.3,5.6,9.791a131.817,131.817,0,0,1,5.127,18.957c2.307,8.105,3.753,16.374,5.912,24.506,3.738,11.958,9.529,25.6,2.125,37.353a11.255,11.255,0,0,0-2.064,6.485c4.143.56,4.484,5.493,4.894,8.855a5.445,5.445,0,0,1-2.119,4.694l0,.007a6.615,6.615,0,0,1,.415,1.379,102.94,102.94,0,0,1,2.345,15.751.638.638,0,0,1,.355.315c2.708,3.421,6.058,6.268,8.69,9.758,7.058,8.573,12.1,20.21,9.7,31.425-1.871,7.048-7.526,11.555-13.964,14.34.015.373-.093.818-.067,1.139.3,2.447,1.516,6.331-1.829,7.164a3.672,3.672,0,0,1-2.625-.3,2.512,2.512,0,0,1-1.722.765,3.545,3.545,0,0,1-.375.025,3.889,3.889,0,0,1-3.286-1.8,4.734,4.734,0,0,1-2.845,1.784c-.6.133-1.872.08-2.294-.473a4.808,4.808,0,0,1-2.5.885,2.759,2.759,0,0,1-.363.028,3.188,3.188,0,0,1-2.77-1.772,2.493,2.493,0,0,1-1.447.808,6.921,6.921,0,0,1-1.364.168c-3.26.042-4.274-2.86-4.347-5.91-2.858,1.98-11.578,2.522-13.719,2.49-6.974.145-14.238-.037-20.53-3.393-.058-.045-.135-.092-.21-.138a3.242,3.242,0,0,1-3.1,3.886l-.048,0a.548.548,0,0,1-.523-.336,2.808,2.808,0,0,1-1.889,1.161,3.315,3.315,0,0,1-.52.052,4.832,4.832,0,0,1-3.645-2.247,2.836,2.836,0,0,1-1.772,1.3H106.8c-4.086.055-7.409-2.743-9.9-6-.035.038-.068.08-.1.115a17.766,17.766,0,0,1-7.762,3.841c.028.08.055.158.075.233.931,2.2-.165,5.177-2.737,5.445a3.444,3.444,0,0,1-1.832-.5,3.511,3.511,0,0,1-2.1,1.109,3.994,3.994,0,0,1-.6.047,4.4,4.4,0,0,1-3.45-1.547A2.525,2.525,0,0,1,77,380.015a5.852,5.852,0,0,1-1.278.167c-3.831.05-6.2-4.108-7.432-7.392a.56.56,0,0,1-.07-.208C55.88,367.407,55.765,347.93,58.336,336.705Zm20.973-46.729c-1.549,9.1,2.579,8.793,9.751,11.285a91.42,91.42,0,0,0,17.788,4.684.533.533,0,0,1,.365-.06c.438.083.879.142,1.319.2a1.723,1.723,0,0,1,.217.035c2.127.292,4.281.4,6.41.63a78.511,78.511,0,0,0,13.639.228c1.269-2.653.648-6.133.546-9.013a.468.468,0,0,0-.033-.122l-.123,0q-1.477.07-2.948.087c-14.027.185-27.84-2.92-41.043-7.549-.558-.228-1.158-.371-1.721-.595-.053-.028-.107-.052-.16-.08-.157-.085-.316-.165-.476-.245l0,0c-.19-.092-.38-.183-.568-.27-.142-.077-.278-.152-.418-.232-.321-.175-.641-.358-.958-.538l0,0c.2.047.4.08.6.11a2.473,2.473,0,0,0,.386.033,1.051,1.051,0,0,0,.128-.01l0,0a.133.133,0,0,1,.043-.005h.005l-.023.005c.013,0,.033-.005.048-.005a.622.622,0,0,0,.6-.545l.015.007a20.929,20.929,0,0,0-.167-2.114C80.518,286.463,79.495,287.567,79.308,289.976Zm50.932,16.8a.479.479,0,0,0,.035.09l-.018.038.037,0a.574.574,0,0,0,.16.163.474.474,0,0,0,.063.052.621.621,0,0,0,.258.088l.022,0h.042a.6.6,0,0,0,.451-.242c.027-.033.063-.053.085-.092l0,0a.469.469,0,0,0,.055-.16v.01l0-.015,0,.005a.043.043,0,0,0,0-.018v.005l.005-.015a.054.054,0,0,1,0-.025c.008-.043.018-.092.027-.135l.01-.015,0,0a4.066,4.066,0,0,0,.285-.941.6.6,0,0,0,.065-.213c.013-.125.027-.252.043-.376.05-.233.085-.465.122-.7a.217.217,0,0,0,0-.038,5.025,5.025,0,0,0,.06-.613c.012-.242.013-.488.015-.74,0-.646-.008-1.293-.007-1.939a10.507,10.507,0,0,0-.175-1.952c-.042-.247-.078-.5-.125-.738-.037-.168-.077-.335-.113-.5h0l-.015-.063a6.982,6.982,0,0,0-.18-.676.191.191,0,0,0-.018-.048.625.625,0,0,0-.57-.385c-.012,0-.023.007-.035.007a.6.6,0,0,0-.257.078.611.611,0,0,0-.318.446,2.513,2.513,0,0,0,.042.568c.027.222.055.438.082.66.055.5.09,1,.145,1.5.033.3.09.591.123.891.038.41.063.83.093,1.244v.062a.236.236,0,0,0-.005-.058c.007.1.012.193.018.285.012.541.018,1.091,0,1.632-.008.1-.022.2-.035.3l.013-.077-.025.193.013-.078c-.018.142-.035.277-.058.416a.234.234,0,0,1-.008.058l0-.015v.005l-.013.073c-.01.048-.023.092-.033.14l0,.02-.005.013,0,.01-.013.063c-.01.048-.023.1-.032.145v-.01l0,.02v.01l-.005.008-.005.015v0a.117.117,0,0,1-.008.033c-.037.142-.068.272-.107.413v.008l0,.02-.01.015c-.013.043-.023.092-.037.135.01-.023.013-.048.023-.077-.032.125-.07.246-.1.368a.606.606,0,0,0-.028.112.079.079,0,0,0-.008.028A.891.891,0,0,0,130.24,306.771Zm1.5,1.329c-2.435.033-4.987,1.168-5.97,3.5-1.233,3.553,1.359,7.935,5.162,8.247,7.689.878,8.868-9.228,2.3-11.622A7.654,7.654,0,0,0,131.74,308.1Zm41.086-33.719c3.911-8.194,1.457-17.643-1.271-25.86-3.793-10.509-5.332-21.617-8.378-32.355-1.527-6.423-5.645-28.853-13.352-29.238a4.1,4.1,0,0,0-2.32,2.289c-1.487,3.118-2.192,6.538-3.336,9.788-2.054,7.144-3.713,14.42-6.2,21.423l.007,0q-.2.437-.365.883c-.033.078-.06.155-.093.233-1.318.042-2.748-.591-4.086-.583a48.1,48.1,0,0,0-17.445,1.068,7.315,7.315,0,0,0-.351-1,.594.594,0,0,0-.08-.128l-.008-.025.013-.005.057-.013c-.25-.553-.375-1.206-.611-1.729-2.14-6.648-5.147-12.961-7.96-19.354-1.636-3.466-5.643-14.08-10.73-11.2-3.015,2.975-3.063,7.767-4.006,11.728-2.1,9.654-3.706,19.4-5.713,29.073-1.283,6.5-2.342,13.036-4.011,19.454-1.806,7.62-3.625,15.406-2.565,23.3.785,5.6,4.118,10.744,3.928,16.524a118.239,118.239,0,0,0,44.369,7.959l0,0c.02,0,.038,0,.058,0a.488.488,0,0,0,.085-.008c.045,0,.088,0,.133-.005l.015-.028c.033-.008.065-.023.1-.033a.868.868,0,0,0,.307-.168,2.093,2.093,0,0,0,.195-.233l-.008.007,0,0,0,.005c0-.01.015-.015.02-.025s.023-.028.032-.038l-.008.012.01-.013-.007.008c.058-.068.12-.14.177-.211l0,0,0-.005-.012.02c.075-.09.145-.182.215-.273l-.02.027.022-.027-.037.048,0-.005.035-.045,0,0c.02-.025.04-.052.06-.073l.06-.048c.167-.128.348-.245.528-.356a.427.427,0,0,1-.048.025l.082-.045.023-.008h0l0,0,.028-.013.052-.015.068-.017-.053.015c.062-.013.125-.027.188-.038a1.623,1.623,0,0,1,.811.117,2.668,2.668,0,0,1,1.143,1.281,103.068,103.068,0,0,0,30.406-6.376c.64-.068,3.276-1.236,5.2-1.821a11.237,11.237,0,0,1,1.261-.57,33.359,33.359,0,0,1-.137-4.982C169.476,279.565,171.811,277.237,172.826,274.382Zm.884,16.46c-.262-2.144-.994-4.672-3.313-5.24.02.54.063,1.079.125,1.621l.033-.013a.621.621,0,0,0,.306.295.85.85,0,0,0,.345.058c.12,0,.245-.018.361-.025l-.083,0c.188,0,.378-.01.568-.018-.12.073-.24.147-.361.218-.35.207-.72.39-1.084.568-.095.047-.19.088-.285.135-.153.073-.3.147-.461.22l0,0c-.258.123-.515.25-.778.365-.212.09-.423.178-.638.258a5.119,5.119,0,0,0-.486.195c-.015-.005-.025-.02-.038-.027-1.276.513-2.565,1-3.848,1.458a108.7,108.7,0,0,1-31.112,6.756c.12.581.188,1.179.275,1.719a17.617,17.617,0,0,1-.311,7.276q3.413-.325,6.8-.786a152.489,152.489,0,0,0,27.98-6.641C172.284,297.651,175.089,296.326,173.71,290.842Zm20.078,63.991c1.336-9.614-2.567-19.454-8.335-27.044-2.767-3.873-6.253-7.083-9.36-10.682.378,5.853.425,11.74.416,17.581a138.209,138.209,0,0,1-2.753,30.975c-.473,2.242-1.054,4.434-1.427,6.688.228-.062.455-.13.681-.183,3.468-1.136,7.117-1.767,10.226-3.739C188.3,365.517,192.9,360.83,193.788,354.833ZM171.625,376.8a2.681,2.681,0,0,0,1.811,1.626c.974.258,2.384-.1,2.265-1.338.057-.43-.233-1.034-.233-1.5l.19.077c.147.07.292.145.433.225a1.651,1.651,0,0,1,.142.1,2.086,2.086,0,0,1,.175.167c.078.092.153.177.222.268s.133.215.2.32.092.182.133.273a2.728,2.728,0,0,1-.127.858,2.316,2.316,0,0,0,1.839.14c2.424-1.054.615-4.287.725-6.516a48.224,48.224,0,0,1-6.9,2.09.57.57,0,0,1-.348-.01c-.012.1-.033.193-.043.29a7.007,7.007,0,0,1-.548,2.843A.494.494,0,0,1,171.625,376.8Zm-93.429.318.013.007-.017-.01Zm-.446-.23-.01-.005.007.005Zm-7.805-3.46c.973,2.777,3.53,6.373,6.908,5.31a1.266,1.266,0,0,0,.721-.953c.008-.035.017-.07.023-.105a1.434,1.434,0,0,0-.162-.879l-.018-.038c.122.042.242.085.358.13l0,.005-.015-.005h0a.222.222,0,0,0,.037.013l0,.005h.005l-.01-.005-.013-.008c.013.008.033.013.048.023l.013,0h0c.043.022.083.045.125.067l.008,0c.062.035.123.068.182.1l.017.008.047.032.012.008-.01-.007.015.01-.022-.015-.017-.008c.163.112.318.233.463.355.048.043.1.09.147.133l0,.005.358.34a3.047,3.047,0,0,0,4.522.561,1.078,1.078,0,0,0,.393-1.066,2.719,2.719,0,0,0-.073-.471,1.507,1.507,0,0,0-.1-.307.578.578,0,0,1,.017-.093l.183.055a2,2,0,0,1,.263.113l-.068-.038c.053.028.107.057.165.09.107.08.21.161.312.252a4.669,4.669,0,0,1,.333.376c.02.03.04.053.055.077s.03.048.04.067.013.038.023.058c.022.077.042.15.062.227a2.507,2.507,0,0,1-.107.451,2.045,2.045,0,0,0,1.238.312A2.629,2.629,0,0,0,87.9,377.51a3.133,3.133,0,0,0,.21-2.054,5.136,5.136,0,0,0-.316-.991,43.908,43.908,0,0,1-4.852.68,69.722,69.722,0,0,1-7.093-.523,14.006,14.006,0,0,1-1.522-.265c-1.371-.273-2.708-.7-4.061-1.069-.155-.04-.3-.093-.448-.138C69.862,373.252,69.9,373.351,69.944,373.432Zm4.437-.313a1.993,1.993,0,0,1,.618.125,33.788,33.788,0,0,0,13.317-.13,16.912,16.912,0,0,0,7.664-3.7.6.6,0,0,1,.163-.21c-.64-.919-1.219-1.854-1.731-2.755-5.51-10.236-3.566-22.79-9.8-32.7-.015-.033-.035-.072-.05-.105-.148-.311-.311-.618-.461-.926-.1-.2-.193-.406-.288-.608.128.153.26.3.388.448.381.43.768.844,1.126,1.288s.693.908,1.031,1.368c.31.416.61.836.881,1.286.218.365.4.758.585,1.141q.3.627.581,1.266c.035.1.08.2.115.308l-.01-.023c.13.37.257.735.386,1.094,3.561,11.323,2.25,25.06,12.664,32.839a8.594,8.594,0,0,0,5.04,1.927c1.442-.411,1.572-1.812.791-2.927a6.426,6.426,0,0,0-.57-.75c.122.018.242.04.358.063l.012,0,.008,0h.018l.01.005a3.4,3.4,0,0,1,.348.117c-.018-.005-.038-.015-.057-.02.237.09.47.193.693.3.142.078.273.157.4.242l.383.608.042.073a2.822,2.822,0,0,1,.073.61l0,0c.783,1.168,1.786,2.594,3.358,2.557,1.451-.23,1.884-1.336,1.269-2.627a5.592,5.592,0,0,0-1.153-1.757c.048.005.1.012.145.018.155.028.3.06.45.1l-.038-.015.043.015.025.007a.1.1,0,0,0-.025,0,3.072,3.072,0,0,1,.393.143l.015.005.008,0,0,0a4.451,4.451,0,0,1,.4.213l.018.013-.01-.008.013.008c.108.07.22.142.321.222.113.1.22.195.323.3q.1.115.2.24a3.847,3.847,0,0,1,.223,2.279.621.621,0,0,1,.13-.033,2.718,2.718,0,0,0,1.679-.8,2.007,2.007,0,0,0,.117-2.139,43.548,43.548,0,0,1-3.68-12.7c-1.111-5.423-1.079-10.865-.979-16.334.112-.656.212-1.316.308-1.977.132-.853.3-1.706.475-2.555v0c.145-.7.262-1.388.381-2.089.052-.292.1-.581.145-.873.17,5.224-.351,10.5-.085,15.721a82.724,82.724,0,0,0,2.22,13.932,35.7,35.7,0,0,0,1.776,5.15c.015.01.033.013.048.025a16.77,16.77,0,0,0,4.141,2.165c7.7,2.927,16.46,2.35,24.551,1.574,2.264-.413,4.7-.813,6.579-2.207.005-.085.008-.172.015-.255-.023-2.569-.535-5.1-.616-7.656-.613-7.016-2.05-13.948-3.141-20.919-.01-.588-.022-1.178-.005-1.771.007-.313.022-.631.032-.951s.015-.646.025-.974a.159.159,0,0,0,0-.048c.052-.768.12-1.541.217-2.305l-.013.078c.022-.157.045-.313.07-.468.013.14.028.278.045.418,1.183,8.84,3.078,17.6,3.976,26.466.406,4.083.561,8.177.841,12.256.39,2.142,3.506,3.158,4.985,1.5a4.278,4.278,0,0,0,.21-2.449.591.591,0,0,1-.023-.313l.073.042a3.987,3.987,0,0,1,.375.275l0,0v.005l.033.028.015.01c.025.028.053.057.083.085a.135.135,0,0,0,.033.042l.007.007a4.941,4.941,0,0,1,.28.411,5.812,5.812,0,0,1,.313.709c0,.178-.018.353-.04.526a.522.522,0,0,1,.057.1,2.511,2.511,0,0,0,1.566,2.034c1.388.223,3.381-.458,3.6-2.031a15.591,15.591,0,0,0,.047-1.926c.123.1.247.2.371.308.1.092.19.187.283.286l-.01-.01c.025.028.045.058.068.087l.05.072c-.015-.02-.03-.043-.045-.062.045.082.09.158.135.243.063.14.118.278.168.423.037.125.067.245.1.365.015.085.028.17.037.255a3.146,3.146,0,0,1-.591,1.5,1.923,1.923,0,0,0,.853.192,3.807,3.807,0,0,0,3.3-3.248,42.408,42.408,0,0,1,1.189-6.936,135.693,135.693,0,0,0,3.383-33.774,175.227,175.227,0,0,0-2.1-31.6c-.331-1.441-.611-2.893-1.056-4.3-2.3,1.394-5.4,2.084-7.721,2.875a150.108,150.108,0,0,1-29.4,6.095c5.319,2.933,5.2,12.851-2.467,13.4-.195.013-.386.022-.576.023-7.649.1-10.086-9.123-5.092-12.776-.676.025-1.353.057-2.029.067a106.237,106.237,0,0,1-13.877-.785c-.486-.137-1.676-.11-2.705-.23-.591-.028-1.276-.218-1.7-.23a55.233,55.233,0,0,1-6.47-1.276,120.112,120.112,0,0,1-12.951-3.928c-2.32-.868-4.842-1.344-6.9-2.8-1.529,7.274-4.1,14.665-9.235,20.2-4.619,4.662-9.206,9.479-11.024,15.989-2.329,9.306-2.952,19.927,1.391,28.772C64.317,370.266,68.17,371.787,74.381,373.119Z" transform="translate(-57.004 -185.66)" fill="#171a1d"/>
      <path id="Trazado_876726" data-name="Trazado 876726" d="M78.057,220.1l0,0-.075-.025c-.262-.093-.523-.187-.785-.275-.1-.035-.2-.072-.306-.1.23-.861.42-1.731.653-2.592,1.6-6.608,2.952-13.286,4.447-19.922.583-1.914.265-5.578,2.705-6.088a1.959,1.959,0,0,1,1.741,1.059c1.336,3.576,2.149,7.354,3.153,11.067,1.374,5.089,2.007,10.321,3,15.486a9.66,9.66,0,0,0,.282,1.5c.073.51.172,1.021.265,1.531.053.28.1.553.142.833.05.43.108.858.162,1.281.017.145.038.29.058.435-.007.04-.027.062-.035.1.08.5.157.991.232,1.488.07.666.147,1.331.218,2l.008.007c.015.132.023.263.037.393.007.077.017.153.025.23l0,.005c.05.5.1.994.137,1.494A35.145,35.145,0,0,0,78.057,220.1Zm14.323,5.38a20.612,20.612,0,0,1-.3-2.675c-.795-4.5-1.647-9-2.387-13.517-1.144-5.505-2.552-10.969-4.239-16.337-.64-1.334-1.268-.192-1.482.665-1.348,6.533-2.787,13.121-4.269,19.635-.385,1.906-.86,3.791-1.346,5.673,2.4.295,8.144,3.423,9.045,4.018a40.29,40.29,0,0,1,5.16,3.708C92.5,226.257,92.447,225.865,92.38,225.477Z" transform="translate(11.053 -182.043)" fill="#171a1d"/>
      <path id="Trazado_876727" data-name="Trazado 876727" d="M110.69,227.318c-.436.2-.853.445-1.274.688h0c-.162.092-.323.187-.483.282.013-.147.025-.293.033-.44l0,0,0-.037c.012-.218.013-.435.015-.653,0-.057,0-.113,0-.17l.013-.012c.948-8.8,2.065-17.58,3.276-26.38.613-2.908-.148-6.913,2.207-9.071a1.618,1.618,0,0,1,2.224.665c3.553,7.752,5.384,16.3,7.889,24.456.033.611.683,2.159.748,3.21l.063-.017h0c.015.112.037.227.057.346,0,.038.015.077.022.115.042.237.1.473.148.708a.127.127,0,0,0,.01.043A59.156,59.156,0,0,0,111.15,227.1Zm7.95-26.216c-1.079-2.82-1.369-6.068-3.22-8.52l0,.01c-1.706-.1-1.617,7.284-2,8.838-1.169,8.205-2.169,16.444-3.075,24.691a62.978,62.978,0,0,1,13.762-5.922A185.809,185.809,0,0,0,118.64,201.1Z" transform="translate(-73.855 -181.909)" fill="#171a1d"/>
      <path id="Trazado_876728" data-name="Trazado 876728" d="M84.858,225.9c4.308-.879,5.064,5.958.658,6.071C82.088,231.944,81.367,226.605,84.858,225.9Z" transform="translate(7.227 -158.923)" fill="#171a1d"/>
      <path id="Trazado_876729" data-name="Trazado 876729" d="M109.61,232.925c-3.615.291-4.849-5.35-1.036-6.158C112.815,225.561,113.554,232.3,109.61,232.925Z" transform="translate(-55.93 -158.392)" fill="#171a1d"/>
      <path id="Trazado_876730" data-name="Trazado 876730" d="M119.463,251.216a8.427,8.427,0,0,0,1.086-.082c.621-.1,1.251-.2,1.862-.343.568-.133,1.141-.267,1.7-.443l.082-.027a14.017,14.017,0,0,1-3.809,1.6c-1.071.122-2.077.188-3.025.2-7.2.093-11-2.93-12.967-8.11a15.447,15.447,0,0,1-.4,2.752A12.242,12.242,0,0,1,93,255.8l-.057,0a16.938,16.938,0,0,1-9.864-2.672c.06.022.12.043.182.062l-.038-.008a22.8,22.8,0,0,0,2.279.776c.381.087.768.15,1.153.21.793.123,1.586.251,2.382.346h0a.111.111,0,0,1,.038,0c.008,0,.022,0,.033,0l0,0c.067.008.135.012.2.022h.012l.038,0h0l.007,0,.022,0-.012,0a11.41,11.41,0,0,0,1.141.037c.237,0,.473-.012.715-.02l-.078,0,.43-.015.262.015a11.022,11.022,0,0,0,10.452-6.594c1.774-4.3.463-8.918.2-13.361a.614.614,0,0,0-.027-.148c-.01-.01-.065-.222-.09-.265a.8.8,0,0,1-.022-.1c-2.472.023-5.179-.4-6.241-2.877-1.5-4.124,2.53-5.8,5.925-6.046,8.017-.953,11.147,8.662,1.754,8.873.218,1.271.35,2.578.448,3.839.4,4.511,1.971,9.746,6.471,11.713a19.768,19.768,0,0,0,4.836,1.256,13.631,13.631,0,0,0,1.534.253c.585.06,1.184.077,1.777.1C119.058,251.211,119.261,251.218,119.463,251.216Zm-11.528-22.455c-1.264-2.49-4.772-2.715-7.188-2.072-1.467.14-3.343.755-3.64,2.419-.536,2.888,2.543,3.841,4.865,3.753,1.709-.057,3.551.067,5.115-.741C108.286,231.228,108.722,230.132,107.935,228.761Z" transform="translate(-29.339 -159.399)" fill="#171a1d"/>
    </g>
  </g>
</svg>
