<svg xmlns="http://www.w3.org/2000/svg" width="73.054" height="73.053" viewBox="0 0 73.054 73.053">
  <g id="Grupo_1189483" data-name="Grupo 1189483" transform="translate(-871.113 -277.164)">
    <g id="Grupo_1188789" data-name="Grupo 1188789" transform="translate(871.113 277.164)">
      <rect id="Rectángulo_400898" data-name="Rectángulo 400898" width="60.477" height="60.477" rx="30.238" transform="translate(6.492 6.5)" fill="#26dbd2"/>
      <rect id="Rectángulo_400907" data-name="Rectángulo 400907" width="65.491" height="65.49" rx="32.745" transform="translate(3.783 3.781)" fill="none"/>
      <g id="Grupo_1098742" data-name="Grupo 1098742" transform="translate(0)">
        <g id="Rectángulo_400898-2" data-name="Rectángulo 400898" transform="translate(0)" fill="none" stroke="#fff" stroke-width="2" opacity="0.859">
          <rect width="73.054" height="73.053" rx="36.527" stroke="none"/>
          <rect x="1" y="1" width="71.054" height="71.053" rx="35.527" fill="none"/>
        </g>
        <g id="Rectángulo_400907-2" data-name="Rectángulo 400907" transform="translate(0)" fill="none" stroke="#0f1f33" stroke-linecap="round" stroke-width="2">
          <rect width="73.054" height="73.053" rx="36.527" stroke="none"/>
          <rect x="1" y="1" width="71.054" height="71.053" rx="35.527" fill="none"/>
        </g>
      </g>
      <g id="Grupo_1189496" data-name="Grupo 1189496" transform="translate(-0.545 16.742)">
        <g id="Grupo_1189496-2" data-name="Grupo 1189496" transform="translate(23.543 3.122)">
          <path id="Trazado_878577" data-name="Trazado 878577" d="M107.4,73.278H83.628a1.633,1.633,0,0,1-1.633-1.633V41.788a1.633,1.633,0,0,1,1.633-1.633H107.4a1.633,1.633,0,0,1,1.633,1.633V71.645A1.633,1.633,0,0,1,107.4,73.278Z" transform="translate(-81.995 -40.155)" fill="#c6865c"/>
        </g>
        <g id="Grupo_1189497" data-name="Grupo 1189497" transform="translate(23.543 3.122)">
          <path id="Trazado_878578" data-name="Trazado 878578" d="M107.415,40.155h-.751v29.14a1.616,1.616,0,0,1-1.616,1.616H82v.751a1.616,1.616,0,0,0,1.616,1.616h23.8a1.616,1.616,0,0,0,1.616-1.616V41.771A1.616,1.616,0,0,0,107.415,40.155Z" transform="translate(-81.995 -40.155)" fill="#b16e3d"/>
        </g>
        <g id="Grupo_1189498" data-name="Grupo 1189498" transform="translate(26.874 3.116)">
          <path id="Trazado_878579" data-name="Trazado 878579" d="M144.822,67.916h-19.6a.389.389,0,0,1-.389-.389V40.462a.389.389,0,0,1,.389-.389h19.6a.389.389,0,0,1,.389.389V67.527A.389.389,0,0,1,144.822,67.916Z" transform="translate(-124.837 -40.073)" fill="#f9f6f9"/>
        </g>
        <g id="Grupo_1189499" data-name="Grupo 1189499" transform="translate(26.874 3.116)">
          <path id="Trazado_878580" data-name="Trazado 878580" d="M144.826,40.073h-1.61V65.536a.385.385,0,0,1-.385.385H124.837v1.61a.385.385,0,0,0,.385.385h19.6a.385.385,0,0,0,.385-.385V40.458A.385.385,0,0,0,144.826,40.073Z" transform="translate(-124.837 -40.073)" fill="#dddaec"/>
        </g>
        <g id="Grupo_1189500" data-name="Grupo 1189500" transform="translate(25.475 19.256)">
          <circle id="Elipse_11568" data-name="Elipse 11568" cx="4.723" cy="4.723" r="4.723" fill="#b3e59f"/>
        </g>
        <g id="Grupo_1189501" data-name="Grupo 1189501" transform="translate(19.192 8.752)">
          <circle id="Elipse_11569" data-name="Elipse 11569" cx="4.723" cy="4.723" r="4.723" transform="translate(0)" fill="#b3e59f"/>
        </g>
        <g id="Grupo_1189502" data-name="Grupo 1189502" transform="translate(36.926 20.3)">
          <path id="Trazado_878581" data-name="Trazado 878581" d="M264.438,268.28h-9.005a1.315,1.315,0,0,1-1.315-1.315V262.4a1.315,1.315,0,0,1,1.315-1.315h9.005a1.315,1.315,0,0,1,1.315,1.315v4.566A1.315,1.315,0,0,1,264.438,268.28Z" transform="translate(-254.117 -261.083)" fill="#dddaec"/>
        </g>
        <g id="Grupo_1189503" data-name="Grupo 1189503" transform="translate(31.865 29.786)">
          <circle id="Elipse_11570" data-name="Elipse 11570" cx="4.723" cy="4.723" r="4.723" transform="translate(0)" fill="#b3e59f"/>
        </g>
        <g id="Grupo_1189504" data-name="Grupo 1189504" transform="translate(25.995 19.777)">
          <path id="Trazado_878582" data-name="Trazado 878582" d="M119.891,254.359a4.722,4.722,0,0,1-6.356,6.356,4.722,4.722,0,1,0,6.356-6.356Z" transform="translate(-113.535 -254.359)" fill="#95d6a4"/>
        </g>
        <g id="Grupo_1189505" data-name="Grupo 1189505" transform="translate(19.712 9.273)">
          <path id="Trazado_878583" data-name="Trazado 878583" d="M39.084,119.262a4.722,4.722,0,0,1-6.356,6.356,4.722,4.722,0,1,0,6.356-6.356Z" transform="translate(-32.728 -119.262)" fill="#95d6a4"/>
        </g>
        <g id="Grupo_1189506" data-name="Grupo 1189506" transform="translate(32.386 30.307)">
          <path id="Trazado_878584" data-name="Trazado 878584" d="M202.082,389.789a4.722,4.722,0,0,1-6.356,6.356,4.722,4.722,0,1,0,6.356-6.356Z" transform="translate(-195.726 -389.789)" fill="#95d6a4"/>
        </g>
        <g id="Grupo_1189507" data-name="Grupo 1189507" transform="translate(43.316 30.676)">
          <path id="Trazado_878585" data-name="Trazado 878585" d="M346.628,401.732h-9.005a1.315,1.315,0,0,1-1.315-1.315V395.85a1.315,1.315,0,0,1,1.315-1.315h9.005a1.315,1.315,0,0,1,1.315,1.315v4.566A1.315,1.315,0,0,1,346.628,401.732Z" transform="translate(-336.307 -394.535)" fill="#dddaec"/>
        </g>
        <g id="Grupo_1189508" data-name="Grupo 1189508" transform="translate(30.643 9.877)">
          <path id="Trazado_878586" data-name="Trazado 878586" d="M183.631,134.227h-9.005a1.315,1.315,0,0,1-1.315-1.315v-4.566a1.315,1.315,0,0,1,1.315-1.315h9.005a1.315,1.315,0,0,1,1.315,1.315v4.566A1.315,1.315,0,0,1,183.631,134.227Z" transform="translate(-173.31 -127.03)" fill="#dddaec"/>
        </g>
        <g id="Grupo_1189509" data-name="Grupo 1189509" transform="translate(36.926 20.3)">
          <path id="Trazado_878587" data-name="Trazado 878587" d="M264.451,261.083h0v5.258a.635.635,0,0,1-.635.635h-9.7v0a1.3,1.3,0,0,0,1.3,1.3h9.033a1.3,1.3,0,0,0,1.3-1.3v-4.594A1.3,1.3,0,0,0,264.451,261.083Z" transform="translate(-254.117 -261.083)" fill="#d0cee7"/>
        </g>
        <g id="Grupo_1189510" data-name="Grupo 1189510" transform="translate(43.316 30.676)">
          <path id="Trazado_878588" data-name="Trazado 878588" d="M346.641,394.534h0v5.258a.635.635,0,0,1-.635.635h-9.7v0a1.3,1.3,0,0,0,1.3,1.3h9.033a1.3,1.3,0,0,0,1.3-1.3v-4.594A1.3,1.3,0,0,0,346.641,394.534Z" transform="translate(-336.307 -394.534)" fill="#d0cee7"/>
        </g>
        <g id="Grupo_1189511" data-name="Grupo 1189511" transform="translate(30.643 9.877)">
          <path id="Trazado_878589" data-name="Trazado 878589" d="M183.643,127.029h0v5.258a.635.635,0,0,1-.635.635h-9.7v0a1.3,1.3,0,0,0,1.3,1.3h9.033a1.3,1.3,0,0,0,1.3-1.3v-4.594a1.3,1.3,0,0,0-1.3-1.3Z" transform="translate(-173.309 -127.029)" fill="#d0cee7"/>
        </g>
        <g id="Grupo_1189512" data-name="Grupo 1189512" transform="translate(30.741 2.411)">
          <path id="Trazado_878590" data-name="Trazado 878590" d="M186.6,31H175.2a.622.622,0,0,0-.622.622v1.512a.622.622,0,0,0,.622.622H186.6a.622.622,0,0,0,.622-.622V31.627A.622.622,0,0,0,186.6,31Z" transform="translate(-174.579 -31.005)" fill="#e28086"/>
        </g>
        <g id="Grupo_1189513" data-name="Grupo 1189513" transform="translate(30.741 2.411)">
          <path id="Trazado_878591" data-name="Trazado 878591" d="M186.6,31h-.516v1.008a.616.616,0,0,1-.616.616H174.579v.516a.616.616,0,0,0,.616.616H186.6a.616.616,0,0,0,.616-.616V31.621A.615.615,0,0,0,186.6,31Z" transform="translate(-174.579 -31.005)" fill="#dd636e"/>
        </g>
        <g id="Grupo_1189514" data-name="Grupo 1189514" transform="translate(18.615 0)">
          <path id="Trazado_878592" data-name="Trazado 878592" d="M291.354,283.7h-5.661a.577.577,0,0,0,0,1.154h5.661a.577.577,0,1,0,0-1.154Z" transform="translate(-264.395 -261.643)"/>
          <path id="Trazado_878593" data-name="Trazado 878593" d="M287.6,316.29h-1.9a.577.577,0,0,0,0,1.154h1.9a.577.577,0,0,0,0-1.154Z" transform="translate(-264.395 -291.698)"/>
          <path id="Trazado_878594" data-name="Trazado 878594" d="M53.65,30.1H51.156V14.412a.577.577,0,1,0-1.154,0V30.1H47.825V27.987a1.882,1.882,0,0,0,1.314-1.792V21.6a1.882,1.882,0,0,0-1.314-1.792V3.7h1.138A1.04,1.04,0,0,1,50,4.738v6.969a.577.577,0,0,0,1.154,0V4.738a2.2,2.2,0,0,0-2.193-2.193H43.855a1.194,1.194,0,0,0-1.09-.711h-3.28a2.518,2.518,0,0,0-4.847,0H31.357a1.194,1.194,0,0,0-1.09.711H25.159a2.2,2.2,0,0,0-2.193,2.193V8.262a5.3,5.3,0,0,0,0,10.426V34.629a2.2,2.2,0,0,0,2.193,2.193h6.664a5.3,5.3,0,0,0,1.129,1.542.577.577,0,0,0,.792-.84,4.108,4.108,0,0,1-1.3-3.016,4.14,4.14,0,1,1,3.393,4.078.577.577,0,0,0-.208,1.135,5.3,5.3,0,0,0,5.727-2.9h1.4a1.881,1.881,0,0,0,1.861,1.627H53.65a1.881,1.881,0,0,0,1.879-1.879V31.977A1.881,1.881,0,0,0,53.65,30.1Zm-5.666-3.9a.725.725,0,0,1-.725.725H38.227a.725.725,0,0,1-.725-.725V21.6a.725.725,0,0,1,.725-.725H47.26a.725.725,0,0,1,.725.725v4.594ZM37.061,1.154a1.368,1.368,0,0,1,1.178.679H35.881a1.363,1.363,0,0,1,1.18-.679ZM31.319,3.026a.039.039,0,0,1,.038-.038H42.764a.039.039,0,0,1,.038.038V4.551a.039.039,0,0,1-.038.038H31.357a.039.039,0,0,1-.038-.038Zm1.744,2.717h8v.131a1.157,1.157,0,0,1-1.127,1.174,1.1,1.1,0,0,1-.523-.124,1.962,1.962,0,0,0-1.817-.008,1.135,1.135,0,0,1-1.063,0,1.962,1.962,0,0,0-1.817.008,1.126,1.126,0,0,1-.523.124,1.157,1.157,0,0,1-1.126-1.174ZM19.769,13.475a4.145,4.145,0,1,1,4.145,4.145A4.15,4.15,0,0,1,19.769,13.475Zm6.283,10.5A4.145,4.145,0,1,1,30.2,28.125a4.15,4.15,0,0,1-4.145-4.145Zm-.893,11.689a1.04,1.04,0,0,1-1.039-1.039V18.77a5.261,5.261,0,0,0,2.177-.563V20.4a5.288,5.288,0,0,0,0,7.166v3.011a.963.963,0,0,0,.962.962H32.2a5.263,5.263,0,0,0-.784,4.133H25.159Zm8.111-5.287H27.451V28.51a5.3,5.3,0,1,0,0-9.062v-2.03A5.3,5.3,0,0,0,24.12,8.181V4.738A1.04,1.04,0,0,1,25.159,3.7H26.3V6.686a.577.577,0,0,0,1.154,0V3.7h2.713v.852a1.194,1.194,0,0,0,1.193,1.193h.551v.131A2.314,2.314,0,0,0,34.181,8.2a2.286,2.286,0,0,0,1.058-.251.809.809,0,0,1,.747-.016,2.289,2.289,0,0,0,2.148,0,.809.809,0,0,1,.748.016A2.289,2.289,0,0,0,39.94,8.2a2.314,2.314,0,0,0,2.273-2.328V5.743h.551a1.194,1.194,0,0,0,1.193-1.193V3.7H46.67V19.722H38.227A1.881,1.881,0,0,0,36.349,21.6v4.594a1.881,1.881,0,0,0,1.879,1.879H46.67V30.1H44.618a1.868,1.868,0,0,0-.99.283H39.907a5.285,5.285,0,0,0-6.637,0Zm7.7,1.154h1.819a1.877,1.877,0,0,0-.053.442v3.691h-.98a5.282,5.282,0,0,0-.786-4.133Zm13.4,5.035a.725.725,0,0,1-.725.725H44.618a.725.725,0,0,1-.725-.725V31.977a.725.725,0,0,1,.725-.725H53.65a.725.725,0,0,1,.725.725v4.594Z" transform="translate(-18.615 0)"/>
          <path id="Trazado_878595" data-name="Trazado 878595" d="M373.545,417.153h-5.661a.577.577,0,1,0,0,1.154h5.661a.577.577,0,1,0,0-1.154Z" transform="translate(-340.196 -384.719)"/>
          <path id="Trazado_878596" data-name="Trazado 878596" d="M372.242,449.741h-4.358a.577.577,0,0,0,0,1.154h4.358a.577.577,0,0,0,0-1.154Z" transform="translate(-340.196 -414.773)"/>
          <path id="Trazado_878597" data-name="Trazado 878597" d="M178.677,126.079v-4.594a1.881,1.881,0,0,0-1.879-1.879h-9.033a1.881,1.881,0,0,0-1.879,1.879v4.594a1.881,1.881,0,0,0,1.879,1.879H176.8A1.881,1.881,0,0,0,178.677,126.079Zm-11.636,0v-4.594a.725.725,0,0,1,.725-.725H176.8a.725.725,0,0,1,.725.725v4.594a.725.725,0,0,1-.725.725h-9.033A.725.725,0,0,1,167.041,126.079Z" transform="translate(-154.436 -110.307)"/>
          <path id="Trazado_878598" data-name="Trazado 878598" d="M210.547,149.648h-5.661a.577.577,0,0,0,0,1.154h5.661a.577.577,0,0,0,0-1.154Z" transform="translate(-189.871 -138.013)"/>
          <path id="Trazado_878599" data-name="Trazado 878599" d="M210.547,182.236h-5.661a.577.577,0,0,0,0,1.154h5.661a.577.577,0,0,0,0-1.154Z" transform="translate(-189.871 -168.067)"/>
          <path id="Trazado_878600" data-name="Trazado 878600" d="M147.146,276.041a.577.577,0,0,0-.584-.57c-.422.005-.868.009-1.252.01.25-.335.585-.8,1.026-1.426a3.545,3.545,0,0,0,.578-1.2.545.545,0,0,0,.01-.057l.023-.178a.575.575,0,0,0,0-.073,1.753,1.753,0,0,0-3.473-.339.577.577,0,1,0,1.133.222.6.6,0,0,1,1.186.086l-.013.1a2.54,2.54,0,0,1-.393.772c-.727,1.039-1.161,1.608-1.394,1.913-.291.381-.437.572-.339.888a.6.6,0,0,0,.388.394,3.777,3.777,0,0,0,1.047.048c.352,0,.83,0,1.485-.012a.577.577,0,0,0,.57-.584Z" transform="translate(-133.759 -249.741)"/>
          <path id="Trazado_878601" data-name="Trazado 878601" d="M68.617,144.474v-4.6a.577.577,0,0,0-.577-.577h-.982a.577.577,0,1,0,0,1.154h.405v4.019a.577.577,0,0,0,1.154,0Z" transform="translate(-62.758 -128.47)"/>
          <path id="Trazado_878602" data-name="Trazado 878602" d="M228.523,412.959a3.084,3.084,0,1,0-1.72-4.444.577.577,0,0,0,1.133.223.6.6,0,1,1,.588.716.577.577,0,1,0,0,1.154.6.6,0,1,1-.593.683.61.61,0,0,1-.006-.084.577.577,0,1,0-1.154,0,1.752,1.752,0,0,0,1.753,1.753Z" transform="translate(-210.586 -375.448)"/>
        </g>
      </g>
    </g>
  </g>
</svg>
