<svg xmlns="http://www.w3.org/2000/svg" width="91.578" height="91.576" viewBox="0 0 91.578 91.576">
  <g id="Grupo_1189517" data-name="Grupo 1189517" transform="translate(-415 -8948)">
    <g id="Grupo_1189025" data-name="Grupo 1189025" transform="translate(415 8948)">
      <g id="Grupo_1188789" data-name="Grupo 1188789" transform="translate(0)">
        <rect id="Rectángulo_400898" data-name="Rectángulo 400898" width="75.812" height="75.811" rx="37.905" transform="translate(7.884 7.882)" fill="#ffd907"/>
        <rect id="Rectángulo_400907" data-name="Rectángulo 400907" width="82.096" height="82.095" rx="41.048" transform="translate(4.742 4.74)" fill="none"/>
        <g id="Grupo_1098742" data-name="Grupo 1098742" transform="translate(0)">
          <g id="Rectángulo_400898-2" data-name="Rectángulo 400898" fill="none" stroke="#fff" stroke-width="2" opacity="0.859">
            <rect width="91.578" height="91.576" rx="45.788" stroke="none"/>
            <rect x="1" y="1" width="89.578" height="89.576" rx="44.788" fill="none"/>
          </g>
          <g id="Rectángulo_400907-2" data-name="Rectángulo 400907" transform="translate(0)" fill="none" stroke="#0f1f33" stroke-linecap="round" stroke-width="2">
            <rect width="91.578" height="91.576" rx="45.788" stroke="none"/>
            <rect x="1" y="1" width="89.578" height="89.576" rx="44.788" fill="none"/>
          </g>
        </g>
      </g>
    </g>
    <g id="Grupo_1189516" data-name="Grupo 1189516" transform="translate(430.635 8963)">
      <path id="Trazado_878621" data-name="Trazado 878621" d="M68.952,39.425A29.429,29.429,0,1,1,39.523,10,29.429,29.429,0,0,1,68.952,39.425Zm0,0" transform="translate(-8.886 -8.8)" fill="#c9f3ff"/>
      <g id="Grupo_1189515" data-name="Grupo 1189515" transform="translate(6.024 5.304)">
        <path id="Trazado_878622" data-name="Trazado 878622" d="M327.51,196.446A12.872,12.872,0,0,1,314.653,209.3a4.243,4.243,0,0,1,0-8.486,4.377,4.377,0,0,0,4.372-4.372,4.243,4.243,0,0,1,8.486,0Zm0,0" transform="translate(-279.294 -174.509)" fill="#36d28f"/>
        <path id="Trazado_878623" data-name="Trazado 878623" d="M218.484,183.268a3.19,3.19,0,0,1-4.511,0,24.806,24.806,0,0,1,0-35.1,3.19,3.19,0,0,1,4.511,4.511,18.46,18.46,0,0,0,0,26.077A3.189,3.189,0,0,1,218.484,183.268Zm0,0" transform="translate(-187.992 -134.922)" fill="#36d28f"/>
        <path id="Trazado_878624" data-name="Trazado 878624" d="M132.119,49.538a3.036,3.036,0,0,1-1.485.817c-7.864,1.771-11.778,9.729-11.817,9.809a3.052,3.052,0,1,1-5.5-2.649c.21-.436,5.265-10.7,15.975-13.116a3.052,3.052,0,0,1,2.827,5.138Zm0,0" transform="translate(-105.516 -44.325)" fill="#36d28f"/>
        <path id="Trazado_878625" data-name="Trazado 878625" d="M64.32,241.888a9.254,9.254,0,0,1-13.073,0,3.05,3.05,0,1,1,4.314-4.314,3.146,3.146,0,0,0,4.445,0,3.051,3.051,0,0,1,4.315,4.314Zm0,0" transform="translate(-50.353 -213.665)" fill="#36d28f"/>
      </g>
      <path id="Trazado_878626" data-name="Trazado 878626" d="M204.324,138.539a26,26,0,0,0,0,36.79,4.386,4.386,0,0,0,6.2-6.2,17.264,17.264,0,0,1,0-24.385,4.386,4.386,0,0,0-6.2-6.2Zm4.511,4.511a19.54,19.54,0,0,0-4.6,7.251,1.191,1.191,0,0,0-.252-.375,1.2,1.2,0,1,0-.21,1.857,19.9,19.9,0,0,0,.209,11.022l-.009-.011a1.2,1.2,0,1,0,0,1.691,1.194,1.194,0,0,0,.341-.707,19.534,19.534,0,0,0,4.524,7.04,1.993,1.993,0,0,1-2.819,2.819A23.462,23.462,0,0,1,199.1,157.56a1.178,1.178,0,0,0,.254.376,1.2,1.2,0,1,0,0-1.691,1.18,1.18,0,0,0-.258.387,23.465,23.465,0,0,1,6.92-16.4,1.993,1.993,0,0,1,2.819,2.819Zm0,0" transform="translate(-173.164 -120.833)"/>
      <path id="Trazado_878627" data-name="Trazado 878627" d="M120.234,34.432c-11.268,2.538-16.57,13.306-16.79,13.763a4.248,4.248,0,0,0,7.653,3.691c.037-.075,3.765-7.534,11-9.165a4.24,4.24,0,0,0,2.069-1.138h0a4.249,4.249,0,0,0-3.936-7.151Zm2.244,5.459a1.85,1.85,0,0,1-.9.5,16.922,16.922,0,0,0-7.154,3.655,1.167,1.167,0,0,0,.027-.245,1.2,1.2,0,1,0-1.2,1.2,1.142,1.142,0,0,0,.12-.006,23.225,23.225,0,0,0-4.428,5.857,1.856,1.856,0,1,1-3.344-1.611,19.444,19.444,0,0,1,1.022-1.8A1.2,1.2,0,1,0,107.81,46.1a1.186,1.186,0,0,0-.322.046,24.1,24.1,0,0,1,10.354-8.475,1.184,1.184,0,0,0-.076.413,1.2,1.2,0,1,0,2.042-.846,1.164,1.164,0,0,0-.218-.171c.382-.112.772-.215,1.171-.3a1.856,1.856,0,0,1,1.718,3.125Zm0,0" transform="translate(-90.697 -30.22)"/>
      <path id="Trazado_878628" data-name="Trazado 878628" d="M41.613,227.94a4.252,4.252,0,0,0,0,6.006,10.451,10.451,0,0,0,14.765,0,4.247,4.247,0,0,0-6.006-6.006,1.95,1.95,0,0,1-2.753,0A4.251,4.251,0,0,0,41.613,227.94Zm10.451,1.692a1.854,1.854,0,0,1,2.623,2.622,8.058,8.058,0,0,1-11.381,0,1.854,1.854,0,0,1,2.623-2.623,4.342,4.342,0,0,0,6.136,0Zm0,0" transform="translate(-35.541 -199.573)"/>
      <path id="Trazado_878629" data-name="Trazado 878629" d="M73.331,73.963a1.192,1.192,0,0,0,.847-.351l.063-.063a1.2,1.2,0,0,0-1.692-1.692l-.065.065a1.2,1.2,0,0,0,.847,2.041Zm0,0" transform="translate(-63.504 -62.951)"/>
      <path id="Trazado_878630" data-name="Trazado 878630" d="M52.292,8.97A30.633,30.633,0,0,0,12.666,5.821a1.2,1.2,0,1,0,1.406,1.936,28.231,28.231,0,1,1-6.7,6.868A1.2,1.2,0,0,0,5.4,13.267a30.628,30.628,0,1,0,46.893-4.3Zm0,0" transform="translate(0)"/>
      <path id="Trazado_878631" data-name="Trazado 878631" d="M139.118,258.514a1.2,1.2,0,1,0-.846-.351A1.2,1.2,0,0,0,139.118,258.514Zm0,0" transform="translate(-121.42 -225.475)"/>
      <path id="Trazado_878632" data-name="Trazado 878632" d="M70.6,257.612a1.2,1.2,0,1,0,.847-.351A1.2,1.2,0,0,0,70.6,257.612Zm0,0" transform="translate(-61.848 -226.48)"/>
      <path id="Trazado_878633" data-name="Trazado 878633" d="M256.812,402.537a1.2,1.2,0,1,0-.846-.351A1.207,1.207,0,0,0,256.812,402.537Zm0,0" transform="translate(-225.032 -352.266)"/>
      <path id="Trazado_878634" data-name="Trazado 878634" d="M149.232,335.052a1.2,1.2,0,1,0-.351.846A1.2,1.2,0,0,0,149.232,335.052Zm0,0" transform="translate(-129.27 -293.909)"/>
      <path id="Trazado_878635" data-name="Trazado 878635" d="M69.584,325.171a1.2,1.2,0,1,0,.846-.351A1.2,1.2,0,0,0,69.584,325.171Zm0,0" transform="translate(-60.951 -285.955)"/>
      <path id="Trazado_878636" data-name="Trazado 878636" d="M157.434,414.213a1.194,1.194,0,1,0-.847-.351A1.207,1.207,0,0,0,157.434,414.213Zm0,0" transform="translate(-137.544 -362.545)"/>
      <path id="Trazado_878637" data-name="Trazado 878637" d="M350.626,77.855a1.2,1.2,0,1,0,.846.351A1.2,1.2,0,0,0,350.626,77.855Zm0,0" transform="translate(-307.62 -68.54)"/>
      <path id="Trazado_878638" data-name="Trazado 878638" d="M358.16,152.01a1.2,1.2,0,1,0,.351-.847A1.2,1.2,0,0,0,358.16,152.01Zm0,0" transform="translate(-315.306 -132.767)"/>
      <path id="Trazado_878639" data-name="Trazado 878639" d="M346.382,423.448a1.2,1.2,0,1,0,.846-.351A1.206,1.206,0,0,0,346.382,423.448Zm0,0" transform="translate(-304.628 -372.473)"/>
      <path id="Trazado_878640" data-name="Trazado 878640" d="M418.2,343.155a1.2,1.2,0,1,0,.846-.351A1.207,1.207,0,0,0,418.2,343.155Zm0,0" transform="translate(-367.852 -301.787)"/>
      <path id="Trazado_878641" data-name="Trazado 878641" d="M337.484,286.271a1.2,1.2,0,1,0,.351-.846A1.2,1.2,0,0,0,337.484,286.271Zm0,0" transform="translate(-297.104 -250.964)"/>
      <path id="Trazado_878642" data-name="Trazado 878642" d="M390.43,273.42a1.2,1.2,0,1,0-.846-.35A1.2,1.2,0,0,0,390.43,273.42Zm0,0" transform="translate(-342.662 -238.598)"/>
      <path id="Trazado_878643" data-name="Trazado 878643" d="M409.856,221.951a1.194,1.194,0,1,0-.847-.351A1.208,1.208,0,0,0,409.856,221.951Zm0,0" transform="translate(-359.763 -193.288)"/>
      <path id="Trazado_878644" data-name="Trazado 878644" d="M257.645,177.586a1.2,1.2,0,1,0,.846.351A1.207,1.207,0,0,0,257.645,177.586Zm0,0" transform="translate(-225.765 -156.337)"/>
      <path id="Trazado_878645" data-name="Trazado 878645" d="M300.41,196.256a5.445,5.445,0,0,0,5.439,5.439A14.069,14.069,0,0,0,319.9,187.642a5.439,5.439,0,0,0-10.879,0,3.178,3.178,0,0,1-3.175,3.175A5.446,5.446,0,0,0,300.41,196.256Zm11.007-8.614a3.047,3.047,0,0,1,6.093,0A11.674,11.674,0,0,1,305.849,199.3a3.046,3.046,0,1,1,0-6.093A5.574,5.574,0,0,0,311.417,187.642Zm0,0" transform="translate(-264.466 -160.402)"/>
    </g>
  </g>
</svg>
