<svg xmlns="http://www.w3.org/2000/svg" width="84.208" height="84.207" viewBox="0 0 84.208 84.207">
  <g id="Grupo_1188943" data-name="Grupo 1188943" transform="translate(-872.726 -278.777)">
    <g id="Grupo_1188789" data-name="Grupo 1188789" transform="translate(583.726 -5835.222)">
      <rect id="Rectángulo_400898" data-name="Rectángulo 400898" width="75.49" height="75.489" rx="37.744" transform="translate(293.36 6118.358)" fill="#ffd907"/>
      <rect id="Rectángulo_400907" data-name="Rectángulo 400907" width="75.49" height="75.489" rx="37.744" transform="translate(293.36 6118.358)" fill="none"/>
      <g id="Grupo_1098742" data-name="Grupo 1098742" transform="translate(289 6114)">
        <g id="Rectángulo_400898-2" data-name="Rectángulo 400898" transform="translate(0)" fill="none" stroke="#fff" stroke-width="1" opacity="0.859">
          <rect width="84.208" height="84.207" rx="42.104" stroke="none"/>
          <rect x="0.5" y="0.5" width="83.208" height="83.207" rx="41.604" fill="none"/>
        </g>
        <g id="Rectángulo_400907-2" data-name="Rectángulo 400907" transform="translate(0)" fill="none" stroke="#0f1f33" stroke-linecap="round" stroke-width="1">
          <rect width="84.208" height="84.207" rx="42.104" stroke="none"/>
          <rect x="0.5" y="0.5" width="83.208" height="83.207" rx="41.604" fill="none"/>
        </g>
      </g>
      <g id="Grupo_1189133" data-name="Grupo 1189133" transform="translate(276.08 6129.38)">
        <path id="Trazado_877793" data-name="Trazado 877793" d="M100.745,49.927a8.05,8.05,0,0,1-4.014-5.935,1.419,1.419,0,0,0-2.8,0,8.051,8.051,0,0,1-4.014,5.935c-4.027,2.014-4.027,6.8-.5,8.307,3.439,1.474,5.915-2.454,5.915-2.454s2.476,3.928,5.915,2.454C104.773,56.724,104.773,51.941,100.745,49.927Z" transform="translate(-38.867 -33.878)" fill="#f4dbce"/>
        <path id="Trazado_877794" data-name="Trazado 877794" d="M121.023,77.756a2.336,2.336,0,0,1-4.671,0c0-1.138,1.2-.679,2.336-.679S121.023,76.618,121.023,77.756Z" transform="translate(-62.221 -60.913)" fill="#7d3d1a"/>
        <path id="Trazado_877795" data-name="Trazado 877795" d="M97.737,57.1a5.967,5.967,0,0,1-4.382-2.41c-1.169,1.449-3.469,3.179-6.121,2.042a4.594,4.594,0,0,1-2.9-4.141,5.659,5.659,0,0,1,3.373-5.112,7.553,7.553,0,0,0,3.733-5.561,1.941,1.941,0,0,1,3.824,0A7.553,7.553,0,0,0,99,47.482a5.659,5.659,0,0,1,3.373,5.112,4.594,4.594,0,0,1-2.9,4.141,4.383,4.383,0,0,1-1.739.368ZM93.355,53.28a.522.522,0,0,1,.442.244,7.182,7.182,0,0,0,1.564,1.66,3.534,3.534,0,0,0,3.7.593,3.574,3.574,0,0,0,2.265-3.213,4.632,4.632,0,0,0-2.8-4.147,8.567,8.567,0,0,1-4.294-6.309.9.9,0,0,0-1.769,0,8.567,8.567,0,0,1-4.294,6.309,4.632,4.632,0,0,0-2.8,4.148,3.574,3.574,0,0,0,2.265,3.213c3,1.284,5.246-2.217,5.268-2.253A.521.521,0,0,1,93.355,53.28Z" transform="translate(-36.888 -31.9)"/>
        <path id="Trazado_877796" data-name="Trazado 877796" d="M116.709,78.624a3.047,3.047,0,0,1-2.858-2.848,1.251,1.251,0,0,1,.373-.97,2.188,2.188,0,0,1,1.741-.278c.247.023.5.047.744.047s.5-.024.744-.047a2.187,2.187,0,0,1,1.741.278,1.251,1.251,0,0,1,.373.97A3.046,3.046,0,0,1,116.709,78.624Zm-1.474-3.1a.566.566,0,0,0-.308.05.375.375,0,0,0-.032.2,1.814,1.814,0,0,0,3.627,0,.372.372,0,0,0-.032-.2,2.433,2.433,0,0,0-.941-.01c-.27.025-.55.051-.84.051s-.57-.026-.84-.051C115.7,75.552,115.439,75.528,115.235,75.528Z" transform="translate(-60.242 -58.933)"/>
        <path id="Trazado_877797" data-name="Trazado 877797" d="M125.343,94.782a.522.522,0,0,1-.522-.522V91.8a.522.522,0,1,1,1.044,0V94.26A.522.522,0,0,1,125.343,94.782Z" transform="translate(-68.922 -72.222)"/>
        <g id="Grupo_1189133-2" data-name="Grupo 1189133" transform="translate(39.443 0.521)">
          <path id="Trazado_877798" data-name="Trazado 877798" d="M161.729,5.139c-.335-.009-.632,0-.9.01a1.044,1.044,0,0,0-.543,1.895,4.088,4.088,0,0,1,1.7,3.511c.069,3.622,1.81,13.7,4.388,12.88,1.993-.632-1.826-3.841,2.489-8.111S165.369,5.233,161.729,5.139Z" transform="translate(-136.076 -4.585)" fill="#eaa250"/>
          <path id="Trazado_877799" data-name="Trazado 877799" d="M54.412,5.139c.335-.009.632,0,.9.01a1.044,1.044,0,0,1,.543,1.895,4.088,4.088,0,0,0-1.7,3.511c-.069,3.622-1.81,13.7-4.388,12.88-1.993-.632,1.825-3.841-2.489-8.111S50.772,5.233,54.412,5.139Z" transform="translate(-46.004 -4.585)" fill="#eaa250"/>
          <path id="Trazado_877800" data-name="Trazado 877800" d="M88.472,8.472a4.088,4.088,0,0,0-1.7-3.511,1.021,1.021,0,0,1-.354-1.269A8.063,8.063,0,0,0,81.84,2.512q-2.263.109-4.527,0a8.062,8.062,0,0,0-4.562,1.175A1.022,1.022,0,0,1,72.4,4.961a4.088,4.088,0,0,0-1.7,3.511c-.063,3.326-1.537,12.095-3.774,12.871.429,2.251,2.939,3.679,5.857,4.5-2.605-1.872-2.268-5.982,1.388-7.81A8.05,8.05,0,0,0,78.178,12.1a1.419,1.419,0,0,1,2.8,0,8.051,8.051,0,0,0,4.014,5.935c3.656,1.828,3.993,5.938,1.388,7.81,2.921-.82,5.432-2.249,5.858-4.5-2.23-.8-3.7-9.546-3.762-12.867Z" transform="translate(-62.553 -2.503)" fill="#eaa250"/>
        </g>
        <path id="Trazado_877801" data-name="Trazado 877801" d="M164.108,22.024a1.616,1.616,0,0,1-.955-.329c-1.022-.733-1.921-2.76-2.671-6.022a39.5,39.5,0,0,1-.988-7.088,3.6,3.6,0,0,0-1.479-3.091,1.566,1.566,0,0,1,.811-2.846c.285-.016.6-.019.937-.01,2.724.07,7.3,2.988,8.561,6.168a4.281,4.281,0,0,1-1.064,4.909,5.684,5.684,0,0,0-1.837,5.81c.166.957.355,2.042-.861,2.427a1.5,1.5,0,0,1-.454.071Zm-4.7-18.346c-.186,0-.362,0-.526.013a.51.51,0,0,0-.473.384.5.5,0,0,0,.2.56,4.6,4.6,0,0,1,1.931,3.931c.066,3.46,1.473,11.025,3.224,12.281a.506.506,0,0,0,.485.111c.281-.089.339-.152.148-1.253a6.732,6.732,0,0,1,2.131-6.731,3.262,3.262,0,0,0,.828-3.783c-1.174-2.963-5.449-5.453-7.617-5.509q-.168,0-.328,0Z" transform="translate(-94.654 -2.085)"/>
        <path id="Trazado_877802" data-name="Trazado 877802" d="M48.066,22.025a1.493,1.493,0,0,1-.454-.071c-1.216-.385-1.027-1.47-.861-2.427a5.684,5.684,0,0,0-1.837-5.81,4.281,4.281,0,0,1-1.064-4.909c1.26-3.18,5.837-6.1,8.561-6.168.336-.009.651-.005.937.01a1.566,1.566,0,0,1,.811,2.846,3.6,3.6,0,0,0-1.479,3.091,39.5,39.5,0,0,1-.988,7.088c-.75,3.262-1.649,5.288-2.671,6.022a1.619,1.619,0,0,1-.955.329Zm4.7-18.346q-.159,0-.327,0C50.271,3.738,46,6.229,44.821,9.192a3.262,3.262,0,0,0,.828,3.783,6.733,6.733,0,0,1,2.131,6.731c-.191,1.1-.133,1.164.148,1.253a.5.5,0,0,0,.485-.111c.776-.556,1.6-2.527,2.262-5.407a38.342,38.342,0,0,0,.962-6.874,4.6,4.6,0,0,1,1.931-3.931.5.5,0,0,0,.2-.56.51.51,0,0,0-.473-.384c-.164-.009-.34-.014-.526-.014Zm-.341-.517h0Z" transform="translate(-4.575 -2.086)"/>
        <path id="Trazado_877803" data-name="Trazado 877803" d="M84.4,24.381a.522.522,0,0,1-.3-.946,3.492,3.492,0,0,0,1.469-3.18,4.736,4.736,0,0,0-2.786-3.739,8.568,8.568,0,0,1-4.294-6.309.9.9,0,0,0-1.769,0,8.567,8.567,0,0,1-4.294,6.309,4.736,4.736,0,0,0-2.786,3.739,3.492,3.492,0,0,0,1.469,3.18.522.522,0,0,1-.446.926c-3.66-1.027-5.814-2.723-6.229-4.9a.522.522,0,0,1,.342-.591c.289-.1,1.312-.765,2.366-5.109A38.992,38.992,0,0,0,68.194,6.48a4.6,4.6,0,0,1,1.931-3.931.5.5,0,0,0,.17-.635.522.522,0,0,1,.211-.658A8.544,8.544,0,0,1,75.36.008c1.486.071,2.992.071,4.477,0A8.551,8.551,0,0,1,84.7,1.262a.522.522,0,0,1,.211.655.5.5,0,0,0,.171.632,4.6,4.6,0,0,1,1.931,3.931c.072,3.8,1.664,11.753,3.417,12.385a.522.522,0,0,1,.336.588c-.413,2.183-2.567,3.88-6.23,4.908a.5.5,0,0,1-.142.02ZM65.546,19.625c.466,1.455,1.972,2.449,3.583,3.114a4.6,4.6,0,0,1-.536-2.566,5.766,5.766,0,0,1,3.36-4.59,7.553,7.553,0,0,0,3.733-5.561,1.941,1.941,0,0,1,3.824,0,7.554,7.554,0,0,0,3.733,5.561,5.766,5.766,0,0,1,3.36,4.59,4.6,4.6,0,0,1-.536,2.566c1.614-.666,3.122-1.662,3.585-3.121C87.226,17.867,86.024,9.225,85.972,6.5a3.6,3.6,0,0,0-1.479-3.091,1.534,1.534,0,0,1-.661-1.441,7.456,7.456,0,0,0-3.945-.917c-1.519.073-3.059.073-4.577,0a7.459,7.459,0,0,0-3.932.91,1.533,1.533,0,0,1-.661,1.448A3.6,3.6,0,0,0,69.238,6.5C69.186,9.235,67.98,17.89,65.546,19.625Z" transform="translate(-21.132 0)"/>
        <path id="Trazado_877804" data-name="Trazado 877804" d="M118.665,107.227a7.278,7.278,0,0,1-2.525-2.322,7.226,7.226,0,0,1-2.623,2.368l-.348,2.222a2.962,2.962,0,1,0,5.853,0Z" transform="translate(-59.674 -83.003)" fill="#fd605b"/>
        <path id="Trazado_877805" data-name="Trazado 877805" d="M138.932,115.64c.049.027.1.055.146.08l.356,2.269a2.939,2.939,0,0,1-.14,1.456A6.934,6.934,0,0,0,142.059,116a3.894,3.894,0,0,1-3.127-.362Z" transform="translate(-80.087 -91.497)" fill="#52565b"/>
        <path id="Trazado_877806" data-name="Trazado 877806" d="M103.98,118.358l.348-2.222.056-.029a3.853,3.853,0,0,1-2.866.286,7.009,7.009,0,0,0,2.558,3.3A2.943,2.943,0,0,1,103.98,118.358Z" transform="translate(-50.485 -91.865)" fill="#52565b"/>
        <path id="Trazado_877807" data-name="Trazado 877807" d="M85.645,112.676a7.009,7.009,0,0,1-2.558-3.3,4.227,4.227,0,0,1-.483-.171,4.648,4.648,0,0,1-.884-.5,13.477,13.477,0,0,1-3.5-1.47c.766,3.089,3.86,5.547,7.836,6.274A2.968,2.968,0,0,1,85.645,112.676Z" transform="translate(-32.053 -84.85)" fill="#039be6"/>
        <path id="Trazado_877808" data-name="Trazado 877808" d="M143.281,108.8a4.648,4.648,0,0,1-.884.5,4.288,4.288,0,0,1-.409.149,6.935,6.935,0,0,1-2.766,3.443,2.959,2.959,0,0,1-.38.727c4-.709,7.121-3.167,7.9-6.263A13.547,13.547,0,0,1,143.281,108.8Z" transform="translate(-80.015 -84.937)" fill="#039be6"/>
        <path id="Trazado_877809" data-name="Trazado 877809" d="M114.119,111.459a3.484,3.484,0,0,1-3.442-4.024l.348-2.222a.522.522,0,0,1,.29-.39,6.693,6.693,0,0,0,2.407-2.176.522.522,0,0,1,.883,0,6.8,6.8,0,0,0,2.32,2.135.522.522,0,0,1,.279.385l.356,2.269a3.484,3.484,0,0,1-3.442,4.024Zm-2.1-5.822-.307,1.96a2.44,2.44,0,1,0,4.821,0l-.316-2.013a7.6,7.6,0,0,1-2.05-1.781,7.533,7.533,0,0,1-2.148,1.834Z" transform="translate(-57.697 -81.024)"/>
        <path id="Trazado_877810" data-name="Trazado 877810" d="M137.315,117.988a.522.522,0,0,1-.491-.7,2.4,2.4,0,0,0,.116-1.2l-.318-2.027a.522.522,0,0,1,.583-.861h0a3.375,3.375,0,0,0,2.72.321.522.522,0,0,1,.643.687,7.48,7.48,0,0,1-2.98,3.7.519.519,0,0,1-.272.077Zm.441-3.431.215,1.372c.018.113.03.227.037.34a6.58,6.58,0,0,0,1.174-1.551A4.251,4.251,0,0,1,137.756,114.558Z" transform="translate(-78.108 -89.518)"/>
        <path id="Trazado_877811" data-name="Trazado 877811" d="M102.1,118.235a.521.521,0,0,1-.29-.088,7.579,7.579,0,0,1-2.754-3.543.522.522,0,0,1,.633-.691,3.339,3.339,0,0,0,2.487-.253.522.522,0,0,1,.662.763l-.319,2.037a2.415,2.415,0,0,0,.08,1.1.522.522,0,0,1-.5.677Zm-1.667-3.146a6.689,6.689,0,0,0,1.029,1.407q.01-.1.025-.2l.211-1.347A4.239,4.239,0,0,1,100.432,115.089Z" transform="translate(-48.507 -89.887)"/>
        <path id="Trazado_877812" data-name="Trazado 877812" d="M146.382,49.081a.522.522,0,0,1-.522-.52,1.94,1.94,0,0,1,1.934-1.946h.006a1.94,1.94,0,0,1,1.94,1.934.522.522,0,0,1-.52.524h0a.522.522,0,0,1-.522-.52.9.9,0,0,0-1.792.006.522.522,0,0,1-.52.524Z" transform="translate(-85.568 -36.884)"/>
        <path id="Trazado_877813" data-name="Trazado 877813" d="M94.163,49.077a.522.522,0,0,1-.522-.522.9.9,0,0,0-1.792,0,.522.522,0,1,1-1.044,0,1.94,1.94,0,0,1,3.88,0A.522.522,0,0,1,94.163,49.077Z" transform="translate(-42.008 -36.884)"/>
        <path id="Trazado_877814" data-name="Trazado 877814" d="M84.082,112.056a.512.512,0,0,1-.094-.009c-4.2-.767-7.435-3.382-8.249-6.662a.522.522,0,0,1,.785-.567,12.882,12.882,0,0,0,3.36,1.409.524.524,0,0,1,.163.079,4.139,4.139,0,0,0,.785.441,3.679,3.679,0,0,0,.424.15.523.523,0,0,1,.339.31,6.528,6.528,0,0,0,2.362,3.055.523.523,0,0,1,.208.279,2.441,2.441,0,0,0,.341.689.523.523,0,0,1-.426.825Zm-6.874-5.688a9.016,9.016,0,0,0,5.579,4.315,7.749,7.749,0,0,1-2.068-2.862c-.1-.036-.2-.074-.3-.115a5.2,5.2,0,0,1-.906-.5A16.1,16.1,0,0,1,77.207,106.368Z" transform="translate(-30.075 -82.871)"/>
        <path id="Trazado_877815" data-name="Trazado 877815" d="M136.864,112.157a.522.522,0,0,1-.424-.826,2.44,2.44,0,0,0,.313-.6.522.522,0,0,1,.219-.269,6.433,6.433,0,0,0,2.551-3.187.522.522,0,0,1,.33-.309,3.777,3.777,0,0,0,.36-.131A4.154,4.154,0,0,0,141,106.4a.52.52,0,0,1,.163-.079,12.957,12.957,0,0,0,3.327-1.387.522.522,0,0,1,.782.571c-.83,3.291-4.094,5.9-8.316,6.649A.541.541,0,0,1,136.864,112.157Zm3.54-4.274a7.726,7.726,0,0,1-2.033,2.846,8.966,8.966,0,0,0,5.43-4.253,16.206,16.206,0,0,1-2.269.822,5.22,5.22,0,0,1-.906.5C140.554,107.826,140.481,107.855,140.4,107.883Z" transform="translate(-78.037 -82.96)"/>
        <path id="Trazado_877816" data-name="Trazado 877816" d="M197.479,98.118l-.662-.425a.132.132,0,0,1-.029-.2,8.959,8.959,0,0,0,1.46-8.775.132.132,0,0,0-.166-.078l-.586.193a.133.133,0,0,1-.171-.1,5.6,5.6,0,0,0-3.984-4.476.132.132,0,0,0-.16.171c2.2,6.743-2.342,11.774-5.082,14.077q.045.41.08.831c1.832-.018,3.64.416,4.666,1.87a10.2,10.2,0,0,0,4.665-2.893.133.133,0,0,0-.033-.2Z" transform="translate(-118.989 -66.663)" fill="#eaa250"/>
        <path id="Trazado_877817" data-name="Trazado 877817" d="M190.868,99.75a.522.522,0,0,1-.426-.221c-.786-1.114-2.207-1.67-4.234-1.649H186.2a.522.522,0,0,1-.52-.479q-.034-.413-.079-.817a.522.522,0,0,1,.183-.457c2.734-2.3,7.009-7.112,4.921-13.516a.654.654,0,0,1,.795-.835,6.1,6.1,0,0,1,4.26,4.451l.18-.059a.653.653,0,0,1,.817.389,9.5,9.5,0,0,1-1.273,8.952l.3.191a.654.654,0,0,1,.156.963,10.731,10.731,0,0,1-4.9,3.058A.536.536,0,0,1,190.868,99.75Zm-4.189-2.908a5.709,5.709,0,0,1,4.369,1.768,10.236,10.236,0,0,0,3.785-2.278l-.276-.177a.655.655,0,0,1-.147-.972,8.355,8.355,0,0,0,1.493-7.9l-.221.073a.655.655,0,0,1-.846-.495,5.122,5.122,0,0,0-2.915-3.818,11.574,11.574,0,0,1-.94,8.348,18.043,18.043,0,0,1-4.311,5.358C186.673,96.778,186.676,96.81,186.679,96.842Z" transform="translate(-117.01 -64.685)"/>
        <path id="Trazado_877818" data-name="Trazado 877818" d="M115.531,176.356a4.89,4.89,0,0,1,.336-1.172,4.375,4.375,0,0,0,.412-1.811V161.446a3.856,3.856,0,0,0-2.037-3.359,4.689,4.689,0,0,0-4.022,0,3.856,3.856,0,0,0-2.037,3.359v11.927a4.375,4.375,0,0,0,.412,1.811,4.9,4.9,0,0,1,.336,1.172,1.067,1.067,0,0,1,.013.243,9.72,9.72,0,0,0,6.575,0A1.066,1.066,0,0,1,115.531,176.356Z" transform="translate(-55.758 -124.723)" fill="#f4dbce"/>
        <path id="Trazado_877819" data-name="Trazado 877819" d="M176.936,173.463l2.6-6.153c3.193-8.961-.512-10.856-4.316-10.819a26.476,26.476,0,0,1-3.309,15.488,1.487,1.487,0,0,0,.408,1.918,6.441,6.441,0,0,1,1.117,1.093,1.09,1.09,0,0,1-.649,1.716l.039.039h7.792C181.481,173.052,176.936,173.463,176.936,173.463Z" transform="translate(-106.026 -123.817)" fill="#eaa250"/>
        <path id="Trazado_877820" data-name="Trazado 877820" d="M47.494,174.989a6.449,6.449,0,0,1,1.117-1.093,1.487,1.487,0,0,0,.408-1.918,26.474,26.474,0,0,1-3.309-15.488c-3.8-.037-7.509,1.858-4.316,10.819l2.6,6.153s-4.545-.41-3.679,3.282H48.1l.039-.039A1.09,1.09,0,0,1,47.494,174.989Z" transform="translate(-1.956 -123.817)" fill="#eaa250"/>
        <path id="Trazado_877821" data-name="Trazado 877821" d="M89.187,108.282c-.86,3-3.931,5.374-7.847,6.068h0a2.957,2.957,0,0,1-4.821-.012c-3.857-.7-6.882-3.038-7.76-6-1.787,4.189-5.2,14.9.818,25.493a1.487,1.487,0,0,1-.408,1.918,6.442,6.442,0,0,0-1.117,1.093,1.107,1.107,0,0,0,.956,1.756h5.521a1.133,1.133,0,0,0,1.157-1.294,4.89,4.89,0,0,0-.336-1.172,4.375,4.375,0,0,1-.412-1.811V122.4a4.051,4.051,0,0,1,8.1,0v11.927a4.375,4.375,0,0,1-.412,1.811,4.9,4.9,0,0,0-.336,1.172,1.133,1.133,0,0,0,1.157,1.294h5.521a1.108,1.108,0,0,0,.956-1.756,6.449,6.449,0,0,0-1.117-1.093,1.487,1.487,0,0,1-.408-1.918c6.048-10.65,2.572-21.409.792-25.553Z" transform="translate(-22.513 -85.675)" fill="#eaa250"/>
        <path id="Trazado_877822" data-name="Trazado 877822" d="M178.638,175.291h-7.792a.522.522,0,0,1-.371-.154l-.039-.039a.522.522,0,0,1,.243-.874.641.641,0,0,0,.45-.4.5.5,0,0,0-.085-.488,5.87,5.87,0,0,0-1.026-1,2.01,2.01,0,0,1-.541-2.587,25.855,25.855,0,0,0,3.242-15.186.522.522,0,0,1,.515-.565c2.382-.023,4.093.674,5.09,2.072,1.366,1.917,1.273,5.095-.277,9.444l-.011.028-2.29,5.426a4.188,4.188,0,0,1,2.9,1.159,2.977,2.977,0,0,1,.5,2.767A.522.522,0,0,1,178.638,175.291Zm-6.554-1.044h6.12a1.754,1.754,0,0,0-.343-1.439,3.871,3.871,0,0,0-2.857-.8.522.522,0,0,1-.527-.723l2.592-6.14c1.424-4,1.56-6.853.405-8.474a4.489,4.489,0,0,0-3.672-1.624,26.793,26.793,0,0,1-3.417,15.214.961.961,0,0,0,.275,1.249,6.907,6.907,0,0,1,1.208,1.185,1.54,1.54,0,0,1,.248,1.468c-.01.029-.021.057-.032.086Z" transform="translate(-104.049 -121.841)"/>
        <path id="Trazado_877823" data-name="Trazado 877823" d="M46.149,175.289H38.357a.522.522,0,0,1-.508-.4,2.977,2.977,0,0,1,.5-2.767,4.186,4.186,0,0,1,2.9-1.159l-2.29-5.426-.011-.028c-1.55-4.35-1.643-7.527-.277-9.444,1-1.4,2.7-2.094,5.09-2.072a.522.522,0,0,1,.515.565,25.855,25.855,0,0,0,3.242,15.186,2.01,2.01,0,0,1-.541,2.587,5.871,5.871,0,0,0-1.026,1,.5.5,0,0,0-.085.488.641.641,0,0,0,.45.4.522.522,0,0,1,.243.874l-.039.039A.522.522,0,0,1,46.149,175.289Zm-7.358-1.044h6.12c-.011-.028-.022-.057-.032-.086a1.539,1.539,0,0,1,.248-1.468,6.9,6.9,0,0,1,1.208-1.184.961.961,0,0,0,.276-1.249,26.793,26.793,0,0,1-3.417-15.214,4.488,4.488,0,0,0-3.672,1.624c-1.155,1.621-1.019,4.472.405,8.474l2.592,6.14a.522.522,0,0,1-.528.723,3.869,3.869,0,0,0-2.856.8A1.753,1.753,0,0,0,38.791,174.245Z" transform="translate(0 -121.84)"/>
        <path id="Trazado_877824" data-name="Trazado 877824" d="M110.253,175.715a10.22,10.22,0,0,1-3.464-.6.522.522,0,0,1-.345-.522.542.542,0,0,0-.007-.125,4.325,4.325,0,0,0-.3-1.044,4.876,4.876,0,0,1-.458-2.027V159.467a4.4,4.4,0,0,1,2.305-3.815l.035-.018a5.21,5.21,0,0,1,4.458,0l.035.018a4.4,4.4,0,0,1,2.305,3.815v11.927a4.88,4.88,0,0,1-.458,2.027,4.319,4.319,0,0,0-.3,1.044.553.553,0,0,0-.007.125.522.522,0,0,1-.345.522A10.216,10.216,0,0,1,110.253,175.715Zm-2.8-1.479a9.234,9.234,0,0,0,5.591,0,5.277,5.277,0,0,1,.366-1.247,3.841,3.841,0,0,0,.365-1.595V159.467a3.352,3.352,0,0,0-1.751-2.893,4.163,4.163,0,0,0-3.549,0,3.353,3.353,0,0,0-1.751,2.893v11.927a3.841,3.841,0,0,0,.365,1.595,5.261,5.261,0,0,1,.366,1.247Z" transform="translate(-53.78 -122.744)"/>
        <path id="Trazado_877825" data-name="Trazado 877825" d="M87,137.147H81.48a1.711,1.711,0,0,1-1.314-.6,1.6,1.6,0,0,1-.358-1.3,5.351,5.351,0,0,1,.375-1.3,3.841,3.841,0,0,0,.365-1.595V120.421a3.529,3.529,0,0,0-7.051,0v11.927a3.841,3.841,0,0,0,.365,1.595,5.349,5.349,0,0,1,.375,1.3,1.6,1.6,0,0,1-.358,1.3,1.711,1.711,0,0,1-1.314.6H67.044a1.694,1.694,0,0,1-1.539-.943,1.542,1.542,0,0,1,.171-1.655,6.912,6.912,0,0,1,1.208-1.184.961.961,0,0,0,.276-1.249c-6.143-10.818-2.636-21.756-.844-25.956a.522.522,0,0,1,.98.056c.818,2.754,3.7,4.964,7.354,5.631a.523.523,0,0,1,.332.211,2.435,2.435,0,0,0,3.971.01.521.521,0,0,1,.333-.209c3.715-.658,6.634-2.895,7.436-5.7a.522.522,0,0,1,.981-.062c1.807,4.207,5.345,15.165-.817,26.017a.961.961,0,0,0,.275,1.249,6.908,6.908,0,0,1,1.208,1.185,1.542,1.542,0,0,1,.171,1.655A1.694,1.694,0,0,1,87,137.147ZM77.015,116a4.548,4.548,0,0,1,4.577,4.416v11.927a4.88,4.88,0,0,1-.458,2.027,4.321,4.321,0,0,0-.3,1.044.55.55,0,0,0,.127.453.67.67,0,0,0,.516.232H87a.657.657,0,0,0,.6-.358.507.507,0,0,0-.058-.556,5.87,5.87,0,0,0-1.026-1,2.01,2.01,0,0,1-.541-2.587c5.418-9.541,3.034-19.2,1.25-23.892a10.578,10.578,0,0,1-7.56,5.142,3.478,3.478,0,0,1-5.407-.014,10.608,10.608,0,0,1-7.462-5.08c-1.769,4.686-4.136,14.327,1.268,23.844a2.01,2.01,0,0,1-.541,2.587,5.871,5.871,0,0,0-1.026,1,.507.507,0,0,0-.058.556.656.656,0,0,0,.6.358h5.521a.67.67,0,0,0,.516-.232.549.549,0,0,0,.127-.453,4.323,4.323,0,0,0-.3-1.044,4.876,4.876,0,0,1-.458-2.027V120.421A4.545,4.545,0,0,1,77.015,116Z" transform="translate(-20.55 -83.697)"/>
      </g>
    </g>
  </g>
</svg>
