<svg xmlns="http://www.w3.org/2000/svg" width="73.054" height="73.053" viewBox="0 0 73.054 73.053">
  <g id="Grupo_1188797" data-name="Grupo 1188797" transform="translate(-871.113 -277.164)">
    <g id="Grupo_1188789" data-name="Grupo 1188789" transform="translate(871.113 277.164)">
      <rect id="Rectángulo_400898" data-name="Rectángulo 400898" width="60.477" height="60.477" rx="30.238" transform="translate(6.492 6.026)" fill="#26dbd2"/>
      <rect id="Rectángulo_400907" data-name="Rectángulo 400907" width="65.491" height="65.49" rx="32.745" transform="translate(3.783 3.781)" fill="none"/>
      <g id="Grupo_1098742" data-name="Grupo 1098742" transform="translate(0)">
        <g id="Rectángulo_400898-2" data-name="Rectángulo 400898" transform="translate(0)" fill="none" stroke="#fff" stroke-width="2" opacity="0.859">
          <rect width="73.054" height="73.053" rx="36.527" stroke="none"/>
          <rect x="1" y="1" width="71.054" height="71.053" rx="35.527" fill="none"/>
        </g>
        <g id="Rectángulo_400907-2" data-name="Rectángulo 400907" transform="translate(0)" fill="none" stroke="#0f1f33" stroke-linecap="round" stroke-width="2">
          <rect width="73.054" height="73.053" rx="36.527" stroke="none"/>
          <rect x="1" y="1" width="71.054" height="71.053" rx="35.527" fill="none"/>
        </g>
      </g>
      <g id="Grupo_1189524" data-name="Grupo 1189524" transform="translate(15.497 -25.638)">
        <g id="Grupo_1189524-2" data-name="Grupo 1189524" transform="translate(2.4 46.761)">
          <path id="Trazado_878646" data-name="Trazado 878646" d="M49.6,108.451a29.009,29.009,0,0,1-4.9-.361c-3.329-.58-5.386-1.915-6.112-3.969-.666-1.883-.34-3.844,1-5.994a31.612,31.612,0,0,1,3.9-4.676,28.528,28.528,0,0,0,3.631-4.345c.974-1.619.831-2.517.6-3.118-.118-.3-.478-1.228-2.5-1.69a16.863,16.863,0,0,0-5.472-.092,45.907,45.907,0,0,0-7.856,1.706,1.924,1.924,0,0,1-1.2-3.656,49.109,49.109,0,0,1,8.559-1.865,20.7,20.7,0,0,1,6.793.151A6.962,6.962,0,0,1,51.3,84.592a7.168,7.168,0,0,1-.886,6.5A31.119,31.119,0,0,1,46.283,96.1c-2.311,2.44-4.642,4.174-4.133,5.99.552,1.97,2.983,2.928,10.855,2.395a93.644,93.644,0,0,0,10.974-1.489,1.924,1.924,0,0,1,.779,3.767A95.885,95.885,0,0,1,53.3,108.316q-1.979.135-3.7.135Z" transform="translate(-29.364 -79.375)" fill="#efc277"/>
          <path id="Trazado_878647" data-name="Trazado 878647" d="M170.06,359.674a1.924,1.924,0,0,0-2.193-1.509,1.922,1.922,0,0,1-1.438,1.285,95.889,95.889,0,0,1-11.458,1.557q-1.979.135-3.7.135a29.007,29.007,0,0,1-4.9-.361,10.951,10.951,0,0,1-3.938-1.373c.758,2,2.8,3.3,6.075,3.869a29.007,29.007,0,0,0,4.9.361q1.719,0,3.7-.135a95.866,95.866,0,0,0,11.458-1.557,1.923,1.923,0,0,0,1.494-2.273Z" transform="translate(-133.171 -334.563)" fill="#f2aa62"/>
          <circle id="Elipse_11577" data-name="Elipse 11577" cx="1.426" cy="1.426" r="1.426" transform="translate(29.894 0.533) rotate(-10.782)" fill="#fbe4ba"/>
        </g>
        <g id="Grupo_1189525" data-name="Grupo 1189525" transform="translate(-0.005 44.665)">
          <circle id="Elipse_11578" data-name="Elipse 11578" cx="0.614" cy="0.614" r="0.614" transform="translate(6.427 14.909)"/>
          <circle id="Elipse_11579" data-name="Elipse 11579" cx="0.614" cy="0.614" r="0.614" transform="translate(4.065 27.972)"/>
          <circle id="Elipse_11580" data-name="Elipse 11580" cx="0.614" cy="0.614" r="0.614" transform="translate(30.264 14.909)"/>
          <path id="Trazado_878648" data-name="Trazado 878648" d="M392.01,70.01a2.04,2.04,0,1,0-2.04-2.04A2.043,2.043,0,0,0,392.01,70.01Zm0-2.852a.812.812,0,1,1-.812.812A.813.813,0,0,1,392.01,67.157Z" transform="translate(-358.033 -64.188)"/>
          <path id="Trazado_878649" data-name="Trazado 878649" d="M10.814,68.238a6.863,6.863,0,0,0-.124.881.614.614,0,0,0,.568.657l.046,0a.614.614,0,0,0,.612-.569,7.421,7.421,0,0,1,1.227-3.372,31.185,31.185,0,0,1,3.83-4.579,28.917,28.917,0,0,0,3.711-4.45,4.1,4.1,0,0,0,.643-3.658,3.7,3.7,0,0,0-2.941-2.066,17.448,17.448,0,0,0-5.679-.1,46.762,46.762,0,0,0-7.976,1.732,1.309,1.309,0,0,1-.815-2.489,48.462,48.462,0,0,1,8.439-1.839,21.326,21.326,0,0,1,6.049.032.614.614,0,1,0,.214-1.21c-.093-.016-.187-.031-.282-.046-.009-.206-.088-1.457-.074-1.862a.614.614,0,0,0-1.228-.041c-.016.465.058,1.633.065,1.761-.4-.031-1.306-.045-1.351-.06a12.476,12.476,0,0,1-.511-1.534.614.614,0,1,0-1.177.351c.018.059.229.892.35,1.209-.666.03-2.239.16-2.239.16-.106-.138-.751-1.8-.768-1.845a.614.614,0,0,0-1.152.428c.015.042.442,1.217.644,1.613-.687.1-1.356.223-1.993.349-.142-.259-.51-1.168-.649-1.481a.614.614,0,1,0-1.123.5c.131.294.443,1.065.527,1.244-.616.138-1.185.277-1.692.408a1.906,1.906,0,0,1-.453-1.071.614.614,0,0,0-1.223-.114A2.715,2.715,0,0,0,4.715,48.7c-.7.2-1.129.339-1.182.356a2.522,2.522,0,0,0-.807.44c-.143-.088-.772-.451-.929-.551a.614.614,0,1,0-.658,1.037c.179.114.749.443.847.5A2.532,2.532,0,0,0,1.8,51.709a6.093,6.093,0,0,1-1.355.471.614.614,0,1,0,.333,1.183,7.147,7.147,0,0,0,1.435-.49,2.544,2.544,0,0,0,1.183.956,7.154,7.154,0,0,0-.631,1.546.614.614,0,1,0,1.185.324,7.027,7.027,0,0,1,.768-1.722,2.532,2.532,0,0,0,.4-.095c.013,0,.393-.132,1.2-.355.15.511.219.94.382,1.363a.614.614,0,0,0,1.146-.442A9.645,9.645,0,0,1,7.515,53.2c.7-.174,1.647-.388,2.515-.557.032.191.15,1.231.2,1.553a.614.614,0,1,0,1.212-.2c-.048-.291-.168-1.339-.207-1.569.527-.086,1.868-.254,2-.267.008.228.064,1.167.064,1.436a.614.614,0,1,0,1.228,0c0-.307-.06-1.3-.066-1.532q.942-.05,1.756-.016c-.017.167-.057,1.038-.1,1.431a.614.614,0,0,0,.54.68.625.625,0,0,0,.071,0,.614.614,0,0,0,.609-.544c.05-.435.09-1.322.1-1.46.235.034.46.075.672.123a3.456,3.456,0,0,1,1.753.822,9.723,9.723,0,0,0-1.407,1.161.614.614,0,0,0,.884.853,7.6,7.6,0,0,1,.967-.821,3.957,3.957,0,0,1-.68,1.877,13.161,13.161,0,0,1-1.045,1.459L17.572,56.62a.614.614,0,1,0-.869.869l1.083,1.083c-.326.368-.667.737-1.012,1.105L15.66,58.562a.614.614,0,1,0-.869.869l1.14,1.14c-.421.445-.845.894-1.259,1.349-.191-.195-1.022-.963-1.278-1.23a.614.614,0,1,0-.886.851c.282.294,1.346,1.3,1.349,1.3-.46.538-.895,1.083-1.286,1.638-.141-.138-.878-.819-1.135-1.086a.614.614,0,1,0-.886.851c.282.294,1.152,1.1,1.338,1.291l0,0a10.292,10.292,0,0,0-.72,1.49c-.3.011-1.66-.393-1.771-.387a.619.619,0,1,0-.1,1.233c.145.034,1.147.324,1.512.365Z" transform="translate(0.005 -44.665)"/>
          <path id="Trazado_878650" data-name="Trazado 878650" d="M148.691,98.026a.614.614,0,0,0-.729-.473,9.326,9.326,0,0,1-1.249.183,2.554,2.554,0,0,0-.04-.263,2.522,2.522,0,0,0-.545-1.121c.1-.16.661-1.126.883-1.449a.614.614,0,0,0-1.011-.7c-.249.361-.8,1.3-.872,1.425a2.524,2.524,0,0,0-1.454-.13c-.013,0-.362.074-.964.186-.006-.5-.055-1.41-.055-1.519a.614.614,0,1,0-1.228,0c0,.1.06,1.221.072,1.734-.706.121-1.554.258-2.5.4.012-.2.035-1.288.083-1.608a.614.614,0,0,0-1.215-.184c-.061.4-.089,1.708-.114,1.965-1.013.134-2.1.261-3.22.366.063-.535.292-1.643.292-1.643a.614.614,0,0,0-1.2-.248s-.279,1.35-.335,2a15.748,15.748,0,0,1-2.2.131c.081-.279.467-1.526.555-1.838a.614.614,0,0,0-1.183-.332c-.083.3-.55,1.8-.658,2.209-.668.012-1.276.008-1.826-.01a8.991,8.991,0,0,1,.545-1.524.614.614,0,1,0-1.12-.5,9.762,9.762,0,0,0-.668,1.957,11.44,11.44,0,0,1-2.169-.364L125.6,95.8a.614.614,0,1,0-.787-.944s-1.124.938-1.5,1.247a1.9,1.9,0,0,1-.756-1.072c-.186-.664.206-1.392.9-2.217.35.179,1.408.756,1.481.791a.614.614,0,1,0,.535-1.106c-.081-.039-.953-.434-1.184-.592.273-.281.567-.573.873-.877.288-.286.583-.58.882-.884.28.193,1.054.75,1.166.83a.614.614,0,0,0,.714-1c-.11-.079-.787-.565-1.02-.729.557-.59,1.115-1.188,1.649-1.8a4.09,4.09,0,0,0,1.647.63.614.614,0,0,0,.681-.539.641.641,0,0,0-.539-.681,3.753,3.753,0,0,1-.987-.364c.382-.475.74-.958,1.067-1.451a16.305,16.305,0,0,0,1.833.42h.035a.614.614,0,0,0,.613-.58.64.64,0,0,0-.579-.648c-.328-.054-1.148-.267-1.243-.294a9.558,9.558,0,0,0,.877-2.273l1.433-.253a.614.614,0,1,0-.228-1.207c-.081.015-.773.179-1.015.214a6.814,6.814,0,0,0-.442-2.9c.155-.131,1.185-1.018,1.537-1.288a.614.614,0,0,0-.748-.974c-.379.291-1.277,1.064-1.351,1.128a6.459,6.459,0,0,0-1.305-1.515c.238-.387.494-.8.78-1.246a.614.614,0,1,0-1.037-.658c-.271.427-.516.817-.744,1.188a8.684,8.684,0,0,0-1.1-.552.614.614,0,1,0-.475,1.133,5.674,5.674,0,0,1,3.278,3.187,6.587,6.587,0,0,1-.84,5.958,30.685,30.685,0,0,1-4.054,4.9c-.456.482-.913.936-1.355,1.374-1.839,1.827-3.428,3.4-2.924,5.2.365,1.305,1.358,2.12,3.123,2.566a28.775,28.775,0,0,0,8.364.276,94.1,94.1,0,0,0,11.057-1.5,1.309,1.309,0,0,1,.53,2.564,95.139,95.139,0,0,1-11.375,1.546c-1.3.089-2.53.133-3.659.133a28.492,28.492,0,0,1-4.8-.352c-3.094-.539-4.991-1.74-5.639-3.569a.614.614,0,0,0-1.158.41c.054.154.116.3.183.45a6.118,6.118,0,0,1-1.164.48.614.614,0,1,0,.144,1.22,7.432,7.432,0,0,0,1.662-.649,5.815,5.815,0,0,0,.98.976,10.1,10.1,0,0,0-1.353,1.548.614.614,0,0,0,.5.971.6.6,0,0,0,.5-.257,8.681,8.681,0,0,1,1.437-1.558,9.7,9.7,0,0,0,1.293.569c-.245.4-.77,1.36-.77,1.36a.614.614,0,1,0,1.078.589s.624-1.144.913-1.58q.565.142,1.184.251.692.12,1.469.2a11.064,11.064,0,0,0-.169,2.171.614.614,0,0,0,.614.608h.007a.614.614,0,0,0,.608-.621,9.61,9.61,0,0,1,.2-2.054q.96.058,2.021.065s.219,1.778.243,2.184a.639.639,0,0,0,.587.641h.028a.614.614,0,0,0,.613-.587c.021-.471-.227-2.166-.227-2.166l-.009-.081c.729-.015,1.443-.044,2.232-.092.1.471.354,1.88.388,2.136a.614.614,0,0,0,.608.533.623.623,0,0,0,.082-.005.614.614,0,0,0,.527-.69c-.039-.294-.286-1.672-.333-2.062.769-.061,1.529-.133,2.267-.212a16.929,16.929,0,0,0,.4,2.273.614.614,0,0,0,1.148-.437,16.834,16.834,0,0,1-.33-1.976c.669-.081,1.312-.166,1.922-.252a15.547,15.547,0,0,0,.531,2.169.614.614,0,1,0,1.133-.476,14.283,14.283,0,0,1-.447-1.872c1.168-.179,2.156-.35,2.878-.483a15.858,15.858,0,0,0,1.024,2.2.614.614,0,1,0,.972-.751,9.788,9.788,0,0,1-.7-1.693,2.536,2.536,0,0,0,1.82-1.493,10.316,10.316,0,0,0,1.7-.224.614.614,0,0,0,.472-.729Z" transform="translate(-106.778 -70.391)"/>
        </g>
      </g>
    </g>
  </g>
</svg>
