<svg xmlns="http://www.w3.org/2000/svg" width="84.208" height="84.207" viewBox="0 0 84.208 84.207">
  <g id="Grupo_1188942" data-name="Grupo 1188942" transform="translate(-872.554 -278.578)">
    <g id="Grupo_1188789" data-name="Grupo 1188789" transform="translate(583.726 -5835.222)">
      <rect id="Rectángulo_400898" data-name="Rectángulo 400898" width="75.49" height="75.489" rx="37.744" transform="translate(293.827 6118.8)" fill="#ffd907"/>
      <rect id="Rectángulo_400907" data-name="Rectángulo 400907" width="75.49" height="75.489" rx="37.744" transform="translate(293.36 6118.358)" fill="none"/>
      <g id="Grupo_1098742" data-name="Grupo 1098742" transform="translate(288.828 6113.8)">
        <g id="Rectángulo_400898-2" data-name="Rectángulo 400898" transform="translate(0)" fill="none" stroke="#fff" stroke-width="1" opacity="0.859">
          <rect width="84.208" height="84.207" rx="42.104" stroke="none"/>
          <rect x="0.5" y="0.5" width="83.208" height="83.207" rx="41.604" fill="none"/>
        </g>
        <g id="Rectángulo_400907-2" data-name="Rectángulo 400907" transform="translate(0)" fill="none" stroke="#0f1f33" stroke-linecap="round" stroke-width="1">
          <rect width="84.208" height="84.207" rx="42.104" stroke="none"/>
          <rect x="0.5" y="0.5" width="83.208" height="83.207" rx="41.604" fill="none"/>
        </g>
      </g>
      <g id="filled_outline" data-name="filled outline" transform="translate(285.828 6074.801)">
        <circle id="Elipse_11529" data-name="Elipse 11529" cx="2.962" cy="2.962" r="2.962" transform="translate(48.582 59.56)" fill="#27c5a7"/>
        <path id="Trazado_877826" data-name="Trazado 877826" d="M318.912,392.5h-3.759a3.152,3.152,0,0,1-1.622-5.855L317.924,384l2.962,4.547Z" transform="translate(-259.468 -287.518)" fill="#015078"/>
        <path id="Trazado_877827" data-name="Trazado 877827" d="M24,316.547l3.468-.694a6.6,6.6,0,0,0,2.667-1.193l2.751-2.063.918-.6,1.057,3.56L32.673,317.2a6.6,6.6,0,0,1-8.632-.614Z" transform="translate(-7.013 -224.404)" fill="#d18d28"/>
        <path id="Trazado_877828" data-name="Trazado 877828" d="M101.535,151.224a9.487,9.487,0,0,1,2.444-2.709,15.717,15.717,0,0,0,4.046-4.486l.569-.949a5.678,5.678,0,0,0,.809-2.922v-4.351l2.962-2.962,3.456.864,2.468-.864,1.975,2.962-3.7,2.962.741,4.937.238.555a5.677,5.677,0,0,1,.136,4.126l0,.009,3.819,1.858a1.975,1.975,0,0,1,1.009,1.151l1.712,5.136-2.962.987-1.975-3.949-3.949-.987-5.924,2.962-1.975,2.962,1.462,2.925a1.975,1.975,0,0,1-.123,1.978l-1.339,2.008-.987,6.912h-2.962v-8.886l-1.564-1.564a6.171,6.171,0,0,1-1.723-3.349l-.021-.128A10.59,10.59,0,0,1,101.535,151.224Z" transform="translate(-73.656 -67.361)" fill="#ea9d2d"/>
        <path id="Trazado_877829" data-name="Trazado 877829" d="M178.219,152.451a1.932,1.932,0,0,1-1.519.775l-.6.01-.046-4.632,1.154-1.154,1.255,3.093A1.945,1.945,0,0,1,178.219,152.451Z" transform="translate(-140.297 -80.163)" fill="#ea9d2d"/>
        <path id="Trazado_877830" data-name="Trazado 877830" d="M296,125.832l2.962-.987,2.962,9.874,5.924,3.949-2.962,2.962-6.912-4.937-.987-6.912-.987-.987Z" transform="translate(-245.443 -60.348)" fill="#fdc9a6"/>
        <path id="Trazado_877831" data-name="Trazado 877831" d="M382.564,253.63l-1.267-9.085a25.92,25.92,0,0,0-1.5-5.365l0-.008a3.7,3.7,0,0,0-3.438-2.328h-5.392L368,239.807l2.962,1.975v6.912Z" transform="translate(-308.556 -158.525)" fill="#02a437"/>
        <path id="Trazado_877832" data-name="Trazado 877832" d="M350.388,336.831l2.223,5.335h6.582l-.987-1.585,2.237.9a6.171,6.171,0,0,0,3.52.322,3.9,3.9,0,0,0,1.986-1.065q.061-.061.119-.124a3.893,3.893,0,0,0,.946-3.18l-.169-1.189-11-4.818a4.147,4.147,0,0,0-5.462,5.407Z" transform="translate(-292.838 -241.136)" fill="#026ca2"/>
        <path id="Trazado_877833" data-name="Trazado 877833" d="M427.949,242.769V238.82a1.975,1.975,0,1,0-3.949,0v3.949Z" transform="translate(-357.645 -158.525)" fill="#029532"/>
        <path id="Trazado_877834" data-name="Trazado 877834" d="M339.848,284.845v4.937h-9.627A2.222,2.222,0,0,0,328,292v1.728h12.836a2.962,2.962,0,0,0,2.962-2.962v-5.924Z" transform="translate(-273.493 -200.601)" fill="#fdc9a6"/>
        <path id="Trazado_877835" data-name="Trazado 877835" d="M392,168.332h3.949l1.975,2.962v.578a3.371,3.371,0,0,1-.987,2.384v2.532h-3.949v-2.532a3.371,3.371,0,0,1-.987-2.384Z" transform="translate(-329.594 -98.468)" fill="#fdc9a6"/>
        <path id="Trazado_877836" data-name="Trazado 877836" d="M386.976,137.229l-.608-1.823a1.942,1.942,0,0,1,2.92-2.23l1.637,1.091h1.1a2.581,2.581,0,0,1,2.147,4.013l-1.275,1.912-1.975-2.962Z" transform="translate(-324.57 -67.365)" fill="#55300b"/>
        <circle id="Elipse_11530" data-name="Elipse 11530" cx="0.864" cy="0.864" r="0.864" transform="translate(39.326 67.582)" fill="#c38325"/>
        <path id="Trazado_877837" data-name="Trazado 877837" d="M178.219,152.451a1.932,1.932,0,0,1-1.519.775l-.6.01-.046-4.632,1.154-1.154,1.255,3.093A1.945,1.945,0,0,1,178.219,152.451Z" transform="translate(-140.297 -80.163)" fill="#c38325"/>
        <g id="Grupo_1189134" data-name="Grupo 1189134" transform="translate(17.07 56)">
          <path id="Trazado_877838" data-name="Trazado 877838" d="M27.338,384.055a6.763,6.763,0,0,1-1.961-.29.987.987,0,1,1,.573-1.89,4.81,4.81,0,0,0,3.848-.47l.707-.421a.987.987,0,1,1,1.01,1.7l-.707.421a6.789,6.789,0,0,1-3.47.953Z" transform="translate(-24.676 -340.752)" fill="#6ee7f5"/>
          <path id="Trazado_877839" data-name="Trazado 877839" d="M142.753,115.1a.987.987,0,0,1-.987-.987,6.4,6.4,0,0,1,1.646-4.289l.88-.978a.987.987,0,1,1,1.468,1.321l-.88.978a4.43,4.43,0,0,0-1.139,2.968A.987.987,0,0,1,142.753,115.1Z" transform="translate(-127.315 -102.035)" fill="#6ee7f5"/>
          <path id="Trazado_877840" data-name="Trazado 877840" d="M329.529,59.827a.986.986,0,0,1-.824-.442l-.079-.12a2.872,2.872,0,0,0-2.4-1.29.987.987,0,0,1,0-1.975,4.841,4.841,0,0,1,4.047,2.175l.079.119a.987.987,0,0,1-.822,1.533Z" transform="translate(-288.142 -56)" fill="#6ee7f5"/>
        </g>
        <path id="Trazado_877841" data-name="Trazado 877841" d="M361.317,420.845,360,422.82v1.975h7.9v-3.949Z" transform="translate(-301.544 -319.815)" fill="#cbcbcb"/>
        <path id="Trazado_877842" data-name="Trazado 877842" d="M387.949,372.936l.987,1.586h-1.212l-3.541-4.962a.987.987,0,0,1,1.607-1.148l3.657,5.124Z" transform="translate(-322.581 -273.492)" fill="#015078"/>
        <path id="Trazado_877843" data-name="Trazado 877843" d="M285.924,95.929c0,.017,0,.035,0,.052l-.027.01a17.95,17.95,0,0,1-5.7.926h-.03a2.967,2.967,0,0,1,0-1.975h.03a16.018,16.018,0,0,0,5.075-.825l.025-.007A2.94,2.94,0,0,1,285.924,95.929Z" transform="translate(-231.418 -33.406)" fill="#2ad3b3"/>
        <path id="Trazado_877844" data-name="Trazado 877844" d="M370.962,236.845v4.937L368,239.807Z" transform="translate(-308.556 -158.525)" fill="#029532"/>
        <path id="Trazado_877845" data-name="Trazado 877845" d="M26.252,153.935l.058-.044a7.155,7.155,0,0,0,1.25,1.684l1.275,1.274v8.477a.987.987,0,0,0,.987.987h2.962a.987.987,0,0,0,.977-.848l.956-6.689,1.215-1.822a2.968,2.968,0,0,0,.185-2.968l-1.206-2.412,1.512-2.267,5.363-2.682,3.155.789,1.772,3.543a.988.988,0,0,0,1.2.5l2.962-.987a.987.987,0,0,0,.624-1.249l-1.712-5.137a2.979,2.979,0,0,0-1.514-1.727l-3.079-1.5a6.644,6.644,0,0,0-.4-4l-.188-.438-.637-4.249,3.258-2.607a.987.987,0,0,0,.2-1.319l-1.975-2.962a.987.987,0,0,0-1.148-.384l-2.189.766-3.169-.792a.987.987,0,0,0-.938.259L35.048,128.1a.987.987,0,0,0-.289.7v4.351a4.691,4.691,0,0,1-.668,2.413l-.57.949a14.656,14.656,0,0,1-3.792,4.2,10.427,10.427,0,0,0-2.7,2.991,11.576,11.576,0,0,0-1.463,3.9.985.985,0,0,0-.289.148l-2.751,2.064a5.649,5.649,0,0,1-2.268,1.014l-3.468.694a.987.987,0,0,0-.5,1.667l.04.04a7.542,7.542,0,0,0,5.368,2.224,7.638,7.638,0,0,0,4.555-1.518Zm10.482-24.072.516,1.244a.951.951,0,0,1-.516,1.244Zm-8.009,14.857a8.463,8.463,0,0,1,2.189-2.427,16.624,16.624,0,0,0,4.3-4.768l.569-.949a6.667,6.667,0,0,0,.832-2.188,2.906,2.906,0,0,0,2.094-1.159,2.94,2.94,0,0,0,.363-2.878l-1.022-2.465.959-.959,2.913.728a.986.986,0,0,0,.566-.026l1.746-.611,1.048,1.572-3,2.4a.987.987,0,0,0-.36.917l.741,4.937a.985.985,0,0,0,.069.243l.238.555a4.678,4.678,0,0,1,.112,3.408s0,.011,0,.012a.987.987,0,0,0,.5,1.213l3.82,1.858a.992.992,0,0,1,.5.576l1.4,4.2-1.213.4L46.5,146.126a.987.987,0,0,0-.644-.516l-3.949-.987a.987.987,0,0,0-.681.075L35.3,147.659a.987.987,0,0,0-.38.335l-1.975,2.962a.987.987,0,0,0-.062.989l1.462,2.925a.989.989,0,0,1-.062.989l-1.339,2.009a.987.987,0,0,0-.156.408l-.866,6.064H30.81v-7.9a.987.987,0,0,0-.289-.7l-1.564-1.563a5.157,5.157,0,0,1-1.448-2.814l-.021-.128A9.61,9.61,0,0,1,28.726,144.719Zm-8.077,8.046a7.636,7.636,0,0,0,3.066-1.371l1.68-1.26a11.539,11.539,0,0,0,.146,1.427l.021.128c.014.086.031.173.048.258l-.543.407a5.63,5.63,0,0,1-5.628.653Z" transform="translate(0 -60.348)"/>
        <path id="Trazado_877846" data-name="Trazado 877846" d="M298.126,104.145c0-.009,0-.017,0-.026a26.982,26.982,0,0,0-1.562-5.577,4.677,4.677,0,0,0-2-2.32,2.947,2.947,0,0,0-1.82-.628V94.429a4.325,4.325,0,0,0,.987-2.763v-.28l1.109-1.663a3.568,3.568,0,0,0-2.969-5.547h-.8l-1.388-.926a2.93,2.93,0,0,0-4.4,3.364l.557,1.671v3.38a4.325,4.325,0,0,0,.987,2.763v.966l-5.081-3.387-2.646-8.821a3.949,3.949,0,1,0-5.109,1.016v2.505a.987.987,0,0,0,.289.7l.755.755.941,6.586a.987.987,0,0,0,.4.664l6.912,4.937.011.006.015.012,2.522,1.681v4.408h-4.69a3.213,3.213,0,0,0-3.209,3.209v1.728a.987.987,0,0,0,.987.987h1.735a5.107,5.107,0,0,0,.4,1.956l.117.282-3.2,1.921a4.14,4.14,0,0,0,2.13,7.689h10.671a.987.987,0,0,0,.987-.987v-3.68a7.141,7.141,0,0,0,3.978.333,4.872,4.872,0,0,0,2.489-1.335c.051-.051.1-.1.15-.156a4.857,4.857,0,0,0,1.2-3.987Zm-2.426,4.284v-6.194c.19.725.349,1.457.472,2.2l1.019,7.3-2.233-1a3.927,3.927,0,0,0,.742-2.3Zm-2.257-10.563a.984.984,0,0,1,.282.69v2.962h-1.975V98.555a.989.989,0,0,1,.784-.966,2.7,2.7,0,0,1,.909.276ZM288.5,93.351a2.368,2.368,0,0,1-.7-1.685V89.112h2.434l1.516,2.274v.28a2.368,2.368,0,0,1-.7,1.685.987.987,0,0,0-.289.7v1.544h-1.975V94.049a.987.987,0,0,0-.289-.7Zm-1.126-8.339a.958.958,0,0,1,1.2-.119l1.637,1.091a.987.987,0,0,0,.548.166h1.1a1.593,1.593,0,0,1,1.326,2.477l-.453.68-1.153-1.729a.987.987,0,0,0-.821-.44h-3.238l-.383-1.148A.95.95,0,0,1,287.374,85.012Zm-11.421-6.2a1.965,1.965,0,0,1,1.274.468,15.989,15.989,0,0,1-2.957.48A1.973,1.973,0,0,1,275.953,78.808Zm-1.727,2.932a17.965,17.965,0,0,0,3.667-.6,1.948,1.948,0,0,1-.259.671l-.019.005-2.391.8a1.968,1.968,0,0,1-1-.878Zm9.519,16.514-5.887-4.205-.928-6.493a.987.987,0,0,0-.279-.559l-.7-.7V84.456l1.321-.44,2.67,8.9a.988.988,0,0,0,.4.538l4.922,3.281ZM285.4,99.39l1.821-1.821h2.723a2.948,2.948,0,0,0-.17.987v7.9H287.8v-4.937a.987.987,0,0,0-.44-.822ZM279.9,110.4v-.741a1.236,1.236,0,0,1,1.234-1.234h9.627a.987.987,0,0,0,.987-.987v-3.949h1.975v4.937a1.977,1.977,0,0,1-1.975,1.975Zm2.141,10.313a.987.987,0,0,0-.166.548v.987h-1.785a2.165,2.165,0,0,1-1.114-4.021l2.953-1.772,1.134,2.723Zm7.733,1.535h-5.924v-.688l.858-1.286h5.067Zm7.135-5.184c-.029.032-.059.063-.09.094a2.9,2.9,0,0,1-1.483.8,5.17,5.17,0,0,1-2.957-.271l-2.171-.872-2.593-3.633a.987.987,0,1,0-1.607,1.147l2.836,3.974h-4.007l-1.97-4.728a3.141,3.141,0,0,1-.243-1.2h9.125a3.926,3.926,0,0,0,1.445-.275l4.319,1.94.093.65a2.889,2.889,0,0,1-.7,2.374Z" transform="translate(-224.408 -18.261)"/>
        <circle id="Elipse_11531" data-name="Elipse 11531" cx="0.864" cy="0.864" r="0.864" transform="translate(39.326 67.582)"/>
        <path id="Trazado_877847" data-name="Trazado 877847" d="M30.811,383.1l.707-.421a.987.987,0,1,0-1.01-1.7l-.707.421a4.81,4.81,0,0,1-3.848.47.987.987,0,1,0-.572,1.89,6.788,6.788,0,0,0,5.431-.663Z" transform="translate(-7.608 -284.752)"/>
        <path id="Trazado_877848" data-name="Trazado 877848" d="M144.292,108.847l-.88.978a6.4,6.4,0,0,0-1.646,4.289.987.987,0,0,0,1.975,0,4.43,4.43,0,0,1,1.14-2.968l.88-.978a.987.987,0,1,0-1.468-1.321Z" transform="translate(-110.244 -46.038)"/>
        <path id="Trazado_877849" data-name="Trazado 877849" d="M326.225,56a.987.987,0,0,0,0,1.975,2.872,2.872,0,0,1,2.4,1.29l.079.12a.987.987,0,1,0,1.646-1.09l-.079-.119A4.841,4.841,0,0,0,326.225,56Z" transform="translate(-271.072 0)"/>
      </g>
    </g>
  </g>
</svg>
