<svg xmlns="http://www.w3.org/2000/svg" width="73.054" height="73.053" viewBox="0 0 73.054 73.053">
  <g id="Grupo_1189558" data-name="Grupo 1189558" transform="translate(-1033.057 -7875)">
    <g id="Grupo_1189545" data-name="Grupo 1189545" transform="translate(161.945 7597.836)">
      <g id="Grupo_1188789" data-name="Grupo 1188789" transform="translate(871.113 277.164)">
        <rect id="Rectángulo_400898" data-name="Rectángulo 400898" width="60.477" height="60.477" rx="30.238" transform="translate(6.492 6.026)" fill="#361969"/>
        <rect id="Rectángulo_400907" data-name="Rectángulo 400907" width="65.491" height="65.49" rx="32.745" transform="translate(3.783 3.781)" fill="none"/>
        <g id="Grupo_1098742" data-name="Grupo 1098742" transform="translate(0)">
          <g id="Rectángulo_400898-2" data-name="Rectángulo 400898" transform="translate(0)" fill="none" stroke="#fff" stroke-width="2" opacity="0.859">
            <rect width="73.054" height="73.053" rx="36.527" stroke="none"/>
            <rect x="1" y="1" width="71.054" height="71.053" rx="35.527" fill="none"/>
          </g>
          <g id="Rectángulo_400907-2" data-name="Rectángulo 400907" transform="translate(0)" fill="none" stroke="#0f1f33" stroke-linecap="round" stroke-width="2">
            <rect width="73.054" height="73.053" rx="36.527" stroke="none"/>
            <rect x="1" y="1" width="71.054" height="71.053" rx="35.527" fill="none"/>
          </g>
        </g>
      </g>
    </g>
    <g id="Grupo_1189557" data-name="Grupo 1189557" transform="translate(1042.306 7889)">
      <g id="Grupo_1189555" data-name="Grupo 1189555" transform="translate(5.403 0.651)">
        <g id="Grupo_1189553" data-name="Grupo 1189553">
          <g id="Grupo_1189552" data-name="Grupo 1189552">
            <path id="Trazado_878748" data-name="Trazado 878748" d="M33.415,50.64C55.192,41.721,54.57,16.626,54.57,16.626,47.726,9.781,33.415,7.5,33.415,7.5S19.1,9.781,12.26,16.626C12.26,16.626,11.638,41.721,33.415,50.64Z" transform="translate(-12.258 -7.5)" fill="#a2c6fe"/>
            <path id="Trazado_878749" data-name="Trazado 878749" d="M33.415,50.681C11.638,41.762,12.26,16.667,12.26,16.667c6.7-6.7,20.538-9.025,21.135-9.122-.464.09-9.019,1.795-15.048,6.426a7.035,7.035,0,0,0-2.713,6.173C16.242,27.35,19.2,43.813,33.415,50.681Z" transform="translate(-12.258 -7.541)" fill="#7898d5"/>
            <path id="Trazado_878750" data-name="Trazado 878750" d="M82.95,95.022C76.216,91.743,71.42,86.193,68.678,78.5A40.416,40.416,0,0,1,66.5,68.106c4.791-3.674,12.76-5.768,16.444-6.453,3.685.692,11.673,2.8,16.453,6.455A40.419,40.419,0,0,1,97.223,78.5C94.481,86.193,89.684,91.743,82.95,95.022Z" transform="translate(-61.794 -56.952)" fill="#f5f0f0"/>
            <path id="Trazado_878751" data-name="Trazado 878751" d="M82.951,95.021C76.217,91.743,71.42,86.192,68.678,78.5A40.4,40.4,0,0,1,66.5,68.106c4.791-3.673,12.761-5.768,16.444-6.454a43.252,43.252,0,0,0-8.11,2.674,9.24,9.24,0,0,0-5.262,10.327c.256,1.22.581,2.514.991,3.842C72.945,86.192,77.107,91.743,82.951,95.021Z" transform="translate(-61.794 -56.952)" fill="#e8ded8"/>
          </g>
        </g>
        <g id="Grupo_1189554" data-name="Grupo 1189554" transform="translate(12.959 11.946)">
          <path id="Trazado_878752" data-name="Trazado 878752" d="M176.781,149.9q-1.285-.055-2.569-.09a.973.973,0,0,1-.947-.947q-.035-1.285-.09-2.569a.966.966,0,0,0-.772-.908,13.565,13.565,0,0,0-5.3,0,.966.966,0,0,0-.772.908q-.055,1.285-.09,2.569a.973.973,0,0,1-.947.947q-1.285.035-2.569.09a.966.966,0,0,0-.908.772,13.565,13.565,0,0,0,0,5.3.966.966,0,0,0,.908.772q1.285.055,2.569.09a.973.973,0,0,1,.947.947q.035,1.285.09,2.569a.966.966,0,0,0,.772.908,13.564,13.564,0,0,0,5.3,0,.966.966,0,0,0,.772-.908q.055-1.285.09-2.569a.973.973,0,0,1,.947-.947q1.285-.035,2.569-.09a.966.966,0,0,0,.908-.772,13.565,13.565,0,0,0,0-5.3.966.966,0,0,0-.908-.772Z" transform="translate(-161.555 -145.123)" fill="#dd636e"/>
        </g>
      </g>
      <g id="Grupo_1189556" data-name="Grupo 1189556" transform="translate(4.751 0)">
        <path id="Trazado_878753" data-name="Trazado 878753" d="M48.365,9.761a.651.651,0,0,0-.19-.444C45.262,6.4,40.752,3.952,34.77,2.028A60.069,60.069,0,0,0,26.662.008a.649.649,0,0,0-.2,0,60.069,60.069,0,0,0-8.108,2.019C12.366,3.952,7.856,6.4,4.944,9.317a.651.651,0,0,0-.19.444A43.192,43.192,0,0,0,7.2,23.653,36.566,36.566,0,0,0,13.567,35.13a32.311,32.311,0,0,0,12.746,9.263.651.651,0,0,0,.494,0A32.314,32.314,0,0,0,39.552,35.13a36.567,36.567,0,0,0,6.366-11.477A43.187,43.187,0,0,0,48.365,9.761ZM44.674,23.267a35.244,35.244,0,0,1-6.139,11.05,30.988,30.988,0,0,1-11.976,8.769,30.989,30.989,0,0,1-11.976-8.769,35.246,35.246,0,0,1-6.139-11.05A43.405,43.405,0,0,1,6.054,10.051c6.383-6.175,19.225-8.519,20.505-8.739,1.281.221,14.122,2.565,20.505,8.739A43.409,43.409,0,0,1,44.674,23.267Z" transform="translate(-4.751 0)"/>
        <path id="Trazado_878754" data-name="Trazado 878754" d="M75.973,54.161c-1.1.2-10.923,2.13-16.722,6.577A.651.651,0,0,0,59,61.3a40.807,40.807,0,0,0,2.212,10.561c2.8,7.854,7.711,13.538,14.6,16.892a.651.651,0,0,0,.57,0c6.89-3.354,11.8-9.038,14.6-16.892A40.809,40.809,0,0,0,93.195,61.3a.651.651,0,0,0-.254-.564,24.482,24.482,0,0,0-3.891-2.38.651.651,0,0,0-.583,1.164,23.892,23.892,0,0,1,3.4,2.039,39.483,39.483,0,0,1-2.113,9.863c-2.641,7.413-7.236,12.8-13.659,16.018-6.423-3.217-11.018-8.6-13.659-16.018a40.12,40.12,0,0,1-2.112-9.866A31.511,31.511,0,0,1,68.5,57.521a54.8,54.8,0,0,1,7.591-2.058,54.631,54.631,0,0,1,10.051,3,.651.651,0,1,0,.5-1.2,55.951,55.951,0,0,0-10.429-3.1A.654.654,0,0,0,75.973,54.161Z" transform="translate(-54.288 -49.45)"/>
        <path id="Trazado_878755" data-name="Trazado 878755" d="M169.911,149.259c-.815.036-1.676.066-2.558.09a1.624,1.624,0,0,0-1.58,1.579c-.024.865-.054,1.726-.089,2.559a.316.316,0,0,1-.247.3,12.972,12.972,0,0,1-5.049,0,.316.316,0,0,1-.247-.3c-.035-.833-.065-1.694-.089-2.559a1.624,1.624,0,0,0-1.58-1.579q-.631-.017-1.264-.039a.651.651,0,0,0-.045,1.3q.637.022,1.274.039a.322.322,0,0,1,.314.313c.024.871.054,1.739.09,2.58a1.611,1.611,0,0,0,1.3,1.519,14.266,14.266,0,0,0,5.554,0,1.611,1.611,0,0,0,1.3-1.519c.036-.84.066-1.708.09-2.58a.322.322,0,0,1,.314-.313c.89-.024,1.758-.055,2.58-.091a1.61,1.61,0,0,0,1.518-1.3,14.263,14.263,0,0,0,0-5.553,1.611,1.611,0,0,0-1.518-1.3c-.84-.037-1.708-.067-2.579-.09a.324.324,0,0,1-.315-.314c-.024-.872-.054-1.739-.09-2.579a1.611,1.611,0,0,0-1.3-1.519,14.27,14.27,0,0,0-5.554,0,1.611,1.611,0,0,0-1.3,1.519c-.036.84-.066,1.708-.09,2.58a.323.323,0,0,1-.313.314c-.872.023-1.74.053-2.58.09a1.611,1.611,0,0,0-1.518,1.3,14.248,14.248,0,0,0-.027,5.412.651.651,0,1,0,1.28-.24,12.955,12.955,0,0,1,.025-4.919.316.316,0,0,1,.3-.247c.833-.036,1.693-.066,2.56-.089a1.626,1.626,0,0,0,1.579-1.58c.024-.865.054-1.726.089-2.559a.316.316,0,0,1,.247-.3,12.972,12.972,0,0,1,5.049,0,.316.316,0,0,1,.247.3c.036.833.065,1.694.089,2.559a1.626,1.626,0,0,0,1.581,1.58c.865.023,1.725.053,2.558.089a.316.316,0,0,1,.3.247,12.964,12.964,0,0,1,0,5.049A.316.316,0,0,1,169.911,149.259Z" transform="translate(-141.102 -125.693)"/>
      </g>
    </g>
  </g>
</svg>
