<svg xmlns="http://www.w3.org/2000/svg" width="84.208" height="84.207" viewBox="0 0 84.208 84.207">
  <g id="Grupo_1188944" data-name="Grupo 1188944" transform="translate(-872.802 -278.578)">
    <g id="Grupo_1188789" data-name="Grupo 1188789" transform="translate(583.726 -5835.222)">
      <rect id="Rectángulo_400898" data-name="Rectángulo 400898" width="75.49" height="75.489" rx="37.744" transform="translate(293.075 6118.8)" fill="#ffd907"/>
      <rect id="Rectángulo_400907" data-name="Rectángulo 400907" width="75.49" height="75.489" rx="37.744" transform="translate(293.075 6118.8)" fill="none"/>
      <g id="Grupo_1098742" data-name="Grupo 1098742" transform="translate(289.076 6113.8)">
        <g id="Rectángulo_400898-2" data-name="Rectángulo 400898" transform="translate(0)" fill="none" stroke="#fff" stroke-width="1" opacity="0.859">
          <rect width="84.208" height="84.207" rx="42.104" stroke="none"/>
          <rect x="0.5" y="0.5" width="83.208" height="83.207" rx="41.604" fill="none"/>
        </g>
        <g id="Rectángulo_400907-2" data-name="Rectángulo 400907" transform="translate(0)" fill="none" stroke="#0f1f33" stroke-linecap="round" stroke-width="1">
          <rect width="84.208" height="84.207" rx="42.104" stroke="none"/>
          <rect x="0.5" y="0.5" width="83.208" height="83.207" rx="41.604" fill="none"/>
        </g>
      </g>
      <g id="Grupo_1189135" data-name="Grupo 1189135" transform="translate(293.075 6117.801)">
        <path id="Trazado_877850" data-name="Trazado 877850" d="M24,282.611V270.156a3.649,3.649,0,0,1,2.339-3.406L33.488,264h7.3l7.149,2.75a3.649,3.649,0,0,1,2.339,3.406v14.28H25.825A1.825,1.825,0,0,1,24,282.611Z" transform="translate(-7.27 -225.375)" fill="#c85aed"/>
        <g id="Grupo_1189135-2" data-name="Grupo 1189135" transform="translate(24.028 22.569)">
          <path id="Trazado_877851" data-name="Trazado 877851" d="M126.018,223.3h-5.313a1.825,1.825,0,0,1-1.748-2.349l1.485-4.95h5.839l1.485,4.95a1.825,1.825,0,0,1-1.748,2.349Z" transform="translate(-117.523 -204.322)" fill="#ffd4cf"/>
          <path id="Trazado_877852" data-name="Trazado 877852" d="M137.6,216h-5.839l-.426,1.419,1.871.936a3.3,3.3,0,0,0,1.469.347h0a3.3,3.3,0,0,0,1.484-.354l1.862-.943Z" transform="translate(-128.84 -204.322)" fill="#fbb8b0"/>
          <path id="Trazado_877853" data-name="Trazado 877853" d="M115.678,88H104v8.526a2.737,2.737,0,0,0,1.513,2.448l3.5,1.752a1.825,1.825,0,0,0,1.64,0l3.519-1.782a2.737,2.737,0,0,0,1.5-2.442Z" transform="translate(-104 -88)" fill="#ffd4cf"/>
        </g>
        <path id="Trazado_877854" data-name="Trazado 877854" d="M80,28.014V24h8.393a1.825,1.825,0,0,1,1.825,1.825v4.014H81.825A1.825,1.825,0,0,1,80,28.014Z" transform="translate(-58.161 -7.27)" fill="#fa5d3f"/>
        <path id="Trazado_877855" data-name="Trazado 877855" d="M196.379,44.379H192V40l3.131,1.044a1.825,1.825,0,0,1,1.248,1.731Z" transform="translate(-159.943 -21.81)" fill="#d3463d"/>
        <path id="Trazado_877856" data-name="Trazado 877856" d="M112,24h2.554a1.825,1.825,0,0,1,1.825,1.825v4.014h-2.554A1.825,1.825,0,0,1,112,28.014Z" transform="translate(-87.242 -7.27)" fill="#fed672"/>
        <path id="Trazado_877857" data-name="Trazado 877857" d="M232,120h1.277a.912.912,0,0,1,.912.912v1.825a.912.912,0,0,1-.912.912H232Z" transform="translate(-196.294 -94.512)" fill="#ffd4cf"/>
        <path id="Trazado_877858" data-name="Trazado 877858" d="M0,0H1.277A.912.912,0,0,1,2.19.912V2.737a.912.912,0,0,1-.912.912H0Z" transform="translate(24.028 29.137) rotate(180)" fill="#ffd4cf"/>
        <g id="Grupo_1189136" data-name="Grupo 1189136" transform="translate(26.218 26.218)">
          <rect id="Rectángulo_402926" data-name="Rectángulo 402926" width="2" height="2" transform="translate(-0.322 -0.322)"/>
          <rect id="Rectángulo_402927" data-name="Rectángulo 402927" width="2" height="2" transform="translate(5.678 -0.322)"/>
        </g>
        <path id="Trazado_877859" data-name="Trazado 877859" d="M146.19,179.825A2.01,2.01,0,0,1,144,178h1.46c0,.129.277.365.73.365s.73-.236.73-.365h1.46A2.01,2.01,0,0,1,146.19,179.825Z" transform="translate(-116.322 -147.221)"/>
        <path id="Trazado_877860" data-name="Trazado 877860" d="M155.649,432H152v5.109h8.758A5.109,5.109,0,0,0,155.649,432Z" transform="translate(-123.593 -378.048)" fill="#ffd4cf"/>
        <g id="Grupo_1189138" data-name="Grupo 1189138" transform="translate(16 16)">
          <path id="Trazado_877861" data-name="Trazado 877861" d="M444.379,274.218H441.46L440,264h0a4.379,4.379,0,0,1,4.379,4.379Z" transform="translate(-401.318 -241.375)" fill="#d3463d"/>
          <path id="Trazado_877862" data-name="Trazado 877862" d="M221.713,277.839h-7.846l-1.524-4.063A2.737,2.737,0,0,0,209.781,272h-2.814a1.825,1.825,0,0,0-1.632,1.009l-2.415,4.1L200,278.569v1.642a2.737,2.737,0,0,0,2.737,2.737h4.946l-.922,4.379H204.2a2.737,2.737,0,0,0-2.737,2.737v1.642h20.253a4.562,4.562,0,0,0,4.562-4.562V282.4A4.562,4.562,0,0,0,221.713,277.839Z" transform="translate(-183.213 -248.645)" fill="#fa5d3f"/>
          <path id="Trazado_877863" data-name="Trazado 877863" d="M202.919,328v1.825a1.825,1.825,0,0,1-1.825,1.825H200v-2.19Z" transform="translate(-183.213 -299.536)" fill="#fed672"/>
          <path id="Trazado_877864" data-name="Trazado 877864" d="M283.649,272v4.744a1.825,1.825,0,0,1-1.825,1.825h0A1.825,1.825,0,0,1,280,276.744V272" transform="translate(-255.915 -248.645)" fill="#fed672"/>
          <g id="Grupo_1189137" data-name="Grupo 1189137" transform="translate(0 0)">
            <path id="Trazado_877865" data-name="Trazado 877865" d="M32.057,53.222H22.569V48.843h-1.46v5.109a.73.73,0,0,0,.73.73h5.839v3.649H18.554a1.1,1.1,0,0,1-1.095-1.095V44.781a2.937,2.937,0,0,1,1.871-2.725L24.669,40a2.561,2.561,0,0,0,2.541,2.272h5.313A2.561,2.561,0,0,0,35.065,40l1.109.426.524-1.362-1.925-.74-1.116-3.721.879-.445a3.45,3.45,0,0,0,1.9-3.093v-1.2h.547a1.644,1.644,0,0,0,1.642-1.642V26.4a1.644,1.644,0,0,0-1.642-1.642h-.547V23.3a.73.73,0,0,0,.73-.73v-1.6a2.551,2.551,0,0,0-1.747-2.423L32.6,17.6a2.559,2.559,0,0,0-2.37-1.6H21.839a.73.73,0,0,0-.73.73v2.19h1.46V17.46h1.46v3.284a2.539,2.539,0,0,0,.247,1.095h-.612a1.1,1.1,0,0,1-1.095-1.095v-.365h-1.46v.365a2.558,2.558,0,0,0,2.19,2.528v1.486h-.547A1.644,1.644,0,0,0,21.109,26.4v1.825a1.644,1.644,0,0,0,1.642,1.642H23.3V31.1a3.448,3.448,0,0,0,1.916,3.1l.857.429-1.111,3.7-6.155,2.367A4.405,4.405,0,0,0,16,44.781V57.237a2.557,2.557,0,0,0,2.554,2.554h13.5v-1.46H29.137V54.682h2.919a4.386,4.386,0,0,1,1.252.181l.416-1.4a5.845,5.845,0,0,0-1.668-.242Zm4.926-27a.183.183,0,0,1,.182.182v1.825a.183.183,0,0,1-.182.182h-.547v-2.19Zm-1.277-5.254v.874H32.787V19.2l2.171.723A1.094,1.094,0,0,1,35.706,20.964Zm-4.379-2.41v3.284h-1.46V18.554a2.539,2.539,0,0,0-.247-1.095h.612A1.1,1.1,0,0,1,31.327,18.554Zm-5.839,2.19V17.46h1.825a1.1,1.1,0,0,1,1.095,1.095v3.284H26.583A1.1,1.1,0,0,1,25.488,20.744Zm-2.737,7.663a.183.183,0,0,1-.182-.182V26.4a.183.183,0,0,1,.182-.182H23.3v2.19ZM24.758,31.1V23.3H34.976v7.769a2,2,0,0,1-1.1,1.791L30.357,34.64a1.1,1.1,0,0,1-.984,0l-3.5-1.752a2,2,0,0,1-1.109-1.8Zm3.961,4.853a2.565,2.565,0,0,0,2.3-.006l1.317-.667,1.239,4.13a1.095,1.095,0,0,1-1.049,1.409H27.21a1.095,1.095,0,0,1-1.049-1.409L27.4,35.287Z" transform="translate(-16 -16)"/>
            <path id="Trazado_877866" data-name="Trazado 877866" d="M219.734,261.109A5.115,5.115,0,0,0,214.625,256a.73.73,0,0,0-.722.833l.82,5.743q-.139-.007-.28-.007h-5.656v1.46h5.656a3.836,3.836,0,0,1,3.832,3.832V272.6a3.836,3.836,0,0,1-3.832,3.832h-8.576v-.912a2.009,2.009,0,0,1,2.007-2.007h2.372a.73.73,0,0,0,.73-.73v-.912a2.009,2.009,0,0,1,2.007-2.007h2.372v-1.46h-2.372a3.471,3.471,0,0,0-3.467,3.467v.182h-1.642a3.471,3.471,0,0,0-3.467,3.467v.912h-9.488v-.912a2.009,2.009,0,0,1,2.007-2.007h6.021v-1.46H200.39l.615-2.919h.065a4.388,4.388,0,0,0,3.563-1.834l2.558-3.581a.73.73,0,0,0,.089-.68l-1.524-4.063a3.483,3.483,0,0,0-3.246-2.25H199.7a2.54,2.54,0,0,0-2.273,1.388l-2.294,3.895-2.726,1.363a.73.73,0,0,0-.4.653v1.642a3.471,3.471,0,0,0,3.467,3.467h4.046l-.615,2.919h-1.972a3.471,3.471,0,0,0-3.467,3.467v1.642a.73.73,0,0,0,.73.73h20.253a5.3,5.3,0,0,0,5.291-5.291V267.86a5.3,5.3,0,0,0-.079-.912h.079Zm-16.787-2.871V262.2a1.095,1.095,0,0,1-2.19,0V258.19h1.753a1.982,1.982,0,0,1,.437.049Zm-8.028,5.511v.644a1.1,1.1,0,0,1-1.095,1.095h-.365v-1.009Zm-1,3.2a2.558,2.558,0,0,0,2.461-2.553v-1.626l2.314-3.929c.008-.014.016-.029.024-.044a1.089,1.089,0,0,1,.581-.531v3.94a2.554,2.554,0,0,0,5.109,0v-2.665l1.37,3.652-2.332,3.264a2.925,2.925,0,0,1-2.376,1.223h-5.6a2,2,0,0,1-1.549-.732Zm22.323-4.063-.76-5.322a3.656,3.656,0,0,1,2.793,3.548v3.105A5.307,5.307,0,0,0,216.242,262.883Z" transform="translate(-175.943 -234.104)"/>
          </g>
        </g>
        <path id="Trazado_877867" data-name="Trazado 877867" d="M308.014,158.31l-3.48-3.48a1.825,1.825,0,1,1,2.58-2.58l.9.9.9-.9a1.825,1.825,0,0,1,2.58,2.58Z" transform="translate(-261.725 -123.334)" fill="#fed672"/>
        <path id="Trazado_877868" data-name="Trazado 877868" d="M300.743,151.769a.728.728,0,0,1-.516-.214l-3.48-3.48a2.555,2.555,0,0,1,3.613-3.613l.383.383.383-.383a2.554,2.554,0,1,1,3.613,3.613l-3.48,3.48a.728.728,0,0,1-.516.214Zm-2.19-6.595a1.095,1.095,0,0,0-.774,1.869l2.964,2.964,2.964-2.964a1.095,1.095,0,0,0-1.548-1.548l-.9.9a.73.73,0,0,1-1.032,0l-.9-.9A1.088,1.088,0,0,0,298.554,145.175Z" transform="translate(-254.455 -116.063)"/>
        <path id="Trazado_877869" data-name="Trazado 877869" d="M394.828,60.763,392.4,58.336a1.368,1.368,0,1,1,1.935-1.935l.492.492.492-.492a1.368,1.368,0,1,1,1.935,1.935Z" transform="translate(-341.697 -36.35)" fill="#fed672"/>
        <path id="Trazado_877870" data-name="Trazado 877870" d="M387.438,54.1a.73.73,0,0,1-.516-.214L384.5,51.463a3.307,3.307,0,1,1,5.887,0l-2.427,2.427A.73.73,0,0,1,387.438,54.1Zm-1.46-4.763a.638.638,0,0,0-.452,1.09l1.911,1.911,1.911-1.911a.639.639,0,1,0-.9-.9l-.492.492a.73.73,0,0,1-1.032,0l-.492-.492A.637.637,0,0,0,385.979,49.341Z" transform="translate(-334.307 -28.962)"/>
      </g>
    </g>
  </g>
</svg>
