<svg xmlns="http://www.w3.org/2000/svg" xmlns:xlink="http://www.w3.org/1999/xlink" width="295" height="181" viewBox="0 0 295 181">
  <defs>
    <clipPath id="clip-path">
      <rect id="Rectángulo_403001" data-name="Rectángulo 403001" width="295" height="181" rx="10" transform="translate(1125.057 10791)" fill="#361969"/>
    </clipPath>
    <clipPath id="clip-path-2">
      <rect id="Rectángulo_403000" data-name="Rectángulo 403000" width="312.712" height="194.466" fill="none"/>
    </clipPath>
  </defs>
  <g id="Grupo_1189670" data-name="Grupo 1189670" transform="translate(-1125.057 -10791)">
    <g id="Enmascarar_grupo_1099216" data-name="Enmascarar grupo 1099216" clip-path="url(#clip-path)">
      <rect id="Rectángulo_402759" data-name="Rectángulo 402759" width="295" height="181" rx="10" transform="translate(1125.057 10791)" fill="#361969"/>
      <g id="Grupo_1189669" data-name="Grupo 1189669" transform="translate(1123.329 10546.139)">
        <g id="Grupo_1189668" data-name="Grupo 1189668" transform="translate(-8.504 238.498)" clip-path="url(#clip-path-2)">
          <g id="Grupo_1189667" data-name="Grupo 1189667" transform="translate(-41.027 10.374)">
            <g id="Grupo_1189635" data-name="Grupo 1189635" transform="translate(55.386 4.466)">
              <g id="Grupo_1189631" data-name="Grupo 1189631" transform="translate(39.095 16.123)">
                <path id="Rectángulo_402964" data-name="Rectángulo 402964" d="M3.02,0h0A3.02,3.02,0,0,1,6.04,3.02V14.808a0,0,0,0,1,0,0H0a0,0,0,0,1,0,0V3.02A3.02,3.02,0,0,1,3.02,0Z" transform="translate(0 4.177)" fill="#6ba6bf"/>
                <rect id="Rectángulo_402965" data-name="Rectángulo 402965" width="2.3" height="4.189" transform="translate(1.867)" fill="#fff"/>
                <rect id="Rectángulo_402966" data-name="Rectángulo 402966" width="6.04" height="2.416" transform="translate(0 10.51)" fill="#fff"/>
                <line id="Línea_624" data-name="Línea 624" y2="4.177" transform="translate(3.017)" fill="none" stroke="#a1d9e2" stroke-miterlimit="10" stroke-width="0.537"/>
              </g>
              <g id="Grupo_1189632" data-name="Grupo 1189632" transform="translate(11.826 17.662)">
                <rect id="Rectángulo_402967" data-name="Rectángulo 402967" width="18.404" height="12.684" transform="translate(0 4.337)" fill="#a1d9e2"/>
                <rect id="Rectángulo_402968" data-name="Rectángulo 402968" width="18.404" height="4.337" fill="#fff"/>
                <rect id="Rectángulo_402969" data-name="Rectángulo 402969" width="10.441" height="5.585" transform="translate(7.963 7.921)" fill="#fff"/>
                <line id="Línea_625" data-name="Línea 625" x2="18.404" transform="translate(0 2.169)" fill="none" stroke="#a1d9e2" stroke-miterlimit="10" stroke-width="0.787"/>
              </g>
              <g id="Grupo_1189634" data-name="Grupo 1189634" transform="translate(18.372 48.721)">
                <path id="Rectángulo_402970" data-name="Rectángulo 402970" d="M5.9,0h1.21a5.9,5.9,0,0,1,5.9,5.9v12.69a0,0,0,0,1,0,0H0a0,0,0,0,1,0,0V5.9A5.9,5.9,0,0,1,5.9,0Z" transform="translate(0 3.38)" fill="#a1d9e2"/>
                <rect id="Rectángulo_402971" data-name="Rectángulo 402971" width="7.615" height="3.411" transform="translate(2.797)" fill="#fff"/>
                <rect id="Rectángulo_402972" data-name="Rectángulo 402972" width="10.412" height="7.882" transform="translate(0 9.694)" fill="#fff"/>
                <g id="Grupo_1189633" data-name="Grupo 1189633" transform="translate(1.076 10.871)">
                  <rect id="Rectángulo_402973" data-name="Rectángulo 402973" width="1.979" height="5.529" transform="translate(1.775)" fill="#a1d9e2"/>
                  <rect id="Rectángulo_402974" data-name="Rectángulo 402974" width="1.98" height="5.529" transform="translate(5.529 1.775) rotate(90)" fill="#a1d9e2"/>
                </g>
                <line id="Línea_626" data-name="Línea 626" y2="3.411" transform="translate(3.84)" fill="none" stroke="#a1d9e2" stroke-miterlimit="10" stroke-width="0.537"/>
                <line id="Línea_627" data-name="Línea 627" y2="3.411" transform="translate(5.787)" fill="none" stroke="#a1d9e2" stroke-miterlimit="10" stroke-width="0.537"/>
                <line id="Línea_628" data-name="Línea 628" y2="3.411" transform="translate(7.734)" fill="none" stroke="#a1d9e2" stroke-miterlimit="10" stroke-width="0.537"/>
                <line id="Línea_629" data-name="Línea 629" y2="3.411" transform="translate(9.68)" fill="none" stroke="#a1d9e2" stroke-miterlimit="10" stroke-width="0.537"/>
              </g>
              <path id="Trazado_878959" data-name="Trazado 878959" d="M88.751,403.46H19.61V267.554H88.751Zm-64.563-4.579H84.172V272.133H24.189Z" transform="translate(-19.61 -267.554)" fill="#fff"/>
              <rect id="Rectángulo_402975" data-name="Rectángulo 402975" width="64.562" height="4.579" transform="translate(2.289 35.001)" fill="#fff"/>
              <rect id="Rectángulo_402976" data-name="Rectángulo 402976" width="64.562" height="4.579" transform="translate(2.289 70.432)" fill="#fff"/>
            </g>
            <g id="Grupo_1189650" data-name="Grupo 1189650">
              <g id="Grupo_1189648" data-name="Grupo 1189648" transform="translate(0 84.734)">
                <g id="Grupo_1189636" data-name="Grupo 1189636" transform="translate(31.21 46.481)">
                  <path id="Trazado_878960" data-name="Trazado 878960" d="M-4.467,546.168s3.3-23-1.416-25.35-2.791,5.651-2.791,5.651-4.131-12.445-7.706-10.546-.07,6.933-.07,6.933-5.554-8.542-9.221-5.828,5.033,9.074,5.033,9.074-7.37-4.258-7.079.44,13.087,8.3,13.087,8.3-8.9-2.051-7.229,2.85C-19.862,543.543-4.467,546.168-4.467,546.168Z" transform="translate(27.726 -515.725)" fill="#336d4c"/>
                  <path id="Trazado_878961" data-name="Trazado 878961" d="M7.736,557.194S4.882,544.662-2.786,538.261" transform="translate(15.523 -526.751)" fill="none" stroke="#213d04" stroke-miterlimit="10" stroke-width="0.837"/>
                </g>
                <g id="Grupo_1189637" data-name="Grupo 1189637" transform="translate(0 54.079)">
                  <path id="Trazado_878962" data-name="Trazado 878962" d="M-33.836,566.449S-47.716,530.2-56.5,530.606s.519,10.514.519,10.514-16.142-14.8-19.816-9.127,5.532,10.174,5.532,10.174-15.047-7.953-18.194-1.012,14.72,9.152,14.72,9.152-14.216-.224-9.973,6.394,25.842,1.474,25.842,1.474-14.656,4.242-8.233,10.034C-58.436,575.129-33.836,566.449-33.836,566.449Z" transform="translate(88.835 -530.602)" fill="#569171"/>
                  <path id="Trazado_878963" data-name="Trazado 878963" d="M-10.6,582.512s-14.348-15.969-30.74-19.078" transform="translate(65.595 -546.666)" fill="none" stroke="#316007" stroke-miterlimit="10" stroke-width="0.837"/>
                </g>
                <g id="Grupo_1189638" data-name="Grupo 1189638" transform="translate(104.711 39.023)">
                  <path id="Trazado_878964" data-name="Trazado 878964" d="M147.765,556.306s13.043-36.556,6.108-41.967-6.447,8.322-6.447,8.322-2.626-21.744-9.109-19.825-2.419,11.325-2.419,11.325-6.252-15.83-13.157-12.605,5.223,16.527,5.223,16.527-10.649-9.419-11.733-1.633,18.665,17.933,18.665,17.933-13.889-6.315-12.781,2.263C123.438,546.891,147.765,556.306,147.765,556.306Z" transform="translate(-116.187 -501.123)" fill="#569171"/>
                  <path id="Trazado_878965" data-name="Trazado 878965" d="M167.546,576.131s-.506-21.463-10.93-34.489" transform="translate(-135.967 -520.948)" fill="none" stroke="#316007" stroke-miterlimit="10" stroke-width="0.837"/>
                </g>
                <g id="Grupo_1189647" data-name="Grupo 1189647" transform="translate(168.141)">
                  <g id="Grupo_1189643" data-name="Grupo 1189643" transform="translate(27.717)">
                    <g id="Grupo_1189639" data-name="Grupo 1189639" transform="translate(1.654 20.701)">
                      <path id="Trazado_878966" data-name="Trazado 878966" d="M305.553,476.151s6.491-6.587,7.487-2.017C313.618,476.784,305.553,476.151,305.553,476.151Z" transform="translate(-301.638 -468.807)" fill="#316007"/>
                      <path id="Trazado_878967" data-name="Trazado 878967" d="M301.8,472.594s.791-9.214-3.331-7C296.083,466.873,301.8,472.594,301.8,472.594Z" transform="translate(-297.889 -465.249)" fill="#316007"/>
                    </g>
                    <g id="Grupo_1189640" data-name="Grupo 1189640" transform="translate(4.892 14.875)">
                      <path id="Trazado_878968" data-name="Trazado 878968" d="M310.806,463.2s5.569-5.652,6.424-1.73C317.725,463.738,310.806,463.2,310.806,463.2Z" transform="translate(-307.447 -456.894)" fill="#316007"/>
                      <path id="Trazado_878969" data-name="Trazado 878969" d="M307.589,460.143s.679-7.906-2.858-6.008C302.681,455.235,307.589,460.143,307.589,460.143Z" transform="translate(-304.23 -453.841)" fill="#316007"/>
                    </g>
                    <g id="Grupo_1189641" data-name="Grupo 1189641" transform="translate(7.877 8.831)">
                      <path id="Trazado_878970" data-name="Trazado 878970" d="M315.716,450.034s4.778-4.849,5.512-1.484C321.653,450.5,315.716,450.034,315.716,450.034Z" transform="translate(-312.834 -444.627)" fill="#316007"/>
                      <path id="Trazado_878971" data-name="Trazado 878971" d="M312.955,447.414s.582-6.783-2.452-5.154C308.744,443.2,312.955,447.414,312.955,447.414Z" transform="translate(-310.074 -442.008)" fill="#316007"/>
                    </g>
                    <g id="Grupo_1189642" data-name="Grupo 1189642" transform="translate(10.084 3.825)">
                      <path id="Trazado_878972" data-name="Trazado 878972" d="M319.83,438.656s3.8-4.493,4.655-1.64C324.979,438.67,319.83,438.656,319.83,438.656Z" transform="translate(-317.055 -434.096)" fill="#316007"/>
                      <path id="Trazado_878973" data-name="Trazado 878973" d="M317.171,436.767s.059-5.886-2.451-4.284C313.266,433.412,317.171,436.767,317.171,436.767Z" transform="translate(-314.396 -432.207)" fill="#316007"/>
                    </g>
                    <path id="Trazado_878974" data-name="Trazado 878974" d="M308.913,433.088s-7.451,24.2-14.262,33.987" transform="translate(-294.651 -428.813)" fill="none" stroke="#316007" stroke-miterlimit="10" stroke-width="0.837"/>
                    <path id="Trazado_878975" data-name="Trazado 878975" d="M322.092,429.508s-1.067-5.789,1.68-4.641C325.365,425.533,322.092,429.508,322.092,429.508Z" transform="translate(-307.977 -424.717)" fill="#316007"/>
                  </g>
                  <g id="Grupo_1189644" data-name="Grupo 1189644" transform="translate(3.824 18.48)">
                    <path id="Trazado_878976" data-name="Trazado 878976" d="M258.44,515.756s-15.33-34.17-9.071-39.9,6.836,7.514,6.836,7.514.87-21.116,7.252-19.763,3.189,10.709,3.189,10.709,4.809-15.7,11.7-13.127-3.765,16.3-3.765,16.3,9.526-9.871,11.162-2.464-16.589,18.671-16.589,18.671,12.879-7.132,12.466,1.2C281.124,504.848,258.44,515.756,258.44,515.756Z" transform="translate(-247.868 -460.9)" fill="#336d4c"/>
                    <path id="Trazado_878977" data-name="Trazado 878977" d="M268.524,535.728s-1.148-20.684,7.887-34.007" transform="translate(-257.951 -480.873)" fill="none" stroke="#213d04" stroke-miterlimit="10" stroke-width="0.837"/>
                  </g>
                  <g id="Grupo_1189645" data-name="Grupo 1189645" transform="translate(1.632 42.065)">
                    <path id="Trazado_878978" data-name="Trazado 878978" d="M243.624,553.8s-1.061-37.436,6.918-40.332,3.433,9.56,3.433,9.56,8.9-19.169,14.274-15.473-1.159,11.114-1.159,11.114,10.46-12.66,15.835-7.641-9.724,13.607-9.724,13.607,12.582-5.466,11.254,2-22.478,10.887-22.478,10.887,14.629-1.651,11.053,5.889C268.757,552.418,243.624,553.8,243.624,553.8Z" transform="translate(-243.577 -507.079)" fill="#569171"/>
                    <path id="Trazado_878979" data-name="Trazado 878979" d="M243.669,571.36s6.868-19.544,20.32-28.386" transform="translate(-243.622 -524.642)" fill="none" stroke="#316007" stroke-miterlimit="10" stroke-width="0.837"/>
                  </g>
                  <g id="Grupo_1189646" data-name="Grupo 1189646" transform="translate(0 65.016)">
                    <path id="Trazado_878980" data-name="Trazado 878980" d="M240.381,574.46s14.479-23.8,20.632-22.381-1.724,7.357-1.724,7.357,13.308-8.368,15.169-3.887-5.219,6.469-5.219,6.469,11.65-3.673,12.976,1.634-11.575,4.562-11.575,4.562,10.066,1.677,6.216,5.8-18.436-2.3-18.436-2.3,9.8,4.887,4.518,8.147C256.629,583.763,240.381,574.46,240.381,574.46Z" transform="translate(-240.381 -552.018)" fill="#7dbb77"/>
                    <path id="Trazado_878981" data-name="Trazado 878981" d="M240.381,586.856s12.193-9.423,24.167-9.5" transform="translate(-240.381 -564.414)" fill="none" stroke="#316007" stroke-miterlimit="10" stroke-width="0.837"/>
                  </g>
                </g>
              </g>
              <g id="Grupo_1189649" data-name="Grupo 1189649" transform="translate(27.103)">
                <rect id="Rectángulo_402977" data-name="Rectángulo 402977" width="98.096" height="17.25" transform="translate(6.324 162.502)" fill="#b5cfea"/>
                <rect id="Rectángulo_402978" data-name="Rectángulo 402978" width="103.12" height="4.308" transform="translate(6.324 162.502)" fill="#97b6d3"/>
                <rect id="Rectángulo_402979" data-name="Rectángulo 402979" width="120.502" height="5.529" transform="translate(0 156.973)" fill="#78a4da"/>
                <path id="Trazado_878982" data-name="Trazado 878982" d="M105.264,488.2a79.5,79.5,0,0,0-1.319,15.091c.223,7.156,1.319,18.424,1.319,18.424s5.907,2.4,5.755,6.3H99.3l-.609-33.633Z" transform="translate(-30.016 -371.042)" fill="#872a21"/>
                <path id="Trazado_878983" data-name="Trazado 878983" d="M1.023,550.276s-16.9,1.954-13.4-16.457c.761,2.906,2.525,12.816,14.922,11.889C5.591,544.946,1.023,550.276,1.023,550.276Z" transform="translate(24.557 -393.363)" fill="#d25937"/>
                <path id="Trazado_878984" data-name="Trazado 878984" d="M128.015,356.869s-10.277,9.079-15.987,19.356-13.7,22.611-13.7,22.611l-21.24,5.938,1.37,15.913,24.381-3.449a13.236,13.236,0,0,0,9.062-5.618l12.236-17.833Z" transform="translate(-19.447 -306.787)" fill="#fff"/>
                <path id="Trazado_878985" data-name="Trazado 878985" d="M118.672,439.04a11.317,11.317,0,0,1,8.222,8.679" transform="translate(-39.795 -346.99)" fill="none" stroke="#d8d6cb" stroke-miterlimit="10" stroke-width="0.633"/>
                <path id="Trazado_878986" data-name="Trazado 878986" d="M128.913,459.587A8.449,8.449,0,0,0,120.464,468l3.6-.509a13.238,13.238,0,0,0,9.062-5.618l.559-.815A8.407,8.407,0,0,0,128.913,459.587Z" transform="translate(-40.671 -357.043)" fill="#e9e9e8"/>
                <path id="Trazado_878987" data-name="Trazado 878987" d="M65,385.079s27.132,6.028,37.623,16.337C77.788,405.025,66.978,389.647,65,385.079Z" transform="translate(-13.534 -320.589)" fill="#78a4da"/>
                <path id="Trazado_878988" data-name="Trazado 878988" d="M211.874,514.022l1.979,48.267h-26.8l-1.339-21.013H183.4l-.761,21.013H160.409l5.382-49.942S201.368,510.063,211.874,514.022Z" transform="translate(-60.215 -382.537)" fill="#19657c"/>
                <path id="Trazado_878989" data-name="Trazado 878989" d="M177.7,431.923s16.368,2.284,27.293,0c8.184-85.419,5.081-89.587,5.081-89.587l-18.138,3.2L180.543,393.1Z" transform="translate(-68.676 -299.676)" fill="#78a4da"/>
                <path id="Trazado_878990" data-name="Trazado 878990" d="M191.564,519.682s10.734,1.028,14.845,0,0-7.08,0-7.08l-14.389.457Z" transform="translate(-75.458 -382.982)" fill="#104551"/>
                <path id="Trazado_878991" data-name="Trazado 878991" d="M203.544,548.842s-2.181-12.656-1.947-21.687" transform="translate(-80.359 -390.102)" fill="none" stroke="#093f51" stroke-miterlimit="10" stroke-width="0.735"/>
                <path id="Trazado_878992" data-name="Trazado 878992" d="M209.96,548.842s.2-16.424.539-21.687" transform="translate(-84.459 -390.102)" fill="none" stroke="#093f51" stroke-miterlimit="10" stroke-width="0.735"/>
                <path id="Trazado_878993" data-name="Trazado 878993" d="M183.933,342.336l-19.185,7.422S151.5,394.923,152.186,465.04l21.926-.685S174.511,372.193,183.933,342.336Z" transform="translate(-56.18 -299.676)" fill="#fff"/>
                <path id="Trazado_878994" data-name="Trazado 878994" d="M227.577,342.336S247.5,352.671,250.7,359.294s-5.025,46.592-5.025,63.95-1.142,42.481-1.142,42.481l-31.037-1.6S212.218,371.97,227.577,342.336Z" transform="translate(-86.178 -299.676)" fill="#fff"/>
                <path id="Trazado_878995" data-name="Trazado 878995" d="M236.226,347.883v13.211l-5.127,2.512,1.662,5.71L220.67,389.391" transform="translate(-89.699 -302.39)" fill="none" stroke="#d8d6cb" stroke-miterlimit="10" stroke-width="0.633"/>
                <path id="Trazado_878996" data-name="Trazado 878996" d="M190.875,348.606l-7.609,15.431,4.619.914-4.263,4.568,8.792,20.857" transform="translate(-71.398 -302.744)" fill="none" stroke="#d8d6cb" stroke-miterlimit="10" stroke-width="0.633"/>
                <rect id="Rectángulo_402980" data-name="Rectángulo 402980" width="22.451" height="7.309" transform="translate(133.166 124.481)" fill="#e9e9e8"/>
                <path id="Trazado_878997" data-name="Trazado 878997" d="M224.968,516.85v11.665a5.669,5.669,0,0,0,5.843,5.666l10.96-.338a5.668,5.668,0,0,0,5.493-5.588l.155-11.4" transform="translate(-91.802 -385.06)" fill="none" stroke="#d8d6cb" stroke-miterlimit="10" stroke-width="0.633"/>
                <line id="Línea_630" data-name="Línea 630" x1="19.556" y2="6.809" transform="translate(107.963 45.493)" fill="none" stroke="#d8d6cb" stroke-miterlimit="10" stroke-width="0.633"/>
                <path id="Trazado_878998" data-name="Trazado 878998" d="M244.536,577.133s.093-2.058.227-5.394c-10.822-.434-24.942-1.3-31.289-1.7,0,3.491.026,5.494.026,5.494Z" transform="translate(-86.178 -411.085)" fill="#e9e9e8"/>
                <path id="Trazado_878999" data-name="Trazado 878999" d="M152.189,577.032l21.926-.685s.008-1.853.048-5.113l-22,1.006C152.168,573.825,152.173,575.42,152.189,577.032Z" transform="translate(-56.182 -411.669)" fill="#e9e9e8"/>
                <path id="Trazado_879000" data-name="Trazado 879000" d="M201.062,332.721s-3.5,13.342,7.841,17.91" transform="translate(-79.856 -294.972)" fill="none" stroke="#17577a" stroke-miterlimit="10" stroke-width="2.708"/>
                <path id="Trazado_879001" data-name="Trazado 879001" d="M241.771,303.877s1.313,8.965-4.682,14.731c-1.361-12.677-1.843-14.33-1.843-14.33Z" transform="translate(-96.831 -280.859)" fill="#9e701e"/>
                <path id="Trazado_879002" data-name="Trazado 879002" d="M225.554,307.7l.925,17.691s-6.966,7.137-13.646,7.422c-2.912,0-.97-4.91-.97-4.91l.171-6.795Z" transform="translate(-85.08 -282.729)" fill="#f4b7a6"/>
                <path id="Trazado_879003" data-name="Trazado 879003" d="M222.027,323.406l-7.66,3.7-1.7,1.69-.148,5.875C219.064,331.689,222.027,323.406,222.027,323.406Z" transform="translate(-85.709 -290.414)" fill="#b75d46"/>
                <path id="Trazado_879004" data-name="Trazado 879004" d="M194.311,279.672s0,12.79.228,15.835c4.644,2.893,14.084,1.37,14.084,1.37l4.8-7.918.228-12.942L210.375,270l-16.064,2.741S192.713,277.007,194.311,279.672Z" transform="translate(-76.455 -264.286)" fill="#f4b7a6"/>
                <path id="Trazado_879005" data-name="Trazado 879005" d="M188.933,271.281a6.245,6.245,0,0,1,2.5-1.464c2.292-.735,7.815-2.334,10.315-1.56,3.2.99,4.72,7.156,3.045,14.313-.761,4.263-5.862,5.786-5.862,5.786s-1.9-2.817-7.309-.761a25.622,25.622,0,0,0-3.883,2.436s-.076,9.059,1.37,10.659,11.42-3.35,14.465-5.938,6.624-8.3,6.852-13.095l3.654-4.872s-1.142-7.993-3.5-10.049c3.35-.076,3.121-1.751-.838-1.675.609-3.73-1.218-3.045-1.751-.837-3.2-5.025-7.156-5.482-10.658-5.406s1.37,2.056,1.37,2.056-13.171-.914-18.2,5.938c-2.664,3.426,2.664,2.893,2.664,2.893a11.44,11.44,0,0,0-3.411,3.883c-.852,2.056,7.75.609,7.75.609A4.079,4.079,0,0,1,188.933,271.281Z" transform="translate(-69.654 -258.809)" fill="#9e701e"/>
                <path id="Trazado_879006" data-name="Trazado 879006" d="M200.378,306.225a9.339,9.339,0,0,0-.363,5.36l2.723-1.629" transform="translate(-79.477 -282.008)" fill="none" stroke="#5b3d0c" stroke-miterlimit="10" stroke-width="0.677"/>
                <path id="Trazado_879007" data-name="Trazado 879007" d="M207.886,301.446a5.257,5.257,0,0,1,5.481-1.523" transform="translate(-83.444 -278.828)" fill="none" stroke="#5b3d0c" stroke-miterlimit="10" stroke-width="1.354"/>
                <path id="Trazado_879008" data-name="Trazado 879008" d="M198.793,318.847l5.563-1.84A4.36,4.36,0,0,1,198.793,318.847Z" transform="translate(-78.995 -287.284)" fill="#fff"/>
                <path id="Trazado_879009" data-name="Trazado 879009" d="M196.869,303.2s-.316-.4-1.814-.171" transform="translate(-77.166 -280.409)" fill="none" stroke="#5b3d0c" stroke-miterlimit="10" stroke-width="1.015"/>
                <path id="Trazado_879010" data-name="Trazado 879010" d="M206.839,291.083a10.279,10.279,0,0,1,5.881-1.485c2.227.114.2-2.112-2.639-1.656S206.61,290.056,206.839,291.083Z" transform="translate(-82.911 -273.033)" fill="#9e701e"/>
                <path id="Trazado_879011" data-name="Trazado 879011" d="M194.993,289.822c0,.44,0,1.173,0,2.1a9.318,9.318,0,0,1,2.64.111A3.531,3.531,0,0,0,194.993,289.822Z" transform="translate(-77.136 -273.983)" fill="#9e701e"/>
                <path id="Trazado_879012" data-name="Trazado 879012" d="M242.746,297.6c-1.159,2.709-3.662,4.238-5.59,3.413s-2.551-3.69-1.392-6.4,3.662-4.238,5.59-3.413S243.905,294.892,242.746,297.6Z" transform="translate(-96.799 -274.548)" fill="#f4b7a6"/>
                <path id="Trazado_879013" data-name="Trazado 879013" d="M243.91,299.853a6.67,6.67,0,0,0,.511-3.62,2.752,2.752,0,0,0-.692-.43c-1.928-.825-4.431.7-5.589,3.413a6.665,6.665,0,0,0-.511,3.62,2.758,2.758,0,0,0,.692.43C240.248,304.091,242.751,302.563,243.91,299.853Z" transform="translate(-97.963 -276.8)" fill="#d89282"/>
                <path id="Trazado_879014" data-name="Trazado 879014" d="M217.493,307.422c.071.743-1.151,1.468-2.73,1.619s-2.917-.328-2.988-1.072,1.151-1.468,2.73-1.619S217.422,306.679,217.493,307.422Z" transform="translate(-85.346 -282.056)" fill="#c7240c" opacity="0.44" style="mix-blend-mode: multiply;isolation: isolate"/>
                <path id="Trazado_879015" data-name="Trazado 879015" d="M165.466,463.888s1.154,5.786,3.394,7c11.985-.152,31.931-1.352,38.63-4.787s18.4-35.717,18.4-35.717L207.751,444.7l-33.607,15.378Z" transform="translate(-62.689 -342.757)" fill="#e9e9e8" opacity="0.43" style="mix-blend-mode: multiply;isolation: isolate"/>
                <path id="Trazado_879016" data-name="Trazado 879016" d="M195.1,307.823c.011.842.023,1.664.039,2.43.986-.3,1.645-.844,1.592-1.394C196.687,308.345,196.026,307.963,195.1,307.823Z" transform="translate(-77.191 -282.79)" fill="#c7240c" opacity="0.44" style="mix-blend-mode: multiply;isolation: isolate"/>
                <path id="Trazado_879017" data-name="Trazado 879017" d="M238.985,346.709s12.274,6.769,18.405,13.2" transform="translate(-98.66 -301.816)" fill="none" stroke="#d8d6cb" stroke-miterlimit="10" stroke-width="0.633"/>
                <path id="Trazado_879018" data-name="Trazado 879018" d="M231.188,302.648s6.7,31.823-12.942,33.5" transform="translate(-88.513 -280.258)" fill="none" stroke="#17577a" stroke-miterlimit="10" stroke-width="2.708"/>
                <path id="Trazado_879019" data-name="Trazado 879019" d="M188.267,370.822s-3.684,19.293,9.634,27.524,5.36,33.641,5.36,33.641.194,20.953-20.59,17.527-23.753-14.05-23.753-14.05" transform="translate(-59.486 -313.614)" fill="none" stroke="#17577a" stroke-miterlimit="10" stroke-width="1.015"/>
                <path id="Trazado_879020" data-name="Trazado 879020" d="M197.864,263.727a16.408,16.408,0,0,1,8.1-2.021c-2.756-2.664-5.839-2.95-8.632-2.89-3.5.076,1.37,2.056,1.37,2.056s-13.171-.914-18.2,5.938c-2.664,3.426,2.664,2.893,2.664,2.893a11.439,11.439,0,0,0-3.411,3.883c-.852,2.056,7.75.609,7.75.609s0,12.79.228,15.835c0,0-.076,9.059,1.37,10.658.88.972,4.911-.478,8.621-2.344.121-.133.241-.259.363-.4,8.679-9.859,3.123-29.813,3.123-29.813S193.639,266.011,197.864,263.727Z" transform="translate(-69.654 -258.809)" fill="#fff" opacity="0.17" style="mix-blend-mode: overlay;isolation: isolate"/>
                <path id="Trazado_879021" data-name="Trazado 879021" d="M215.127,367.817h0a1.906,1.906,0,0,1-1.9-1.9v-1.148a1.906,1.906,0,0,1,1.9-1.9h0a1.906,1.906,0,0,1,1.9,1.9v1.148A1.906,1.906,0,0,1,215.127,367.817Z" transform="translate(-86.057 -309.722)" fill="#fff"/>
                <path id="Trazado_879022" data-name="Trazado 879022" d="M240.186,297.778s2.753.432,1.085,3.858c-.754,1.142-3.207-.43-3.207-.43A6.04,6.04,0,0,1,240.186,297.778Z" transform="translate(-98.209 -277.875)" fill="#584569"/>
                <path id="Trazado_879023" data-name="Trazado 879023" d="M43.645,400.676a74.6,74.6,0,0,1,0-13.247c.609-8.374,3.045-12.638,10.049-14.008s10.746,1.827,17.173,1.371,8.559-1.98,9.168-.457,1.523,6.09-1.827,8.831-12.485,6.2-14.313,9.268-3.79,10.222-1.895,18.14,2.2,21.166-.541,27.484-1.827,29-1.827,29,5.3.609,5.468,4.568H53.085v-30l-4.111,3.5s8.983,11.115-7.309,21.469c7.309,0,10.049,2.131,9.745,5.025H13.345s-4.416-18.119,5.177-32.889S43.34,409.355,43.645,400.676Z" transform="translate(12.235 -314.717)" fill="#d25937"/>
                <path id="Trazado_879024" data-name="Trazado 879024" d="M106.947,382.715c2.67-1.34,1.6-5.89.832-8.224-2.919-.516-5.551-1.414-8.826-1.4a40.812,40.812,0,0,0-.977,4.3C96.911,383.323,103.306,384.542,106.947,382.715Z" transform="translate(-29.611 -314.723)" fill="#872a21"/>
                <path id="Trazado_879025" data-name="Trazado 879025" d="M51.787,476.212c8.222-1.564,5.786-7.572.3-13.969a15.884,15.884,0,0,1-3.66-8.14c-3.571,4.887-8.061,10.292-12.3,15.885C38.384,475.126,45.134,477.477,51.787,476.212Z" transform="translate(0.591 -354.36)" fill="#872a21"/>
                <path id="Trazado_879026" data-name="Trazado 879026" d="M133.568,387.088s-6.5,4.151-9.363,4.912-2.861-.609-2.861-.609" transform="translate(-41.102 -321.572)" fill="none" stroke="#442c0c" stroke-miterlimit="10" stroke-width="0.677"/>
                <path id="Trazado_879027" data-name="Trazado 879027" d="M142.363,377.048a9.013,9.013,0,0,0-.516-2.141c-.353-.883-1.227-.74-3.146-.376a2.114,2.114,0,0,0,.1,1.138C139.268,377.163,141.052,377.224,142.363,377.048Z" transform="translate(-49.576 -315.289)" fill="#442c0c"/>
                <path id="Trazado_879028" data-name="Trazado 879028" d="M106.425,384.626a1.335,1.335,0,1,1-1.336-1.336A1.336,1.336,0,0,1,106.425,384.626Z" transform="translate(-32.496 -319.714)" fill="#442c0c"/>
                <path id="Trazado_879029" data-name="Trazado 879029" d="M80.684,382.4s1.218,7.461,3.806,12.029.761,10.811-5.025,10.811-5.9-8.111-5.693-14.333S76.116,382.853,80.684,382.4Z" transform="translate(-17.8 -319.276)" fill="#872a21"/>
                <path id="Trazado_879030" data-name="Trazado 879030" d="M93.547,435.185,92.329,437.9a28.078,28.078,0,0,1-23.753-7.13l.609-3.654Z" transform="translate(-15.284 -341.156)" fill="#19657c"/>
                <path id="Trazado_879031" data-name="Trazado 879031" d="M67.6,510.537s-7.765-8.527-17.206,0" transform="translate(-6.386 -380.117)" fill="none" stroke="#872a21" stroke-miterlimit="10" stroke-width="1.015"/>
                <line id="Línea_631" data-name="Línea 631" y1="6.243" transform="translate(65.32 120.675)" fill="none" stroke="#872a21" stroke-miterlimit="10" stroke-width="1.015"/>
                <path id="Trazado_879032" data-name="Trazado 879032" d="M107.117,563.685a4.989,4.989,0,0,0-3.959-2.46" transform="translate(-32.204 -406.772)" fill="none" stroke="#442c0c" stroke-miterlimit="10" stroke-width="0.677"/>
                <path id="Trazado_879033" data-name="Trazado 879033" d="M75.885,562.978s.457-2.741-7.309-3.2" transform="translate(-15.284 -406.065)" fill="none" stroke="#442c0c" stroke-miterlimit="10" stroke-width="0.677"/>
                <path id="Trazado_879034" data-name="Trazado 879034" d="M26.44,548.536c2.146-5.287.031-12.2-3.8-16.14-3.493-3.591-7.479-1.924-9.913-.243a50.176,50.176,0,0,0,.625,16.383Z" transform="translate(12.231 -391.623)" fill="#872a21"/>
                <circle id="Elipse_11592" data-name="Elipse 11592" cx="4.853" cy="4.853" r="4.853" transform="translate(72.482 102.213)" fill="#a5a39a"/>
                <circle id="Elipse_11593" data-name="Elipse 11593" cx="2.896" cy="2.896" r="2.896" transform="translate(74.48 104.386)" fill="none" stroke="#fff" stroke-miterlimit="10" stroke-width="1.251"/>
                <path id="Trazado_879035" data-name="Trazado 879035" d="M140.478,466.849s-2.912,1.4-9.85-1.111-9.678-3.712-11.276-3.34a2.165,2.165,0,0,0-1.6,2.084s-2.512-1.256-3.312,0,.8,2.512,2.056,4.567,1.028,4.454,1.941,6.509,7.423,4.671,12.79,4.676,12.561,0,12.561,0Z" transform="translate(-37.62 -358.386)" fill="#f4b7a6"/>
                <path id="Trazado_879036" data-name="Trazado 879036" d="M223.437,370.822s-11.132,1.039-20.354,19.539-13.168,24.666-13.168,24.666l-28.257,4.34s-1.37,9.593.914,17.358c20.327.914,35.572-.914,40.511-3.654s20.826-32.445,20.826-32.445S231.315,373.666,223.437,370.822Z" transform="translate(-60.627 -313.614)" fill="#fff"/>
                <path id="Trazado_879037" data-name="Trazado 879037" d="M234.258,471.177a9.274,9.274,0,0,0-8.329,13.386,28.384,28.384,0,0,0,8.329-2.392c1.477-.82,3.934-4.053,6.652-8.181A9.257,9.257,0,0,0,234.258,471.177Z" transform="translate(-91.802 -362.714)" fill="#e9e9e8"/>
                <path id="Trazado_879038" data-name="Trazado 879038" d="M171.156,482.22a63.944,63.944,0,0,1-1.085-18.879l-8.412,1.292s-1.37,9.593.914,17.358Q167.037,482.192,171.156,482.22Z" transform="translate(-60.627 -358.88)" fill="#e9e9e8"/>
                <path id="Trazado_879039" data-name="Trazado 879039" d="M226.042,460.952c-2.131-3.2-8.666-3.578-8.666-3.578" transform="translate(-88.087 -355.961)" fill="none" stroke="#d8d6cb" stroke-miterlimit="10" stroke-width="0.633"/>
                <path id="Trazado_879040" data-name="Trazado 879040" d="M227.712,455.413a18.361,18.361,0,0,0-9.725,0" transform="translate(-88.386 -354.684)" fill="none" stroke="#d8d6cb" stroke-miterlimit="10" stroke-width="0.633"/>
                <path id="Trazado_879041" data-name="Trazado 879041" d="M178.52,418.059l19.845-3.048s14.27-26.391,18.012-32.724,11.059-11.835,15.509-11.481" transform="translate(-69.076 -313.598)" fill="none" stroke="#d8d6cb" stroke-miterlimit="10" stroke-width="0.633"/>
                <path id="Trazado_879042" data-name="Trazado 879042" d="M160.563,400.22s3.049-30.275,8.3-43.351" transform="translate(-60.291 -306.787)" fill="none" stroke="#d8d6cb" stroke-miterlimit="10" stroke-width="0.633"/>
                <circle id="Elipse_11594" data-name="Elipse 11594" cx="0.324" cy="0.324" r="0.324" transform="translate(71.601 64.718)" fill="#fff"/>
                <path id="Trazado_879043" data-name="Trazado 879043" d="M121.334,394.917s-1.294.381-1.332,1.294" transform="translate(-40.445 -325.402)" fill="none" stroke="#442c0c" stroke-miterlimit="10" stroke-width="0.677"/>
                <circle id="Elipse_11595" data-name="Elipse 11595" cx="0.285" cy="0.285" r="0.285" transform="translate(85.571 65.516)" fill="#442c0c"/>
                <path id="Trazado_879044" data-name="Trazado 879044" d="M136.791,384.488a.285.285,0,1,1-.285-.285A.285.285,0,0,1,136.791,384.488Z" transform="translate(-48.38 -320.16)" fill="#442c0c"/>
                <path id="Trazado_879045" data-name="Trazado 879045" d="M135.972,388.245a.285.285,0,1,1-.285-.285A.285.285,0,0,1,135.972,388.245Z" transform="translate(-47.98 -321.999)" fill="#442c0c"/>
                <path id="Trazado_879046" data-name="Trazado 879046" d="M74.551,387.807a13.681,13.681,0,0,0-.873,4.853c0,.026,0,.052,0,.078-.032.333-.065.662-.09,1.009-.023.322-.042.628-.062.939l18.563,8.485a17.952,17.952,0,0,1,1.749-4.42,4.922,4.922,0,0,1,.791-.963c-8.063-1.506-16.524-9.022-19.422-11.8A15.1,15.1,0,0,0,74.551,387.807Z" transform="translate(-17.705 -321.034)" fill="#442c0c" opacity="0.42" style="mix-blend-mode: multiply;isolation: isolate"/>
                <path id="Trazado_879047" data-name="Trazado 879047" d="M67.434,406.548,65,385.079s12.972,13.945,37.623,16.337L91.8,414.618S72.459,414.923,67.434,406.548Z" transform="translate(-13.534 -320.589)" fill="#b5cfea"/>
                <path id="Trazado_879048" data-name="Trazado 879048" d="M65,385.079l2.436,21.469c2.282,3.8,7.517,5.814,12.552,6.878-5.729-6.189-6.838-17.071-7.037-22.081A44.894,44.894,0,0,1,65,385.079Z" transform="translate(-13.534 -320.589)" fill="#97b6d3"/>
              </g>
            </g>
            <g id="Grupo_1189656" data-name="Grupo 1189656" transform="translate(270.432 1.052)">
              <g id="Grupo_1189651" data-name="Grupo 1189651" transform="translate(41.973 16.54)">
                <rect id="Rectángulo_402981" data-name="Rectángulo 402981" width="13.714" height="9.452" transform="translate(0 3.232)" fill="#a1d9e2"/>
                <rect id="Rectángulo_402982" data-name="Rectángulo 402982" width="13.714" height="3.232" fill="#fff"/>
                <rect id="Rectángulo_402983" data-name="Rectángulo 402983" width="7.78" height="4.162" transform="translate(5.934 5.903)" fill="#fff"/>
                <line id="Línea_632" data-name="Línea 632" x2="13.714" transform="translate(0 1.616)" fill="none" stroke="#a1d9e2" stroke-miterlimit="10" stroke-width="0.586"/>
              </g>
              <g id="Grupo_1189652" data-name="Grupo 1189652" transform="translate(17.998 10.492)">
                <path id="Rectángulo_402984" data-name="Rectángulo 402984" d="M3.02,0h0A3.02,3.02,0,0,1,6.04,3.02V14.808a0,0,0,0,1,0,0H0a0,0,0,0,1,0,0V3.02A3.02,3.02,0,0,1,3.02,0Z" transform="translate(0 4.177)" fill="#6ba6bf"/>
                <rect id="Rectángulo_402985" data-name="Rectángulo 402985" width="2.3" height="4.189" transform="translate(1.867)" fill="#fff"/>
                <rect id="Rectángulo_402986" data-name="Rectángulo 402986" width="6.04" height="2.416" transform="translate(0 10.51)" fill="#fff"/>
                <line id="Línea_633" data-name="Línea 633" y2="4.177" transform="translate(3.017)" fill="none" stroke="#a1d9e2" stroke-miterlimit="10" stroke-width="0.537"/>
              </g>
              <g id="Grupo_1189653" data-name="Grupo 1189653" transform="translate(9.856 10.492)">
                <path id="Rectángulo_402987" data-name="Rectángulo 402987" d="M3.02,0h0A3.02,3.02,0,0,1,6.04,3.02V14.808a0,0,0,0,1,0,0H0a0,0,0,0,1,0,0V3.02A3.02,3.02,0,0,1,3.02,0Z" transform="translate(0 4.177)" fill="#a1d9e2"/>
                <rect id="Rectángulo_402988" data-name="Rectángulo 402988" width="2.3" height="4.189" transform="translate(1.867)" fill="#fff"/>
                <rect id="Rectángulo_402989" data-name="Rectángulo 402989" width="6.04" height="2.416" transform="translate(0 10.51)" fill="#fff"/>
                <line id="Línea_634" data-name="Línea 634" y2="4.177" transform="translate(3.017)" fill="none" stroke="#a1d9e2" stroke-miterlimit="10" stroke-width="0.537"/>
              </g>
              <g id="Grupo_1189655" data-name="Grupo 1189655" transform="translate(42.321 35.411)">
                <path id="Rectángulo_402990" data-name="Rectángulo 402990" d="M0,0H13.018a0,0,0,0,1,0,0V12.69a5.9,5.9,0,0,1-5.9,5.9H5.9A5.9,5.9,0,0,1,0,12.69V0A0,0,0,0,1,0,0Z" transform="translate(13.018 21.974) rotate(180)" fill="#a1d9e2"/>
                <rect id="Rectángulo_402991" data-name="Rectángulo 402991" width="7.615" height="3.411" transform="translate(10.221 3.411) rotate(180)" fill="#fff"/>
                <rect id="Rectángulo_402992" data-name="Rectángulo 402992" width="10.412" height="7.882" transform="translate(13.018 17.577) rotate(180)" fill="#fff"/>
                <g id="Grupo_1189654" data-name="Grupo 1189654" transform="translate(6.414 10.871)">
                  <rect id="Rectángulo_402993" data-name="Rectángulo 402993" width="1.98" height="5.529" transform="translate(3.754 5.529) rotate(180)" fill="#a1d9e2"/>
                  <rect id="Rectángulo_402994" data-name="Rectángulo 402994" width="1.979" height="5.529" transform="translate(5.529 1.775) rotate(90)" fill="#a1d9e2"/>
                </g>
                <line id="Línea_635" data-name="Línea 635" y2="3.411" transform="translate(9.178 0)" fill="none" stroke="#a1d9e2" stroke-miterlimit="10" stroke-width="0.537"/>
                <line id="Línea_636" data-name="Línea 636" y2="3.411" transform="translate(7.231 0)" fill="none" stroke="#a1d9e2" stroke-miterlimit="10" stroke-width="0.537"/>
                <line id="Línea_637" data-name="Línea 637" y2="3.411" transform="translate(5.285 0)" fill="none" stroke="#a1d9e2" stroke-miterlimit="10" stroke-width="0.537"/>
                <line id="Línea_638" data-name="Línea 638" y2="3.411" transform="translate(3.338 0)" fill="none" stroke="#a1d9e2" stroke-miterlimit="10" stroke-width="0.537"/>
              </g>
              <path id="Trazado_879049" data-name="Trazado 879049" d="M506.981,322.655H440.665V260.869h66.316ZM445.6,317.717h56.441V265.807H445.6Z" transform="translate(-440.665 -260.869)" fill="#fff"/>
              <rect id="Rectángulo_402995" data-name="Rectángulo 402995" width="4.938" height="57.888" transform="translate(30.689 1.429)" fill="#fff"/>
              <rect id="Rectángulo_402996" data-name="Rectángulo 402996" width="61.336" height="4.938" transform="translate(2.511 28.424)" fill="#fff"/>
            </g>
            <g id="Grupo_1189666" data-name="Grupo 1189666" transform="translate(198.454 8.508)">
              <g id="Grupo_1189659" data-name="Grupo 1189659" transform="translate(42.94 121.53)">
                <g id="Grupo_1189658" data-name="Grupo 1189658">
                  <g id="Grupo_1189657" data-name="Grupo 1189657">
                    <path id="Trazado_879050" data-name="Trazado 879050" d="M390.473,577.666s20.081-30.341,31.137-18.8c3.868,4.514-30.149,21.073-30.149,21.073Z" transform="translate(-387.07 -534.375)" fill="#336d4c"/>
                    <path id="Trazado_879051" data-name="Trazado 879051" d="M418.826,562.366s-18.444,10.38-23.822,15.9" transform="translate(-389.287 -537.368)" fill="none" stroke="#204800" stroke-miterlimit="10" stroke-width="0.574"/>
                    <path id="Trazado_879052" data-name="Trazado 879052" d="M415.719,572.637A11.984,11.984,0,0,0,417.84,567" transform="translate(-399.422 -539.637)" fill="none" stroke="#204800" stroke-miterlimit="10" stroke-width="0.574"/>
                    <path id="Trazado_879053" data-name="Trazado 879053" d="M395.968,578.474l15.717-20.585c-10.2,3.949-21.213,20.579-21.213,20.579l.87,2.005,1.407-.365C393.533,579.717,394.639,579.159,395.968,578.474Z" transform="translate(-387.07 -535.177)" fill="#204800" opacity="0.65" style="mix-blend-mode: multiply;isolation: isolate"/>
                    <path id="Trazado_879054" data-name="Trazado 879054" d="M383.81,558.194s10.531-52.58,31.409-43.781c7.557,3.713-28.878,46.231-28.878,46.231Z" transform="translate(-383.81 -513.42)" fill="#569171"/>
                    <path id="Trazado_879055" data-name="Trazado 879055" d="M412.012,520.164s-18.233,23.887-23.592,39.844" transform="translate(-386.066 -516.72)" fill="none" stroke="#316007" stroke-miterlimit="10" stroke-width="0.443"/>
                    <path id="Trazado_879056" data-name="Trazado 879056" d="M432.292,530.633s-5.935,1.018-8.443,2.255" transform="translate(-403.4 -521.842)" fill="none" stroke="#316007" stroke-miterlimit="10" stroke-width="0.443"/>
                    <path id="Trazado_879057" data-name="Trazado 879057" d="M410.574,535.578a45.181,45.181,0,0,1,.373,9.35" transform="translate(-396.905 -524.261)" fill="none" stroke="#316007" stroke-miterlimit="10" stroke-width="0.443"/>
                    <path id="Trazado_879058" data-name="Trazado 879058" d="M407.867,567.252a15.646,15.646,0,0,0-6.23,1.4" transform="translate(-392.532 -539.758)" fill="none" stroke="#316007" stroke-miterlimit="10" stroke-width="0.443"/>
                  </g>
                  <path id="Trazado_879059" data-name="Trazado 879059" d="M426.954,570.867a20.3,20.3,0,0,1,7.7.563" transform="translate(-404.919 -541.457)" fill="none" stroke="#204800" stroke-miterlimit="10" stroke-width="0.574"/>
                </g>
              </g>
              <g id="Grupo_1189664" data-name="Grupo 1189664" transform="translate(136.974 123.785)">
                <g id="Grupo_1189660" data-name="Grupo 1189660" transform="translate(14.708 2.152)">
                  <path id="Trazado_879060" data-name="Trazado 879060" d="M643.541,529.167s3.895-5.032,1.229-6.754S640.626,525.444,643.541,529.167Z" transform="translate(-618.849 -522.049)" fill="#7dbb77"/>
                  <path id="Trazado_879061" data-name="Trazado 879061" d="M623.057,545.606s6.055-2.016,4.811-4.925S622.73,540.9,623.057,545.606Z" transform="translate(-609.598 -530.615)" fill="#7dbb77"/>
                  <path id="Trazado_879062" data-name="Trazado 879062" d="M650.024,538.968s6.055-2.016,4.812-4.925S649.7,534.26,650.024,538.968Z" transform="translate(-622.792 -527.367)" fill="#7dbb77"/>
                  <path id="Trazado_879063" data-name="Trazado 879063" d="M617.626,563.925s4.632,4.364,6.63,1.9S621.652,561.421,617.626,563.925Z" transform="translate(-606.951 -541.967)" fill="#7dbb77"/>
                  <path id="Trazado_879064" data-name="Trazado 879064" d="M596.724,553.183s1.952-7.012,12.56-7.727,12.084-11.17,12.271-13.429" transform="translate(-596.724 -526.931)" fill="none" stroke="#651d13" stroke-linecap="round" stroke-miterlimit="10" stroke-width="0.982"/>
                  <path id="Trazado_879065" data-name="Trazado 879065" d="M639.494,545.139s4.479-.982,6.717-4" transform="translate(-617.65 -531.389)" fill="none" stroke="#651d13" stroke-linecap="round" stroke-miterlimit="10" stroke-width="0.982"/>
                  <path id="Trazado_879066" data-name="Trazado 879066" d="M621.315,552.528a8.064,8.064,0,0,1,2.753-6.047" transform="translate(-608.756 -534.003)" fill="none" stroke="#651d13" stroke-linecap="round" stroke-miterlimit="10" stroke-width="0.982"/>
                  <path id="Trazado_879067" data-name="Trazado 879067" d="M608.608,561.322a11.205,11.205,0,0,0,8.15,2.08" transform="translate(-602.538 -541.264)" fill="none" stroke="#651d13" stroke-linecap="round" stroke-miterlimit="10" stroke-width="0.982"/>
                </g>
                <g id="Grupo_1189663" data-name="Grupo 1189663">
                  <g id="Grupo_1189662" data-name="Grupo 1189662">
                    <g id="Grupo_1189661" data-name="Grupo 1189661">
                      <path id="Trazado_879068" data-name="Trazado 879068" d="M574.59,582.081s20.081-30.342,31.138-18.8c3.868,4.514-30.149,21.073-30.149,21.073Z" transform="translate(-571.187 -538.79)" fill="#569171"/>
                      <path id="Trazado_879069" data-name="Trazado 879069" d="M602.943,566.78s-18.444,10.38-23.822,15.9" transform="translate(-573.404 -541.782)" fill="none" stroke="#204800" stroke-miterlimit="10" stroke-width="0.574"/>
                      <path id="Trazado_879070" data-name="Trazado 879070" d="M599.837,577.052a11.98,11.98,0,0,0,2.121-5.633" transform="translate(-583.54 -544.052)" fill="none" stroke="#204800" stroke-miterlimit="10" stroke-width="0.574"/>
                      <path id="Trazado_879071" data-name="Trazado 879071" d="M580.086,582.889,595.8,562.3c-10.2,3.948-21.213,20.579-21.213,20.579l.87,2,1.406-.365C577.651,584.132,578.757,583.574,580.086,582.889Z" transform="translate(-571.187 -539.592)" fill="#204800" opacity="0.65" style="mix-blend-mode: multiply;isolation: isolate"/>
                      <path id="Trazado_879072" data-name="Trazado 879072" d="M567.927,562.608s10.531-52.58,31.409-43.781c7.557,3.713-28.878,46.231-28.878,46.231Z" transform="translate(-567.927 -517.835)" fill="#336d4c"/>
                      <path id="Trazado_879073" data-name="Trazado 879073" d="M596.129,524.579s-18.233,23.887-23.592,39.843" transform="translate(-570.183 -521.134)" fill="none" stroke="#204800" stroke-miterlimit="10" stroke-width="0.574"/>
                      <path id="Trazado_879074" data-name="Trazado 879074" d="M616.41,535.048s-5.935,1.018-8.443,2.254" transform="translate(-587.517 -526.257)" fill="none" stroke="#204800" stroke-miterlimit="10" stroke-width="0.574"/>
                      <path id="Trazado_879075" data-name="Trazado 879075" d="M594.692,539.992a45.186,45.186,0,0,1,.373,9.35" transform="translate(-581.022 -528.676)" fill="none" stroke="#204800" stroke-miterlimit="10" stroke-width="0.574"/>
                      <path id="Trazado_879076" data-name="Trazado 879076" d="M591.984,571.667a15.64,15.64,0,0,0-6.23,1.4" transform="translate(-576.649 -544.173)" fill="none" stroke="#204800" stroke-miterlimit="10" stroke-width="0.574"/>
                    </g>
                    <path id="Trazado_879077" data-name="Trazado 879077" d="M611.071,575.281a20.309,20.309,0,0,1,7.7.563" transform="translate(-589.036 -545.872)" fill="none" stroke="#204800" stroke-miterlimit="10" stroke-width="0.574"/>
                  </g>
                </g>
              </g>
              <g id="Grupo_1189665" data-name="Grupo 1189665">
                <path id="Trazado_879078" data-name="Trazado 879078" d="M493.911,363.743a2.38,2.38,0,0,1,2.809.543c1.269,1.359-1.954,2.084-1.954,2.084Z" transform="translate(-394.739 -318.539)" fill="#a1d9e2"/>
                <path id="Trazado_879079" data-name="Trazado 879079" d="M490.6,354.978s1.914-2.364,3.265-2.589-.225,3.828-1.632,4.841C490.6,355.766,490.6,354.978,490.6,354.978Z" transform="translate(-393.121 -313.098)" fill="#a1d9e2"/>
                <path id="Trazado_879080" data-name="Trazado 879080" d="M486.2,348.459s1.8-3.125,2.928-2.688-.563,3.477-1.464,4.715S486.2,348.459,486.2,348.459Z" transform="translate(-390.964 -309.844)" fill="#a1d9e2"/>
                <path id="Trazado_879081" data-name="Trazado 879081" d="M333.5,281.785a3.607,3.607,0,1,0-5.839-3.736,3.612,3.612,0,0,0-6.122,2.605c0,.1.021.194.03.292a3.6,3.6,0,0,0-5.766,2.9,3.634,3.634,0,0,0,.07.692,3.591,3.591,0,0,0-3.2,5.892,3.6,3.6,0,0,0-2.462,6.04,3.588,3.588,0,0,0-.6,6.081,3.594,3.594,0,0,0,1.3,6.342,3.591,3.591,0,0,0,1.349,6.29,3.576,3.576,0,0,0-.446,1.705,3.619,3.619,0,0,0,3.619,3.619c.038,0,.072-.01.11-.011a3.611,3.611,0,0,0,6.806,2.324,77.93,77.93,0,0,0,7.86,2.857C336.659,320.267,337.51,291.637,333.5,281.785Z" transform="translate(-303.872 -275.467)" fill="#3f0d0b"/>
                <path id="Trazado_879082" data-name="Trazado 879082" d="M576.652,543.47s14.748-1.126,13.172-11.146-4.5-14.523,1.576-15.874c-2.7-1.576-7.768-.788-6.643,8.894s-2.139,12.5-8.894,11.483S576.652,543.47,576.652,543.47Z" transform="translate(-433.461 -393.061)" fill="#d25937"/>
                <path id="Trazado_879083" data-name="Trazado 879083" d="M579.77,556.955a13.172,13.172,0,0,1-3.906-.086c-6.755-1.013.788,6.643.788,6.643a23.937,23.937,0,0,0,2.935-.468A16.409,16.409,0,0,1,579.77,556.955Z" transform="translate(-433.461 -413.103)" fill="#872a21"/>
                <path id="Trazado_879084" data-name="Trazado 879084" d="M512.886,501.7s-4.616,22.179-4.5,33.1H497.574s-1.11-4.734,4.9-4.165c.393-15.987-.617-32.538-.617-32.538S509.058,501.591,512.886,501.7Z" transform="translate(-396.492 -384.394)" fill="#872a21"/>
                <path id="Trazado_879085" data-name="Trazado 879085" d="M500.68,567.16s-.675-2.252,2.477-2.927" transform="translate(-398.021 -416.751)" fill="none" stroke="#3f0d0b" stroke-miterlimit="10" stroke-width="0.806"/>
                <path id="Trazado_879086" data-name="Trazado 879086" d="M518.372,421.393a183.223,183.223,0,0,0,10.7,18.377c5.292,7.629,17.9,20.576,9.682,57.5H514.094s-1.8-3.94,7.543-4.053c-4.391-8.106-3.152-11.933-1.689-15.311-12.158-5.855-26.006-18.238-24.205-29.947s5.066-17.9,5.066-17.9Z" transform="translate(-395.557 -346.864)" fill="#d25937"/>
                <path id="Trazado_879087" data-name="Trazado 879087" d="M507,476.073c-2.012-19.505,4.5-40.356,4.5-40.356l-7.236-.695-3.46,1.708s-3.265,6.192-5.066,17.9C494.589,462.134,499.864,469.912,507,476.073Z" transform="translate(-395.558 -353.532)" fill="#d1d0aa"/>
                <path id="Trazado_879088" data-name="Trazado 879088" d="M519.436,415.221s4.028,2.565.425,7.136-12.435,9.413-18.6,6.148,8.92-10.808,8.92-10.808Z" transform="translate(-397.61 -343.844)" fill="#e5b14a"/>
                <path id="Trazado_879089" data-name="Trazado 879089" d="M486.705,369.214s-11.483-10.5-5.629-22.759c3.265-3.923,6.53,11.2,11.934,14.839l5.4,3.529Z" transform="translate(-387.646 -309.884)" fill="#872a21"/>
                <path id="Trazado_879090" data-name="Trazado 879090" d="M489.823,370.1c-5.157-3.081-7.617-9.966-7.543-13.228s-.708-3.715-.708-3.715l-2.026,2.138c-1.188,9.86,7.168,17.514,7.168,17.514l4.387-1.645A4.733,4.733,0,0,0,489.823,370.1Z" transform="translate(-387.654 -313.477)" fill="#3f0d0b"/>
                <path id="Trazado_879091" data-name="Trazado 879091" d="M387.531,369.958s9.832,8.706,16.137,17.488l6.3,8.782s12.834-15.762,15.086-21.166l9.457,6.305s-11.033,24.993-15.986,33.324-17.113,1.631-26.119-9.542A108.086,108.086,0,0,1,387.531,369.958Z" transform="translate(-342.661 -321.698)" fill="#893929"/>
                <line id="Línea_639" data-name="Línea 639" x1="4.728" y2="6.079" transform="translate(62.583 74.529)" fill="none" stroke="#3f0d0b" stroke-miterlimit="10" stroke-width="0.667"/>
                <path id="Trazado_879092" data-name="Trazado 879092" d="M430.156,449.909a8.107,8.107,0,0,0-7.723,5.647c5.443,2.866,10.441,2.894,13.2-1.748.2-.338.416-.713.636-1.1A8.08,8.08,0,0,0,430.156,449.909Z" transform="translate(-359.767 -360.816)" fill="#3f0d0b" opacity="0.33"/>
                <path id="Trazado_879093" data-name="Trazado 879093" d="M406.386,391.231l-2.718-3.785c-6.3-8.782-16.137-17.488-16.137-17.488a108.086,108.086,0,0,0,4.879,35.19q.826,1.025,1.684,2A48.529,48.529,0,0,1,406.386,391.231Z" transform="translate(-342.661 -321.698)" fill="#fff"/>
                <path id="Trazado_879094" data-name="Trazado 879094" d="M395.792,420.884q.826,1.025,1.684,2a48.53,48.53,0,0,1,12.292-15.912l-2.718-3.786c-.254-.354-.517-.709-.782-1.062a52.1,52.1,0,0,0-11.885,13.937Q395.012,418.446,395.792,420.884Z" transform="translate(-346.043 -337.434)" fill="#e9e9e8"/>
                <path id="Trazado_879095" data-name="Trazado 879095" d="M338.913,360.847l10.139,4.653s8.256,21.316,8.856,27.47-.9,14.711-1.2,19.514,12.159,53.889,11.108,75.8H317.829s-9.758-21.616-4.654-40.829,7.356-48.935-4.353-75.8c9.457-7.956,18-9.982,18-9.982Z" transform="translate(-304.181 -317.241)" fill="#fff"/>
                <path id="Trazado_879096" data-name="Trazado 879096" d="M367.261,484.6l-24.36-3.019-18.593-13.952a131.045,131.045,0,0,1-1.211,17.256c2.615,3.813,6.545,8.058,11.445,8.892,7.907,1.346,28.488-.428,34.332-.974C368.324,489.948,367.78,487.2,367.261,484.6Z" transform="translate(-311.165 -369.485)" fill="#e9e9e8" opacity="0.43" style="mix-blend-mode: multiply;isolation: isolate"/>
                <path id="Trazado_879097" data-name="Trazado 879097" d="M448.282,486.867a15.955,15.955,0,0,1,2.1-4.053c.976-.976,3.077,2.777,3.152,4.353S449.333,490.319,448.282,486.867Z" transform="translate(-372.414 -376.837)" fill="#7f2b0e"/>
                <path id="Trazado_879098" data-name="Trazado 879098" d="M451.368,494.96s1.126-6.229,4.128-5.7.6,3.6.6,3.6,4.878-1.2,3.978,2.852C459.624,497.136,454.282,497.962,451.368,494.96Z" transform="translate(-373.924 -380.052)" fill="#bf8826"/>
                <path id="Trazado_879099" data-name="Trazado 879099" d="M439.906,489.556a2.555,2.555,0,0,1,2.777-2.627c2.777.15,4.128,2.327,4.8,4.053s-2.1,3.528-3.528,2.777S439.906,489.556,439.906,489.556Z" transform="translate(-368.316 -378.926)" fill="#599775"/>
                <path id="Trazado_879100" data-name="Trazado 879100" d="M461.841,504.419s5.854-3.827,4.053-5.179-5.554.375-8.406,1.2S461.841,504.419,461.841,504.419Z" transform="translate(-376.592 -384.708)" fill="#6ba6bf"/>
                <path id="Trazado_879101" data-name="Trazado 879101" d="M363.084,282.744s-3.865-5.667-12.346-5.516c-7.881,8.106-7.506,21.841-7.205,23.492l2.927-.225S352.314,285.108,363.084,282.744Z" transform="translate(-321.104 -276.327)" fill="#fff"/>
                <path id="Trazado_879102" data-name="Trazado 879102" d="M345.478,328.517s.01,11.408-1.406,17.037a158.724,158.724,0,0,1,15.846,15.911l-3.759-16.737a56.148,56.148,0,0,1,0-9.832C356.691,331.294,346.724,326.116,345.478,328.517Z" transform="translate(-321.428 -301.123)" fill="#893929"/>
                <path id="Trazado_879103" data-name="Trazado 879103" d="M360.475,340.323l-7.406-2.746s2.367,6.513,7.351,9.7A49.794,49.794,0,0,1,360.475,340.323Z" transform="translate(-325.83 -305.855)" fill="#3f0d0b"/>
                <path id="Trazado_879104" data-name="Trazado 879104" d="M350.294,296.739c-5.473,4.391-.494-3.827-.831-5.4s-2.139,3.039-3.927,5.967.324-2.365,1.787-6.417c1.027-2.842.42-3.965-.034-4.384-4.3,7.855-4,17.4-3.756,18.757l2.927-.225a43.69,43.69,0,0,1,5.043-9.077A5.062,5.062,0,0,0,350.294,296.739Z" transform="translate(-321.104 -280.866)" fill="#e9e9e8"/>
                <path id="Trazado_879105" data-name="Trazado 879105" d="M364.755,288.031s3.94,5.4,3.378,15.2-1.126,15.2-3.152,16.1-12.834-.675-15.987-7.768c-2.589-5.291-2.139-7.766-2.139-7.766S351.357,289.72,364.755,288.031Z" transform="translate(-322.774 -281.614)" fill="#893929"/>
                <path id="Trazado_879106" data-name="Trazado 879106" d="M383.324,320.692a44.891,44.891,0,0,1,0,4.9l-2.421-.281" transform="translate(-339.448 -297.594)" fill="none" stroke="#3f0d0b" stroke-miterlimit="10" stroke-width="0.667"/>
                <path id="Trazado_879107" data-name="Trazado 879107" d="M378.788,333.311a19.723,19.723,0,0,1-5.4-1.295C373.947,333.423,377.437,336.012,378.788,333.311Z" transform="translate(-335.769 -303.135)" fill="#fff"/>
                <path id="Trazado_879108" data-name="Trazado 879108" d="M369.392,307.1a9.976,9.976,0,0,0-9.062-.507c1.745-2.308,6.754-2.815,8.837-1.632C369.843,306.373,369.392,307.1,369.392,307.1Z" transform="translate(-329.382 -289.598)" fill="#3f0d0b"/>
                <path id="Trazado_879109" data-name="Trazado 879109" d="M366.235,324.719c0,1-1.268,1.8-2.832,1.8s-2.831-.807-2.831-1.8,1.268-1.8,2.831-1.8S366.235,323.722,366.235,324.719Z" transform="translate(-329.5 -298.682)" fill="#c7240c" opacity="0.38"/>
                <ellipse id="Elipse_11596" data-name="Elipse 11596" cx="3.856" cy="4.237" rx="3.856" ry="4.237" transform="matrix(0.923, -0.384, 0.384, 0.923, 18.19, 23.501)" fill="#893929"/>
                <path id="Trazado_879110" data-name="Trazado 879110" d="M343.853,324.793a4.061,4.061,0,0,0-5.186-2.434,3.528,3.528,0,0,0-.645.353,4.458,4.458,0,0,0,.175,2.979,4.06,4.06,0,0,0,5.186,2.434,3.552,3.552,0,0,0,.645-.352A4.46,4.46,0,0,0,343.853,324.793Z" transform="translate(-318.381 -298.277)" fill="#6b291e"/>
                <path id="Trazado_879111" data-name="Trazado 879111" d="M370.7,315.269a13.587,13.587,0,0,0-6.289.992c4.808.948,6.124,1.138,6.124,1.138S370.9,316.95,370.7,315.269Z" transform="translate(-331.38 -294.922)" fill="#fff"/>
                <path id="Trazado_879112" data-name="Trazado 879112" d="M364.414,316.234s1.8-1.266,7.708-1.03" transform="translate(-331.38 -294.895)" fill="none" stroke="#3f0d0b" stroke-miterlimit="10" stroke-width="1.001"/>
                <path id="Trazado_879113" data-name="Trazado 879113" d="M304.376,382.006s-7.655,2.4-3.3,21.916,16.342,40.529,21.306,41.13,35.736,1.651,35.736,1.651l-1.351-10.658-26.869-6.3s-10.057-23.117-12.609-32.573S306.777,381.856,304.376,382.006Z" transform="translate(-299.735 -327.592)" fill="#893929"/>
                <path id="Trazado_879114" data-name="Trazado 879114" d="M317.285,397.167c-2.552-9.457-10.508-15.311-12.909-15.161,0,0-7.655,2.4-3.3,21.916a110.214,110.214,0,0,0,6.6,19.774c4.406-4.59,13.1-6.886,16.489-7.633C321.436,409.32,318.5,401.685,317.285,397.167Z" transform="translate(-299.735 -327.592)" fill="#fff"/>
                <path id="Trazado_879115" data-name="Trazado 879115" d="M313.119,451.515c4.406-4.59,13.1-6.886,16.489-7.633-.664-1.64-1.34-3.333-2-5.022-4.346.982-11.889,3.148-16.753,7.105C311.576,447.859,312.332,449.72,313.119,451.515Z" transform="translate(-305.176 -355.41)" fill="#e9e9e8"/>
                <line id="Línea_640" data-name="Línea 640" x1="5.254" y1="0.901" transform="translate(24.906 101.248)" fill="none" stroke="#3f0d0b" stroke-miterlimit="10" stroke-width="0.667"/>
                <path id="Trazado_879116" data-name="Trazado 879116" d="M341.684,497.033a9.462,9.462,0,0,0-13.142-8.712c3.124,4.952,6.039,8.155,7.932,8.384.939.113,2.8.243,5.208.379C341.682,497.067,341.684,497.05,341.684,497.033Z" transform="translate(-313.829 -379.245)" fill="#3f0d0b" opacity="0.33"/>
                <path id="Trazado_879117" data-name="Trazado 879117" d="M409.716,484.405s-2.252,12.009,2.552,14.56a7.917,7.917,0,0,0,5.4-1.8s15.461,1.968,18.764,1.81,7.355-3.461,6.6-4.361-3.3-1.2-8.556.3l-14.861-5.4-7.055-3.725S413.319,482.754,409.716,484.405Z" transform="translate(-353.287 -377.453)" fill="#a1d9e2"/>
                <path id="Trazado_879118" data-name="Trazado 879118" d="M415.8,487.463s8.256-.7,11.521,1.323,9.569,5.742,11.145,6.192,5.4,3.94-1.914,3.265-9.57-3.04-9.57-3.04S415.992,493.119,415.8,487.463Z" transform="translate(-356.524 -379.132)" fill="#a1d9e2"/>
                <path id="Trazado_879119" data-name="Trazado 879119" d="M348.5,418.373l13.585-3.152.889,2.7L349.419,421.3Z" transform="translate(-323.594 -343.844)" fill="#e9e9e8"/>
                <path id="Trazado_879120" data-name="Trazado 879120" d="M336.21,364.712l23.352,23.081-3.49-23.568" transform="translate(-317.581 -318.894)" fill="none" stroke="#d8d6cb" stroke-miterlimit="10" stroke-width="0.502"/>
                <path id="Trazado_879121" data-name="Trazado 879121" d="M332.792,368.044s-10.713,3.452-18.275,8.257" transform="translate(-306.967 -320.762)" fill="none" stroke="#d8d6cb" stroke-miterlimit="10" stroke-width="0.502"/>
                <line id="Línea_641" data-name="Línea 641" x2="10.021" y2="3.665" transform="translate(35.392 46.546)" fill="none" stroke="#d8d6cb" stroke-miterlimit="10" stroke-width="0.502"/>
                <path id="Trazado_879122" data-name="Trazado 879122" d="M381.521,438.86s-12.553,11.569-15.846,15.847S377.726,447.816,381.521,438.86Z" transform="translate(-331.772 -355.41)" fill="#e9e9e8"/>
                <path id="Trazado_879123" data-name="Trazado 879123" d="M455.65,369.345s4.465,6.646,11.11,7.061c1.869-.312,1.454-1.246,1.35-2.077s1.349-6.023,1.349-6.023,3.219-6.749-1.454-9.76c3.531-6.438,3.115-6.574,1.661-7.388s-4.257,4.585-5.711,5.519-3,4.05-3.576,5.919a8.864,8.864,0,0,1-3.8,4.257C455.443,367.476,454.984,368.465,455.65,369.345Z" transform="translate(-375.868 -312.46)" fill="#a1d9e2"/>
                <path id="Trazado_879124" data-name="Trazado 879124" d="M503.286,376.984s-6.3-2.589-10.358-1.408-7.245,5.573-8.07,8.388-1.951,9.119-4.089,11.708-4.616,5.854-3.94,8.218,2.176,5.4,6.379,5.629c8.031.338,13.323-2.7,14.674-4.954,8.556-4.954,12.834-10.132,12.159-17.225A12.841,12.841,0,0,0,503.286,376.984Z" transform="translate(-386.326 -324.296)" fill="#d25937"/>
                <circle id="Elipse_11597" data-name="Elipse 11597" cx="1.632" cy="1.632" r="1.632" transform="translate(105.026 66.853)" fill="#3f0d0b"/>
                <path id="Trazado_879125" data-name="Trazado 879125" d="M488,407.259a1.476,1.476,0,0,0,.561-2.841c-.285.963-.6,1.912-.954,2.782A1.468,1.468,0,0,0,488,407.259Z" transform="translate(-391.654 -338.559)" fill="#3f0d0b"/>
                <path id="Trazado_879126" data-name="Trazado 879126" d="M493.413,408.571c-2.668-.818-5.326-3.685-4.875-5.958s.788-5.608-.948-2.906-.515,5.967-3.442,5.742a8.2,8.2,0,0,0-2.407.141,8.4,8.4,0,0,1-.97,1.547c-2.139,2.589-4.616,5.854-3.94,8.219s2.176,5.4,6.379,5.629c8.031.338,13.323-2.7,14.674-4.954C498.333,411.752,496.081,409.388,493.413,408.571Z" transform="translate(-386.326 -335.76)" fill="#d1d0aa"/>
                <path id="Trazado_879127" data-name="Trazado 879127" d="M480.055,426.824c.467.942,1.333,2.373,2.31,2.448,1.015-.854,1.751-1.557,2.244-2.059a.853.853,0,0,0-.342-1.412,6.946,6.946,0,0,0-3.722-.037A.748.748,0,0,0,480.055,426.824Z" transform="translate(-387.922 -348.89)" fill="#3f0d0b"/>
                <path id="Trazado_879128" data-name="Trazado 879128" d="M484.653,432.855s1.05,4.616,2.439,4.841" transform="translate(-390.209 -352.472)" fill="none" stroke="#3f0d0b" stroke-miterlimit="10" stroke-width="0.537"/>
                <path id="Trazado_879129" data-name="Trazado 879129" d="M535.6,391.251a13.863,13.863,0,0,0-.606-2.929l-6.037-5.064s0,7.67,2.027,9.633c1.186,1.149,2.445,3.73,3.289,5.679A13.068,13.068,0,0,0,535.6,391.251Z" transform="translate(-411.887 -328.206)" fill="#3f0d0b"/>
                <path id="Trazado_879130" data-name="Trazado 879130" d="M528.816,380.257s1.914,6.979,4.278,8.894,3.265,6.079,4.5,7.993,4.278,1.126,4.391-6.98.338-13.847-9.119-12.947C527.465,378.23,528.816,380.257,528.816,380.257Z" transform="translate(-411.744 -325.205)" fill="#872a21"/>
                <path id="Trazado_879131" data-name="Trazado 879131" d="M624.187,472.533" transform="translate(-458.479 -371.885)" fill="none" stroke="#0f4259" stroke-miterlimit="10" stroke-width="0.616"/>
                <path id="Trazado_879132" data-name="Trazado 879132" d="M543.288,527.577s5.179-7.768,10.808-3.265" transform="translate(-418.898 -396.532)" fill="none" stroke="#3f0d0b" stroke-miterlimit="10" stroke-width="0.806"/>
                <path id="Trazado_879133" data-name="Trazado 879133" d="M536.229,567.807s-.338-2.027,4.166-2.252" transform="translate(-415.441 -417.398)" fill="none" stroke="#3f0d0b" stroke-miterlimit="10" stroke-width="0.806"/>
                <path id="Trazado_879134" data-name="Trazado 879134" d="M523.914,505.155s-4.616,22.178-4.5,33.1H508.6s-1.11-4.734,4.9-4.166c.393-15.987-.171-23.7-.171-23.7S520.086,505.043,523.914,505.155Z" transform="translate(-401.888 -387.845)" fill="#d25937"/>
                <path id="Trazado_879135" data-name="Trazado 879135" d="M511.708,567.16s-.675-2.252,2.477-2.927" transform="translate(-403.417 -416.751)" fill="none" stroke="#3f0d0b" stroke-miterlimit="10" stroke-width="0.806"/>
                <path id="Trazado_879136" data-name="Trazado 879136" d="M511.387,444.792a2.9,2.9,0,1,1-2.9-2.9A2.9,2.9,0,0,1,511.387,444.792Z" transform="translate(-400.452 -356.894)" fill="#fff"/>
                <path id="Trazado_879137" data-name="Trazado 879137" d="M548.689,447.571c-2.222-3.2-4.463-6.957-6.316-10.235-3.173,2.589-8.665,8.255-5.955,14.824,3.455,8.376,7.3,9.35,20.142,7.907C553.937,454.351,550.756,450.551,548.689,447.571Z" transform="translate(-415.18 -354.664)" fill="#872a21"/>
                <path id="Trazado_879138" data-name="Trazado 879138" d="M576.822,512.044a59.861,59.861,0,0,0-1.332-11.615c-2.783-.3-7.092.088-7.546,5.3C567.426,511.69,572.955,512.878,576.822,512.044Z" transform="translate(-430.945 -385.497)" fill="#872a21"/>
                <circle id="Elipse_11598" data-name="Elipse 11598" cx="2.083" cy="2.083" r="2.083" transform="translate(129.794 111.503)" fill="#872a21"/>
                <rect id="Rectángulo_402997" data-name="Rectángulo 402997" width="105.153" height="5.779" transform="translate(55.901 150.409)" fill="#78a4da"/>
                <rect id="Rectángulo_402998" data-name="Rectángulo 402998" width="95.469" height="14.861" transform="translate(60.782 156.188)" fill="#b5cfea"/>
                <path id="Trazado_879139" data-name="Trazado 879139" d="M376.009,316a6.133,6.133,0,0,0-.249-3.608" transform="translate(-336.931 -293.532)" fill="none" stroke="#3f0d0b" stroke-miterlimit="10" stroke-width="0.667"/>
                <path id="Trazado_879140" data-name="Trazado 879140" d="M372.221,317.4s.288-.377.2-1.689a2.676,2.676,0,0,0-.5-.468,15.62,15.62,0,0,0-3.351.235,2.67,2.67,0,0,0-.717,1.127C371.231,317.257,372.221,317.4,372.221,317.4Z" transform="translate(-333.063 -294.923)" fill="#3f0d0b"/>
                <path id="Trazado_879141" data-name="Trazado 879141" d="M370.3,288.031a19.851,19.851,0,0,0-12.074,6.268c-.25,5.75-.07,17.065,4.431,24.034,3.455,1.264,6.825,1.459,7.868,1,2.027-.9,2.589-6.3,3.152-16.1S370.3,288.031,370.3,288.031Z" transform="translate(-328.316 -281.614)" fill="#fff" opacity="0.17" style="mix-blend-mode: overlay;isolation: isolate"/>
                <rect id="Rectángulo_402999" data-name="Rectángulo 402999" width="95.469" height="4.351" transform="translate(60.782 156.188)" fill="#97b6d3"/>
                <path id="Trazado_879142" data-name="Trazado 879142" d="M308.822,382.009s9.33,2.177,12.655,14.286c4.009,11.832,5.136,14.749,5.136,14.749" transform="translate(-304.181 -327.595)" fill="none" stroke="#d8d6cb" stroke-miterlimit="10" stroke-width="0.502"/>
                <path id="Trazado_879143" data-name="Trazado 879143" d="M395.685,393.65s-5.228-17.465-8.1-23.692" transform="translate(-342.72 -321.698)" fill="none" stroke="#d8d6cb" stroke-miterlimit="10" stroke-width="0.502"/>
                <path id="Trazado_879144" data-name="Trazado 879144" d="M469.869,376.127s.274,5.381,2.673,7.92S467.2,384.055,469.869,376.127Z" transform="translate(-382.698 -324.717)" fill="#6ba6bf"/>
                <path id="Trazado_879145" data-name="Trazado 879145" d="M453.617,504.037s2.392,1.681-.7,2.167-9.7-2.588-9.7-2.588" transform="translate(-369.937 -387.093)" fill="none" stroke="#6ba6bf" stroke-miterlimit="10" stroke-width="1.074"/>
                <path id="Trazado_879146" data-name="Trazado 879146" d="M507.2,408.791a.408.408,0,1,1-.408-.408A.408.408,0,0,1,507.2,408.791Z" transform="translate(-400.844 -340.499)" fill="#fff"/>
                <path id="Trazado_879147" data-name="Trazado 879147" d="M531.4,423.289a7.238,7.238,0,0,1,2.112,4.95" transform="translate(-413.079 -347.792)" fill="none" stroke="#3f0d0b" stroke-linecap="round" stroke-miterlimit="10" stroke-width="2.148"/>
                <path id="Trazado_879148" data-name="Trazado 879148" d="M511.766,434.226s2.206-2.546,1.028-3.9" transform="translate(-403.475 -351.232)" fill="none" stroke="#3f0d0b" stroke-miterlimit="10" stroke-width="0.537"/>
                <path id="Trazado_879149" data-name="Trazado 879149" d="M512.183,430.514a2.1,2.1,0,0,1,1.631-.725" transform="translate(-403.679 -350.972)" fill="none" stroke="#3f0d0b" stroke-miterlimit="10" stroke-width="0.537"/>
              </g>
              <path id="Trazado_879150" data-name="Trazado 879150" d="M350.3,532.027s12.962,26.116,26.22,31.393S358.555,541.473,350.3,532.027Z" transform="translate(-324.474 -400.994)" fill="#e9e9e8"/>
              <path id="Trazado_879151" data-name="Trazado 879151" d="M337,502.37s-7.619,42.321,7.25,55.162" transform="translate(-317.015 -386.483)" fill="none" stroke="#d8d6cb" stroke-miterlimit="10" stroke-width="0.502"/>
            </g>
          </g>
        </g>
      </g>
    </g>
  </g>
</svg>
